<svg width="155" height="153" viewBox="0 0 155 153" fill="none" xmlns="http://www.w3.org/2000/svg">
<path d="M89.5493 133.502C94.5277 134.055 99.9558 134.353 104.111 131.351C110.342 126.849 110.823 117.355 110.66 109.28C105.548 108.157 101.906 114.284 97.4518 117.208C92.8892 120.204 87.1466 119.79 81.8233 119.278C58.878 117.071 35.5143 113.308 12.5117 112.776C33.4915 124.079 65.9011 134.254 89.5493 133.502Z" fill="#EDEFFF"/>
<path d="M103.151 122.538C104.882 121.286 106.669 115.604 107.853 114.003C109.752 112.708 112.585 113.06 115.213 111.129C115.855 110.658 116.186 109.797 116.054 108.944C112.19 84.0619 106.716 47.8607 103.796 20.8725C103.684 19.8393 102.934 19.0768 102.034 19.0036C100.734 18.6283 83.6336 17.4663 80.6114 17.2775C81.5633 12.5373 81.5177 5.94644 76.7621 3.64294C74.5968 2.59577 72.2978 2.76035 70.4759 2.38888C68.0388 1.89168 65.5999 1.81701 63.2936 1.59317L48.3709 0.167454C46.0692 -0.0489526 42.9211 -0.352775 40.2588 1.40476C36.1967 4.08717 35.3146 9.75128 35.3308 15.0706C26.9591 14.665 18.36 14.1895 9.43913 13.5393C8.32062 13.4732 7.4325 14.4436 7.40707 15.644C6.77203 46.1637 3.99426 74.7309 0.0171612 108.233C-0.115875 109.353 0.537847 110.401 1.51726 110.633C32.3469 117.934 62.4286 120.078 94.2774 122.345C102.579 122.938 102.449 123.048 103.151 122.538ZM42.1854 5.13339C43.6792 4.14642 45.7249 4.2491 48.049 4.47255C64.3114 6.01407 62.4001 5.86415 64.9092 6.05979C70.1105 6.46632 68.8838 6.62936 72.022 6.93987C73.2213 7.06084 74.3534 7.17479 75.2596 7.61331C77.7465 8.81746 77.5303 13.6563 76.7304 17.0418C64.2612 16.3177 52.4081 15.8678 39.1525 15.251C39.1265 11.6911 39.4729 6.92598 42.1854 5.13339ZM11.1742 17.992C41.6987 20.1405 70.0076 20.3624 99.2401 23.014C99.6056 38.1765 98.4493 39.5843 98.0217 66.8149C97.9978 67.3645 97.9751 67.9145 97.9519 68.4646C85.6693 69.483 73.3739 69.6 61.124 68.8477L61.4313 63.6513C61.5323 61.9463 60.341 60.4709 58.7583 60.3406L46.0466 59.2933C44.4348 59.1605 43.0333 60.4713 42.9309 62.2075L42.6444 67.05C20.4393 64.0618 10.3562 60.1783 8.84097 60.3016C10.0157 46.1307 10.8272 32.2608 11.1742 17.992ZM8.47926 64.5253C14.011 66.212 28.601 69.5209 42.3888 71.3653L42.1396 75.5782C42.0389 77.283 43.2301 78.7586 44.8129 78.8889L57.5246 79.9361C59.1362 80.0688 60.5379 78.758 60.6403 77.022L60.8693 73.152C72.8385 73.8891 84.706 73.8659 97.7806 72.8053C97.2269 87.9986 97.1983 103.385 99.4649 118.389C66.9733 116.074 35.6203 114.1 4.03635 106.812C5.7867 91.9716 7.29271 78.0818 8.47926 64.5253Z" fill="#222222"/>
<path d="M108.624 145.47L103.543 148.368C102.601 148.905 102.223 150.204 102.696 151.268C103.171 152.334 104.319 152.761 105.26 152.226L110.343 149.325C121.402 143.017 132.718 130.4 139.877 116.4C147.376 101.73 148.357 84.8298 142.437 72.2918C141.939 71.2387 140.787 70.8436 139.853 71.4046C138.924 71.967 138.572 73.2746 139.069 74.3277C144.372 85.5581 143.415 100.851 136.571 114.238C129.765 127.55 119.056 139.518 108.624 145.47Z" fill="#222222"/>
<path d="M141.841 143.86C142.364 143.86 142.885 143.618 143.261 143.144C149.462 135.344 153.456 125.312 154.509 114.894C154.628 113.709 153.876 112.637 152.83 112.502C151.755 112.357 150.836 113.218 150.716 114.402C149.752 123.937 146.096 133.119 140.423 140.257C139.316 141.65 140.205 143.86 141.841 143.86Z" fill="#222222"/>
</svg>
