<svg width="62" height="67" viewBox="0 0 62 67" fill="none" xmlns="http://www.w3.org/2000/svg">
<path d="M61.2566 34.1982C59.5869 33.2216 57.4761 32.5956 55.6134 32.0435C55.4092 31.983 55.2202 31.9244 55.0221 31.8651L54.8315 27.4755C56.7801 26.0574 58.5245 24.3477 60.0034 22.3598C60.7654 21.9634 60.9975 20.9748 60.6464 20.2238C58.7229 16.1148 56.0398 12.4522 55.249 11.7181C54.8893 11.2494 54.3026 11.05 53.7571 11.2719C51.566 12.1545 49.4587 13.288 47.467 14.6218C46.1628 12.9307 44.6307 11.4346 42.9431 10.2053L44.102 3.55098C44.2735 2.5641 43.5759 1.6004 42.6233 1.70952L34.815 0.0256259C34.2059 -0.101613 33.4374 0.245517 33.1838 1.05493L31.2392 7.25874L25.3305 9.20918L21.7894 2.03565C21.4204 1.28704 20.5851 1.01857 19.9215 1.43899C19.7549 1.54468 19.6157 1.684 19.506 1.84514C16.64 3.41222 14.2496 5.23088 11.7331 6.53951C11.317 6.7561 11.0889 7.12629 10.9664 7.63744C10.8921 8.03975 10.891 8.40184 11.0792 8.79549L14.4366 15.843L11.5645 20.4887C9.35266 20.6814 7.08976 20.4756 4.94112 19.8808C4.17031 19.2343 3.12961 19.6535 2.83462 20.6111L0.0777273 29.5315C-0.109406 30.1356 0.0525498 30.7822 0.443398 31.1903C0.606686 31.4434 0.836421 31.6449 1.11942 31.7501L7.19023 34.0096C7.66896 36.2569 8.00159 37.4625 8.47862 39.6728L2.94911 43.9131C2.82782 43.9392 2.70752 43.9773 2.59156 44.0428C1.98828 44.383 1.70577 45.158 1.88649 45.8658C1.92062 46.0668 1.98961 46.2635 2.09758 46.4436C2.12142 46.4836 2.15313 46.5133 2.17976 46.55C3.52382 49.4933 5.27738 52.1704 7.4236 54.4958C7.68893 54.7845 8.03016 54.9274 8.37138 54.9274C8.43505 54.9274 8.49797 54.916 8.56116 54.9061C8.61986 54.9149 8.6769 54.9345 8.73669 54.9345C8.92697 54.9345 9.1199 54.8899 9.30485 54.7948C11.5029 53.6587 13.6842 52.4168 15.818 51.1197C17.2448 52.5833 18.0063 53.3762 19.4703 54.8769L18.5392 61.8644C18.4267 62.7134 18.9421 63.5064 19.6917 63.6352C19.7036 63.6372 19.7156 63.6364 19.7277 63.6382C20.6069 63.9329 21.3569 64.1967 22.0251 64.4325C24.1039 65.164 25.476 65.6481 27.8085 66.0412C27.8772 66.0534 27.9452 66.0584 28.0122 66.0584C28.6805 66.0584 29.2664 65.5033 29.3674 64.7313C29.373 64.6889 29.37 64.6478 29.3725 64.6058L31.851 58.443C33.8662 58.2599 35.3704 57.9549 37.6527 57.5895L41.021 62.8008C41.028 62.8112 41.0347 62.8214 41.0418 62.8317C41.3106 63.2451 41.7261 63.4641 42.1463 63.4641C42.381 63.4641 42.6131 63.3785 42.8268 63.2381C45.342 62.2359 47.7207 60.8804 49.9098 59.2022C50.0364 59.1327 50.1474 59.0413 50.2468 58.9358C50.7875 58.4274 50.9112 57.5295 50.5042 56.8612C50.4992 56.8533 50.4931 56.8475 50.4881 56.8398C49.8602 54.4108 49.0713 52.0229 48.1387 49.7113C49.6808 48.5025 50.8734 47.2808 51.7501 46.0189C54.0773 46.714 55.9903 47.1326 58.1493 47.4243C58.2048 47.4324 58.2592 47.4354 58.3137 47.4354C58.7396 47.4354 59.1132 47.1947 59.3674 46.8348C59.6771 46.6242 59.9228 46.2938 60.0093 45.8632C60.2379 44.7206 60.439 43.5758 60.6426 42.416C61.7264 36.2477 61.7447 37.1064 61.8466 36.2948C61.8466 36.2948 61.8466 36.2945 61.8468 36.2944C62.1946 35.5303 61.9302 34.5923 61.2566 34.1982ZM45.5716 47.9051C44.8143 48.4406 44.6808 49.6779 45.3943 50.3896C46.3048 52.5656 47.0735 54.8213 47.6941 57.1182C46.0966 58.2674 44.3964 59.2326 42.6151 60.0018L39.3568 54.9606C38.9873 54.389 38.3399 54.1951 37.782 54.425C36.9704 54.552 36.2544 54.6722 35.5895 54.7844C34.0845 55.039 32.8503 55.2406 31.365 55.3641C30.723 55.1508 30.0211 55.4944 29.7356 56.2066L27.1032 62.7503C25.1901 62.3424 23.8807 61.8124 21.4345 60.9692L22.1876 55.3202C22.5281 54.773 22.5146 54.0655 22.1706 53.5326C22.0469 53.2521 21.8489 53.0203 21.6024 52.8669C20.8938 52.1426 20.1708 51.3981 19.4443 50.6482C18.5974 49.775 17.7505 48.9019 16.934 48.0691C16.4411 47.5674 15.721 47.5448 15.2098 47.9678C13.1156 49.2633 10.9592 50.4849 8.79128 51.6236C7.3298 49.938 6.0827 48.0699 5.0663 46.0446L10.9584 41.5261C11.6256 41.0149 11.7901 39.9276 11.1998 39.1941C10.7041 36.8547 10.2457 35.1601 9.79641 32.9902C9.86032 32.2789 9.48436 31.5882 8.86087 31.3567L3.08481 29.2068L4.97442 23.0922C6.60657 23.4846 8.28882 23.6923 9.96672 23.6923C10.8253 23.6923 11.6828 23.6396 12.5297 23.5353C13.0733 23.468 13.5041 23.0469 13.6727 22.4974L17.108 16.9436C17.2735 16.6755 17.3533 16.369 17.3554 16.0648C17.3943 15.748 17.3517 15.4159 17.2072 15.1131L14.1296 8.65327C16.5669 7.23896 17.7818 6.32194 20.1011 4.98711L23.1723 11.2074C23.1795 11.3134 23.1956 11.42 23.2228 11.5261C23.3979 12.2058 23.9455 12.6465 24.5395 12.6465C24.6673 12.6465 24.7959 12.6262 24.9245 12.5848L32.2392 10.1699C32.5217 10.0767 32.7556 9.88821 32.9259 9.64609C33.2647 9.4811 33.5498 9.17706 33.6827 8.75156L35.3865 3.31681L41.1293 4.55516L40.2033 9.87298C40.1578 9.93722 40.1131 10.0025 40.0762 10.0765C39.702 10.8242 39.9342 11.7733 40.5934 12.1968C42.6802 13.5379 44.5518 15.3552 46.0062 17.4532C46.2778 17.8442 46.6796 18.0478 47.0862 18.0478C47.1311 18.0478 47.1748 18.0279 47.2197 18.0228C47.2715 18.0296 47.3222 18.0448 47.3748 18.0448C47.624 18.0448 47.8759 17.9678 48.1028 17.8066C49.9123 16.5201 51.8453 15.441 53.8512 14.5645C55.3125 16.4416 56.5965 18.4724 57.6867 20.624C56.3186 22.404 54.7193 23.9442 52.9125 25.1873C52.5514 25.4358 52.3338 25.8444 52.2745 26.2835C51.8801 27.0061 52.1521 27.1754 52.3265 33.0665C52.354 33.706 52.7193 34.2329 53.2161 34.4446C53.3371 34.5376 53.4693 34.6156 53.6183 34.662C54.0337 34.7917 54.4706 34.9213 54.919 35.054C56.2619 35.4522 57.7404 35.8933 58.9915 36.4546C58.4007 39.0626 58.1555 40.7791 57.5134 44.1912C55.814 43.9183 54.203 43.5378 52.2881 42.9601C52.2061 42.8639 52.1165 42.7744 52.0105 42.7023C51.362 42.2597 50.5186 42.4997 50.1283 43.2361C49.3066 44.7891 47.8156 46.3168 45.5716 47.9051Z" fill="#F44817"/>
<path d="M42.7067 21.3426C38.6798 17.305 35.3402 15.9616 30.391 16.3852C23.8056 16.9375 17.9601 22.7238 16.7911 29.8486C15.3402 38.7924 21.5348 48.932 31.3781 48.932C35.8487 48.932 40.3472 46.8504 43.224 43.0986C47.5992 37.4276 48.0815 29.1023 44.3695 23.3037C44.2881 23.1768 42.7912 21.4258 42.7067 21.3426Z" fill="#F44817"/>
</svg>
