<svg width="172" height="290" viewBox="0 0 172 290" fill="none" xmlns="http://www.w3.org/2000/svg">
<path d="M167.994 98.4197C167.77 97.6679 167.037 97.2597 166.355 97.5055C165.673 97.7522 165.302 98.5614 165.526 99.3133C166.999 104.265 168.189 109.282 169.068 114.252C162.821 115.317 158.542 118.885 153.291 117.634C152.608 117.473 151.869 117.211 151.096 116.946C149.318 116.352 147.652 115.906 145.848 116.481C144.475 116.926 143.516 117.822 142.459 118.363C141.223 119.006 138.88 118.359 137.371 118.091C133.973 109.04 132.241 102.058 131.42 94.1704C131.338 93.385 130.697 92.8231 129.982 92.9106C129.269 93.0011 128.758 93.7112 128.839 94.497C129.713 102.889 131.572 110.263 135.259 119.949C135.441 120.427 135.842 120.759 136.308 120.818C137.073 120.915 138.154 121.166 139.101 121.322C139.201 121.339 139.293 121.351 139.388 121.366C139.906 127.283 141.219 135.032 140.147 140.485C139.109 140.807 136.976 141.194 136.576 141.296C132.771 142.263 129.306 142.882 125.345 143.225C115.304 144.096 112.441 143.481 112.164 143.487C110.879 143.516 103.387 141.882 102.157 141.498C102.075 141.472 101.993 141.457 101.912 141.449C100.728 141.073 100.539 140.613 100.148 139.294C99.5368 137.234 98.2757 135.089 97.3001 133.769C95.0605 130.739 91.931 129.219 88.251 129.373C87.326 129.411 86.6326 129.613 86.1122 129.903C84.5751 119.183 82.7764 108.923 80.9525 98.0949C86.6433 100.421 85.8394 100.015 88.242 101.841C91.7814 104.527 92.655 104.856 95.0009 105.638C95.9922 105.969 96.929 106.281 97.7538 106.779C98.4275 107.186 99.0869 107.71 99.959 108.396C98.1573 114.264 96.8235 117.947 94.4885 123.546C94.1889 124.265 94.4743 125.115 95.1261 125.446C95.7763 125.776 96.5485 125.463 96.8486 124.743C99.1421 119.242 100.487 115.557 102.225 109.944C103.764 110.541 104.653 108.13 103.253 107.327C101.869 106.533 100.546 105.198 99.0011 104.266C97.0614 103.094 94.9409 102.82 93.2455 101.899C91.2986 100.842 89.454 99.1828 87.4647 97.8362C87.109 97.5955 85.8825 97.0469 80.4025 94.8164C80.3466 94.4819 80.2908 94.1466 80.2352 93.8112C83.8235 86.9737 86.6777 82.227 93.2033 75.1426C96.2325 71.8545 101.244 67.5037 104.565 65.9172C106.434 65.0247 108.096 64.2898 109.621 63.7613C112.204 70.0658 115.899 75.9269 120.375 80.7569C120.598 80.9974 120.88 81.132 121.169 81.16C121.52 81.194 121.882 81.0713 122.16 80.7898C128.258 74.6326 134.066 68.6286 140.158 62.4752C141.453 62.8523 142.134 63.2309 144.279 64.0234C149.069 65.8031 153.123 69.6028 155.694 74.7224C158.765 80.8261 161.394 87.0016 163.508 93.0772C163.692 93.6056 164.129 93.9451 164.607 93.9915C164.798 94.0099 164.995 93.9818 165.185 93.9014C165.855 93.6181 166.19 92.7893 165.933 92.051C163.775 85.8506 161.095 79.5524 157.965 73.3333C155.08 67.5878 150.513 63.3173 145.105 61.3078C142.119 60.2042 141.85 59.8382 138.553 59.1607C137.361 58.9302 136.549 60.4347 137.313 61.4693C131.369 67.4905 126.583 72.4284 121.325 77.7489C118.559 74.6036 116.139 71.0362 114.144 67.2211C114.31 65.7882 113.975 68.2994 114.851 60.6351C115.097 58.4923 115.347 56.2987 115.49 54.7965C118.76 55.372 121.508 53.8656 122.84 51.4352C123.21 50.7578 123.013 49.8775 122.399 49.4685C121.785 49.0603 120.987 49.2769 120.616 49.9543C119.298 52.3625 115.996 52.6377 113.832 51.1459C111.755 49.7137 110.197 46.9707 109.201 42.9918C108.052 38.418 107.829 33.5189 108.555 28.8258C108.838 27.0205 109.685 25.5063 110.596 23.9189C111.402 23.7599 111.898 23.924 112.288 24.2079C113.088 25.1975 114.291 26.5597 115.24 27.4735C117.163 29.3219 118.961 30.9655 121.764 31.899C121.877 31.9366 121.992 31.9627 122.105 31.9966C128.733 34.5761 132.625 31.1804 133.714 31.4494C134.07 31.6935 134.299 33.7335 133.735 34.9206C133.568 35.2714 133.369 35.5749 133.139 35.8545C132.228 36.4674 130.918 36.7037 130.251 38.2408C129.787 39.1801 129.925 40.4581 130.097 41.4243C130.387 43.0509 130.591 45.7416 130.906 47.5078C130.936 47.679 130.997 47.8339 131.075 47.9752C131.127 49.357 131.133 51.0238 131.134 53.7026C131.134 54.494 131.717 55.1346 132.433 55.1342C133.15 55.134 133.731 54.4923 133.731 53.7014C133.729 49.4114 133.71 47.5865 133.523 45.518C133.647 43.7791 134.008 41.88 134.613 40.7235C135.132 39.7331 136.438 38.61 137.224 37.5191C138.471 35.7893 138.819 33.5772 138.982 31.8434C139.495 26.3968 138.577 21.0713 137.69 15.9206C137.277 13.5258 136.671 10.8521 134.691 9.43583C132.294 7.72109 129.488 8.99896 128.397 6.78727C127.543 5.04466 126.859 3.83124 124.853 3.53694C123.768 3.3784 122.631 3.67828 121.641 4.38138C121.03 4.8136 120.386 5.06997 119.222 3.47314C116.447 -0.333069 110.616 -1.37383 106.52 2.19001C105.48 3.09441 106.202 4.93299 107.497 4.734C108.329 4.60993 109.194 4.81648 109.942 5.26199C103.824 5.8906 100.35 9.67921 99.5938 13.7216C99.3833 14.8468 100.406 15.7808 101.371 15.3303C101.929 15.0707 102.52 14.8964 103.122 14.8086C100.473 17.8408 99.7562 22.0336 100.722 25.6245C101.571 28.7759 104.079 29.2163 106.238 27.2041C106.142 27.5714 106.057 27.9468 105.995 28.3417C104.702 36.6966 106.195 49.963 112.963 53.8781C112.847 55.2632 112.566 57.7276 112.289 60.1459C109.694 60.5271 106.907 61.677 103.532 63.2889C99.4546 65.2364 94.0316 70.2238 91.3811 73.1016C85.5767 79.4023 82.593 83.8964 79.5252 89.5004C79.444 89.0019 79.3618 88.506 79.2814 88.0064C79.1958 87.4421 78.8058 86.9922 78.2945 86.8659C74.7649 85.9829 71.2528 85.1421 67.7452 84.3175C66.5673 78.8586 66.0227 75.2489 65.5701 72.7268C65.03 69.7141 64.8301 68.6483 65.018 66.9311C65.6044 63.7706 66.6806 60.1858 66.567 57.6076C66.4737 55.23 66.2677 52.9072 64.9874 51.112C66.336 31.2123 66.5479 30.8842 65.9986 29.1455C65.1359 26.4142 62.8108 26.2249 62.8939 26.2728C61.7071 26.1593 60.4993 26.8215 59.7407 28.0019C59.1797 28.8762 58.9411 29.8422 58.7268 30.838C57.8464 34.9342 57.1782 39.22 56.5858 43.3605C55.1343 42.6133 53.4787 42.2213 52.0535 43.046C50.8657 42.658 49.2886 42.8244 48.6597 43.0593C48.0505 43.2879 47.2007 43.8239 46.6212 44.5674C45.1366 44.405 43.7039 45.4051 43.0313 46.7097C42.2245 48.2764 42.2967 50.0738 42.275 51.918C42.1955 58.6437 42.1739 60.451 42.4531 66.9035C42.4845 67.6277 42.9979 68.2004 43.6349 68.2621C44.4232 68.3385 45.0848 67.6308 45.0475 66.7673C44.8215 61.5439 44.795 59.4019 44.8366 55.1238C44.9709 57.1537 47.5312 58.5907 49.2883 56.8673C50.0992 57.6643 51.068 57.9606 52.0401 57.8146C53.283 57.628 54.0978 56.5013 54.554 55.1754C55.3908 55.8594 56.7451 56.5581 57.2578 57.0999C57.0493 57.6297 56.2539 58.5518 55.8527 58.6876C55.1554 58.7741 54.6434 59.4589 54.7043 60.2346C54.7667 61.0233 55.3971 61.6024 56.1104 61.5382C57.9548 61.3615 60.6766 58.0624 59.6829 55.9297C59.0241 54.441 56.735 53.4883 55.9991 52.8057C55.1768 52.0375 54.5156 50.8375 54.8312 50.1628C55.0262 49.7491 55.6604 49.4601 56.3373 49.4746C57.1936 49.4921 58.1273 49.8951 59.0322 50.2829C60.7452 51.0148 62.3488 51.7869 63.1524 53.1749C63.8014 54.2967 63.9201 56.4055 63.972 57.7387C64.0398 59.2734 63.4611 61.7174 63.145 63.1762C61.7301 68.0647 62.4582 69.7944 63.3017 74.883C63.8213 78.0073 64.3598 80.9033 64.9337 83.6626C58.5693 82.1894 52.215 80.7845 45.8175 79.4253C45.8023 79.1184 45.5694 75.5318 45.4365 73.7329C45.377 72.9507 44.7546 72.3631 44.0375 72.4182C43.3285 72.4837 42.7958 73.1702 42.8457 73.9611C42.9801 75.7665 43.0785 77.3674 43.1768 78.8626C32.5666 76.6289 20.4802 74.1817 13.4111 72.7391C12.5006 72.5304 11.6672 73.4862 11.9238 74.5025C16.7044 94.6834 20.8249 115.299 24.1728 135.791C24.2548 136.288 24.5696 136.702 24.9987 136.878C34.7024 140.866 45.0996 144.247 55.5292 147.255C55.0951 148 54.7201 148.79 54.4154 149.621C32.6529 209.172 16.4534 240.202 16.3273 241.611C16.335 244.289 23.7977 248.703 25.8794 249.773C25.4691 250.738 24.9366 251.671 23.9745 253.165C21.5173 256.928 13.0952 257.934 8.87078 257.993C7.69395 258.011 6.4771 258.028 5.25653 258.339C3.2046 258.853 0.395179 261.497 0.0421411 263.847C-0.321146 266.24 1.74842 269.395 3.26982 270.428C4.75445 271.449 6.41429 271.804 8.05615 272.155C30.4905 276.866 29.9792 276.828 31.4514 276.97C38.3811 277.642 39.408 271.961 41.0567 265.474L43.4011 256.06C45.8167 256.685 48.3633 257.282 51.0067 257.834C51.5859 257.953 52.151 257.633 52.408 257.071C56.1392 248.9 60.3934 240.419 66.6635 226.631C66.5318 239.606 65.9059 251.184 63.7889 263.658C63.6602 264.403 64.0808 265.124 64.7435 265.313C67.0148 265.954 69.3094 266.508 71.5921 267.005C69.2797 270.745 61.6028 272.775 57.5252 273.391C56.359 273.567 55.1534 273.749 53.9795 274.223C52.0019 275.023 49.5459 278.047 49.4987 280.424C49.4332 282.825 51.8621 285.668 53.4995 286.495C56.1212 287.814 57.6048 287.346 79.6302 289.079C82.0969 289.257 84.6729 289.297 86.6809 287.695C89.3894 285.533 89.6404 281.688 90.2642 276.766C90.5668 274.398 90.86 271.878 91.1377 269.501C92.1348 269.534 93.1395 269.559 94.146 269.561C94.7456 269.561 95.268 269.114 95.4143 268.476C100.052 248.105 97.8423 227.364 99.0973 205.203C99.4309 199.401 99.475 198.538 99.4817 197.796L121.044 199.793C112.637 225.382 105.187 248.287 96.8179 273.749C96.5276 274.633 97.0761 275.582 97.9261 275.665C98.498 275.72 99.0549 275.349 99.26 274.725C102.213 265.739 105.05 257.079 107.851 248.516L141.883 253.343L144.736 280.704C144.807 281.392 145.309 281.909 145.911 281.968C146.73 282.047 147.41 281.278 147.316 280.377L139.088 201.463L158.878 203.296C162.715 203.651 166.084 200.512 166.406 196.279C166.733 191.976 163.797 188.291 160.044 187.976L156.543 187.652C159.63 184.988 161.778 181.584 162.933 177.483C164.52 171.818 164.851 166.779 164.064 160.127C167.24 157.267 168.411 153.022 169.175 148.595C170.954 138.298 170.976 127.435 169.274 117.11C169.644 117.023 169.956 116.96 170.165 116.938C171.087 117.322 172.076 116.448 171.895 115.342C170.976 109.722 169.663 104.028 167.994 98.4197ZM47.5312 54.7705C47.5085 54.7734 47.4763 54.7624 47.4433 54.7488C47.4007 52.993 45.0058 52.8095 44.8411 54.7383C44.8895 50.0892 44.8283 49.0222 45.2901 48.1252C45.5018 47.7151 45.9681 47.3652 46.3555 47.4027C46.8232 47.448 47.1197 48.1195 47.2246 48.6229C47.8196 51.4404 47.8498 51.724 47.8417 53.8345C47.8396 54.277 47.6831 54.7018 47.5312 54.7705ZM51.6906 54.9763C51.5064 55.0039 51.2593 54.9982 50.981 54.7044C50.6083 54.3111 50.4131 53.6398 50.446 53.2429C50.4553 53.1317 50.4499 53.0232 50.4365 52.9172C50.4185 51.1701 50.2318 50.2358 49.8381 48.3706C49.7756 48.1545 49.6722 47.1174 48.9682 46.0809C49.1396 45.9524 49.3316 45.8336 49.496 45.7721C49.8209 45.6536 50.7869 45.6439 51.2393 45.7624C51.4959 47.2886 52.2606 51.7772 52.3793 52.516C52.4594 53.4672 51.9882 54.8157 51.6906 54.9763ZM54.117 47.1573C54.0089 46.5192 53.9081 45.9231 53.8276 45.4463C54.7106 45.463 56.088 46.1891 56.4101 46.6129C56.3119 46.6235 55.2578 46.5198 54.117 47.1573ZM58.3605 46.9836C58.602 46.7645 58.7784 46.4634 58.8281 46.1075C59.081 44.2946 60.8827 31.1818 61.8606 29.6581C62.2394 29.069 62.7596 29.0979 62.6702 29.1271C63.0012 29.1592 63.3864 29.5812 63.5464 30.0882C63.852 31.0554 63.7486 30.967 62.5343 48.8841C61.3815 48.1755 59.3341 47.3015 58.3605 46.9836ZM28.465 124.465C28.0597 124.426 27.7224 124.077 27.6804 123.622L25.3368 99.2486C25.2828 98.7257 25.6334 98.2516 26.1068 98.2018C26.5806 98.1422 27.0107 98.529 27.0559 99.0509L29.4002 123.415C29.4587 123.98 29.0474 124.521 28.465 124.465ZM55.4984 113.06C54.66 116.382 51.0668 118.181 47.4689 117.084C43.8722 115.979 41.6376 112.388 42.4756 109.066C43.3728 105.491 47.2537 104.001 50.5043 105.051C54.1013 106.157 56.3364 109.738 55.4984 113.06ZM66.2476 221.135C58.5852 238.171 55.0073 245.081 50.5314 254.816C41.67 252.918 25.4396 248.747 19.1877 241.527C32.7664 212.856 46.0887 180.072 56.8247 150.694C57.1773 149.732 57.6503 148.84 58.2164 148.025C61.672 149 65.1193 149.933 68.5458 150.836C68.7744 151.621 69.2379 152.257 69.773 152.843C65.5219 174.169 65.5387 198.48 66.811 220.375L66.7993 220.511C66.5689 220.647 66.3724 220.857 66.2476 221.135ZM72.5285 275.463C68.7311 276.229 65.0323 277.891 61.8327 280.272C61.6617 280.399 61.4642 280.45 61.2734 280.431C60.4608 280.353 60.1939 279.187 60.8648 278.688C64.2606 276.162 68.1865 274.397 72.2174 273.584C72.6867 273.489 73.1388 273.833 73.2247 274.352C73.3106 274.871 72.999 275.368 72.5285 275.463ZM141.578 250.412L108.755 245.756C114.068 229.511 118.807 215.008 123.725 200.041L136.449 201.219L141.578 250.412ZM160.446 176.629C159.136 181.301 156.31 184.946 152.047 187.466C152.045 187.467 152.044 187.467 152.042 187.467C142.427 193.154 130.522 191.156 119.875 188.906C115.189 187.92 106.219 184.249 101.134 186.076C95.4897 188.107 97.0694 194.214 96.863 198.565C96.734 200.949 96.6168 203.075 96.5045 205.029C95.3258 225.72 97.3332 247.215 93.1417 266.684C84.0721 266.556 75.089 265.179 66.556 262.863C68.7843 249.179 69.2689 236.544 69.2879 221.899C69.4191 220.365 69.4227 220.425 69.4059 220.31C68.1916 199.092 68.1002 175.488 72.0688 154.676C80.27 159.19 93.3194 162.63 111.934 165.162L111.961 165.164C111.977 165.166 111.991 165.172 112.008 165.174C112.021 165.175 112.035 165.176 112.049 165.177C127.016 166.107 129.989 165.85 137.934 165.164C152.93 163.871 157.015 164.306 161.632 161.829C162.179 167.435 161.836 171.711 160.446 176.629ZM166.624 148.06C166.049 151.389 165.235 154.794 163.187 157.145C160.293 160.465 155.575 161.021 150.991 161.307C130.029 162.614 132.999 163.608 112.277 162.322C112.27 162.321 112.263 162.318 112.256 162.317C93.9602 159.826 80.7242 156.329 72.9129 151.94C72.8297 151.893 72.7471 151.837 72.6569 151.771C72.0231 151.326 71.2134 150.471 71.0326 150.013C70.8724 149.623 70.8903 148.743 71.0408 148.49C71.7471 148.788 72.4622 149.087 73.1675 149.395C73.2437 149.422 73.3113 149.448 73.3864 149.484C74.0503 149.768 74.8019 149.391 75.0601 148.658C75.319 147.917 74.9852 147.089 74.3213 146.804C74.0356 146.681 73.7406 146.566 73.455 146.442C73.0151 146.255 72.1185 145.877 71.6772 145.694C70.4135 145.051 69.8573 143.595 69.9909 142.981C70.7101 142.651 71.6394 143.063 72.3023 143.477C73.2809 144.086 73.4642 143.994 74.5419 144.779C75.14 145.213 75.9459 145.032 76.3413 144.373C76.7364 143.713 76.5715 142.824 75.9731 142.388C74.7321 141.485 74.3312 141.45 73.5801 140.982C73.0256 140.637 72.5091 140.397 72.0314 140.241C71.943 140.164 71.8479 140.093 71.7394 140.041C69.2584 138.858 69.7643 136.247 72.1289 136.36C72.2825 136.368 72.429 136.34 72.5678 136.292C73.321 136.815 74.1633 137.349 75.0681 137.92C79.1498 140.499 78.8029 140.496 79.3237 140.547C80.6761 140.678 81.2789 138.709 80.1334 137.909C75.9175 134.965 71.4289 132.78 71.6479 131.284C71.8126 130.162 73.153 130.148 74.0437 130.716C78.3937 133.493 84.3515 137.297 89.0041 140.671C89.6049 141.105 90.4092 140.922 90.8029 140.262C91.1968 139.6 91.0306 138.712 90.4314 138.278C89.3772 137.513 88.2535 136.727 87.1038 135.938C87.1682 135.742 87.1987 135.529 87.1783 135.308C87.0777 134.216 87.0156 133.318 87.2087 132.513C87.2105 132.51 87.4127 132.275 88.3498 132.236C91.2263 132.117 93.5582 133.24 95.2871 135.579C99.0182 140.625 96.9002 143.223 102.142 144.458C110.471 146.941 116.624 146.855 125.549 146.081C132.099 145.513 136.207 144.275 137.771 143.96C141.386 143.23 142.258 142.946 142.525 141.832C143.953 135.854 142.585 127.767 142.004 121.43C144.103 121.128 145.136 119.698 146.575 119.231C148.392 118.652 150.481 119.899 152.744 120.435C156.489 121.329 160.237 120.133 163.085 118.989C163.55 118.801 165.153 118.276 166.747 117.802C168.363 127.729 168.333 138.164 166.624 148.06Z" fill="#222222"/>
</svg>
