<svg width="28" height="28" viewBox="0 0 28 28" fill="none" xmlns="http://www.w3.org/2000/svg">
<path d="M21 7.4452C21 7.4452 20.9888 7.4452 20.9832 7.4452C20.9916 7.2968 21 7.1484 21 7C21 3.1332 17.8668 0 14 0C10.1332 0 7 3.1332 7 7C7 7.1512 7.0056 7.2996 7.0168 7.4452C7.0112 7.4452 7.0056 7.4452 7 7.4452C3.1332 7.4452 0 10.5812 0 14.4452C0 18.3092 3.1332 21.4452 7 21.4452C7.0056 21.4452 7.0112 21.4452 7.0168 21.4452C7.2464 25.1048 10.2844 28 14 28C17.7156 28 20.7536 25.1048 20.9832 21.4452C20.9888 21.4452 20.9944 21.4452 21 21.4452C24.8668 21.4452 28 18.312 28 14.4452C28 10.5784 24.8668 7.4452 21 7.4452ZM14 16.8C12.4544 16.8 11.2 15.5456 11.2 14C11.2 12.4544 12.4544 11.2 14 11.2C15.5456 11.2 16.8 12.4544 16.8 14C16.8 15.5456 15.5456 16.8 14 16.8Z" fill="#F44817"/>
</svg>
