<svg width="247" height="240" viewBox="0 0 247 240" fill="none" xmlns="http://www.w3.org/2000/svg">
<path d="M11.5578 66.686L0 78.4996L2.95147 81.5164L14.5092 69.7028L11.5578 66.686Z" fill="#222222"/>
<path d="M2.97101 66.7167L0.0195312 69.7335L11.5773 81.5472L14.5288 78.5303L2.97101 66.7167Z" fill="#222222"/>
<path fill-rule="evenodd" clip-rule="evenodd" d="M13.7337 144.546C-7.96757 189.509 29.06 216.267 62.947 224.508C96.8333 232.751 223.165 233.886 243.376 142.959C253.797 96.0849 242.715 14.2721 197.381 10.3691C152.048 6.46331 139.217 83.6158 107.721 96.7954C76.2258 109.975 30.0198 110.804 13.7337 144.546Z" fill="white"/>
<path d="M7.96325 149.124C7.30706 148.861 6.96507 148.075 7.24459 147.392C7.54163 146.717 8.30948 146.407 8.9594 146.699C9.60898 146.992 9.90345 147.756 9.61699 148.405C9.34869 149.061 8.62902 149.391 7.96325 149.124Z" fill="#222222"/>
<path d="M6.09954 154.585C5.4189 154.378 5.04094 153.633 5.25537 152.923C5.46915 152.211 6.18618 151.83 6.86748 152.075C7.52632 152.311 7.90461 153.055 7.70141 153.733C7.49755 154.41 6.77985 154.792 6.09954 154.585Z" fill="#222222"/>
<path d="M4.68818 160.186C3.99135 160.047 3.56148 159.346 3.72833 158.62C3.89519 157.894 4.58939 157.449 5.27829 157.625C5.96686 157.802 6.39673 158.503 6.23814 159.191C6.07921 159.879 5.38501 160.325 4.68818 160.186Z" fill="#222222"/>
<path d="M3.9174 165.915C3.20967 165.856 2.68732 165.204 2.75142 164.458C2.79536 163.709 3.50244 163.201 4.19332 163.302C4.90833 163.406 5.34545 164.049 5.3068 164.752C5.24732 165.453 4.62514 165.974 3.9174 165.915Z" fill="#222222"/>
<path d="M3.74725 171.694C3.0263 171.724 2.42795 171.14 2.44877 170.389C2.45637 169.639 3.03821 169.046 3.74826 169.064C4.45798 169.083 5.02793 169.667 5.02 170.369C4.99886 171.073 4.44507 171.665 3.74725 171.694Z" fill="#222222"/>
<path d="M4.32526 177.446C3.62546 177.57 2.97156 177.067 2.86516 176.323C2.75877 175.579 3.24616 174.916 3.95291 174.843C4.65932 174.77 5.31352 175.273 5.41264 175.966C5.51209 176.659 5.02474 177.321 4.32526 177.446Z" fill="#222222"/>
<path d="M5.64425 183.067C4.96725 183.285 4.24132 182.88 4.02391 182.161C3.81113 181.441 4.2737 180.7 4.95335 180.535C5.65481 180.364 6.30242 180.79 6.50165 181.46C6.70585 182.129 6.32126 182.848 5.64425 183.067Z" fill="#222222"/>
<path d="M7.66303 188.465C7.03393 188.766 6.20858 188.488 5.95218 187.782C5.68125 187.083 5.99908 186.305 6.66188 186.044C7.32435 185.783 8.06611 186.1 8.31755 186.752C8.55413 187.41 8.32054 188.152 7.66303 188.465Z" fill="#222222"/>
<path d="M10.3353 193.563C9.72439 193.955 8.94792 193.737 8.5805 193.088C8.2154 192.437 8.42623 191.629 9.05071 191.284C9.67518 190.938 10.4589 191.152 10.8008 191.761C11.1445 192.37 10.9264 193.182 10.3353 193.563Z" fill="#222222"/>
<path d="M13.6065 198.281C13.0517 198.734 12.2419 198.62 11.7985 198.025C11.3554 197.43 11.4641 196.61 12.0466 196.189C12.6235 195.772 13.4353 195.885 13.8533 196.445C14.2719 197.006 14.1609 197.828 13.6065 198.281Z" fill="#222222"/>
<path d="M17.3507 202.617C16.8435 203.125 16.0211 203.103 15.5142 202.568C14.9978 202.041 15.0704 201.167 15.5948 200.696C16.1363 200.208 16.9052 200.278 17.3969 200.778C17.8786 201.286 17.8578 202.109 17.3507 202.617Z" fill="#222222"/>
<path d="M21.4766 206.577C21.0223 207.122 20.1781 207.207 19.6481 206.697C19.1145 206.192 19.0751 205.352 19.5605 204.822C20.0459 204.292 20.8514 204.253 21.3599 204.736C21.8641 205.222 21.9434 206.017 21.4766 206.577Z" fill="#222222"/>
<path d="M25.9116 210.168C25.4959 210.757 24.6907 210.871 24.1128 210.423C23.5349 209.974 23.4226 209.148 23.8617 208.578C24.3008 208.008 25.1064 207.894 25.6605 208.324C26.2146 208.754 26.3269 209.58 25.9116 210.168Z" fill="#222222"/>
<path d="M30.6172 213.383C30.2442 214 29.4453 214.181 28.8327 213.786C28.2158 213.399 28.0502 212.574 28.449 211.967C28.8416 211.369 29.6296 211.204 30.2247 211.577C30.8148 211.956 30.9906 212.765 30.6172 213.383Z" fill="#222222"/>
<path d="M35.5192 216.273C35.1878 216.91 34.3938 217.162 33.7621 216.804C33.135 216.436 32.9143 215.627 33.2688 214.998C33.6233 214.369 34.4011 214.147 35.0061 214.504C35.6167 214.85 35.8543 215.628 35.5192 216.273Z" fill="#222222"/>
<path d="M40.5853 218.853C40.2906 219.514 39.524 219.79 38.8728 219.471C38.2218 219.152 37.95 218.366 38.2649 217.716C38.5801 217.065 39.3466 216.789 39.9773 217.098C40.6077 217.407 40.88 218.193 40.5853 218.853Z" fill="#222222"/>
<path d="M45.8005 221.107C45.5424 221.783 44.7897 222.11 44.1196 221.838C43.4473 221.572 43.1357 220.793 43.4145 220.121C43.6908 219.457 44.4365 219.146 45.09 219.404C45.7406 219.668 46.0585 220.431 45.8005 221.107Z" fill="#222222"/>
<path d="M51.1222 223.077C50.9012 223.763 50.1614 224.149 49.4817 223.905C48.8037 223.655 48.4496 222.899 48.6911 222.217C48.9327 221.534 49.6625 221.178 50.3213 221.421C50.9815 221.658 51.3456 222.384 51.1222 223.077Z" fill="#222222"/>
<path d="M56.5373 224.765C56.3509 225.466 55.6386 225.867 54.9467 225.661C54.2548 225.455 53.8607 224.726 54.0662 224.031C54.272 223.336 54.984 222.935 55.6567 223.135C56.3298 223.335 56.7236 224.065 56.5373 224.765Z" fill="#222222"/>
<path d="M62.0389 226.119C61.8951 226.83 61.2043 227.279 60.4962 227.123C59.7868 226.971 59.3543 226.265 59.5258 225.554C59.6946 224.856 60.3845 224.414 61.0661 224.561C61.7474 224.711 62.1829 225.409 62.0389 226.119Z" fill="#222222"/>
<path d="M67.6101 227.147C67.5034 227.869 66.8413 228.365 66.1322 228.232C65.4222 228.106 64.948 227.425 65.0726 226.71C65.1975 225.995 65.858 225.516 66.5482 225.639C67.2375 225.769 67.7152 226.434 67.6101 227.147Z" fill="#222222"/>
<path d="M73.2231 227.895C73.1434 228.617 72.5012 229.138 71.7885 229.059C71.0761 228.975 70.5752 228.297 70.6684 227.581C70.7619 226.858 71.3999 226.367 72.0991 226.449C72.7995 226.527 73.3027 227.174 73.2231 227.895Z" fill="#222222"/>
<path d="M78.8575 228.453C78.8 229.177 78.175 229.716 77.461 229.657C76.7469 229.601 76.2242 228.962 76.2932 228.236C76.3613 227.518 76.9858 226.984 77.6889 227.039C78.3917 227.097 78.915 227.73 78.8575 228.453Z" fill="#222222"/>
<path d="M84.5072 228.845C84.4689 229.57 83.8589 230.125 83.1442 230.086C82.4296 230.047 81.8893 229.428 81.9376 228.704C81.9855 227.98 82.5954 227.424 83.3002 227.463C84.0049 227.502 84.5452 228.121 84.5072 228.845Z" fill="#222222"/>
<path d="M90.1613 229.087C90.1408 229.813 89.5448 230.384 88.8298 230.363C88.1148 230.342 87.5593 229.737 87.589 229.013C87.6184 228.288 88.2148 227.716 88.9206 227.737C89.6263 227.757 90.1818 228.362 90.1613 229.087Z" fill="#222222"/>
<path d="M95.8211 229.19C95.8175 229.916 95.235 230.502 94.52 230.5C93.805 230.499 93.2354 229.907 93.2483 229.177C93.2605 228.456 93.8433 227.871 94.5494 227.872C95.2555 227.874 95.8247 228.464 95.8211 229.19Z" fill="#222222"/>
<path d="M101.482 229.16C101.495 229.886 100.925 230.487 100.211 230.504C99.496 230.528 98.9132 229.919 98.9092 229.199C98.9052 228.468 99.4745 227.899 100.181 227.876C100.887 227.86 101.469 228.435 101.482 229.16Z" fill="#222222"/>
<path d="M107.141 229.004C107.169 229.725 106.614 230.356 105.899 230.372C105.184 230.389 104.589 229.814 104.569 229.089C104.549 228.363 105.105 227.762 105.811 227.746C106.518 227.729 107.112 228.274 107.141 229.004Z" fill="#222222"/>
<path d="M112.796 228.721C112.841 229.445 112.298 230.061 111.584 230.097C110.87 230.133 110.262 229.574 110.226 228.85C110.19 228.124 110.733 227.508 111.439 227.473C112.144 227.438 112.752 227.996 112.796 228.721Z" fill="#222222"/>
<path d="M118.441 228.284C118.501 229.007 117.972 229.639 117.259 229.694C116.547 229.75 115.926 229.208 115.875 228.484C115.823 227.76 116.351 227.129 117.056 227.074C117.76 227.019 118.38 227.561 118.441 228.284Z" fill="#222222"/>
<path d="M124.075 227.721C124.152 228.442 123.638 229.089 122.927 229.165C122.216 229.242 121.584 228.718 121.516 227.995C121.447 227.273 121.962 226.626 122.664 226.551C123.366 226.475 123.998 226.999 124.075 227.721Z" fill="#222222"/>
<path d="M129.697 227.03C129.791 227.75 129.292 228.413 128.583 228.51C127.875 228.609 127.231 228.104 127.147 227.383C127.062 226.662 127.561 226 128.261 225.903C128.96 225.806 129.603 226.311 129.697 227.03Z" fill="#222222"/>
<path d="M135.3 226.213C135.411 226.93 134.929 227.61 134.224 227.729C133.515 227.828 132.858 227.325 132.757 226.607C132.655 225.888 133.14 225.228 133.839 225.131C134.535 225.013 135.189 225.496 135.3 226.213Z" fill="#222222"/>
<path d="M140.885 225.254C141.013 225.968 140.546 226.645 139.84 226.766C139.135 226.888 138.466 226.406 138.347 225.69C138.228 224.975 138.695 224.298 139.391 224.178C140.087 224.059 140.756 224.541 140.885 225.254Z" fill="#222222"/>
<path d="M146.433 224.117C146.581 224.827 146.131 225.521 145.43 225.666C144.729 225.812 144.049 225.352 143.911 224.64C143.774 223.928 144.223 223.235 144.915 223.091C145.606 222.948 146.286 223.407 146.433 224.117Z" fill="#222222"/>
<path d="M151.955 222.839C152.121 223.544 151.692 224.255 150.996 224.427C150.3 224.598 149.609 224.163 149.453 223.455C149.297 222.747 149.726 222.036 150.412 221.867C151.097 221.698 151.788 222.133 151.955 222.839Z" fill="#222222"/>
<path d="M157.443 221.417C157.63 222.117 157.222 222.846 156.533 223.045C155.845 223.25 155.133 222.795 154.959 222.099C154.781 221.389 155.201 220.705 155.878 220.503C156.556 220.307 157.256 220.716 157.443 221.417Z" fill="#222222"/>
<path d="M162.89 219.842C163.097 220.536 162.707 221.261 162.017 221.46C161.328 221.659 160.61 221.255 160.413 220.558C160.217 219.861 160.607 219.137 161.286 218.94C161.964 218.745 162.682 219.148 162.89 219.842Z" fill="#222222"/>
<path d="M168.269 218.04C168.499 218.727 168.133 219.469 167.452 219.698C166.771 219.927 166.042 219.552 165.825 218.862C165.607 218.171 165.973 217.428 166.641 217.204C167.311 216.979 168.039 217.354 168.269 218.04Z" fill="#222222"/>
<path d="M173.592 216.072C173.845 216.75 173.506 217.511 172.835 217.771C172.165 218.032 171.426 217.689 171.186 217.006C170.945 216.323 171.284 215.562 171.942 215.306C172.6 215.051 173.339 215.394 173.592 216.072Z" fill="#222222"/>
<path d="M178.849 213.931C179.126 214.599 178.818 215.379 178.16 215.673C177.507 215.98 176.739 215.617 176.478 214.951C176.211 214.269 176.542 213.544 177.181 213.243C177.825 212.955 178.572 213.263 178.849 213.931Z" fill="#222222"/>
<path d="M184.037 211.613C184.34 212.27 184.052 213.041 183.394 213.335C182.736 213.629 181.968 213.33 181.68 212.667C181.391 212.004 181.679 211.233 182.323 210.945C182.968 210.657 183.735 210.956 184.037 211.613Z" fill="#222222"/>
<path d="M189.096 209.015C189.425 209.658 189.171 210.447 188.529 210.777C187.887 211.107 187.111 210.847 186.796 210.196C186.481 209.546 186.735 208.757 187.363 208.435C187.991 208.112 188.767 208.372 189.096 209.015Z" fill="#222222"/>
<path d="M194.049 206.219C194.405 206.847 194.189 207.653 193.566 208.021C192.943 208.388 192.161 208.169 191.819 207.533C191.478 206.897 191.694 206.09 192.302 205.732C192.91 205.373 193.692 205.592 194.049 206.219Z" fill="#222222"/>
<path d="M198.888 203.218C199.273 203.828 199.099 204.651 198.499 205.058C197.906 205.477 197.096 205.263 196.726 204.642C196.357 204.023 196.556 203.24 197.133 202.831C197.717 202.435 198.503 202.608 198.888 203.218Z" fill="#222222"/>
<path d="M203.597 200.006C204.017 200.605 203.874 201.424 203.27 201.825C202.67 202.232 201.86 202.075 201.462 201.474C201.063 200.874 201.214 200.066 201.799 199.67C202.388 199.28 203.189 199.425 203.597 200.006Z" fill="#222222"/>
<path d="M208.097 196.494C208.541 197.06 208.436 197.882 207.864 198.329C207.291 198.776 206.48 198.669 206.052 198.09C205.624 197.511 205.728 196.689 206.285 196.255C206.841 195.82 207.653 195.927 208.097 196.494Z" fill="#222222"/>
<path d="M212.406 192.746C212.88 193.287 212.826 194.12 212.286 194.609C211.745 195.097 210.935 195.043 210.478 194.488C210.02 193.933 210.074 193.099 210.598 192.625C211.122 192.152 211.932 192.206 212.406 192.746Z" fill="#222222"/>
<path d="M216.522 188.78C217.025 189.292 217.026 190.135 216.523 190.665C216.022 191.196 215.216 191.194 214.719 190.656C214.241 190.139 214.243 189.297 214.728 188.783C215.215 188.269 216.018 188.268 216.522 188.78Z" fill="#222222"/>
<path d="M220.433 184.598C220.963 185.076 221.038 185.942 220.521 186.458C220.018 186.987 219.191 187.013 218.674 186.516C218.157 186.019 218.132 185.2 218.62 184.688C219.122 184.188 219.898 184.116 220.433 184.598Z" fill="#222222"/>
<path d="M224.038 180.137C224.599 180.583 224.681 181.405 224.22 181.975C223.76 182.544 222.945 182.629 222.399 182.164C221.853 181.7 221.772 180.877 222.217 180.327C222.663 179.777 223.478 179.692 224.038 180.137Z" fill="#222222"/>
<path d="M227.356 175.452C227.943 175.861 228.084 176.684 227.672 177.29C227.259 177.897 226.461 178.041 225.888 177.612C225.315 177.183 225.174 176.36 225.572 175.773C225.971 175.187 226.769 175.043 227.356 175.452Z" fill="#222222"/>
<path d="M230.413 170.587C231.023 170.957 231.226 171.777 230.866 172.417C230.507 173.058 229.73 173.26 229.118 172.86C228.534 172.477 228.331 171.658 228.677 171.038C229.025 170.418 229.802 170.217 230.413 170.587Z" fill="#222222"/>
<path d="M233.211 165.558C233.855 165.895 234.095 166.692 233.726 167.328C233.367 167.968 232.572 168.202 231.951 167.85C231.33 167.498 231.109 166.711 231.457 166.092C231.815 165.478 232.591 165.234 233.211 165.558Z" fill="#222222"/>
<path d="M235.593 160.309C236.244 160.598 236.525 161.376 236.222 162.046C235.918 162.716 235.151 163.006 234.51 162.695C233.869 162.383 233.587 161.605 233.881 160.957C234.175 160.309 234.942 160.019 235.593 160.309Z" fill="#222222"/>
<path d="M237.684 154.936C238.351 155.186 238.692 155.95 238.446 156.644C238.2 157.338 237.466 157.68 236.808 157.41C236.149 157.139 235.808 156.374 236.045 155.702C236.283 155.03 237.017 154.687 237.684 154.936Z" fill="#222222"/>
<path d="M239.526 149.468C240.197 149.674 240.624 150.429 240.4 151.129C240.154 151.823 239.409 152.199 238.736 151.968C238.063 151.738 237.71 151.006 237.949 150.335C238.166 149.656 238.837 149.256 239.526 149.468Z" fill="#222222"/>
<path d="M240.991 143.878C241.681 144.048 242.09 144.763 241.903 145.475C241.717 146.187 241.01 146.609 240.325 146.419C239.639 146.228 239.231 145.513 239.412 144.822C239.593 144.131 240.3 143.709 240.991 143.878Z" fill="#222222"/>
<path d="M242.233 138.234C242.93 138.371 243.379 139.064 243.235 139.784C243.091 140.504 242.412 140.964 241.717 140.811C241.024 140.659 240.575 139.965 240.715 139.261C240.856 138.559 241.535 138.099 242.233 138.234Z" fill="#222222"/>
<path d="M243.196 132.533C243.905 132.641 244.375 133.314 244.256 134.038C244.137 134.762 243.472 135.249 242.772 135.127C242.073 135.005 241.6 134.331 241.717 133.622C241.834 132.914 242.5 132.427 243.196 132.533Z" fill="#222222"/>
<path d="M243.932 126.796C244.632 126.877 245.16 127.536 245.062 128.262C244.965 128.989 244.316 129.501 243.612 129.406C242.909 129.31 242.415 128.655 242.51 127.942C242.606 127.229 243.221 126.713 243.932 126.796Z" fill="#222222"/>
<path d="M244.479 121.036C245.187 121.095 245.717 121.734 245.662 122.464C245.603 123.194 244.958 123.727 244.255 123.657C243.545 123.586 243.043 122.949 243.101 122.231C243.154 121.513 243.771 120.978 244.479 121.036Z" fill="#222222"/>
<path d="M244.849 115.262C245.559 115.299 246.106 115.92 246.071 116.652C246.043 117.384 245.422 117.937 244.712 117.889C244.005 117.841 243.477 117.221 243.504 116.5C243.538 115.781 244.14 115.227 244.849 115.262Z" fill="#222222"/>
<path d="M245.051 109.48C245.761 109.495 246.324 110.1 246.309 110.832C246.294 111.563 245.708 112.136 244.996 112.11C244.289 112.084 243.724 111.479 243.739 110.758C243.753 110.038 244.341 109.465 245.051 109.48Z" fill="#222222"/>
<path d="M245.09 103.694C245.8 103.688 246.379 104.276 246.384 105.008C246.388 105.74 245.816 106.329 245.106 106.324C244.396 106.319 243.817 105.731 243.813 105.011C243.808 104.29 244.38 103.7 245.09 103.694Z" fill="#222222"/>
<path d="M244.968 97.9092C245.678 97.8822 246.273 98.4533 246.297 99.1852C246.32 99.9167 245.764 100.523 245.054 100.538C244.345 100.554 243.75 99.9829 243.726 99.2625C243.703 98.5421 244.259 97.9359 244.968 97.9092Z" fill="#222222"/>
<path d="M244.687 92.1304C245.395 92.0828 246.005 92.6367 246.048 93.3672C246.091 94.0977 245.551 94.7194 244.842 94.7559C244.133 94.7923 243.523 94.2385 243.481 93.5191C243.438 92.7994 243.978 92.1777 244.687 92.1304Z" fill="#222222"/>
<path d="M244.242 86.3621C244.949 86.2936 245.573 86.8292 245.636 87.5583C245.699 88.2875 245.176 88.9251 244.469 88.9822C243.761 89.0392 243.136 88.504 243.074 87.7856C243.012 87.068 243.535 86.4303 244.242 86.3621Z" fill="#222222"/>
<path d="M243.632 80.6093C244.337 80.5192 244.976 81.0359 245.059 81.7633C245.142 82.4905 244.637 83.1436 243.931 83.222C243.226 83.3003 242.587 82.7839 242.505 82.0683C242.423 81.3527 242.928 80.6995 243.632 80.6093Z" fill="#222222"/>
<path d="M242.852 74.8786C243.553 74.7661 244.206 75.2622 244.311 75.987C244.415 76.7117 243.93 77.3804 243.226 77.4807C242.523 77.581 241.87 77.0849 241.768 76.3723C241.665 75.6597 242.15 74.991 242.852 74.8786Z" fill="#222222"/>
<path d="M241.891 69.1757C242.589 69.0396 243.257 69.5141 243.383 70.2355C243.509 70.9569 243.044 71.6418 242.344 71.7651C241.644 71.8883 240.977 71.4138 240.853 70.7053C240.729 69.9964 241.194 69.3115 241.891 69.1757Z" fill="#222222"/>
<path d="M240.745 63.5091C241.438 63.348 242.12 63.7988 242.269 64.5162C242.418 65.2335 241.975 65.9346 241.28 66.0822C240.585 66.2298 239.902 65.7789 239.756 65.0751C239.61 64.3713 240.053 63.6702 240.745 63.5091Z" fill="#222222"/>
<path d="M239.401 57.8887C240.087 57.7006 240.783 58.1254 240.957 58.8377C241.13 59.5496 240.711 60.2676 240.022 60.4412C239.332 60.6148 238.636 60.1899 238.466 59.4925C238.297 58.7948 238.715 58.0768 239.401 57.8887Z" fill="#222222"/>
<path d="M237.827 52.3304C238.511 52.1112 239.234 52.5033 239.427 53.2112C239.626 53.917 239.234 54.6526 238.552 54.8542C237.87 55.0559 237.16 54.6597 236.965 53.9697C236.777 53.2774 237.156 52.5459 237.827 52.3304Z" fill="#222222"/>
<path d="M236.009 46.8512C236.669 46.6037 237.438 46.9519 237.664 47.6503C237.89 48.3484 237.528 49.1022 236.856 49.3345C236.183 49.5669 235.459 49.2028 235.238 48.522C235.018 47.8408 235.336 47.1035 236.009 46.8512Z" fill="#222222"/>
<path d="M233.929 41.4703C234.582 41.1849 235.344 41.5017 235.632 42.1785C235.916 42.8559 235.567 43.6371 234.913 43.9005C234.246 44.169 233.528 43.8326 233.252 43.1751C232.973 42.5189 233.276 41.7556 233.929 41.4703Z" fill="#222222"/>
<path d="M231.562 36.2153C232.197 35.8904 232.973 36.1633 233.294 36.8252C233.616 37.4865 233.353 38.2683 232.699 38.575C232.062 38.8735 231.287 38.6007 230.975 37.9617C230.665 37.3224 230.928 36.5405 231.562 36.2153Z" fill="#222222"/>
<path d="M228.881 31.1219C229.492 30.7531 230.278 30.9753 230.636 31.619C230.994 32.2623 230.778 33.0638 230.153 33.4082C229.527 33.7527 228.742 33.5302 228.397 32.9111C228.053 32.2921 228.269 31.491 228.881 31.1219Z" fill="#222222"/>
<path d="M225.851 26.2349C226.431 25.8172 227.225 25.9823 227.622 26.6034C228.02 27.2245 227.857 28.0455 227.259 28.4369C226.661 28.8283 225.868 28.6635 225.487 28.0688C225.107 27.4737 225.27 26.6527 225.851 26.2349Z" fill="#222222"/>
<path d="M222.382 21.6669C222.916 21.1978 223.759 21.2579 224.222 21.8341C224.662 22.4275 224.562 23.2677 223.999 23.7108C223.437 24.1536 222.642 24.0546 222.224 23.4893C221.786 22.9432 221.839 22.1431 222.382 21.6669Z" fill="#222222"/>
<path d="M218.488 17.4727C218.973 16.9422 219.794 16.9327 220.323 17.4521C220.849 17.9736 220.864 18.7926 220.34 19.2991C219.832 19.7888 219.004 19.8044 218.509 19.3153C218.013 18.8283 218.004 18.003 218.488 17.4727Z" fill="#222222"/>
<path d="M214.169 13.7395C214.584 13.1509 215.387 13.0536 215.961 13.5231C216.536 13.9925 216.632 14.8257 216.178 15.3836C215.723 15.9412 214.921 16.0384 214.386 15.6001C213.85 15.1617 213.754 14.3282 214.169 13.7395Z" fill="#222222"/>
<path d="M209.355 10.7082C209.683 10.0645 210.483 9.82201 211.14 10.1678C211.78 10.5417 211.96 11.3999 211.589 12.0071C211.208 12.6305 210.453 12.793 209.861 12.4475C209.252 12.1307 209.026 11.3516 209.355 10.7082Z" fill="#222222"/>
<path d="M204.178 8.38839C204.407 7.70112 205.153 7.36171 205.844 7.63121C206.536 7.90071 206.866 8.65992 206.583 9.32523C206.299 9.99054 205.553 10.3303 204.916 10.0824C204.28 9.83418 203.949 9.07531 204.178 8.38839Z" fill="#222222"/>
<path d="M198.713 6.91284C198.834 6.20699 199.535 5.67069 200.246 5.88683C200.963 6.07461 201.398 6.797 201.218 7.49912C201.039 8.20125 200.358 8.62982 199.699 8.45488C199.045 8.25157 198.588 7.63658 198.713 6.91284Z" fill="#222222"/>
<path d="M193.086 6.33393C193.104 5.6085 193.717 5.03911 194.456 5.06376C195.196 5.06275 195.728 5.74798 195.654 6.4724C195.58 7.19141 194.974 7.68179 194.289 7.68651C193.607 7.66557 193.069 7.05936 193.086 6.33393Z" fill="#222222"/>
<path d="M187.437 6.55283C187.346 5.83314 187.87 5.19957 188.609 5.13946C189.347 5.07934 189.971 5.61936 190.002 6.34445C190.034 7.06954 189.509 7.70277 188.831 7.75782C188.152 7.81287 187.528 7.27252 187.437 6.55283Z" fill="#222222"/>
<path d="M181.907 7.73686C181.705 7.04116 182.115 6.29546 182.823 6.07358C183.55 5.92836 184.256 6.38732 184.399 7.09823C184.543 7.80914 184.118 8.49201 183.45 8.62237C182.8 8.82906 182.109 8.43257 181.907 7.73686Z" fill="#222222"/>
<path d="M176.612 9.76052C176.308 9.10466 176.612 8.33059 177.292 8.03306C177.971 7.73553 178.726 8.04589 178.977 8.72438C179.228 9.4032 178.924 10.1769 178.297 10.4518C177.67 10.7264 176.915 10.4167 176.612 9.76052Z" fill="#222222"/>
<path d="M171.667 12.5652C171.285 11.9627 171.453 11.1117 172.081 10.7223C172.726 10.3592 173.528 10.5801 173.873 11.215C174.217 11.8499 174.009 12.6372 173.409 12.9725C172.823 13.3359 172.057 13.1802 171.667 12.5652Z" fill="#222222"/>
<path d="M167.094 15.9702C166.643 15.4099 166.742 14.5801 167.316 14.1175C167.889 13.6548 168.695 13.7547 169.114 14.3407C169.534 14.9263 169.434 15.7561 168.893 16.1934C168.351 16.6308 167.545 16.5305 167.094 15.9702Z" fill="#222222"/>
<path d="M162.879 19.826C162.38 19.3096 162.378 18.4528 162.926 17.9624C163.465 17.4622 164.287 17.4943 164.762 18.034C165.236 18.5737 165.205 19.3974 164.692 19.8739C164.168 20.339 163.378 20.3423 162.879 19.826Z" fill="#222222"/>
<path d="M158.999 24.0387C158.466 23.5598 158.42 22.7219 158.898 22.1677C159.368 21.6061 160.202 21.5835 160.719 22.0833C161.234 22.5801 161.254 23.392 160.801 23.936C160.339 24.4723 159.532 24.5179 158.999 24.0387Z" fill="#222222"/>
<path d="M155.374 28.4812C154.816 28.0337 154.729 27.206 155.182 26.6325C155.634 26.0594 156.444 25.9706 156.99 26.4339C157.536 26.8976 157.623 27.7254 157.183 28.2826C156.743 28.8399 155.933 28.9287 155.374 28.4812Z" fill="#222222"/>
<path d="M151.973 33.1056C151.395 32.6824 151.258 31.8509 151.694 31.2667C152.125 30.6783 152.934 30.5547 153.502 30.9904C154.07 31.4261 154.19 32.2454 153.769 32.8202C153.342 33.3903 152.549 33.528 151.973 33.1056Z" fill="#222222"/>
<path d="M148.751 37.8648C148.161 37.4613 148.005 36.6402 148.403 36.0317C148.796 35.4207 149.617 35.2775 150.196 35.6885C150.784 36.105 150.917 36.9077 150.529 37.5102C150.137 38.1097 149.341 38.2687 148.751 37.8648Z" fill="#222222"/>
<path d="M145.655 42.7087C145.056 42.319 144.883 41.5044 145.269 40.8894C145.654 40.2744 146.449 40.0974 147.044 40.4939C147.638 40.8904 147.811 41.7047 147.43 42.3132C147.049 42.9215 146.254 43.0984 145.655 42.7087Z" fill="#222222"/>
<path d="M142.647 47.6114C142.042 47.2311 141.858 46.4206 142.234 45.8016C142.611 45.1825 143.404 44.9927 144.006 45.3777C144.608 45.7627 144.793 46.5733 144.419 47.1876C144.045 47.8019 143.252 47.9917 142.647 47.6114Z" fill="#222222"/>
<path d="M139.698 52.5507C139.092 52.1748 138.896 51.3656 139.268 50.7445C139.638 50.1231 140.43 49.9259 141.036 50.3038C141.642 50.6817 141.835 51.4899 141.465 52.1089C141.095 52.7269 140.306 52.9272 139.698 52.5507Z" fill="#222222"/>
<path d="M136.769 57.5017C136.162 57.1252 135.968 56.3173 136.336 55.6969C136.704 55.0769 137.495 54.8759 138.102 55.2518C138.709 55.6274 138.905 56.4352 138.536 57.0569C138.167 57.679 137.376 57.8783 136.769 57.5017Z" fill="#222222"/>
<path d="M133.817 62.4413C133.213 62.06 133.024 61.2508 133.395 60.6334C133.766 60.0161 134.558 59.8222 135.164 60.1998C135.771 60.5774 135.96 61.3869 135.587 62.0076C135.214 62.6284 134.422 62.8225 133.817 62.4413Z" fill="#222222"/>
<path d="M130.817 67.3476C130.218 66.9565 130.039 66.1433 130.416 65.5317C130.793 64.9201 131.586 64.7367 132.188 65.1217C132.79 65.507 132.969 66.3199 132.588 66.9376C132.208 67.555 131.415 67.7387 130.817 67.3476Z" fill="#222222"/>
<path d="M127.705 72.1811C127.116 71.7718 126.968 70.9643 127.359 70.3648C127.745 69.761 128.539 69.5942 129.133 69.9927C129.726 70.3912 129.89 71.2105 129.499 71.8228C129.102 72.432 128.29 72.5881 127.705 72.1811Z" fill="#222222"/>
<path d="M124.442 76.9086C123.872 76.4767 123.744 75.657 124.158 75.0778C124.572 74.498 125.38 74.3679 125.959 74.784C126.542 75.2028 126.667 76.0214 126.244 76.6158C125.819 77.2092 125.013 77.3406 124.442 76.9086Z" fill="#222222"/>
<path d="M120.975 81.4837C120.436 81.0258 120.341 80.1926 120.775 79.6317C121.208 79.0704 122.014 78.9768 122.574 79.4226C123.134 79.8684 123.226 80.6995 122.779 81.2787C122.331 81.8576 121.528 81.9535 120.975 81.4837Z" fill="#222222"/>
<path d="M117.188 85.7826C116.682 85.274 116.662 84.4492 117.144 83.941C117.636 83.4432 118.421 83.3837 118.953 83.8697C119.48 84.3506 119.54 85.2088 119.023 85.7346C118.517 86.2699 117.695 86.2912 117.188 85.7826Z" fill="#222222"/>
<path d="M113.05 89.7228C112.609 89.1686 112.679 88.3564 113.18 87.8721C113.691 87.4007 114.496 87.4503 114.979 87.9829C115.461 88.5155 115.411 89.3544 114.867 89.8562C114.333 90.3692 113.505 90.2953 113.05 89.7228Z" fill="#222222"/>
<path d="M108.419 93.042C108.063 92.4138 108.24 91.605 108.814 91.2362C109.389 90.8681 110.188 91.0508 110.598 91.6428C111.008 92.2352 110.832 93.044 110.202 93.4483C109.573 93.8529 108.774 93.6705 108.419 93.042Z" fill="#222222"/>
<path d="M103.318 95.533C103.056 94.8582 103.371 94.0963 104.022 93.8305C104.672 93.5695 105.371 93.8282 105.681 94.4958C105.98 95.1402 105.676 95.9899 105.003 96.2604C104.334 96.533 103.58 96.2074 103.318 95.533Z" fill="#222222"/>
<path d="M98.0139 97.5566C97.7787 96.8663 98.1361 96.1372 98.7927 95.8825C99.4518 95.6343 100.187 95.9845 100.434 96.6647C100.682 97.3449 100.336 98.1024 99.6617 98.3564C98.989 98.6164 98.2455 98.2371 98.0139 97.5566Z" fill="#222222"/>
<path d="M92.6404 99.3742C92.4286 98.6815 92.8014 97.9413 93.4727 97.7207C94.1441 97.5005 94.8684 97.8805 95.0904 98.5698C95.3128 99.2591 94.9401 99.9993 94.2584 100.223C93.5765 100.447 92.8522 100.067 92.6404 99.3742Z" fill="#222222"/>
<path d="M87.2191 101.039C87.0219 100.341 87.4124 99.6126 88.0917 99.4107C88.772 99.2121 89.4834 99.6008 89.6882 100.297C89.8924 100.991 89.5042 101.732 88.8179 101.932C88.1323 102.136 87.4167 101.736 87.2191 101.039Z" fill="#222222"/>
<path d="M81.7712 102.611C81.5822 101.911 81.985 101.191 82.6663 100.994C83.3483 100.799 84.057 101.206 84.2496 101.905C84.4423 102.603 84.0418 103.329 83.3552 103.526C82.6693 103.725 81.9596 103.31 81.7712 102.611Z" fill="#222222"/>
<path d="M76.3105 104.131C76.1251 103.431 76.5309 102.709 77.2168 102.519C77.9027 102.33 78.6092 102.744 78.7945 103.444C78.9799 104.145 78.5741 104.866 77.8878 105.056C77.2022 105.246 76.4962 104.832 76.3105 104.131Z" fill="#222222"/>
<path d="M70.8425 105.644C70.6554 104.944 71.0609 104.221 71.7475 104.03C72.4337 103.84 73.1405 104.254 73.3262 104.955C73.5115 105.656 73.1057 106.377 72.4204 106.566C71.7355 106.757 71.0295 106.345 70.8425 105.644Z" fill="#222222"/>
<path d="M65.3864 107.186C65.1935 106.487 65.593 105.763 66.2796 105.567C66.9662 105.372 67.6762 105.781 67.8655 106.48C68.0549 107.179 67.655 107.904 66.9724 108.098C66.2898 108.293 65.5801 107.884 65.3864 107.186Z" fill="#222222"/>
<path d="M59.9504 108.807C59.7452 108.112 60.1335 107.379 60.8181 107.169C61.5017 106.957 62.2186 107.361 62.4169 108.058C62.6155 108.755 62.2236 109.479 61.5476 109.689C60.8706 109.896 60.1552 109.501 59.9504 108.807Z" fill="#222222"/>
<path d="M54.5487 110.535C54.327 109.847 54.6964 109.094 55.38 108.878C56.0619 108.659 56.7875 109.042 57 109.734C57.2124 110.427 56.8387 111.164 56.1653 111.381C55.4906 111.593 54.7714 111.226 54.5487 110.535Z" fill="#222222"/>
<path d="M49.1979 112.425C48.9538 111.743 49.3033 110.991 49.979 110.744C50.6547 110.497 51.3902 110.854 51.6215 111.54C51.8528 112.226 51.5035 112.978 50.8404 113.22C50.1776 113.462 49.4421 113.106 49.1979 112.425Z" fill="#222222"/>
<path d="M43.923 114.523C43.6501 113.853 43.9676 113.08 44.6324 112.798C45.2999 112.524 46.0542 112.866 46.3103 113.541C46.5683 114.22 46.2416 114.97 45.59 115.237C44.9421 115.512 44.1956 115.192 43.923 114.523Z" fill="#222222"/>
<path d="M38.7444 116.862C38.4344 116.203 38.7147 115.416 39.3732 115.117C40.03 114.813 40.7959 115.104 41.084 115.768C41.3721 116.431 41.0883 117.208 40.4506 117.503C39.811 117.794 39.0493 117.511 38.7444 116.862Z" fill="#222222"/>
<path d="M33.7205 119.522C33.3719 118.889 33.6049 118.09 34.2406 117.736C34.8763 117.382 35.6554 117.619 35.9808 118.264C36.3063 118.909 36.0737 119.709 35.4611 120.049C34.8478 120.39 34.069 120.154 33.7205 119.522Z" fill="#222222"/>
<path d="M28.8915 122.539C28.496 121.937 28.6648 121.114 29.2698 120.702C29.8768 120.295 30.6905 120.505 31.057 121.119C31.4303 121.744 31.2351 122.526 30.6542 122.916C30.0766 123.311 29.2873 123.142 28.8915 122.539Z" fill="#222222"/>
<path d="M24.3202 125.948C23.8771 125.39 23.9524 124.524 24.5455 124.092C25.1297 123.648 25.9432 123.763 26.3624 124.349C26.7817 124.935 26.6707 125.752 26.1143 126.175C25.5487 126.586 24.7725 126.517 24.3202 125.948Z" fill="#222222"/>
<path d="M20.0864 129.788C19.5851 129.274 19.6106 128.443 20.1439 127.933C20.6772 127.422 21.4926 127.448 21.9648 127.99C22.4369 128.532 22.4114 129.362 21.9072 129.845C21.4034 130.328 20.5876 130.302 20.0864 129.788Z" fill="#222222"/>
<path d="M16.3037 134.086C15.7496 133.632 15.6786 132.796 16.1455 132.22C16.6027 131.635 17.4291 131.582 17.9624 132.076C18.4818 132.557 18.5314 133.373 18.1022 133.925C17.6634 134.467 16.8578 134.539 16.3037 134.086Z" fill="#222222"/>
<path d="M13.0031 138.782C12.4038 138.398 12.2233 137.565 12.6185 136.935C13.0457 136.327 13.8609 136.177 14.4374 136.6C15.0143 137.024 15.1557 137.83 14.7526 138.401C14.3819 138.994 13.6061 139.169 13.0031 138.782Z" fill="#222222"/>
<path d="M10.2279 143.822C9.58761 143.508 9.34543 142.717 9.6874 142.055C10.0294 141.393 10.8101 141.143 11.4306 141.496C12.0511 141.849 12.2936 142.64 11.9711 143.263C11.649 143.886 10.8683 144.135 10.2279 143.822Z" fill="#222222"/>
<path d="M174.106 65.4494L158.794 61.2552L170.004 49.7976L174.106 65.4494Z" fill="#B8BBFD"/>
<path d="M157.113 105.61L155.319 112.454L150.417 107.444L157.113 105.61Z" fill="#B8BBFD"/>
<path d="M53.2985 2.86218H186.346C187.878 2.86218 189.12 4.10346 189.12 5.63541V231.822C189.12 233.352 187.878 234.596 186.346 234.596H53.2985C51.7661 234.596 50.5244 233.352 50.5244 231.822V5.63541C50.5244 4.10346 51.7661 2.86218 53.2985 2.86218Z" fill="white"/>
<path d="M186.346 235.427H53.2981C51.3094 235.427 49.6904 233.811 49.6904 231.823V5.63536C49.6904 3.64727 51.3097 2.03076 53.2981 2.03076H186.346C188.335 2.03076 189.954 3.6476 189.954 5.63536V231.823C189.954 233.811 188.335 235.427 186.346 235.427ZM53.2978 3.6945C52.227 3.6945 51.3563 4.56452 51.3563 5.63536V231.823C51.3563 232.893 52.227 233.764 53.2978 233.764H186.346C187.417 233.764 188.287 232.894 188.287 231.823V5.63536C188.287 4.56452 187.417 3.6945 186.346 3.6945H53.2978Z" fill="#222222"/>
<path fill-rule="evenodd" clip-rule="evenodd" d="M185.318 230.804H192.864V238.517H185.318V230.804Z" fill="#222222"/>
<path fill-rule="evenodd" clip-rule="evenodd" d="M46.7783 230.804H54.3235V238.517H46.7783V230.804Z" fill="#222222"/>
<path fill-rule="evenodd" clip-rule="evenodd" d="M185.318 0H192.864V7.71224H185.318V0Z" fill="#222222"/>
<path fill-rule="evenodd" clip-rule="evenodd" d="M46.7793 0H54.3245V7.71224H46.7793V0Z" fill="#222222"/>
<path fill-rule="evenodd" clip-rule="evenodd" d="M119.049 198.484H179.691C181.223 198.484 182.465 199.754 182.465 201.32V222.839C182.465 224.406 181.223 225.675 179.691 225.675H119.049C117.516 225.675 116.274 224.405 116.274 222.839V201.32C116.274 199.753 117.516 198.484 119.049 198.484Z" fill="#B8BBFD"/>
<path fill-rule="evenodd" clip-rule="evenodd" d="M171.557 219.88C171.557 219.88 171.179 221.814 171.829 224.816C172.349 227.215 173.965 229.503 173.965 229.503C173.965 229.503 167.284 227.917 165.485 224.816C163.449 221.309 164.889 218.711 164.889 218.711L171.557 219.88Z" fill="#B8BBFD"/>
<path d="M103.419 198.032C103.168 198.032 102.928 197.901 102.789 197.678C102.617 197.408 102.631 197.057 102.822 196.801C102.828 196.791 103.39 196.028 103.875 195.01H99.1495C97.206 195.01 95.624 193.393 95.624 191.406V175.655C95.624 173.668 97.206 172.052 99.1495 172.052H148.473C150.417 172.052 151.999 173.668 151.999 175.655V191.406C151.999 193.393 150.417 195.01 148.473 195.01H110.201C108.012 196.99 103.767 197.972 103.582 198.013C103.527 198.026 103.472 198.032 103.419 198.032ZM99.1495 173.587C98.0333 173.587 97.1254 174.514 97.1254 175.655V191.406C97.1254 192.547 98.0333 193.475 99.1495 193.475H104.999C105.241 193.475 105.469 193.595 105.611 193.797C105.75 193.997 105.787 194.256 105.709 194.491C105.53 195.028 105.302 195.539 105.072 195.99C106.473 195.522 108.34 194.748 109.376 193.698C109.517 193.556 109.706 193.475 109.904 193.475H148.474C149.59 193.475 150.498 192.548 150.498 191.406V175.655C150.498 174.514 149.59 173.587 148.474 173.587L99.1495 173.587Z" fill="#222222"/>
<path fill-rule="evenodd" clip-rule="evenodd" d="M154.238 11.2301H174.489C176.588 11.2301 178.289 12.9701 178.289 15.1143C178.289 17.2605 176.588 19.0001 174.489 19.0001H154.238C152.138 19.0001 150.438 17.2605 150.438 15.1143C150.438 12.9704 152.139 11.2301 154.238 11.2301Z" fill="#222222"/>
<path fill-rule="evenodd" clip-rule="evenodd" d="M68.2929 11.2301H140.81C142.908 11.2301 144.609 12.9701 144.609 15.1143C144.609 17.2605 142.908 19.0001 140.81 19.0001H68.2929C66.1941 19.0001 64.4932 17.2605 64.4932 15.1143C64.4932 12.9704 66.1941 11.2301 68.2929 11.2301Z" fill="#B8BBFD"/>
<path d="M44.1952 25.8433H141.179C143.63 25.8433 145.618 27.876 145.618 30.3823V118.397C145.618 120.902 143.63 122.933 141.179 122.933H44.1952C41.7432 122.933 39.7568 120.902 39.7568 118.397V30.3819C39.7565 27.876 41.7432 25.8433 44.1952 25.8433Z" fill="white"/>
<path d="M44.1952 25.8433H141.179C143.63 25.8433 145.618 27.876 145.618 30.3823V118.397C145.618 120.902 143.63 122.933 141.179 122.933H44.1952C41.7432 122.933 39.7568 120.902 39.7568 118.397V30.3819C39.7565 27.876 41.7432 25.8433 44.1952 25.8433Z" fill="white"/>
<path d="M141.178 122.961H44.196C41.7338 122.961 39.7295 120.913 39.7295 118.396V30.3819C39.7295 27.8632 41.7338 25.8146 44.196 25.8146H141.178C143.642 25.8146 145.646 27.8632 145.646 30.3819V118.397C145.646 120.913 143.642 122.961 141.178 122.961ZM44.196 25.8706C41.7632 25.8706 39.7843 27.8943 39.7843 30.3819V118.397C39.7843 120.882 41.7632 122.905 44.196 122.905H141.178C143.611 122.905 145.591 120.882 145.591 118.397V30.3819C145.591 27.8943 143.611 25.8706 141.178 25.8706H44.196Z" fill="#222222"/>
<path d="M141.178 123.784H44.1962C41.2899 123.784 38.9238 121.368 38.9238 118.397V30.3819C38.9238 27.4103 41.2899 24.9918 44.1962 24.9918H141.178C144.086 24.9918 146.452 27.4099 146.452 30.3819V118.397C146.452 121.367 144.086 123.784 141.178 123.784ZM44.1962 26.6933C42.2074 26.6933 40.5904 28.3485 40.5904 30.3822V118.397C40.5904 120.43 42.2078 122.082 44.1962 122.082H141.178C143.169 122.082 144.786 120.429 144.786 118.397V30.3819C144.786 28.3481 143.168 26.6929 141.178 26.6929H44.1962V26.6933Z" fill="#222222"/>
<path d="M138.985 44.7952H86.055C85.5954 44.7952 85.2217 44.4146 85.2217 43.9445C85.2217 43.4744 85.595 43.0938 86.055 43.0938H138.985C139.445 43.0938 139.818 43.4744 139.818 43.9445C139.818 44.4142 139.445 44.7952 138.985 44.7952Z" fill="#222222"/>
<path d="M138.985 49.728H86.055C85.5954 49.728 85.2217 49.3474 85.2217 48.8772C85.2217 48.4071 85.595 48.0269 86.055 48.0269H138.985C139.445 48.0269 139.818 48.4075 139.818 48.8772C139.818 49.3474 139.445 49.728 138.985 49.728Z" fill="#222222"/>
<path d="M138.985 54.5304H86.055C85.5954 54.5304 85.2217 54.1498 85.2217 53.6797C85.2217 53.2096 85.595 52.829 86.055 52.829H138.985C139.445 52.829 139.818 53.2096 139.818 53.6797C139.818 54.1498 139.445 54.5304 138.985 54.5304Z" fill="#222222"/>
<path d="M138.985 59.4632H86.055C85.5954 59.4632 85.2217 59.0826 85.2217 58.6125C85.2217 58.1424 85.595 57.7621 86.055 57.7621H138.985C139.445 57.7621 139.818 58.1427 139.818 58.6125C139.818 59.0829 139.445 59.4632 138.985 59.4632Z" fill="#222222"/>
<path d="M138.985 67.7064H86.055C85.5954 67.7064 85.2217 67.3257 85.2217 66.856C85.2217 66.3859 85.595 66.0052 86.055 66.0052H138.985C139.445 66.0052 139.818 66.3859 139.818 66.856C139.818 67.3257 139.445 67.7064 138.985 67.7064Z" fill="#222222"/>
<path d="M138.985 72.6381H86.055C85.5954 72.6381 85.2217 72.2575 85.2217 71.7874C85.2217 71.3176 85.595 70.9366 86.055 70.9366H138.985C139.445 70.9366 139.818 71.3173 139.818 71.7874C139.818 72.2575 139.445 72.6381 138.985 72.6381Z" fill="#222222"/>
<path d="M138.985 77.4426H86.055C85.5954 77.4426 85.2217 77.062 85.2217 76.5918C85.2217 76.1217 85.595 75.7415 86.055 75.7415H138.985C139.445 75.7415 139.818 76.1221 139.818 76.5918C139.818 77.062 139.445 77.4426 138.985 77.4426Z" fill="#222222"/>
<path d="M138.985 82.3756H86.055C85.5954 82.3756 85.2217 81.995 85.2217 81.5249C85.2217 81.0548 85.595 80.6742 86.055 80.6742H138.985C139.445 80.6742 139.818 81.0548 139.818 81.5249C139.818 81.995 139.445 82.3756 138.985 82.3756Z" fill="#222222"/>
<path fill-rule="evenodd" clip-rule="evenodd" d="M48.1345 41.1008H77.7621C79.2936 41.1008 80.5359 42.3697 80.5359 43.9364V80.5148C80.5359 82.0812 79.2936 83.3503 77.7621 83.3503H48.1345C46.602 83.3503 45.3604 82.0812 45.3604 80.5148V43.9364C45.3607 42.37 46.602 41.1008 48.1345 41.1008Z" fill="#222222"/>
<mask id="mask0_2367_4506" style="mask-type:luminance" maskUnits="userSpaceOnUse" x="39" y="25" width="107" height="98">
<path d="M44.1952 25.8433H141.179C143.63 25.8433 145.618 27.876 145.618 30.3823V118.397C145.618 120.902 143.63 122.933 141.179 122.933H44.1952C41.7432 122.933 39.7568 120.902 39.7568 118.397V30.3819C39.7565 27.876 41.7432 25.8433 44.1952 25.8433Z" fill="white"/>
</mask>
<g mask="url(#mask0_2367_4506)">
<path fill-rule="evenodd" clip-rule="evenodd" d="M34.7891 22.8771H150.582V38.4599L141.644 35.9199H34.7891V22.8771Z" fill="#222222"/>
</g>
<path fill-rule="evenodd" clip-rule="evenodd" d="M46.6108 29.0851C47.7444 29.0851 48.6633 30.0223 48.6633 31.182C48.6633 32.3417 47.7444 33.2813 46.6108 33.2813C45.4772 33.2813 44.5576 32.3417 44.5576 31.182C44.5576 30.0223 45.4772 29.0851 46.6108 29.0851Z" fill="white"/>
<path fill-rule="evenodd" clip-rule="evenodd" d="M53.9327 29.0851C55.0663 29.0851 55.9855 30.0223 55.9855 31.182C55.9855 32.3417 55.0663 33.2813 53.9327 33.2813C52.799 33.2813 51.8799 32.3417 51.8799 31.182C51.8799 30.0223 52.799 29.0851 53.9327 29.0851Z" fill="white"/>
<path fill-rule="evenodd" clip-rule="evenodd" d="M61.3122 29.0851C62.4459 29.0851 63.3651 30.0223 63.3651 31.182C63.3651 32.3417 62.4459 33.2813 61.3122 33.2813C60.1786 33.2813 59.2598 32.3417 59.2598 31.182C59.2598 30.0223 60.1786 29.0851 61.3122 29.0851Z" fill="white"/>
<path d="M44.7822 128.024H209.477C211.928 128.024 213.916 130.055 213.916 132.561V164.546C213.916 167.052 211.928 169.083 209.477 169.083H44.7822C42.3309 169.083 40.3438 167.052 40.3438 164.546V132.561C40.3434 130.055 42.3305 128.024 44.7822 128.024Z" fill="white"/>
<path d="M209.479 169.934H44.7821C41.8758 169.934 39.5117 167.517 39.5117 164.547V132.561C39.5117 129.59 41.8758 127.174 44.7821 127.174H209.479C212.385 127.174 214.749 129.59 214.749 132.561V164.547C214.749 167.517 212.385 169.934 209.479 169.934ZM44.7821 128.875C42.7934 128.875 41.1784 130.528 41.1784 132.561V164.546C41.1784 166.579 42.7937 168.233 44.7821 168.233H209.479C211.467 168.233 213.083 166.579 213.083 164.546V132.561C213.083 130.528 211.467 128.875 209.479 128.875H44.7821Z" fill="#222222"/>
<mask id="mask1_2367_4506" style="mask-type:luminance" maskUnits="userSpaceOnUse" x="39" y="128" width="175" height="42">
<path d="M44.1952 128.024H208.89C211.341 128.024 213.329 130.055 213.329 132.561V164.546C213.329 167.052 211.342 169.083 208.89 169.083H44.1952C41.7432 169.083 39.7568 167.052 39.7568 164.546V132.561C39.7565 130.055 41.7432 128.024 44.1952 128.024Z" fill="white"/>
</mask>
<g mask="url(#mask1_2367_4506)">
<path fill-rule="evenodd" clip-rule="evenodd" d="M37.6758 125.477H216.584V138.52H37.6758V125.477Z" fill="#222222"/>
</g>
<path d="M209.479 169.934H44.7821C41.8758 169.934 39.5117 167.517 39.5117 164.547V132.561C39.5117 129.59 41.8758 127.174 44.7821 127.174H209.479C212.385 127.174 214.749 129.59 214.749 132.561V164.547C214.749 167.517 212.385 169.934 209.479 169.934ZM44.7821 128.875C42.7934 128.875 41.1784 130.528 41.1784 132.561V164.546C41.1784 166.579 42.7937 168.233 44.7821 168.233H209.479C211.467 168.233 213.083 166.579 213.083 164.546V132.561C213.083 130.528 211.467 128.875 209.479 128.875H44.7821Z" fill="#222222"/>
<path fill-rule="evenodd" clip-rule="evenodd" d="M46.3839 131.606C47.5175 131.606 48.4365 132.543 48.4365 133.704C48.4365 134.863 47.5175 135.803 46.3839 135.803C45.2493 135.803 44.3301 134.863 44.3301 133.704C44.3301 132.543 45.2493 131.606 46.3839 131.606Z" fill="white"/>
<path fill-rule="evenodd" clip-rule="evenodd" d="M53.7058 131.606C54.8394 131.606 55.7573 132.543 55.7573 133.704C55.7573 134.863 54.8394 135.803 53.7058 135.803C52.5722 135.803 51.6543 134.863 51.6543 133.704C51.6543 132.543 52.5722 131.606 53.7058 131.606Z" fill="white"/>
<path fill-rule="evenodd" clip-rule="evenodd" d="M61.084 131.606C62.2187 131.606 63.1379 132.543 63.1379 133.704C63.1379 134.863 62.2187 135.803 61.084 135.803C59.9504 135.803 59.0312 134.863 59.0312 133.704C59.0316 132.543 59.9504 131.606 61.084 131.606Z" fill="white"/>
<path d="M61.4179 162.816H47.883C45.812 162.816 44.126 161.094 44.126 158.977V146.047C44.126 143.929 45.812 142.207 47.883 142.207H61.4179C63.4889 142.207 65.1749 143.929 65.1749 146.047V158.977C65.1749 161.094 63.4889 162.816 61.4179 162.816ZM47.883 144.215C46.8944 144.215 46.0909 145.037 46.0909 146.047V158.977C46.0909 159.986 46.8944 160.807 47.883 160.807H61.4179C62.4061 160.807 63.21 159.986 63.21 158.977V146.047C63.21 145.037 62.4065 144.215 61.4179 144.215H47.883Z" fill="#222222"/>
<path d="M88.3255 162.816H74.7887C72.7177 162.816 71.0332 161.094 71.0332 158.977V146.047C71.0332 143.929 72.7174 142.207 74.7887 142.207H88.3255C90.3968 142.207 92.0825 143.929 92.0825 146.047V158.977C92.0825 161.094 90.3968 162.816 88.3255 162.816ZM74.7887 144.215C73.8021 144.215 72.9985 145.037 72.9985 146.047V158.977C72.9985 159.986 73.8021 160.807 74.7887 160.807H88.3255C89.3138 160.807 90.1176 159.986 90.1176 158.977V146.047C90.1176 145.037 89.3141 144.215 88.3255 144.215H74.7887Z" fill="#222222"/>
<path d="M116.505 162.816H102.97C100.899 162.816 99.2129 161.094 99.2129 158.977V146.047C99.2129 143.929 100.899 142.207 102.97 142.207H116.505C118.576 142.207 120.262 143.929 120.262 146.047V158.977C120.262 161.094 118.576 162.816 116.505 162.816ZM102.97 144.215C101.982 144.215 101.178 145.037 101.178 146.047V158.977C101.178 159.986 101.981 160.807 102.97 160.807H116.505C117.493 160.807 118.297 159.986 118.297 158.977V146.047C118.297 145.037 117.494 144.215 116.505 144.215H102.97Z" fill="#222222"/>
<path d="M144.911 162.816H131.374C129.303 162.816 127.619 161.094 127.619 158.977V146.047C127.619 143.929 129.303 142.207 131.374 142.207H144.911C146.983 142.207 148.668 143.929 148.668 146.047V158.977C148.668 161.094 146.982 162.816 144.911 162.816ZM131.374 144.215C130.388 144.215 129.584 145.037 129.584 146.047V158.977C129.584 159.986 130.388 160.807 131.374 160.807H144.911C145.9 160.807 146.704 159.986 146.704 158.977V146.047C146.704 145.037 145.9 144.215 144.911 144.215H131.374Z" fill="#222222"/>
<path fill-rule="evenodd" clip-rule="evenodd" d="M158.281 143.211H171.816C173.349 143.211 174.591 144.48 174.591 146.047V158.976C174.591 160.543 173.349 161.811 171.816 161.811H158.281C156.748 161.811 155.507 160.543 155.507 158.976V146.047C155.507 144.48 156.748 143.211 158.281 143.211Z" fill="#B8BBFD"/>
<path fill-rule="evenodd" clip-rule="evenodd" d="M186.462 143.211H199.998C201.53 143.211 202.772 144.48 202.772 146.047V158.976C202.772 160.543 201.531 161.811 199.998 161.811H186.462C184.93 161.811 183.688 160.543 183.688 158.976V146.047C183.688 144.48 184.93 143.211 186.462 143.211Z" fill="#B8BBFD"/>
<path d="M122.85 85.469L115.038 55.6696C114.641 54.157 113.12 53.258 111.64 53.6649L64.8007 66.4916C64.7379 66.5085 64.6771 66.5301 64.6167 66.5514L64.3725 66.6092C62.8926 67.0161 60.9108 69.1728 61.3757 71.8327L69.1879 101.634C69.5847 103.147 71.1055 104.043 72.5858 103.639L119.425 90.8101C120.439 90.5318 121.169 89.7162 121.403 88.7429C122.564 88.1566 123.198 86.7955 122.85 85.469Z" fill="white"/>
<path d="M71.8675 104.586C70.2759 104.586 68.8158 103.5 68.3836 101.855L60.5725 72.0529C59.9969 68.7841 62.3292 66.2897 64.1567 65.7885L64.4277 65.7233L111.423 52.8436C112.357 52.5903 113.325 52.7179 114.161 53.211C114.994 53.7031 115.591 54.4984 115.841 55.4504L123.653 85.2491C124.064 86.8138 123.416 88.4649 122.101 89.3163C121.704 90.446 120.788 91.3166 119.641 91.6321L72.8006 104.46C72.4883 104.546 72.1758 104.586 71.8675 104.586ZM112.363 54.418C112.193 54.418 112.023 54.44 111.856 54.4862L65.0171 67.3126C65.0072 67.3157 64.8146 67.3781 64.805 67.3798L64.5612 67.4383C63.5435 67.7182 61.8006 69.4305 62.1954 71.6831L69.9907 101.415C70.2679 102.472 71.3329 103.095 72.3704 102.817L119.209 89.989C119.895 89.8013 120.423 89.246 120.594 88.5399C120.651 88.296 120.812 88.091 121.032 87.9806C121.86 87.5628 122.284 86.5997 122.046 85.6888L114.233 55.8902C114.098 55.3782 113.777 54.9493 113.327 54.6842C113.029 54.5072 112.697 54.418 112.363 54.418Z" fill="#B8BBFD"/>
<path d="M110.047 57.4778L69.0991 68.6936C67.6189 69.0979 66.7407 70.6537 67.1372 72.1667L73.0108 94.5743C73.4073 96.0873 74.9295 96.984 76.4084 96.5797L117.356 85.3643C118.837 84.9597 119.715 83.4041 119.318 81.8908L113.445 59.4836C113.048 57.9702 111.527 57.0739 110.047 57.4778Z" fill="#B8BBFD"/>
<path fill-rule="evenodd" clip-rule="evenodd" d="M110.047 57.4778L69.0991 68.6936C67.6189 69.0979 66.7407 70.6537 67.1372 72.1667L73.0108 94.5743C73.4073 96.0873 74.9295 96.984 76.4084 96.5797L117.356 85.3643C118.837 84.9597 119.715 83.4041 119.318 81.8908L113.445 59.4836C113.048 57.9702 111.527 57.0739 110.047 57.4778Z" fill="white"/>
<path d="M75.6938 97.527C74.1022 97.527 72.6402 96.4392 72.208 94.7942L66.3346 72.3859C66.0851 71.4359 66.2127 70.4416 66.6941 69.5892C67.1755 68.7365 67.9539 68.1259 68.8853 67.8719L109.831 56.6565C111.758 56.1242 113.737 57.3032 114.248 59.2644L120.123 81.6706C120.636 83.6358 119.492 85.6615 117.571 86.1856L76.6252 97.4011C76.3146 97.4868 76.0024 97.527 75.6938 97.527ZM110.262 58.2995L69.3152 69.5149C68.8143 69.6524 68.3957 69.981 68.1364 70.4399C67.877 70.8989 67.8082 71.4342 67.9417 71.9465L73.8154 94.3545C74.0923 95.4098 75.1592 96.0407 76.195 95.7584L117.14 84.5429C118.176 84.2596 118.791 83.1691 118.516 82.1096L112.64 59.7034C112.363 58.645 111.288 58.0232 110.262 58.2995Z" fill="#B8BBFD"/>
<path fill-rule="evenodd" clip-rule="evenodd" d="M108.356 61.5376L97.3783 64.544C95.898 64.951 95.0198 66.5045 95.4166 68.0175L99.1882 82.4045C99.5847 83.9175 101.106 84.8162 102.586 84.4099L113.564 81.4032C115.043 80.9986 115.921 79.443 115.526 77.93L111.753 63.543C111.357 62.03 109.835 61.1334 108.356 61.5376Z" fill="#B8BBFD"/>
<path d="M72.2822 76.1975C71.9128 76.1975 71.5767 75.9466 71.4782 75.565C71.3606 75.1111 71.6237 74.6453 72.0677 74.5248L92.441 68.9993C92.893 68.878 93.3431 69.1489 93.459 69.6038C93.577 70.0577 93.3137 70.5238 92.8696 70.6443L72.4962 76.1698C72.4236 76.1884 72.3529 76.1975 72.2822 76.1975Z" fill="#B8BBFD"/>
<path d="M73.4537 80.4585C73.0843 80.4585 72.7484 80.2076 72.6502 79.826C72.5323 79.3721 72.7956 78.906 73.2397 78.7855L80.3844 76.8486C80.8325 76.726 81.2845 76.9982 81.4024 77.4531C81.5204 77.907 81.257 78.3731 80.8129 78.4937L73.6682 80.4308C73.5952 80.4494 73.5245 80.4585 73.4537 80.4585Z" fill="#B8BBFD"/>
<path d="M83.7654 77.6619C83.396 77.6619 83.0599 77.4106 82.9618 77.029C82.8438 76.5751 83.1071 76.109 83.5512 75.9888L93.5593 73.2752C94.0132 73.1577 94.459 73.4238 94.5769 73.8797C94.6949 74.3336 94.4316 74.7997 93.9875 74.9202L83.9794 77.6335C83.9067 77.6528 83.8357 77.6619 83.7654 77.6619Z" fill="#B8BBFD"/>
<path d="M74.4167 84.7767C74.0473 84.7767 73.7112 84.5258 73.6131 84.1442C73.4952 83.6903 73.7586 83.2246 74.2026 83.104L94.5759 77.5785C95.0279 77.4573 95.4756 77.7281 95.5936 78.183C95.7115 78.6369 95.4482 79.1026 95.0042 79.2232L74.6308 84.7487C74.5581 84.768 74.4877 84.7767 74.4167 84.7767Z" fill="#B8BBFD"/>
<path d="M75.5517 89.3413C75.1823 89.3413 74.8462 89.0904 74.7478 88.7087C74.6301 88.2548 74.8932 87.7888 75.3373 87.6682L95.7106 82.1427C96.1645 82.0252 96.6106 82.2913 96.7286 82.7473C96.8465 83.2012 96.5832 83.6672 96.1391 83.7878L75.7658 89.3133C75.6931 89.3322 75.6224 89.3413 75.5517 89.3413Z" fill="#B8BBFD"/>
<path d="M142.481 93.682C142.447 93.5749 142.316 93.4787 142.075 93.4081L125.259 88.3834C124.405 88.1271 122.513 88.251 121.033 88.6556L74.1936 101.485C73.3946 101.703 72.8799 101.96 72.7091 102.189C71.9805 103.083 73.1151 105.608 73.8625 105.831L90.6826 110.847C91.5367 111.101 93.4293 110.979 94.9095 110.575L141.767 97.7417C143.123 97.3689 143.142 94.3797 142.481 93.682Z" fill="white"/>
<path d="M91.9139 111.832C91.3559 111.832 90.8447 111.781 90.4479 111.663L73.6272 106.647C72.7057 106.373 72.067 104.988 71.835 104.213C71.5125 103.136 71.5952 102.223 72.069 101.644C72.1592 101.521 72.5011 101.066 73.979 100.664L120.815 87.8343C122.228 87.4466 124.345 87.2237 125.492 87.5672L142.307 92.5925C142.79 92.733 143.046 92.9782 143.179 93.2092C143.791 94.0039 143.863 95.6043 143.565 96.706C143.296 97.6972 142.734 98.3571 141.983 98.5631L95.1252 111.397C94.201 111.649 92.9732 111.832 91.9139 111.832ZM124.032 89.1001C123.242 89.1001 122.191 89.2187 121.246 89.4767L74.4096 102.306C73.7078 102.497 73.4015 102.681 73.3427 102.735C73.3212 102.769 73.2661 102.978 73.3507 103.407C73.506 104.186 73.9658 104.916 74.1542 105.038L90.9158 110.03C91.5386 110.216 93.2462 110.147 94.6944 109.753L141.551 96.9191C141.682 96.883 141.826 96.6732 141.924 96.3706C142.189 95.5594 142.048 94.4909 141.875 94.2656C141.844 94.2285 125.025 89.1991 125.025 89.1991C124.806 89.1342 124.457 89.1001 124.032 89.1001Z" fill="#B8BBFD"/>
<path fill-rule="evenodd" clip-rule="evenodd" d="M80.9921 101.356L120.707 90.4119C121.962 90.0654 123.488 89.9327 124.116 90.1167L136.501 93.7267C137.129 93.9107 136.621 94.3386 135.367 94.6855L95.6517 105.629C94.3975 105.976 92.8703 106.109 92.2419 105.925L79.8572 102.315C79.2291 102.131 79.7369 101.703 80.9921 101.356Z" fill="#B8BBFD"/>
<path fill-rule="evenodd" clip-rule="evenodd" d="M245.042 228.574C243.717 222.764 239.322 204.04 237.885 202.204C236.446 200.368 233.268 200.385 232.004 200.558C230.738 200.731 227.398 202.713 227.398 202.713L224.402 201.07C224.402 201.07 224.453 198.452 223.403 197.495C222.354 196.539 218.547 194.359 216.08 191.711C213.612 189.066 210.032 184.566 210.032 184.566C210.032 184.566 211.264 181.702 209.422 174.812C207.579 167.921 202.82 153.149 202.82 153.149C202.82 153.149 203.082 137.979 203.263 133.811C203.444 129.642 203.243 121.093 202.32 114.756C201.397 108.418 200.322 100.181 200.322 100.181C200.322 100.181 205.278 75.6014 204.04 71.2018C202.802 66.8 199.751 63.2474 196.55 61.5612C193.347 59.8726 193.102 59.646 192.333 56.5707C191.563 53.4937 191.334 50.8976 191.334 50.8976L192.166 48.0621L197.437 44.9442C197.437 44.9442 201.4 43.9834 201.488 42.1641C201.676 38.2502 199.657 35.8706 199.657 35.8706C199.657 35.8706 200.682 32.898 199.6 30.7088C198.52 28.5197 199.006 27.5032 197.603 27.6464C196.202 27.7899 194.052 27.5329 194.052 27.5329C194.052 27.5329 190.12 21.8922 187.006 23.1097C183.892 24.3272 183.844 25.2087 183.844 25.2087C183.844 25.2087 180.341 22.3819 178.906 24.3573C177.471 26.3323 177.907 29.0074 177.907 29.0074C177.907 29.0074 176.767 30.2742 177.297 31.2202C177.827 32.1661 178.518 32.4677 178.518 32.4677C178.518 32.4677 178.419 33.9638 176.965 36.4373C175.508 38.9091 175.655 40.2549 174.523 40.2934C173.392 40.3319 172.738 40.3343 173.026 41.5967C173.313 42.8591 174.135 43.5825 174.135 43.5825C174.135 43.5825 174.186 47.7726 176.632 49.0823C179.076 50.394 182.884 49.6558 183.567 52.4869C184.249 55.316 183.511 58.3268 183.511 58.3268C183.511 58.3268 176.564 57.9611 172.914 59.0073C169.264 60.0539 166.588 62.4099 166.588 62.4099L163.87 60.9931L158.877 44.7169L158.322 37.287C158.322 37.287 158.778 33.8845 158.322 31.5028C157.867 29.1232 157.421 26.9382 156.935 27.3066C156.449 27.6747 156.158 31.5028 156.158 31.5028C156.158 31.5028 155.097 26.9166 153.884 25.6052C152.67 24.2935 151.338 23.2171 150.666 24.0172C149.994 24.8176 150.721 29.9152 150.721 29.9152C150.721 29.9152 149.881 28.4235 148.225 27.0219C146.568 25.6224 144.936 23.7818 144.119 24.64C143.301 25.5001 143.597 26.6899 144.729 27.9868C145.86 29.2836 147.114 30.0861 147.114 30.0861C147.114 30.0861 148.805 36.6001 147.281 37.3448C145.755 38.0874 144.451 38.3721 143.786 37.3448C143.119 36.3177 142.848 34.2397 141.566 34.1114C140.284 33.9827 138.509 34.9354 139.791 37.4582C141.071 39.9793 142.689 42.0229 144.895 44.0364C147.101 46.0502 148.723 46.2471 148.723 46.2471C148.723 46.2471 151.294 60.9229 151.941 64.6787C152.588 68.4342 152.508 69.3417 153.217 70.2359C153.925 71.1306 155.991 73.3562 155.991 73.3562L143.008 89.1792L130.302 87.4203L120.648 83.166C120.648 83.166 117.057 79.9411 115.877 80.444C114.696 80.9489 113.105 82.8813 112.326 86.6841C111.546 90.4848 110.704 95.4024 111.438 96.7783C112.171 98.1521 114.607 100.02 114.767 98.422C114.927 96.8256 114.323 95.5311 114.323 95.5311L115.433 93.6587C115.433 93.6587 121.736 97.2025 123.921 97.1748C126.106 97.1467 127.25 96.6074 127.25 96.6074C127.25 96.6074 140.462 102.768 146.115 101.769C151.766 100.769 165.978 86.2305 165.978 86.2305L168.473 110.898L145.005 177.706C145.005 177.706 144.834 190.087 153.383 192.109C161.931 194.13 164.331 191.11 167.365 189.501C170.398 187.889 184.73 178.101 184.73 178.101C184.73 178.101 191.148 196.16 198.99 204.187C206.832 212.216 215.654 217.232 217.576 217.46C219.498 217.684 221.848 215.418 221.848 215.418L225.066 219.501C225.066 219.501 227.31 228.716 230.004 232.771C232.699 236.824 239.635 240.849 242.321 239.293C245.009 237.736 246.367 234.384 245.042 228.574ZM176.632 160.237L182.235 147.761L182.79 157.401L176.632 160.237Z" fill="white"/>
<path fill-rule="evenodd" clip-rule="evenodd" d="M203.08 154.082C204.948 156.822 207.599 166.877 209.182 171.38C210.765 175.882 211.478 183.487 210.181 183.969C208.883 184.451 206.527 183.286 203.856 176.085C201.184 168.887 199.408 162.586 198.584 158.392C197.762 154.198 195.774 151.217 198.307 151.133C200.841 151.05 201.21 151.343 203.08 154.082Z" fill="#222222"/>
<path fill-rule="evenodd" clip-rule="evenodd" d="M238.531 203.25C239.357 204.872 244.033 223.657 244.689 227.466C245.346 231.277 245.911 235.527 243.746 236.199C241.582 236.871 238.265 237.059 235.646 225.424C233.026 213.79 231.005 206.439 232.816 202.457C234.161 199.501 237.705 201.63 238.531 203.25Z" fill="#222222"/>
<path fill-rule="evenodd" clip-rule="evenodd" d="M204.023 126.625C204.023 126.625 200.943 124.654 191.817 122.542C182.691 120.427 174.863 119.486 172.564 119.989C170.265 120.492 165.24 121.18 165.24 121.18L168.347 111.482L165.684 86.0765C165.684 86.0765 152.407 98.193 150.037 100.027C147.668 101.861 144.519 102.661 140.106 101.444C135.694 100.228 133.005 98.268 133.005 98.268C133.005 98.268 131.566 95.6381 132.672 92.7104C133.778 89.7854 135.391 88.1181 135.391 88.1181L143.601 88.7986L156.918 72.6355C156.918 72.6355 153.484 72.0171 152.812 67.9276C152.139 63.8382 150.204 54.2596 150.204 54.2596C150.204 54.2596 152.021 52.081 155.753 51.5957C159.484 51.11 161.024 52.672 161.024 52.672L164.519 61.0094L166.184 62.1431C166.184 62.1431 168.809 58.5396 173.008 58.7406C177.207 58.9418 183.883 58.4582 183.883 58.4582L184.771 57.3795C184.771 57.3795 188.035 57.3623 189.487 57.6619C190.938 57.9635 192.649 58.1735 192.649 58.1735C192.649 58.1735 194.034 60.2299 196.477 61.4626C198.92 62.6953 203.598 65.492 204.133 71.2741C204.668 77.0563 200.25 101.047 200.25 101.047C200.25 101.047 201.277 110.491 202.413 115.394C203.551 120.299 204.023 126.625 204.023 126.625Z" fill="#B8BBFD"/>
<path fill-rule="evenodd" clip-rule="evenodd" d="M198.326 181.795C198.326 181.795 197.907 179.484 198.271 177.881C198.635 176.28 199.436 174.196 199.436 174.196L194.443 157.635C194.443 157.635 192.074 157.881 191.17 157.181C190.265 156.481 189.228 154.63 189.228 154.63L182.792 157.861C182.792 157.861 181.612 161.876 182.903 166.141C184.193 170.408 184.956 171.642 184.956 171.642L186.287 171.756L191.669 173.57L198.326 181.795Z" fill="#222222"/>
<path fill-rule="evenodd" clip-rule="evenodd" d="M229.285 212.531L231.893 229.261C231.893 229.261 229.613 229.317 228.731 228.467C227.849 227.618 225.623 220.755 225.623 220.755L222.128 215.084L220.298 214.29C220.298 214.29 219.542 208.029 220.741 204.99C221.94 201.949 223.46 200.282 223.46 200.282L229.507 201.474C229.507 201.474 226.361 201.823 225.79 205.613C225.217 209.403 229.285 212.531 229.285 212.531Z" fill="#222222"/>
<path fill-rule="evenodd" clip-rule="evenodd" d="M182.459 43.5169L185.621 46.9752L184.9 49.755L191.446 50.0954L191.724 47.2599L195.996 45.2164L198.383 43.8553L201.601 42.779C201.601 42.779 202.274 40.5514 201.767 38.8094C201.259 37.0674 200.213 35.009 200.213 35.009C200.213 35.009 202.441 30.0229 198.826 28.0347C195.211 26.0465 194.554 27.3542 194.554 27.3542C194.554 27.3542 192.337 22.6075 189.172 22.646C186.007 22.6868 184.9 25.0854 184.9 25.0854C184.9 25.0854 180.277 21.6166 178.52 24.2336C176.761 26.853 178.02 28.3748 178.02 28.3748C178.02 28.3748 176.682 30.3478 177.576 31.1526C178.47 31.9594 180.406 31.7193 180.406 31.7193C180.406 31.7193 180.478 41.0475 181.626 40.5105C182.775 39.9732 182.847 36.881 182.847 36.881C182.847 36.881 185.944 35.9908 186.01 38.1843C186.074 40.3798 182.459 43.5169 182.459 43.5169Z" fill="#222222"/>
<path fill-rule="evenodd" clip-rule="evenodd" d="M223.628 200.173L220.743 199.379C220.743 199.379 217.519 201.052 216.804 205.221C216.089 209.389 216.249 213.445 216.249 213.445L220.188 213.954L218.413 217.47C218.413 217.47 208.512 212.55 201.435 206.411C190.373 196.817 184.957 177.204 184.957 177.204C184.957 177.204 167.064 188.91 163.429 190.93C159.795 192.948 156.346 193.292 151.834 191.611C147.322 189.929 143.566 182.479 144.788 176.808C146.009 171.137 164.706 121.458 164.706 121.458C164.706 121.458 171.166 118.614 178.299 120.097C181.288 120.718 188.365 121.347 193.113 122.421C199.698 123.915 203.765 125.824 203.765 125.824L202.267 152.819C202.267 152.819 199.047 148.546 191.337 152.762C183.628 156.979 182.239 157.414 182.239 157.414L182.128 146.015L175.969 160.419L179.742 158.775C179.742 158.775 177.194 161.921 178.688 167.169C180.18 172.416 181.961 173.349 181.961 173.349L185.401 172.328L191.005 173.802C191.005 173.802 198.886 184.127 203.156 185.486C207.425 186.843 210.313 185.597 210.313 185.597C210.313 185.597 213.178 190.669 217.359 193.539C221.54 196.407 222.753 197.055 223.295 197.904C223.837 198.754 223.628 200.173 223.628 200.173Z" fill="white"/>
<path fill-rule="evenodd" clip-rule="evenodd" d="M187.505 21.9803C187.819 21.9803 188.134 21.9803 188.448 21.9803C191.393 22.5987 193.388 24.1887 194.661 26.517C196.323 26.4937 197.886 26.5062 198.877 27.3667C199.592 27.9894 199.996 29.0293 200.375 29.9753C201.048 31.6635 201.685 33.4656 200.819 35.3059C201.891 37.084 203.177 40.7327 201.54 43.1873C201.18 43.7267 200.719 43.9641 200.208 44.2083C199.676 44.4629 199.107 44.5058 198.433 44.775C197.979 44.959 197.578 45.4811 197.102 45.8536C195.764 46.8979 194.142 47.7516 192.498 48.4045C191.697 50.0029 192.122 51.7982 192.386 54.0752C192.586 55.7999 192.698 57.4305 193.329 58.4983C196.405 60.3879 199.617 61.8624 201.762 64.3943C203.973 67.0073 204.812 71.0323 204.812 75.7361C204.812 77.9465 204.477 80.1464 204.147 82.3142C203.353 87.5229 202.466 92.6523 201.54 97.7948C201.357 98.8069 201.032 99.8299 200.985 100.799C200.936 101.777 201.212 102.892 201.374 103.975C201.82 106.966 202.253 110.277 202.76 113.159C203.47 117.2 204.348 121.112 204.535 125.464C204.732 130.022 204.36 134.69 204.147 139.244C203.997 142.456 203.85 145.957 203.648 149.338C203.58 150.465 203.328 151.801 203.481 152.683C203.554 153.1 204.121 153.699 204.368 154.215C205.128 155.794 205.76 157.821 206.31 159.543C208.277 165.696 209.929 172.007 211.193 178.88C211.555 180.853 212.06 183.389 211.082 184.947C213.973 188.491 217.188 191.857 220.956 194.756C222.643 196.055 224.632 197.076 225.117 199.52C226.136 199.67 227.009 199.798 228.001 200.032C228.346 200.111 228.627 200.261 229 200.258C229.475 200.254 229.849 199.995 230.276 199.86C231.645 199.433 233.11 199.469 234.659 199.805C236.298 200.16 238.141 200.806 239.097 202.242C239.666 203.096 239.975 204.5 240.317 205.7C242.688 214.018 244.677 223.321 246.032 232.523C246.032 232.598 246.032 232.673 246.032 232.75C245.673 236.39 244.337 239.324 241.205 239.893C239.433 240.216 237.686 239.754 236.213 239.215C231.806 237.597 229.452 234.312 227.78 229.801C226.665 226.79 225.742 223.608 224.896 220.672C224.872 220.593 224.866 220.558 224.84 220.501C224.458 219.694 223.761 218.924 223.231 218.176C222.66 217.372 222.026 216.651 221.566 215.85C220.96 216.4 220.567 216.927 219.902 217.325C218.148 218.377 216.411 217.312 214.799 216.531C211.636 215.001 208.852 213.317 206.255 211.429C195.754 203.789 188.779 191.551 184.342 178.54C178.557 182.403 172.596 186.852 166.368 190.504C164.226 191.76 161.998 192.916 158.989 193.113C152.195 193.558 147.839 191.003 145.73 186.479C144.625 184.104 143.814 181.123 144.122 178.086C144.272 176.605 144.6 175.202 144.954 173.834C145.296 172.514 145.635 171.187 146.063 169.864C147.674 164.889 149.53 159.924 151.334 154.951C156.494 140.72 161.725 126.645 166.868 112.366C167.12 111.664 167.489 110.998 167.533 110.496C167.603 109.674 167.36 108.567 167.256 107.604C166.534 100.911 165.717 94.0157 165.092 87.4736C164.351 87.8674 163.807 88.5543 163.206 89.1173C161.286 90.9191 159.419 92.6911 157.491 94.4476C154.934 96.7803 152.499 99.4084 149.448 101.139C147.711 102.124 145.978 102.738 143.734 102.727C141.639 102.714 139.657 102.042 137.743 101.422C135.028 100.542 132.458 99.2794 129.976 98.1902C129.14 97.8245 128.277 97.3453 127.424 97.0558C126.971 96.9018 126.105 97.4155 125.704 97.5097C125.143 97.6421 124.526 97.7556 123.985 97.7944C122.558 97.8883 121.696 97.5503 120.657 97.0558C119.725 96.6131 118.84 96.1379 117.994 95.6394C117.176 95.1558 116.44 94.4966 115.497 94.1649C115.366 94.5222 115.216 94.8606 114.998 95.1281C115.138 96.1636 116.023 96.7353 115.775 98.0214C115.569 99.0764 113.857 99.6263 112.667 99.2109C110.908 98.5969 110 95.8167 110.338 93.3709C110.436 92.6648 110.758 92.044 110.892 91.3294C111.012 90.6958 111.042 89.964 111.17 89.2301C111.421 87.7965 111.764 86.4547 112.058 85.147C112.228 84.3916 112.228 83.6854 112.501 83.0498C113.085 81.6975 114.205 80.272 115.386 79.761C116.61 79.2301 117.923 79.9343 118.882 80.4993C119.825 81.0535 120.596 81.7681 121.433 82.2004C122.758 82.8833 124.525 83.4632 126.038 84.1842C126.757 84.5266 127.506 84.9184 128.257 85.2605C129.049 85.6242 129.862 86.0846 130.587 86.2815C131.552 86.5445 132.67 86.6067 133.693 86.735C136.95 87.1437 139.916 87.454 143.18 87.9268C147.296 83.1764 151.273 78.2798 155.328 73.4672C153.917 72.1126 152.283 70.7688 151.723 68.5902C151.161 66.4051 150.792 63.8995 150.391 61.3892C149.609 56.4973 148.805 51.3379 148.117 46.5335C144.724 45.3606 141.597 42.4376 139.796 39.1613C139.092 37.8837 138.303 35.8466 138.908 34.1711C139.621 32.1982 142.728 33.0222 143.568 34.569C143.824 35.0377 143.841 35.7952 144.123 36.1546C144.52 36.6639 145.478 36.9077 146.119 36.7794C147.579 36.4882 147.153 34.3525 146.896 32.8098C146.738 31.8618 146.624 30.6804 146.397 30.2012C146.263 29.9165 145.869 29.5764 145.565 29.2937C144.74 28.5278 143.438 27.5882 143.069 26.516C142.337 24.3995 143.702 22.617 145.62 23.567C146.905 24.2026 148.165 25.3498 149.226 26.3447C149.3 26.4153 149.514 26.8861 149.615 26.5714C149.707 26.2846 149.509 25.647 149.504 25.2681C149.484 23.8344 149.953 23.0148 151.224 23.1688C153.29 23.4234 154.857 25.5872 155.607 27.1961C156.005 27.0144 156.219 26.3721 156.938 26.4022C158.408 26.4619 158.986 29.2461 159.212 30.9388C159.365 32.0793 159.411 33.1087 159.323 34.1701C159.241 35.1779 158.919 36.2029 158.879 37.1745C158.835 38.2701 159.096 39.5007 159.212 40.6905C159.33 41.8972 159.309 43.1387 159.489 44.1508C159.726 45.4798 160.31 46.8834 160.71 48.2319C161.928 52.3406 163.192 56.6142 164.372 60.5365C164.763 60.8553 165.371 60.9515 165.703 61.3325C169.177 57.4527 176.308 57.3156 183.289 57.0225C183.145 55.0194 183.309 52.8067 182.345 51.6341C181.523 50.6348 179.749 50.7543 178.185 50.4997C175.94 50.136 174.284 47.906 173.858 45.8516C173.663 44.9144 173.188 42.368 174.524 42.4491C175.181 42.4879 175.263 43.1296 175.3 43.9236C175.402 46.0573 176.16 47.8675 177.52 48.5737C178.432 49.0465 179.705 48.9631 180.682 49.1387C181.777 49.3379 182.669 49.6182 183.344 50.2728C184.646 51.5355 184.788 53.8253 184.953 56.3416C187.113 56.087 189.459 56.3524 191.111 56.9644C190.794 55.1346 190.595 53.1829 190.39 51.238C189.172 51.2359 188.065 51.2636 186.895 51.1802C185.89 51.1117 184.584 51.1441 184.065 50.3862C183.399 49.417 184.311 48.1714 184.176 47.2684C184.079 46.6159 183.339 45.9587 182.845 45.4538C182.455 45.0559 181.495 44.294 181.402 43.6969C181.201 42.3957 182.703 41.955 183.51 41.2576C183.797 41.0117 184.133 40.5835 184.398 40.1809C184.997 39.2714 185.236 38.5288 184.343 37.857C184.065 37.6473 183.465 37.4312 183.51 38.0816C183.541 38.5139 183.726 38.1951 184.065 38.4217C184.929 38.9996 183.959 40.0289 182.956 39.6693C182.581 40.4653 182.335 41.6125 181.291 41.4842C179.753 41.2957 179.572 36.0978 179.572 36.0978C179.572 36.0978 179.534 34.8651 179.46 34.2275C179.195 34.1569 179.127 34.493 178.962 34.6814C178.383 35.3322 177.784 35.9462 177.353 36.7787C176.745 37.9516 176.384 39.3275 175.688 40.01C175.131 40.5598 172.23 41.8547 172.415 40.0678C172.516 39.1005 173.909 39.3785 174.523 38.8202C175.415 36.877 176.45 34.8847 177.741 33.4339C177.9 33.2542 178.224 33.1299 178.185 32.8672C176.918 32.6916 176.286 31.7112 176.743 30.314C176.85 29.9844 177.187 29.5629 177.187 29.2377C177.187 28.8034 176.771 28.3647 176.743 27.8766C176.626 25.8523 177.649 24.031 179.072 23.34C180.581 22.6082 182.74 22.8243 184.453 23.9071C185.394 23.1874 186.166 22.2951 187.505 21.9803ZM191.166 47.2704C191.441 46.9026 192.384 46.6692 192.941 46.421C194.273 45.8239 195.174 45.1519 196.159 44.3795C196.657 43.9877 197.158 43.4592 197.657 43.2451C198.605 42.8388 199.546 42.9712 200.098 42.3376C200.567 41.7966 200.655 40.8098 200.653 40.0117C200.65 38.7618 200.233 37.8952 199.821 37.0627C199.559 36.5365 199.128 35.9992 199.099 35.5328C199.052 34.7794 199.605 34.0884 199.599 33.2086C199.592 32.4062 199.22 31.3832 198.877 30.5423C198.226 28.9459 197.751 28.285 195.881 28.1607C195.204 28.1178 194.48 28.368 193.884 28.1607C193.349 27.9746 193.14 27.1999 192.775 26.6308C192.451 26.1256 191.91 25.4454 191.555 25.156C190.813 24.5524 189.42 23.7929 188.282 23.6818C187.178 23.5747 186.759 24.1867 186.118 24.7585C185.747 25.0901 185.226 25.7574 184.731 25.7814C184.273 25.8007 183.608 25.3491 183.178 25.1563C181.967 24.6153 179.915 24.1634 179.016 25.439C178.69 25.9054 178.286 27.0009 178.407 27.8783C178.478 28.3984 178.946 28.5204 178.962 29.1816C178.981 30.0185 178.359 30.1897 178.241 31.1097C179.015 31.6065 180.45 31.0864 180.959 31.7902C181.336 32.3143 181.105 34.1357 181.18 35.1927C181.276 36.5261 181.447 37.6345 181.569 38.4237C182.072 37.4332 182.334 35.98 183.511 35.8175C184.52 35.6764 185.52 36.5237 186.007 37.1208C186.435 37.645 186.738 38.3515 186.618 39.2758C186.372 41.1654 184.521 42.6331 183.289 43.4146C184.55 44.8266 186.639 46.4984 185.508 49.3123C186.898 49.6483 188.754 49.5092 190.445 49.5392C190.818 48.8091 190.75 47.829 191.166 47.2704ZM153.776 34.4565C152.428 34.5825 152.943 33.0546 153.054 32.0168C153.13 31.3086 153.139 30.5102 153.11 29.8061C153.028 27.8243 152.834 25.2093 151.224 24.929C151.212 24.8604 151.162 24.8949 151.113 24.929C151.192 25.9432 151.327 27.0411 151.501 28.5004C151.643 29.6966 152.532 32.4916 151.057 32.4143C150.299 32.3738 150.026 30.9077 149.781 30.315C148.71 27.7193 146.799 26.1955 144.623 24.9867C144.415 26.2816 145.343 26.7993 145.953 27.4241C146.532 28.0144 147.543 28.5862 147.895 29.3522C148.27 30.1674 148.332 31.3424 148.506 32.3565C148.686 33.4177 148.96 34.5929 148.838 35.6453C148.675 37.058 147.534 38.3525 146.175 38.4808C144.329 38.6541 142.222 37.3785 142.126 35.363C141.672 35.0502 141.262 34.6949 140.517 34.6824C140.123 36.9405 141.121 38.3032 142.015 39.5571C143.3 41.3633 144.718 42.9489 146.674 44.038C147.457 44.4727 149.282 44.9411 149.615 45.6817C149.824 46.1461 149.804 46.8074 149.892 47.3832C150.164 49.1637 150.453 50.8692 150.669 52.6561C152.727 51.0961 156.228 49.8763 159.711 50.6723C159.345 48.7614 158.282 46.6963 157.88 44.4919C157.673 43.3511 157.662 42.0374 157.548 40.749C157.438 39.5142 157.149 38.1745 157.215 37.006C157.27 36.0367 157.646 35.0458 157.715 34.0016C157.843 32.0479 157.522 30.1799 156.882 28.6132C156.936 29.8311 156.86 31.3697 156.771 32.5274C156.696 33.5139 156.91 34.569 155.94 34.569C154.326 34.569 155.578 30.7277 154.83 29.7476C154.728 31.3555 155.06 34.3343 153.776 34.4565ZM162.319 59.4619C161.857 57.932 161.489 56.6861 161.043 55.2096C160.83 54.5054 160.714 53.5595 160.377 53.0549C159.775 52.1518 158.119 52.0617 157.048 52.1475C154.468 52.3508 152.245 53.1319 151.057 54.8114C151.56 58.1603 152.097 61.9225 152.722 65.3014C152.934 66.4527 153.08 67.7107 153.443 68.6483C154.033 70.1741 155.452 71.1478 156.383 72.2774C158.381 69.8036 160.56 67.347 162.596 64.961C163.286 64.1542 164.03 63.3879 164.593 62.5237C162.933 62.2032 162.786 61.011 162.319 59.4619ZM201.041 112.819C200.569 109.982 200.124 106.853 199.71 103.975C199.561 102.948 199.248 101.717 199.321 100.799C199.445 99.2585 199.864 97.6002 200.154 95.9802C201.015 91.1524 201.878 86.2112 202.595 81.4628C203.087 78.2058 203.359 74.4183 202.816 71.0306C202.298 67.7884 200.979 65.4818 198.822 63.7719C196.785 62.1562 194.599 61.576 192.553 60.0289C192.182 59.7486 191.932 59.218 191.5 58.9526C190.877 58.5693 189.945 58.3146 189.003 58.1586C187.937 57.9786 186.087 57.6834 185.064 58.0451C184.675 58.1822 184.611 58.5608 184.176 58.6679C183.524 58.8303 182.67 58.7428 181.902 58.7813C176.642 59.0448 171.114 59.1045 167.923 61.5611C167.328 62.0171 166.743 62.7124 166.203 63.318C164.536 65.1799 162.887 67.2126 161.32 69.0444C155.286 76.0957 149.56 83.0228 143.569 90.1379C143.02 90.7887 142.369 91.8674 141.682 91.7836C141.259 91.7303 141.049 91.3767 141.017 91.1031C140.92 90.2902 141.93 89.8579 141.849 89.4574C140.723 89.2842 139.897 89.1984 138.853 89.0616C138.006 88.9505 136.6 88.5608 135.801 88.7212C134.564 88.9694 133.738 91.3449 133.417 92.4641C133.081 93.6286 132.521 96.7698 133.417 97.7951C133.663 98.0754 134.359 98.2531 134.749 98.4175C136.197 99.0275 137.621 99.5796 139.019 100.006C141.041 100.62 143.085 101.375 145.62 100.855C149.47 100.068 152.524 96.7765 154.941 94.506C159.801 89.9393 164.272 85.7577 169.142 81.2359C169.861 80.5702 170.542 79.4382 171.306 79.479C171.597 79.4939 172.062 79.7806 172.083 80.273C172.108 80.8613 171.259 81.4841 170.862 81.861C169.327 83.3183 167.824 84.6449 166.536 86.0552C167.334 92.9353 168.129 100.547 168.92 107.605C169.038 108.649 169.294 109.886 169.198 110.779C169.124 111.47 168.696 112.351 168.421 113.104C167.568 115.435 166.679 117.746 165.87 119.965C171.825 117.936 179.074 119.445 185.23 120.305C191.728 121.213 197.762 122.415 202.816 124.615C202.652 120.403 201.688 116.708 201.041 112.819ZM130.032 87.9275C129.328 87.7198 128.498 87.2234 127.702 86.8488C126.089 86.0937 124.574 85.3041 122.986 84.6384C122.137 84.2808 121.231 84.0839 120.491 83.6753C119.144 82.9285 118.028 81.422 116.33 81.2359C115.888 81.1889 115.443 81.7837 115.164 82.0876C114.878 82.4003 114.512 82.7317 114.554 82.9951C115.78 82.6097 119.634 82.3895 119.603 83.8445C119.577 85.043 118.189 84.478 117.217 84.4115C115.608 84.3004 113.936 84.6003 113.722 85.6594C114.467 85.3277 118.748 84.3453 118.437 86.1687C118.244 87.3115 115.705 86.6756 114.554 87.0761C113.828 87.3308 112.962 87.9427 112.89 88.7772C113.141 88.7475 113.504 88.4496 113.833 88.3233C114.813 87.9512 117.837 87.3754 117.772 88.835C117.715 90.0741 115.46 89.4493 114.332 89.9116C112.767 90.5537 111.86 92.6445 111.891 94.6749C111.911 96.0639 112.61 98.0197 114.11 97.5661C114.063 96.6867 113.32 96.248 113.278 95.3554C113.242 94.5871 113.745 94.0585 114.055 93.4273C114.401 92.7232 114.618 92.1133 115.164 92.0663C115.684 92.0234 116.514 92.6914 117.05 93.0312C117.722 93.4571 118.286 93.7911 118.826 94.1078C120.723 95.2227 122.185 96.5472 124.761 95.9802C124.651 95.734 124.242 95.5438 124.262 95.0731C124.32 93.7056 125.909 94.5702 126.647 94.9018C128.185 95.5911 130.184 96.4429 131.419 96.9991C130.98 93.3932 132.085 90.4378 133.526 88.3814C132.426 88.1156 131.246 88.2848 130.032 87.9275ZM180.682 121.326C177.934 120.986 175.057 120.444 172.36 120.532C169.715 120.617 167.499 121.388 165.148 121.893C159.666 137.1 153.905 152.319 148.616 167.596C147.834 169.856 147.183 172.092 146.563 174.457C145.904 176.974 145.463 179.295 146.064 182.169C147.096 187.102 149.648 190.312 154.719 191.243C157.047 191.669 160.312 191.613 162.485 190.676C164.404 189.848 166.281 188.628 168.089 187.5C173.54 184.097 178.755 180.339 183.843 176.725C183.247 176.417 182.66 175.98 182.179 175.478C179.276 172.454 177.22 166.787 178.074 160.904C170.594 164.848 162.446 168.824 154.885 172.869C154.159 173.258 152.865 173.934 152.833 172.642C152.811 171.758 154.626 171.127 155.274 170.772C156.311 170.202 157.273 169.828 158.158 169.353C163.815 166.327 169.55 163.421 175.134 160.509C178.941 151.808 182.788 142.858 186.618 134.14C186.955 133.374 187.675 130.684 188.726 130.795C189.691 130.898 189.305 132.041 189.059 132.61C187.286 136.698 185.708 140.412 183.955 144.404C183.66 145.078 183.145 145.887 183.067 146.389C182.96 147.092 183.147 147.971 183.178 148.771C183.278 151.299 183.274 153.811 183.4 156.199C186.427 154.647 190.106 152.912 193.441 151.266C194.6 150.695 195.729 149.965 197.103 149.848C198.684 149.713 200.202 150.31 201.153 150.868C201.427 151.031 201.707 151.29 201.874 151.209C202.277 143.055 202.932 134.866 202.872 126.43C196.718 123.718 188.617 122.31 180.682 121.326ZM177.519 159.261C178.929 158.491 180.475 157.859 181.79 156.993C181.64 154.728 181.68 152.265 181.514 150.019C180.186 153.102 178.796 156.124 177.519 159.261ZM193.219 156.597C193.767 156.719 194.641 156.768 194.994 157.048C195.289 157.286 195.567 158.304 195.771 158.976C197.111 163.395 198.317 167.427 199.654 171.679C199.887 172.417 200.271 173.301 200.265 173.834C200.256 174.455 199.825 175.272 199.599 175.989C199.369 176.714 199.052 177.493 199.044 178.313C199.033 179.492 199.57 180.472 199.71 181.488C200.628 182.372 201.371 183.348 202.427 183.984C203.805 184.812 208.75 185.927 209.751 184.039C210.228 183.14 209.894 181.161 209.695 179.956C208.363 171.907 206.347 164.76 203.98 157.899C203.57 156.707 203.255 155.475 202.704 154.555C201.807 153.048 199.307 151.049 196.88 151.606C194.547 152.138 192.572 153.741 190.279 154.61C190.869 155.923 191.738 156.265 193.219 156.597ZM188.726 155.405C187.098 156.237 185.471 157.068 183.843 157.9C183.254 160.264 183.328 163.023 183.788 165.385C184.234 167.673 184.976 169.926 186.451 170.998C187.494 170.846 188.375 171.336 189.447 171.679C190.259 171.937 191.152 172.075 191.722 172.415C192.209 172.711 192.725 173.528 193.163 174.061C194.496 175.676 195.757 177.271 197.102 178.711C197.18 178.792 197.26 179.056 197.435 178.938C197.367 177.527 197.607 176.742 197.934 175.704C198.128 175.09 198.541 174.339 198.545 173.776C198.548 173.292 198.187 172.49 197.99 171.848C196.611 167.367 195.143 162.822 193.884 158.467C191.423 158.204 189.701 157.185 188.726 155.405ZM181.846 158.921C181.323 159.278 180.634 159.468 180.293 159.883C179.716 160.59 179.519 161.758 179.461 162.832C179.263 166.502 180.778 170.635 182.235 172.7C182.96 172.325 183.802 172.071 184.565 171.735C182.428 169.028 181.283 163.849 181.846 158.921ZM211.027 187.5C210.626 187.053 210.272 186.503 209.751 186.194C207.125 187.204 203.678 186.595 201.818 185.572C200.751 184.985 199.718 183.936 198.767 182.963C196.356 180.498 194.275 178.078 192.109 175.422C191.658 174.867 191.232 174.159 190.778 173.889C190.184 173.536 189.303 173.483 188.726 173.209C188.426 175.342 187.295 176.624 185.73 177.463C191.396 194.202 200.173 207.758 215.243 214.887C214.431 211.572 214.822 207.908 215.63 204.906C216.587 201.356 218.162 198.212 220.623 196.571C216.995 194.038 213.919 190.721 211.027 187.5ZM219.681 199.805C217.706 202.927 216.423 206.755 216.463 211.938C217.643 212.094 218.395 212.685 219.459 212.959C218.515 208.402 219.489 203.329 221.678 200.767C221.004 200.455 220.168 200.308 219.681 199.805ZM234.437 236.434C236.052 237.528 238.391 238.512 240.539 238.306C243.081 238.061 244.342 235.42 244.367 232.578C244.378 231.341 244.035 229.948 243.812 228.666C242.479 220.988 240.896 213.669 238.875 206.552C238.539 205.366 238.211 203.954 237.711 203.205C236.78 201.816 233.729 200.997 231.386 201.165C230.321 201.24 229.364 201.822 228.557 202.356C227.823 202.841 226.969 203.447 226.726 204.339C226.379 205.619 226.743 207.271 227.114 208.195C227.441 209.011 228.038 209.683 228.501 210.35C228.982 211.043 229.663 211.726 229.944 212.449C230.423 213.682 230.584 215.471 230.831 216.815C231.42 220.01 231.927 222.435 232.551 225.604C232.756 226.648 233.629 229.36 232.884 229.914C231.972 230.59 229.992 229.527 229.389 229.291C230.389 232.311 231.891 234.712 234.437 236.434ZM221.512 213.753C222.451 214.067 222.87 214.836 223.398 215.568C223.722 216.017 224.022 216.532 224.341 216.984C224.957 217.857 225.92 218.859 226.338 219.764C226.744 220.642 226.988 221.834 227.281 222.827C227.568 223.796 227.713 224.945 228.168 225.773C228.365 226.133 228.858 226.537 229.278 226.965C229.917 227.618 230.484 228.116 231.386 228.269C230.398 223.212 229.392 218.174 228.446 213.073C226.961 211.421 224.998 208.622 225.007 205.474C225.01 204.318 225.328 203.246 225.894 202.641C226.06 202.461 226.407 202.319 226.338 202.129C225.542 201.788 224.43 201.774 223.564 201.506C220.827 203.434 220.159 209.732 221.512 213.753Z" fill="#222222"/>
<path fill-rule="evenodd" clip-rule="evenodd" d="M179.073 42.3376C179.519 42.2522 180.071 42.4362 180.016 43.1873C179.959 43.9833 177.951 45.8624 177.021 45.7962C176.618 45.7686 176.259 45.4474 176.245 45.0023C176.221 44.3559 177.037 44.0904 177.466 43.7544C178.089 43.2667 178.411 42.4619 179.073 42.3376Z" fill="#222222"/>
<path fill-rule="evenodd" clip-rule="evenodd" d="M178.717 36.5366C178.267 36.44 177.826 36.7355 177.732 37.1958L177.461 38.5292C177.367 38.9891 177.656 39.4383 178.106 39.5346C178.556 39.6312 178.997 39.3357 179.091 38.8757L179.362 37.5423C179.455 37.082 179.167 36.6329 178.717 36.5366Z" fill="#222222"/>
<path fill-rule="evenodd" clip-rule="evenodd" d="M83.9536 198.405C85.2686 198.833 87.7087 197.472 90.112 195.399C92.5158 193.328 91.8854 191.102 92.0539 189.161C92.2224 187.222 95.1168 177.928 93.7185 175.266C92.3198 172.606 85.7229 165.065 81.2353 166.533C76.7477 168.001 75.9574 175.091 77.1852 177.252C78.412 179.414 82.1512 182.075 81.4571 184.398C80.7632 186.721 77.1977 187.892 77.4627 191.26C77.7264 194.628 82.6389 197.977 83.9536 198.405Z" fill="white"/>
<path fill-rule="evenodd" clip-rule="evenodd" d="M76.8057 176.329C76.8057 175.876 76.8057 175.422 76.8057 174.968C77.0307 172.807 77.4159 171.181 78.0816 169.582C78.6827 168.137 79.5418 166.588 80.9665 165.897C83.0656 164.879 85.3632 166.345 86.7354 167.258C88.0072 168.103 88.9798 168.861 90.1753 169.922C92.3107 171.818 94.7217 174.029 95.0009 177.35C95.1664 179.313 94.5634 181.125 94.1131 182.623C93.665 184.121 92.9336 185.839 92.7819 187.5C92.6385 189.077 93.1701 190.396 93.1146 191.923C93.034 194.19 91.6294 195.41 90.3418 196.46C89.9344 196.792 87.4891 198.863 87.2347 197.254C87.1299 196.591 87.7927 196.229 88.1225 196.007C89.3684 195.164 90.8213 194.166 91.2852 192.717C91.6975 191.425 91.1394 189.732 91.1186 188.294C91.0974 186.931 91.4242 185.923 91.7844 184.723C92.0963 183.682 92.397 182.634 92.7267 181.434C93.0271 180.342 93.4331 178.964 93.3921 177.804C93.2864 174.736 90.7866 172.722 89.0658 171.17C88.0931 170.295 87.2776 169.6 86.0141 168.733C85.1233 168.121 83.5146 167.021 82.075 167.314C80.6936 167.597 79.8077 169.627 79.3022 171.057C78.7118 172.722 78.1695 174.849 78.5254 176.67C78.8092 178.13 79.9187 179.217 80.7448 180.244C81.5004 181.184 82.5547 182.442 82.6856 183.816C82.8825 185.876 81.5718 187.073 80.6338 188.068C80.0195 188.72 79.1452 189.48 78.914 190.222C78.4147 191.825 79.1337 193.601 79.8005 194.474C80.8786 195.887 82.7252 196.386 84.2388 197.423C83.7541 196.259 83.3827 195.575 83.2955 194.419C82.9846 190.282 85.6384 187.389 86.5133 184.551C87.1269 182.563 87.0622 179.749 86.2362 178.031C85.8133 177.154 85.272 176.516 84.4054 175.594C83.9038 175.058 82.4176 174.106 82.5746 173.267C82.6344 172.955 82.8049 172.724 83.1848 172.645C84.0171 172.471 85.242 174.036 85.7369 174.573C86.45 175.343 87.2426 176.351 87.6791 177.237C88.6485 179.21 88.7915 182.565 88.1228 184.892C87.386 187.455 85.4442 189.634 85.0159 192.659C84.4936 196.355 86.8835 197.986 87.9566 200.543C88.7007 202.317 88.7142 204.6 87.8455 206.383C86.3894 209.37 83.961 210.813 83.0186 214.037C82.2838 216.556 82.0493 219.306 81.9092 222.372C81.8484 223.729 81.7235 224.615 80.9668 224.585C80.1064 224.549 80.1745 223.47 80.2455 222.203C80.4203 219.075 80.7762 215.922 81.4661 213.584C81.9947 211.788 82.7203 210.577 83.6844 209.332C84.6336 208.106 85.7141 207.014 86.403 205.533C87.4887 203.198 86.4116 200.583 85.238 199.068C84.8296 199.107 84.7301 199.383 84.1836 199.295C83.8572 199.242 83.1151 198.767 82.6304 198.501C80.0354 197.076 77.1391 195.394 77.1391 191.414C77.1391 189.124 78.193 188.264 79.358 187.046C80.0218 186.352 81.0141 185.274 81.0226 184.211C81.0289 183.331 80.4897 182.747 80.0242 182.114C78.7402 180.372 77.0875 178.711 76.8057 176.329Z" fill="#222222"/>
<path fill-rule="evenodd" clip-rule="evenodd" d="M68.7102 195.617C67.4322 195.593 59.7075 195.799 58.5019 192.612C57.2959 189.424 62.3769 183.746 60.6103 181.326C58.8442 178.904 56.6314 177.716 56.6156 174.236C56.6001 170.757 57.0931 167.194 59.168 166.524C61.2427 165.854 66.1522 167.106 67.1018 169.644C68.0524 172.182 67.0284 176.099 68.9326 178.491C70.8377 180.881 73.6746 181.949 73.6494 185.409C73.6233 188.87 71.853 192.858 71.1515 193.633C70.4501 194.406 69.9882 195.643 68.7102 195.617Z" fill="white"/>
<path fill-rule="evenodd" clip-rule="evenodd" d="M67.1103 194.376C65.8465 193.271 64.5057 191.994 64.3362 189.612C64.2318 188.138 64.51 186.595 64.7803 185.075C65.0201 183.727 65.5663 181.945 65.3353 180.654C65.1688 179.724 64.3659 179.073 63.7818 178.5C63.228 177.954 62.4482 177.213 62.1175 176.458C61.7207 175.553 61.0288 171.487 62.6167 171.581C63.7884 171.649 63.1778 174.555 63.5597 175.606C63.8455 176.394 64.7436 177.051 65.3905 177.761C66.0302 178.465 66.8341 179.383 66.9996 180.596C67.1962 182.041 66.7191 183.654 66.4445 185.133C66.0886 187.05 65.6218 189.366 66.3338 190.973C67.6191 193.877 71.9782 194.037 72.3245 198.06C72.5402 200.56 71.5374 202.437 70.8829 204.356C70.235 206.252 69.4978 208.264 69.2186 210.423C68.8241 213.464 68.799 218.178 68.8304 221.196C68.842 222.315 69.1288 224.237 68.0536 224.258C67.0822 224.277 67.1661 222.944 67.1661 221.536C67.1661 217.778 67.1212 214.067 67.4989 210.819C67.7473 208.687 68.3166 206.668 68.9418 204.866C69.5927 202.987 70.4878 201.286 70.6616 199.253C70.8073 197.537 70.2168 196.659 69.2738 195.85C68.7795 196.054 68.1451 196.071 67.5547 196.077C64.8549 196.105 61.2392 195.812 59.4547 194.716C58.5751 194.177 57.8413 193.304 57.7914 191.939C57.6857 189.116 59.8423 186.67 60.0653 183.659C60.329 180.113 56.9658 178.635 55.9051 176.118C54.6648 173.178 56.1127 168.737 57.5698 166.989C58.3446 166.058 59.3116 165.489 60.7311 165.515C62.2876 165.542 63.8707 166.242 65.0588 167.045C66.2166 167.828 67.3931 168.881 67.9991 169.993C69.1664 172.139 68.4263 175.442 69.4416 177.648C70.4444 179.829 72.828 181.258 73.9901 183.433C75.6325 186.505 73.655 190.36 72.27 192.733C71.9435 193.291 71.4869 194.353 70.7164 194.263C69.4708 194.119 70.2822 192.762 70.7719 191.939C71.0514 191.47 71.5057 190.663 71.7704 190.124C72.3912 188.861 73.243 186.98 72.9357 185.36C72.7156 184.203 71.8113 183.126 70.9939 182.242C69.366 180.481 67.7278 178.923 67.2775 175.891C67.0148 174.119 67.2484 172.116 66.5007 170.787C65.9199 169.756 64.9745 169.018 63.8376 168.292C62.8765 167.68 61.2677 166.867 59.954 167.271C58.2078 167.81 57.1257 171.318 57.1257 173.678C57.1257 176.741 59.7088 177.962 60.9528 180.201C61.4438 181.083 61.83 182.195 61.7296 183.659C61.6271 185.161 61.0096 186.683 60.5094 188.025C60.1156 189.082 59.092 190.984 59.5661 192.392C59.9074 193.404 61.5172 193.813 62.7284 194.036C64.1822 194.303 65.7064 194.296 67.1103 194.376Z" fill="#222222"/>
<path fill-rule="evenodd" clip-rule="evenodd" d="M76.9433 140.86C80.3138 140.962 84.5966 143.723 84.544 146.417C84.4918 149.109 82.1822 153.873 83.8779 157.305C85.5749 160.736 90.6457 165.358 89.3154 170.52C87.9859 175.679 83.4583 176.43 83.9337 179.989C84.4102 183.55 87.1361 186.064 86.4303 188.326C85.7249 190.588 83.113 196.544 79.2733 196.492C75.4336 196.441 71.1806 193.595 68.5103 190.708C65.8386 187.819 61.7197 182.235 65.7917 178.345C69.8626 174.452 74.5964 168.638 71.3399 164.506C68.0834 160.376 62.3142 152.956 66.9016 148.401C71.4883 143.845 73.5728 140.754 76.9433 140.86Z" fill="white"/>
<path fill-rule="evenodd" clip-rule="evenodd" d="M79.4214 197.307C80.0267 199.841 81.1653 202.353 80.9747 205.244C80.781 208.178 79.7188 210.32 78.6446 212.503C77.6187 214.589 76.797 216.779 76.4256 219.875C76.2581 221.27 76.1186 222.939 76.037 224.298C75.9732 225.381 76.3301 228.262 75.0395 228.21C74.047 228.172 74.2555 226.702 74.3183 225.319C74.4729 221.91 74.7996 218.253 75.5933 215.565C76.151 213.68 77.0398 212.047 77.8123 210.406C78.6288 208.67 79.4131 207.014 79.3659 204.621C79.3249 202.56 78.609 200.339 78.0899 198.497C76.9824 194.564 75.769 191.191 74.6509 187.213C74.1256 185.347 73.3498 183.149 73.4863 181.032C73.6829 177.959 75.7086 175.359 77.2034 173.32C78.3747 171.722 79.7544 169.766 79.7544 167.027C79.7544 166.338 79.61 165.691 79.3662 165.099C78.5801 163.194 77.1551 161.647 76.0928 159.881C75.5642 159.004 75.1654 157.981 74.8169 156.877C74.4356 155.664 74.043 154.193 74.2631 152.794C74.3979 151.934 74.7422 151.148 75.2061 150.299C75.4638 149.828 76.1242 148.439 77.0358 148.937C77.8179 149.365 77.1092 150.414 76.8138 150.923C75.9316 152.447 75.6079 153.827 76.2591 156.027C76.4924 156.815 76.8234 157.763 77.1469 158.407C78.4041 160.91 80.5636 162.654 81.197 165.325C81.7653 167.72 80.9059 170.598 80.0872 172.13C78.6258 174.865 75.4373 177.392 75.1495 180.974C75.0375 182.378 75.4542 183.703 75.7608 184.944C76.644 188.532 77.8856 192.156 78.8666 195.547C80.1489 194.931 81.4994 193.87 82.7503 192.77C83.8221 191.826 85.3893 190.36 85.4689 188.745C85.5465 187.144 84.6408 185.959 84.0266 184.831C83.2855 183.47 82.2123 182 82.4734 179.898C82.8606 176.778 86.2668 175.988 87.521 173.718C88.5744 171.811 88.8377 168.081 88.0213 165.778C87.5009 164.315 86.43 163.204 85.5802 162.036C83.8499 159.658 82.3967 156.919 83.0281 152.511C83.1589 151.597 83.3661 150.749 83.5273 149.902C83.6823 149.084 83.9546 147.966 83.8049 146.953C83.6301 145.772 82.9756 144.884 82.4179 144.176C81.6295 143.174 80.5022 142.104 79.0335 141.907C77.0078 141.633 75.1684 142.507 73.8745 143.21C71.0796 144.73 68.9924 146.964 67.605 149.902C66.8986 151.401 66.2265 153.69 66.551 155.515C66.7562 156.671 67.4332 157.608 68.0487 158.52C68.6709 159.442 69.3063 160.369 69.8799 161.186C71.0901 162.913 72.5912 165.002 72.7646 167.311C72.9939 170.358 71.6845 172.393 70.4346 174.285C69.1691 176.2 67.5016 177.876 66.6065 179.729C65.6414 181.728 65.6549 185.644 66.662 187.497C67.4606 188.965 69.5855 190.692 71.0449 191.862C71.6648 192.361 72.4204 192.937 73.3198 193.622C73.9479 194.099 75.4384 194.758 75.0954 195.719C74.6252 197.031 72.765 195.304 72.2657 194.925C71.3145 194.201 70.4822 193.515 69.7137 192.883C68.0963 191.554 66.1178 190.045 65.1639 188.233C64.0273 186.071 63.9454 182.023 64.9423 179.502C65.7095 177.559 67.267 175.903 68.4928 174.171C69.6747 172.502 71.1695 170.339 71.1559 167.933C71.142 165.46 69.5865 163.591 68.2711 161.753C66.9006 159.838 65.0718 157.86 64.8323 155.346C64.6228 153.157 65.2905 151.077 65.9959 149.504C67.9903 145.07 72.1712 140.909 77.4796 140.261C79.5397 140.011 81.4313 140.811 82.6948 141.962C83.9781 143.133 85.4395 145.087 85.5244 147.236C85.6417 150.212 84.2778 152.393 84.5259 155.687C84.8345 159.782 88.352 161.813 89.5735 165.211C90.7299 168.43 90.1355 172.81 88.575 175.021C87.9469 175.913 87.0393 176.643 86.135 177.403C85.3383 178.072 84.1952 179.117 84.0825 180.351C83.9692 181.576 84.9637 183.028 85.5247 184.036C86.3236 185.472 87.5254 187.467 86.9663 189.707C86.5014 191.578 85.038 192.935 83.7494 194.073C82.3548 195.309 81.0209 196.301 79.4214 197.307Z" fill="#222222"/>
<path d="M66.2209 212.531H89.5814C91.5725 212.531 93.1866 213.8 93.1866 215.366L89.6915 230.849C89.6915 232.416 88.4488 233.684 86.9174 233.684H68.9408C67.4081 233.684 66.1667 232.415 66.1667 230.849L62.6162 215.366C62.6159 213.8 64.2299 212.531 66.2209 212.531Z" fill="white"/>
<path d="M86.9159 234.536H68.9378C66.9491 234.536 65.332 232.882 65.332 230.849L61.8049 215.56C61.7814 213.334 63.7719 211.681 66.2185 211.681H89.5807C92.0271 211.681 94.0178 213.334 94.0178 215.366L90.5022 231.04C90.5237 232.882 88.9047 234.536 86.9159 234.536ZM66.2185 213.382C64.7152 213.382 63.4477 214.291 63.4477 215.366L66.9748 230.655C66.9986 231.944 67.8689 232.834 68.9378 232.834H86.9159C87.9868 232.834 88.8574 231.943 88.8574 230.849L92.373 215.176C92.3515 214.291 91.0841 213.382 89.5807 213.382H66.2185Z" fill="#222222"/>
<path d="M61.7023 208.136H94.768C95.3498 208.136 95.8229 208.645 95.8229 209.27L96.7378 215.792C96.7378 216.417 96.2406 216.927 95.628 216.927H60.8416C60.2283 216.927 59.7324 216.417 59.7324 215.792L60.647 209.27C60.6473 208.645 61.1191 208.136 61.7023 208.136Z" fill="white"/>
<path d="M95.6267 217.777H60.8399C59.7691 217.777 58.8984 216.886 58.8984 215.792L59.822 209.149C59.8121 208.175 60.6592 207.285 61.7006 207.285H94.766C95.8074 207.285 96.6545 208.174 96.6545 209.269L97.5606 215.671C97.5702 216.887 96.6975 217.777 95.6267 217.777ZM61.7006 208.986C61.5787 208.986 61.4786 209.116 61.4786 209.269L60.5552 215.913C60.5651 215.949 60.689 216.077 60.8403 216.077H95.627C95.7803 216.077 95.9042 215.949 95.9042 215.792L94.9982 209.39C94.9883 209.116 94.8882 208.986 94.7663 208.986L61.7006 208.986Z" fill="#222222"/>
</svg>
