<svg width="247" height="240" viewBox="0 0 247 240" fill="none" xmlns="http://www.w3.org/2000/svg">
<path fill-rule="evenodd" clip-rule="evenodd" d="M154.515 98.8141L153.149 102.131L151.038 104.4L149.436 105.82L153.383 109.076L157.821 101.17L154.515 98.8141Z" fill="white"/>
<path d="M39.7322 51.0663L32.9834 57.8953L34.705 59.6413L41.4538 52.8122L39.7322 51.0663Z" fill="#222222"/>
<path d="M34.6881 51.0942L32.9658 52.8395L39.7118 59.6714L41.4341 57.9261L34.6881 51.0942Z" fill="#222222"/>
<path fill-rule="evenodd" clip-rule="evenodd" d="M157.548 13.6543H151.768V7.79956H157.548V13.6543Z" fill="#222222"/>
<path fill-rule="evenodd" clip-rule="evenodd" d="M58.7152 13.6543H52.9346V7.79956H58.7152V13.6543Z" fill="#222222"/>
<path fill-rule="evenodd" clip-rule="evenodd" d="M157.539 84.6854H151.758V78.8285H157.539V84.6854Z" fill="#222222"/>
<path fill-rule="evenodd" clip-rule="evenodd" d="M58.7064 84.6854H52.9248V78.8285H58.7064V84.6854Z" fill="#222222"/>
<path d="M154.653 82.8564H55.8206C55.4007 82.8564 55.0596 82.5114 55.0596 82.0854V10.4002C55.0596 9.97388 55.4007 9.62921 55.8206 9.62921H154.653C155.073 9.62921 155.414 9.97388 155.414 10.4002V82.0854C155.414 82.5117 155.073 82.8564 154.653 82.8564ZM56.582 81.3144H153.892V11.1712H56.582V81.3144Z" fill="#222222"/>
<path d="M139.922 8.47682V48.9061C139.922 53.1615 136.517 56.6113 132.315 56.6113H68.7757C64.5754 56.6113 61.1699 53.1615 61.1699 48.9061V8.47682C61.1699 4.22142 64.5754 0.771606 68.7757 0.771606H132.315C136.517 0.771606 139.922 4.22142 139.922 8.47682Z" fill="white"/>
<path d="M132.315 57.3829H68.7748C64.1616 57.3829 60.4082 53.5797 60.4082 48.9055V8.47746C60.4082 3.80322 64.1616 0 68.7748 0H132.315C136.928 0 140.682 3.80322 140.682 8.47746V48.9055C140.682 53.5797 136.928 57.3829 132.315 57.3829ZM68.7748 1.54228C65.0002 1.54228 61.9303 4.65429 61.9303 8.47777V48.9058C61.9303 52.7293 65.0005 55.8413 68.7748 55.8413H132.315C136.089 55.8413 139.16 52.7293 139.16 48.9058V8.47777C139.16 4.65429 136.089 1.54228 132.315 1.54228H68.7748Z" fill="#B8BBFD"/>
<path d="M133.631 17.8447V42.7077C133.631 44.1256 132.496 45.2765 131.096 45.2765H111.978C110.578 45.2765 109.442 44.1256 109.442 42.7077V17.8447C109.442 16.4248 110.578 15.2755 111.978 15.2755H131.096C132.496 15.2755 133.631 16.4248 133.631 17.8447Z" fill="white"/>
<path d="M131.098 46.0475H111.98C110.163 46.0475 108.684 44.5482 108.684 42.7077V17.8443C108.684 16.0038 110.163 14.5045 111.98 14.5045H131.098C132.915 14.5045 134.394 16.0038 134.394 17.8443V42.7077C134.394 44.5482 132.915 46.0475 131.098 46.0475ZM111.98 16.0468C111.002 16.0468 110.206 16.853 110.206 17.8446V42.708C110.206 43.6996 111.002 44.5058 111.98 44.5058H131.098C132.076 44.5058 132.872 43.6996 132.872 42.708V17.8446C132.872 16.8533 132.076 16.0468 131.098 16.0468H111.98Z" fill="#B8BBFD"/>
<mask id="mask0_2367_3360" style="mask-type:luminance" maskUnits="userSpaceOnUse" x="61" y="0" width="79" height="57">
<path d="M139.922 8.47682V48.9061C139.922 53.1615 136.517 56.6113 132.315 56.6113H68.7757C64.5754 56.6113 61.1699 53.1615 61.1699 48.9061V8.47682C61.1699 4.22142 64.5754 0.771606 68.7757 0.771606H132.315C136.517 0.771606 139.922 4.22142 139.922 8.47682Z" fill="white"/>
</mask>
<g mask="url(#mask0_2367_3360)">
<path fill-rule="evenodd" clip-rule="evenodd" d="M145.954 10.5087H56.4014V-5.87903H145.955V10.5087H145.954Z" fill="#B8BBFD"/>
</g>
<path fill-rule="evenodd" clip-rule="evenodd" d="M84.4738 5.66869C84.4738 6.74695 83.6094 7.6217 82.5422 7.6217C81.4741 7.6217 80.6094 6.74695 80.6094 5.66869C80.6094 4.59073 81.4741 3.71783 82.5422 3.71783C83.6094 3.71783 84.4738 4.59073 84.4738 5.66869Z" fill="white"/>
<path fill-rule="evenodd" clip-rule="evenodd" d="M78.3703 5.66869C78.3703 6.74695 77.5059 7.6217 76.4387 7.6217C75.3722 7.6217 74.5068 6.74695 74.5068 5.66869C74.5068 4.59073 75.3722 3.71783 76.4387 3.71783C77.5059 3.71783 78.3703 4.59073 78.3703 5.66869Z" fill="white"/>
<path fill-rule="evenodd" clip-rule="evenodd" d="M71.9591 5.66869C71.9591 6.74695 71.0944 7.6217 70.0272 7.6217C68.9601 7.6217 68.0947 6.74695 68.0947 5.66869C68.0947 4.59073 68.9601 3.71783 70.0272 3.71783C71.0941 3.71783 71.9591 4.59073 71.9591 5.66869Z" fill="white"/>
<path d="M102.041 29.6173H68.7738C68.3539 29.6173 68.0127 29.2723 68.0127 28.8463C68.0127 28.4203 68.3539 28.0753 68.7738 28.0753H102.041C102.461 28.0753 102.802 28.42 102.802 28.8463C102.802 29.2726 102.461 29.6173 102.041 29.6173Z" fill="#B8BBFD"/>
<path d="M102.041 25.36H91.3128C90.8929 25.36 90.5518 25.0154 90.5518 24.589C90.5518 24.1627 90.8929 23.8181 91.3128 23.8181H102.041C102.461 23.8181 102.802 24.163 102.802 24.589C102.802 25.0151 102.461 25.36 102.041 25.36Z" fill="#B8BBFD"/>
<path d="M79.5032 25.36H68.7738C68.3539 25.36 68.0127 25.0154 68.0127 24.589C68.0127 24.1627 68.3539 23.8181 68.7738 23.8181H79.5032C79.9231 23.8181 80.2643 24.163 80.2643 24.589C80.2643 25.0151 79.9228 25.36 79.5032 25.36Z" fill="#B8BBFD"/>
<path d="M88.0384 25.3822H83.5267C83.1068 25.3822 82.7656 25.0375 82.7656 24.6112C82.7656 24.1849 83.1068 23.8402 83.5267 23.8402H88.0384C88.4583 23.8402 88.7995 24.1852 88.7995 24.6112C88.7995 25.0372 88.4583 25.3822 88.0384 25.3822Z" fill="#B8BBFD"/>
<path d="M102.041 21.2324H68.7738C68.3539 21.2324 68.0127 20.8877 68.0127 20.4614C68.0127 20.0351 68.3539 19.6904 68.7738 19.6904H102.041C102.461 19.6904 102.802 20.0351 102.802 20.4614C102.802 20.8877 102.461 21.2324 102.041 21.2324Z" fill="#B8BBFD"/>
<path d="M101.994 16.9789H94.9037C94.4837 16.9789 94.1426 16.6342 94.1426 16.2079C94.1426 15.7816 94.4837 15.4369 94.9037 15.4369H101.994C102.414 15.4369 102.755 15.7816 102.755 16.2079C102.755 16.6342 102.414 16.9789 101.994 16.9789Z" fill="#B8BBFD"/>
<path d="M88.0673 16.9789H68.7738C68.3539 16.9789 68.0127 16.6342 68.0127 16.2079C68.0127 15.7816 68.3539 15.4369 68.7738 15.4369H88.0673C88.4872 15.4369 88.8284 15.7816 88.8284 16.2079C88.8284 16.6342 88.4872 16.9789 88.0673 16.9789Z" fill="#B8BBFD"/>
<path d="M89.7679 98.4526H153.308C157.507 98.4526 160.913 101.902 160.913 106.158V146.587C160.913 150.843 157.507 154.292 153.308 154.292H89.7679C85.5663 154.292 82.1611 150.843 82.1611 146.587V106.158C82.1611 101.902 85.5666 98.4526 89.7679 98.4526Z" fill="white"/>
<path d="M153.309 155.063H89.7698C85.1557 155.063 81.4014 151.26 81.4014 146.587V106.157C81.4014 101.485 85.1557 97.6816 89.7698 97.6816H153.309C157.922 97.6816 161.676 101.485 161.676 106.157V146.587C161.676 151.26 157.922 155.063 153.309 155.063ZM89.7698 99.2239C85.9946 99.2239 82.9235 102.334 82.9235 106.157V146.587C82.9235 150.411 85.9946 153.521 89.7698 153.521H153.309C157.083 153.521 160.154 150.411 160.154 146.587V106.157C160.154 102.334 157.083 99.2239 153.309 99.2239H89.7698Z" fill="#222222"/>
<path d="M90.9889 112.959H110.106C111.506 112.959 112.641 114.108 112.641 115.526V140.389C112.641 141.808 111.506 142.957 110.106 142.957H90.9889C89.5883 142.957 88.4531 141.808 88.4531 140.389V115.526C88.4531 114.108 89.5883 112.959 90.9889 112.959Z" fill="white"/>
<path d="M110.106 143.729H90.9892C89.1715 143.729 87.6924 142.229 87.6924 140.389V115.526C87.6924 113.686 89.1718 112.188 90.9892 112.188H110.106C111.923 112.188 113.402 113.686 113.402 115.526V140.389C113.402 142.23 111.923 143.729 110.106 143.729ZM90.9892 113.73C90.0104 113.73 89.2145 114.536 89.2145 115.526V140.39C89.2145 141.381 90.0104 142.187 90.9892 142.187H110.106C111.084 142.187 111.88 141.381 111.88 140.39V115.526C111.88 114.536 111.084 113.73 110.106 113.73H90.9892Z" fill="#222222"/>
<mask id="mask1_2367_3360" style="mask-type:luminance" maskUnits="userSpaceOnUse" x="82" y="98" width="79" height="57">
<path d="M89.7679 98.4526H153.308C157.507 98.4526 160.913 101.902 160.913 106.158V146.587C160.913 150.843 157.507 154.292 153.308 154.292H89.7679C85.5663 154.292 82.1611 150.843 82.1611 146.587V106.158C82.1611 101.902 85.5666 98.4526 89.7679 98.4526Z" fill="white"/>
</mask>
<g mask="url(#mask1_2367_3360)">
<path fill-rule="evenodd" clip-rule="evenodd" d="M76.1279 91.8042H165.681V108.192H76.1279V91.8042Z" fill="#222222"/>
</g>
<path fill-rule="evenodd" clip-rule="evenodd" d="M139.539 101.028C140.607 101.028 141.472 101.903 141.472 102.981C141.472 104.059 140.607 104.932 139.539 104.932C138.472 104.932 137.607 104.059 137.607 102.981C137.607 101.903 138.472 101.028 139.539 101.028Z" fill="white"/>
<path fill-rule="evenodd" clip-rule="evenodd" d="M145.644 101.028C146.71 101.028 147.575 101.903 147.575 102.981C147.575 104.059 146.71 104.932 145.644 104.932C144.576 104.932 143.712 104.059 143.712 102.981C143.712 101.903 144.576 101.028 145.644 101.028Z" fill="white"/>
<path fill-rule="evenodd" clip-rule="evenodd" d="M152.054 101.028C153.122 101.028 153.986 101.903 153.986 102.981C153.986 104.059 153.122 104.932 152.054 104.932C150.987 104.932 150.122 104.059 150.122 102.981C150.122 101.903 150.987 101.028 152.054 101.028Z" fill="white"/>
<path d="M153.309 127.297H120.041C119.621 127.297 119.28 126.952 119.28 126.526C119.28 126.1 119.621 125.755 120.041 125.755H153.309C153.729 125.755 154.07 126.1 154.07 126.526C154.07 126.952 153.729 127.297 153.309 127.297Z" fill="#222222"/>
<path d="M130.771 123.042H120.041C119.621 123.042 119.28 122.697 119.28 122.271C119.28 121.844 119.621 121.5 120.041 121.5H130.771C131.191 121.5 131.532 121.844 131.532 122.271C131.532 122.697 131.191 123.042 130.771 123.042Z" fill="#222222"/>
<path d="M153.31 123.042H142.581C142.161 123.042 141.82 122.697 141.82 122.271C141.82 121.844 142.162 121.5 142.581 121.5H153.31C153.73 121.5 154.071 121.844 154.071 122.271C154.071 122.697 153.73 123.042 153.31 123.042Z" fill="#222222"/>
<path d="M138.556 123.064H134.045C133.625 123.064 133.284 122.719 133.284 122.293C133.284 121.867 133.625 121.522 134.045 121.522H138.556C138.976 121.522 139.317 121.867 139.317 122.293C139.317 122.719 138.976 123.064 138.556 123.064Z" fill="#222222"/>
<path d="M153.309 118.912H120.041C119.621 118.912 119.28 118.568 119.28 118.141C119.28 117.715 119.621 117.37 120.041 117.37H153.309C153.729 117.37 154.07 117.715 154.07 118.141C154.07 118.568 153.729 118.912 153.309 118.912Z" fill="#222222"/>
<path d="M127.18 114.659H120.089C119.669 114.659 119.328 114.314 119.328 113.888C119.328 113.461 119.669 113.117 120.089 113.117H127.18C127.6 113.117 127.941 113.461 127.941 113.888C127.94 114.314 127.599 114.659 127.18 114.659Z" fill="#222222"/>
<path d="M153.31 114.663H134.017C133.597 114.663 133.256 114.318 133.256 113.892C133.256 113.466 133.597 113.121 134.017 113.121H153.31C153.729 113.121 154.071 113.465 154.071 113.892C154.071 114.318 153.73 114.663 153.31 114.663Z" fill="#222222"/>
<path fill-rule="evenodd" clip-rule="evenodd" d="M48.3151 129.755H3.23433C1.8337 129.755 0.698242 130.905 0.698242 132.323V146.601C0.698242 148.019 1.8337 149.17 3.23433 149.17H8.5803C8.08409 150.64 7.13875 151.903 7.13875 151.903C7.13875 151.903 11.2536 150.977 13.0594 149.17H48.3151C49.7154 149.17 50.85 148.019 50.85 146.601V132.323C50.8503 130.905 49.7158 129.755 48.3151 129.755Z" fill="white"/>
<path d="M7.13913 152.611C6.90503 152.611 6.68169 152.49 6.55187 152.284C6.39344 152.036 6.40544 151.712 6.58202 151.476C6.58848 151.467 7.09145 150.787 7.53136 149.879H3.23471C1.45078 149.879 0 148.409 0 146.602V132.322C0 130.517 1.45078 129.047 3.23471 129.047H48.3158C50.0985 129.047 51.5493 130.517 51.5493 132.322V146.602C51.5493 148.409 50.0985 149.879 48.3158 149.879H13.3348C11.3296 151.667 7.45999 152.555 7.29079 152.594C7.24034 152.605 7.18928 152.611 7.13913 152.611ZM3.23471 130.463C2.222 130.463 1.39786 131.297 1.39786 132.321V146.602C1.39786 147.629 2.222 148.463 3.23471 148.463H8.58068C8.80647 148.463 9.01782 148.574 9.14856 148.759C9.28022 148.944 9.31406 149.184 9.24177 149.401C9.08088 149.873 8.87938 150.326 8.67481 150.726C9.94808 150.301 11.6293 149.606 12.57 148.666C12.7007 148.537 12.8764 148.463 13.0604 148.463H48.3158C49.3285 148.463 50.1517 147.629 50.1517 146.602V132.321C50.1517 131.296 49.3285 130.463 48.3158 130.463H3.23471Z" fill="#222222"/>
<path fill-rule="evenodd" clip-rule="evenodd" d="M67.2845 111.851V119.965C67.2845 121.385 66.149 122.534 64.7484 122.534H19.6679C18.2673 122.534 17.1318 121.385 17.1318 119.965V111.851C17.1318 110.431 18.2673 109.282 19.6679 109.282H64.7484C66.149 109.282 67.2845 110.431 67.2845 111.851Z" fill="#B8BBFD"/>
<path fill-rule="evenodd" clip-rule="evenodd" d="M53.968 117.553C53.968 117.553 52.8775 119.406 54.4193 121.911C55.7828 124.125 60.8451 125.257 60.8451 125.257C60.8451 125.257 59.6207 123.623 59.227 121.911C58.7341 119.767 59.0205 118.387 59.0205 118.387L53.968 117.553Z" fill="#B8BBFD"/>
<path fill-rule="evenodd" clip-rule="evenodd" d="M214.816 182.38C220.536 179.525 224.6 170.887 225.161 170.001C225.721 169.113 224.851 167.916 224.654 167.021C224.456 166.125 224.248 164.709 224.248 164.709L230.738 153.613C230.738 153.613 235.564 154.64 241.793 152.484C248.023 150.328 246.154 142.261 246.154 142.261L221.002 142.467L215.728 152.433C215.728 152.433 216.59 138.754 216.286 129.007C215.983 119.261 208.122 113.441 208.122 113.441L211.57 103.682C211.57 103.682 213.978 105.793 215.424 106.557C216.871 107.323 217.581 107.831 222.27 106.662C226.959 105.491 229.816 101.718 230.992 98.6985C232.167 95.679 227.847 90.5825 227.847 90.5825C227.847 90.5825 229.313 89.5775 231.549 86.9869C233.786 84.3959 233.933 80.5512 233.02 75.0673C232.108 69.5857 227.983 68.7505 224.095 66.8489C220.208 64.9491 220.038 62.6586 220.292 58.425C220.547 54.1911 221.713 51.9598 217.351 45.0683C212.988 38.1745 205.288 39.3101 200.211 40.189C195.135 41.0659 193.163 45.8897 193.163 45.8897L193.873 49.2803C193.873 49.2803 192.79 52.2206 192.554 53.4924C192.318 54.7661 192.199 56.1644 192.199 56.1644C192.199 56.1644 191.785 58.674 192.605 60.8897C193.424 63.1073 194.379 64.4343 194.379 64.4343C194.379 64.4343 193.712 65.2954 193.112 66.0791C192.511 66.8632 190.192 66.2293 185.81 68.9565C181.427 71.6811 182.615 75.6349 182.615 75.6349L172.523 75.9942L172.473 51.9526C172.473 51.9526 174.61 47.0851 174.907 45.5821C175.204 44.0794 176.119 43.5188 176.581 42.1915C177.043 40.8649 175.867 41.5657 175.11 41.6268C174.353 41.6882 172.726 43.4241 172.726 43.4241C172.726 43.4241 172.012 36.813 171.561 33.5112C171.108 30.2094 169.666 30.3596 167.504 30.7881C165.342 31.2166 163.751 34.5895 163.751 34.5895C163.751 34.5895 163.213 34.2653 162.585 34.6405C161.957 35.0158 162.123 39.1883 161.773 44.5553C161.423 49.9204 162.331 54.7779 162.331 54.7779C162.331 54.7779 159.975 76.3394 159.694 81.4381C159.414 86.5368 163.662 89.0764 165.222 89.6585C166.781 90.2413 172.981 90.5828 172.981 90.5828L166.185 95.9243L149.806 85.0338C149.806 85.0338 146.901 80.7547 145.039 78.1501C143.178 75.5457 143.717 72.3505 142.96 71.0613C142.204 69.7739 141.538 71.6711 140.881 72.2953C140.224 72.9192 140.113 75.7452 140.526 76.9182C140.94 78.0912 139.968 78.9226 139.968 78.9226C139.968 78.9226 132.403 79.0569 130.283 78.9226C128.162 78.7864 126.536 79.3966 125.82 79.898C125.104 80.3976 126.632 82.1593 126.632 82.1593C126.632 82.1593 125.53 82.7081 125.06 83.3915C124.588 84.0746 125.614 87.0386 127.189 89.5052C128.764 91.9696 136 91.6003 141.236 92.175C146.471 92.7496 149.7 98.9936 156.956 106.559C164.211 114.125 169.379 110.362 169.379 110.362L186.164 100.242L185.962 113.907C185.962 113.907 183.228 118.32 181.956 123.563C180.683 128.808 178.614 156.771 177.543 167.947C176.474 179.124 177.947 182.996 181.397 187.572C184.848 192.145 193.327 200.328 194.278 201.236C195.229 202.143 197.979 201.75 197.979 201.75L209.947 215.158L211.063 219.524C211.063 219.524 208.159 231.317 207.868 234.575C207.576 237.833 211.874 239.3 211.874 239.3C211.874 239.3 215.283 238.194 217.35 236.425C219.418 234.656 221.317 230.977 224.196 223.428C227.075 215.879 227.289 213.051 227.289 213.051L208.882 193.221C208.882 193.221 209.359 192.262 209.643 191.476C209.926 190.688 209.643 189.677 209.643 189.677L205.18 184.13C205.181 184.128 209.096 185.235 214.816 182.38Z" fill="white"/>
<path fill-rule="evenodd" clip-rule="evenodd" d="M229.337 144.986C229.337 144.986 225.962 148.183 223.251 149.044C220.541 149.907 218.535 148.12 218.535 148.12L217.471 150.176C217.471 150.176 219.054 151.024 222.389 152.642C225.723 154.257 227.663 158.856 227.663 158.856L230.909 153.258L239.123 152.434C239.123 152.434 240.21 151.244 240.949 149.2C241.688 147.154 240.999 145.296 240.999 145.296L229.337 144.986Z" fill="#222222"/>
<path fill-rule="evenodd" clip-rule="evenodd" d="M218.84 203.394C218.84 203.394 218.652 206.224 215.441 209.97C212.232 213.714 208.443 213.515 208.443 213.515L209.762 214.541L211.486 219.474L209.357 228.925C209.357 228.925 210.161 227.292 212.957 226.46C215.754 225.627 219.651 228.77 219.651 228.77L224.621 214.13C224.621 214.13 224.193 212.859 223.556 211.253C222.919 209.65 222.694 207.812 222.694 207.812L218.84 203.394Z" fill="#222222"/>
<path fill-rule="evenodd" clip-rule="evenodd" d="M215.318 182.583C211.023 185.96 205.074 184.382 205.074 184.382C205.074 184.382 209.402 189.1 209.841 191.266C210.28 193.43 205.555 196.969 203.045 198.458C200.536 199.945 197.344 201.915 195.591 201.641C193.84 201.368 185.063 192.472 180.429 186.539C175.795 180.607 176.417 179.439 179.009 147.087C181.702 113.476 185.855 113.9 185.855 113.9L207.153 113.438C207.153 113.438 213.754 119.921 215.622 124.842C217.489 129.765 215.419 156.282 215.419 156.282C215.419 156.282 219.66 159.9 221.708 161.726C223.754 163.553 225.298 166.971 225.257 169.226C225.215 171.483 219.611 179.207 215.318 182.583Z" fill="white"/>
<path fill-rule="evenodd" clip-rule="evenodd" d="M220.453 159.879C222.42 162.037 224.861 166.853 225.372 169.021C225.881 171.19 221.416 175.443 221.416 175.443C221.416 175.443 220.763 171.745 218.374 168.097C215.984 164.45 215.382 163.885 215.382 163.885L215.737 156.899C215.737 156.899 218.486 157.72 220.453 159.879Z" fill="#222222"/>
<path fill-rule="evenodd" clip-rule="evenodd" d="M195.098 201.386C196.576 202.079 196.99 201.641 202.805 198.817C208.621 195.993 209.819 191.491 209.804 190.288C209.789 189.086 205.037 184.536 205.037 184.536C205.037 184.536 204.668 187.224 198.85 191.574C193.032 195.924 188.1 194.449 188.1 194.449C188.1 194.449 193.62 200.691 195.098 201.386Z" fill="#222222"/>
<path fill-rule="evenodd" clip-rule="evenodd" d="M197.613 65.4047L194.367 63.9652C194.367 63.9652 193.327 65.4224 192.745 65.9182C192.163 66.4137 189.782 67.0043 185.848 68.7956C181.915 70.5844 182.349 75.5251 182.349 75.5251C182.349 75.5251 199.516 74.5534 199.894 74.1367C200.273 73.722 199.084 65.764 199.084 65.764L197.613 65.4047Z" fill="white"/>
<path fill-rule="evenodd" clip-rule="evenodd" d="M212.368 56.6708C211.746 54.6548 208.616 56.0546 208.616 56.0546L206.84 58.8802C206.84 58.8802 204.878 56.0113 202.682 52.5612C200.486 49.1139 198.981 45.4724 198.981 45.4724L194.518 48.5548C194.518 48.5548 193.04 46.6965 192.692 45.5238C192.345 44.3508 193.942 43.4109 197.408 41.0035C200.875 38.5964 208.964 39.819 214.65 42.595C220.334 45.3717 220.441 52.2374 219.771 59.3935C219.101 66.5518 224.137 66.8261 227.986 68.8975C231.836 70.969 232.97 73.3387 233.209 80.1987C233.448 87.0588 228.442 90.3702 228.442 90.3702C228.442 90.3702 229.601 92.4969 231.283 96.8944C232.963 101.292 226.296 105.828 220.379 107.22C214.463 108.612 211.252 103.522 211.252 103.522C211.252 103.522 213.136 98.0359 212.976 88.6226C212.815 79.2115 209.671 76.378 208.413 74.7544C207.155 73.1292 206.688 64.4804 206.688 64.4804C206.688 64.4804 208.769 61.465 209.021 61.3466C209.273 61.2263 212.99 58.6886 212.368 56.6708Z" fill="white"/>
<path fill-rule="evenodd" clip-rule="evenodd" d="M181.665 90.3883C181.665 90.3883 181.484 92.9097 182.02 95.2676C182.556 97.6254 185.874 99.4797 185.874 99.4797L185.569 113.658L207.933 114.224C207.933 114.224 210.719 106.367 211.837 100.97C212.956 95.5733 213.2 89.8588 212.649 83.4017C212.097 76.9424 208.77 75.1455 204.535 74.5135C200.3 73.8818 191.807 75.1829 191.807 75.1829C191.807 75.1829 194.95 80.7082 194.698 84.3257C194.445 87.9435 191.35 90.234 191.35 90.234L181.665 90.3883Z" fill="#B8BBFD"/>
<path d="M212.362 174.328C211.927 174.319 211.594 173.967 211.602 173.543C211.608 173.231 212.21 142.371 212.109 130.772C212.01 119.602 203.954 114.838 203.872 114.792C203.507 114.581 203.379 114.11 203.587 113.741C203.793 113.371 204.255 113.245 204.624 113.45C204.987 113.66 213.524 118.71 213.629 130.757C213.732 142.38 213.129 173.263 213.123 173.572C213.115 173.993 212.776 174.328 212.362 174.328Z" fill="#222222"/>
<path d="M212.882 171.343C212.728 171.343 212.573 171.295 212.438 171.198C212.098 170.948 212.02 170.468 212.265 170.122L219.415 160.052C219.659 159.706 220.137 159.632 220.477 159.876C220.817 160.126 220.895 160.606 220.65 160.953L213.5 171.022C213.352 171.232 213.119 171.343 212.882 171.343Z" fill="#222222"/>
<path d="M206.673 196.122C206.467 196.122 206.26 196.037 206.11 195.868C205.742 195.457 197.083 185.74 194.779 180.78C192.428 175.728 194.859 154.99 194.963 154.11C195.014 153.687 195.399 153.395 195.81 153.437C196.227 153.489 196.524 153.873 196.475 154.295C195.776 160.169 194.358 176.262 196.154 180.124C198.364 184.878 207.149 194.736 207.237 194.834C207.519 195.15 207.495 195.637 207.184 195.922C207.039 196.056 206.856 196.122 206.673 196.122Z" fill="#222222"/>
<path fill-rule="evenodd" clip-rule="evenodd" d="M162.598 89.3948C160.786 88.1289 159.083 85.475 158.847 82.7186C158.748 81.587 158.905 80.3608 158.998 79.1226C159.568 71.5162 160.442 64.2472 161.23 56.9334C161.293 56.341 161.461 55.7249 161.433 55.2391C161.39 54.5083 160.977 53.5665 160.824 52.8753C160.24 50.2354 160.513 47.6049 160.875 44.7593C161.087 43.0812 161.432 41.4223 161.534 39.4179C161.665 36.8192 161.352 34.0646 163.511 33.7685C163.577 33.1088 164.068 32.7121 164.424 32.2795C165.37 31.1265 167.099 29.1893 169.291 29.7104C171.746 30.2928 172.004 32.5697 172.334 35.3601C172.596 37.5933 172.852 40.0203 172.993 41.987C173.388 41.7561 173.682 41.1871 174.463 40.9602C175.603 40.6286 177.195 40.9228 177.454 41.8845C177.743 42.9546 176.549 43.8413 176.034 44.5543C174.903 46.1221 174.481 47.9408 173.905 50.0001C173.616 51.0369 173.194 52.3166 173.145 53.1835C173.042 55.0138 173.195 56.9135 173.195 58.7836C173.195 64.4096 173.29 70.1577 173.347 75.5269C176.118 75.3038 178.939 75.1302 181.714 74.9108C181.584 71.3582 183.226 69.6778 185.11 68.2857C187.114 66.8048 189.945 66.4493 192.209 65.4087C192.868 65.1064 193.211 64.3442 193.578 63.7658C192.839 62.7467 192.082 61.7417 191.6 60.3237C191.215 59.1885 191.283 57.2965 191.397 56.1634C191.518 54.9645 192.822 55.0004 193.73 54.4176C194.801 53.7286 195.946 51.9672 194.744 50.6677C194.008 50.3994 192.98 50.6106 192.868 49.7951C192.778 49.1413 193.324 48.8948 193.628 48.4071C193.19 48.1521 193.025 47.6011 192.766 47.072C192.541 46.612 192.091 45.98 192.107 45.4805C192.126 44.8918 193.004 44.0747 193.476 43.5274C194.073 42.8362 194.495 42.2793 195.048 41.782C197.377 39.6809 201.269 38.9009 205.24 38.751C211.686 38.506 216.081 41.393 218.574 45.3265C220.309 48.0633 221.269 51.6553 221.008 56.1637C220.886 58.2648 220.716 60.6796 221.059 62.4828C221.767 66.2109 225.531 67.0283 228.411 68.3889C230.077 69.1752 230.884 70.0992 231.91 71.5741C233.71 74.1648 234.664 78.298 233.987 82.4113C233.418 85.8767 231.763 87.9363 229.728 89.8083C229.465 90.0492 229.066 90.2091 228.917 90.5784C229.671 91.6885 230.28 92.7605 230.895 94.0182C231.491 95.2405 232.138 96.7036 232.062 98.2836C231.99 99.7683 231.17 101.052 230.388 102.031C229.549 103.082 228.651 103.85 227.549 104.652C225.543 106.111 222.92 107.422 219.588 107.529C217.809 107.584 216.101 107.469 214.822 106.911C213.565 106.362 212.718 105.448 211.678 104.703C210.783 107.768 209.919 110.864 208.94 113.846C210.869 115.627 212.724 117.222 214.113 119.547C215.458 121.798 216.192 124.791 216.597 128.022C217.02 131.412 216.698 135.018 216.698 138.653C216.697 142.247 216.492 145.877 216.445 149.39C217.417 147.374 218.268 145.478 219.233 143.379C219.498 142.803 219.845 141.684 220.298 141.479C220.645 141.323 221.575 141.434 222.072 141.428C222.703 141.42 223.356 141.424 223.644 141.428C229.289 141.499 233.57 141.377 242.86 141.377C243.899 141.377 246.223 141.12 246.764 141.633C247.234 142.078 246.874 144.039 246.764 144.87C246.327 148.175 245.262 150.466 243.368 152.06C242.003 153.209 240.346 153.711 238.196 153.91C236.113 154.103 233.764 154.062 231.402 154.116C229.093 157.751 226.881 161.487 224.658 165.209C225.339 166.619 226.355 169.005 225.47 170.758C225.066 171.554 224.404 172.403 223.847 173.222C222.172 175.691 220.401 178.123 218.472 180.26C217.13 181.747 215.68 183.021 213.757 183.803C211.786 184.604 209.426 185.031 206.659 184.934C207.21 185.647 207.803 186.455 208.484 187.296C209.111 188.07 209.982 188.807 210.31 189.659C210.779 190.882 210.254 192.284 209.599 193.202C214.914 198.804 220.309 204.461 225.673 210.101C226.308 210.771 227.716 211.815 227.853 212.67C227.928 213.142 227.638 214.108 227.447 214.878C227.251 215.67 227.065 216.42 226.889 217.088C225.71 221.551 224.078 225.368 222.377 229.005C221.265 231.382 220.044 233.858 218.422 235.989C217.265 237.508 215.565 238.446 213.555 239.277C212.924 239.537 212.09 240.051 211.526 239.996C211.216 239.966 210.766 239.601 210.462 239.38C209.452 238.645 208.464 237.879 207.876 236.862C206.968 235.294 207.383 232.793 207.672 230.905C208.186 227.566 209.027 224.193 209.904 221.146C210.046 220.65 210.312 220.141 210.31 219.809C210.307 219.318 209.879 218.358 209.702 217.756C209.498 217.068 209.369 216.213 209.093 215.65C208.835 215.121 208.128 214.511 207.623 213.954C204.51 210.52 201.562 207.205 198.497 203.785C198.108 203.35 197.299 202.276 196.874 202.191C196.435 202.106 195.936 202.315 195.505 202.295C193.615 202.207 192.89 200.959 191.854 199.983C191.242 199.406 190.657 198.783 190.08 198.237C186.461 194.817 182.695 191.39 179.888 187.142C177.968 184.239 176.541 180.928 176.186 176.613C176.007 174.425 176.181 172.17 176.338 169.832C176.486 167.648 176.705 165.432 176.896 163.258C177.646 154.739 178.359 145.697 179.28 137.113C180.21 128.436 180.986 120.095 184.907 114.256C184.866 110.137 185.148 105.905 185.161 101.672C181.364 104.002 178.272 106.075 174.362 108.35C172.634 109.353 170.485 110.591 168.632 111.379C166.401 112.327 163.643 112.159 161.483 111.122C159.404 110.125 158.077 108.853 156.564 107.321C152.905 103.615 149.727 99.624 146.221 95.7142C145.538 94.9519 144.76 93.945 144.041 93.5043C142.619 92.6355 139.855 92.6888 137.703 92.4261C135.367 92.1419 132.929 92.1241 130.908 91.7586C128.662 91.3516 127.225 90.7417 126.193 89.0355C125.698 88.2177 125.44 87.6116 125.078 86.4171C124.828 85.5938 124.367 84.1577 124.621 83.1805C124.743 82.7127 125.636 82.0193 125.636 81.8971C125.636 81.8398 125.132 81.3225 125.027 81.1271C124.891 80.8722 124.724 80.505 124.723 80.0469C124.72 78.9827 126.557 78.6882 127.612 78.5068C131.52 77.8334 136.151 78.4853 139.984 78.404C139.92 77.0082 139.222 75.2939 139.528 73.5761C139.759 72.2766 140.825 70.9833 141.607 70.4423C141.782 70.3217 142.178 70.1163 142.367 70.0826C144.332 69.7314 144.262 72.94 144.598 74.5512C145.235 77.6003 146.711 79.3913 148.249 81.5375C148.917 82.4696 149.788 83.8735 150.581 84.5669C151.137 85.0524 151.832 85.4653 152.457 85.9035C156.939 89.0414 161.279 92.179 165.741 95.2517C167.591 93.8378 169.695 92.4061 171.369 90.9885C167.875 91.01 164.751 90.9015 162.598 89.3948ZM168.48 31.1994C167.849 31.2468 167.48 31.5568 167.009 31.7641C167.906 34.351 168.269 37.7491 168.328 41.0113C168.09 41.2007 168.027 41.3628 167.669 41.3706C166.518 41.3921 166.716 38.397 166.604 37.3639C166.417 35.6399 166.169 34.1709 165.844 33.0493C165.674 32.9446 165.501 33.3534 165.337 33.5625C165.156 33.7938 164.951 34.0365 164.779 34.1787C165.397 35.322 165.581 36.9964 165.793 38.9551C165.911 40.043 166.428 42.332 165.337 42.3971C164.198 42.4663 164.365 40.0078 164.272 39.0579C164.131 37.6363 163.969 36.4237 163.663 35.308C163.247 35.614 163.154 36.1176 163.105 36.5935C162.93 38.3153 163.117 39.9502 162.902 41.5754C162.705 43.0725 162.415 44.5512 162.243 46.0956C162.057 47.7679 161.795 49.2553 161.99 50.9238C162.073 51.6347 162.275 52.3514 162.446 53.0801C162.598 53.7258 162.922 54.4783 162.953 55.1359C163.004 56.1705 162.678 57.3887 162.548 58.5262C161.767 65.3489 161.018 71.9718 160.519 79.0195C160.435 80.2102 160.266 81.4184 160.367 82.6151C160.564 84.9315 161.942 87.1965 163.663 88.2648C165.777 89.578 169.154 89.4456 172.688 89.4456C178.878 89.4456 185.411 89.4612 191.448 89.3427C192.317 88.2389 193.516 86.7636 193.933 84.9767C194.369 83.1066 194.233 80.6206 193.527 78.9677C192.997 77.7258 192.043 76.8726 191.549 75.7825C185.335 76.1558 178.436 76.695 171.978 77.1708C170.976 77.2437 169.8 77.3662 169.799 76.5036C169.797 75.5734 171.123 75.7055 171.826 75.6285C171.777 69.3335 171.674 61.7408 171.674 55.0328C171.674 54.0929 171.537 53.0741 171.674 52.2586C171.745 51.8379 172.003 51.3894 172.13 50.9238C172.497 49.5751 172.894 48.0957 173.297 46.8143C173.863 45.0115 174.847 43.6194 175.781 42.3971C174.66 42.1304 174.259 42.887 173.702 43.6293C173.386 44.05 173.037 44.8475 172.486 44.8634C171.452 44.8912 171.606 43.0073 171.522 42.0889C171.41 40.8707 171.266 39.6821 171.167 38.6986C170.933 36.3841 170.809 33.7994 170.204 32.2278C170.315 34.1135 170.543 36.4299 170.711 38.5961C170.767 39.3247 170.737 40.1047 170.052 40.1365C168.886 40.1917 169.079 37.1548 168.986 36.0291C168.847 34.3229 168.727 32.8498 168.53 31.353C168.534 31.2823 168.539 31.209 168.48 31.1994ZM193.73 45.6344C194.057 46.1418 194.265 46.7697 194.592 47.2771C194.738 47.3578 194.86 47.1487 194.947 47.0717C195.335 46.7301 195.748 46.4238 196.265 46.0963C196.919 45.6836 197.651 45.3577 198.192 45.018C198.519 44.8105 198.735 44.3012 199.156 44.2972C199.72 44.2935 200.09 45.1501 200.372 45.6855C202.455 49.6271 204.608 53.8841 206.862 57.3953C207.466 56.9727 207.59 56.0503 208.282 55.7009C208.617 55.5311 209.215 55.4482 209.702 55.2902C210.206 55.1244 210.734 54.9564 211.172 54.9823C212.38 55.0515 213.792 56.495 213.504 58.0628C213.056 60.5173 210.57 60.6298 209.042 62.1209C208.765 62.3914 208.537 62.8259 208.282 63.1497C208.046 63.4498 207.588 63.8091 207.522 64.1765C207.418 64.7415 207.716 66.0407 207.776 66.6409C207.938 68.3017 208.109 69.8636 208.333 71.5202C208.444 72.3436 208.472 73.2302 208.738 73.8326C209.125 74.7074 210.107 75.2424 210.614 75.9888C211.753 77.6673 212.314 79.6281 212.794 81.8457C213.703 86.0437 214.457 91.4563 213.656 96.2786C213.391 97.876 212.993 99.5978 212.592 101.209C212.457 101.75 212.17 102.388 212.186 102.801C212.208 103.381 213.226 103.942 213.656 104.292C214.356 104.86 214.879 105.37 215.685 105.626C218.885 106.649 222.679 105.766 225.115 104.394C226.246 103.757 227.401 102.953 228.411 101.928C229.356 100.972 230.419 99.744 230.541 98.3319C230.685 96.6616 229.745 95.056 229.171 93.9659C228.886 93.4246 228.545 92.8677 228.107 92.1687C227.789 91.6632 227.109 90.9246 227.144 90.3207C227.177 89.7223 228.334 88.9778 228.867 88.4702C230.84 86.5963 232.135 85.058 232.569 81.5372C233.149 76.8177 231.625 72.9276 229.323 70.7499C228.141 69.6323 226.075 69.0518 224.557 68.3369C222.902 67.5568 221.489 66.7217 220.501 65.2027C219.568 63.7692 219.298 61.5594 219.335 59.1423C219.368 56.9169 219.852 54.5198 219.487 52.2586C219.229 50.6649 218.666 49.0082 218.067 47.6361C216.335 43.6667 212.332 40.6258 207.165 40.2923C203.966 40.0829 201.136 40.638 198.85 41.3706C196.459 42.1372 195.071 43.7802 193.73 45.6344ZM195.049 49.1768C196.177 49.4772 196.916 50.9936 196.773 52.4131C196.564 54.4749 194.578 55.8056 193.122 56.4199C193.412 57.1744 193.714 58.2404 192.767 58.4739C193.024 60.2175 193.552 61.3191 194.491 62.4292C195.499 63.6237 197.017 64.5502 199.207 64.3822C199.718 64.3426 200.28 64.1709 200.779 64.0229C201.445 63.8237 202.958 63.0082 202.958 64.3311C202.958 65.0024 202.188 65.1703 201.792 65.3065C201.2 65.5097 200.712 65.6166 200.169 65.7683C200.467 68.3945 200.91 70.8748 200.981 73.7304C203.34 73.7204 205.675 73.7341 207.369 74.3979C206.644 71.9275 206.558 69.3939 206.254 66.4873C206.171 65.6973 205.876 64.5561 206.001 63.7661C206.08 63.2625 206.647 62.7311 206.964 62.3263C207.748 61.3272 208.485 60.5275 209.6 59.8622C210.462 59.3489 212.079 58.95 212.034 57.6527C211.991 56.385 210.458 56.4046 209.702 56.8827C210.416 57.0762 211.352 56.8509 211.375 57.6527C211.41 58.8198 209.275 58.1245 208.282 58.1146C207.74 58.5057 207.643 59.578 206.711 59.4515C206.123 59.3704 205.597 58.1915 205.241 57.601C204.018 55.5868 202.563 53.1168 201.59 51.3355C201.219 51.3022 201.032 51.0413 200.575 50.9762C199.535 50.8241 198.225 51.3966 198.243 50.2576C198.257 49.3335 199.426 49.4535 200.474 49.4342C200.493 49.2151 200.34 48.9484 200.22 48.7153C199.83 47.9592 199.325 47.1019 198.952 46.3023C197.472 47.0795 195.995 47.8595 195.049 49.1768ZM194.795 64.7412C194.317 65.3554 193.961 66.1351 193.274 66.5892C192.512 67.0947 191.388 67.3592 190.435 67.6693C188.415 68.3228 186.585 68.8838 185.161 70.2363C184.057 71.285 183.046 72.3984 183.235 74.8077C188.602 74.4247 194.006 74.0772 199.409 73.7294C199.498 71.0023 198.892 68.536 198.699 65.9217C197.035 65.8964 195.827 65.4087 194.795 64.7412ZM139.782 79.9441C135.318 79.9263 130.129 79.2884 126.345 80.3548C126.582 81.1723 127.684 81.0298 128.627 81.0753C130.529 81.1623 132.373 81.1779 134.458 81.1779C135.422 81.1779 136.624 81.0317 136.638 81.9479C136.657 83.125 133.684 82.7301 132.481 82.7183C131.733 82.7102 130.861 82.6787 130.047 82.6668C129.193 82.6531 128.323 82.4774 127.714 82.5643C127.391 82.6098 127.061 82.8862 126.751 83.0776C126.437 83.2711 125.989 83.4173 126.092 83.8991C128.627 84.1419 131.701 84.0234 134.509 84.1556C135.562 84.2051 136.761 83.9225 136.69 84.977C136.625 85.9051 135.54 85.6701 134.661 85.6461C131.957 85.5691 128.908 85.5891 126.396 85.5417C126.435 85.8992 126.577 86.1482 126.65 86.4679C129.224 86.6536 131.886 86.8313 134.661 86.9811C135.539 87.0285 136.593 87.0522 136.587 87.8541C136.58 88.966 135.058 88.5275 134.002 88.4702C131.82 88.3518 129.435 88.1938 127.461 88.0594C127.362 88.2766 127.646 88.5671 127.817 88.7784C129.256 90.5672 133.591 90.512 136.69 90.7825C138.16 90.9109 139.695 91.0888 141.1 91.1932C142.59 91.3039 144.068 91.6872 145.004 92.3229C145.676 92.7792 146.284 93.5688 146.931 94.2738C150.635 98.3138 154.036 102.603 157.883 106.499C158.528 107.152 159.151 107.895 159.81 108.401C161.281 109.526 163.348 110.713 166.047 110.505C168.007 110.355 169.686 109.103 171.269 108.298C176.28 105.745 180.301 102.684 185.212 99.925C182.551 98.1695 180.547 95.7466 180.851 90.9879C179.121 90.9879 177.43 90.9879 175.629 90.9879C175.097 90.9879 174.332 90.8576 173.905 90.9879C173.683 91.0552 173.242 91.5367 172.942 91.7579C171.284 92.9805 169.73 94.2065 168.126 95.405C167.481 95.8849 166.735 96.262 166.3 96.9454C165.343 96.9928 164.553 98.5588 163.613 98.4858C163.242 98.4581 162.963 98.1895 162.953 97.7672C162.932 96.8389 164.055 96.8292 164.424 96.1757C160.03 93.1899 155.709 90.0168 151.343 86.9304C150.72 86.4897 149.991 86.1344 149.466 85.6467C149.042 85.25 148.725 84.6598 148.352 84.1559C147.282 82.7183 146.14 81.1881 145.157 79.6359C144.459 78.5358 143.811 77.4719 143.433 76.1938C143.043 74.8828 142.917 73.3128 142.52 71.7275C141.918 72.2252 141.188 72.9694 140.999 73.7809C140.698 75.0723 141.399 76.5376 141.507 77.9415C141.635 79.6455 140.883 81.5431 141.202 83.1801C141.31 83.737 141.68 84.4083 141.962 84.9773C142.288 85.6346 143.328 87.2738 142.013 87.3408C141.322 87.3763 140.999 86.4364 140.644 85.7492C139.919 84.3438 139.297 82.2443 139.782 79.9441ZM193.274 75.6292C194.455 77.2384 195.606 79.3753 195.606 82.4104C195.606 83.9623 195.494 85.2815 195.048 86.4682C194.626 87.592 193.928 88.4113 193.476 89.3434C194.507 89.3808 195.455 89.292 196.57 89.292C197.532 89.292 198.96 89.0489 198.951 90.0639C198.944 91.1817 196.54 90.8339 195.301 90.8339C191.113 90.8339 186.279 90.9683 182.372 90.9879C182.096 94.0267 183.102 96.3668 184.755 97.7669C185.371 98.288 186.457 98.5074 186.682 99.155C186.98 100.008 186.716 101.615 186.682 102.698C186.573 106.183 186.482 109.803 186.377 113.228C193.393 113.195 200.809 113.296 207.572 113.177C209.056 108.239 210.852 102.842 212.033 96.689C212.903 92.1571 212.272 86.6595 211.374 82.5126C211.069 81.1027 210.829 79.5075 210.209 78.4548C209.98 78.0696 209.423 77.6333 208.991 77.274C208.552 76.9069 208.05 76.5155 207.623 76.2453C206.486 75.5307 205.023 75.3368 203.617 75.2698C199.945 75.0941 196.762 75.5129 193.274 75.6292ZM186.429 114.77C182.458 120.389 181.66 128.6 180.8 137.164C179.753 147.614 178.742 158.601 177.911 169.369C177.737 171.618 177.451 173.899 177.607 175.996C178.242 184.525 183.086 189.096 187.748 193.819C189.745 195.843 191.714 197.909 193.882 199.88C194.519 200.458 194.715 200.751 195.758 200.753C197.414 200.759 198.943 199.963 200.17 199.315C202.674 197.99 204.853 196.373 206.812 194.282C207.63 193.409 209.049 191.948 208.992 190.634C208.969 190.097 208.326 189.434 207.928 188.94C207.04 187.838 206.373 187.06 205.494 185.96C205.138 185.514 204.668 184.698 204.277 184.471C203.837 184.214 203.296 184.191 202.908 184.007C200.842 183.035 199.416 181.519 198.243 179.487C197.802 178.723 197.278 177.909 197.027 177.023C196.614 175.571 196.539 173.855 196.368 172.195C195.248 161.378 194.723 150.161 194.186 138.756C194.145 137.871 194.205 136.88 194.034 136.189C193.925 135.742 193.379 135.225 193.021 134.802C192.756 134.488 192.024 133.961 192.311 133.26C192.392 133.061 192.659 132.875 192.818 132.849C193.596 132.727 193.993 133.677 194.288 134.03C194.738 134.569 195.342 134.984 195.505 135.573C195.687 136.23 195.622 137.383 195.657 138.191C196.079 147.914 196.62 157.012 197.381 166.543C197.518 168.253 197.609 169.955 197.787 171.63C197.958 173.247 198.059 174.92 198.445 176.407C198.804 177.787 199.681 179.167 200.524 180.208C201.442 181.337 202.514 182.196 203.82 182.724C206.672 183.879 210.862 183.36 213.504 182.21C216.251 181.015 217.833 178.745 219.538 176.561C220.756 175.001 221.988 173.249 223.189 171.424C223.561 170.858 224.152 170.184 224.254 169.574C224.5 168.087 223.666 166.626 223.189 165.67C221.788 162.87 219.915 160.767 217.611 158.943C217.186 158.605 216.772 158.143 216.191 158.019C216.212 158.919 216.142 160.349 216.09 161.563C216.043 162.643 216.305 164.341 215.279 164.335C214.246 164.329 214.583 162.41 214.621 161.409C214.754 157.793 214.774 154.385 214.924 150.775C215.129 145.853 215.228 141.133 215.228 136.445C215.228 133.979 215.368 131.534 215.178 129.253C214.798 124.698 213.653 121.066 211.476 118.416C210.332 117.022 208.894 115.976 207.624 114.718C200.632 114.736 192.971 114.672 186.429 114.77ZM245.397 142.916C237.3 142.916 229.205 142.916 221.11 142.916C220.371 144.463 219.699 146.076 218.93 147.59C219.703 148.1 221.061 148.528 222.377 148.465C224.626 148.354 226.176 147.184 227.448 145.896C227.881 145.458 228.206 144.778 228.715 144.612C229.489 144.36 230.973 144.561 232.011 144.561C234.297 144.561 236.167 144.612 238.552 144.612C239.306 144.612 241.192 144.413 241.594 144.869C242.005 145.337 241.646 146.956 241.543 147.744C241.288 149.691 240.964 150.894 240.072 152.11C243.726 150.985 245.206 147.655 245.447 143.07C245.451 142.999 245.456 142.926 245.397 142.916ZM218.27 149.081C218.15 149.403 217.976 149.673 217.864 150.005C222.082 151.502 225.455 153.856 227.347 157.71C228.223 156.417 228.913 155.223 229.78 153.807C230.083 153.311 230.298 152.766 230.693 152.626C231.171 152.454 231.919 152.575 232.518 152.575C233.791 152.575 234.797 152.529 236.117 152.472C236.695 152.444 237.4 152.549 237.842 152.367C238.327 152.17 239.342 150.511 239.566 150.006C240.078 148.845 239.971 147.535 240.225 146.153C237.533 146.127 234.877 146.102 232.062 146.102C231.23 146.102 230.061 145.9 229.374 146.102C228.989 146.216 228.289 147.172 227.955 147.488C226.639 148.738 224.61 149.992 222.225 150.006C220.713 150.013 219.541 149.569 218.27 149.081ZM216.8 152.213C220.713 153.968 223.973 156.385 225.775 160.278C226.215 159.934 226.285 159.322 226.079 158.532C225.844 157.637 225.125 156.833 224.507 156.117C222.823 154.166 219.706 151.968 217.206 151.443C217.058 151.688 216.975 151.998 216.8 152.213ZM216.242 156.117C219.356 157.997 221.855 160.499 223.746 163.617C225.246 162.398 224.388 160.439 223.392 159.045C221.851 156.887 218.791 154.663 216.395 153.755C216.202 154.399 216.377 155.416 216.242 156.117ZM198.648 201.676C200.814 204.164 203.033 206.629 205.341 209.176C205.649 209.518 206.057 210.053 206.355 210.152C207.372 210.491 208.79 209.476 209.499 208.971C211.318 207.673 212.589 206.281 213.758 204.348C214.199 203.619 215.12 202.178 214.874 201.061C214.779 200.636 213.767 199.815 213.403 199.418C211.855 197.729 210.183 196.057 208.688 194.487C205.953 197.502 202.776 200.071 198.648 201.676ZM216.293 202.397C215.669 204.461 214.486 206.214 213.149 207.687C211.661 209.326 210.006 210.89 207.623 211.591C207.933 211.921 208.258 212.691 208.738 212.824C209.677 213.08 211.01 212.192 211.729 211.694C213.362 210.565 214.704 209.188 215.786 207.585C216.339 206.765 216.902 205.778 217.155 204.862C217.251 204.512 217.317 203.833 217.256 203.578C217.131 203.051 216.382 202.778 216.293 202.397ZM210.057 214.261C209.838 214.285 210.193 214.504 210.26 214.569C210.642 215.294 210.86 216.358 211.172 217.446C211.406 218.26 211.827 219.093 211.831 219.808C211.835 220.339 211.555 221.04 211.375 221.658C210.866 223.404 210.3 225.264 209.904 227.051C210.914 226.356 211.866 225.842 213.656 225.973C214.692 226.047 215.705 226.385 216.546 226.743C217.429 227.118 218.045 227.789 218.727 228.077C220.289 223.411 221.913 218.806 223.493 214.158C222.573 212.886 222.067 211.482 221.668 209.638C221.544 209.069 221.556 208.376 221.364 207.841C221.207 207.405 220.484 206.848 220.096 206.453C219.534 205.884 219.144 205.43 218.727 204.964C217.067 209.308 214.307 212.541 210.057 214.261ZM223.341 209.792C223.29 210.444 223.698 211.403 224.051 212.104C224.357 212.713 225.031 213.522 225.064 214.055C225.097 214.57 224.62 215.593 224.405 216.214C222.93 220.477 221.652 224.245 220.146 228.539C219.894 229.26 219.685 230.192 219.082 230.236C218.699 230.263 218.092 229.677 217.713 229.363C216.506 228.362 214.503 227.045 212.237 227.564C211.699 227.688 211.164 228.014 210.665 228.385C210.28 228.673 209.647 229.07 209.448 229.516C209.2 230.067 209.17 231.122 209.042 232.032C208.861 233.33 208.649 234.838 209.042 235.834C209.537 237.085 210.833 237.69 211.729 238.351C213.501 237.654 215.397 237.018 216.699 235.731C217.995 234.447 218.892 232.467 219.791 230.749C222.519 225.54 225.028 219.487 226.332 213.08C225.446 211.872 224.269 210.957 223.341 209.792Z" fill="#222222"/>
<path fill-rule="evenodd" clip-rule="evenodd" d="M198.952 58.0628C197.906 57.7549 198.162 58.6907 197.178 59.1429C196.629 59.3938 195.63 59.2436 195.353 59.7076C195.093 60.1401 195.361 60.6656 195.555 60.7858C196.202 61.1885 197.554 60.6575 198.039 60.3751C198.41 60.1598 200.403 58.4913 198.952 58.0628Z" fill="#222222"/>
<path fill-rule="evenodd" clip-rule="evenodd" d="M195.329 53.0473V54.2795C195.329 54.8461 194.875 55.3064 194.315 55.3064C193.755 55.3064 193.301 54.8461 193.301 54.2795V53.0473C193.301 52.4783 193.755 52.0186 194.315 52.0186C194.875 52.0183 195.329 52.4783 195.329 53.0473Z" fill="#222222"/>
<path fill-rule="evenodd" clip-rule="evenodd" d="M201.467 53.8171V55.0493C201.467 55.6183 201.013 56.078 200.452 56.078C199.893 56.078 199.438 55.618 199.438 55.0493V53.8171C199.438 53.2483 199.893 52.7902 200.452 52.7902C201.013 52.7902 201.467 53.2487 201.467 53.8171Z" fill="#222222"/>
<path d="M170.238 136.83V156.439C170.238 157.859 169.104 159.008 167.703 159.008H134.842C133.442 159.008 132.307 157.858 132.307 156.439V136.83C132.307 135.413 133.442 134.261 134.842 134.261H167.703C169.104 134.261 170.238 135.412 170.238 136.83Z" fill="white"/>
<path d="M167.704 159.779H134.842C133.025 159.779 131.546 158.28 131.546 156.439V136.831C131.546 134.99 133.025 133.491 134.842 133.491H167.704C169.521 133.491 171 134.99 171 136.831V156.439C171 158.28 169.521 159.779 167.704 159.779ZM134.842 135.033C133.864 135.033 133.068 135.839 133.068 136.831V156.439C133.068 157.431 133.864 158.237 134.842 158.237H167.704C168.682 158.237 169.478 157.431 169.478 156.439V136.831C169.478 135.839 168.682 135.033 167.704 135.033H134.842Z" fill="#222222"/>
<path fill-rule="evenodd" clip-rule="evenodd" d="M133.065 159.219L151.264 140.786L169.462 159.219H133.065Z" fill="#222222"/>
<mask id="mask2_2367_3360" style="mask-type:luminance" maskUnits="userSpaceOnUse" x="132" y="134" width="39" height="26">
<path d="M170.238 136.83V156.439C170.238 157.859 169.104 159.008 167.703 159.008H134.842C133.442 159.008 132.307 157.858 132.307 156.439V136.83C132.307 135.413 133.442 134.261 134.842 134.261H167.703C169.104 134.261 170.238 135.412 170.238 136.83Z" fill="white"/>
</mask>
<g mask="url(#mask2_2367_3360)">
<path d="M171.531 134.269L151.281 152.918L131.015 134.255L151.265 115.607L171.531 134.269Z" fill="white"/>
<path d="M151.282 153.689C151.099 153.689 150.915 153.622 150.771 153.489L130.504 134.825C130.344 134.679 130.254 134.471 130.254 134.255C130.254 134.038 130.344 133.83 130.504 133.684L150.754 115.035C151.043 114.768 151.488 114.768 151.777 115.035L172.042 133.698C172.202 133.845 172.292 134.052 172.292 134.269C172.292 134.486 172.202 134.694 172.042 134.84L151.793 153.489C151.649 153.622 151.465 153.689 151.282 153.689ZM132.146 134.255L151.282 151.877L170.401 134.27L151.265 116.648L132.146 134.255Z" fill="#222222"/>
</g>
<path d="M167.704 159.779H134.842C133.025 159.779 131.546 158.28 131.546 156.439V136.831C131.546 134.99 133.025 133.491 134.842 133.491H167.704C169.521 133.491 171 134.99 171 136.831V156.439C171 158.28 169.521 159.779 167.704 159.779ZM134.842 135.033C133.864 135.033 133.068 135.839 133.068 136.831V156.439C133.068 157.431 133.864 158.237 134.842 158.237H167.704C168.682 158.237 169.478 157.431 169.478 156.439V136.831C169.478 135.839 168.682 135.033 167.704 135.033H134.842Z" fill="#222222"/>
<path fill-rule="evenodd" clip-rule="evenodd" d="M212.272 14.4957C213.101 14.4957 213.773 15.1788 213.773 16.0221C213.773 16.8651 213.101 17.5485 212.272 17.5485C211.444 17.5485 210.771 16.8651 210.771 16.0221C210.771 15.1788 211.444 14.4957 212.272 14.4957Z" fill="#222222"/>
<path fill-rule="evenodd" clip-rule="evenodd" d="M207.132 14.4957C207.96 14.4957 208.633 15.1788 208.633 16.0221C208.633 16.8651 207.96 17.5485 207.132 17.5485C206.302 17.5485 205.631 16.8651 205.631 16.0221C205.631 15.1788 206.302 14.4957 207.132 14.4957Z" fill="#222222"/>
<path fill-rule="evenodd" clip-rule="evenodd" d="M201.989 14.4957C202.818 14.4957 203.489 15.1788 203.489 16.0221C203.489 16.8651 202.818 17.5485 201.989 17.5485C201.16 17.5485 200.488 16.8651 200.488 16.0221C200.489 15.1788 201.16 14.4957 201.989 14.4957Z" fill="#222222"/>
<path fill-rule="evenodd" clip-rule="evenodd" d="M201.989 14.4957C202.818 14.4957 203.489 15.1788 203.489 16.0221C203.489 16.8651 202.818 17.5485 201.989 17.5485C201.16 17.5485 200.488 16.8651 200.488 16.0221C200.489 15.1788 201.16 14.4957 201.989 14.4957Z" fill="#222222"/>
<path fill-rule="evenodd" clip-rule="evenodd" d="M196.846 14.4957C197.675 14.4957 198.347 15.1788 198.347 16.0221C198.347 16.8651 197.675 17.5485 196.846 17.5485C196.017 17.5485 195.346 16.8651 195.346 16.0221C195.346 15.1788 196.017 14.4957 196.846 14.4957Z" fill="#222222"/>
<path fill-rule="evenodd" clip-rule="evenodd" d="M191.705 14.4957C192.534 14.4957 193.206 15.1788 193.206 16.0221C193.206 16.8651 192.534 17.5485 191.705 17.5485C190.876 17.5485 190.204 16.8651 190.204 16.0221C190.204 15.1788 190.876 14.4957 191.705 14.4957Z" fill="#222222"/>
<path fill-rule="evenodd" clip-rule="evenodd" d="M186.562 14.4957C187.391 14.4957 188.063 15.1788 188.063 16.0221C188.063 16.8651 187.391 17.5485 186.562 17.5485C185.734 17.5485 185.062 16.8651 185.062 16.0221C185.062 15.1788 185.734 14.4957 186.562 14.4957Z" fill="#222222"/>
<path fill-rule="evenodd" clip-rule="evenodd" d="M212.272 14.4957C213.101 14.4957 213.773 15.1788 213.773 16.0221C213.773 16.8651 213.101 17.5485 212.272 17.5485C211.444 17.5485 210.771 16.8651 210.771 16.0221C210.771 15.1788 211.444 14.4957 212.272 14.4957Z" fill="#222222"/>
<path fill-rule="evenodd" clip-rule="evenodd" d="M207.132 14.4957C207.96 14.4957 208.633 15.1788 208.633 16.0221C208.633 16.8651 207.96 17.5485 207.132 17.5485C206.302 17.5485 205.631 16.8651 205.631 16.0221C205.631 15.1788 206.302 14.4957 207.132 14.4957Z" fill="#222222"/>
<path fill-rule="evenodd" clip-rule="evenodd" d="M201.989 14.4957C202.818 14.4957 203.489 15.1788 203.489 16.0221C203.489 16.8651 202.818 17.5485 201.989 17.5485C201.16 17.5485 200.488 16.8651 200.488 16.0221C200.489 15.1788 201.16 14.4957 201.989 14.4957Z" fill="#222222"/>
<path fill-rule="evenodd" clip-rule="evenodd" d="M201.989 14.4957C202.818 14.4957 203.489 15.1788 203.489 16.0221C203.489 16.8651 202.818 17.5485 201.989 17.5485C201.16 17.5485 200.488 16.8651 200.488 16.0221C200.489 15.1788 201.16 14.4957 201.989 14.4957Z" fill="#222222"/>
<path fill-rule="evenodd" clip-rule="evenodd" d="M196.846 14.4957C197.675 14.4957 198.347 15.1788 198.347 16.0221C198.347 16.8651 197.675 17.5485 196.846 17.5485C196.017 17.5485 195.346 16.8651 195.346 16.0221C195.346 15.1788 196.017 14.4957 196.846 14.4957Z" fill="#222222"/>
<path fill-rule="evenodd" clip-rule="evenodd" d="M191.705 14.4957C192.534 14.4957 193.206 15.1788 193.206 16.0221C193.206 16.8651 192.534 17.5485 191.705 17.5485C190.876 17.5485 190.204 16.8651 190.204 16.0221C190.204 15.1788 190.876 14.4957 191.705 14.4957Z" fill="#222222"/>
<path fill-rule="evenodd" clip-rule="evenodd" d="M186.562 14.4957C187.391 14.4957 188.063 15.1788 188.063 16.0221C188.063 16.8651 187.391 17.5485 186.562 17.5485C185.734 17.5485 185.062 16.8651 185.062 16.0221C185.062 15.1788 185.734 14.4957 186.562 14.4957Z" fill="#222222"/>
<path fill-rule="evenodd" clip-rule="evenodd" d="M212.272 19.7285C213.101 19.7285 213.773 20.4116 213.773 21.2527C213.773 22.096 213.101 22.7791 212.272 22.7791C211.444 22.7791 210.771 22.096 210.771 21.2527C210.771 20.4119 211.444 19.7285 212.272 19.7285Z" fill="#222222"/>
<path fill-rule="evenodd" clip-rule="evenodd" d="M207.132 19.7285C207.96 19.7285 208.633 20.4116 208.633 21.2527C208.633 22.096 207.96 22.7791 207.132 22.7791C206.302 22.7791 205.631 22.096 205.631 21.2527C205.631 20.4119 206.302 19.7285 207.132 19.7285Z" fill="#222222"/>
<path fill-rule="evenodd" clip-rule="evenodd" d="M201.989 19.7285C202.818 19.7285 203.489 20.4116 203.489 21.2527C203.489 22.096 202.818 22.7791 201.989 22.7791C201.16 22.7791 200.488 22.096 200.488 21.2527C200.489 20.4119 201.16 19.7285 201.989 19.7285Z" fill="#222222"/>
<path fill-rule="evenodd" clip-rule="evenodd" d="M201.989 19.7285C202.818 19.7285 203.489 20.4116 203.489 21.2527C203.489 22.096 202.818 22.7791 201.989 22.7791C201.16 22.7791 200.488 22.096 200.488 21.2527C200.489 20.4119 201.16 19.7285 201.989 19.7285Z" fill="#222222"/>
<path fill-rule="evenodd" clip-rule="evenodd" d="M196.846 19.7285C197.675 19.7285 198.347 20.4116 198.347 21.2527C198.347 22.096 197.675 22.7791 196.846 22.7791C196.017 22.7791 195.346 22.096 195.346 21.2527C195.346 20.4119 196.017 19.7285 196.846 19.7285Z" fill="#222222"/>
<path fill-rule="evenodd" clip-rule="evenodd" d="M191.705 19.7285C192.534 19.7285 193.206 20.4116 193.206 21.2527C193.206 22.096 192.534 22.7791 191.705 22.7791C190.876 22.7791 190.204 22.096 190.204 21.2527C190.204 20.4119 190.876 19.7285 191.705 19.7285Z" fill="#222222"/>
<path fill-rule="evenodd" clip-rule="evenodd" d="M186.562 19.7285C187.391 19.7285 188.063 20.4116 188.063 21.2527C188.063 22.096 187.391 22.7791 186.562 22.7791C185.734 22.7791 185.062 22.096 185.062 21.2527C185.062 20.4119 185.734 19.7285 186.562 19.7285Z" fill="#222222"/>
</svg>
