<svg width="247" height="240" viewBox="0 0 247 240" fill="none" xmlns="http://www.w3.org/2000/svg">
<path d="M217.946 2.35272H2.34082V148.91H217.946V2.35272Z" fill="white"/>
<path d="M217.946 149.696H2.34095C1.90976 149.696 1.56055 149.344 1.56055 148.91V2.35309C1.56055 1.91866 1.9101 1.56647 2.34095 1.56647H217.946C218.377 1.56647 218.727 1.91866 218.727 2.35309V148.91C218.727 149.344 218.377 149.696 217.946 149.696ZM3.12169 148.123H217.165V3.13936H3.12169V148.123Z" fill="#222222"/>
<path fill-rule="evenodd" clip-rule="evenodd" d="M0 146.492H4.73456V151.262H0V146.492Z" fill="#222222"/>
<path fill-rule="evenodd" clip-rule="evenodd" d="M0 6.10352e-05H4.73456V4.77026H0V6.10352e-05Z" fill="#222222"/>
<path fill-rule="evenodd" clip-rule="evenodd" d="M215.554 146.492H220.288V151.262H215.554V146.492Z" fill="#BA9BC9"/>
<path fill-rule="evenodd" clip-rule="evenodd" d="M215.554 0H220.288V4.7702H215.554V0Z" fill="#222222"/>
<path fill-rule="evenodd" clip-rule="evenodd" d="M29.5782 84.7231C29.5782 84.7231 23.9088 70.7083 37.9031 66.9548C46.1908 64.7294 47.4681 73.4135 42.8974 74.0302C38.3272 74.6465 34.5488 66.2064 36.7579 61.2396C38.9677 56.2725 43.9319 56.9427 50.5456 55.1589C56.321 53.6018 55.2277 46.1956 55.2277 46.1956L29.5782 84.7231Z" fill="white"/>
<path d="M29.5775 85.5094C29.2703 85.5094 28.9783 85.3248 28.8543 85.019C28.7436 84.746 26.172 78.2462 28.918 72.6881C30.2041 70.0832 32.4349 68.1417 35.5636 66.8988C35.1697 64.8751 35.2371 62.7361 36.0459 60.9178C37.8509 56.8595 41.2784 56.2234 45.6177 55.4177C47.1144 55.1406 48.6614 54.8536 50.3444 54.3997C55.3886 53.0387 54.4649 46.3779 54.4557 46.3107C54.3924 45.8814 54.6864 45.4817 55.1125 45.4176C55.5427 45.3507 55.9353 45.649 55.9989 46.0793C56.4128 48.8811 55.8479 54.5427 50.7472 55.9176C49.0048 56.3886 47.3556 56.694 45.9005 56.9639C41.7092 57.7424 38.9406 58.257 37.4702 61.5608C36.8395 62.9784 36.763 64.7045 37.0563 66.3791C37.2677 66.3149 37.4834 66.2532 37.7029 66.1945C41.8948 65.0669 44.0765 66.6057 45.0019 67.6244C46.1996 68.9417 46.6074 70.8087 46.0404 72.3819C45.555 73.7296 44.4471 74.6145 43.0008 74.8094C41.1253 75.0691 39.259 74.0869 37.7581 72.0605C37.0279 71.0752 36.3934 69.8136 35.9562 68.4356C33.2912 69.5368 31.3984 71.1971 30.3149 73.3897C27.8805 78.3186 30.2756 84.3658 30.301 84.4266C30.4632 84.8282 30.2718 85.2869 29.8718 85.4514C29.776 85.4913 29.6761 85.5094 29.5775 85.5094ZM37.4269 67.9097C37.8055 69.1212 38.3593 70.2429 39.0093 71.1193C39.6739 72.0175 41.063 73.4917 42.7931 73.2505C43.6565 73.1338 44.2889 72.6355 44.5731 71.8451C44.9389 70.8323 44.6476 69.5628 43.8509 68.6861C43.165 67.9312 41.503 66.7985 38.105 67.7152C37.874 67.7759 37.6484 67.8407 37.4269 67.9097Z" fill="#222222"/>
<path d="M65.4383 60.6866C65.3939 60.6747 60.0527 59.2304 60.0527 59.2304C60.0849 59.1991 63.995 55.2598 63.995 55.2598C64.0069 55.3032 65.4383 60.6866 65.4383 60.6866ZM60.1533 59.2038L65.3638 60.6115L63.969 55.3608L60.1533 59.2038Z" fill="#BA9BC9"/>
<path d="M65.4006 61.4356C65.3332 61.4356 65.2658 61.4264 65.1981 61.4083L59.9002 59.9764C59.6313 59.9044 59.4209 59.6924 59.3491 59.4201C59.2766 59.1495 59.3532 58.8601 59.5507 58.6611L63.4293 54.754C63.6267 54.5561 63.9116 54.4779 64.1836 54.5513C64.4525 54.6233 64.6632 54.8352 64.7347 55.1075L66.1539 60.4463C66.2264 60.7173 66.1498 61.0063 65.9527 61.2053C65.8047 61.3544 65.6052 61.4356 65.4006 61.4356ZM61.6107 58.8103L64.2967 59.5368L63.5776 56.8292L61.6107 58.8103Z" fill="#222222"/>
<path d="M195.02 84.1911C194.806 84.1911 194.592 84.1028 194.438 83.9294C194.151 83.6066 194.178 83.1104 194.497 82.8203C194.653 82.6783 198.312 79.2633 197.112 72.6448C196.443 68.9581 195.356 66.1311 193.863 64.1957C193.687 64.6087 193.485 65.0237 193.254 65.441C190.89 69.7143 187.091 72.3233 183.089 72.4209C180.521 72.4899 178.289 71.4572 177.185 69.67C176.442 68.4674 176.352 67.0194 176.922 65.4799C177.779 63.1621 180.055 61.021 182.456 60.2729C186.46 59.0208 189.818 59.1972 192.429 60.7937C192.667 60.9387 192.899 61.095 193.126 61.2636C193.837 57.2063 191.809 53.6687 189.253 51.4495C183.844 46.7499 175.967 47.3042 175.621 47.3335C175.29 47.3762 174.944 47.2079 174.796 46.8789C174.619 46.4831 174.793 46.0172 175.186 45.8388C175.598 45.6521 184.364 45.1235 190.273 50.2581C193.249 52.8439 195.776 57.3626 194.458 62.4591C196.453 64.6012 197.833 67.8708 198.647 72.3632C200.011 79.8857 195.72 83.8294 195.537 83.9939C195.388 84.1263 195.204 84.1911 195.02 84.1911ZM187.359 61.0104C186.025 61.0104 184.55 61.265 182.918 61.7745C180.98 62.3782 179.074 64.1671 178.384 66.0283C178.109 66.7713 177.908 67.8623 178.511 68.8383C179.308 70.1269 181.065 70.9197 183.053 70.8487C186.495 70.7644 189.799 68.4568 191.891 64.6756C192.218 64.0859 192.48 63.5013 192.686 62.9262C192.347 62.6266 191.992 62.3642 191.621 62.1376C190.39 61.3858 188.978 61.0104 187.359 61.0104Z" fill="#222222"/>
<path d="M57.224 208.311L66.5109 235.358H47.9375L57.224 208.311Z" fill="#222222"/>
<path fill-rule="evenodd" clip-rule="evenodd" d="M39.2948 26.8095C42.541 26.8095 45.1732 29.4605 45.1732 32.7322C45.1732 36.0039 42.541 38.6572 39.2948 38.6572C36.0475 38.6572 33.415 36.0039 33.415 32.7322C33.415 29.4608 36.0475 26.8095 39.2948 26.8095Z" fill="#222222"/>
<path fill-rule="evenodd" clip-rule="evenodd" d="M154.688 35.537C156.584 35.537 158.122 37.0874 158.122 38.9971C158.122 40.9085 156.584 42.4568 154.688 42.4568C152.792 42.4568 151.254 40.9085 151.254 38.9971C151.254 37.0874 152.792 35.537 154.688 35.537Z" fill="#222222"/>
<path d="M162.781 27.6579C162.323 27.6428 161.986 27.2784 162 26.845C162.001 26.8003 162.116 22.3546 159.333 19.0109C158.676 18.2202 157.733 17.6977 156.601 17.4776C156.705 18.9774 156.407 20.6517 155.705 22.4877C154.494 25.6611 152.484 26.2812 151.395 26.3682C149.692 26.5126 147.933 25.5523 147.038 23.9988C146.256 22.6399 146.297 21.137 147.152 19.8746C148.662 17.6441 151.648 16.0306 154.638 15.8115C154.489 15.4443 154.3 15.0962 154.07 14.7693C151.183 10.6523 142.951 10.8164 142.874 10.8308C142.44 10.8236 142.085 10.4987 142.073 10.0656C142.062 9.63121 142.401 9.27016 142.832 9.25787C143.213 9.26094 151.982 9.06608 155.345 13.8619C155.774 14.4727 156.095 15.1338 156.307 15.8419C158.05 16.0429 159.517 16.7858 160.53 18.0004C163.708 21.8192 163.567 26.6958 163.559 26.9023C163.545 27.3251 163.198 27.6579 162.781 27.6579ZM155.019 17.365C152.335 17.4987 149.727 18.8628 148.441 20.7616C147.753 21.7772 148.113 22.731 148.388 23.2091C148.978 24.2353 150.167 24.9018 151.271 24.8004C152.521 24.7011 153.578 23.6794 154.249 21.9236C154.902 20.2145 155.158 18.6901 155.019 17.365Z" fill="#222222"/>
<path fill-rule="evenodd" clip-rule="evenodd" d="M29.9377 171.883C29.9377 171.883 36.6267 170.179 37.1944 161.886C37.8135 152.839 29.9377 136.88 26.5801 136.671C23.7105 136.493 16.6476 151.422 18.7239 161.78C20.2874 169.578 26.6305 172.203 26.6305 172.203L29.9377 171.883Z" fill="white"/>
<path d="M26.6295 172.99C26.5306 172.99 26.4311 172.971 26.3342 172.931C26.0591 172.817 19.587 170.052 17.9595 161.936C16.2564 153.442 20.556 141.525 24.1478 137.371C25.0521 136.323 25.8742 135.852 26.6285 135.886C27.4594 135.938 28.3709 136.547 29.4155 137.746C33.2287 142.126 38.5015 154.215 37.9738 161.94C37.3736 170.701 30.202 172.627 30.1298 172.645C29.7047 172.751 29.2898 172.497 29.1841 172.078C29.0774 171.658 29.3281 171.23 29.745 171.121C29.996 171.056 35.8961 169.427 36.417 161.833C36.9105 154.606 31.799 142.868 28.2425 138.784C27.1728 137.555 26.6302 137.461 26.5323 137.455C26.4409 137.443 26.0138 137.607 25.3248 138.404C22.3235 141.877 17.827 153.332 19.4901 161.626C20.9476 168.893 26.6854 171.375 26.9293 171.477C27.3273 171.644 27.5166 172.103 27.3513 172.504C27.2267 172.806 26.9354 172.99 26.6295 172.99Z" fill="#222222"/>
<path d="M31.15 224.081C30.754 224.081 30.4146 223.778 30.3743 223.373C30.3431 223.055 27.2439 191.44 27.0928 171.405C27.0132 160.932 26.1861 149.739 26.0716 149.079C25.9456 148.663 26.1864 148.253 26.5993 148.128C27.0085 148.004 27.4546 148.266 27.5792 148.682C27.7455 149.231 28.5774 161.307 28.654 171.393C28.804 191.356 31.8961 222.901 31.9276 223.217C31.97 223.649 31.6577 224.035 31.2285 224.077C31.2025 224.08 31.1764 224.081 31.15 224.081Z" fill="#222222"/>
<path fill-rule="evenodd" clip-rule="evenodd" d="M38.514 202.477C38.514 202.477 45.3828 201.804 47.1804 193.691C49.1422 184.843 48.6775 168.415 45.9075 165.885C44.2183 164.341 26.7115 175.884 26.2417 190.314C25.9819 198.263 35.196 202.293 35.196 202.293L38.514 202.477Z" fill="white"/>
<path d="M38.5133 203.264C38.1174 203.264 37.7794 202.961 37.7387 202.555C37.6964 202.124 38.0087 201.74 38.4368 201.695C38.6946 201.668 44.7731 200.95 46.4189 193.519C48.3981 184.592 47.7897 168.664 45.3849 166.467C44.9286 166.396 42.6633 167.316 39.2751 169.962C36.4851 172.138 27.3578 180.04 27.0221 190.339C26.7833 197.652 35.4212 201.534 35.5079 201.573C35.9029 201.747 36.0841 202.209 35.9117 202.607C35.7393 203.005 35.284 203.188 34.8854 203.015C34.4894 202.841 25.188 198.675 25.463 190.287C25.8647 177.924 38.3806 167.656 43.5324 165.458C44.9608 164.85 45.8814 164.8 46.4332 165.302C49.7319 168.315 49.7831 185.56 47.9418 193.862C46.0443 202.433 38.6644 203.252 38.5899 203.26C38.5638 203.263 38.5388 203.264 38.5133 203.264Z" fill="#222222"/>
<path d="M32.9252 232.194C32.5062 232.194 32.1597 231.859 32.1458 231.434C32.1417 231.324 31.8084 220.18 34.6499 200.314C35.9634 191.139 38.3365 183.106 41.9018 175.759C42.0911 175.37 42.5606 175.208 42.9454 175.398C43.3329 175.589 43.4934 176.06 43.3037 176.449C39.8106 183.647 37.4849 191.527 36.1948 200.54C33.3757 220.249 33.7018 231.272 33.7049 231.381C33.7198 231.816 33.3824 232.179 32.9513 232.193C32.9424 232.194 32.9333 232.194 32.9252 232.194Z" fill="#222222"/>
<path fill-rule="evenodd" clip-rule="evenodd" d="M24.37 202.855C24.37 202.855 35.2279 198.581 28.1647 183.048C21.5469 168.495 10.0011 161.406 8.77427 161.876C7.54642 162.347 1.27851 188.138 6.59057 197.248C12.5184 207.418 21.2501 204.01 21.2501 204.01L24.37 202.855Z" fill="white"/>
<path d="M17.8055 205.32C14.5041 205.32 9.64316 204.037 5.91764 197.645C1.29655 189.719 5.08372 169.458 7.30332 163.096C7.81004 161.642 8.1142 161.288 8.49695 161.141C10.6078 160.317 22.3423 168.355 28.8737 182.72C31.5116 188.52 32.0342 193.492 30.4267 197.496C28.6278 201.979 24.8156 203.524 24.6543 203.588C24.2506 203.743 23.8031 203.546 23.645 203.143C23.4878 202.74 23.6842 202.284 24.0843 202.123C24.1175 202.11 27.4572 200.734 28.9916 196.878C30.4169 193.294 29.9 188.751 27.4555 183.375C21.2377 169.703 11.1084 163.249 9.13407 162.681C7.57192 165.626 2.48747 188.658 7.26267 196.849C12.7922 206.333 20.8871 203.31 20.9681 203.276C21.3688 203.123 21.822 203.321 21.9781 203.726C22.1333 204.13 21.9338 204.586 21.532 204.744C21.4951 204.758 19.9912 205.32 17.8055 205.32Z" fill="#222222"/>
<path d="M28.4604 231.386C28.0986 231.386 27.7735 231.13 27.6969 230.759C27.6597 230.576 23.8976 212.346 21.6214 203.174C19.35 194.017 14.5165 179.902 14.4681 179.76C14.3268 179.35 14.5426 178.902 14.9504 178.76C15.3603 178.62 15.8016 178.836 15.9425 179.246C15.992 179.389 20.8478 193.569 23.1361 202.793C25.4198 211.995 29.1876 230.256 29.2259 230.439C29.3136 230.864 29.0426 231.281 28.6206 231.369C28.5661 231.38 28.5126 231.386 28.4604 231.386Z" fill="#222222"/>
<path fill-rule="evenodd" clip-rule="evenodd" d="M19.9784 219.819H42.7147C43.5774 219.819 44.2758 220.522 44.2758 221.391L41.7263 237.642C41.7263 238.509 41.1671 239.214 40.4761 239.214H22.2698C21.5785 239.214 21.0193 238.509 21.0193 237.642L18.418 221.391C18.418 220.522 19.1167 219.819 19.9784 219.819Z" fill="white"/>
<path d="M40.4762 240H22.2696C21.1495 240 20.238 238.942 20.238 237.642L17.6475 221.516C17.6374 220.091 18.6881 219.033 19.9782 219.033H42.7138C44.005 219.033 45.0557 220.091 45.0557 221.391L42.4963 237.765C42.5068 238.942 41.5964 240 40.4762 240ZM19.9786 220.605C19.5484 220.605 19.1988 220.958 19.1988 221.391L21.7893 237.517C21.7995 238.091 22.0471 238.427 22.2696 238.427H40.4762C40.6978 238.427 40.9453 238.091 40.9453 237.641L43.5047 221.267C43.4949 220.957 43.1443 220.605 42.7141 220.605L19.9786 220.605Z" fill="#222222"/>
<path fill-rule="evenodd" clip-rule="evenodd" d="M18.1185 215.966H44.392C45.1676 215.966 45.7966 216.669 45.7966 217.538L47.4096 221.889C47.4096 222.758 46.7111 223.461 45.8494 223.461H16.6617C15.799 223.461 15.1006 222.758 15.1006 221.889L16.7132 217.538C16.7125 216.668 17.3415 215.966 18.1185 215.966Z" fill="white"/>
<path d="M45.8493 224.247H16.6612C15.37 224.247 14.3193 223.189 14.3193 221.889C14.3193 221.795 14.3366 221.702 14.3684 221.614L15.9377 217.383C16.0112 216.155 16.961 215.18 18.1184 215.18H44.3914C45.5488 215.18 46.4986 216.155 46.5721 217.383L48.1403 221.614C48.1725 221.702 48.1898 221.795 48.1898 221.889C48.1901 223.189 47.1398 224.247 45.8493 224.247ZM15.8896 222.008C15.9462 222.384 16.2703 222.674 16.6612 222.674H45.8493C46.2388 222.674 46.5633 222.384 46.6199 222.007L45.0658 217.812C45.0337 217.724 45.0164 217.632 45.0164 217.537C45.0164 217.104 44.7363 216.752 44.3918 216.752H18.1187C17.7742 216.752 17.4941 217.104 17.4941 217.537C17.4941 217.632 17.4772 217.724 17.445 217.812L15.8896 222.008Z" fill="#222222"/>
<path fill-rule="evenodd" clip-rule="evenodd" d="M176.605 89.5537H238.415C242.725 89.5537 246.219 93.0739 246.219 97.4161V223.039C246.219 227.381 242.725 230.901 238.415 230.901H176.605C172.294 230.901 168.8 227.381 168.8 223.039V97.4161C168.8 93.0742 172.294 89.5537 176.605 89.5537Z" fill="#222222"/>
<path d="M238.415 231.688H176.605C171.871 231.688 168.02 227.809 168.02 223.039V97.4163C168.02 92.6474 171.871 88.7679 176.605 88.7679H238.415C243.148 88.7679 247 92.6474 247 97.4163V223.039C247 227.809 243.148 231.688 238.415 231.688ZM176.605 90.3412C172.731 90.3412 169.581 93.5153 169.581 97.4163V223.039C169.581 226.941 172.731 230.115 176.605 230.115H238.415C242.288 230.115 245.439 226.941 245.439 223.039V97.4163C245.439 93.5153 242.288 90.3412 238.415 90.3412H176.605Z" fill="#222222"/>
<path fill-rule="evenodd" clip-rule="evenodd" d="M180.146 93.9088H234.456C238.767 93.9088 242.261 97.4293 242.261 101.773V213.289C242.261 217.631 238.767 221.151 234.456 221.151H180.146C175.835 221.151 172.341 217.631 172.341 213.289V101.773C172.341 97.4293 175.835 93.9088 180.146 93.9088Z" fill="white"/>
<path d="M234.456 221.938H180.145C175.411 221.938 171.56 218.058 171.56 213.289V101.774C171.56 97.0029 175.411 93.1227 180.145 93.1227H234.456C239.19 93.1227 243.042 97.0032 243.042 101.774V213.289C243.042 218.058 239.19 221.938 234.456 221.938ZM180.145 94.6952C176.271 94.6952 173.121 97.8704 173.121 101.773V213.288C173.121 217.19 176.271 220.364 180.145 220.364H234.456C238.33 220.364 241.48 217.19 241.48 213.288V101.774C241.48 97.8707 238.33 94.6956 234.456 94.6956H180.145V94.6952Z" fill="#222222"/>
<path d="M181.006 100.152H190.32C192.618 100.152 194.481 102.031 194.481 104.347V113.73C194.481 116.046 192.618 117.923 190.32 117.923H181.006C178.707 117.923 176.845 116.046 176.845 113.73V104.347C176.845 102.031 178.707 100.152 181.006 100.152Z" fill="#B8BBFD"/>
<path d="M190.32 118.698H181.006C178.286 118.698 176.074 116.469 176.074 113.73V104.347C176.074 101.606 178.286 99.3766 181.006 99.3766H190.32C193.039 99.3766 195.251 101.606 195.251 104.347V113.73C195.251 116.469 193.039 118.698 190.32 118.698ZM181.006 100.927C179.136 100.927 177.614 102.462 177.614 104.347V113.73C177.614 115.615 179.136 117.147 181.006 117.147H190.32C192.19 117.147 193.712 115.615 193.712 113.73V104.347C193.712 102.462 192.19 100.927 190.32 100.927H181.006Z" fill="#B8BBFD"/>
<path d="M201.973 100.152H211.287C213.586 100.152 215.449 102.031 215.449 104.347V113.73C215.449 116.046 213.586 117.923 211.287 117.923H201.973C199.675 117.923 197.811 116.046 197.811 113.73V104.347C197.811 102.031 199.675 100.152 201.973 100.152Z" fill="white"/>
<path d="M211.286 118.698H201.972C199.253 118.698 197.041 116.469 197.041 113.73V104.347C197.041 101.607 199.253 99.3767 201.972 99.3767H211.286C214.006 99.3767 216.217 101.606 216.217 104.347V113.73C216.218 116.469 214.006 118.698 211.286 118.698ZM201.972 100.927C200.102 100.927 198.58 102.462 198.58 104.347V113.73C198.58 115.615 200.102 117.147 201.972 117.147H211.286C213.156 117.147 214.679 115.615 214.679 113.73V104.347C214.679 102.462 213.157 100.927 211.286 100.927H201.972Z" fill="#222222"/>
<path d="M231.682 117.948H222.368C220.059 117.948 218.18 116.056 218.18 113.73V104.347C218.18 102.019 220.058 100.125 222.368 100.125H231.682C233.991 100.125 235.871 102.019 235.871 104.347V113.73C235.871 116.056 233.991 117.948 231.682 117.948ZM222.368 100.178C220.087 100.178 218.232 102.049 218.232 104.347V113.73C218.232 116.027 220.087 117.896 222.368 117.896H231.682C233.963 117.896 235.818 116.028 235.818 113.73V104.347C235.818 102.049 233.963 100.178 231.682 100.178H222.368Z" fill="#DDCEE5"/>
<path d="M181.006 121.227H190.32C192.618 121.227 194.481 123.104 194.481 125.42V134.802C194.481 137.118 192.618 138.997 190.32 138.997H181.006C178.707 138.997 176.845 137.118 176.845 134.802V125.42C176.845 123.104 178.707 121.227 181.006 121.227Z" fill="white"/>
<path d="M190.32 139.773H181.006C178.286 139.773 176.074 137.543 176.074 134.802V125.42C176.074 122.68 178.286 120.451 181.006 120.451H190.32C193.039 120.451 195.251 122.68 195.251 125.42V134.802C195.251 137.543 193.039 139.773 190.32 139.773ZM181.006 122.002C179.136 122.002 177.614 123.535 177.614 125.42V134.802C177.614 136.688 179.136 138.223 181.006 138.223H190.32C192.19 138.223 193.712 136.688 193.712 134.802V125.42C193.712 123.535 192.19 122.002 190.32 122.002H181.006Z" fill="#222222"/>
<path d="M201.973 121.227H211.287C213.586 121.227 215.449 123.104 215.449 125.42V134.802C215.449 137.118 213.586 138.997 211.287 138.997H201.973C199.675 138.997 197.811 137.118 197.811 134.802V125.42C197.811 123.104 199.675 121.227 201.973 121.227Z" fill="white"/>
<path d="M211.286 139.773H201.972C199.253 139.773 197.041 137.543 197.041 134.802V125.42C197.041 122.68 199.253 120.451 201.972 120.451H211.286C214.006 120.451 216.217 122.68 216.217 125.42V134.802C216.218 137.543 214.006 139.773 211.286 139.773ZM201.972 122.002C200.102 122.002 198.58 123.535 198.58 125.42V134.802C198.58 136.688 200.102 138.223 201.972 138.223H211.286C213.156 138.223 214.679 136.688 214.679 134.802V125.42C214.679 123.535 213.157 122.002 211.286 122.002H201.972Z" fill="#222222"/>
<path d="M222.368 121.227H231.682C233.981 121.227 235.845 123.104 235.845 125.42V134.802C235.845 137.118 233.981 138.997 231.682 138.997H222.368C220.07 138.997 218.207 137.118 218.207 134.802V125.42C218.207 123.104 220.07 121.227 222.368 121.227Z" fill="white"/>
<path d="M231.682 139.773H222.368C219.648 139.773 217.437 137.543 217.437 134.802V125.42C217.437 122.68 219.648 120.451 222.368 120.451H231.682C234.401 120.451 236.614 122.68 236.614 125.42V134.802C236.614 137.543 234.401 139.773 231.682 139.773ZM222.368 122.002C220.497 122.002 218.976 123.535 218.976 125.42V134.802C218.976 136.688 220.497 138.223 222.368 138.223H231.682C233.553 138.223 235.075 136.688 235.075 134.802V125.42C235.075 123.535 233.553 122.002 231.682 122.002H222.368Z" fill="#222222"/>
<path d="M181.006 121.278H190.32C192.618 121.278 194.481 123.155 194.481 125.472V134.854C194.481 137.17 192.618 139.049 190.32 139.049H181.006C178.707 139.049 176.845 137.17 176.845 134.854V125.472C176.845 123.155 178.707 121.278 181.006 121.278Z" fill="white"/>
<path d="M190.32 139.824H181.006C178.286 139.824 176.074 137.595 176.074 134.854V125.471C176.074 122.731 178.286 120.502 181.006 120.502H190.32C193.039 120.502 195.251 122.731 195.251 125.471V134.854C195.251 137.595 193.039 139.824 190.32 139.824ZM181.006 122.053C179.136 122.053 177.614 123.587 177.614 125.471V134.854C177.614 136.739 179.136 138.274 181.006 138.274H190.32C192.19 138.274 193.712 136.74 193.712 134.854V125.471C193.712 123.587 192.19 122.053 190.32 122.053H181.006Z" fill="#222222"/>
<path d="M201.973 121.278H211.287C213.586 121.278 215.449 123.155 215.449 125.472V134.854C215.449 137.17 213.586 139.049 211.287 139.049H201.973C199.675 139.049 197.811 137.17 197.811 134.854V125.472C197.811 123.155 199.675 121.278 201.973 121.278Z" fill="white"/>
<path d="M211.286 139.824H201.972C199.253 139.824 197.041 137.595 197.041 134.854V125.471C197.041 122.731 199.253 120.502 201.972 120.502H211.286C214.006 120.502 216.217 122.731 216.217 125.471V134.854C216.218 137.595 214.006 139.824 211.286 139.824ZM201.972 122.053C200.102 122.053 198.58 123.587 198.58 125.471V134.854C198.58 136.739 200.102 138.274 201.972 138.274H211.286C213.156 138.274 214.679 136.74 214.679 134.854V125.471C214.679 123.587 213.157 122.053 211.286 122.053H201.972Z" fill="#222222"/>
<path d="M222.368 121.278H231.682C233.981 121.278 235.845 123.155 235.845 125.472V134.854C235.845 137.17 233.981 139.049 231.682 139.049H222.368C220.07 139.049 218.207 137.17 218.207 134.854V125.472C218.207 123.155 220.07 121.278 222.368 121.278Z" fill="white"/>
<path d="M231.682 139.824H222.368C219.648 139.824 217.437 137.595 217.437 134.854V125.471C217.437 122.731 219.648 120.502 222.368 120.502H231.682C234.401 120.502 236.614 122.731 236.614 125.471V134.854C236.614 137.595 234.401 139.824 231.682 139.824ZM222.368 122.053C220.497 122.053 218.976 123.587 218.976 125.471V134.854C218.976 136.739 220.497 138.274 222.368 138.274H231.682C233.553 138.274 235.075 136.74 235.075 134.854V125.471C235.075 123.587 233.553 122.053 231.682 122.053H222.368Z" fill="#222222"/>
<path d="M181.006 142.351H190.32C192.618 142.351 194.481 144.228 194.481 146.544V155.929C194.481 158.245 192.618 160.122 190.32 160.122H181.006C178.707 160.122 176.845 158.245 176.845 155.929V146.544C176.845 144.228 178.707 142.351 181.006 142.351Z" fill="white"/>
<path d="M190.32 160.897H181.006C178.286 160.897 176.074 158.668 176.074 155.929V146.544C176.074 143.804 178.286 141.576 181.006 141.576H190.32C193.039 141.576 195.251 143.804 195.251 146.544V155.929C195.251 158.668 193.039 160.897 190.32 160.897ZM181.006 143.127C179.136 143.127 177.614 144.66 177.614 146.544V155.93C177.614 157.814 179.136 159.346 181.006 159.346H190.32C192.19 159.346 193.712 157.814 193.712 155.93V146.544C193.712 144.66 192.19 143.127 190.32 143.127H181.006Z" fill="#222222"/>
<path d="M201.973 142.351H211.287C213.586 142.351 215.449 144.228 215.449 146.544V155.929C215.449 158.245 213.586 160.122 211.287 160.122H201.973C199.675 160.122 197.811 158.245 197.811 155.929V146.544C197.811 144.228 199.675 142.351 201.973 142.351Z" fill="white"/>
<path d="M211.286 160.897H201.972C199.253 160.897 197.041 158.668 197.041 155.929V146.544C197.041 143.804 199.253 141.576 201.972 141.576H211.286C214.006 141.576 216.217 143.804 216.217 146.544V155.929C216.218 158.668 214.006 160.897 211.286 160.897ZM201.972 143.127C200.102 143.127 198.58 144.66 198.58 146.544V155.93C198.58 157.814 200.102 159.346 201.972 159.346H211.286C213.156 159.346 214.679 157.814 214.679 155.93V146.544C214.679 144.66 213.157 143.127 211.286 143.127H201.972Z" fill="#222222"/>
<path d="M222.368 142.351H231.682C233.981 142.351 235.845 144.228 235.845 146.544V155.929C235.845 158.245 233.981 160.122 231.682 160.122H222.368C220.07 160.122 218.207 158.245 218.207 155.929V146.544C218.207 144.228 220.07 142.351 222.368 142.351Z" fill="white"/>
<path d="M231.682 160.897H222.368C219.648 160.897 217.437 158.668 217.437 155.929V146.544C217.437 143.804 219.648 141.576 222.368 141.576H231.682C234.401 141.576 236.614 143.804 236.614 146.544V155.929C236.614 158.668 234.401 160.897 231.682 160.897ZM222.368 143.127C220.497 143.127 218.976 144.66 218.976 146.544V155.93C218.976 157.814 220.497 159.346 222.368 159.346H231.682C233.553 159.346 235.075 157.814 235.075 155.93V146.544C235.075 144.66 233.553 143.127 231.682 143.127H222.368Z" fill="#222222"/>
<path d="M181.006 142.403H190.32C192.618 142.403 194.481 144.282 194.481 146.596V155.981C194.481 158.297 192.618 160.174 190.32 160.174H181.006C178.707 160.174 176.845 158.297 176.845 155.981V146.596C176.845 144.282 178.707 142.403 181.006 142.403Z" fill="white"/>
<path d="M190.32 160.948H181.006C178.286 160.948 176.074 158.72 176.074 155.981V146.596C176.074 143.856 178.286 141.628 181.006 141.628H190.32C193.039 141.628 195.251 143.856 195.251 146.596V155.981C195.251 158.72 193.039 160.948 190.32 160.948ZM181.006 143.178C179.136 143.178 177.614 144.711 177.614 146.596V155.981C177.614 157.865 179.136 159.398 181.006 159.398H190.32C192.19 159.398 193.712 157.865 193.712 155.981V146.596C193.712 144.712 192.19 143.178 190.32 143.178L181.006 143.178Z" fill="#222222"/>
<path d="M201.973 142.403H211.287C213.586 142.403 215.449 144.282 215.449 146.596V155.981C215.449 158.297 213.586 160.174 211.287 160.174H201.973C199.675 160.174 197.811 158.297 197.811 155.981V146.596C197.811 144.282 199.675 142.403 201.973 142.403Z" fill="#222222"/>
<path d="M211.286 160.948H201.972C199.253 160.948 197.041 158.72 197.041 155.981V146.596C197.041 143.856 199.253 141.628 201.972 141.628H211.286C214.006 141.628 216.217 143.856 216.217 146.596V155.981C216.218 158.72 214.006 160.948 211.286 160.948ZM201.972 143.178C200.102 143.178 198.58 144.711 198.58 146.596V155.981C198.58 157.865 200.102 159.398 201.972 159.398H211.286C213.156 159.398 214.679 157.865 214.679 155.981V146.596C214.679 144.712 213.157 143.178 211.286 143.178L201.972 143.178Z" fill="#222222"/>
<path d="M222.368 142.403H231.682C233.981 142.403 235.845 144.282 235.845 146.596V155.981C235.845 158.297 233.981 160.174 231.682 160.174H222.368C220.07 160.174 218.207 158.297 218.207 155.981V146.596C218.207 144.282 220.07 142.403 222.368 142.403Z" fill="white"/>
<path d="M231.682 160.948H222.368C219.648 160.948 217.437 158.72 217.437 155.981V146.596C217.437 143.856 219.648 141.628 222.368 141.628H231.682C234.401 141.628 236.614 143.856 236.614 146.596V155.981C236.614 158.72 234.401 160.948 231.682 160.948ZM222.368 143.178C220.497 143.178 218.976 144.711 218.976 146.596V155.981C218.976 157.865 220.497 159.398 222.368 159.398H231.682C233.553 159.398 235.075 157.865 235.075 155.981V146.596C235.075 144.712 233.553 143.178 231.682 143.178L222.368 143.178Z" fill="#222222"/>
<path d="M181.006 163.476H190.32C192.618 163.476 194.481 165.355 194.481 167.671V177.053C194.481 179.369 192.618 181.246 190.32 181.246H181.006C178.707 181.246 176.845 179.369 176.845 177.053V167.671C176.845 165.355 178.707 163.476 181.006 163.476Z" fill="white"/>
<path d="M190.32 182.022H181.006C178.286 182.022 176.074 179.794 176.074 177.054V167.671C176.074 164.93 178.286 162.7 181.006 162.7H190.32C193.039 162.7 195.251 164.93 195.251 167.671V177.054C195.251 179.793 193.039 182.022 190.32 182.022ZM181.006 164.251C179.136 164.251 177.614 165.785 177.614 167.67V177.053C177.614 178.938 179.136 180.471 181.006 180.471H190.32C192.19 180.471 193.712 178.938 193.712 177.053V167.67C193.712 165.785 192.19 164.251 190.32 164.251H181.006Z" fill="#222222"/>
<path d="M201.973 163.476H211.287C213.586 163.476 215.449 165.355 215.449 167.671V177.053C215.449 179.369 213.586 181.246 211.287 181.246H201.973C199.675 181.246 197.811 179.369 197.811 177.053V167.671C197.811 165.355 199.675 163.476 201.973 163.476Z" fill="white"/>
<path d="M211.286 182.022H201.972C199.253 182.022 197.041 179.794 197.041 177.054V167.671C197.041 164.93 199.253 162.7 201.972 162.7H211.286C214.006 162.7 216.217 164.93 216.217 167.671V177.054C216.218 179.793 214.006 182.022 211.286 182.022ZM201.972 164.251C200.102 164.251 198.58 165.785 198.58 167.67V177.053C198.58 178.938 200.102 180.471 201.972 180.471H211.286C213.156 180.471 214.679 178.938 214.679 177.053V167.67C214.679 165.785 213.157 164.251 211.286 164.251H201.972Z" fill="#222222"/>
<path d="M222.368 163.476H231.682C233.981 163.476 235.845 165.355 235.845 167.671V177.053C235.845 179.369 233.981 181.246 231.682 181.246H222.368C220.07 181.246 218.207 179.369 218.207 177.053V167.671C218.207 165.355 220.07 163.476 222.368 163.476Z" fill="white"/>
<path d="M231.682 182.022H222.368C219.648 182.022 217.437 179.794 217.437 177.054V167.671C217.437 164.93 219.648 162.7 222.368 162.7H231.682C234.401 162.7 236.614 164.93 236.614 167.671V177.054C236.614 179.793 234.401 182.022 231.682 182.022ZM222.368 164.251C220.497 164.251 218.976 165.785 218.976 167.67V177.053C218.976 178.938 220.497 180.471 222.368 180.471H231.682C233.553 180.471 235.075 178.938 235.075 177.053V167.67C235.075 165.785 233.553 164.251 231.682 164.251H222.368Z" fill="#222222"/>
<path d="M181.006 163.528H190.32C192.618 163.528 194.481 165.407 194.481 167.723V177.105C194.481 179.421 192.618 181.3 190.32 181.3H181.006C178.707 181.3 176.845 179.421 176.845 177.105V167.723C176.845 165.406 178.707 163.528 181.006 163.528Z" fill="white"/>
<path d="M190.32 182.076H181.006C178.286 182.076 176.074 179.846 176.074 177.105V167.722C176.074 164.982 178.286 162.753 181.006 162.753H190.32C193.039 162.753 195.251 164.982 195.251 167.722V177.105C195.251 179.846 193.039 182.076 190.32 182.076ZM181.006 164.304C179.136 164.304 177.614 165.837 177.614 167.722V177.105C177.614 178.991 179.136 180.525 181.006 180.525H190.32C192.19 180.525 193.712 178.991 193.712 177.105V167.722C193.712 165.837 192.19 164.304 190.32 164.304H181.006Z" fill="#222222"/>
<path d="M201.973 163.528H211.287C213.586 163.528 215.449 165.407 215.449 167.723V177.105C215.449 179.421 213.586 181.3 211.287 181.3H201.973C199.675 181.3 197.811 179.421 197.811 177.105V167.723C197.811 165.406 199.675 163.528 201.973 163.528Z" fill="#B8BBFD"/>
<path d="M211.286 182.076H201.972C199.253 182.076 197.041 179.846 197.041 177.105V167.722C197.041 164.982 199.253 162.753 201.972 162.753H211.286C214.006 162.753 216.217 164.982 216.217 167.722V177.105C216.218 179.846 214.006 182.076 211.286 182.076ZM201.972 164.304C200.102 164.304 198.58 165.837 198.58 167.722V177.105C198.58 178.991 200.102 180.525 201.972 180.525H211.286C213.156 180.525 214.679 178.991 214.679 177.105V167.722C214.679 165.837 213.157 164.304 211.286 164.304H201.972Z" fill="#B8BBFD"/>
<path d="M222.368 163.528H231.682C233.981 163.528 235.845 165.407 235.845 167.723V177.105C235.845 179.421 233.981 181.3 231.682 181.3H222.368C220.07 181.3 218.207 179.421 218.207 177.105V167.723C218.207 165.406 220.07 163.528 222.368 163.528Z" fill="white"/>
<path d="M231.682 182.076H222.368C219.648 182.076 217.437 179.846 217.437 177.105V167.722C217.437 164.982 219.648 162.753 222.368 162.753H231.682C234.401 162.753 236.614 164.982 236.614 167.722V177.105C236.614 179.846 234.401 182.076 231.682 182.076ZM222.368 164.304C220.497 164.304 218.976 165.837 218.976 167.722V177.105C218.976 178.991 220.497 180.525 222.368 180.525H231.682C233.553 180.525 235.075 178.991 235.075 177.105V167.722C235.075 165.837 233.553 164.304 231.682 164.304H222.368Z" fill="#222222"/>
<path d="M181.006 184.603H190.32C192.618 184.603 194.481 186.48 194.481 188.795V198.178C194.481 200.494 192.618 202.373 190.32 202.373H181.006C178.707 202.373 176.845 200.494 176.845 198.178V188.795C176.845 186.48 178.707 184.603 181.006 184.603Z" fill="white"/>
<path d="M190.32 203.149H181.006C178.286 203.149 176.074 200.92 176.074 198.178V188.795C176.074 186.055 178.286 183.827 181.006 183.827H190.32C193.039 183.827 195.251 186.055 195.251 188.795V198.178C195.251 200.919 193.039 203.149 190.32 203.149ZM181.006 185.378C179.136 185.378 177.614 186.911 177.614 188.795V198.178C177.614 200.064 179.136 201.598 181.006 201.598H190.32C192.19 201.598 193.712 200.064 193.712 198.178V188.795C193.712 186.911 192.19 185.378 190.32 185.378H181.006Z" fill="#222222"/>
<path d="M201.973 184.603H211.287C213.586 184.603 215.449 186.48 215.449 188.795V198.178C215.449 200.494 213.586 202.373 211.287 202.373H201.973C199.675 202.373 197.811 200.494 197.811 198.178V188.795C197.811 186.48 199.675 184.603 201.973 184.603Z" fill="white"/>
<path d="M211.286 203.149H201.972C199.253 203.149 197.041 200.92 197.041 198.178V188.795C197.041 186.055 199.253 183.827 201.972 183.827H211.286C214.006 183.827 216.217 186.055 216.217 188.795V198.178C216.218 200.919 214.006 203.149 211.286 203.149ZM201.972 185.378C200.102 185.378 198.58 186.911 198.58 188.795V198.178C198.58 200.064 200.102 201.598 201.972 201.598H211.286C213.156 201.598 214.679 200.064 214.679 198.178V188.795C214.679 186.911 213.157 185.378 211.286 185.378H201.972Z" fill="#222222"/>
<path d="M222.368 184.603H231.682C233.981 184.603 235.845 186.48 235.845 188.795V198.178C235.845 200.494 233.981 202.373 231.682 202.373H222.368C220.07 202.373 218.207 200.494 218.207 198.178V188.795C218.207 186.48 220.07 184.603 222.368 184.603Z" fill="white"/>
<path d="M231.682 203.149H222.368C219.648 203.149 217.437 200.92 217.437 198.178V188.795C217.437 186.055 219.648 183.827 222.368 183.827H231.682C234.401 183.827 236.614 186.055 236.614 188.795V198.178C236.614 200.919 234.401 203.149 231.682 203.149ZM222.368 185.378C220.497 185.378 218.976 186.911 218.976 188.795V198.178C218.976 200.064 220.497 201.598 222.368 201.598H231.682C233.553 201.598 235.075 200.064 235.075 198.178V188.795C235.075 186.911 233.553 185.378 231.682 185.378H222.368Z" fill="#222222"/>
<path fill-rule="evenodd" clip-rule="evenodd" d="M65.303 163.281H190.328C194.638 163.281 198.132 166.801 198.132 171.143V229.993C198.132 234.335 194.638 237.856 190.328 237.856H65.303C60.9932 237.856 57.499 234.335 57.499 229.993V171.143C57.499 166.801 60.9932 163.281 65.303 163.281Z" fill="white"/>
<path d="M190.327 238.642H65.3021C60.5693 238.642 56.7188 234.763 56.7188 229.993V171.143C56.7188 166.374 60.5693 162.495 65.3021 162.495H190.327C195.061 162.495 198.912 166.374 198.912 171.143V229.993C198.912 234.763 195.061 238.642 190.327 238.642ZM65.3021 164.068C61.4306 164.068 58.2799 167.242 58.2799 171.143V229.993C58.2799 233.895 61.4306 237.069 65.3021 237.069H190.327C194.2 237.069 197.351 233.895 197.351 229.993V171.143C197.351 167.242 194.2 164.068 190.327 164.068H65.3021Z" fill="#222222"/>
<mask id="mask0_2367_1921" style="mask-type:luminance" maskUnits="userSpaceOnUse" x="57" y="163" width="142" height="75">
<path d="M65.303 163.281H190.328C194.638 163.281 198.132 166.801 198.132 171.143V229.994C198.132 234.335 194.638 237.856 190.328 237.856H65.303C60.9932 237.856 57.499 234.335 57.499 229.994V171.143C57.499 166.801 60.9932 163.281 65.303 163.281Z" fill="white"/>
</mask>
<g mask="url(#mask0_2367_1921)">
<path fill-rule="evenodd" clip-rule="evenodd" d="M47.4092 160.533H205.732V175.676H47.4092V160.533Z" fill="#222222"/>
</g>
<path fill-rule="evenodd" clip-rule="evenodd" d="M174.17 167.005C175.278 167.005 176.177 167.909 176.177 169.022C176.177 170.138 175.278 171.042 174.17 171.042C173.062 171.042 172.163 170.138 172.163 169.022C172.163 167.909 173.062 167.005 174.17 167.005Z" fill="white"/>
<path fill-rule="evenodd" clip-rule="evenodd" d="M181.613 167.005C182.722 167.005 183.621 167.909 183.621 169.022C183.621 170.138 182.722 171.042 181.613 171.042C180.505 171.042 179.605 170.138 179.605 169.022C179.605 167.909 180.505 167.005 181.613 167.005Z" fill="white"/>
<path fill-rule="evenodd" clip-rule="evenodd" d="M188.678 167.005C189.787 167.005 190.685 167.909 190.685 169.022C190.685 170.138 189.787 171.042 188.678 171.042C187.57 171.042 186.672 170.138 186.672 169.022C186.672 167.909 187.57 167.005 188.678 167.005Z" fill="white"/>
<path fill-rule="evenodd" clip-rule="evenodd" d="M146.305 181.246H185.483C188.356 181.246 190.685 183.595 190.685 186.488V204.574C190.685 207.47 188.356 209.816 185.483 209.816H146.305C143.431 209.816 141.103 207.47 141.103 204.574V186.488C141.103 183.595 143.431 181.246 146.305 181.246Z" fill="#222222"/>
<path fill-rule="evenodd" clip-rule="evenodd" d="M174.598 212.793C179.929 212.793 184.25 217.146 184.25 222.518C184.25 227.889 179.929 232.242 174.598 232.242C169.268 232.242 164.947 227.889 164.947 222.518C164.947 217.146 169.268 212.793 174.598 212.793Z" fill="white"/>
<path d="M174.597 233.017C168.852 233.017 164.178 228.308 164.178 222.518C164.178 216.729 168.852 212.018 174.597 212.018C180.344 212.018 185.019 216.729 185.019 222.518C185.019 228.308 180.344 233.017 174.597 233.017ZM174.597 213.569C169.7 213.569 165.717 217.583 165.717 222.518C165.717 227.452 169.7 231.467 174.597 231.467C179.495 231.467 183.48 227.452 183.48 222.518C183.48 217.583 179.495 213.569 174.597 213.569Z" fill="#222222"/>
<path d="M165.141 232.528L153.56 222.745L167.759 217.531L165.141 232.528Z" fill="#222222"/>
<path d="M135.296 186.846H65.2124C64.7812 186.846 64.4316 186.494 64.4316 186.059C64.4316 185.625 64.7812 185.273 65.2124 185.273H135.295C135.726 185.273 136.076 185.625 136.076 186.059C136.076 186.494 135.727 186.846 135.296 186.846Z" fill="#222222"/>
<path d="M101.528 194.867H65.2124C64.7812 194.867 64.4316 194.515 64.4316 194.08C64.4316 193.646 64.7812 193.294 65.2124 193.294H101.528C101.959 193.294 102.308 193.646 102.308 194.08C102.308 194.515 101.959 194.867 101.528 194.867Z" fill="#222222"/>
<path d="M135.347 194.867H106.731C106.3 194.867 105.95 194.515 105.95 194.08C105.95 193.646 106.3 193.294 106.731 193.294H135.347C135.778 193.294 136.127 193.646 136.127 194.08C136.128 194.515 135.778 194.867 135.347 194.867Z" fill="#222222"/>
<path d="M135.296 202.887H65.2124C64.7812 202.887 64.4316 202.535 64.4316 202.1C64.4316 201.666 64.7812 201.314 65.2124 201.314H135.295C135.726 201.314 136.076 201.666 136.076 202.1C136.076 202.535 135.727 202.887 135.296 202.887Z" fill="#222222"/>
<path d="M135.296 211.273H65.2124C64.7812 211.273 64.4316 210.921 64.4316 210.487C64.4316 210.053 64.7812 209.7 65.2124 209.7H135.295C135.726 209.7 136.076 210.053 136.076 210.487C136.076 210.921 135.727 211.273 135.296 211.273Z" fill="#222222"/>
<path d="M135.347 219.293H121.455C121.024 219.293 120.675 218.941 120.675 218.506C120.675 218.072 121.024 217.72 121.455 217.72H135.347C135.778 217.72 136.127 218.072 136.127 218.506C136.128 218.941 135.778 219.293 135.347 219.293Z" fill="#222222"/>
<path d="M135.296 227.313H65.2124C64.7812 227.313 64.4316 226.961 64.4316 226.526C64.4316 226.092 64.7812 225.74 65.2124 225.74H135.295C135.726 225.74 136.076 226.092 136.076 226.526C136.076 226.961 135.727 227.313 135.296 227.313Z" fill="#222222"/>
<path d="M112.703 219.293H64.964C64.5328 219.293 64.1836 218.941 64.1836 218.506C64.1836 218.072 64.5331 217.72 64.964 217.72H112.703C113.134 217.72 113.484 218.072 113.484 218.506C113.484 218.941 113.134 219.293 112.703 219.293Z" fill="#222222"/>
<path d="M165.743 189.001L172.378 200.584H159.109L165.743 189.001Z" fill="white"/>
<path fill-rule="evenodd" clip-rule="evenodd" d="M84.5237 213.607L83.6912 222.937C83.6912 222.937 84.73 226.46 84.5756 230.067C84.4211 233.672 83.7955 238.61 83.7955 238.61L46.2307 238.349C46.2307 238.349 46.7391 231.723 51.4858 229.541C56.2309 227.362 63.14 225.662 63.14 225.662L65.4815 221.207L66.9377 211.089C66.9377 211.089 65.9567 209.667 66.0533 208.207C66.1501 206.747 66.4557 200.996 67.5094 200.135C68.5631 199.272 68.6543 198.457 68.6543 198.457L72.6087 170.151C72.6087 170.151 71.7664 176.221 69.6951 176.703C67.6242 177.185 66.833 177.226 66.833 177.226L56.531 197.88C56.531 197.88 39.9492 196.1 34.5233 192.954C29.0978 189.807 24.3524 184.916 24.8459 181.839C25.3394 178.764 26.5198 177.06 28.5921 176.807C30.6643 176.553 41.3911 178.433 41.3911 178.433L48.1024 175.706L52.2652 169.677C52.2652 169.677 51.1437 166.544 52.7855 163.073C54.4262 159.602 57.52 156.257 57.52 156.257C57.52 156.257 70.358 130.07 72.8679 126.169C75.3781 122.266 79.3549 121.189 81.9207 120.351C84.4875 119.512 95.2928 84.4955 95.2928 84.4955C95.2928 84.4955 99.4329 75.2902 103.356 72.6997C107.28 70.1115 108.039 69.3457 108.039 69.3457C108.039 69.3457 103.193 68.3987 103.149 64.7332C103.104 61.0659 105.073 58.0232 105.073 58.0232C105.073 58.0232 104.227 54.7969 104.814 53.5666C105.401 52.3364 105.438 51.9948 105.438 51.9948L103.305 48.0634L103.981 45.4944C103.981 45.4944 100.716 45.9158 99.0908 44.6037C97.4663 43.2912 96.7591 42.6704 97.4782 42.1384C98.197 41.6084 102.317 39.6236 102.317 39.6236C102.317 39.6236 100.178 36.084 101.38 35.9021C102.582 35.7185 107.658 35.6881 110.433 34.1722C113.208 32.6567 113.877 31.4929 116.989 32.1267C120.099 32.7604 128.3 33.4436 130.464 39.7816C132.627 46.1196 132.683 48.6149 130.829 51.9948C128.973 55.3747 126.25 57.6038 126.25 57.6038L125.782 61.4291C125.782 61.4291 126.738 66.82 129.892 66.9866C133.046 67.1531 142.112 65.5505 146.333 66.9347C150.552 68.3165 155.8 68.4031 160.433 81.4552C165.065 94.5075 172.482 111.305 171.826 114.583C171.172 117.864 169.867 120.415 167.716 121.819C164.188 124.12 160.381 123.339 160.381 123.339C160.381 123.339 164.016 136.27 164.543 143.415C165.07 150.562 164.811 159.477 154.761 165.485C144.711 171.492 124.324 162.286 124.324 162.286L98.3111 163.125L88.0606 201.603C88.0606 201.603 89.7711 202.429 88.9975 208.311C88.0897 215.213 84.5237 213.607 84.5237 213.607Z" fill="white"/>
<path fill-rule="evenodd" clip-rule="evenodd" d="M115.059 49.0369C115.663 49.0369 116.151 49.5297 116.151 50.1375V51.2923C116.151 51.9001 115.663 52.3929 115.059 52.3929C114.456 52.3929 113.967 51.9001 113.967 51.2923V50.1375C113.967 49.5297 114.456 49.0369 115.059 49.0369Z" fill="#222222"/>
<path fill-rule="evenodd" clip-rule="evenodd" d="M115.289 126.466L136.101 132.389L163.156 133.858L161.699 124.421C161.699 124.421 172.225 121.973 171.272 114.147C170.32 106.321 159.346 76.3118 156.756 73.1544C154.166 69.9974 149.745 66.6779 145.049 66.4963C140.355 66.3148 134.904 66.7059 134.904 66.7059C134.904 66.7059 133.565 74.6075 125.383 75.9849C117.202 77.3622 115.805 77.3148 115.081 74.8843C114.359 72.4538 115.914 68.3839 115.914 68.3839C115.914 68.3839 110.629 68.9504 108.838 69.7465C107.047 70.5441 101.047 73.6755 97.549 80.7035C94.0483 87.7292 94.0107 87.8848 94.0107 87.8848L103.791 113.937L106.81 109.638C106.81 109.638 105.613 108.734 106.601 104.71C107.589 100.688 110.867 96.3761 110.867 96.3761L109.671 95.853C109.671 95.853 105.452 99.2799 103.948 98.893C102.443 98.5039 103.407 96.4539 105.769 94.0685C108.13 91.6837 109.467 91.1988 112.115 92.6024C114.765 94.0037 124.655 100.936 124.655 100.936L153.479 106.703C153.479 106.703 157.304 108.635 157.902 114.618C158.499 120.601 156.705 123.058 156.705 123.058L127.361 113.256C127.361 113.256 124.47 114.945 121.378 113.204C118.286 111.463 116.383 109.638 116.383 109.638L112.013 112.049L113.417 117.974L115.289 126.466Z" fill="#B8BBFD"/>
<path fill-rule="evenodd" clip-rule="evenodd" d="M108.305 96.6317L145.453 94.7438L153.777 113.406L112.154 113.299L108.305 96.6317Z" fill="white"/>
<path fill-rule="evenodd" clip-rule="evenodd" d="M142.176 88.7151L159.813 80.1715L165.536 93.747L147.482 100.773L142.176 88.7151Z" fill="white"/>
<path fill-rule="evenodd" clip-rule="evenodd" d="M94.1525 86.827L107.784 93.0657L110.749 105.804L102.009 109.84L90.0947 97.4165L94.1525 86.827Z" fill="white"/>
<path fill-rule="evenodd" clip-rule="evenodd" d="M107.717 49.7378C108.321 49.7378 108.811 50.2309 108.811 50.8384V51.9932C108.811 52.601 108.321 53.0938 107.717 53.0938C107.114 53.0938 106.625 52.601 106.625 51.9932V50.8384C106.625 50.2306 107.114 49.7378 107.717 49.7378Z" fill="#222222"/>
<path fill-rule="evenodd" clip-rule="evenodd" d="M122.49 55.976C122.49 55.976 122.921 65.5536 116.871 67.8759C110.822 70.1986 109.359 69.8328 107.09 68.9226C104.82 68.0145 102.35 67.0955 102.459 63.9425C102.57 60.792 101.549 58.3571 105.685 57.3906C109.822 56.4262 114.339 55.5051 115.414 55.9225C116.49 56.3419 118.64 57.81 118.64 57.81C118.64 57.81 118.569 53.2367 119.368 50.7868C120.168 48.3365 120.568 46.449 119.993 44.7061C119.418 42.9633 119.238 41.376 118.329 41.6654C117.417 41.9531 113.195 43.324 110.889 43.3953C108.581 43.4666 105.477 42.1367 105.477 42.1367L103.968 45.3869C103.968 45.3869 102.595 46.3838 100.587 45.5968C98.5792 44.8095 96.935 43.1789 97.0485 42.3988C97.1623 41.618 102.147 39.0449 102.147 39.0449C102.147 39.0449 100.821 37.2955 101.367 36.4758C101.913 35.6561 107.281 35.7472 109.015 34.4845C110.749 33.2215 113.829 31.9111 115.414 31.8094C117.001 31.7101 119.264 33.226 119.264 33.226C119.264 33.226 122.319 33.4638 123.272 33.8034C125.42 34.5647 129.688 36.6731 130.971 41.8757C132.256 47.0786 131.667 49.6647 131.128 51.7297C130.588 53.795 125.925 59.3825 125.925 59.3825L122.49 55.976Z" fill="white"/>
<path fill-rule="evenodd" clip-rule="evenodd" d="M65.5232 220.096L83.5249 220.412L83.2126 223.398L83.7847 227.068C83.7847 227.068 81.7524 228.478 80.3518 230.789C78.9516 233.103 77.3329 235.404 77.3329 235.404L61.0495 235.456C61.0495 235.456 61.1589 232.019 59.5923 230.372C58.0254 228.722 56.6787 227.906 56.6787 227.906L63.7548 225.443L65.1594 222.613L65.5232 220.096Z" fill="#B8BBFD"/>
<path fill-rule="evenodd" clip-rule="evenodd" d="M35.0352 177.689C35.0352 177.689 36.8259 179.237 37.2714 182.773C37.7178 186.309 37.7916 190.06 37.7916 190.06L52.7757 194.044C52.7757 194.044 54.5258 192.394 56.4179 191.475C58.3099 190.556 60.5807 190.164 60.5807 190.164L64.3784 182.721C64.3784 182.721 59.9043 183.645 55.8458 181.305C51.7873 178.968 50.2922 177.625 49.8617 176.745C49.4326 175.865 49.1856 174.543 49.1856 174.543L47.9375 176.273L41.6414 179.052L35.0352 177.689Z" fill="#B8BBFD"/>
<path fill-rule="evenodd" clip-rule="evenodd" d="M56.2061 160.379L70.8263 128.873C70.8263 128.873 74.5275 118.197 86.2267 120.278C97.9269 122.358 139.244 133.172 139.244 133.172L163.23 133.855C163.23 133.855 166.403 148.043 165.57 151.888C164.738 155.732 157.539 167.785 147.985 167.509C138.431 167.23 126.029 162.477 126.029 162.477L98.4536 163.314L88.5682 201.266L69.0061 198.697L72.8552 167.718C72.8552 167.718 69.506 169.239 63.9067 166.879C58.3071 164.518 56.2061 160.379 56.2061 160.379Z" fill="white"/>
<path fill-rule="evenodd" clip-rule="evenodd" d="M114.62 69.5754C111.856 70.4944 109.363 70.3736 107.233 71.409C105.167 72.4144 103.532 73.8289 101.979 75.3923C98.9665 78.4282 97.3492 82.8916 95.5272 87.3956C92.4493 95.0092 89.3738 102.761 86.3714 110.563C85.9839 111.571 85.6168 113.692 84.5512 113.498C83.3653 113.282 84.5383 111.182 84.7595 110.616C87.5451 103.46 90.2067 96.4238 93.0309 89.3353C94.6523 85.2658 96.1996 81.1549 98.2847 77.6996C100.406 74.1811 103.354 71.58 107.18 69.7331C105.367 68.9308 104.291 68.5069 103.227 67.164C101.796 65.3584 101.978 61.0121 103.175 59.0399C103.32 58.802 103.515 58.5362 103.747 58.2526C103.948 58.0082 104.292 57.6561 104.319 57.4677C104.375 57.0851 104.046 56.3869 104.007 55.8958C103.941 55.0717 104.113 54.1765 104.372 53.4305C104.593 52.7927 105.339 51.0324 106.141 52.1743C106.674 52.9357 105.548 54.155 105.516 55.2665C105.501 55.7917 105.663 56.1227 105.724 56.6807C106.227 56.7326 106.782 56.3845 107.388 56.3671C107.503 56.1357 107.179 55.9822 107.076 55.8416C106.218 54.6737 108.119 53.8305 108.533 52.907C109.258 51.2939 108.198 49.205 107.076 48.7661C106.505 48.5436 105.587 48.4999 104.527 48.5562C103.729 48.5996 102.531 48.82 102.291 48.1907C102.039 47.5331 102.58 47.1202 102.654 46.5127C100.635 46.595 99.4963 45.8401 98.2847 44.8347C97.5971 44.2634 96.3767 43.2994 96.3598 42.4234C96.3381 41.3334 97.6154 40.7931 98.389 40.3799C99.356 39.8632 100.255 39.556 101.197 39.1755C100.764 38.4316 100.028 36.3881 100.99 35.5574C101.614 35.0213 103.527 34.9804 104.632 34.8244C107.404 34.4354 109.09 33.6177 111.29 32.727C112.299 32.3205 113.265 31.6889 114.308 31.4165C116.847 30.7548 119.195 32.1885 121.331 32.7785C123.641 33.4187 125.769 34.0262 127.574 35.2438C130.677 37.3368 132.801 42.3906 132.724 47.5608C132.643 52.9558 130.079 56.6299 126.741 59.0389C126.588 59.7395 126.646 60.6541 126.378 61.24C127.047 62.8641 127.392 64.7909 128.77 65.5908C129.918 66.257 132.224 66.1249 133.972 66.0621C135.877 65.9928 137.806 65.7983 139.33 65.6945C141.244 65.5666 143.136 65.4307 144.792 65.6945C149.537 66.4491 153.652 68.5642 156.133 71.6172C157.861 73.7426 159.022 76.3744 160.139 79.1145C163.452 87.2277 166.654 95.6177 169.556 104.324C169.991 105.634 170.536 107.113 171.012 108.623C171.473 110.082 172.096 111.706 172.209 113.183C172.466 116.548 170.883 119.29 169.347 120.94C167.596 122.821 165.216 123.864 162.168 124.346C163.309 130.848 164.544 137.255 165.446 143.896C165.682 145.632 165.958 147.406 166.018 149.034C166.085 150.824 165.687 152.511 165.289 154.012C164.47 157.108 163.076 159.158 161.18 161.245C157.719 165.055 152.734 168.249 145.157 167.903C138.975 167.62 133.93 165.886 128.978 164.233C128.29 164.004 127.525 163.57 126.897 163.5C125.833 163.382 124.58 163.55 123.412 163.604C119.956 163.762 116.234 163.511 112.799 163.656C108.095 163.858 103.424 163.678 98.7531 163.814C95.6122 175.115 92.7555 187.419 89.7528 199.09C89.5587 199.844 89.1543 200.878 89.1811 201.447C89.2004 201.832 89.783 202.342 89.9615 202.809C90.4838 204.182 89.9591 206.081 89.7017 207.841C89.5072 209.168 89.4487 210.548 89.1296 211.616C88.6554 213.204 87.143 214.274 85.0196 213.922C84.7876 215.937 84.5478 218.076 84.4479 220.212C84.3425 222.443 84.5163 224.5 84.9156 226.5C85.274 228.295 85.5111 230.341 85.3834 232.791C85.3353 233.716 85.213 234.754 85.0714 235.883C84.9705 236.696 84.8709 238.46 84.3439 238.714C83.3813 239.176 81.0045 238.808 79.5578 238.872C74.6096 239.081 70.0715 239.027 65.0439 239.081C60.3747 239.129 55.4329 239.237 50.4771 239.237C49.0007 239.237 46.145 239.594 45.8479 238.765C45.5786 238.017 46.3662 236.199 46.5751 235.569C47.6069 232.477 48.788 229.791 51.4655 228.492C53.4358 227.538 55.6595 227.369 57.6051 226.658C59.6387 225.914 61.4566 225.134 63.327 224.456C63.71 223.429 64.4305 222.452 64.7316 221.364C64.9494 220.577 64.9741 219.663 65.0954 218.743C65.3762 216.622 65.7041 214.518 66.0323 212.191C66.0976 211.724 66.2779 211.222 66.2406 210.935C66.1806 210.468 65.576 209.927 65.408 209.415C65.0226 208.238 65.4758 206.37 65.7203 204.748C66.1075 202.181 66.0936 199.725 67.9575 198.721C69.0682 191 70.1328 183.232 71.2864 175.553C71.1232 175.467 70.8613 175.865 70.6618 176.078C70.0298 176.758 69.1156 177.356 67.8011 177.389C64.7577 183.474 61.8485 189.583 58.8017 195.839C58.422 196.619 57.8659 198.127 57.2403 198.353C56.6208 198.578 54.8784 198.245 53.8589 198.144C50.3681 197.798 47.4006 197.195 44.4948 196.468C40.6205 195.499 36.6264 194.454 33.3107 192.956C30.262 191.576 27.1875 188.843 25.2988 186.194C24.2599 184.737 23.4799 182.953 24.2064 180.533C24.6789 178.961 25.8323 177.04 27.3798 176.34C28.3851 175.884 29.8274 176.007 31.126 176.13C34.3614 176.437 36.9875 176.971 39.9695 177.598C40.4837 177.707 41.151 177.99 41.634 177.966C42.0557 177.942 42.6342 177.525 43.0901 177.337C44.1642 176.891 44.9453 176.567 46.0037 176.13C46.4928 175.929 47.1039 175.81 47.4609 175.553C47.8528 175.274 48.1651 174.545 48.5007 174.035C49.5298 172.463 50.5462 170.854 51.5183 169.368C50.425 167.256 51.4655 164.624 52.3499 162.399C53.3809 159.806 54.2965 157.414 56.8765 156.58C61.4488 147.52 65.4829 137.553 70.4535 128.747C73.0301 124.187 75.4641 120.048 81.8469 119.471C88.6344 118.859 94.2469 120.785 99.6907 121.988C100.385 120.982 100.859 119.834 101.407 118.738C103.019 115.507 104.756 112.207 106.401 108.936C106.156 108.384 105.897 108.014 105.725 107.467C105.036 105.277 106.024 103.064 106.713 101.337C107.51 99.3388 108.346 97.795 109.574 96.6705C109.171 96.6835 108.85 97.0793 108.534 97.3517C108.224 97.6199 107.921 97.9246 107.597 98.1908C106.976 98.7014 106.172 99.4603 105.465 99.659C104.143 100.033 102.497 99.4385 102.343 98.4007C102.153 97.1162 103.51 96.0006 104.112 95.3085C104.925 94.3765 105.569 93.5527 106.297 92.6879C106.12 92.1061 105.978 91.6129 105.829 91.0639C105.693 90.5598 105.678 89.9308 105.413 89.3858C105.064 88.6658 103.587 88.188 103.696 87.1843C103.724 86.927 103.965 86.6025 104.32 86.5554C104.968 86.4691 105.32 87.0915 105.673 87.4464C106.03 87.8075 106.527 88.0498 106.766 88.547C107.255 89.5654 107.179 90.7202 107.597 91.5874C108.373 91.1615 109.321 90.5755 110.458 90.8024C111.841 91.0772 113.252 92.1149 114.517 92.8978C117.684 94.857 120.592 96.9565 123.62 99.1883C124.201 99.6166 124.84 100.237 125.389 100.447C126.205 100.756 127.345 100.834 128.355 101.022C135.192 102.302 142.206 103.485 149.06 104.796C147.127 100.551 144.671 95.6658 142.452 91.2222C142.179 90.6728 141.102 88.8562 142.348 88.705C143.174 88.6054 143.48 89.7408 143.805 90.4349C146.094 95.3389 148.758 100.269 151.036 105.163C152.098 105.34 153.323 105.589 154.782 105.844C155.824 106.026 157.931 106.071 157.904 107.103C157.882 107.866 157.003 107.974 156.291 107.68C157.278 109.066 158.139 111.175 158.58 113.655C159.102 116.589 159.227 120.421 157.904 122.564C161.805 123.535 165.739 122.19 167.891 120.259C169.058 119.212 169.928 117.727 170.337 116.17C170.576 115.257 170.734 114.237 170.649 113.235C170.574 112.362 170.227 111.538 169.972 110.666C168.028 104.034 165.49 97.5342 163.209 91.3778C162.082 88.333 160.881 85.0572 159.62 81.8913C158.379 78.7752 157.131 75.6117 155.354 73.1379C153.618 70.7204 150.743 68.9212 147.551 67.9503C145.845 67.4313 143.966 67.0183 141.881 67.1111C139.912 67.1978 137.88 67.3988 135.845 67.5309C134.052 71.2913 131.199 74.95 126.481 76.598C124.189 77.3979 120.885 77.5341 118.315 77.1751C116.893 76.974 115.868 76.7143 115.089 75.8107C114.401 75.0148 113.841 73.8515 113.892 72.4049C113.929 71.3572 114.313 70.5504 114.62 69.5754ZM126.325 57.4161C128.839 55.5692 131 52.1829 131.162 48.0853C131.29 44.8723 130.524 41.9807 129.238 39.596C128.649 38.5019 127.922 37.4446 126.949 36.7113C125.014 35.2561 122.178 34.534 119.562 33.7252C118.347 33.3488 116.612 32.698 115.244 32.8341C114.194 32.9379 113.129 33.6689 112.07 34.0907C111.064 34.4951 110.05 34.9254 109.053 35.2971C106.904 36.1014 104.768 36.4799 102.082 36.7655C101.808 38.1388 103.356 38.5691 103.227 39.6482C103.13 40.4611 101.394 40.7812 100.678 41.0624C99.644 41.4685 98.7782 41.8992 98.0259 42.3728C99.2941 43.7328 100.444 45.2118 103.331 44.9415C103.583 44.0334 104.361 43.4062 104.58 42.6342C104.7 42.2148 104.521 41.8255 104.892 41.5879C105.41 41.2528 106.128 41.6115 106.505 41.6917C108.317 42.0787 110.276 42.2128 112.071 41.9534C114.109 41.6593 115.576 41.4866 117.222 40.8528C117.838 40.617 118.181 40.3164 118.886 40.4334C120.047 40.6279 120.615 42.9308 120.915 44.3126C121.261 45.9107 121.344 47.872 120.967 49.3964C120.612 50.8366 120.135 52.2163 119.979 54.1666C119.922 54.8826 119.866 55.9702 119.822 56.8916C119.769 58.0161 119.909 58.9826 119.094 59.0409C118.442 59.0883 117.793 58.3099 117.325 57.9922C116.787 57.6267 116.032 57.1401 115.452 56.9974C113.679 56.5609 111.694 57.1445 109.938 57.4172C109.269 57.5189 108.533 57.6656 107.805 57.8345C107.119 57.9943 106.215 58.1007 105.724 58.3601C105.266 58.6024 104.641 59.502 104.423 59.8804C103.723 61.0977 103.399 64.2442 104.163 65.8031C104.374 66.2314 104.745 66.5924 105.048 66.8518C106.682 68.2441 109.341 68.9342 111.966 68.5817C114.391 68.253 116.794 67.3316 118.261 66.0126C120.304 64.1749 121.21 61.3267 121.591 58.2021C121.847 56.1002 122.094 53.0121 122.215 50.4458C122.233 50.0605 122.089 49.7213 122.267 49.0831C122.534 48.1211 124.078 48.3047 123.776 49.6585C125.778 48.8132 127.8 50.039 128.457 51.4403C129.562 53.797 127.725 56.1043 126.325 57.0493C126.087 57.209 125.573 57.2957 125.596 57.7305C125.851 57.8335 126.138 57.5523 126.325 57.4161ZM118.73 51.9126C119.036 50.4229 119.623 49.093 119.718 47.6659C119.86 45.5336 119.194 43.7475 118.574 42.1107C115.222 43.155 110.151 44.4071 106.037 43.1595C105.353 44.3921 104.648 45.6029 104.164 47.0366C104.975 46.9936 105.552 46.9158 106.296 46.9847C108.771 47.2181 110.594 49.4261 110.302 52.2784C110.203 53.2408 109.709 54.0516 109.21 54.6376C109.089 54.7782 108.633 55.1781 108.637 55.2669C108.646 55.4743 109.247 55.7422 109.418 55.948C110.921 55.7146 112.704 55.3122 114.359 55.3187C116.048 55.3256 117.248 56.0777 118.314 56.7353C118.348 54.9857 118.416 53.4373 118.73 51.9126ZM127.209 66.3252C125.629 64.7336 124.962 62.1843 124.4 59.563C124.227 58.7566 123.801 57.4482 124.036 56.7865C124.186 56.3627 124.846 56.1681 125.337 55.8416C126.283 55.2123 127.446 54.1202 127.209 52.5395C127.002 51.1577 124.779 50.3837 123.672 51.4932C123.71 51.9146 123.587 52.1764 123.62 52.5937C124.167 52.4207 126.36 50.9802 126.325 52.4357C126.311 53.0346 125.577 53.2012 125.077 53.4305C124.487 53.7028 124.031 53.9581 123.516 54.1656C123.245 59.5716 122.4 64.3981 119.407 67.0579C119.703 67.5551 120.29 68.1025 120.342 68.9458C120.394 69.7826 119.886 70.9268 119.145 70.9374C118.688 70.9459 118.379 70.6303 118.365 70.2044C118.353 69.8194 118.8 69.5037 118.782 69.0516C118.76 68.539 118.373 68.4656 118.21 68.0029C117.62 68.3339 117.038 68.6755 116.389 68.9458C116.232 70.332 115.485 71.0476 115.452 72.4577C115.427 73.5454 115.915 74.7347 116.648 75.1821C117.251 75.5516 118.421 75.6837 119.301 75.7595C122.648 76.0513 125.693 75.4588 127.625 74.3968C130.723 72.6929 132.709 70.4439 133.972 67.635C131.215 67.7029 128.56 67.6855 127.209 66.3252ZM157.33 118.792C157.678 114.579 156.566 110.242 154.625 108.205C153.42 106.942 151.562 106.862 149.474 106.475C143.862 105.434 138.163 104.431 132.567 103.382C130.248 102.948 127.968 102.323 125.804 102.124C125.598 102.104 125.287 102.167 125.076 102.124C124.583 102.024 123.796 101.216 123.255 100.813C119.627 98.1212 116.063 95.4982 112.019 93.2148C111.297 92.806 110.237 92.1272 109.521 92.376C108.118 92.8627 107.161 94.0581 106.191 95.2065C105.348 96.2033 104.418 97.1742 104.007 98.0888C105.248 98.4195 105.949 97.4919 106.816 96.7783C107.189 96.4712 107.596 96.147 108.012 95.7815C108.435 95.4116 108.854 94.9123 109.313 94.8904C110.052 94.8584 110.272 95.414 110.822 95.6777C111.213 95.2928 113.044 94.2008 113.007 95.6777C112.988 96.4019 111.635 97.0616 111.03 97.5632C109.454 98.8693 108.741 100.238 107.96 102.282C107.374 103.815 106.843 105.169 107.18 106.998C108.09 105.488 108.691 103.804 109.938 102.23C110.453 101.579 111.054 100.999 111.758 100.29C112.154 99.892 113.124 98.5969 113.891 98.6638C114.255 98.6966 114.561 99.1095 114.567 99.3992C114.584 100.106 113.143 101.095 112.746 101.494C112.052 102.195 111.351 102.865 110.874 103.54C109.714 105.177 109.075 106.935 108.169 108.676C108.542 109.225 108.948 109.742 109.469 110.144C110.282 108.542 110.917 106.89 112.278 105.426C112.856 104.807 113.439 104.284 114.255 103.644C114.711 103.287 115.775 102.113 116.597 102.229C116.96 102.279 117.22 102.634 117.222 102.962C117.224 103.434 116.731 103.715 116.389 103.959C115.247 104.772 114.129 105.618 113.32 106.526C112.301 107.67 111.578 109.29 110.927 110.667C110.848 110.834 110.68 111.052 110.77 111.245C111.504 111.591 112.29 111.02 112.903 110.615C114.099 109.828 115.16 108.74 116.233 107.785C116.753 107.32 117.342 106.414 118.053 106.474C118.47 106.509 118.739 106.894 118.731 107.261C118.705 108.243 117.323 108.408 117.014 109.253C118.889 110.209 120.391 111.729 122.476 112.345C123.293 112.585 124.105 112.542 124.921 112.501C125.706 112.464 126.649 112.224 127.522 112.345C128.037 112.417 128.632 112.759 129.239 112.975C138.056 116.101 147.06 119.404 156.133 122.042C157.11 121.363 157.229 120.02 157.33 118.792ZM113.007 112.398C114.133 117.081 115.398 121.625 116.492 126.339C122.399 127.855 128.613 129.604 134.543 131.161C135.421 131.392 136.329 131.756 137.144 131.844C139.193 132.064 141.322 132.002 143.388 132.051C149.707 132.205 155.753 132.59 162.064 132.735C161.646 129.922 161.071 127.268 160.607 124.505C160.203 124.507 159.712 124.52 159.254 124.453C156.458 124.044 153.681 123 150.93 122.146C143.498 119.843 136.455 117.159 129.237 114.599C128.529 114.348 127.777 113.969 127.208 113.917C126.593 113.861 126.032 114.049 125.491 114.075C123.302 114.175 122.037 113.898 120.601 113.184C118.884 112.328 117.448 111.407 115.816 110.248C114.921 111.007 113.992 111.732 113.007 112.398ZM107.388 110.354C105.38 114.393 103.334 118.394 101.301 122.407C105.828 123.491 110.367 124.842 114.828 125.815C113.697 121.573 112.634 117.263 111.551 112.975C109.311 112.96 108.691 111.312 107.388 110.354ZM143.231 133.626C142.347 133.591 141.144 133.353 140.475 133.52C140.049 133.626 140.049 134.017 139.486 134.043C139.018 134.067 138.404 133.796 137.769 133.625C136.007 133.145 134.254 132.726 132.567 132.261C120.935 129.067 109.902 126.029 98.1282 123.194C93.4021 122.057 88.5633 120.673 82.9382 120.941C80.2824 121.066 78.1789 121.715 76.5917 122.984C75.0753 124.198 74.1309 125.806 73.002 127.597C71.9344 129.29 70.9484 131.011 70.0369 132.839C66.3703 140.187 62.8707 147.658 59.3725 155.062C58.4861 156.937 57.4367 158.781 56.8755 160.827C58.442 162.903 60.8049 164.421 63.3785 165.649C65.7413 166.778 69.0648 168.144 72.4303 167.275C72.8435 165.111 73.0847 162.907 73.4698 160.775C73.8552 158.645 74.1567 156.478 74.8748 154.642C76.2957 151.011 78.961 148.728 82.6774 147.409C81.937 146.903 79.9968 147.059 80.1811 145.785C80.281 145.088 81.0621 145.192 81.5857 145.366C83.3047 145.932 84.9502 146.629 86.3711 147.147C101.424 152.636 116.186 158.243 131.423 163.396C133.618 164.14 135.83 164.948 138.186 165.387C140.639 165.846 143.183 166.196 145.988 166.33C151.629 166.603 155.594 164.315 158.631 161.562C161.769 158.716 164.076 155.438 164.457 149.82C164.547 148.483 164.314 147.061 164.144 145.733C163.631 141.692 163.024 138.216 162.376 134.307C156.188 134.08 149.499 133.862 143.231 133.626ZM89.9093 150.135C88.3339 149.56 86.7921 148.821 85.2272 148.406C85.1554 148.386 85.0857 148.442 85.0189 148.457C82.6838 149.013 80.9669 149.686 79.4 150.975C77.934 152.181 76.8105 153.721 76.1226 155.849C75.4645 157.884 75.0797 160.256 74.719 162.611C72.899 174.458 71.2688 186.737 69.5681 198.407C75.6518 199.181 81.6846 200.003 87.7246 200.82C90.7967 188.899 93.7266 176.457 96.8804 164.496C97.0779 163.746 97.3729 162.544 97.7644 162.347C98.3524 162.053 99.8076 162.243 100.782 162.243C108.175 162.243 115.468 162.079 122.579 161.981C111.677 158.167 100.684 154.071 89.9093 150.135ZM52.8695 165.912C52.7384 166.507 52.5443 167.515 52.6615 168.114C52.8383 169.02 54.1918 170.272 55.0542 170.996C56.1015 171.874 57.1695 172.56 58.2276 173.144C60.726 174.526 63.1864 175.672 66.1356 175.871C67.0068 175.929 68.0703 175.862 68.6326 175.661C69.7947 175.243 70.7252 173.377 71.2339 172.359C71.4504 171.924 71.7813 171.481 71.91 171.1C72.1288 170.454 72.0086 169.79 72.2223 169.005C70.02 169.426 67.7259 168.927 65.7715 168.324C61.1538 166.894 57.1586 164.258 54.9502 160.671C54.1959 162.085 53.2922 163.999 52.8695 165.912ZM52.4529 170.732C52.1243 171.336 51.7124 171.902 51.2562 172.62C50.6458 173.582 49.8797 174.234 50.3207 175.555C50.5899 176.363 51.6064 177.391 52.3489 178.072C54.8523 180.368 59.9185 183.121 64.106 181.374C64.7198 180.052 65.3809 178.779 65.9273 177.391C60.012 176.606 55.8593 174.046 52.4529 170.732ZM54.1701 181.374C52.0315 180.098 50.0825 178.437 48.9163 176.394C48.5096 176.921 47.6468 177.183 46.8868 177.494C45.7497 177.964 44.6228 178.396 43.5057 178.857C42.8821 179.116 42.2809 179.505 41.7884 179.54C41.0148 179.592 40.0671 179.242 39.2399 179.067C38.4009 178.891 37.5799 178.667 36.6915 178.543C38.2797 180.946 39.4577 184.741 38.7718 189.182C42.749 190.298 46.9403 191.39 50.9967 192.486C51.5292 192.629 52.3953 193.016 52.7652 192.957C52.9359 192.929 53.3542 192.527 53.5981 192.328C55.6168 190.678 57.6843 189.584 60.4652 188.816C61.297 187.035 62.3538 185.199 63.0137 183.417C59.3864 183.947 56.5124 182.773 54.1701 181.374ZM54.5864 193.533C54.1573 193.879 53.5733 194.523 53.0778 194.582C52.523 194.647 51.7246 194.301 50.9967 194.111C47.4609 193.185 44.4314 192.316 40.9569 191.384C39.9976 191.129 37.484 190.804 37.2117 190.021C37.0688 189.615 37.2192 188.916 37.2632 188.346C37.3127 187.716 37.3601 187.065 37.3672 186.563C37.4088 183.813 36.8916 182.239 35.9625 180.483C35.7007 179.986 35.0084 178.429 34.5064 178.176C34.2219 178.033 33.6556 178.033 33.2057 177.968C32.0016 177.789 30.1065 177.454 28.8875 177.601C27.6308 177.752 26.8023 178.65 26.2346 179.696C25.7828 180.529 25.373 181.726 25.4546 182.843C25.5789 184.547 26.8989 185.77 27.8991 186.877C28.8617 187.941 29.7448 188.776 30.7599 189.55C32.9568 191.226 35.4023 192.206 38.2512 193.114C44.3092 195.045 49.6541 196.314 56.5632 196.836C57.5407 194.833 58.5484 192.861 59.4765 190.809C57.5532 191.334 56.0263 192.374 54.5864 193.533ZM67.9037 201.028C67.5507 201.798 67.4186 203.606 67.2276 205.013C67.0227 206.523 66.5309 208.179 66.9668 209.154C67.4027 210.127 68.4673 210.119 69.8289 210.307C74.5991 210.962 79.1524 211.531 83.9781 212.192C84.8354 212.311 85.8464 212.534 86.3714 212.402C87.5881 212.098 87.6741 210.871 87.8801 209.52C88.0935 208.129 88.2489 206.879 88.4532 205.485C88.5595 204.754 88.7299 203.967 88.5561 203.439C88.1893 202.321 87.0214 202.312 85.695 202.129C83.2119 201.789 80.908 201.493 78.6724 201.186C76.1388 200.838 74.0517 200.554 71.7013 200.243C70.9094 200.137 69.8279 199.927 69.2043 200.033C68.6316 200.131 68.1398 200.516 67.9037 201.028ZM66.7073 218.797C72.1352 218.797 77.5628 218.797 82.9907 218.797C83.1408 217.114 83.2956 215.436 83.406 213.713C78.2111 212.988 72.9722 212.311 67.7482 211.617C67.3082 213.916 67.0207 216.37 66.7073 218.797ZM66.4475 220.578C66.352 221.945 65.8294 222.674 65.3552 223.724C65.09 224.31 64.8732 225.229 64.4708 225.61C64.1778 225.887 63.5265 226.006 63.0651 226.187C61.5447 226.789 60.1204 227.379 58.6954 227.917C60.3564 229.511 61.3675 232.214 62.3376 234.679C67.2933 234.64 72.2233 234.575 77.1123 234.469C78.3185 232.069 79.9528 230.159 81.6376 228.179C81.9759 227.781 83.1821 226.647 83.2505 226.135C83.2945 225.807 83.1035 225.249 83.0422 224.825C82.8319 223.378 82.7963 222.037 82.8864 220.422C77.4233 220.422 71.9608 220.422 66.499 220.422C66.4391 220.431 66.4431 220.505 66.4475 220.578ZM83.6143 228.231C82.1009 229.889 80.47 231.849 79.1917 234.05C78.8076 234.711 78.2809 235.829 77.7881 235.99C77.3254 236.137 76.5206 236.059 75.8117 236.094C75.1054 236.128 74.3372 236.094 73.7296 236.094C70.757 236.094 68.5418 236.199 65.5107 236.199C64.6198 236.199 62.1547 236.526 61.4532 236.145C61.1246 235.968 60.9949 235.365 60.7768 234.835C59.9774 232.897 59.237 230.908 58.019 229.541C57.6894 229.172 57.3534 228.773 56.9266 228.493C54.3768 229.165 51.9001 229.429 50.4246 231.114C48.9265 232.826 48.3761 235.224 47.5625 237.717C59.4592 237.562 71.3786 237.428 83.302 237.3C83.6529 234.595 84.2324 231.083 83.6143 228.231Z" fill="#222222"/>
<path fill-rule="evenodd" clip-rule="evenodd" d="M114.359 45.6746C114.675 45.6377 115.298 45.6227 115.712 45.7264C116.516 45.9298 118.081 46.5267 118.053 47.3529C118.041 47.6945 117.811 48.0382 117.429 48.0856C116.645 48.1832 116.063 47.3161 115.192 47.1949C114.442 47.0908 113.804 47.329 113.319 47.5106C112.675 47.7484 111.087 48.5617 111.134 47.2468C111.161 46.4902 112.559 46.0425 113.319 45.8329C113.683 45.7326 113.961 45.7196 114.359 45.6746Z" fill="#222222"/>
<path fill-rule="evenodd" clip-rule="evenodd" d="M113.735 57.3622C114.199 57.2435 114.671 57.4615 114.722 57.9393C114.814 58.774 113.601 59.6391 112.799 59.9309C112.136 60.1732 109.259 60.6315 109.938 59.0402C110.222 58.3717 111.712 58.7658 112.486 58.3591C113.216 57.9762 113.063 57.5352 113.735 57.3622Z" fill="#222222"/>
<path fill-rule="evenodd" clip-rule="evenodd" d="M126.434 45.8754C129.322 45.8754 131.698 48.7926 131.742 52.3929C131.784 55.9912 129.479 58.9104 126.591 58.9104C123.704 58.9104 121.327 55.9912 121.284 52.3929C121.24 48.7922 123.546 45.8754 126.434 45.8754Z" fill="#222222"/>
<path fill-rule="evenodd" clip-rule="evenodd" d="M113.199 32.2089C112.594 32.3256 120.602 30.9916 123.927 39.773C125.925 45.0493 124.802 47.8842 124.802 47.8842L126.883 47.7784C126.883 47.7784 126.914 42.8178 125.89 38.2721C124.743 33.1798 118.614 31.9601 118.61 31.9471L113.199 32.2089Z" fill="#222222"/>
<path fill-rule="evenodd" clip-rule="evenodd" d="M60.1821 118.026H126.216C127.652 118.026 128.818 119.199 128.818 120.647V123.791C128.818 125.24 127.652 126.412 126.216 126.412H60.1821C58.7452 126.412 57.5811 125.24 57.5811 123.791V120.647C57.5807 119.199 58.7449 118.026 60.1821 118.026Z" fill="white"/>
<path d="M126.216 127.198H60.1822C58.3179 127.198 56.8008 125.67 56.8008 123.791V120.647C56.8008 118.768 58.3179 117.24 60.1822 117.24H126.216C128.081 117.24 129.599 118.768 129.599 120.647V123.791C129.599 125.67 128.082 127.198 126.216 127.198ZM60.1822 118.813C59.1792 118.813 58.3623 119.636 58.3623 120.647V123.791C58.3623 124.802 59.1792 125.625 60.1822 125.625H126.216C127.221 125.625 128.038 124.802 128.038 123.791V120.647C128.038 119.636 127.221 118.813 126.216 118.813H60.1822Z" fill="#222222"/>
<path fill-rule="evenodd" clip-rule="evenodd" d="M44.2275 86.5742H96.4262C97.863 86.5742 99.4072 87.569 99.8763 88.7948L111.148 118.273C111.618 119.499 109.622 122.202 108.185 122.202H55.9941C54.5573 122.202 53.0117 121.209 52.543 119.983L41.2729 90.5227C40.8051 89.2985 42.7897 86.5742 44.2275 86.5742Z" fill="white"/>
<path d="M108.185 122.988H55.9941C54.2335 122.988 52.3983 121.792 51.8154 120.265L40.5446 90.8055C40.1196 89.6913 40.9064 88.3498 41.2648 87.8239C41.9354 86.8397 43.0657 85.7872 44.2268 85.7872H96.4258C98.1844 85.7872 100.021 86.9844 100.605 88.5119L111.877 117.99C112.299 119.094 111.524 120.419 111.17 120.939C110.496 121.93 109.358 122.988 108.185 122.988ZM44.2268 87.3605C43.8573 87.3605 43.129 87.8666 42.5509 88.7143C42.0502 89.449 41.9286 90.0486 42.0008 90.2404L53.2715 119.7C53.6272 120.629 54.873 121.415 55.9941 121.415H108.185C108.563 121.415 109.301 120.904 109.883 120.049C110.372 119.331 110.492 118.743 110.42 118.557L99.1481 89.0787C98.7917 88.1471 97.5446 87.3605 96.4258 87.3605H44.2268Z" fill="#222222"/>
<path fill-rule="evenodd" clip-rule="evenodd" d="M73.3651 103.019C75.6928 103.019 78.1427 104.835 78.8381 107.078C79.5335 109.32 78.2115 111.139 75.8828 111.139C73.5562 111.139 71.1052 109.32 70.4098 107.078C69.7145 104.835 71.0375 103.019 73.3651 103.019Z" fill="#222222"/>
<path fill-rule="evenodd" clip-rule="evenodd" d="M68.4336 134.186C68.4336 134.186 73.7927 119.892 82.8049 120.197C91.8171 120.504 118.237 127.655 118.237 127.655L106.753 131.902L68.4336 134.415V134.186Z" fill="white"/>
<path fill-rule="evenodd" clip-rule="evenodd" d="M99.6896 121.99C94.2458 120.787 88.6333 118.861 81.8458 119.473C75.4631 120.05 73.0291 124.189 70.4525 128.749C67.7407 133.552 65.3081 138.703 62.915 143.861H64.6737C66.435 140.172 68.2149 136.489 70.0372 132.839C70.9487 131.012 71.9347 129.29 73.0023 127.597C74.1312 125.806 75.0756 124.198 76.592 122.984C78.1792 121.715 80.2826 121.067 82.9385 120.941C88.5635 120.673 93.4024 122.057 98.1285 123.194C103.107 124.392 116.393 127.886 121.207 129.154L122.596 127.947C118.801 127.039 105.133 123.324 101.302 122.407C100.522 122.232 100.223 122.12 99.6896 121.99Z" fill="#222222"/>
<path fill-rule="evenodd" clip-rule="evenodd" d="M109.522 92.3756C110.237 92.1271 111.298 92.8059 112.019 93.2144C116.064 95.4978 119.628 98.1208 123.256 100.813C123.797 101.215 124.583 102.024 125.077 102.123C125.287 102.167 125.598 102.104 125.804 102.123C127.969 102.322 130.248 102.947 132.567 103.382C134.694 103.78 136.835 104.171 138.98 104.563V102.95C135.421 102.314 131.864 101.68 128.354 101.023C127.344 100.835 126.204 100.757 125.388 100.448C124.84 100.238 124.2 99.6169 123.619 99.1889C120.591 96.9574 117.683 94.8579 114.516 92.8984C113.251 92.1155 111.84 91.0778 110.457 90.803C109.32 90.5758 108.372 91.162 107.596 91.5879C107.178 90.7208 107.254 89.5663 106.765 88.5476C106.662 88.3357 106.513 88.1692 106.346 88.02H103.996C104.424 88.5237 105.176 88.8998 105.412 89.3868C105.677 89.9318 105.692 90.5607 105.828 91.0648C105.977 91.6139 106.119 92.107 106.296 92.6889C105.568 93.5536 104.924 94.3778 104.111 95.3094C103.509 96.0015 102.153 97.1175 102.342 98.4016C102.496 99.4394 104.142 100.034 105.464 99.6599C106.171 99.4609 106.975 98.702 107.596 98.1918C107.921 97.9256 108.223 97.6208 108.533 97.3526C108.849 97.0803 109.17 96.6847 109.573 96.6714C108.345 97.7959 107.509 99.3398 106.712 101.338C106.023 103.066 105.035 105.278 105.724 107.468C105.896 108.015 106.155 108.385 106.4 108.936C106.86 109.473 107.017 109.97 107.388 110.353C108.691 111.311 109.311 112.959 111.551 112.974C111.639 113.326 111.728 113.679 111.817 114.031C111.845 113.994 111.873 113.958 111.901 113.921C112.263 113.558 112.707 113.292 113.189 113.143C113.129 112.894 113.067 112.645 113.007 112.397C113.993 111.73 114.922 111.006 115.817 110.247C117.449 111.406 118.885 112.327 120.602 113.184C122.038 113.897 123.303 114.174 125.492 114.075C126.033 114.049 126.595 113.861 127.209 113.917C127.778 113.968 128.53 114.347 129.239 114.598C132.504 115.757 135.734 116.94 138.981 118.101V116.434C135.712 115.283 132.462 114.116 129.239 112.974C128.631 112.758 128.037 112.416 127.522 112.345C126.649 112.224 125.706 112.463 124.92 112.5C124.105 112.542 123.292 112.585 122.476 112.345C120.391 111.728 118.889 110.208 117.013 109.252C117.323 108.407 118.705 108.242 118.73 107.261C118.739 106.893 118.469 106.508 118.053 106.474C117.342 106.413 116.753 107.319 116.232 107.784C115.16 108.74 114.099 109.828 112.903 110.614C112.289 111.019 111.504 111.59 110.77 111.244C110.68 111.051 110.847 110.833 110.927 110.666C111.578 109.289 112.301 107.669 113.32 106.525C114.129 105.617 115.247 104.772 116.389 103.958C116.731 103.714 117.224 103.433 117.221 102.962C117.219 102.633 116.959 102.278 116.597 102.229C115.775 102.112 114.711 103.286 114.255 103.643C113.439 104.283 112.856 104.806 112.278 105.425C110.916 106.889 110.282 108.541 109.469 110.143C108.948 109.741 108.542 109.224 108.169 108.675C109.075 106.934 109.713 105.176 110.873 103.539C111.351 102.864 112.052 102.194 112.746 101.493C113.143 101.094 114.583 100.105 114.567 99.3985C114.561 99.1084 114.255 98.6955 113.891 98.6631C113.124 98.5965 112.153 99.8913 111.757 100.289C111.054 100.999 110.453 101.578 109.938 102.229C108.69 103.803 108.09 105.488 107.179 106.997C106.843 105.168 107.374 103.814 107.96 102.281C108.741 100.238 109.454 98.8685 111.03 97.5625C111.635 97.0608 112.988 96.4012 113.006 95.677C113.044 94.2 111.214 95.292 110.821 95.677C110.272 95.4132 110.052 94.8576 109.313 94.8897C108.853 94.9115 108.435 95.4108 108.012 95.7807C107.596 96.1462 107.189 96.4704 106.816 96.7776C105.949 97.4911 105.248 98.4187 104.006 98.088C104.418 97.1734 105.348 96.2022 106.191 95.2057C107.162 94.058 108.118 92.8622 109.522 92.3756Z" fill="#222222"/>
</svg>
