<svg width="247" height="247" viewBox="0 0 247 247" fill="none" xmlns="http://www.w3.org/2000/svg">
<path d="M57.9687 134.874C58.6542 134.934 59.0418 135.093 59.5189 135.595C59.5737 135.814 59.6137 135.971 59.5501 136.197C59.4118 136.687 58.9917 136.884 58.585 137.119L58.0985 137.053C57.7296 136.974 57.4168 136.781 57.2176 136.455C57.1006 136.264 57.0108 135.986 57.0842 135.77C57.2414 135.308 57.5362 135.063 57.9687 134.874Z" fill="#222222"/>
<path d="M56.999 124.566L57.1736 124.565C57.5924 124.594 58.1254 124.912 58.3761 125.249C58.583 125.527 58.5287 125.832 58.4928 126.153C58.2342 126.583 57.9525 126.747 57.5246 126.997C57.0689 126.926 56.5385 126.811 56.2167 126.455C55.9244 126.132 55.9584 125.777 55.9733 125.369C56.2271 124.908 56.5349 124.788 56.999 124.566Z" fill="#222222"/>
<path d="M67.7022 124.453L68.3833 124.482C68.5529 124.57 68.667 124.655 68.7657 124.823C69.263 125.673 70.2255 127.973 70.019 128.929L69.5291 128.935C69.2211 128.878 69.1593 128.788 69.0146 128.519C68.6615 127.864 68.4567 127.058 68.1812 126.36C68.0189 125.948 67.7441 125.497 67.6539 125.068C67.6117 124.867 67.652 124.648 67.7022 124.453Z" fill="#222222"/>
<path d="M57.185 129.57L57.9511 129.534C58.3368 129.548 58.6716 129.791 58.8988 130.091C59.1502 130.424 59.1234 130.647 59.0964 131.038C58.8781 131.506 58.6593 131.68 58.2358 131.967C58.0623 131.989 57.885 132.018 57.7099 131.99C57.3611 131.934 56.9482 131.734 56.7308 131.449C56.5034 131.15 56.4216 130.676 56.5207 130.314C56.6293 129.918 56.8623 129.778 57.185 129.57Z" fill="#222222"/>
<path d="M130.374 80.3495C130.708 80.4327 130.842 80.5087 130.886 80.8589C131.115 82.6596 131.602 84.2525 132.663 85.7519C132.992 86.2165 133.485 86.6157 133.76 87.1039C133.899 87.3499 133.752 87.6179 133.684 87.8847C133.502 87.8297 133.317 87.7708 133.148 87.6808C132.806 87.498 132.551 87.0964 132.323 86.7949C131.544 85.7661 130.83 84.7485 130.484 83.4864C130.245 82.6118 129.911 81.1633 130.374 80.3495Z" fill="#222222"/>
<path d="M148.178 114.808C148.614 114.88 148.994 114.947 149.293 115.301C149.67 115.748 150.003 116.386 149.92 116.987C149.829 117.656 149.374 118.015 148.873 118.404C148.302 118.292 147.81 118.092 147.477 117.592C147.169 117.132 147.111 116.648 147.219 116.114C147.353 115.451 147.622 115.164 148.178 114.808Z" fill="#222222"/>
<path d="M160.838 120.88C161.157 120.843 161.6 120.763 161.913 120.834C162.249 120.909 162.554 121.132 162.732 121.427C162.972 121.822 162.98 122.363 162.841 122.794C162.644 123.404 162.211 123.623 161.672 123.89C161.241 124.049 160.924 124.091 160.466 124.091C160.268 123.913 160.119 123.781 160.021 123.527C159.911 123.239 159.711 122.533 159.777 122.234C159.833 121.981 160.112 121.626 160.216 121.362C160.322 121.097 160.593 121.02 160.838 120.88Z" fill="#222222"/>
<path d="M160.302 121.677C160.741 121.67 160.876 121.618 161.246 121.872C161.469 121.794 161.563 121.81 161.792 121.834C162.013 122.195 161.93 122.256 161.839 122.655C161.623 122.787 161.466 122.875 161.212 122.896C160.943 122.917 160.924 122.863 160.73 122.691C160.398 122.396 160.338 122.103 160.302 121.677Z" fill="white"/>
<path d="M153.295 52.8756C153.69 52.8247 154.291 52.749 154.639 52.9786C154.867 53.1291 154.811 53.1786 154.851 53.4282L154.677 53.6617C153.584 54.2293 151.589 53.9936 150.362 54.0271C148.822 54.0694 147.233 54.1287 145.696 54.2452L144.304 54.339C144.039 54.127 144.001 54.1111 143.904 53.79L144.101 53.5141C145.492 53.035 147.24 53.1947 148.705 53.1491C150.236 53.1016 151.768 52.9957 153.295 52.8756Z" fill="#222222"/>
<path d="M171.825 44.4344L172.275 44.5637C172.442 44.8085 172.602 44.9373 172.513 45.254C172.282 46.0816 171.206 46.7763 170.717 47.4775C170.384 47.9551 170.313 48.5304 169.881 48.9696C169.458 49.3997 168.762 49.4771 168.259 49.7955C167.539 50.2514 166.802 51.1388 166.246 51.7858C166.01 52.0605 165.863 52.3128 165.531 52.4718C165.34 52.2918 165.198 52.17 165.103 51.9206C165.235 51.4121 165.746 51.0006 166.104 50.6292C166.671 49.9955 167.422 49.475 168.037 48.8724C168.335 47.9278 166.672 47.2674 166.557 46.2683C166.527 46.0129 166.558 46.051 166.702 45.8701C166.906 45.8824 167.093 45.8995 167.287 45.9692C167.906 46.1916 168.538 47.3055 168.834 47.8634L171.825 44.4344Z" fill="#222222"/>
<path d="M156.022 68.917C159.023 68.6319 162.22 68.8133 165.24 68.8114C166.008 68.8109 167.856 68.6112 168.422 69.0466C168.482 69.3462 168.461 69.4154 168.369 69.7099C168.267 69.7861 168.184 69.8961 168.064 69.9388C167.469 70.1499 166.298 69.8522 165.652 69.8339C163.814 69.782 161.964 69.8175 160.125 69.8199C156.702 69.7632 153.315 69.8305 149.905 70.1383C149.367 70.187 148.203 70.4446 147.768 70.1832L147.743 69.8305C147.823 69.7413 147.888 69.6359 147.983 69.5625C148.307 69.3117 149.46 69.3346 149.906 69.3047C151.944 69.1681 153.982 69.0434 156.022 68.917Z" fill="#222222"/>
<path d="M168.255 59.7692C168.681 59.6956 169.08 59.7026 169.511 59.714C169.845 60.0133 169.877 60.0519 169.994 60.4837L169.807 60.7676C169.267 61.0609 168.392 60.9483 167.777 60.9398C166.588 60.9236 165.369 60.8882 164.182 60.9417C160.881 61.0903 157.495 61.1603 154.205 61.4425C152.604 61.5797 150.995 61.8292 149.401 62.0354L148.043 62.2009C147.756 61.9753 147.768 61.99 147.709 61.6294C148.203 61.0242 149.464 61.0821 150.213 60.9808C153.111 60.5888 155.925 60.5565 158.83 60.3761C160.478 60.2738 162.133 60.0234 163.782 59.9607C165.272 59.9038 166.779 60.0152 168.255 59.7692Z" fill="#222222"/>
<path d="M119.61 64.4414L120.545 64.4105C120.829 64.6513 120.82 64.6373 120.87 65.0063C120.783 65.0973 120.716 65.215 120.607 65.2789C120.129 65.5601 118.976 65.5519 118.411 65.6175C116.768 65.8081 115.141 66.0315 113.506 66.2833C110.122 66.8045 106.723 67.4688 103.389 68.2436C102.353 68.4841 101.373 68.8862 100.344 69.1419C99.2417 69.4156 98.107 69.5358 96.9924 69.7509L96.1226 69.8952L95.8961 69.7099L95.8823 69.2275C96.3573 68.6189 99.3425 68.4742 100.232 68.289C102.486 67.8193 104.66 67.0392 106.929 66.5735C111.126 65.7119 115.394 65.2 119.61 64.4414Z" fill="#222222"/>
<path d="M121.014 73.7435C121.294 73.7522 121.314 73.8024 121.541 73.9471C121.557 74.2397 121.597 74.3507 121.35 74.5608C121.304 74.5998 121.251 74.6317 121.196 74.6565C120.516 74.9643 119.421 74.9506 118.676 75.0412C117.09 75.2347 115.5 75.4426 113.918 75.6737C109.915 76.2586 105.949 77.0223 101.964 77.7122C100.144 78.0274 98.4278 78.5009 96.5604 78.5014C96.2301 78.4165 96.0796 78.3229 95.821 78.116C95.8387 77.7734 95.8435 77.7616 96.0623 77.4973C97.7536 77.6649 99.5825 77.1726 101.242 76.8781C103.586 76.4622 105.93 76.0478 108.277 75.6462C112.493 74.9245 116.768 74.2629 121.014 73.7435Z" fill="#222222"/>
<path d="M166.195 43.4334C166.767 43.3967 167.208 43.3473 167.702 43.6411C167.779 43.981 167.758 43.9998 167.617 44.3225C167.407 44.4077 167.296 44.4019 167.082 44.351L166.858 44.295C166.717 44.3621 166.595 44.4137 166.439 44.4335C165.27 44.5804 163.956 45.7927 163.248 46.6972C162.834 47.226 162.128 48.3715 162.24 49.0449L162.279 49.2608C162.257 50.0674 162.277 50.8323 162.703 51.5801C163.323 52.6684 164.414 53.792 165.636 54.1328C166.849 54.471 167.986 54.2201 169.068 53.6154C170.743 52.6795 171.842 51.2749 172.39 49.4442L172.361 49.3399L172.308 49.1672C172.188 48.7574 172.076 48.4656 171.824 48.1127C171.661 47.8835 171.55 47.74 171.49 47.4583C171.871 47.1729 171.853 47.1782 172.328 47.2173C172.693 47.5849 173.083 48.0384 173.234 48.5425C173.518 49.4936 173.148 50.5887 172.709 51.4279C171.866 53.0384 169.894 54.5769 168.15 55.0711C166.699 55.4821 165.497 55.3934 164.187 54.6034C162.73 53.7254 161.711 52.2311 161.334 50.5834C160.977 49.0194 161.499 47.6469 162.336 46.3378C163.235 44.933 164.556 43.8044 166.195 43.4334Z" fill="#222222"/>
<path d="M151.611 37.4501C153.101 37.5816 154.712 37.4294 156.225 37.4759C162.322 37.6629 168.414 37.8117 174.363 39.2874C175.045 39.4565 176.319 39.6075 176.859 40.0752C177.069 40.2569 177.009 40.3232 177.026 40.5837C176.547 40.8411 175.852 40.5191 175.356 40.3702C171.078 39.0868 166.318 38.8885 161.877 38.6564C149.882 38.0298 137.698 38.5486 125.766 39.9172C121.931 40.357 118.113 41.0625 114.31 41.7145L91.9345 46.7206C91.5842 46.8125 91.4779 46.8588 91.1578 46.6769L91.1226 46.3993C91.6115 45.8648 93.6478 45.5464 94.3994 45.3336C96.3426 44.7839 98.2629 44.185 100.225 43.6985C102.623 43.1034 105.07 42.703 107.492 42.2177C111.015 41.5116 114.526 40.7586 118.073 40.1676C120.473 39.7677 122.919 39.5571 125.309 39.1521C128.812 38.5585 132.394 38.3581 135.933 38.1226C141.161 37.7748 146.373 37.537 151.611 37.4501Z" fill="#222222"/>
<path d="M128.33 48.7676C129.765 48.5565 131.065 49.0023 132.226 49.8576C133.255 50.6157 134.645 52.748 134.771 54.0257L134.782 54.183C134.876 55.3403 134.343 56.906 133.663 57.8521C132.546 59.4079 130.867 60.0753 129.05 60.3923L126.817 60.1822C125.476 59.9212 124.142 59.2894 123.377 58.1068C122.534 56.8018 122.412 55.3389 122.733 53.8393C122.958 52.791 123.244 51.7106 123.897 50.8352C124.968 49.3991 126.647 48.9782 128.33 48.7676Z" fill="#222222"/>
<path d="M128.53 49.6154C129.385 49.5165 130.195 49.8233 130.896 50.3081C132.424 51.3642 133.449 52.8758 133.691 54.7283C133.793 55.5033 133.343 56.5075 132.891 57.1134C131.951 58.3754 130.59 59.1017 129.064 59.3379C127.512 59.244 126.326 59.2197 125.008 58.2739C124.176 57.6771 123.623 56.762 123.472 55.7491C123.272 54.4157 123.735 52.4583 124.572 51.3779C125.609 50.0389 126.976 49.8368 128.53 49.6154Z" fill="white"/>
<path d="M130.788 51.7057L131.177 51.8L131.218 52.1886C131.22 52.4515 131.14 52.6814 130.971 52.8855C130.43 53.5401 129.685 54.1115 129.102 54.7478C128.465 55.4423 127.967 56.2472 127.299 56.9144C127.163 56.8879 127.071 56.876 126.937 56.8194C126.206 56.5089 125.817 55.4662 125.497 54.7934C125.339 54.4389 125.241 54.1072 125.153 53.7297L125.308 53.4885L125.671 53.4147C126.285 53.7618 126.76 55.1318 127.066 55.7684C128.315 54.4417 129.264 52.768 130.788 51.7057Z" fill="#222222"/>
<path d="M98.3797 50.0927C99.4635 49.941 100.702 49.9938 101.741 50.344C102.706 50.6697 103.751 51.3554 104.174 52.306C104.779 53.6665 104.746 55.9884 104.266 57.351L104.224 57.4684C104.275 57.6274 104.287 57.6387 104.299 57.8303C104.353 58.6902 103.566 59.8234 103.04 60.4754C101.963 61.8081 100.614 62.5042 98.9253 62.6945C97.6059 62.7536 96.3786 62.4671 95.2729 61.7282C93.9774 60.8623 93.006 59.414 92.7204 57.8758C92.3502 55.8837 92.438 53.899 93.6544 52.198C94.4403 51.0988 95.7848 50.5011 97.0931 50.2999L98.3797 50.0927Z" fill="#222222"/>
<path d="M97.8855 51.3034C99.0443 51.2183 100.627 51.0829 101.731 51.5017C102.579 51.8235 103.001 52.2839 103.344 53.1147C103.98 54.6553 103.829 57.303 103.156 58.8048C102.461 60.3536 101.088 61.1024 99.5721 61.647C99.072 61.7184 98.6316 61.7587 98.1296 61.6825L97.9318 61.6504C97.1264 61.5259 96.4966 61.3108 95.8263 60.8334C94.4003 59.8177 93.8481 58.7257 93.5792 57.0194C93.3481 55.5533 93.6438 53.749 94.5624 52.5599C95.286 51.6225 96.7837 51.4556 97.8855 51.3034Z" fill="white"/>
<path d="M102.245 53.001C102.531 53.1477 102.537 53.1327 102.655 53.4282C102.302 55.068 100.488 56.5714 99.5164 57.8877C99.0082 58.5766 98.635 59.3468 98.1128 60.0263C97.976 60.007 97.8873 60 97.751 59.9506C96.5415 59.5108 95.6377 57.7343 95.1869 56.6173C95.1589 56.2909 95.0948 55.8946 95.1459 55.5702C95.1958 55.2532 95.3268 55.231 95.576 55.0564L95.8367 55.1608C96.0053 55.5082 96.1373 55.8058 96.1831 56.193C96.3179 57.3296 97.0203 58.1077 97.7804 58.9143L102.245 53.001Z" fill="#222222"/>
<path d="M191.725 59.371C190.55 58.8099 189.366 58.2855 188.245 57.62C187.776 57.3421 187.242 57.0303 186.945 56.564C187.005 55.6129 187.518 55.1609 188.091 54.4621C188.817 53.5771 189.568 52.7242 190.427 51.9631C194.069 48.7326 199.831 46.7436 204.703 47.1421C208.75 47.4732 212.492 50.0856 215.011 53.1776C217.352 56.0502 218.484 61.0713 218.115 64.7078C217.929 66.539 217.219 68.3095 216.734 70.0718C216.423 71.1966 216.249 72.4116 216.118 73.5694L216.09 73.8082C215.782 76.5218 216.731 79.3495 218.42 81.4644C219.876 83.2863 221.901 84.0116 224.161 84.2377C225.175 84.339 226.234 84.2885 227.253 84.2931C227.501 84.2943 228.045 84.2459 228.246 84.399C228.361 84.4868 228.436 84.6166 228.532 84.7254C228.682 85.4927 228.619 85.8586 228.17 86.5036C226.729 88.5756 224.588 90.0916 222.203 90.8533C223.375 92.4058 224.545 94.032 225.274 95.85C226.462 98.8102 226.709 102.191 226.714 105.347C226.718 107.807 226.597 110.205 226.27 112.646C225.43 118.911 223.546 125.018 221.175 130.864C220.421 132.723 219.59 134.85 218.373 136.444C217.748 136.286 217.291 136.139 216.746 135.775L216.143 135.377C213.198 139.946 210.253 144.443 207.146 148.91C206.689 149.568 206.219 150.217 205.767 150.877C205.513 151.248 205.297 151.718 204.909 151.957C204.544 151.905 204.489 151.895 204.207 151.661C204.176 151.302 204.286 151.106 204.462 150.809C205.335 149.328 206.473 147.94 207.477 146.542C209.438 143.816 211.281 141.043 213.098 138.218C213.792 137.14 214.603 136.091 215.196 134.955C212.974 133.331 210.318 132.182 207.885 130.889C206.938 130.385 206.057 129.746 205.075 129.311C204.534 130.141 204.09 131.02 203.559 131.849C201.021 135.813 198.451 139.76 195.885 143.706C194.661 145.586 193.468 147.929 191.888 149.502C194.605 152.267 197.224 155.093 199.806 157.984C201.679 160.08 203.574 162.099 205.182 164.412C205.834 165.35 206.704 166.639 206.69 167.825C206.674 169.307 202.039 173.892 200.803 174.984C199.201 176.4 197.375 177.533 195.595 178.704C193.919 179.806 192.182 181.125 190.311 181.871C190.238 178.589 190.242 175.303 189.893 172.036C189.62 169.472 189.096 166.964 188.49 164.461C187.284 159.471 185.51 154.288 182.536 150.052L182.295 149.931C182.003 150.156 181.796 150.309 181.73 150.697C181.638 151.24 182.038 151.75 182.295 152.202C182.712 152.936 183.134 153.673 183.464 154.452C184.104 155.963 184.598 157.522 185.097 159.084C186.231 162.63 187.39 166.357 187.973 170.035C188.24 171.721 188.523 173.424 188.719 175.119C188.873 176.447 188.902 177.862 189.155 179.159C189.303 179.92 189.221 180.856 189.27 181.644C189.308 182.261 189.478 182.847 189.53 183.457C189.615 184.46 189.581 185.492 189.562 186.498C189.553 186.983 189.582 187.784 189.344 188.21C189 188.826 187.461 189.058 186.806 189.208C187.229 192.771 187.594 196.336 188.072 199.894C188.258 201.279 188.408 202.671 188.602 204.055C188.761 205.185 188.999 206.357 189.009 207.501C189.012 207.849 188.952 208.017 188.756 208.299C188.446 208.41 188.407 208.401 188.084 208.326C187.55 207.624 187.599 206.077 187.468 205.157C186.727 199.952 186.177 194.644 185.958 189.389C176 192.307 165.695 194.643 155.39 195.928C152.868 196.243 150.224 196.334 147.681 196.461C146.856 196.502 143.799 196.391 143.27 196.693L143.225 196.808C143.05 199.473 143.033 202.304 143.201 204.969C143.302 206.569 143.558 208.202 143.571 209.802C143.574 210.192 143.59 210.337 143.375 210.659C143.012 210.684 142.969 210.728 142.682 210.517C141.852 209.157 142.048 198.652 142.239 196.587C141.635 196.22 139.296 196.443 138.539 196.45L138.005 191.967L137.441 192.966C135.872 195.492 133.832 197.391 130.869 198.032C129.38 198.354 128.475 197.998 127.098 197.492C126.381 197.227 125.593 197.022 124.917 196.667C123.649 196.002 122.404 195.069 121.195 194.288C119.725 193.338 118.256 192.292 116.861 191.231C115.027 189.836 104.776 181.382 104.519 179.793C104.337 178.665 106.129 176.34 106.761 175.484L105.539 171.451C102.71 170.298 101.565 167.61 99.8027 165.346C96.8616 166.604 93.9457 168.084 91.0871 169.528C87.885 171.146 84.7367 172.823 81.4529 174.275C80.7331 174.593 79.7564 175.159 78.9857 175.228C78.6005 175.263 78.2455 175.165 77.9541 174.905C77.6755 174.657 77.5978 174.353 77.4941 174.01C76.5416 170.869 75.9067 167.662 75.0412 164.5C74.3535 161.988 73.407 159.448 72.8279 156.922C72.6807 156.28 72.659 155.575 72.6052 154.918L64.1059 153.953L63.8732 155.483C63.7359 156.117 63.4807 157.271 62.8958 157.614C62.3338 157.943 61.674 157.841 61.0512 157.831C60.3339 157.818 59.6184 157.841 58.9013 157.862C51.5601 158.079 44.2634 157.807 36.9656 157.033C33.0655 156.619 29.141 156.126 25.3301 155.166C23.0608 154.594 19.7222 153.527 18.5115 151.355C17.0705 148.769 17.7322 142.497 18.4478 139.7C19.7607 134.568 21.9661 129.59 24.7596 125.094C28.0044 119.873 31.9028 115.062 36.9859 111.513C38.9701 110.128 41.2061 108.85 43.3582 107.743C44.3037 107.257 45.2924 106.87 46.2071 106.323L46.3371 106.244C46.5475 105.342 47.1437 101.197 46.7949 100.585L46.1316 100.605C46.218 100.866 46.1869 100.744 46.2327 100.971L45.9507 101.058C44.5237 100.821 43.1066 99.6223 42.1528 98.5728C38.5494 94.6068 37.7216 89.6504 38.0129 84.447C38.1714 81.6169 39.547 78.4363 41.7249 76.5725C42.5998 75.8237 43.6483 75.0697 44.8033 74.8543C45.8221 74.6645 46.9874 74.8408 48.0157 74.9264C48.3995 74.2506 48.8165 73.6654 49.3424 73.0952C53.0594 69.0631 58.2235 66.8804 63.6744 66.6628C65.4736 66.5909 67.7214 66.6348 69.0983 67.9849C70.0875 68.9552 70.1379 70.0419 70.1832 71.3336C72.2391 70.4356 74.5161 69.9054 76.7714 70.2592L76.9463 70.2891L77.2968 70.3485C79.378 70.7696 81.5264 72.0365 82.6751 73.8427C83.2899 74.8092 83.5381 76.2803 83.2648 77.3964L83.2238 77.5494C82.8548 78.9703 82.2677 80.007 81.3378 81.1214C78.7221 84.2562 74.3914 85.5578 70.4761 85.9001L70.8473 87.2115C72.1223 91.8252 72.4639 96.4818 72.2492 101.248C72.1682 103.052 72.158 105.018 71.1889 106.618C69.5489 109.325 65.8021 110.313 62.9447 110.98C65.7493 111.885 68.3604 114.25 70.2228 116.479C71.9216 118.513 73.23 120.782 74.6999 122.974C75.1452 123.638 76.4721 125.239 76.4036 125.956L75.9431 126.109C75.4633 126.159 75.0957 125.815 74.7981 125.476C73.6825 124.205 72.9475 122.768 72.0208 121.369C69.9415 118.231 67.7386 115.596 64.8585 113.164C64.9786 115.088 64.7714 116.64 64.462 118.53C64.2999 119.519 64.1754 120.513 63.7564 121.434C63.5164 121.961 63.3203 122.308 62.7752 122.509C62.0631 122.301 61.5252 121.842 60.9444 121.399C59.3678 120.198 57.9396 118.762 56.4733 117.427C55.4785 118.785 54.4237 120.086 53.3892 121.414C52.7444 122.241 52.1411 123.277 51.2248 123.819C50.7141 123.859 50.5728 123.83 50.1116 123.569C49.0652 122.976 48.2473 121.565 47.5885 120.584C45.3829 117.297 43.1814 113.616 42.1065 109.781C39.8625 111.067 37.6798 112.332 35.6459 113.952C33.8089 115.414 32.1747 117.124 30.6632 118.913C27.5979 122.542 25.1781 126.613 23.1625 130.907C21.469 134.515 20.0717 138.21 19.4993 142.172C19.2547 143.866 19.0651 145.979 19.1761 147.681C19.2048 148.123 19.3454 148.544 19.376 148.984L19.403 149.406C19.4725 150.132 19.8394 151.103 20.44 151.551L20.577 151.648C22.4944 153.033 24.8069 153.681 27.0839 154.191C29.5131 154.736 31.9684 155.098 34.4329 155.437C39.5164 156.134 44.522 156.703 49.6601 156.889C52.9263 157.007 56.2246 156.918 59.494 156.909C59.254 154.341 59.385 151.963 59.6874 149.408C59.9547 147.15 60.3365 144.869 61.1673 142.745C59.2385 142.22 57.1996 141.988 55.2303 141.631C50.554 140.783 45.8759 139.983 41.1545 139.414C40.1585 139.295 39.1556 139.158 38.1538 139.103C37.2775 139.054 36.3848 139.081 35.5183 138.932C35.2771 138.698 35.165 138.604 35.0825 138.264C34.9025 137.522 35.2759 136.523 35.4585 135.804C35.7882 134.505 36.0953 133.201 36.4301 131.902C36.6086 131.211 36.6737 130.405 37.0259 129.781C37.3402 129.729 37.3501 129.743 37.6342 129.892C37.7529 130.425 37.566 131.166 37.4941 131.721C37.2324 133.74 36.7953 135.729 36.4451 137.734C39.4481 138.122 42.4655 138.424 45.4683 138.821C50.3012 139.461 55.123 140.428 59.9149 141.313C60.7886 141.474 61.6697 141.585 62.5431 141.745C62.8625 141.803 63.3862 141.845 63.671 141.992C64.24 142.284 63.8252 142.727 64.2224 143.028C65.2307 141.973 66.3531 140.925 67.2448 139.776C67.6339 139.275 67.8587 138.63 68.2543 138.162C68.4349 137.948 68.7227 137.854 68.9779 137.759L69.1113 137.712C68.7705 136.682 68.4173 135.66 68.0541 134.638C67.8006 133.925 67.4884 133.174 67.4231 132.415C67.39 132.032 67.3632 131.583 67.5116 131.221C67.7967 130.526 68.6199 129.735 69.3125 129.465C70.6304 128.951 71.9118 128.251 73.1878 127.634C75.0475 126.735 76.9246 125.869 78.8114 125.027C80.5625 124.246 82.3188 123.412 84.0992 122.701C87.4595 121.36 90.9088 120.193 94.3222 118.995C97.3359 117.939 100.274 116.822 103.369 116.001C107.151 114.997 111.216 114.165 115.118 113.891C115.679 113.851 116.563 113.551 117.048 113.888C117.846 114.444 118.168 115.568 118.365 116.468C118.721 118.087 118.81 119.767 119.079 121.401C119.976 126.84 120.651 132.332 121.67 137.749C122.564 142.503 123.541 147.222 124.557 151.951C124.748 152.84 124.99 153.724 125.232 154.601C125.355 155.047 125.554 155.548 125.575 156.012C125.589 156.322 125.522 156.567 125.282 156.779C124.662 157.324 123.666 157.648 122.904 157.968C119.768 159.285 116.456 160.271 113.245 161.399C112.795 161.556 112.13 161.586 111.801 161.913C111.862 162.182 111.926 162.426 111.86 162.701L111.813 162.878C111.986 163.202 111.946 163.547 111.941 163.904C111.925 165.091 111.671 166.288 111.48 167.458L112.322 169.085L112.42 169.029L112.585 168.939C113.035 168.676 113.293 168.567 113.833 168.591C114.182 168.606 114.421 168.676 114.705 168.882C115.287 169.303 115.796 169.849 116.347 170.313C117.833 171.564 119.298 172.837 120.779 174.094C122.075 175.195 123.574 176.11 124.708 177.377C124.15 179.232 123.472 181.249 123.415 183.2C123.621 183.49 123.714 183.516 124.043 183.667C125.004 183.439 124.989 181.976 125.198 181.17C126.445 176.366 128.017 171.537 130.042 167.001C131.335 164.106 132.924 161.245 134.535 158.517C135.631 156.663 136.736 154.722 138.046 153.01C141.511 148.483 146.279 145.19 151.662 143.337C152.955 142.891 154.325 142.639 155.633 142.217C157.053 141.76 158.482 141.213 159.916 140.817C163.307 139.881 166.892 139.249 170.376 138.808L169.819 134.656C169.697 134.026 169.777 133.346 169.799 132.705L168.602 133.3C167.289 132.939 165.715 132.584 164.577 131.816C163.134 130.841 161.846 129.319 161.52 127.567C161.471 127.305 161.452 127.109 161.31 126.879C160.795 127.096 160.439 127.134 159.923 126.874C159.586 126.705 159.566 126.494 159.474 126.153C159.88 125.428 160.227 125.85 160.833 125.779C161.17 125.74 161.551 125.556 161.853 125.409C162.972 124.862 164.03 123.985 164.435 122.768C164.75 121.821 164.722 120.763 164.227 119.888C163.736 119.021 163.05 118.829 162.167 118.558C161.718 118.685 161.195 118.816 160.782 119.035C160.328 119.275 159.48 120.034 159.307 120.545C159.277 120.632 159.426 120.916 159.419 121.028C159.391 121.483 159.118 122.114 158.99 122.568C157.912 121.698 156.969 120.529 156.207 119.372C155.375 118.109 155.171 116.346 155.014 114.871C154.865 113.459 154.727 111.774 155.015 110.374C155.262 110.147 155.265 110.078 155.595 110.08C155.861 110.453 155.822 110.989 155.844 111.434C155.898 112.459 155.915 113.5 156.069 114.515C156.388 116.628 157.117 118.502 158.436 120.191C158.73 119.659 159.051 119.109 159.504 118.692C160.132 118.115 161.578 117.56 162.456 117.592C163.351 117.624 164.071 117.996 164.667 118.67C165.413 119.511 165.693 120.444 165.59 121.545C165.519 122.292 165.303 123.446 164.89 124.057C164.297 124.935 163.309 125.685 162.507 126.364C162.634 126.938 162.742 127.552 162.996 128.085C163.789 129.747 165.228 130.883 166.942 131.492C167.412 131.659 167.91 131.715 168.383 131.878L168.611 131.96C169.824 131.325 170.835 130.453 171.857 129.553C173.682 127.945 175.586 126.064 176.772 123.918C177.438 122.712 177.76 121.33 177.958 119.981C178.484 116.415 178.053 112.546 177.129 109.077C176.144 105.377 174.042 102.621 170.706 100.753C169.691 100.184 168.376 99.8732 167.244 99.6158C166.114 99.3589 164.904 99.02 163.749 98.9199C162.81 98.8386 162.026 98.9807 161.107 99.0924C159.783 99.253 158.597 99.3691 157.307 99.733C156.886 99.4822 156.352 99.131 155.864 99.0567L153.912 98.7858C152.866 98.7274 151.458 98.905 150.668 99.6677C149.782 100.523 149.068 102.269 148.976 103.48C148.943 103.909 149.026 104.387 149.027 104.826C149.515 105.214 149.896 105.635 150.296 106.108L150.456 106.1C150.971 106.145 151.725 106.792 152.247 107.037C153.044 107.413 153.876 107.719 154.737 107.913C155.221 108.023 156.035 108.066 156.365 108.46L156.244 108.774C155.934 109.047 155.67 109.151 155.28 109.28L155.049 109.198C154.384 109.058 153.771 108.996 153.109 108.774C152.246 108.484 151.417 107.96 150.624 107.52C150.035 108.099 149.383 108.679 148.856 109.314C147.382 111.087 146.311 113.33 145.676 115.531C145.525 116.055 145.308 116.591 145.233 117.132C145.142 117.783 145.002 118.422 144.791 119.045L144.748 119.17L138.102 120.003L138.163 120.091L138.268 120.237C138.451 120.497 138.634 120.748 138.856 120.976C139.926 122.07 141.009 122.724 142.421 123.296C142.754 123.431 143.198 123.657 143.555 123.621L143.983 123.536C144.24 123.489 144.252 123.523 144.485 123.611C144.548 123.71 144.641 123.794 144.672 123.906C144.766 124.247 144.703 124.886 144.707 125.249C144.72 126.352 144.719 127.45 144.767 128.553C144.873 130.991 145.149 133.403 145.228 135.847C148.276 136.472 151.347 136.898 154.46 136.981C154.743 136.677 154.967 136.511 155.34 136.327L155.576 136.465C156.091 137.484 156.677 138.506 156.716 139.672L156.719 139.869C156.728 140.267 156.69 140.603 156.433 140.93C156.137 141.307 155.55 141.448 155.099 141.47C154.672 141.003 154.549 139.164 154.42 138.491L152.437 138.394C150.89 138.272 149.34 138.059 147.802 137.848C146.851 137.718 145.688 137.621 144.8 137.238C144.522 137.119 144.303 136.906 144.116 136.673C143.949 136.466 143.804 136.252 143.765 135.983C143.658 135.23 143.8 134.342 143.777 133.571C143.722 131.772 143.612 129.964 143.54 128.164C143.5 127.175 143.394 126.154 143.507 125.17C142.639 124.964 141.755 124.783 140.934 124.425C139.37 123.741 136.97 121.635 136.449 119.971C136.39 119.782 136.369 119.555 136.495 119.392C136.993 118.75 138.038 118.593 138.79 118.458C140.491 118.152 142.192 117.943 143.904 117.715C144.004 116.651 144.339 115.721 144.695 114.725C145.502 112.465 146.575 110.463 147.952 108.494C148.371 107.894 149.046 107.399 149.386 106.772L149.008 106.437C148.76 106.593 148.892 106.538 148.612 106.603L148.595 106.193C147.61 105.292 146.954 104.206 145.886 103.356C144.442 102.206 142.817 101.118 141.224 100.179C140.67 99.8524 139.963 99.7092 139.451 99.3401C139.238 99.1865 139.211 99.1565 139.172 98.889C139.022 97.8579 140.829 96.1376 141.456 95.3141C139.597 93.4883 137.084 92.0763 135.935 89.6391C135.77 89.2891 135.52 88.8308 135.456 88.4526C135.293 87.4952 135.685 86.3897 135.506 85.4876L135.458 85.2778C135.374 85.6241 135.235 85.8591 134.936 86.08C134.641 86.2978 134.39 86.2563 134.053 86.2071C133.513 85.6591 132.957 84.7213 132.621 84.0355C131.916 82.5989 130.481 79.5092 131.064 77.9633L131.135 77.7954C131.398 77.1441 131.69 76.5756 132.33 76.2225C132.789 75.9689 133.113 76.1453 133.566 76.2994C133.524 75.5003 133.775 74.7412 134.308 74.134C134.682 73.7078 135.262 73.1246 135.846 73.0877C136.217 73.0645 136.551 73.1962 136.896 73.3139C136.873 70.7617 136.97 62.732 138.529 61.0373C138.876 60.659 139.67 60.4489 140.17 60.4658C140.662 60.4825 141.211 60.8436 141.513 61.2165C142.35 62.2496 141.311 67.6513 141.208 69.1405C141.09 70.8517 141.014 72.6094 141.081 74.3236L141.299 75.9496C142.218 75.9846 142.529 76.0119 143.178 76.7177C144.888 78.5788 145.777 81.2138 146.181 83.6739C146.246 84.0686 146.267 85.0529 146.439 85.3675L146.434 85.3337C147.854 86.1164 149.055 87.1392 150.312 88.1525C152.256 89.7194 154.149 91.3285 156.032 92.9673C157.706 94.4238 159.467 95.804 160.957 97.4543C163.005 96.5942 164.914 95.5145 166.918 94.5728C169.915 93.1646 173.038 91.913 176.094 90.635C180.908 88.6217 185.727 86.4679 190.844 85.3368C192.941 84.8735 195.001 84.755 197.121 84.51L197.548 82.4927C195.136 82.3135 192.059 82.1536 190.292 80.2222C189.653 79.5234 189.12 78.5747 188.861 77.67L188.818 77.5252C188.687 77.0276 188.734 76.4736 188.746 75.9619C188.775 74.6871 188.84 73.5884 189.215 72.3604C187.207 71.7024 185.655 71.0569 184.126 69.5689C183.761 69.2136 183.334 68.8062 183.093 68.3551C182.895 67.9832 182.836 67.5775 182.969 67.1734C183.086 66.8208 183.293 66.5518 183.625 66.3779C184.259 66.0455 185.253 66.2298 185.959 66.1661C187.408 66.0352 189.854 65.4765 190.451 64.0261C191.052 62.567 191.278 60.8877 191.725 59.371Z" fill="#222222"/>
<path d="M199.711 55.2983L199.891 55.3823C200.211 56.0504 200.405 56.9453 200.507 57.6788C200.573 58.1521 201.041 60.0147 200.868 60.3191L200.658 60.0082L198.775 56.2625C198.948 55.8362 199.36 55.5769 199.711 55.2983Z" fill="white"/>
<path d="M97.2016 154.786C97.3674 154.812 97.5659 154.831 97.7121 154.92C98.5864 155.457 100.97 159.814 101.315 160.888L101.188 160.909C100.455 159.911 99.6613 158.943 98.8438 158.013C98.1402 157.213 97.0147 156.306 96.7185 155.28L97.2016 154.786Z" fill="white"/>
<path d="M134.928 85.1194L134.591 85.1375C134.304 85.1074 134.186 84.9103 134.027 84.6923C133.67 84.2002 133.442 83.5385 133.202 82.9811C132.59 81.5565 131.815 79.9696 132.086 78.3795C132.157 77.9661 132.274 77.5157 132.653 77.2794L133.329 76.8927C133.446 77.1122 133.509 77.3172 133.588 77.5529C133.3 79.0096 134.438 81.228 135.102 82.511C134.622 83.6362 134.819 83.9737 134.928 85.1194Z" fill="white"/>
<path d="M182.09 104.57L182.166 104.669C181.83 107.429 181.514 111.369 179.401 113.378L179.168 113.292L179.117 112.768L178.001 107.493C178.568 107.23 179.06 106.836 179.581 106.495C180.497 105.896 181.386 105.426 182.09 104.57Z" fill="white"/>
<path d="M136.749 73.957C137.005 74.2047 137.036 74.6186 137.114 74.9539C137.324 75.8551 137.528 76.7611 137.756 77.6579C137.942 78.3904 138.188 79.1131 138.421 79.8321L136.861 82.072L136.595 82.0708C135.608 80.9354 134.83 79.3459 134.732 77.8272L134.709 77.4287L134.623 77.0066C134.472 75.8874 134.891 75.2238 135.495 74.3533L136.749 73.957Z" fill="white"/>
<path d="M116.738 114.747L116.849 114.877C116.76 115.187 116.675 115.372 116.475 115.627C115.92 115.687 115.335 115.726 114.791 115.844C114.51 115.905 114.226 116.087 113.944 116.087C113.337 116.087 112.599 116.326 111.997 116.445C110.468 116.747 108.909 117.093 107.362 117.289C106.125 117.445 104.819 117.807 103.61 118.122C100.149 119.024 96.8512 120.296 93.4815 121.477C88.7945 123.12 84.093 124.704 79.4237 126.402L79.2708 126.347C79.4789 126.101 79.9594 125.94 80.2568 125.809C81.0328 125.465 81.8018 125.107 82.5744 124.756C86.1508 123.133 89.8324 121.818 93.5495 120.563C96.3121 119.63 99.0312 118.616 101.846 117.839C104.833 117.014 107.877 116.524 110.915 115.933C112.862 115.554 114.776 115.075 116.738 114.747Z" fill="white"/>
<path d="M151.413 164.548L151.782 164.653C151.995 164.898 152.079 164.931 152.092 165.252C152.133 166.273 151.402 167.33 150.923 168.202C150.459 169.048 150.021 169.91 149.577 170.766C148.192 173.43 146.899 176.156 145.451 178.785C143.79 181.802 141.936 184.723 140.113 187.64C139.201 189.099 138.351 190.619 137.398 192.048C136.879 192.825 136.041 193.712 135.395 194.4C133.702 196.202 131.542 197.172 129.081 197.242C128.835 197.203 128.676 197.189 128.48 197.028L128.934 196.974C131.134 196.607 132.931 195.41 134.437 193.81C136.02 192.128 137.213 189.76 138.408 187.775C140.905 183.627 143.276 179.51 145.541 175.225C147.418 171.674 149.131 167.862 151.413 164.548Z" fill="white"/>
<path d="M139.331 61.4919C139.592 61.4642 139.823 61.488 140.083 61.5138C140.325 61.6619 140.657 61.8769 140.742 62.1721C140.884 62.6603 140.701 63.6447 140.627 64.1471C140.462 65.2613 140.303 66.3774 140.145 67.493C139.89 69.3013 139.258 75.4652 140.353 76.7024C140.731 77.1306 141.528 77.0606 142.049 77.0717C143.688 78.7397 144.519 81.076 144.952 83.3442C145.197 84.6317 144.941 86.2522 145.92 87.2426L142.078 94.0901C140.445 92.7053 138.226 91.0205 137.224 89.1262L136.873 88.302C136.719 87.8206 136.773 87.2901 136.817 86.7935C136.996 84.8088 137.935 82.8977 138.81 81.1371C139.462 83.1895 140.02 85.3621 141.2 87.192C141.464 87.602 141.812 88.1513 142.314 88.2627C142.656 88.1438 142.737 88.172 142.911 87.8611C142.779 87.1456 142.327 86.586 141.972 85.9681C141.618 85.351 141.331 84.6715 141.061 84.014C140.199 81.9176 139.516 79.5695 138.9 77.38C138.618 76.3799 138.268 75.3234 138.136 74.293C137.769 71.4233 137.941 63.9699 139.331 61.4919Z" fill="white"/>
<path d="M147.058 87.2901C147.941 87.7855 148.71 88.4257 149.51 89.0408C151.064 90.2353 152.509 91.4768 153.974 92.7791C155.832 94.4302 157.702 96.0403 159.5 97.7584L157.473 98.4702C156.343 97.9654 155.421 97.7808 154.194 97.6614L153.471 97.618C152.057 97.6479 150.863 98.05 149.877 99.0815C148.856 100.427 148.425 101.65 148.125 103.291C147.091 102.268 145.848 101.533 144.635 100.749C143.262 99.8627 142.074 99.0009 140.537 98.3974C142.524 96.2752 143.865 93.2784 145.281 90.736C145.893 89.6366 146.705 88.499 147.058 87.2901Z" fill="white"/>
<path d="M98.6249 150.492C99.3808 150.842 100.097 151.2 100.726 151.756C102.115 152.986 106.171 158.83 107.399 159.084L107.622 158.75C107.725 158.538 107.718 158.349 107.676 158.122C107.577 157.588 107.159 156.969 106.925 156.476C106.539 155.663 106.202 154.829 105.883 153.988C107.448 155.506 109.007 157.708 109.923 159.689C111.183 162.412 111.303 164.681 110.255 167.477C110.563 168.119 110.861 168.786 111.439 169.223C111.661 169.261 111.813 169.274 112.009 169.39C110.371 170.835 109.04 172.684 107.642 174.355C107.142 172.876 106.739 171.546 105.869 170.228C103.336 169.631 99.741 162.984 98.4032 160.721C98.0496 160.123 97.6219 159.576 97.2476 158.992C96.9866 158.584 96.8928 157.918 96.592 157.594C96.5261 157.523 96.4494 157.462 96.385 157.39L96.6467 157.197L96.8595 157.257L96.9772 157.503C97.3752 158.15 101.229 162.41 101.731 162.48C102.173 162.542 102.333 162.447 102.636 162.154C102.751 160.225 101.723 158.93 100.804 157.355C100.252 156.409 99.7369 155.43 99.0624 154.563C98.696 154.093 98.0018 153.603 97.8149 153.048L97.9317 152.937L98.2935 153.081C98.5402 153.031 98.8637 152.922 99.1085 152.998C99.3442 153.071 99.8167 154.049 99.9636 154.304C100.639 155.477 101.316 156.65 101.977 157.832C102.174 158.255 102.423 159.096 102.816 159.313C103.137 159.184 103.316 159.133 103.522 158.84C103.505 158.573 103.505 158.405 103.349 158.182C102.414 156.548 101.524 154.933 100.548 153.318C100.199 152.739 99.9373 152.049 99.4822 151.548L98.6249 150.492Z" fill="white"/>
<path d="M69.4067 138.757C69.8966 139.081 70.1243 140.553 70.27 141.112C71.2993 141.651 72.3249 141.602 73.4487 141.714C74.8424 141.853 76.2087 141.992 77.6096 142.078C77.8021 142.252 77.9873 142.408 78.1441 142.616C77.3023 142.658 76.4856 142.812 75.6488 142.861C74.2319 142.944 72.8071 142.919 71.3888 142.914C70.5629 142.911 68.7803 142.704 68.041 142.996C67.7754 143.101 67.7578 143.219 67.6621 143.46C67.7571 143.573 67.8362 143.679 67.9612 143.765C68.2665 143.975 72.4142 144.151 72.9969 144.077C74.0889 143.94 75.2033 143.986 76.2829 143.876C76.4663 143.857 76.6404 143.77 76.8257 143.762C77.14 143.748 77.4461 143.841 77.7633 143.813L83.3097 143.393L82.4186 144.745C81.0317 145.101 79.5697 145.342 78.1523 145.544C76.4959 145.78 74.8444 145.978 73.1877 146.234C72.4383 146.35 71.5658 146.321 70.9435 146.791C70.9363 147.157 70.9601 147.172 71.1729 147.475C72.0287 147.627 73.5942 147.172 74.484 147.037C77.1424 146.636 79.8285 146.355 82.4534 145.797L82.4797 147.172C81.482 147.565 80.4318 147.779 79.3856 147.998C77.9217 148.275 76.4349 148.646 74.9449 148.716C74.3849 148.742 72.289 148.582 71.9686 148.887C71.9892 149.206 71.9636 149.371 72.1445 149.64C73.0705 149.838 74.2358 149.701 75.1852 149.664C75.5275 149.651 75.8652 149.528 76.2038 149.589L76.3432 149.628L76.4392 149.567C76.9663 149.294 81.8486 148.361 82.2189 148.491C82.2372 148.6 82.2744 148.781 82.2618 148.887C82.1236 150.068 77.4497 150.948 76.3305 151.071C75.292 151.184 73.3088 150.901 72.4679 151.474C72.406 151.784 72.4653 151.766 72.6187 152.023C73.9174 152.567 75.9588 152.049 77.3684 152.067C77.4075 152.212 77.4345 152.287 77.4437 152.445C77.4644 152.804 77.3472 153.072 77.0669 153.289C75.6177 154.41 72.9723 153.853 71.2679 153.716C68.8281 153.52 66.395 153.195 63.9551 153.038C63.1924 150.084 63.7684 146.99 64.0868 144.015L65.2736 143.829C65.5343 143.423 65.716 142.964 66.0315 142.592C66.84 141.64 67.9452 141.146 68.6218 139.996L69.4067 138.757Z" fill="white"/>
<path d="M192.821 59.9752L200.253 61.9078C200.664 61.9852 200.792 62.0598 201.154 61.8104L201.224 61.2761L201.359 61.4623C202.26 63.6452 203.365 65.6422 204.475 67.7183C204.747 68.2283 204.908 68.784 205.243 69.257C206.575 69.6656 208.112 67.2304 209.055 66.6346C209.35 66.4484 209.694 66.3852 210.034 66.3449C210.368 66.4459 210.649 66.5499 210.904 66.7981C211.577 67.4523 211.896 68.2536 211.897 69.1818C211.897 69.8487 211.992 70.7557 211.567 71.3073C211.075 71.947 210.269 72.3607 209.462 72.4007C208.644 72.4412 208.385 72.2898 207.775 71.7974C207.327 71.7634 207.345 71.7437 206.997 72.022C206.826 73.7636 206.225 75.3117 205.814 76.9984C204.991 80.3703 204.649 83.9617 205.189 87.412C205.327 88.297 205.678 89.1465 205.838 90.032L205.541 90.0451L201.893 90.3403L201.532 90.3507C200.521 90.3514 199.271 89.9635 198.556 89.2208C197.494 88.1178 197.741 87.1877 198.105 85.8745C198.254 85.3349 198.341 84.7734 198.521 84.243C198.862 83.234 199.31 82.5188 199.349 81.4087C199.272 81.3325 199.22 81.2194 199.12 81.1798C198.988 81.1277 198.602 81.1801 198.43 81.1796C197.832 81.1784 197.229 81.1851 196.632 81.148C194.868 81.0385 192.453 80.5652 191.255 79.1361C189.645 77.2143 189.942 75.4298 190.162 73.1128C190.174 72.9808 190.23 72.3889 190.351 72.303C190.631 72.1028 191.088 72.2972 191.475 71.9796C191.379 71.6062 191.269 71.4643 191.018 71.1877L190.217 71.1435C187.796 70.7713 185.781 69.5593 184.339 67.5994C186.488 67.0977 188.604 67.0678 190.586 65.9109C192.138 65.005 192.381 61.6524 192.821 59.9752Z" fill="white"/>
<path d="M197.669 71.2288L198.276 70.9623C198.571 71.2346 198.633 71.7723 198.643 72.1823C198.652 72.5246 198.552 72.8507 198.276 73.0741C198.033 73.2699 197.798 73.281 197.499 73.288L197.486 73.185C197.422 72.7779 197.287 72.5844 197.052 72.2552C196.944 72.1042 196.911 72.0034 196.89 71.8205L197.07 71.6782C197.329 71.8678 197.521 72.0487 197.733 72.286L197.906 72.1823C197.907 71.8051 197.814 71.566 197.669 71.2288Z" fill="#222222"/>
<path d="M194.518 74.7848C194.638 74.6649 194.573 74.7158 194.739 74.62C195.272 74.313 195.24 74.161 195.43 73.5833L195.539 73.6296L195.343 74.4738L195.485 74.5944C195.68 74.3349 195.86 74.0865 196.131 73.9005L196.312 73.7808L196.402 73.2678C196.574 73.426 196.474 73.3609 196.707 73.4552L196.838 73.2678L196.768 72.96L196.466 72.9976L196.285 72.7926C196.241 72.4281 196.211 72.3377 196.359 72.0084L196.526 72.0504L196.504 72.4776C196.747 72.7439 196.979 73.0225 197.304 73.1916L197.499 73.2881L197.314 73.8708C197.006 74.5737 195.649 75.3405 194.96 75.5593C194.544 75.6915 194.316 75.7366 193.926 75.5593C193.665 75.1422 193.652 74.9104 193.69 74.4135C193.717 74.0602 193.73 73.7121 193.994 73.4719C194.276 73.9398 194.455 74.2278 194.388 74.7918L194.374 74.896L194.518 74.7848Z" fill="#222222"/>
<path d="M208.986 68.6416L209.854 68.569C210.332 68.5809 210.492 68.6537 210.816 68.9863L210.736 69.3725C210.527 70.2551 210.43 70.6232 209.641 71.1102C209.205 71.1823 208.729 71.1049 208.358 70.8557C208.089 70.6743 207.969 70.4437 207.909 70.1321C208.034 69.3964 208.441 69.0939 208.986 68.6416Z" fill="#222222"/>
<path d="M194.209 64.8946C194.547 64.8293 194.805 64.8512 195.14 64.8975C195.455 65.0876 195.71 65.2581 195.871 65.6024C196.023 65.9282 196.03 66.29 195.918 66.6294L195.874 66.7551C195.675 67.356 195.36 67.6401 194.908 68.0543C194.48 68.1184 194.096 68.1252 193.732 67.8603C193.418 67.6321 193.257 67.1919 193.245 66.8154C193.219 65.9798 193.636 65.4391 194.209 64.8946Z" fill="#222222"/>
<path d="M64.1661 67.7097C65.0889 67.5874 66.5789 67.7207 67.4526 68.0782C68.4734 68.4958 68.8967 69.1671 69.3292 70.1346C69.2747 70.6857 69.1927 71.2065 69.0636 71.7451C68.6745 72.106 68.1511 72.4926 67.9075 72.9664C68.0771 73.3308 68.0947 73.3484 68.4437 73.5484C69.1326 73.4338 69.746 72.7522 70.3671 72.4179C70.994 72.0804 71.6904 71.8339 72.3774 71.6515C74.9417 70.9708 77.3113 71.0579 79.6253 72.4475C80.7223 73.1065 81.6618 74.3227 81.9433 75.5852C82.1997 76.736 81.7431 78.2436 81.1389 79.228C78.6735 83.2449 74.4383 83.9383 70.246 84.9418C69.6464 83.8759 69.237 82.6741 68.7737 81.5433C69.4679 80.8759 70.4438 80.0165 70.9472 79.2099C71.118 78.9361 71.1083 78.87 71.0466 78.5745C70.7791 78.2942 70.7458 78.2506 70.3734 78.1601C69.9587 78.2417 69.7397 78.6428 69.4647 78.9363C68.573 79.8882 67.6593 80.8033 66.5545 81.5096C64.6646 82.7171 62.0562 83.3167 59.8424 83.3676C58.1368 83.4069 56.8 83.2243 55.1771 82.7354C54.5176 82.5367 53.9737 82.4156 53.4592 81.9199C53.0535 81.641 52.7746 81.4526 52.2826 81.4367C51.9275 81.7452 51.9239 81.7293 51.8578 82.1927C51.9721 82.3837 52.0831 82.542 52.2307 82.7106L52.6801 83.2311C53.4394 84.1928 53.2708 85.9512 53.1126 87.0979L53.08 87.3184C53.012 87.8175 52.929 88.2828 52.7725 88.7618C52.1181 90.7653 50.4539 92.4963 48.5935 93.4459L47.9659 92.5052C47.3886 91.77 46.5897 91.2755 45.6493 91.1891C44.7575 91.1074 43.7601 91.4595 43.1158 92.0872C42.22 92.9599 42.1893 94.1818 42.1433 95.3423C40.8762 93.5086 39.55 91.4723 39.2533 89.2011C38.8141 85.8383 39.1301 81.4469 41.3096 78.6753C42.1428 77.6157 43.8305 76.0102 45.2433 75.9217C45.5627 75.9017 45.9037 75.8312 46.2217 75.8693C46.9528 75.9564 47.619 76.2965 48.3629 76.3313C48.7372 76.1774 48.9606 76.0905 49.1984 75.7403C49.079 75.5558 49.031 75.4113 48.9821 75.1976C49.061 75.022 49.1463 74.8336 49.2674 74.6826C49.546 74.3348 50.0781 74.0089 50.4301 73.7209C52.901 71.699 55.4236 70.4216 58.3731 69.2406C59.2367 68.895 60.0739 68.4743 60.9703 68.2162C62.0026 67.9188 63.1014 67.8266 64.1661 67.7097Z" fill="white"/>
<path d="M67.6619 82.1208L67.771 82.1953C68.1952 82.6331 68.4627 83.8344 68.6695 84.4181C70.3225 89.0848 71.0246 93.9355 71.0328 98.8767C71.0355 100.513 71.0391 102.222 70.7924 103.841C70.5707 105.297 69.739 106.63 68.5587 107.497C65.8333 109.501 60.4738 110.695 57.1557 110.163L56.9259 110.125C55.0413 109.846 53.333 109.032 51.8192 107.882C51.5688 107.691 50.8683 106.959 50.6192 106.894C50.487 106.86 50.3461 106.896 50.2096 106.897L50.0603 107.158C50.1215 107.472 50.2132 107.6 50.4416 107.833C53.335 110.782 56.6651 111.47 60.6263 111.529C59.7627 112.882 58.8932 113.933 57.7711 115.066C57.3287 115.513 56.9425 116.005 56.4461 116.395C55.0408 115.323 53.4618 114.503 52.0196 113.485C49.7559 111.887 48.0228 109.937 46.911 107.399C47.5978 106.769 47.5765 105.956 47.667 105.085C47.8735 103.098 47.878 101.124 48.0105 99.1339L47.1525 99.077C45.8801 98.9363 44.7392 98.4942 43.9608 97.4278C43.311 96.5377 43.1349 95.2863 43.3433 94.2178C43.4463 93.6888 43.899 92.8373 44.3979 92.5879C46.6078 91.4836 47.1004 94.3384 48.6644 94.6765C50.4971 94.074 52.071 92.5317 53.0544 90.8994C54.3355 88.7731 54.7465 86.0976 54.1353 83.6797L57.1671 84.4338C60.6506 85.0435 64.6948 83.9441 67.6619 82.1208Z" fill="white"/>
<path d="M45.8321 93.9557L46.0771 93.9254C46.5417 93.8882 47.2347 94.2628 47.5808 94.5624C47.7842 94.7385 47.776 94.826 47.7685 95.0974C47.7495 95.8111 47.2046 96.3469 46.7122 96.7849C46.343 96.7934 46.094 96.6103 45.8301 96.3695C45.2705 95.8591 44.7982 95.3174 44.7498 94.5547C45.0653 94.1591 45.3723 94.1181 45.8321 93.9557Z" fill="#222222"/>
<path d="M59.1397 90.2035L59.5785 90.2418C60.0081 90.3079 60.3793 90.6642 60.6188 91.0077C60.8086 91.2798 60.9068 91.5757 60.8501 91.9038C60.7464 92.5042 60.3916 92.7514 59.9142 93.0823C59.7065 93.1084 59.5215 93.1332 59.3124 93.1079C58.8997 93.058 58.6365 92.9043 58.3888 92.5596C58.1249 92.1923 58.0463 91.7931 58.1621 91.3548C58.315 90.7749 58.6534 90.5173 59.1397 90.2035Z" fill="#222222"/>
<path d="M61.7221 97.6007C61.9177 97.6263 62.3867 97.6557 62.5338 97.8021C63.0657 98.3309 63.2536 99.2834 63.7799 99.8744C64.1145 100.25 64.4502 100.438 64.9459 100.484C65.2621 100.369 65.3832 100.281 65.5936 100.013C65.9308 99.5842 66.0767 99.3915 66.6344 99.301L66.9784 99.5598C67.0613 99.974 66.9991 100.05 66.8464 100.431C66.281 101.112 65.6447 101.525 64.8909 101.963C63.5975 101.532 62.9202 100.781 62.2453 99.6411C61.8292 98.9385 61.5103 98.4377 61.7221 97.6007Z" fill="#222222"/>
<path d="M65.8763 89.5611C66.5599 89.7845 66.9403 90.0713 67.4543 90.5821C67.6195 91.1487 67.7792 91.6961 67.7725 92.2921C67.7573 93.6026 67.8528 94.7204 66.8465 95.6963C66.3703 95.5919 66.0162 95.5127 65.7239 95.0974C64.9361 93.9777 64.6676 92.1626 64.9276 90.8234C65.0555 90.1648 65.337 89.935 65.8763 89.5611Z" fill="#222222"/>
<path d="M70.4524 132.214C71.4322 131.604 72.5705 131.165 73.6296 130.704C75.3171 129.969 77.009 129.243 78.6987 128.513C82.2635 126.973 85.8525 125.424 89.4834 124.043C90.7592 123.558 92.0668 123.174 93.3467 122.706C94.7937 122.178 96.2079 121.556 97.654 121.028C99.7569 120.259 101.93 119.623 104.089 119.034C106.028 118.505 108.006 118.174 109.975 117.786C112.08 117.37 114.174 116.896 116.281 116.488C116.419 120.092 116.842 123.78 117.436 127.337C117.737 129.138 118.172 130.919 118.459 132.726C119.399 138.628 120.6 144.429 121.816 150.28C122.087 151.587 122.2 152.901 122.503 154.207L111.142 159.434C110.373 157.968 109.442 156.518 108.483 155.167C108.104 154.633 107.698 153.975 107.228 153.523C106.947 153.252 106.739 153.167 106.348 153.198C105.858 153.237 105.593 153.467 105.296 153.832C105.229 154.715 105.597 155.659 105.871 156.489C104.909 155.273 103.727 153.937 103.037 152.551C102.462 151.396 102.202 150.017 101.912 148.767C101.336 146.287 100.92 143.722 100.222 141.277C99.9841 139.567 99.2781 137.91 99.0294 136.224C98.9109 135.422 98.6553 134.591 98.4707 133.8C98.011 131.831 97.4933 129.895 96.9665 127.945C96.5669 126.465 96.2784 124.67 95.5692 123.319L95.2781 123.156L95.0467 123.319C95.1666 124.564 95.6203 125.736 95.9399 126.936C96.6231 129.499 97.2953 132.067 97.9459 134.639C98.3229 136.13 98.6678 137.637 99.0229 139.133C99.1871 139.826 99.299 140.693 99.5721 141.346L101.714 151.364L101.399 151.034C100.691 150.339 99.8492 149.343 98.7568 149.412C98.2606 149.444 97.9087 149.747 97.5881 150.094C97.6065 150.786 97.7876 151.116 98.2259 151.656L98.3301 151.782C98.0484 151.852 97.7973 151.851 97.5093 151.858C97.2497 152.02 96.9629 152.186 96.8334 152.479C96.5676 153.08 96.6315 153.379 96.8508 153.953L96.6047 154.037C96.4368 154.087 96.2523 154.108 96.0967 154.194C95.7853 154.365 95.6546 154.537 95.5366 154.857C95.7098 155.281 95.9289 155.539 96.2381 155.875L96.3577 156.003C95.4028 156.562 94.3873 155.442 93.5836 155.062C93.1848 154.873 92.473 154.738 92.0374 154.77C90.8825 154.854 89.6967 157.71 88.9904 158.627L88.8802 158.768C87.7984 158.341 86.6999 157.741 85.509 157.785C85.1518 158.095 84.989 158.522 84.7687 158.932C84.3826 159.65 83.9173 160.548 83.3683 161.155C83.0019 161.561 82.3675 161.923 82.2618 162.456L82.4939 162.671C82.7165 162.701 83.0159 162.755 83.2284 162.664C83.5053 162.547 83.7865 162.22 83.9971 162.008C84.9041 161.099 85.392 160.074 86.0211 158.977C87.2016 159.256 88.1551 159.845 89.2326 160.36C90.3545 159.047 91.0409 157.459 92.2378 156.165C93.4371 156.654 94.4604 157.368 95.6942 157.813C95.9322 158.533 96.3471 159.222 96.7053 159.891C97.3604 161.114 98.0414 162.326 98.7534 163.517C97.7442 163.959 96.6718 164.244 95.6399 164.629C93.1694 165.551 90.7327 166.598 88.2921 167.597C86.2937 168.416 84.3003 169.248 82.3593 170.196C81.4101 170.659 80.4303 171.097 79.5728 171.72C79.204 170.606 79.0764 169.396 78.7913 168.255C77.942 164.856 77.126 161.43 76.1054 158.078C75.8391 157.204 75.6145 155.938 75.02 155.248L74.9396 155.159C76.1537 154.626 77.5845 154.689 78.3824 153.449C78.6442 153.042 78.6982 152.572 78.5916 152.105L78.5404 151.903C78.779 151.622 79.1603 151.58 79.5089 151.474C80.7637 151.092 82.4787 150.753 83.232 149.576C83.5176 149.13 83.5352 148.527 83.3999 148.024C83.3234 147.741 83.3345 147.759 83.4225 147.481L83.6437 146.82C83.7713 146.325 83.6073 145.763 83.334 145.338L83.2535 145.225C83.6126 144.877 84.0832 144.463 84.2974 144.003C84.4841 143.602 84.3893 143.262 84.2427 142.872C83.2438 142.105 80.6291 142.541 79.361 142.618C79.1731 142.254 78.9785 141.794 78.6989 141.493C78.2006 140.955 77.769 141.227 77.1872 141.119C76.9361 141.072 76.8421 140.982 76.5707 141.022C75.4845 141.182 74.305 141.041 73.2121 140.966L70.4524 132.214Z" fill="white"/>
<path d="M93.2333 144.567C93.4027 144.572 93.5266 144.616 93.687 144.666L93.7013 145.028C92.8951 145.987 91.4882 146.535 90.3545 147.019C90.0537 147.06 90.1948 147.088 89.9316 146.932L89.8901 146.656C90.3624 145.913 91.0359 145.761 91.7897 145.409C92.2904 145.175 92.7651 144.861 93.2333 144.567Z" fill="#222222"/>
<path d="M93.2863 146.647L93.4788 146.747L93.5138 147.028C93.146 147.891 92.2942 148.129 91.5397 148.561C90.983 148.88 90.4818 149.238 89.9021 149.529C89.674 149.297 89.6655 149.268 89.6047 148.948C89.7912 148.641 90.1103 148.475 90.4044 148.283C91.3267 147.682 92.3225 147.178 93.2863 146.647Z" fill="#222222"/>
<path d="M114.511 138.084L114.756 138.125L114.803 138.395C114.574 138.696 114.379 138.889 114.033 139.054C112.773 139.655 111.281 139.905 109.961 140.384C108.522 140.907 107.164 141.631 105.719 142.126C105.467 141.923 105.395 141.892 105.294 141.591C105.503 141.209 106.179 141 106.577 140.812C109.156 139.594 111.845 139.045 114.511 138.084Z" fill="#222222"/>
<path d="M114.828 131.575C115.167 131.556 115.241 131.508 115.514 131.701L115.48 131.951C114.593 132.556 113.381 132.877 112.373 133.247C109.574 134.276 106.726 135.109 103.994 136.303C103.676 136.373 103.684 136.44 103.389 136.264L103.419 136.029C104.948 134.782 107.528 134.244 109.381 133.585C111.202 132.936 113.009 132.234 114.828 131.575Z" fill="#222222"/>
<path d="M117.814 145.668C118.009 145.665 118.059 145.68 118.231 145.752L118.319 146.053C117.952 146.606 117.085 147.012 116.51 147.324C114.983 148.152 113.284 148.954 111.639 149.525C110.059 150.073 108.563 150.384 107.015 151.081L106.708 151.012L106.629 150.697C106.835 150.391 107.187 150.243 107.508 150.082C108.758 149.455 110.219 149.297 111.534 148.807C113.728 147.988 115.789 146.831 117.814 145.668Z" fill="#222222"/>
<path d="M111.5 135.966C112.798 135.828 114.034 135.399 115.359 135.402L115.582 135.621L115.48 135.923C114.319 136.404 112.703 136.526 111.45 136.823C109.616 137.193 107.847 137.938 106.101 138.596C105.313 138.892 104.374 139.432 103.54 139.425L103.416 139.211L103.566 138.786C104.011 138.433 104.562 138.357 105.083 138.142C107.223 137.26 109.224 136.461 111.5 135.966Z" fill="#222222"/>
<path d="M111.435 120.399C111.603 120.403 111.64 120.456 111.777 120.545C112.201 121.964 112.641 123.375 113.013 124.809C113.124 125.239 113.341 125.71 113.309 126.154C113.225 126.206 113.102 126.291 113.007 126.314C111.269 126.73 109.475 127.165 107.761 127.734C106.698 128.087 105.591 128.506 104.565 128.947C103.814 129.27 102.87 129.943 102.038 129.855C101.733 128.366 101.325 126.81 100.834 125.371C100.543 124.519 100.104 123.67 99.8862 122.8C99.8095 122.494 99.8201 122.401 99.9216 122.115C100.436 121.98 100.699 122.279 101.188 122.313C101.73 122.352 102.398 122.242 102.937 122.169C105.82 121.778 108.581 120.885 111.435 120.399Z" fill="#222222"/>
<path d="M110.551 121.223C110.751 121.191 110.869 121.187 111.077 121.204C111.293 121.597 111.364 122.093 111.499 122.521C111.808 123.494 112.119 124.429 112.36 125.423L102.777 128.841C102.234 128.314 101.988 126.618 101.775 125.88C101.501 124.927 101.143 123.988 100.844 123.041C104.186 122.786 107.313 122.051 110.551 121.223Z" fill="white"/>
<path d="M107.211 123.426L108.243 123.383L108.455 123.621C108.404 123.69 108.377 123.784 108.303 123.828C108.054 123.978 107.295 124.041 106.963 124.111C105.913 124.335 104.892 124.592 103.858 124.887L102.997 125.083C102.719 124.921 102.751 124.901 102.662 124.585L102.816 124.362C104.164 123.815 105.768 123.607 107.211 123.426Z" fill="#222222"/>
<path d="M109.447 124.824L109.811 124.821L110.039 125.128L109.984 125.369L103.63 127.523C103.411 127.586 103.29 127.61 103.057 127.609L103.016 127.239C103.597 126.35 108.178 125.237 109.447 124.824Z" fill="#222222"/>
<path d="M90.0893 126.014L90.281 126.055C91.9975 127.355 92.3475 130.22 92.8383 132.174C91.6231 133.165 90.1529 133.581 88.7267 134.174C85.0508 135.702 81.4131 136.978 77.6237 138.191L77.1273 138.225C76.6912 137.933 76.5366 137.468 76.3559 136.997C75.8344 135.637 75.4294 134.217 74.9851 132.83C77.0137 132.045 78.9513 130.946 80.9469 130.072C83.0859 129.134 85.2998 128.422 87.4391 127.485C88.3632 127.081 89.3439 126.712 90.0893 126.014Z" fill="#222222"/>
<path d="M90.1529 127.344C91.0256 128.088 91.3939 130.67 91.6947 131.782L77.7102 137.228C77.3979 136.938 77.2929 136.499 77.1465 136.107C76.7968 135.171 76.468 134.227 76.1458 133.281C78.4742 132.36 80.7512 131.288 83.0731 130.341C84.3419 129.824 85.6692 129.439 86.945 128.927C88.0577 128.481 89.1026 127.918 90.1529 127.344Z" fill="white"/>
<path d="M196.806 85.3221C197.121 85.7271 196.925 86.9901 197.018 87.5678L197.048 87.7405C197.116 88.16 197.188 88.5365 197.361 88.9287C197.787 89.8931 198.675 90.7376 199.673 91.09C201.425 91.7087 204.382 91.4178 206.064 90.6346C206.842 92.2184 207.781 93.7467 209.1 94.9491C211.207 96.8711 214.105 97.457 216.868 97.3494C217.933 97.3079 219.812 97.0165 220.555 96.229C220.56 96.0006 220.565 95.823 220.454 95.6132C220.14 95.0217 219.313 94.9301 218.743 94.7265C216.382 93.8834 214.388 91.2842 213.333 89.1029C214.138 89.8781 214.962 90.5378 216.014 90.9503C217.602 91.5726 219.943 91.8881 221.541 91.1978L221.581 91.31L221.651 91.4962C222.065 92.6386 222.731 93.5228 223.337 94.5653C224.048 95.7893 224.656 97.3272 224.942 98.7139C225.739 102.57 225.727 106.436 225.343 110.339C224.735 116.519 223.168 122.417 220.951 128.204C220.061 130.527 219.266 132.898 217.883 134.986C216.307 134.411 214.866 133.393 213.388 132.606C211.813 131.767 210.134 131.05 208.601 130.15C207.724 129.635 206.84 129.1 205.98 128.558C205.439 128.218 204.842 127.758 204.234 127.573L203.944 127.477C203.716 127.362 203.43 127.181 203.351 126.937L203.47 126.855C204.011 126.389 204.489 125.207 204.841 124.571C206.145 122.213 207.479 119.855 208.573 117.39C209.643 114.979 210.48 112.476 211.524 110.062C211.977 109.018 212.398 107.951 212.867 106.917C213.202 106.178 214.139 104.819 214.081 104.022C214.057 103.679 213.939 103.609 213.713 103.371C213.366 103.388 213.206 103.411 213.02 103.736C212.595 104.482 212.307 105.443 211.971 106.246C210.857 108.903 209.842 111.594 208.781 114.271C207.579 117.303 206.052 120.252 204.503 123.119C203.888 124.258 203.001 126.331 201.771 126.907C201.601 126.987 201.449 127.08 201.289 127.179C201.383 127.627 201.623 127.927 201.885 128.296C202.331 128.639 202.738 128.677 203.22 128.907C203.648 129.11 203.406 129.223 203.557 129.591C203.393 130.243 202.912 130.908 202.55 131.468C201.848 132.556 201.108 133.619 200.409 134.709C197.383 139.426 194.471 144.326 191.151 148.836C189.249 147.371 187.513 145.708 185.575 144.284C182.437 141.977 178.781 139.867 175.121 138.533C173.778 138.043 172.777 137.652 171.323 137.604L170.896 131.99C172.396 130.608 173.906 129.283 175.287 127.777C175.92 127.088 176.571 126.425 177.052 125.618C177.754 124.442 178.421 123.323 178.802 121.992C179.432 119.791 179.452 117.335 179.236 115.07C180.249 114.299 181.003 113.378 181.561 112.231C181.931 111.471 182.155 110.677 182.325 109.852C183.124 105.978 183.359 101.941 184.245 98.0904C184.471 97.1075 184.744 96.1361 184.965 95.152C185.058 94.7402 185.208 94.273 185.069 93.8634L184.587 93.8354C183.972 94.3461 183.923 95.4586 183.755 96.2164C183.339 98.0829 182.986 99.8992 182.669 101.786C182.578 102.322 182.536 103.387 182.235 103.824L181.873 103.618C181.273 103.859 180.818 104.29 180.298 104.663C179.419 105.294 178.513 105.89 177.633 106.524C176.95 105.238 176.242 104.068 175.264 102.977C172.036 99.3744 167.427 98.1792 162.746 97.896C164.269 97.2054 165.751 96.4227 167.273 95.728C172.42 93.3786 177.654 91.1153 182.958 89.1388C185.214 88.2987 187.438 87.4443 189.752 86.7653C191.971 86.1143 194.516 85.6545 196.806 85.3221Z" fill="white"/>
<path d="M199.062 94.4223C199.587 94.4418 199.712 94.6331 200.06 94.9768C200.071 95.1947 200.132 95.4019 200.018 95.5972C199.756 96.0485 199.248 96.1446 198.783 96.2796C198.535 96.2488 198.288 96.1829 198.094 96.0104C197.831 95.776 197.826 95.5461 197.809 95.2181C198.19 94.8558 198.598 94.6524 199.062 94.4223Z" fill="#222222"/>
<path d="M194.967 106.946C195.147 106.963 195.376 106.972 195.543 107.051C195.825 107.184 195.9 107.363 195.987 107.64C195.857 108.356 195.578 108.844 195.089 109.378C194.987 109.385 194.879 109.398 194.778 109.381C194.383 109.313 194.297 109.189 194.04 108.907C194.028 108.025 194.393 107.577 194.967 106.946Z" fill="#222222"/>
<path d="M197.246 100.156C197.515 100.266 197.647 100.304 197.829 100.546C197.976 100.741 197.961 100.956 197.917 101.188C197.774 101.944 197.268 102.526 196.666 102.959L196.496 102.839C196.138 102.582 195.98 102.414 195.908 101.972C196.129 101.164 196.573 100.638 197.246 100.156Z" fill="#222222"/>
</svg>
