<svg width="247" height="247" viewBox="0 0 247 247" fill="none" xmlns="http://www.w3.org/2000/svg">
<g clip-path="url(#clip0_3559_8462)">
<path d="M229 118.509C229 125.671 226.952 132.568 223.267 137.823C219.581 143.078 214.528 146.303 209.119 146.854C208.937 146.872 208.752 146.89 208.567 146.901V119.92C208.567 119.65 208.522 119.384 208.434 119.14C208.346 118.897 208.218 118.683 208.059 118.513C208.041 118.488 208.02 118.466 207.998 118.447C207.978 118.426 207.957 118.406 207.935 118.389C207.741 118.224 207.519 118.126 207.288 118.104C207.058 118.082 206.828 118.136 206.618 118.261L206.388 117.598C206.639 117.448 206.911 117.369 207.186 117.369L191.459 99.4841C191.58 99.3019 191.707 99.1233 191.834 98.9447C194.799 94.819 198.634 91.9618 202.842 90.7423C207.05 89.5228 211.438 89.9969 215.439 92.1035C219.441 94.2101 222.872 97.8523 225.29 102.559C227.707 107.267 228.999 112.823 229 118.509Z" fill="#F2F2F2"/>
<path d="M24.461 137.894C24.3828 137.366 24.3932 136.823 24.4914 136.301C24.5896 135.779 24.7732 135.293 25.0294 134.875C25.2855 134.457 25.608 134.118 25.974 133.883C26.34 133.647 26.7406 133.521 27.1478 133.512L39.5625 114.004L42.6619 119.235L30.0095 137.39C29.9757 138.294 29.6918 139.15 29.2117 139.796C28.7317 140.442 28.0888 140.833 27.4048 140.895C26.7209 140.957 26.0435 140.686 25.5009 140.133C24.9584 139.58 24.5884 138.783 24.461 137.894Z" fill="#FFB8B8"/>
<path d="M83.4136 113.884C83.3267 114.049 83.2498 114.224 83.1838 114.406L69.6281 116.964L67.5697 113.514L63.2197 116.934L67.3087 125.349L83.8412 118.917C84.2774 119.438 84.8236 119.771 85.407 119.873C85.9905 119.975 86.5835 119.839 87.1073 119.485C87.631 119.131 88.0607 118.575 88.3391 117.891C88.6176 117.206 88.7316 116.426 88.666 115.654C88.6004 114.882 88.3584 114.155 87.972 113.569C87.5857 112.983 87.0733 112.566 86.5032 112.374C85.933 112.182 85.332 112.223 84.7801 112.493C84.2282 112.763 83.7516 113.248 83.4136 113.884Z" fill="#FFB8B8"/>
<path d="M60.2588 179.062L62.6577 182.214L73.012 171.502L69.4716 166.849L60.2588 179.062Z" fill="#FFB8B8"/>
<path d="M65.0654 191.235L57.5264 181.326L60.4267 177.481L65.0529 183.562C65.4354 184.064 65.7392 184.662 65.9468 185.319C66.1545 185.977 66.2619 186.682 66.2631 187.395C66.2643 188.107 66.1591 188.813 65.9536 189.472C65.7481 190.131 65.4463 190.73 65.0654 191.235Z" fill="#2F2E41"/>
<path d="M47.5074 209.302H50.8926L52.5029 192.067H47.5068L47.5074 209.302Z" fill="#FFB8B8"/>
<path d="M57.4209 213.45L46.782 213.451L46.7818 208.025L53.3102 208.025C53.85 208.025 54.3845 208.165 54.8833 208.438C55.382 208.71 55.8351 209.11 56.2168 209.614C56.5985 210.118 56.9013 210.716 57.1079 211.374C57.3145 212.032 57.4209 212.738 57.4209 213.45Z" fill="#2F2E41"/>
<path d="M46.772 195.99L42.9162 158.455C42.3128 152.782 42.5 147.012 43.4688 141.428C44.26 136.941 45.3289 133.833 46.646 132.19C46.8538 131.933 47.1199 131.772 47.4034 131.734L60.134 129.983C60.3793 129.95 60.6266 130.01 60.8471 130.155C61.0676 130.301 61.2522 130.526 61.3794 130.805L61.7979 131.725C61.8487 131.837 61.8896 131.956 61.92 132.08L64.6116 143.094C64.6518 143.261 64.7166 143.415 64.8023 143.548C64.888 143.681 64.9929 143.79 65.1109 143.869C69.3487 146.725 83.1145 156.366 82.3267 160.526C81.5865 164.434 74.6565 170.771 72.5501 172.619C72.3356 172.809 72.083 172.909 71.825 172.906C71.567 172.903 71.3155 172.799 71.1032 172.605L67.6067 169.447C67.436 169.293 67.2958 169.087 67.1977 168.847C67.0996 168.606 67.0466 168.339 67.0429 168.066C67.0393 167.793 67.0853 167.522 67.1769 167.278C67.2686 167.033 67.4033 166.821 67.5698 166.659L69.981 164.313C70.1286 164.17 70.2437 163.976 70.314 163.752C70.3842 163.529 70.407 163.284 70.3798 163.045C70.3527 162.806 70.2766 162.581 70.1598 162.394C70.0429 162.208 69.8898 162.067 69.7168 161.987L56.7675 155.989C56.6221 155.922 56.4669 155.899 56.3139 155.924C56.1609 155.948 56.0141 156.018 55.8849 156.129C55.7557 156.24 55.6474 156.388 55.5684 156.563C55.4894 156.737 55.4418 156.934 55.4293 157.136L53.0417 195.656C53.0153 196.069 52.8765 196.455 52.651 196.744C52.4255 197.032 52.1285 197.203 51.8149 197.225L48.1207 197.469C48.0982 197.47 48.0759 197.471 48.0536 197.471C47.7401 197.472 47.4369 197.323 47.2009 197.05C46.9649 196.778 46.8124 196.401 46.772 195.99Z" fill="#2F2E41"/>
<path d="M52.6108 98.9064C56.3562 98.9064 59.3924 94.8985 59.3924 89.9546C59.3924 85.0108 56.3562 81.0029 52.6108 81.0029C48.8654 81.0029 45.8291 85.0108 45.8291 89.9546C45.8291 94.8985 48.8654 98.9064 52.6108 98.9064Z" fill="#FFB8B8"/>
<path d="M46.2673 130.657L41.2754 106.615L41.3609 106.539C41.4681 106.443 52.2278 97.0649 64.8252 104.623L65.0536 104.796L62.0956 129.75C62.0311 130.319 61.8181 130.841 61.4932 131.225C61.1684 131.61 60.7521 131.832 60.3163 131.855L48.1443 132.473C48.1198 132.474 48.0953 132.475 48.071 132.475C47.6607 132.476 47.2615 132.299 46.9354 131.97C46.6093 131.641 46.3745 131.18 46.2673 130.657Z" fill="#CCCCCC"/>
<path d="M41.0855 122.267L36.9279 115.956C36.7277 115.653 36.615 115.266 36.6096 114.864C36.6042 114.461 36.7065 114.07 36.8986 113.757L41.2448 106.67L44.5812 107.871L46.35 116.043L43.1248 122.125C43.0123 122.339 42.8643 122.515 42.692 122.641C42.5197 122.767 42.3279 122.84 42.1311 122.852C42.1079 122.854 42.0847 122.855 42.0616 122.855C41.8764 122.855 41.6934 122.803 41.5249 122.701C41.3564 122.6 41.2065 122.452 41.0855 122.267Z" fill="#CCCCCC"/>
<path d="M64.0763 120.952C63.8796 120.939 63.6877 120.867 63.5154 120.741C63.3432 120.615 63.1951 120.438 63.0826 120.225L59.8574 114.143L61.4087 105.54L64.4806 104.435L65.0539 104.796L69.3089 111.857C69.5009 112.169 69.6032 112.561 69.5979 112.963C69.5925 113.365 69.4797 113.752 69.2795 114.055L65.122 120.366C65.0009 120.551 64.851 120.699 64.6826 120.801C64.5141 120.902 64.331 120.955 64.1458 120.954C64.1228 120.954 64.0995 120.953 64.0763 120.952Z" fill="#CCCCCC"/>
<path d="M208.568 118.134C208.57 118.225 208.547 118.313 208.501 118.382C208.454 118.455 208.386 118.501 208.313 118.508C208.24 118.516 208.168 118.485 208.112 118.422L207.187 117.368L191.46 99.484L147.348 49.315C147.096 49.0306 146.776 48.8746 146.444 48.8753C146.113 48.876 145.793 49.0332 145.542 49.3186L86.1385 117.441L85.6029 118.054C85.5823 118.078 85.559 118.097 85.5338 118.112C85.4896 118.138 85.441 118.148 85.3929 118.141C85.324 118.131 85.2601 118.089 85.2135 118.021C85.1895 117.985 85.1711 117.943 85.1594 117.898C85.1476 117.853 85.1428 117.805 85.1451 117.757C85.1474 117.709 85.1568 117.663 85.1728 117.62C85.1888 117.577 85.2111 117.539 85.2383 117.507L85.3129 117.419L145.18 48.7683C145.532 48.3694 145.98 48.1495 146.444 48.1482C146.907 48.1469 147.356 48.3642 147.709 48.761L191.835 98.9446L208.471 117.868C208.5 117.901 208.524 117.942 208.54 117.988C208.557 118.033 208.566 118.083 208.568 118.134Z" fill="#3F3D56"/>
<path d="M175.028 128.897L174.302 126.258L171.8 117.146L166.41 97.5269L160.386 75.5968L149.52 36.0411C149.307 35.2697 148.871 34.6414 148.307 34.2937C147.744 33.946 147.099 33.9072 146.513 34.186L83.6947 64.2509C83.1101 64.5323 82.6339 65.108 82.3705 65.852C82.1071 66.5961 82.0779 67.4476 82.2893 68.22L97.6937 124.297L97.956 125.256L114.125 134.929L118.67 137.648L119.407 138.089L138.65 149.602L139.395 149.245L152.017 143.206L171.055 134.094L173.62 132.866C174.205 132.585 174.681 132.009 174.945 131.265C175.209 130.521 175.239 129.67 175.028 128.897Z" fill="#E6E6E6"/>
<path d="M148.687 82.1865C148.373 81.0512 147.732 80.1264 146.903 79.6146C146.073 79.1029 145.124 79.046 144.263 79.4566L119.408 91.3565L107.405 97.1005C106.978 97.304 106.587 97.6164 106.252 98.0199C105.917 98.4234 105.645 98.9101 105.453 99.4522C105.26 99.9943 105.151 100.581 105.13 101.179C105.11 101.777 105.179 102.374 105.334 102.937C105.488 103.5 105.725 104.017 106.031 104.459C106.337 104.9 106.706 105.258 107.117 105.512C107.528 105.765 107.973 105.909 108.426 105.935C108.879 105.962 109.331 105.87 109.757 105.666L119.408 101.048L146.619 88.0253C147.479 87.6116 148.179 86.7647 148.567 85.6702C148.955 84.5756 148.998 83.3228 148.687 82.1865Z" fill="white"/>
<path d="M153.063 98.121C152.749 96.9858 152.108 96.0609 151.278 95.5492C150.449 95.0374 149.5 94.9806 148.639 95.3912L144.429 97.4067L119.407 109.383L111.781 113.031C110.921 113.444 110.22 114.29 109.833 115.385C109.445 116.479 109.403 117.731 109.714 118.867C110.026 120.003 110.667 120.928 111.495 121.441C112.324 121.953 113.273 122.011 114.133 121.6L119.407 119.074L150.995 103.956C151.066 103.923 151.135 103.883 151.204 103.843C152.006 103.379 152.645 102.529 152.99 101.467C153.335 100.404 153.361 99.208 153.063 98.121Z" fill="white"/>
<path d="M157.487 114.223C157.174 113.088 156.533 112.163 155.704 111.652C154.875 111.14 153.927 111.083 153.066 111.493L141.257 117.146L132.114 121.524L119.408 127.603L116.205 129.137C115.464 129.493 114.838 130.172 114.43 131.061C114.022 131.951 113.856 132.998 113.96 134.028C113.991 134.335 114.047 134.637 114.126 134.929L118.67 137.648L119.408 137.294H119.413L142.471 126.258L155.418 120.062C156.279 119.649 156.98 118.802 157.368 117.708C157.756 116.613 157.798 115.36 157.487 114.223Z" fill="white"/>
<path d="M131.606 66.5217C131.293 65.3864 130.651 64.4616 129.822 63.9498C128.993 63.4381 128.044 63.3813 127.183 63.7918L112.908 70.6219C112.048 71.0345 111.347 71.8809 110.96 72.9751C110.572 74.0693 110.53 75.3219 110.841 76.4575C111.153 77.593 111.794 78.5188 112.622 79.0313C113.451 79.5438 114.4 79.6011 115.26 79.1906L119.778 77.0293L122.768 75.5969L129.538 72.3568C130.398 71.944 131.099 71.0977 131.487 70.0038C131.874 68.9098 131.917 67.6575 131.606 66.5217Z" fill="white"/>
<path d="M188.574 75.5969H121.754C121.36 75.5974 120.972 75.7289 120.627 75.9792C120.281 76.2296 119.989 76.5907 119.777 77.0293C119.535 77.5259 119.406 78.1042 119.407 78.6949V138.089L138.65 149.602L141.361 151.224L145.644 153.786C145.894 153.936 146.166 154.013 146.442 154.013C146.717 154.013 146.989 153.936 147.24 153.786L151.522 151.224L164.925 143.206L177.416 135.731L190.921 127.654V78.6949C190.921 77.8734 190.673 77.0858 190.233 76.5049C189.793 75.924 189.196 75.5974 188.574 75.5969Z" fill="#B8BBFD"/>
<path d="M174.768 117.146H135.56C134.669 117.147 133.812 117.603 133.169 118.419C132.527 119.235 132.149 120.348 132.114 121.524C132.11 121.583 132.108 121.642 132.109 121.702C132.11 122.91 132.474 124.068 133.121 124.922C133.768 125.776 134.645 126.256 135.56 126.258H174.768C175.684 126.258 176.562 125.778 177.209 124.924C177.856 124.069 178.22 122.91 178.22 121.702C178.22 120.494 177.856 119.335 177.209 118.481C176.562 117.626 175.684 117.146 174.768 117.146Z" fill="white"/>
<path d="M177.002 135.18C176.38 134.477 175.587 134.092 174.768 134.094H135.56C134.644 134.094 133.767 134.574 133.119 135.428C132.472 136.283 132.108 137.442 132.108 138.65C132.108 139.858 132.472 141.017 133.119 141.871C133.767 142.726 134.644 143.206 135.56 143.206H164.925L177.416 135.73C177.29 135.532 177.152 135.348 177.002 135.18Z" fill="white"/>
<path d="M141.361 151.224L145.644 153.786C145.895 153.936 146.167 154.013 146.442 154.013C146.717 154.013 146.989 153.936 147.24 153.786L151.522 151.224H141.361Z" fill="white"/>
<path d="M165.999 97.7237C165.756 96.8467 165.314 96.0894 164.734 95.5542C164.155 95.019 163.464 94.7318 162.757 94.7314H147.571C146.908 94.7322 146.259 94.9849 145.702 95.4593C145.144 95.9337 144.702 96.6097 144.428 97.4066C144.224 97.9968 144.118 98.6383 144.119 99.2873C144.12 100.495 144.484 101.653 145.131 102.507C145.778 103.361 146.656 103.841 147.571 103.843H162.757C163.312 103.843 163.859 103.666 164.352 103.328C164.844 102.989 165.267 102.499 165.585 101.898C165.904 101.298 166.107 100.604 166.179 99.8777C166.251 99.151 166.189 98.4121 165.999 97.7237Z" fill="white"/>
<path d="M163.586 143.206L150.183 151.224L147.011 153.123C146.832 153.229 146.638 153.284 146.442 153.284C146.246 153.284 146.052 153.229 145.873 153.123L142.7 151.224H141.361L145.644 153.786C145.894 153.936 146.167 154.013 146.442 154.013C146.717 154.013 146.989 153.936 147.24 153.786L151.522 151.224L164.925 143.206H163.586ZM163.586 143.206L150.183 151.224L147.011 153.123C146.832 153.229 146.638 153.284 146.442 153.284C146.246 153.284 146.052 153.229 145.873 153.123L142.7 151.224H141.361L145.644 153.786C145.894 153.936 146.167 154.013 146.442 154.013C146.717 154.013 146.989 153.936 147.24 153.786L151.522 151.224L164.925 143.206H163.586ZM163.586 143.206L150.183 151.224L147.011 153.123C146.832 153.229 146.638 153.284 146.442 153.284C146.246 153.284 146.052 153.229 145.873 153.123L142.7 151.224H141.361L145.644 153.786C145.894 153.936 146.167 154.013 146.442 154.013C146.717 154.013 146.989 153.936 147.24 153.786L151.522 151.224L164.925 143.206H163.586ZM208.568 118.134C208.466 118 208.354 117.881 208.233 117.777C207.962 117.545 207.651 117.407 207.329 117.375C207.006 117.344 206.683 117.421 206.389 117.598L177.002 135.18L163.586 143.206L150.183 151.224L147.011 153.123C146.832 153.229 146.638 153.284 146.442 153.284C146.246 153.284 146.052 153.229 145.873 153.123L142.7 151.224L139.395 149.245L119.413 137.294L119.407 137.291L113.96 134.029L97.6937 124.297L86.4945 117.598C86.3805 117.529 86.2611 117.476 86.1383 117.442C85.8678 117.352 85.5856 117.345 85.3126 117.42C84.876 117.538 84.4835 117.851 84.2013 118.306C83.9192 118.762 83.7646 119.332 83.7637 119.92V211.449C83.7642 212.125 83.9681 212.774 84.3304 213.252C84.6928 213.73 85.184 213.999 85.6965 214H207.187C207.699 213.999 208.191 213.73 208.553 213.252C208.915 212.774 209.119 212.125 209.12 211.449V119.92C209.121 119.252 208.922 118.61 208.568 118.134ZM208.568 211.449C208.567 211.932 208.422 212.396 208.163 212.737C207.904 213.079 207.553 213.271 207.187 213.271H85.6965C85.3304 213.271 84.9793 213.079 84.7204 212.737C84.4615 212.396 84.316 211.932 84.3159 211.449V119.92C84.316 119.615 84.3739 119.316 84.4844 119.048C84.5948 118.781 84.7543 118.554 84.9482 118.389C85.0846 118.274 85.2349 118.19 85.3927 118.141C85.4392 118.128 85.4862 118.118 85.5336 118.112C85.5875 118.102 85.642 118.097 85.6965 118.098C85.8928 118.098 86.0867 118.154 86.2653 118.262L97.9559 125.256L114.125 134.929L118.67 137.648L119.407 138.089L138.65 149.602L141.361 151.224L145.644 153.786C145.894 153.936 146.167 154.013 146.442 154.013C146.717 154.013 146.989 153.936 147.24 153.786L151.522 151.224L164.925 143.206L177.416 135.731L206.618 118.262C206.828 118.136 207.059 118.082 207.289 118.104C207.519 118.126 207.741 118.224 207.935 118.389C207.957 118.406 207.979 118.426 207.999 118.448C208.021 118.466 208.041 118.488 208.059 118.513C208.218 118.683 208.346 118.897 208.434 119.141C208.522 119.384 208.568 119.65 208.567 119.92L208.568 211.449ZM163.586 143.206L150.183 151.224L147.011 153.123C146.832 153.229 146.638 153.284 146.442 153.284C146.246 153.284 146.052 153.229 145.873 153.123L142.7 151.224H141.361L145.644 153.786C145.894 153.936 146.167 154.013 146.442 154.013C146.717 154.013 146.989 153.936 147.24 153.786L151.522 151.224L164.925 143.206H163.586ZM163.586 143.206L150.183 151.224L147.011 153.123C146.832 153.229 146.638 153.284 146.442 153.284C146.246 153.284 146.052 153.229 145.873 153.123L142.7 151.224H141.361L145.644 153.786C145.894 153.936 146.167 154.013 146.442 154.013C146.717 154.013 146.989 153.936 147.24 153.786L151.522 151.224L164.925 143.206H163.586ZM118.67 137.648L119.407 138.089V137.294L118.67 137.648ZM163.586 143.206L150.183 151.224L147.011 153.123C146.832 153.229 146.638 153.284 146.442 153.284C146.246 153.284 146.052 153.229 145.873 153.123L142.7 151.224H141.361L145.644 153.786C145.894 153.936 146.167 154.013 146.442 154.013C146.717 154.013 146.989 153.936 147.24 153.786L151.522 151.224L164.925 143.206H163.586Z" fill="#3F3D56"/>
<path d="M67.4654 214H36.2644C36.1912 214 36.1209 213.962 36.0691 213.893C36.0174 213.825 35.9883 213.732 35.9883 213.635C35.9883 213.539 36.0174 213.446 36.0691 213.378C36.1209 213.309 36.1912 213.271 36.2644 213.271H67.4654C67.5386 213.271 67.6088 213.309 67.6606 213.378C67.7124 213.446 67.7415 213.539 67.7415 213.635C67.7415 213.732 67.7124 213.825 67.6606 213.893C67.6088 213.962 67.5386 214 67.4654 214Z" fill="#3F3D56"/>
<path d="M50.0318 96.501C49.5224 96.1598 49.0988 95.631 48.8124 94.9787C48.5259 94.3263 48.3889 93.5783 48.4178 92.8253C48.4467 92.0722 48.6404 91.3464 48.9753 90.7356C49.3103 90.1248 49.7722 89.6553 50.3051 89.3838C52.3515 88.3414 54.6457 90.4688 56.7908 89.864C58.9288 89.2611 60.1657 85.8871 59.6553 83.081C59.145 80.2748 57.2875 78.1612 55.2394 77.1518C53.9017 76.4942 52.4691 76.242 51.0476 76.414C49.6262 76.586 48.2522 77.1777 47.0274 78.1454C45.8152 79.1414 44.8057 80.5131 44.0865 82.1413C43.3674 83.7695 42.9604 85.605 42.901 87.4881C42.8731 89.3728 43.222 91.234 43.9124 92.8842C44.6028 94.5344 45.6105 95.9153 46.8338 96.888C47.379 97.3028 48.0136 97.6359 48.6268 97.4491C49.1302 97.2332 49.6045 96.9132 50.0318 96.501Z" fill="#2F2E41"/>
<path d="M47.8342 77.9271C46.0297 74.7678 43.5937 72.1723 40.7592 70.8855C37.9246 69.5987 34.6854 69.702 32.0233 71.5205C29.3611 73.339 27.3757 76.9506 27.1685 80.8978C26.8236 87.4672 31.0762 93.0515 31.5127 99.6114C31.651 101.691 31.3953 103.783 30.7687 105.699C30.142 107.616 29.164 109.296 27.9229 110.589C26.6817 111.883 25.2163 112.748 23.6587 113.108C22.101 113.467 20.5001 113.31 19 112.65C20.0684 113.811 21.3072 114.667 22.6385 115.166C23.9698 115.665 25.3648 115.795 26.7359 115.548C28.1048 115.276 29.4108 114.606 30.5593 113.586C31.7077 112.566 32.6698 111.222 33.3757 109.65C34.3328 107.455 34.7258 104.905 34.8785 102.381C35.1182 98.3889 34.7935 94.3731 33.921 90.538C33.444 88.4455 32.7971 86.2922 33.0996 84.1439C33.272 83.0264 33.6894 82.0005 34.2998 81.1935C34.9103 80.3865 35.6869 79.8341 36.5332 79.6049C37.9009 79.2666 39.2992 79.8176 40.6052 80.4517C41.9111 81.0858 43.2278 81.8196 44.6189 81.8616C46.01 81.9036 47.5252 81.0631 48.0628 79.369L47.8342 77.9271Z" fill="#2F2E41"/>
</g>
<defs>
<clipPath id="clip0_3559_8462">
<rect width="210" height="180" fill="white" transform="translate(19 34)"/>
</clipPath>
</defs>
</svg>
