<svg width="247" height="247" viewBox="0 0 247 247" fill="none" xmlns="http://www.w3.org/2000/svg">
<path d="M40.9384 61.8462C41.1876 61.8944 41.3832 62.0025 41.6085 62.1151C41.7863 62.4304 41.8106 62.6663 41.836 63.0165C41.6584 63.4367 41.3446 63.607 40.9782 63.8576C40.6974 63.8089 40.53 63.7035 40.29 63.5593C40.1231 63.2406 40.093 63.004 40.0684 62.6547C40.2809 62.2377 40.5469 62.0876 40.9384 61.8462Z" fill="#222222"/>
<path d="M35.3331 63.5312C35.6935 63.5392 35.8838 63.5969 36.2044 63.7399C36.4475 64.0732 36.6 64.2571 36.552 64.7047C36.5071 65.1252 36.2198 65.3389 35.9246 65.5987L35.2777 65.5622C34.9619 65.2803 34.8285 65.1416 34.7849 64.7047C34.7352 64.2103 35.0256 63.8757 35.3331 63.5312Z" fill="#222222"/>
<path d="M40.3089 65.3444C40.5194 65.3365 40.7382 65.3317 40.9464 65.369C41.623 65.4909 42.232 65.7702 42.6349 66.3315C42.6817 66.5908 42.7188 66.8146 42.6604 67.0754C42.4366 68.0749 41.6476 68.6437 40.8487 69.1688L40.6741 69.2106C40.2531 69.2846 40.1555 69.2393 39.8276 68.9795C39.7869 68.8068 39.7659 68.7568 39.7666 68.5641C39.7695 67.8576 40.7003 67.3105 41.1948 66.9224C40.6929 66.7555 40.2761 66.6933 40.0105 66.2123C40.0221 65.7666 40.0768 65.7046 40.3089 65.3444Z" fill="#222222"/>
<path d="M111.521 172.558C111.872 172.594 112.288 172.575 112.529 172.888C112.695 173.105 112.714 173.241 112.694 173.496C112.588 174.857 111.373 176.112 110.518 177.089C109.877 177.821 109.253 178.554 108.504 179.181C108.274 179.16 108.016 179.104 107.821 178.969C107.502 178.751 107.48 178.554 107.439 178.195C107.661 177.616 108.153 177.251 108.576 176.817C109.175 176.203 109.82 175.491 110.313 174.787C110.834 174.044 110.822 173.26 111.521 172.558Z" fill="#222222"/>
<path d="M164.35 106.583C164.538 106.623 164.824 106.656 164.989 106.751C165.326 106.946 165.304 107.111 165.359 107.46C165.143 108.14 164.648 108.767 164.253 109.356C163.242 110.865 162.099 112.587 160.597 113.639L160.044 113.369C159.775 113.18 159.751 113.012 159.726 112.706C160.357 111.59 161.34 110.66 162.088 109.616C162.68 108.79 163.15 107.813 163.794 107.037C163.947 106.853 164.146 106.708 164.35 106.583Z" fill="#222222"/>
<path d="M44.8239 34.7979C45.0656 34.8374 45.3094 34.8931 45.528 35.0079C46.7053 35.6262 47.882 36.5063 48.9534 37.2944C53.1006 40.3447 56.93 44.2972 59.6839 48.6583C60.0846 49.2929 60.6965 50.1008 60.8859 50.835C61.0135 51.3304 60.7918 51.5307 60.527 51.9065C60.0617 51.8693 59.8612 51.7622 59.5544 51.4202C59.2329 51.062 59.0445 50.5258 58.8293 50.0981C58.5611 49.5655 58.2326 49.0633 57.9139 48.5599C56.6261 46.525 55.065 44.6376 53.4081 42.8946C51.5582 40.9485 49.5338 39.2923 47.3662 37.7192C46.5063 37.0949 45.1997 36.5129 44.5091 35.7593C44.4913 35.2733 44.5774 35.2004 44.8239 34.7979Z" fill="#222222"/>
<path d="M175.737 160.868C175.981 160.876 176.218 160.886 176.445 160.987C176.757 161.127 177.108 161.481 177.387 161.689C177.825 162.017 178.302 162.305 178.791 162.551C179.741 163.032 180.738 163.413 181.693 163.885C188.224 167.116 195.229 170.82 199.772 176.674C200.33 177.392 201.2 178.211 201.558 179.039C201.511 179.629 201.502 179.65 201.095 180.078L200.47 180.022C199.896 179.854 199.383 178.854 199.007 178.384C198.396 177.619 197.773 176.868 197.092 176.164C194.675 173.663 191.991 171.724 189.053 169.886C186.601 168.352 184.049 166.917 181.464 165.623C179.676 164.727 177.707 163.971 176.053 162.855C175.652 162.585 175.445 162.352 175.243 161.913C175.251 161.323 175.364 161.299 175.737 160.868Z" fill="#222222"/>
<path d="M42.3099 45.4594C42.5521 45.4557 42.7938 45.4439 43.0307 45.5062C43.9318 45.7425 44.9032 47.0989 45.3694 47.8724C46.1314 49.1366 46.6035 50.5981 46.205 52.0755C45.7375 53.8079 44.4432 55.1698 42.9018 56.0292C41.9423 56.5642 40.7705 56.8715 39.7475 57.299C38.9453 57.634 38.1801 58.0542 37.3521 58.326C34.492 59.2643 31.9678 58.8075 29.1466 58.0243C27.8884 57.5911 26.7098 56.9634 25.5236 56.3662L25.4046 55.5994C25.2932 54.9076 25.3352 54.4655 25.4893 53.786C25.9136 51.9144 27.1882 49.8904 28.867 48.8903C30.7588 47.7634 32.8788 48.364 34.9004 48.6646C35.6112 48.7702 36.4374 48.7852 37.121 48.983C37.401 49.064 37.5361 49.0782 37.8253 49.0085C39.2791 48.6583 40.5693 48.2603 41.451 46.9204C41.7549 46.4585 41.8499 45.9948 42.2267 45.5537L42.3099 45.4594Z" fill="#222222"/>
<path d="M136.091 120.199C137.367 120.875 138.639 121.104 139.993 121.531C141.43 121.984 142.874 122.572 144.278 123.124C146.102 123.841 147.867 124.727 149.679 125.482C153.891 127.236 158.135 128.907 162.353 130.65C164.807 131.663 167.273 132.637 169.725 133.659C170.426 133.951 171.198 134.147 171.874 134.486C172.191 134.644 172.524 134.935 172.584 135.302C172.668 135.821 172.234 136.518 171.965 136.947C171.035 138.43 169.86 139.824 168.822 141.238C166.81 143.978 164.792 146.715 162.814 149.48C159.971 153.453 157.412 157.602 154.637 161.619C151.757 165.79 148.666 169.816 145.799 174.001C144.944 175.304 143.99 176.813 142.923 177.939C142.572 178.309 142.018 178.85 141.455 178.789C140.156 178.648 138.512 176.718 137.551 175.858C136.875 175.253 136.172 174.698 135.437 174.168C132.357 171.95 129.373 169.653 126.199 167.563C122.046 164.827 117.464 162.779 114.052 159.052C114.195 158.071 114.423 157.121 114.84 156.217C116.256 153.148 118.041 150.351 119.79 147.471C120.803 145.802 121.749 144.062 122.716 142.364C125.059 138.25 127.295 134.073 129.639 129.959C131.552 126.6 133.467 123.066 136.091 120.199Z" fill="#222222"/>
<path d="M156.953 153.97L157.208 154.077C157.182 154.662 156.503 155.355 156.194 155.853C153.098 160.85 149.401 165.442 146.01 170.235C144.683 172.111 143.573 174.309 142.03 176.007L141.897 176.028L141.854 175.782C143.272 173.582 144.612 171.316 146.1 169.167C147.365 167.34 148.789 165.629 150.045 163.78C151.507 161.626 152.947 159.477 154.451 157.351C155.256 156.213 156.042 155.025 156.953 153.97Z" fill="white"/>
<path d="M136.313 121.548L169.171 135.028L144.335 169.868L140.983 175.137C139.773 174.32 138.738 173.229 137.596 172.316C135.384 170.549 133.054 168.822 130.713 167.234C128.814 165.947 126.907 164.59 124.93 163.427C123.125 162.365 121.216 161.457 119.43 160.375C118.418 159.762 117.457 159.039 116.506 158.336C117.365 156.169 118.228 153.92 119.281 151.842C120.223 149.982 121.325 148.203 122.258 146.339C124.886 141.086 127.69 135.947 130.622 130.857C131.593 129.172 132.479 127.429 133.484 125.765C134.355 124.324 135.368 122.943 136.313 121.548Z" fill="white"/>
<path d="M138.669 150.879C139.618 150.807 140.008 150.957 140.842 151.35C141.884 151.841 143.226 152.476 143.635 153.623C143.346 153.625 143.013 153.621 142.737 153.522C142.255 153.348 141.825 152.978 141.367 152.745C140.512 152.31 139.358 152.051 138.656 151.42L138.669 150.879Z" fill="#222222"/>
<path d="M126.905 151.02C128.507 150.972 130.859 152.124 132.244 152.928C132.325 153.31 132.225 153.463 132.097 153.826C131.003 153.662 130.025 153.081 129.028 152.632C128.465 152.379 127.85 152.208 127.299 151.935C126.991 151.782 126.841 151.682 126.723 151.36L126.905 151.02Z" fill="#222222"/>
<path d="M128.473 147.318C129.68 147.407 130.888 148.083 131.993 148.542C132.553 148.774 133.239 148.953 133.755 149.267C134.201 149.538 134.216 149.951 134.302 150.414C133.929 150.433 133.636 150.454 133.299 150.265C132.317 149.715 131.231 149.324 130.181 148.922C129.723 148.747 129.112 148.589 128.725 148.284C128.473 148.085 128.512 147.633 128.473 147.318Z" fill="#222222"/>
<path d="M130.139 156.99C131.503 157.053 133.009 157.777 134.294 158.213C134.719 158.357 135.678 158.563 135.983 158.882C136.288 159.201 136.23 159.43 136.244 159.836L136.054 159.845C134.666 159.888 133.216 159.054 131.958 158.533C131.47 158.331 130.588 158.071 130.226 157.694C130.044 157.505 130.129 157.243 130.139 156.99Z" fill="#222222"/>
<path d="M136.047 153.585C136.843 153.613 137.428 153.94 138.136 154.251C139.603 154.895 140.962 155.661 142.365 156.431C143.106 156.837 144.134 157.274 144.72 157.872C144.912 158.067 144.824 158.399 144.819 158.666C144.196 158.609 143.813 158.223 143.286 157.933C142.104 157.283 140.877 156.651 139.678 156.029C138.513 155.425 136.995 155.035 135.999 154.194L136.047 153.585Z" fill="#222222"/>
<path d="M145.256 137.138L145.35 137.132L145.505 137.128C146.311 137.1 147.141 137.269 147.766 137.827C148.137 138.158 148.441 138.671 148.406 139.181C148.366 139.752 147.813 140.302 147.437 140.676C147.067 140.837 146.754 140.912 146.355 140.967L145.237 139.891C144.772 139.335 144.485 138.711 144.606 137.973C144.68 137.52 144.922 137.401 145.256 137.138Z" fill="#222222"/>
<path d="M127.338 143.127C130.984 143.618 134.801 145.348 138.173 146.775C139.306 147.255 140.472 147.634 141.599 148.136C143.171 148.838 144.692 149.666 146.235 150.429C147.548 151.078 148.896 151.657 150.208 152.308C150.727 152.566 151.325 152.813 151.511 153.374C150.104 153.501 149.386 153.018 148.147 152.446C147.084 151.956 146.027 151.46 144.982 150.933C142.553 149.707 140.111 148.687 137.611 147.626C136.446 147.131 135.306 146.576 134.127 146.113C132.598 145.514 130.986 145.082 129.43 144.551C128.77 144.326 127.932 144.134 127.385 143.701L127.338 143.127Z" fill="#222222"/>
<path d="M139.542 127.55L140.013 127.599C141.039 127.746 142.084 128.2 143.06 128.546C144.185 128.945 145.323 129.285 146.403 129.798C149.28 131.167 151.784 132.972 154.515 134.577C155.71 135.28 156.909 135.972 158.124 136.637C159.078 137.159 161.093 137.957 161.681 138.824C161.86 139.09 161.729 139.411 161.685 139.719C160.521 139.211 159.431 138.571 158.315 137.971C156.483 136.986 154.644 135.973 152.888 134.856C150.695 133.463 148.586 131.991 146.234 130.857C145.256 130.385 139.773 128.594 139.431 128.143L139.542 127.55Z" fill="#222222"/>
<path d="M138.159 131.109C138.642 131.081 139.08 131.274 139.468 131.546C140.623 132.356 141.458 133.339 141.674 134.763C141.901 136.255 141.393 137.422 140.526 138.605L142.773 141.148C142.981 140.508 143.055 139.66 143.581 139.24C144.117 139.395 145.315 140.606 145.648 141.109C145.457 141.492 145.413 141.647 145.455 142.073C145.592 142.33 145.869 142.808 146.175 142.887C146.216 142.898 146.427 142.787 146.476 142.795C146.724 142.835 146.883 143.149 147.091 143.219C147.76 143.445 148.708 142.989 149.412 143.241C149.757 143.365 150.218 143.479 150.577 143.346C150.669 142.847 150.789 142.257 151.061 141.825C151.925 140.447 153.423 139.825 154.93 139.465C156.271 140.02 156.776 140.905 157.351 142.205C157.722 143.044 157.832 144.658 157.463 145.509C157.169 146.187 156.847 146.804 156.434 147.419C155.801 148.363 155.132 148.708 154.084 149.014C153.469 148.812 152.711 148.632 152.17 148.275C150.984 147.493 150.663 145.952 150.383 144.664C149.73 144.6 149.041 144.656 148.398 144.518C147.082 144.236 145.597 144.337 144.271 144.513C143.498 143.984 142.971 143.331 142.349 142.645C141.367 141.562 140.432 140.423 139.4 139.389C138.732 139.706 138.068 140.03 137.358 140.244L137.142 140.307C136.074 140.623 134.837 140.651 133.802 140.193C133.131 139.896 132.452 139.236 132.234 138.519C131.866 137.308 132.568 136.072 133.144 135.058C133.931 133.672 135.57 131.833 137.142 131.405L138.159 131.109Z" fill="#222222"/>
<path d="M137.685 131.959C138.002 131.943 138.413 131.931 138.712 132.049C139.429 132.333 140.432 133.619 140.665 134.323C140.918 135.085 140.624 136.252 140.242 136.925C139.369 138.46 137.805 138.99 136.191 139.433L135.741 139.512C134.756 139.603 134.001 139.413 133.245 138.757C133.004 138.249 132.905 137.518 133.091 136.976C133.909 134.593 135.421 133.007 137.685 131.959Z" fill="white"/>
<path d="M197.855 52.9942C198.604 52.9088 199.472 52.8895 200.213 53.0299C202.601 53.4814 205.149 54.6942 206.542 56.7508C207.563 56.8092 208.218 56.8695 209.08 57.4821C211.359 59.1019 212.516 62.8896 213.013 65.5492C213.552 68.431 213.575 72.0247 212.835 74.8655C212.544 75.9821 212.068 77.0851 211.687 78.1759L214.793 77.1715C216.916 76.6461 219.197 76.8277 221.083 78.0302C222.376 78.8542 222.711 79.7211 223 81.1273C222.661 82.1703 222.349 82.9465 221.419 83.6246C220.534 84.2693 218.856 84.9447 217.73 84.7346L217.573 84.7028C216.571 84.5154 215.694 84.1979 214.814 83.688C214.069 83.2558 213.328 82.7492 212.643 82.2277C212.16 81.8601 211.608 81.1259 211 81.0499L210.714 81.3485C210.696 81.712 210.672 81.7909 210.898 82.096C212.383 84.1044 215.336 85.7506 217.802 86.0483C219.048 86.1988 220.463 85.8801 221.455 85.1068C221.611 84.9848 221.752 84.8581 221.933 84.7728C222.229 84.6333 222.287 84.6994 222.578 84.8097C222.794 85.089 222.934 85.2658 222.984 85.63C222.149 88.2469 220.343 90.5529 217.995 92.0173C216.804 92.76 215.836 92.8579 214.494 92.5484C211.591 91.8786 209.514 88.7327 208.011 86.3611C208.225 88.8258 208.613 91.29 209.434 93.6324C211.274 94.1066 212.599 94.9104 214.196 95.9003C216.505 97.3328 218.736 98.9002 220.392 101.096C222.005 103.236 222.953 105.583 223.918 108.057C224.881 110.526 225.803 113.132 226.238 115.755C226.566 117.74 226.606 119.751 226.796 121.751C226.976 123.646 227.282 125.896 226.982 127.777L226.919 128.142C226.912 128.569 226.943 128.903 226.883 129.349C226.624 131.293 225.952 132.995 225.043 134.718C225.467 135.356 225.962 136.018 226.193 136.755C226.363 137.301 226.434 137.89 226.109 138.395C225.849 138.798 225.519 139.076 225.039 139.154C224.067 139.312 222.755 138.46 221.97 137.946C222.296 138.844 222.88 139.766 223.087 140.686C223.172 141.065 223.169 141.476 222.975 141.818C222.7 142.077 222.525 142.197 222.142 142.24C220.796 142.392 219.952 141.352 218.987 140.578C219.108 141.28 219.156 141.764 218.875 142.426C218.715 142.537 218.61 142.657 218.411 142.671C217.239 142.756 216.254 141.651 215.429 140.934C215.375 141.316 215.349 141.771 215.179 142.117C215.081 142.316 214.817 142.347 214.618 142.419C213.425 142.237 212.589 141.224 211.845 140.368C209.326 140.416 206.803 140.967 204.289 140.665C203.335 140.551 202.389 140.419 201.455 140.19C200.425 139.937 199.165 139.245 198.135 139.292L196.406 139.316C196.133 139.104 196.161 139.103 196.106 138.757C196.154 138.676 196.173 138.569 196.25 138.516C196.329 138.461 196.614 138.44 196.725 138.416C197.247 138.302 197.76 138.159 198.276 138.022C200.146 137.525 202.1 137.078 203.914 136.403C204.705 136.108 205.427 135.555 206.232 135.319C206.818 135.146 207.435 135.138 208.019 134.948C208.02 134.611 207.956 134.558 207.769 134.271L206.964 134.238C206.741 134.213 206.568 134.249 206.435 134.053C206.293 133.844 206.253 133.705 206.27 133.45C206.304 132.941 206.627 132.338 206.838 131.87C207.347 130.738 207.981 129.606 208.395 128.439C208.587 127.898 208.654 127.287 208.739 126.721C211.159 126.123 213.913 126.284 216.351 126.658C215.95 124.741 215.941 122.78 215.664 120.842C215.517 119.817 214.343 113.304 213.963 112.856C213.68 112.869 213.627 112.887 213.386 113.035C213.367 113.648 213.598 114.344 213.7 114.954C213.916 116.24 214.124 117.525 214.276 118.821C214.379 120.116 215.135 124.497 214.54 125.37C214.008 125.587 213.432 125.507 212.869 125.564C211.782 125.675 210.814 125.816 209.71 125.784C208.276 124.187 206.214 124.54 204.303 124.304C201.885 124.005 199.358 124.135 196.915 123.93C195.898 123.845 194.451 123.88 193.693 123.112C193.056 122.467 192.658 121.584 192.247 120.787C191.178 118.715 190.087 116.559 190.084 114.174C190.079 110.324 192.567 107.457 195.116 104.879C194.696 103.926 194.736 103.406 194.907 102.413C194.378 103.122 193.718 103.706 193.127 104.361C191.794 105.834 190.561 107.767 189.779 109.592C188.022 113.694 188.798 116.969 190.775 120.794C191.228 121.669 191.827 122.516 192.191 123.427C192.167 123.529 192.181 123.649 192.118 123.734C191.876 124.066 189.566 124.365 189.11 124.48C188.135 124.725 187.169 125.105 186.215 125.424C185.2 125.764 184.05 126.056 183.243 126.797C183.243 127.094 183.171 127.282 183.381 127.508C185.502 126.535 187.993 125.797 190.261 125.251C191.154 125.036 192.077 124.756 192.988 124.641C193.698 124.55 194.474 124.797 195.168 124.945C195.887 125.098 196.594 125.179 197.328 125.222C200.491 125.409 203.674 125.174 206.835 125.432C207.303 125.47 207.523 125.521 207.891 125.819L207.933 126.334C207.912 127.008 207.41 127.829 207.143 128.445C206.653 129.573 206.196 130.718 205.733 131.857C205.402 132.67 205.144 133.53 204.781 134.325C204.688 134.528 204.553 134.69 204.378 134.826C203.207 135.731 201.265 135.93 199.861 136.286C198.074 136.738 196.279 137.108 194.488 137.532C192.411 138.024 190.329 138.527 188.207 138.789C187.009 138.937 185.496 138.889 184.298 138.747C182.012 138.475 179.407 137.98 177.954 135.991C175.989 133.301 177.17 129.854 177.671 126.893C178.686 120.901 181.521 115.276 184.049 109.819C185.504 106.678 186.911 103.475 188.8 100.561C190.666 97.6838 192.881 95.0131 196.401 94.2523C196.927 92.6628 197.063 91.0611 197.44 89.4465C195.41 89.6539 193.819 90.1189 191.856 89.2228C189.928 88.3422 188.997 86.6228 188.195 84.7619C186.824 81.5825 186.051 78.1086 185.962 74.6484C185.935 73.6015 186.019 72.5055 186.092 71.4589C186.122 71.0196 186.258 70.4513 186.106 70.042C185.619 69.9819 185.213 69.9132 184.833 69.5779C184.225 69.0405 183.902 68.2496 183.901 67.4449C183.899 65.2171 185.047 62.975 186.106 61.0926C186.397 60.5735 186.572 59.9992 187.008 59.5783C190.292 56.4095 193.024 53.3577 197.855 52.9942Z" fill="#222222"/>
<path d="M209.41 94.834C210.239 95.1191 210.88 95.718 211.45 96.3623C211.445 97.3788 208.967 97.7157 208.546 98.8362C209.154 99.6683 209.701 100.494 210.159 101.418C209.5 101.886 208.909 102.445 208.258 102.924C207.54 103.453 206.147 104.179 205.771 104.987C205.7 105.578 205.931 105.935 206.215 106.421L204.203 108.566C203.554 109.182 202.682 109.993 201.72 109.921C200.336 109.816 198.812 108.161 197.95 107.184C196.996 106.103 196.331 105.014 196.229 103.54C196.187 102.937 196.319 102.224 196.357 101.61C196.56 101.427 196.673 101.342 196.726 101.067C196.561 100.685 196.485 100.543 196.104 100.356C195.471 100.045 195.025 99.6129 194.501 99.143C194.071 98.6859 193.703 98.2334 193.343 97.7194C193.96 96.8119 194.544 96.4171 195.47 95.8775L194.603 97.5126C194.973 98.0088 195.324 98.4097 195.8 98.8082C196.277 99.2062 196.987 99.6963 197.304 100.228C198.373 102.017 199.625 108.814 201.23 109.432C201.464 109.523 201.553 109.53 201.784 109.447C202.789 109.085 204.214 107.115 204.753 106.167C205.282 105.235 205.609 104.081 206.042 103.087C206.747 101.468 207.557 99.8987 208.289 98.2934C208.382 98.0911 208.463 97.8291 208.615 97.6615C208.918 97.3281 209.408 97.152 209.65 96.7557C209.957 96.253 209.563 95.3726 209.41 94.834Z" fill="white"/>
<path d="M209.931 127.855C210.876 127.784 214.55 127.6 215.255 127.985L219.201 130.1L221.426 129.578C222.381 129.953 223 130.321 223.716 131.065L221.93 131.51C221.17 131.251 220.446 130.788 219.683 130.599L219.478 130.732C219.291 131.192 219.265 131.508 219.279 132.003C219.608 132.47 220.177 132.489 220.652 132.754C222.545 133.81 224.04 135.551 224.673 137.607C224.102 137.478 223.507 137.367 222.988 137.084C222.195 136.651 221.423 135.888 220.772 135.263C220.353 134.86 219.902 134.26 219.321 134.137C219.03 134.313 218.877 134.435 218.67 134.716C219.048 135.547 219.595 136.296 220.026 137.101C220.582 138.138 221.004 139.32 221.335 140.448L221.247 140.554C220.484 140.309 219.833 139.756 219.234 139.239C218.312 138.443 217.962 137.216 217.04 136.465C216.723 136.412 216.746 136.4 216.485 136.586C216.21 137.424 217.241 138.888 217.572 139.705C217.781 140.221 217.929 140.772 218.085 141.306C217.435 140.8 216.592 140.317 216.034 139.726C215.202 138.846 214.894 137.022 214.421 135.897C214.235 135.457 214.023 135.328 213.592 135.158C213.388 135.265 213.259 135.296 213.241 135.56C213.226 135.784 213.431 136.234 213.508 136.46C213.877 137.54 214.785 139.289 214.324 140.392C214.224 140.631 214.27 140.609 214.014 140.718C213.413 140.065 212.981 139.255 212.491 138.516C211.176 136.536 209.868 134.209 208.206 132.516L208.076 132.385L209.931 127.855Z" fill="white"/>
<path d="M205.694 57.9995L205.949 58.0519C205.959 58.1992 206.006 58.3485 205.978 58.4938C205.914 58.8382 204.479 60.0529 204.175 60.3627C203.071 61.4867 202.093 62.7936 200.933 63.8527C199.834 64.8552 198.233 65.6806 197.593 67.0809C197.553 67.5392 197.593 67.6836 197.823 68.0819L198.027 68.1024C198.381 68.0882 198.772 67.8093 199.018 67.5814C199.237 67.3788 199.368 67.2606 199.662 67.1672C199.974 67.2466 200.219 67.3585 200.438 67.5995C201.098 68.3255 201.527 69.4512 202.008 70.3131C202.652 71.4656 203.441 72.5257 204.129 73.65C204.669 74.5316 205.094 75.6685 205.772 76.4341C206.752 76.6007 207.02 75.0302 208.105 74.8201C208.541 74.7354 209.013 74.7005 209.393 74.9564C209.829 75.2495 210.133 75.7743 210.23 76.2821C210.373 77.0253 210.228 78.0458 209.793 78.6761C209.054 79.7454 208.093 80.0508 206.881 80.3024C206.371 83.8846 206.386 87.763 207.163 91.3107C207.425 92.511 207.861 93.6613 208.122 94.8587L208.146 94.9757C207.767 96.3053 207.069 97.5586 206.496 98.8155C205.782 100.382 205.047 101.932 204.295 103.48C203.501 105.112 202.728 106.614 201.42 107.894C200.989 107.039 200.783 106.071 200.565 105.145C200.02 103.164 199.289 100.683 197.999 99.0567C197.466 98.3855 196.77 97.855 196.11 97.3159L197.351 95.8033C198.09 94.6985 198.327 93.4047 198.6 92.1287C198.71 91.6127 198.896 91.0447 198.888 90.5179C198.882 90.1081 198.772 89.6741 198.69 89.2732C199.401 89.0959 200.504 88.9138 201.017 88.3716C201.258 88.1171 201.247 87.9097 201.257 87.5773L200.881 87.2471C200.227 87.0746 199.339 87.5281 198.684 87.6706C197.494 87.9297 196.22 88.1953 195.006 88.2705C193.729 88.3499 192.44 88.0308 191.483 87.1436C190.199 85.952 189.562 84.3759 188.987 82.761C188.014 80.0274 187.319 77.0595 187.108 74.1597C187.009 72.8142 187.019 71.4335 186.985 70.083C189.898 70.049 192.045 68.6589 194.485 67.2389C196.167 66.2595 197.778 65.3581 199.196 64.0035C200.561 62.7005 201.623 61.1232 203.013 59.8561C203.815 59.1255 204.83 58.6609 205.694 57.9995Z" fill="white"/>
<path d="M196.183 74.0815L196.647 74.2072C196.904 74.4528 197.017 74.5355 197.1 74.8956C197.233 75.475 196.952 75.9 196.641 76.3615L196.43 76.3441C196.052 76.2852 196.022 76.224 195.793 75.9372C195.717 75.1651 195.714 74.7212 196.183 74.0815Z" fill="#222222"/>
<path d="M189.676 73.0449C189.8 73.0613 190.043 73.0748 190.164 73.1339C190.41 73.2538 190.491 73.3341 190.58 73.5874C190.871 74.4213 190.676 75.3304 190.296 76.0909L190.012 75.938C189.639 75.7243 189.368 75.5523 189.283 75.1029C189.139 74.3438 189.229 73.6713 189.676 73.0449Z" fill="#222222"/>
<path d="M190.97 80.6152C192.069 80.7052 192.536 81.7147 193.68 81.5839C193.961 81.5519 193.966 81.6153 194.2 81.7612C194.218 82.1407 194.138 82.1841 193.928 82.4878C193.478 82.6501 192.994 82.7275 192.529 82.8373C191.826 82.5399 191.29 82.3153 190.858 81.6664C190.766 81.2272 190.803 81.0289 190.97 80.6152Z" fill="#222222"/>
<path d="M158.714 34.9069C161.043 34.7077 176.285 34.7535 177.486 35.7444L177.432 36.0008L177.592 36.146C177.706 35.8851 177.788 35.769 178.014 35.5939C178.474 35.5954 178.653 35.5382 179.039 35.8045C179.27 36.4758 179.212 37.1857 179.212 37.8864C179.21 39.0302 179.159 40.1649 179.13 41.3075C178.981 47.0961 178.699 52.8914 178.384 58.6747C178.261 60.9452 178.046 63.2198 177.946 65.4901C177.706 70.9566 177.442 76.4259 177.214 81.8912C177.091 84.8205 176.97 87.7401 176.759 90.6665C176.651 92.1711 176.593 94.014 176.163 95.4521C175.977 96.0735 175.293 96.348 174.767 96.6326C174.085 96.5687 173.446 96.6893 172.767 96.7021C170.69 96.7411 168.579 96.6738 166.496 96.6714C158.234 96.662 149.974 96.8731 141.714 97.0499C131.541 97.2677 121.391 97.513 111.223 97.9887C108.072 98.136 104.919 98.2743 101.772 98.481C100.748 98.548 99.7025 98.5271 98.6872 98.6822C97.643 98.8416 96.5627 98.7466 95.5066 98.8047C93.7564 98.9009 92.0262 98.9752 90.2743 99.036C89.3369 99.0683 88.355 99.1745 87.4198 99.118C86.8078 99.0809 85.43 98.9682 85.0965 98.3539C84.7344 97.6864 84.9119 96.1094 84.8808 95.3387C84.8321 94.1336 84.7042 92.9324 84.7175 91.7251C84.726 90.9468 84.7508 90.1679 84.7662 89.3895C84.7696 89.2156 84.8347 88.792 84.7814 88.6451C84.7667 88.6046 84.5424 88.3576 84.5257 88.3436C83.9454 87.8549 83.0727 88.6302 82.4446 88.6454C81.7024 88.6632 81.1109 88.0247 80.6022 87.5597C79.5785 88.6355 79.0039 89.7873 77.5198 90.281C76.6208 91.6714 75.9596 93.2134 75.2008 94.6826C74.0309 96.9474 72.7161 99.1672 71.276 101.271C70.57 102.302 69.8852 103.36 68.9947 104.242L71.5083 107.222C72.7337 107.342 74.1274 107.268 75.2862 107.701C76.6673 108.217 77.6225 109.103 78.2316 110.441L78.3286 110.656L78.4115 110.832C78.7905 111.675 78.7022 112.735 78.345 113.573C77.6732 115.149 75.8467 116.108 74.3401 116.722C75.1706 117.767 75.7884 118.952 76.2223 120.212C77.5203 123.977 77.5241 128.199 75.724 131.822C74.2576 134.773 71.469 137.015 68.3747 138.068C68.5236 139.58 68.5923 140.944 68.4917 142.467C69.4339 142.453 70.5982 142.079 71.4871 142.275L71.6398 142.312C71.9751 142.386 72.2785 142.426 72.5477 142.66C72.8924 142.959 72.9336 143.236 72.9503 143.669L73.103 145.118C73.6324 145.1 74.1906 145.108 74.708 144.989C76.6058 144.555 78.5801 144.354 80.4929 143.963C82.5794 143.537 84.7498 142.842 86.7569 142.143C88.9172 141.391 90.8597 140.271 92.8533 139.172C99.9302 135.273 106.838 130.653 112.391 124.74C113.812 123.226 115.072 121.528 116.176 119.771C116.613 119.075 116.96 117.913 117.506 117.378C118.187 116.71 119.646 116.825 120.535 116.871C121.754 112.843 123.072 108.269 125.537 104.796C126.676 103.191 128.663 101.419 130.327 100.368C130.711 100.126 131.026 100.014 131.477 100.126C131.86 100.221 132.254 100.491 132.443 100.845C132.588 101.116 132.571 101.474 132.567 101.775C132.539 103.793 130.748 105.706 130.207 107.597L130.146 107.815L130.826 107.769C131.325 107.745 131.879 107.723 132.23 108.138C132.751 108.756 132.79 109.822 132.863 110.59C132.976 111.784 133.147 113.003 132.974 114.203C132.632 116.574 130.083 118.319 128.324 119.628C127.607 120.162 126.908 120.726 126.201 121.275C126.798 122.559 127.276 123.899 127.848 125.189C128.359 126.338 128.853 127.147 129.081 128.417L115.492 147.626C110.328 155.553 102.939 161.485 94.2408 165.159C91.2835 166.409 88.5718 167.416 85.423 168.081L87.6268 180.077C88.0595 184.393 88.1478 188.827 87.7194 193.143C87.4938 195.416 87.1945 198.022 85.7178 199.831L84.3591 199.997L84.3902 200.404C84.5487 204.09 84.4698 207.621 83.4577 211.193C83.2818 211.813 83.1947 212.435 82.7536 212.929C82.2567 212.999 82.1566 212.922 81.7103 212.725C81.5323 212.483 81.4969 212.525 81.5234 212.201C81.629 210.907 82.0972 209.621 82.3397 208.346C82.6397 206.767 82.7198 205.135 82.7692 203.531C79.8318 203.619 76.7935 203.708 73.8604 203.56C72.7694 203.505 71.6955 203.303 70.61 203.242C69.0446 203.154 67.461 203.149 65.904 202.941C64.1118 202.702 62.3486 202.26 60.5865 201.863C57.5996 201.191 54.7116 200.472 51.7999 199.519C51.0119 201.511 50.1088 203.586 49.4778 205.631C49.3232 206.131 49.176 206.672 49.1203 207.194C49.0812 207.56 49.0648 208.219 48.868 208.527C48.7829 208.66 48.6519 208.758 48.5438 208.873C48.2951 208.941 48.0407 209.023 47.7833 208.961C47.4801 208.887 47.264 208.751 47.1216 208.467C46.906 208.035 47.1564 207.623 47.2533 207.194L48.3453 203.335L47.5028 203.042C45.5321 202.314 43.7165 201.306 41.8874 200.283C39.9285 199.188 37.981 198.124 36.1427 196.83C34.44 195.63 32.8798 194.164 31.3455 192.759C29.9279 191.462 28.4457 190.228 27.1248 188.829C25.0537 186.634 23.3679 184.134 21.9211 181.502C21.4358 180.619 20.8904 179.723 20.492 178.798C19.6656 176.878 20.9228 173.844 21.6585 171.995C21.9892 171.163 22.4475 170.396 22.8283 169.588C23.7674 167.596 24.7255 165.635 25.926 163.782C28.5735 159.696 32.0045 156.216 35.8841 153.301C37.4551 152.121 39.1279 150.922 40.8878 150.037C42.9103 149.02 44.9049 148.199 47.0399 147.459C47.8851 147.167 48.7426 147.067 49.5719 146.701L49.7325 146.63L49.5765 144.509C49.5338 143.942 49.6339 143.508 50.036 143.086C50.6843 142.406 52.4681 142.671 53.3603 142.68L53.1908 141.451L52.3299 134.721C51.0105 134.097 49.425 133.892 48.0252 133.462C43.4989 132.069 39.9989 129.171 37.1623 125.447C35.1894 122.857 32.5983 118.411 33.1138 115.016L33.1466 114.817C33.4551 112.735 34.3835 110.335 35.6945 108.675C36.1246 108.13 36.8256 107.557 37.1263 106.944C37.6573 105.863 37.828 104.432 38.1824 103.263C39.1332 100.127 40.6524 97.7952 43.9688 96.8511C45.7516 96.3436 47.2946 96.0476 48.9659 95.1786C49.3803 94.9629 49.6688 94.748 50.006 94.4286C51.1629 93.3335 52.903 91.3694 52.9341 89.6773C52.9389 89.417 52.9368 89.1907 53.0545 88.9466C53.1997 88.6454 53.2508 88.614 53.549 88.5289C54.9393 88.7973 56.45 89.9272 57.6049 90.7362C60.4348 92.7187 61.2843 94.9173 61.8678 98.2424C62.7458 99.1752 64.0486 99.8052 65.0424 100.637C66.1151 101.534 66.9832 102.67 68.114 103.494C70.1838 101.232 71.7698 98.5763 73.2014 95.8814C74.2215 93.9614 75.2336 92.039 76.1128 90.0494C74.6211 88.862 73.7364 87.1971 72.7894 85.5834C70.7434 87.7213 68.7141 89.9831 66.4441 91.886C65.6037 92.5901 64.6451 93.1888 63.7543 93.8309C63.2934 94.1631 62.5538 94.8787 61.9913 94.9373C61.0299 94.3314 60.6886 93.327 60.1323 92.3791C57.5998 88.0628 53.8965 85.1857 49.8705 82.369C48.5827 81.4684 46.9511 80.2136 45.4011 79.8387L45.2291 79.8004C44.0768 79.5295 42.8011 79.5114 41.6235 79.6248L41.5962 79.7806L42.0311 80.3692L42.2723 80.2978C42.6537 80.2628 43.1494 80.7766 43.4562 81.0069C43.3409 82.4426 43.2582 83.5073 42.1517 84.559C41.7026 84.986 41.2122 85.121 40.6008 85.0846C39.1672 84.999 36.8468 84.1352 35.7092 83.2729C35.2333 82.912 34.8143 82.3225 34.426 81.8661C32.1417 83.0186 29.9219 85.4353 28.2194 87.3351C25.9021 89.9206 24.1328 92.7925 23.5563 96.2556C23.3356 97.5817 23.2941 98.9125 23.2188 100.251C23.0859 102.617 23.0413 105.003 23.1733 107.37C25.6483 107.355 28.066 107.132 30.5025 106.682C31.2384 106.546 32.0271 106.455 32.7445 106.247C33.287 106.09 33.8485 105.786 34.3809 105.573L32.8436 98.4701C32.799 98.1703 32.8282 97.9298 33.0738 97.7188C33.3654 97.4681 33.5268 97.4911 33.8903 97.4814C34.2579 97.7675 34.4185 98.2376 34.6083 98.6518C35.3042 100.171 35.5647 101.667 35.9191 103.284C36.1036 104.125 36.3477 104.973 36.4965 105.82C36.5515 106.131 36.4927 106.408 36.3043 106.663C35.9854 107.095 35.3619 107.212 34.8744 107.368C33.5055 107.809 31.936 108.347 30.5066 108.474L27.2574 108.872C27.8986 113.388 29.5617 117.72 31.1868 121.95C31.9881 124.035 32.6565 126.129 33.8321 128.038C34.0463 128.386 34.1496 128.656 34.049 129.067C33.8739 129.292 33.7089 129.51 33.4078 129.561C33.0771 129.617 32.8441 129.52 32.5735 129.349C31.4748 127.704 30.8623 125.702 30.1727 123.862C29.4696 121.986 28.6637 120.141 28.0252 118.243C27.0167 115.243 26.303 112.145 25.746 109.034C24.6762 109.06 23.1489 109.191 22.1312 108.797C21.8249 108.678 21.7414 108.457 21.6025 108.183C21.6165 105.825 21.6768 103.489 21.767 101.132C21.878 98.2357 22.1028 95.0124 23.2845 92.3303C24.4179 89.7586 26.2304 87.4991 28.1613 85.4894C30.2217 83.3452 32.4051 81.3521 35.2285 80.3069L34.9487 77.7342C34.2634 77.533 33.5265 77.354 32.8822 77.0417C30.9793 76.1188 29.8041 74.5147 28.6437 72.8193C28.3004 72.8352 27.9403 72.8593 27.6036 72.7795C26.6021 72.5416 26.0126 71.8144 25.4809 70.981C24.6333 69.6517 24.6584 68.4107 25.0106 66.9509C24.3858 66.3348 23.6106 65.7841 23.0763 65.088C22.6231 64.4973 22.2767 63.6019 21.9995 62.9115C21.5482 61.787 21.5234 60.2035 22.0521 59.092C22.3814 58.3994 23.0061 57.9091 23.7293 57.6809C25.3114 57.1816 28.175 58.4318 29.6068 59.1812C30.1312 60.8825 30.5591 62.4843 30.5314 64.2857C30.5174 65.1787 30.6339 66.2581 30.0256 66.9964C29.0887 67.1894 28.9669 66.4134 28.1974 66.4761C27.5807 66.5266 27.2227 66.7545 26.8344 67.2193C26.6945 67.7666 26.5823 68.4944 26.6894 69.0578C26.7859 69.5653 27.2543 70.5027 27.7097 70.7767C28.1731 71.0553 29.2199 70.6322 29.7282 70.4921C30.617 72.0339 31.1373 73.4884 32.5962 74.6177L33.1973 75.0435C34.5579 75.845 35.8516 76.0392 37.3791 76.0742C37.7716 76.0831 38.3278 76.1612 38.699 76.0293C38.9545 75.9389 38.9827 75.8453 39.0818 75.6197C38.9678 75.5114 38.8621 75.419 38.7249 75.3406C38.4262 75.1701 38.2277 75.042 38.0782 74.7152C37.9508 74.4366 38.0031 74.2004 38.0999 73.9308C39.0326 73.451 39.8667 74.1114 40.82 74.1076L42.3464 74.0449C43.1043 73.9696 43.6152 73.8186 44.0928 73.1999C44.4666 72.7153 44.6307 72.1053 44.7689 71.5191C45.5345 68.2756 44.0665 63.7599 42.7574 60.805C42.44 60.0889 41.416 58.6855 41.4025 57.9761C41.3984 57.7718 41.5272 57.7421 41.6688 57.6249C41.8929 57.6457 42.2125 57.6592 42.4016 57.7909C42.741 58.027 43.0372 58.6776 43.2398 59.0333C44.7973 61.7684 45.9824 64.8977 46.2682 68.0464C46.4325 69.856 46.4595 72.4676 45.2038 73.917C44.0407 75.2594 42.2543 75.2408 40.6056 75.3653L41.0284 78.3683C42.6163 78.1387 44.2744 78.4052 45.8208 78.7982C47.7416 79.2861 49.4255 80.5735 51.009 81.7103C54.0823 83.9169 56.9225 86.1553 59.2837 89.1483C60.38 90.5381 61.1372 92.0814 62.0321 93.5969C64.2052 92.319 65.8929 90.7058 67.729 89.0004C69.533 87.3247 71.6487 85.5181 72.9416 83.4046C74.2871 81.2057 74.9692 78.5459 75.8431 76.1318C76.2223 75.0842 76.7525 74.0851 77.252 73.0906C77.8235 71.9526 78.4955 70.7398 79.4695 69.8881C79.7353 69.6555 80.107 69.4925 80.4609 69.5518C80.698 69.5916 80.8989 69.8082 81.0176 70.0116C82.1858 72.0112 81.7747 74.2318 81.412 76.3627C82.3655 76.2621 83.1935 76.2367 84.1427 76.3824C84.1302 75.2519 84.2237 73.8845 84.0477 72.7855C83.9917 72.4357 83.8424 72.1885 83.8272 71.8163C83.6369 67.1882 83.571 62.5755 83.463 57.9445C83.3378 52.5626 83.1303 47.0435 83.8783 41.6975C82.9002 41.7704 81.451 42.1196 80.6447 41.5214C80.5405 41.155 80.5424 41.0844 80.6321 40.7131C80.7501 40.6118 80.8478 40.4804 80.9862 40.4094C81.1452 40.3277 81.6734 40.3262 81.8833 40.3014C83.0324 40.1649 84.188 40.1007 85.3357 39.9625C98.3276 38.3973 111.459 37.444 124.525 36.7775C130.416 36.477 136.306 35.913 142.198 35.6291C147.703 35.3643 153.206 35.118 158.714 34.9069Z" fill="#222222"/>
<path d="M84.3011 84.9282C84.4873 85.3178 84.5964 85.7527 84.7235 86.1652L82.5253 87.0924L82.1756 86.9127L82.0977 86.6551C82.1746 86.4616 82.2499 86.1541 82.363 85.9883C82.6327 85.5935 83.8607 85.1412 84.3011 84.9282Z" fill="white"/>
<path d="M84.5668 81.146L84.741 81.2099C84.7967 81.3742 84.857 81.5356 84.8695 81.7104C84.8932 82.0467 84.8302 82.5168 84.5926 82.7749C83.8186 83.6167 82.3525 84.0627 81.2446 84.0774C81.0094 83.8738 80.8674 83.7414 80.7217 83.4592C81.104 83.1401 81.5548 82.9556 81.9757 82.6958C82.8451 82.1596 83.6507 81.6084 84.5668 81.146Z" fill="white"/>
<path d="M84.2295 77.7588L84.4608 77.8507C84.6024 78.2526 84.7467 78.8334 84.6463 79.2512C84.5814 79.522 83.4145 80.1024 83.1339 80.2645C82.3365 80.7252 81.5839 81.2715 80.8282 81.7974C80.6357 81.8977 80.7512 81.8673 80.4717 81.8307L80.5076 81.5395C80.8499 79.8002 82.8662 78.652 84.2295 77.7588Z" fill="white"/>
<path d="M39.4239 77.561L39.5971 77.6464C39.8388 78.9851 40.1299 80.0556 40.7356 81.2822C40.9496 81.7154 41.5027 82.3807 41.4665 82.8505L41.0658 83.0855C40.3772 83.1352 39.8776 83.0416 39.2206 82.8614C38.4704 82.6364 37.8392 82.3365 37.1782 81.9241L36.7168 77.8913C37.7955 78.0543 38.407 77.898 39.4239 77.561Z" fill="white"/>
<path d="M177.533 36.4443L177.702 36.5432C177.579 39.2892 177.372 42.0279 177.226 44.7709C177.006 48.9038 176.823 53.036 176.577 57.1687C176.528 57.9864 176.488 58.8041 176.451 59.6225C176.431 60.0562 176.473 60.5425 176.262 60.9299L175.945 36.9149C176.568 36.8457 176.982 36.7685 177.533 36.4443Z" fill="white"/>
<path d="M43.9051 172C44.3561 172.524 44.7891 175.314 44.9896 176.144C45.63 178.796 46.3251 181.441 46.9299 184.1L45.9252 182.775C43.8404 179.906 42.2998 177.076 41.4561 173.598L43.9051 172Z" fill="white"/>
<path d="M68.8138 144.175L71.1767 144.111L71.225 145.479C65.6477 146.856 59.6256 147.739 53.8809 147.453C52.9515 147.489 52.2482 147.15 51.4336 146.758C51.622 146.04 51.5462 145.263 51.5281 144.526C52.6368 144.301 53.7644 144.367 54.8892 144.383C56.5174 144.406 58.1337 144.443 59.76 144.492C62.7032 144.58 65.8961 144.542 68.8138 144.175Z" fill="white"/>
<path d="M79.839 71.9561L80.024 72.0591C80.5525 74.4191 79.4644 76.2303 79.0546 78.4842C78.9193 79.2276 79.0157 80.1051 79.0107 80.8669C78.7871 81.0859 78.5893 81.5206 78.5364 81.8281C78.3329 83.0134 79.5464 84.5678 80.1639 85.4967C79.4383 86.7618 78.7275 87.7735 77.7306 88.8483C77.3198 88.8963 77.0508 88.796 76.6668 88.6563C75.3626 87.3873 74.5849 85.9837 73.9189 84.3036C74.8845 82.8214 75.5978 81.2439 76.2006 79.5807C77.1213 77.0417 77.9474 73.9596 79.839 71.9561Z" fill="white"/>
<path d="M131.09 101.899C131.16 102.48 130.734 102.98 130.475 103.479C130.067 104.269 129.724 105.099 129.34 105.901C128.863 106.898 127.742 108.576 128.094 109.691C128.211 109.786 128.307 109.915 128.445 109.978C128.587 110.043 129.033 109.825 129.166 109.769C129.76 109.52 130.735 109.098 131.377 109.329C131.599 109.732 131.548 110.213 131.57 110.662C131.618 111.681 131.704 112.528 131.577 113.55C131.208 116.516 128.212 117.676 126.279 119.464L126.2 119.54C125.999 119.747 125.809 119.919 125.572 120.085C125.146 119.505 124.738 118.947 124.167 118.499L124.003 118.374C123.4 117.907 122.652 117.701 121.939 117.453L122.059 116.806C122.702 113.887 123.987 110.972 125.343 108.324C125.826 107.381 126.263 106.44 126.914 105.59C128.037 104.124 129.551 102.897 131.09 101.899Z" fill="white"/>
<path d="M119.957 118.092C120.541 118.086 121.329 118.387 121.857 118.637C124.377 119.83 125.303 122.76 126.267 125.128C126.679 126.14 127.131 127.133 127.535 128.149C126.763 128.949 126.193 130.095 125.571 131.025C123.675 133.862 121.954 136.731 119.827 139.403L118.483 140.932C118.239 139.645 118.163 138.347 117.943 137.068C117.79 136.179 117.473 135.331 117.239 134.463C116.424 131.441 115.558 128.403 113.54 125.929C115.494 123.551 117.264 121.027 118.778 118.348L119.957 118.092Z" fill="white"/>
<path d="M122.768 130.58C123.136 130.605 123.272 130.586 123.583 130.796C123.653 131.305 123.29 131.787 123.028 132.204C122.323 133.329 121.15 134.654 121.314 136.043C121.337 136.241 121.235 136.351 121.147 136.526C120.66 136.412 120.377 136.365 120.03 135.982C120.222 135.43 120.294 134.848 120.488 134.294C120.943 132.993 121.885 131.632 122.768 130.58Z" fill="#222222"/>
<path d="M61.5144 99.5547C62.4616 100.033 63.3172 100.562 64.1081 101.275C64.9198 102.007 65.6089 102.868 66.4269 103.595C67.3596 104.424 68.4157 105.164 69.2331 106.111C69.8287 106.801 70.3779 108.104 71.0948 108.607C71.57 108.94 72.0285 108.807 72.5437 108.908C73.4888 109.092 74.7267 109.401 75.529 109.927C76.1014 110.301 76.6945 111.183 76.8108 111.858C77.0848 113.451 74.2421 114.493 73.0551 114.84C72.3148 115.055 71.6474 114.918 71.1394 115.601C71.0516 116.975 73.0862 118.391 73.7177 119.517C75.2834 122.311 75.5326 126.081 74.6505 129.133C73.881 131.797 72.1518 134.272 69.684 135.644C68.9 136.08 68.3954 136.335 67.4942 136.484C67.2229 136.529 67.1647 136.489 66.9592 136.683C66.2807 137.324 66.8596 139.156 66.7894 140.056C66.7737 140.257 66.754 140.39 66.78 140.596L66.8936 142.693C66.4201 142.695 65.8856 142.794 65.4246 142.729C65.0901 142.682 65.0189 142.722 64.7044 142.774C64.078 142.879 63.1317 142.8 62.4732 142.81C60.0579 142.845 57.6439 142.738 55.2289 142.749L55.0393 141.258C54.8512 139.057 54.644 136.849 54.3864 134.655C54.2653 133.623 54.2042 132.585 53.9799 131.568L54.2768 131.585C55.2709 131.63 55.9033 131.661 56.6747 130.948C57.3627 130.313 57.8844 129.552 57.903 128.592C57.9285 127.284 57.2942 126.347 56.4181 125.444C55.9521 125.591 55.1669 125.653 54.821 125.973C54.9901 127.242 55.5389 126.528 56.2005 127.179C56.2401 127.891 56.2024 128.384 55.7991 128.988C55.3975 129.257 55.1739 129.29 54.6941 129.292C53.9563 129.016 53.3134 128.092 52.9205 127.427C51.9549 125.793 51.6669 123.375 52.1566 121.548C52.3527 120.816 52.8457 120.124 53.5431 119.8C53.9145 119.628 54.8029 119.718 55.1766 119.886C55.5854 120.069 55.7422 120.482 55.8814 120.883C55.9323 121.029 55.9759 121.197 56.0596 121.329C56.2787 121.676 56.4919 121.813 56.865 121.939C57.1801 121.806 57.2276 121.786 57.4251 121.51C57.2396 120.856 57.3928 120.204 57.2001 119.543C55.8838 115.033 53.2076 110.084 49.9541 106.673L55.0974 105.149C57.9235 104.062 60.2603 102.352 61.5144 99.5547Z" fill="white"/>
<path d="M65.1317 110.294C65.5519 110.387 65.9105 110.505 66.2379 110.798C66.5712 111.096 66.777 111.563 66.7652 112.012C66.7483 112.664 66.4357 113.068 65.988 113.506C65.5217 113.506 65.012 113.468 64.6833 113.106C64.3748 112.767 64.2452 112.254 64.2759 111.804C64.3229 111.11 64.6324 110.742 65.1317 110.294Z" fill="#222222"/>
<path d="M72.076 122.111C72.3684 122.232 72.6113 122.275 72.7514 122.595C72.8469 122.814 72.8424 122.946 72.7476 123.156C72.5563 123.581 71.8109 124.288 71.3632 124.42C70.5352 124.666 69.9444 124.453 69.2213 124.062C68.8824 123.728 68.5903 123.462 68.4053 123.017C68.48 122.69 68.5565 122.586 68.805 122.363C69.5279 122.279 70.0004 122.999 70.7448 123.028C71.2043 123.047 71.7309 122.41 72.076 122.111Z" fill="#222222"/>
<path d="M112.668 126.718C112.791 126.788 112.844 126.808 112.947 126.929C113.423 127.486 113.771 128.433 114.062 129.103C115.262 131.873 116.308 135.005 116.682 138.006C116.894 139.719 116.846 141.43 116.792 143.149C115.676 144.426 114.818 145.885 113.869 147.286C112.598 149.164 111.223 150.959 109.639 152.586C101.867 160.568 90.8705 166.344 79.7203 167.513C78.2388 167.669 76.7404 167.513 75.2579 167.529C75.006 167.776 75.0032 167.836 74.9226 168.184C75.0106 168.305 75.0825 168.416 75.1976 168.517C76.4569 169.623 82.2581 168.598 83.9856 168.351C84.3817 169.627 84.5768 170.966 84.8327 172.276C85.2751 174.541 85.6157 176.779 85.9314 179.06C86.0072 179.606 85.9758 180.186 86.0137 180.738C86.1307 182.445 86.2182 184.125 86.2617 185.836C86.3114 187.806 86.3823 189.789 86.1799 191.756C86.0262 193.25 85.8289 194.68 85.4869 196.141C85.3108 196.894 85.236 197.621 84.6048 198.136C77.5424 198.617 70.336 198.129 63.3102 197.354C61.4382 197.148 59.5309 197.022 57.6695 196.749C56.2849 196.546 54.8724 196.324 53.5072 196.018C52.7565 195.85 52.0616 195.57 51.2948 195.46L51.1573 195.441C50.8862 195.011 50.5227 194.511 50.3873 194.019C49.9479 192.423 49.9319 190.514 49.7187 188.853C49.5231 187.327 49.1738 185.726 48.8366 184.225C48.1262 181.062 47.2427 177.907 46.4472 174.761C46.1594 173.622 45.7074 172.385 45.5597 171.227C45.3559 169.629 45.3436 167.878 45.3422 166.265C45.3414 165.655 45.2483 164.983 45.2992 164.387C45.3774 163.472 45.375 162.531 45.4148 161.611C45.4379 161.08 45.5491 160.369 45.4181 159.854C45.3323 159.517 45.2027 159.487 44.9256 159.318C44.4601 159.344 44.3824 159.298 44.0237 159.621L43.8288 169.88C42.3668 171.001 40.8786 171.997 39.3174 172.972C38.6486 173.39 37.9708 173.913 37.2394 174.206C36.3829 174.55 35.2603 174.45 34.4932 174.819C34.3145 174.905 34.3311 175.121 34.2875 175.3C34.4493 175.686 34.4257 175.717 34.7947 175.902C36.7068 175.873 38.2337 175.196 39.9284 174.385C39.2803 175.119 38.7822 175.986 38.1324 176.705C37.5511 177.348 36.6603 178.004 35.9446 178.494C35.2255 178.986 34.24 179.176 33.6319 179.762L33.6596 180.124C34.0967 180.497 34.1811 180.419 34.7356 180.404C35.4841 180.048 36.2722 179.664 36.9246 179.148C37.8511 178.415 38.5887 177.457 39.5078 176.708L39.6059 176.63C39.3162 178.038 38.903 179.661 38.0151 180.827C37.5559 181.43 36.7237 181.928 36.4769 182.657C36.6176 182.952 36.6294 183.05 36.9053 183.214C37.0855 183.162 37.2372 183.098 37.3885 182.984C39.6108 181.312 40.0946 178.882 40.489 176.312C40.8433 177.639 41.2553 179.006 41.8851 180.231C42.6956 181.808 43.9427 183.219 44.9987 184.642C45.5424 185.374 45.9927 186.169 46.5152 186.917C46.9026 187.471 47.6576 188.063 47.8742 188.687C48.2594 189.797 48.2114 191.246 48.3643 192.426C48.6004 194.245 49.0059 196.095 50.5104 197.262C50.1847 198.776 49.6782 200.221 49.0923 201.653L47.2673 201.051C46.1319 200.594 45.0496 199.96 43.9615 199.399C39.3756 197.036 35.3293 194.123 31.5533 190.628C28.2545 187.575 25.4838 184.446 23.2991 180.508C22.8777 179.748 22.3376 178.953 22.0284 178.142C21.7431 177.394 21.8188 176.639 21.9351 175.869C22.3323 173.234 23.6518 170.623 24.8284 168.249C28.5213 160.797 34.9238 154.244 42.4254 150.6C43.4537 150.101 44.5387 149.534 45.6266 149.18C46.239 148.98 46.87 148.836 47.4897 148.661C48.6632 148.331 49.7513 147.839 50.9342 148.459C52.1014 149.07 53.703 149.163 55.0169 149.178C60.9613 149.245 66.8097 147.857 72.6002 146.689C75.7656 146.05 79.0596 145.873 82.1924 145.083C84.1663 144.585 86.2578 143.988 88.1463 143.221C92.6475 141.394 96.8236 138.82 100.845 136.128C102.703 134.884 104.603 133.664 106.378 132.304C108.617 130.589 110.664 128.696 112.668 126.718Z" fill="white"/>
<path d="M159.582 36.8419L174.746 36.77L173.38 94.6558L98.6072 96.3211L86.2258 97.1316C86.3274 96.4094 86.2504 95.7454 86.2195 95.0232C86.187 94.2648 86.2543 93.5043 86.2268 92.7457C86.2019 92.0558 86.0225 91.3811 85.9957 90.6954C85.87 87.507 85.9694 84.2992 85.8338 81.1072C85.7111 78.2137 85.3895 75.3119 85.2906 72.4236C85.1563 68.4994 85.1536 64.5657 85.0198 60.6431C84.9558 58.7634 84.7904 56.8745 84.7684 54.9962C84.7168 50.5289 84.8712 46.0193 84.5361 41.5617L159.582 36.8419Z" fill="white"/>
<path d="M109.86 51.0024L110.655 51.0169C110.972 51.0996 111.043 51.303 111.199 51.5587C111.18 52.0893 111.061 52.1101 110.707 52.483L110.052 52.4543C109.7 52.2278 109.609 52.1841 109.41 51.7999C109.463 51.4651 109.657 51.2593 109.86 51.0024Z" fill="#222222"/>
<path d="M114.706 50.8818C114.892 50.8879 115.108 50.8859 115.286 50.94C115.618 51.0403 115.749 51.2043 115.893 51.4986C115.76 51.9174 115.557 52.0597 115.212 52.3187C114.931 52.3079 114.67 52.2608 114.394 52.2133C114.079 51.9622 114.036 51.9386 113.915 51.5589C114.113 51.1291 114.299 51.1033 114.706 50.8818Z" fill="#222222"/>
<path d="M151.85 49.5527L152.627 49.5701C153.035 49.6299 153.156 49.7995 153.395 50.1116C153.316 50.5142 153.173 50.6305 152.913 50.9397L152.084 51.0036C151.845 50.8435 151.648 50.713 151.58 50.4131C151.483 49.9806 151.623 49.8815 151.85 49.5527Z" fill="#222222"/>
<path d="M157.237 49.478L158.536 49.5342C158.777 49.8263 158.889 49.9108 158.945 50.2926L158.568 50.7842C158.069 50.7941 157.676 50.8126 157.21 50.618C156.925 50.2762 156.938 50.2581 156.922 49.8102L157.237 49.478Z" fill="#222222"/>
<path d="M119.051 50.562C119.299 50.5849 119.56 50.5963 119.774 50.7379C120.064 50.9301 120.068 51.0005 120.137 51.3177C119.975 51.6877 119.767 51.8322 119.452 52.0604L118.581 51.9429C118.221 51.5589 118.22 51.5425 118.188 51.0162C118.478 50.6826 118.635 50.6826 119.051 50.562Z" fill="#222222"/>
<path d="M164.103 49.2407L165.471 49.3305C165.812 49.6245 165.79 49.6013 165.831 50.0514C165.522 50.4309 165.357 50.4147 164.894 50.5394C164.46 50.4974 163.79 50.5102 163.402 50.3259C163.166 50.2135 163.156 50.0975 163.073 49.8705C163.403 49.5191 163.651 49.3987 164.103 49.2407Z" fill="#222222"/>
<path d="M152.355 62.3379L152.867 62.3777L153.023 62.7147L152.822 63.0953C152.013 63.666 151.02 64.029 150.065 64.269C149.888 64.2886 149.73 64.2789 149.552 64.2685L149.359 63.9207L149.458 63.5825C149.648 63.4224 149.779 63.3288 150.023 63.2666C150.858 63.0545 151.579 62.7062 152.355 62.3379Z" fill="#222222"/>
<path d="M128.14 80.0101C128.729 79.9332 129.336 79.8869 129.832 80.2087C129.905 80.5596 129.84 80.6395 129.711 80.9649C129.515 81.1195 129.395 81.2121 129.146 81.2717C128.519 81.4217 127.735 81.3747 127.079 81.4174C125.437 81.5242 123.818 81.5992 122.175 81.6632C119.575 81.7645 116.982 81.962 114.384 82.0923C113.645 82.1294 112.806 82.0414 112.084 82.1644C111.566 82.2522 111.05 82.1917 110.54 82.2944C110.278 82.3477 110.048 82.3528 109.779 82.3516C109.256 82.3405 108.76 82.421 108.243 82.4874C107.948 82.3345 107.929 82.2768 107.761 81.9852C107.814 81.6357 107.857 81.5973 108.091 81.3267L128.14 80.0101Z" fill="#222222"/>
<path d="M163.713 58.9685C164.122 58.9617 164.288 59.0015 164.648 59.1947C165.127 59.9251 165.027 60.5653 165.13 61.3849L165.165 61.6737C165.197 62.13 164.995 62.3659 164.712 62.6781L164.446 62.6595L164.159 62.2325C164.185 61.9498 164.241 61.704 164.084 61.4498C163.54 61.7701 162.899 63.2087 162.524 63.7789C161.619 65.1558 160.668 66.495 159.74 67.8554C158.272 70.0089 156.276 72.8075 153.563 73.2583C152.752 73.3934 152.09 73.4129 151.399 72.9392C151.379 72.7288 151.357 72.5749 151.423 72.3689C151.486 72.1692 151.726 72.0985 151.903 71.9987C152.61 72.0486 153.472 72.1297 154.163 71.9543C155.127 71.7097 155.826 70.836 156.486 70.1527C159.151 67.3928 161.259 64.044 163.056 60.6738C162.307 60.9384 161.233 61.2192 160.442 61.1085L160.296 60.8456C160.555 59.8284 161.766 60.2119 162.497 59.6972C162.885 59.4236 163.3 59.2015 163.713 58.9685Z" fill="#222222"/>
<path d="M129.553 63.4934L129.584 63.4922C129.962 63.5363 130.005 63.5453 130.277 63.8005C130.368 64.136 130.368 64.189 130.275 64.5241C129.943 64.8244 129.795 64.8866 129.349 64.9303C127.58 65.1037 125.718 64.9021 123.922 65.0041C118.954 65.2858 113.991 65.5977 109.027 65.9521C106.568 66.1274 104.099 66.1897 101.64 66.3759C101.132 66.3252 101.057 66.359 100.666 65.9991C100.585 65.6788 100.579 65.6761 100.715 65.3761C101.414 64.8903 107.414 64.8242 108.697 64.7443C113.31 64.457 117.923 64.1333 122.535 63.8482C124.868 63.704 127.226 63.6811 129.553 63.4934Z" fill="#222222"/>
<path d="M135.709 71.4505C135.896 71.431 136.101 71.4838 136.284 71.512C136.637 71.8449 136.599 71.8473 136.628 72.303C135.769 73.22 134.165 72.5758 133.006 72.8693C132.829 72.9142 132.764 72.9591 132.575 72.926C132.014 72.8281 131.338 72.9376 130.759 72.9564C128.973 73.015 127.189 73.1735 125.404 73.2818C118.006 73.7305 110.589 74.1292 103.211 74.8176C102.712 74.8914 102.287 74.9831 101.851 74.7206C101.728 74.3629 101.662 74.2978 101.782 73.9275C102.269 73.5975 103.001 73.6747 103.578 73.6161C105.291 73.4429 107.01 73.323 108.726 73.1969C117.719 72.536 126.714 72.0634 135.709 71.4505Z" fill="#222222"/>
<path d="M145.045 46.6819C145.256 46.6745 145.25 46.6368 145.409 46.7497C145.78 47.0136 145.952 47.5052 145.989 47.9427C146.059 48.7887 146.454 52.6191 146.133 53.1471C145.957 53.437 145.621 53.7009 145.291 53.7812C144.993 53.8539 144.704 53.493 144.425 53.4214C143.541 53.1949 141.938 53.732 141.043 53.9156C140.676 53.9175 140.095 53.9906 139.772 53.8112C139.523 53.6737 139.272 49.7998 139.144 49.1664L139.056 48.7247C139.037 48.3832 139.141 48.1297 139.359 47.8721C140.295 47.8545 141.148 47.5387 142.066 47.4422C143.026 47.3412 144.025 47.1412 144.909 46.7454L145.045 46.6819Z" fill="#222222"/>
<path d="M140.04 51.0703C140.178 51.1825 140.281 51.2696 140.379 51.4205L140.445 51.5315C140.762 51.416 141.18 51.6111 141.411 51.3781L141.53 51.1984C141.753 51.421 141.649 52.1254 141.649 52.457C141.45 52.6051 141.277 52.7209 141.048 52.8169C140.741 52.7523 140.492 52.7072 140.229 52.5238C140.217 52.0216 140.069 51.5841 140.04 51.0703Z" fill="#656565"/>
<path d="M104.457 48.166L104.656 48.2543C104.701 48.8889 105.011 49.2696 105.107 49.8485C105.302 51.0333 105.104 52.399 105.179 53.6092C105.201 53.9601 105.33 54.292 105.35 54.6382C105.361 54.8461 105.386 54.8849 105.233 55.0441C104.691 55.6052 103.675 55.5203 102.958 55.542C101.539 55.5852 100.124 55.6066 98.7048 55.5905C98.5929 55.3879 98.5938 55.4448 98.575 55.2591C98.3832 53.3506 98.0299 51.5434 97.5547 49.6847L102.293 48.6533C102.466 48.6207 102.626 48.593 102.794 48.5358C103.36 48.3431 103.883 48.3706 104.457 48.166Z" fill="#222222"/>
<path d="M158.486 71.5112L161.767 71.5281C162.171 71.5431 162.39 71.5824 162.665 71.8808C162.765 72.9351 162.497 74.1378 162.446 75.2179C162.295 78.3978 162.383 81.6288 161.89 84.7706C162.897 84.7865 165.011 84.7185 165.792 85.3059L165.812 85.6901L165.531 86.002C164.899 86.215 164.11 86.0473 163.448 86.0338C161.501 85.9947 159.551 85.8925 157.605 85.8869C156.073 85.8823 154.54 86.0085 153.008 86.0237C151.052 86.0432 149.093 85.9713 147.139 85.9745C146.785 85.9752 146.574 85.9547 146.234 85.8628C146.016 85.5758 146.012 85.5678 146.013 85.2077C146.21 84.8372 146.491 84.7525 146.855 84.5936C146.938 82.9094 147.144 81.227 147.257 79.5436C147.293 79.0209 147.446 78.1573 147.19 77.6971C146.99 77.3389 147.021 77.0441 147.037 76.6432C147.84 76.6753 148.664 76.5246 149.445 76.7626C149.715 76.8447 149.725 76.7361 149.973 76.7269C150.081 76.7228 150.34 76.8456 150.455 76.8828C150.785 77.3261 150.653 78.3206 150.656 78.8988C150.666 80.863 150.622 82.8144 150.505 84.7749L152.889 84.7971C153.076 82.7567 152.977 80.6835 152.924 78.6376C152.906 77.9489 152.999 76.8398 152.697 76.2397L152.589 76.0417C152.618 75.7331 152.645 75.5739 152.823 75.318L153.229 75.2792C154.135 75.7245 154.529 75.5146 155.461 75.4912C155.974 75.4784 156.162 75.4509 156.534 75.8004L156.147 84.6457L158.057 84.7841C158.157 81.6993 158.429 78.6272 158.511 75.5341C158.546 74.1993 158.63 72.8413 158.486 71.5112Z" fill="#222222"/>
<path d="M153.801 76.7503C154.392 76.8002 154.923 76.7623 155.508 76.6924L155.376 84.6854C154.864 84.793 154.298 84.751 153.775 84.7532L153.801 76.7503Z" fill="white"/>
<path d="M148.103 77.9401L149.309 77.937C149.553 77.9906 149.63 78.046 149.769 78.2503C150.331 79.0799 149.809 83.6207 149.61 84.765L147.812 84.7433L148.103 77.9401Z" fill="white"/>
<path d="M160.252 72.7828C160.652 72.7584 161.227 72.6414 161.579 72.8556C161.652 74.9732 161.4 77.1839 161.312 79.309C161.259 80.5845 161.286 81.8598 161.203 83.1351C161.168 83.6696 161.175 84.2246 160.97 84.7254L160.677 84.7483L159.025 84.7321C159.22 83.1184 159.469 81.4825 159.527 79.858C159.577 78.47 159.64 77.078 159.66 75.6898C159.673 74.8017 159.578 73.7717 159.769 72.906L160.252 72.7828Z" fill="white"/>
</svg>
