<svg width="247" height="247" viewBox="0 0 247 247" fill="none" xmlns="http://www.w3.org/2000/svg">
<g clip-path="url(#clip0_3559_8462)">
<path d="M229 121.024C229 167.745 193.295 207.128 144.576 219.219C136.663 221.178 128.625 222.387 120.541 222.835C120.148 222.857 119.755 222.88 119.359 222.896C117.255 222.996 115.136 223.047 113 223.048C109.287 223.048 105.618 222.896 101.993 222.592C99.9816 222.427 97.9874 222.217 96.01 221.962C76.7789 219.478 59.0812 212.846 44.1332 203.128C42.2655 201.916 40.4417 200.655 38.6619 199.345C35.4028 196.956 32.2563 194.37 29.2358 191.597C9.26871 173.275 25.9159 134.166 36.3222 109.544C64.4093 43.0913 48.9362 19 113 19C177.064 19 229 64.6764 229 121.024Z" fill="#F2F2F2"/>
<path d="M183.089 61.0604C163.177 60.6493 163.18 26.5808 183.089 26.1731C203 26.5842 202.997 60.6526 183.089 61.0604Z" fill="white"/>
<path d="M145.432 111.83C125.521 111.419 125.524 77.3503 145.433 76.9426C165.344 77.3537 165.341 111.422 145.432 111.83Z" fill="white"/>
<path d="M184.712 163.383C164.8 162.972 164.803 128.904 184.712 128.496C204.623 128.907 204.62 162.976 184.712 163.383Z" fill="white"/>
<path d="M183.089 61.0604C163.177 60.6493 163.18 26.5808 183.089 26.1731C203 26.5842 202.997 60.6526 183.089 61.0604ZM183.089 27.2303C164.384 27.6165 164.387 59.6201 183.089 60.0031C201.793 59.6169 201.791 27.6134 183.089 27.2303Z" fill="#E6E6E6"/>
<path d="M95.9404 221.719C95.8956 221.555 95.8647 221.386 95.8478 221.215L90.0646 183.251C90.056 183.153 90.0429 183.056 90.0254 182.96C89.9029 182.268 89.5979 181.636 89.152 181.151C88.7061 180.666 88.1411 180.351 87.534 180.25L54.5569 180.415C53.9329 180.307 53.2954 180.432 52.7375 180.771C52.1796 181.11 51.7306 181.646 51.4561 182.3C50.9197 183.587 50.3945 184.892 49.8804 186.216C47.7991 191.548 45.8836 197.186 44.1338 203.128C59.0818 212.846 76.7794 219.478 96.0106 221.962L95.9404 221.719Z" fill="#2F2E41"/>
<path d="M128.131 120.128C128.05 120.538 127.997 120.956 127.973 121.376L99.5897 140.228L92.6907 135.655L85.3359 146.74L96.866 156.202C97.7974 156.966 98.9191 157.362 100.063 157.33C101.206 157.298 102.31 156.84 103.208 156.024L132.476 129.44C133.797 130.003 135.235 130.09 136.6 129.688C137.965 129.287 139.191 128.417 140.115 127.194C141.04 125.971 141.619 124.452 141.776 122.841C141.933 121.229 141.66 119.601 140.994 118.173C140.327 116.744 139.299 115.583 138.045 114.844C136.792 114.105 135.372 113.823 133.976 114.035C132.579 114.247 131.272 114.944 130.228 116.032C129.184 117.121 128.453 118.549 128.131 120.128Z" fill="#FFB8B8"/>
<path d="M99.2011 138.344C99.115 137.862 98.9397 137.406 98.6872 137.009C98.4347 136.612 98.1109 136.282 97.7378 136.041L84.7137 127.656C82.9831 126.119 80.7935 125.434 78.6251 125.753C76.4568 126.071 74.4865 127.366 73.1462 129.354C71.806 131.343 71.2052 133.861 71.4755 136.359C71.7459 138.856 72.8653 141.128 74.5884 142.677L84.9721 155.091C85.2685 155.446 85.6277 155.722 86.0254 155.903C86.423 156.083 86.8497 156.162 87.2765 156.136C87.7032 156.109 88.1199 155.977 88.4982 155.748C88.8766 155.519 89.2076 155.199 89.4689 154.81L91.4911 151.79L92.1821 150.761L98.6421 141.122C98.878 140.77 99.0508 140.367 99.1505 139.938C99.2769 139.419 99.2942 138.872 99.2011 138.344Z" fill="#B8BBFD"/>
<path d="M80.3434 112.776C86.6809 105.48 86.6809 93.6497 80.3434 86.3531C74.0058 79.0566 63.7307 79.0566 57.3931 86.3531C51.0556 93.6497 51.0556 105.48 57.3931 112.776C63.7307 120.073 74.0058 120.073 80.3434 112.776Z" fill="#FFB8B8"/>
<path d="M89.387 170.283C90.0386 169.161 94.1814 161.588 92.6141 152.711C92.499 152.053 92.3546 151.402 92.1816 150.761C91.443 148.09 90.2633 145.607 88.7072 143.45C88.7269 142.855 88.7213 142.27 88.6904 141.688V141.684C88.4614 137.64 86.971 133.827 84.4938 130.948C82.0165 128.068 78.7191 126.316 75.2086 126.014L57.0587 124.426C54.7225 124.207 52.3751 124.644 50.2183 125.701C48.0616 126.758 46.1603 128.402 44.6779 130.492C44.3365 130.969 44.0168 131.465 43.7201 131.98L43.719 131.98L43.7181 131.981L43.7175 131.982L43.7173 131.983C42.5729 133.972 41.8135 136.22 41.4908 138.577C41.168 140.933 41.2894 143.342 41.8467 145.639L42.0012 146.422L43.9363 156.191L47.172 172.537L49.8796 186.216L50.1661 187.658C50.3171 188.414 50.6858 189.088 51.2122 189.571C51.7385 190.054 52.3914 190.318 53.0646 190.32C53.2265 190.32 53.3882 190.305 53.5478 190.274L88.6679 183.645C89.1636 183.554 89.6306 183.318 90.0246 182.96C90.2611 182.743 90.4683 182.487 90.6397 182.2C90.8685 181.819 91.027 181.388 91.1052 180.933C91.1835 180.479 91.1798 180.011 91.0946 179.558L89.387 170.283Z" fill="#B8BBFD"/>
<path d="M20.2704 225.458C19.6747 224.479 19.2726 223.363 19.0923 222.186C18.912 221.01 18.958 219.802 19.227 218.648C19.496 217.494 19.9815 216.422 20.6492 215.508C21.317 214.593 22.1508 213.858 23.0919 213.355L43.088 142.573L54.6762 148.903L32.7972 217.823C33.4269 219.7 33.4369 221.777 32.8253 223.661C32.2138 225.545 31.0231 227.105 29.4791 228.046C27.935 228.987 26.1447 229.244 24.4475 228.767C22.7503 228.289 21.264 227.112 20.2704 225.458Z" fill="#FFB8B8"/>
<path d="M54.5401 125.852C52.3979 125.11 50.0911 125.329 48.0838 126.466C46.0766 127.603 44.5177 129.573 43.7209 131.98L43.7199 131.98L43.719 131.981L43.7184 131.982L43.7182 131.983C43.6451 132.2 43.5778 132.426 43.5188 132.652L41.825 136.788L36.7076 149.287C36.512 149.763 36.4079 150.282 36.4026 150.809C36.3972 151.336 36.4906 151.857 36.6764 152.339C36.8623 152.82 37.1362 153.25 37.4794 153.598C37.8226 153.946 38.2271 154.205 38.6652 154.357L39.6624 154.703L43.9372 156.191L51.5236 158.829L54.0514 159.709C54.4894 159.861 54.9508 159.903 55.404 159.832C55.8573 159.76 56.2919 159.577 56.6782 159.295C57.0644 159.012 57.3932 158.637 57.6423 158.196C57.8913 157.754 58.0546 157.255 58.1212 156.734L60.4581 138.483C61.122 135.904 60.8722 133.128 59.7632 130.761C58.6542 128.394 56.7763 126.629 54.5401 125.852Z" fill="#B8BBFD"/>
<path d="M83.77 92.7702C77.9874 98.5941 69.1101 99.9464 62.2109 96.0543C65.3101 100.287 71.1958 121.183 71.1958 121.183C71.1958 121.183 54.5769 119.172 52.2288 118.594C38.3607 115.18 43.4016 73.8288 58.1789 74.0376C60.6818 74.0729 62.8698 74.4214 64.5356 76.5722C65.6413 73.0038 69.1573 70.9018 72.4394 71.174C75.7216 71.4461 78.6898 73.7158 80.8013 76.6217C82.4862 78.9743 83.7023 81.7238 84.3641 84.6763C85.0258 87.6288 85.1169 90.7125 84.6311 93.71L83.77 92.7702Z" fill="#2F2E41"/>
<path d="M145.432 111.83C125.521 111.419 125.524 77.3503 145.433 76.9426C165.344 77.3537 165.341 111.422 145.432 111.83ZM145.432 77.9998C126.728 78.386 126.731 110.39 145.433 110.773C164.137 110.386 164.134 78.3829 145.432 77.9998Z" fill="#E6E6E6"/>
<path d="M184.712 163.383C164.8 162.972 164.803 128.904 184.712 128.496C204.623 128.907 204.62 162.976 184.712 163.383ZM184.712 129.553C166.007 129.94 166.01 161.943 184.712 162.326C203.417 161.94 203.414 129.936 184.712 129.553Z" fill="#E6E6E6"/>
<path d="M186.324 34.6747C182.589 34.7983 175.325 33.2611 175.321 39.8913C175.428 44.1916 174.093 52.5544 179.852 52.5586C183.587 52.4353 190.851 53.9724 190.855 47.3422C190.747 43.0419 192.083 34.6792 186.324 34.6747Z" fill="#3F3D56"/>
<path d="M187.295 39.8911C186.038 39.9092 186.042 37.6358 187.299 37.6604C188.556 37.6424 188.552 39.9154 187.295 39.8911Z" fill="white"/>
<path d="M183.088 40.6358C186.448 40.579 186.448 46.6547 183.088 46.5975C179.729 46.6536 179.729 40.5791 183.088 40.6358ZM183.088 39.1456C178.05 39.0609 178.049 48.1731 183.089 48.0877C188.127 48.1724 188.127 39.0602 183.088 39.1456Z" fill="white"/>
<path d="M157.36 148.881C157.27 148.884 157.18 148.856 157.103 148.8C157.027 148.745 156.966 148.664 156.929 148.569C156.892 148.473 156.88 148.368 156.895 148.265C156.911 148.162 156.952 148.066 157.015 147.991L158.543 146.131C158.591 146.073 158.617 145.995 158.615 145.915C158.613 145.834 158.583 145.758 158.533 145.703L156.909 143.934C156.864 143.885 156.828 143.826 156.803 143.761C156.777 143.696 156.764 143.626 156.762 143.555C156.76 143.484 156.771 143.413 156.793 143.346C156.815 143.28 156.848 143.219 156.891 143.167C156.976 143.064 157.094 143.003 157.218 142.999C157.342 142.994 157.463 143.046 157.554 143.144L159.739 145.494C159.782 145.541 159.816 145.596 159.841 145.658C159.865 145.72 159.878 145.787 159.88 145.855C159.881 145.922 159.871 145.99 159.85 146.053C159.829 146.117 159.797 146.174 159.756 146.223L157.679 148.719C157.595 148.819 157.481 148.877 157.36 148.881Z" fill="#CCCCCC"/>
<path d="M155.691 146.175C155.641 146.227 155.576 146.258 155.508 146.26L150.415 146.421C150.378 146.423 150.341 146.416 150.307 146.4C150.272 146.385 150.241 146.362 150.214 146.333C150.187 146.304 150.166 146.269 150.15 146.23C150.135 146.191 150.127 146.15 150.126 146.107C150.125 146.065 150.131 146.022 150.145 145.983C150.158 145.943 150.178 145.907 150.203 145.876C150.228 145.845 150.259 145.82 150.292 145.803C150.326 145.786 150.363 145.776 150.399 145.775L155.493 145.613C155.55 145.612 155.606 145.63 155.654 145.666C155.702 145.702 155.739 145.754 155.761 145.815C155.783 145.876 155.787 145.943 155.775 146.007C155.762 146.072 155.733 146.13 155.691 146.175Z" fill="#CCCCCC"/>
<path d="M118.038 97.3273C117.947 97.3304 117.858 97.3023 117.781 97.2468C117.704 97.1913 117.644 97.1107 117.607 97.0154C117.57 96.92 117.558 96.8142 117.573 96.7112C117.589 96.6083 117.63 96.5129 117.692 96.4371L119.221 94.5776C119.269 94.5192 119.295 94.4413 119.293 94.3611C119.291 94.2808 119.261 94.2047 119.211 94.1494L117.587 92.3801C117.542 92.3312 117.506 92.2725 117.48 92.2075C117.455 92.1425 117.441 92.0725 117.44 92.0013C117.438 91.9301 117.448 91.8593 117.471 91.7928C117.493 91.7263 117.526 91.6655 117.568 91.6138C117.654 91.5101 117.772 91.4495 117.896 91.4451C118.02 91.4407 118.141 91.4929 118.232 91.5903L120.416 93.9407C120.459 93.987 120.494 94.0427 120.518 94.1046C120.543 94.1665 120.556 94.2333 120.557 94.3011C120.559 94.3689 120.549 94.4365 120.528 94.4998C120.507 94.5631 120.475 94.6209 120.434 94.6699L118.357 97.1654C118.273 97.2656 118.159 97.3238 118.038 97.3273Z" fill="#CCCCCC"/>
<path d="M116.37 94.6209C116.32 94.6738 116.255 94.7041 116.187 94.7061L111.094 94.8678C111.057 94.869 111.02 94.8618 110.985 94.8467C110.951 94.8316 110.919 94.8088 110.893 94.7796C110.866 94.7504 110.844 94.7154 110.829 94.6766C110.814 94.6378 110.806 94.596 110.805 94.5535C110.804 94.511 110.81 94.4687 110.823 94.429C110.836 94.3894 110.856 94.3531 110.882 94.3222C110.907 94.2914 110.937 94.2666 110.971 94.2493C111.005 94.232 111.041 94.2225 111.078 94.2214L116.172 94.0597C116.229 94.0579 116.285 94.0762 116.333 94.1122C116.381 94.1482 116.418 94.2003 116.44 94.2613C116.461 94.3223 116.466 94.3894 116.454 94.4537C116.441 94.518 116.412 94.5763 116.37 94.6209Z" fill="#CCCCCC"/>
<path d="M155.675 46.5578C155.584 46.5609 155.495 46.5328 155.418 46.4773C155.341 46.4217 155.28 46.3412 155.243 46.2459C155.206 46.1505 155.195 46.0447 155.21 45.9417C155.225 45.8388 155.267 45.7433 155.329 45.6676L156.858 43.808C156.905 43.7497 156.931 43.6718 156.929 43.5915C156.927 43.5113 156.898 43.4352 156.847 43.3799L155.223 41.6106C155.178 41.5616 155.142 41.503 155.117 41.438C155.092 41.373 155.078 41.3029 155.076 41.2318C155.075 41.1606 155.085 41.0898 155.107 41.0233C155.129 40.9568 155.163 40.8959 155.205 40.8442C155.291 40.7406 155.408 40.6799 155.533 40.6755C155.657 40.6712 155.777 40.7233 155.868 40.8208L158.053 43.1712C158.096 43.2175 158.131 43.2732 158.155 43.3351C158.179 43.397 158.193 43.4637 158.194 43.5316C158.196 43.5994 158.186 43.6669 158.164 43.7302C158.143 43.7935 158.111 43.8514 158.071 43.9004L155.993 46.3958C155.91 46.4961 155.795 46.5543 155.675 46.5578Z" fill="#CCCCCC"/>
<path d="M154.006 43.8514C153.956 43.9043 153.892 43.9345 153.824 43.9366L148.73 44.0982C148.693 44.0995 148.657 44.0923 148.622 44.0772C148.588 44.062 148.556 44.0392 148.529 44.01C148.503 43.9808 148.481 43.9459 148.466 43.9071C148.451 43.8683 148.443 43.8264 148.442 43.784C148.44 43.7415 148.447 43.6992 148.46 43.6595C148.473 43.6198 148.493 43.5835 148.518 43.5527C148.544 43.5218 148.574 43.497 148.608 43.4797C148.642 43.4624 148.678 43.453 148.715 43.4518L153.808 43.2902C153.866 43.2883 153.922 43.3067 153.97 43.3427C154.018 43.3787 154.055 43.4307 154.076 43.4917C154.098 43.5528 154.103 43.6199 154.09 43.6842C154.078 43.7484 154.048 43.8068 154.006 43.8514Z" fill="#CCCCCC"/>
<path d="M150.46 211.368C149.143 214.518 146.997 217.066 144.576 219.219C136.664 221.178 128.625 222.387 120.542 222.835C120.148 222.857 119.755 222.88 119.359 222.896C117.255 222.996 115.136 223.047 113 223.048C109.287 223.048 105.618 222.896 101.993 222.592C101.855 221.632 101.836 220.654 101.937 219.688C102.338 215.908 104.83 212.435 108.063 211.633C111.295 210.831 114.98 213.053 115.961 216.687C116.503 209.677 117.123 202.375 120.362 196.405C123.291 191.002 128.367 187.134 133.869 186.442C137.103 186.055 140.365 186.743 143.27 188.425C143.537 188.58 143.801 188.742 144.062 188.91C145.805 190.047 147.343 191.559 148.592 193.363C152.024 198.362 152.864 205.631 150.46 211.368Z" fill="white"/>
<path d="M144.062 188.91C144.069 188.994 144.056 189.08 144.026 189.158C143.995 189.235 143.948 189.302 143.888 189.353C134.139 198.49 126.183 209.901 120.542 222.835C120.149 222.857 119.755 222.88 119.359 222.896C119.859 221.729 120.378 220.573 120.915 219.429C123.707 213.508 126.991 207.912 130.721 202.721C134.45 197.526 138.614 192.766 143.152 188.509C143.188 188.475 143.228 188.447 143.27 188.425C143.349 188.386 143.435 188.367 143.521 188.372C143.607 188.376 143.691 188.402 143.767 188.449C143.843 188.495 143.909 188.561 143.96 188.641C144.011 188.72 144.046 188.812 144.062 188.91Z" fill="#F2F2F2"/>
<path d="M192.938 141.539C192.938 141.539 191.652 143.198 191.405 143.304C190.725 151.819 186.107 153.753 182.4 153.753C179.735 153.753 177.538 152.753 177.611 152.478C181.566 152.585 181.903 150.716 181.903 150.716C179.605 150.325 179.145 148.598 179.145 148.598C179.351 148.723 179.59 148.756 179.815 148.691C180.041 148.626 180.239 148.467 180.369 148.245C177.889 147.502 178.226 144.714 178.226 144.714C178.668 145.082 179.184 145.314 179.726 145.387C179.451 144.999 177.131 141.797 178.527 140.139C178.608 140.391 181.024 144.177 185.06 143.903C184.964 143.362 184.974 142.804 185.087 142.268C185.201 141.732 185.417 141.232 185.719 140.803C186.021 140.375 186.401 140.028 186.833 139.789C187.265 139.55 187.738 139.424 188.217 139.421C190.363 139.421 190.823 140.834 190.823 140.834L192.357 139.773C192.326 139.773 192.171 141.539 191.405 141.891L192.938 141.539Z" fill="#3F3D56"/>
<path fill-rule="evenodd" clip-rule="evenodd" d="M153.781 94.4427C153.782 96.7506 153.067 98.983 151.765 100.738C150.463 102.493 148.661 103.656 146.681 104.018V97.2464H148.641L149.015 94.4427H146.681C146.602 92.108 146.523 90.7983 149.113 91.112V88.7287C145.234 87.7457 143.616 90.0093 144.052 94.4427H141.914V97.2464H144.052V104.015C133.991 102.233 135.174 84.7092 145.364 84.7545C146.469 84.7542 147.563 85.0046 148.584 85.4914C149.606 85.9781 150.534 86.6917 151.315 87.5914C152.097 88.491 152.717 89.5591 153.14 90.7347C153.563 91.9102 153.781 93.1702 153.781 94.4427Z" fill="#3F3D56"/>
</g>
<defs>
<clipPath id="clip0_3559_8462">
<rect width="210" height="210" fill="white" transform="translate(19 19)"/>
</clipPath>
</defs>
</svg>
