<svg width="247" height="247" viewBox="0 0 247 247" fill="none" xmlns="http://www.w3.org/2000/svg">
<path d="M207.265 45.5871L150.77 95.1695C150.555 95.3586 150.404 95.6553 150.35 95.9945C150.297 96.3337 150.346 96.6876 150.485 96.9785L175.353 148.701C175.493 148.992 175.713 149.196 175.964 149.268C176.215 149.34 176.477 149.274 176.692 149.086L233.187 99.5034C233.304 99.4004 233.404 99.2643 233.478 99.1043C233.553 98.9444 233.601 98.7645 233.619 98.577C233.621 98.5619 233.622 98.5467 233.623 98.5313C233.632 98.4083 233.628 98.2839 233.611 98.1625C233.588 97.9948 233.541 97.8349 233.472 97.6922L208.605 45.9704C208.465 45.6796 208.245 45.4758 207.994 45.404C207.742 45.3321 207.48 45.398 207.265 45.5871ZM233.241 97.897C233.314 98.0499 233.353 98.2288 233.352 98.4112C233.35 98.5722 233.318 98.7301 233.26 98.8706C233.206 98.9998 233.129 99.1095 233.037 99.1903L176.541 148.773C176.388 148.907 176.2 148.954 176.021 148.903C175.842 148.851 175.685 148.706 175.585 148.498L150.717 96.7751C150.617 96.5672 150.583 96.3144 150.621 96.0721C150.659 95.8297 150.767 95.6177 150.92 95.4826L207.415 45.9002C207.569 45.7651 207.757 45.7181 207.936 45.7695C208.116 45.8208 208.273 45.9663 208.373 46.174L233.241 97.897Z" fill="#3F3D56"/>
<path d="M210.074 49.3713L152.187 100.175L152.337 100.489L210.224 49.6848L210.074 49.3713Z" fill="#3F3D56"/>
<path d="M153.629 97.3411C154.013 97.0037 154.122 96.3091 153.873 95.7897C153.623 95.2703 153.109 95.1227 152.724 95.4601C152.34 95.7975 152.231 96.4921 152.48 97.0115C152.73 97.5309 153.244 97.6785 153.629 97.3411Z" fill="#3F3D56"/>
<path d="M155.63 95.5847C156.014 95.2473 156.123 94.5527 155.874 94.0333C155.624 93.5139 155.11 93.3664 154.725 93.7038C154.341 94.0412 154.232 94.7358 154.481 95.2552C154.731 95.7746 155.245 95.9221 155.63 95.5847Z" fill="#3F3D56"/>
<path d="M157.631 93.8286C158.015 93.4912 158.124 92.7966 157.875 92.2772C157.625 91.7578 157.111 91.6103 156.726 91.9477C156.342 92.2851 156.233 92.9797 156.482 93.4991C156.732 94.0185 157.246 94.166 157.631 93.8286Z" fill="#3F3D56"/>
<path d="M180.542 97.6619L165.906 110.508C165.717 110.666 165.49 110.718 165.273 110.653C165.056 110.588 164.867 110.41 164.746 110.158C164.624 109.907 164.581 109.601 164.625 109.306C164.669 109.012 164.797 108.753 164.981 108.584L179.618 95.7386C179.806 95.5801 180.034 95.5279 180.25 95.5932C180.467 95.6585 180.657 95.8361 180.778 96.0879C180.899 96.3397 180.942 96.6456 180.898 96.9398C180.854 97.2341 180.726 97.4933 180.542 97.6619Z" fill="#B8BBFD"/>
<path d="M189.973 90.5517L164.843 112.607C164.818 112.628 164.788 112.636 164.759 112.627C164.731 112.619 164.705 112.596 164.689 112.562C164.673 112.529 164.668 112.489 164.674 112.45C164.68 112.411 164.697 112.377 164.722 112.355L189.852 90.3003C189.876 90.2786 189.906 90.2711 189.935 90.2794C189.964 90.2876 189.989 90.311 190.005 90.3444C190.021 90.3777 190.027 90.4183 190.021 90.4571C190.014 90.496 189.997 90.53 189.973 90.5517Z" fill="#3F3D56"/>
<path d="M184.414 105.717L169.778 118.563C169.589 118.721 169.362 118.773 169.145 118.708C168.928 118.643 168.739 118.465 168.618 118.213C168.497 117.962 168.453 117.656 168.497 117.361C168.541 117.067 168.669 116.808 168.853 116.639L183.49 103.794C183.678 103.635 183.906 103.583 184.123 103.648C184.339 103.713 184.529 103.891 184.65 104.143C184.771 104.395 184.814 104.7 184.77 104.995C184.726 105.289 184.598 105.548 184.414 105.717Z" fill="#B8BBFD"/>
<path d="M193.846 98.6061L168.716 120.661C168.691 120.683 168.661 120.69 168.632 120.682C168.604 120.674 168.578 120.65 168.562 120.617C168.546 120.584 168.541 120.543 168.547 120.504C168.553 120.465 168.57 120.431 168.595 120.41L193.725 98.3547C193.749 98.3331 193.779 98.3256 193.808 98.3338C193.837 98.3421 193.862 98.3654 193.878 98.3988C193.894 98.4321 193.9 98.4727 193.894 98.5116C193.888 98.5505 193.87 98.5845 193.846 98.6061Z" fill="#3F3D56"/>
<path d="M188.286 113.771L173.65 126.616C173.461 126.775 173.234 126.827 173.017 126.762C172.8 126.696 172.611 126.519 172.49 126.267C172.369 126.015 172.325 125.709 172.369 125.415C172.413 125.121 172.541 124.862 172.725 124.693L187.362 111.847C187.551 111.689 187.778 111.637 187.995 111.702C188.212 111.767 188.401 111.945 188.522 112.197C188.643 112.448 188.686 112.754 188.642 113.048C188.598 113.343 188.47 113.602 188.286 113.771Z" fill="#F2F2F2"/>
<path d="M197.718 106.66L172.588 128.715C172.563 128.737 172.533 128.744 172.504 128.736C172.476 128.728 172.45 128.704 172.434 128.671C172.418 128.638 172.413 128.597 172.419 128.558C172.425 128.519 172.442 128.485 172.467 128.464L197.597 106.409C197.621 106.387 197.651 106.38 197.68 106.388C197.709 106.396 197.734 106.419 197.75 106.453C197.766 106.486 197.772 106.527 197.766 106.566C197.76 106.604 197.742 106.638 197.718 106.66Z" fill="#3F3D56"/>
<path d="M100.588 97.1843C100.753 97.2861 100.911 97.4056 101.062 97.5416L116.134 88.8506L116.672 83.4865L122.694 83.4365L122.338 95.7401L102.445 102.849C102.403 103.036 102.353 103.219 102.295 103.397C102.007 104.227 101.545 104.923 100.965 105.398C100.386 105.873 99.7154 106.106 99.0381 106.068C98.3609 106.03 97.7071 105.723 97.1588 105.185C96.6105 104.646 96.1921 103.901 95.9562 103.043C95.7203 102.184 95.6774 101.251 95.833 100.359C95.9885 99.4679 96.3355 98.6586 96.8304 98.0328C97.3252 97.407 97.9459 96.9928 98.6145 96.8421C99.283 96.6914 99.9696 96.8109 100.588 97.1857V97.1843Z" fill="#A0616A"/>
<path d="M124.884 208.67H120.764L118.805 187.201H124.885L124.884 208.67Z" fill="#A0616A"/>
<path d="M117.822 207.08H125.767V213.836H112.819C112.819 212.044 113.346 210.325 114.285 209.057C115.223 207.789 116.495 207.077 117.822 207.077V207.08Z" fill="#2F2E41"/>
<path d="M140.906 207.097L136.806 207.642L133.298 186.536L139.349 185.731L140.906 207.097Z" fill="#A0616A"/>
<path d="M133.761 206.453L141.668 205.4L142.159 212.127L129.274 213.841C129.143 212.057 129.543 210.277 130.385 208.891C131.227 207.505 132.441 206.628 133.762 206.453L133.761 206.453Z" fill="#2F2E41"/>
<path d="M126.031 60.7154C130.589 60.7154 134.284 55.7229 134.284 49.5645C134.284 43.406 130.589 38.4136 126.031 38.4136C121.472 38.4136 117.777 43.406 117.777 49.5645C117.777 55.7229 121.472 60.7154 126.031 60.7154Z" fill="#A0616A"/>
<path d="M119.844 204.329C119.49 204.33 119.147 204.162 118.875 203.854C118.604 203.547 118.422 203.12 118.36 202.649C116.23 186.659 109.258 134.365 109.091 132.916C109.088 132.883 109.086 132.849 109.086 132.815V128.916C109.086 128.774 109.118 128.636 109.18 128.521L110.1 126.778C110.144 126.694 110.202 126.625 110.268 126.576C110.335 126.527 110.409 126.499 110.485 126.494C115.734 126.162 132.926 125.187 133.757 126.589C134.591 127.997 134.296 132.267 134.228 133.109L134.231 133.196L141.955 199.936C142.015 200.468 141.918 201.011 141.684 201.447C141.451 201.884 141.099 202.178 140.706 202.267L135.882 203.341C135.523 203.419 135.155 203.32 134.845 203.062C134.535 202.804 134.304 202.405 134.194 201.936C132.702 195.495 127.698 173.825 125.965 165.44C125.953 165.387 125.929 165.342 125.895 165.312C125.86 165.282 125.82 165.27 125.779 165.277C125.739 165.285 125.702 165.312 125.676 165.354C125.649 165.395 125.635 165.448 125.635 165.503C125.722 173.496 125.931 193.889 126.005 200.933L126.012 201.691C126.015 202.205 125.876 202.701 125.621 203.083C125.367 203.464 125.015 203.702 124.637 203.751L119.985 204.32C119.938 204.326 119.892 204.329 119.844 204.329Z" fill="#2F2E41"/>
<path d="M120.792 65.1002C119.352 66.257 118.49 68.3826 117.996 70.5483C117.08 74.5531 116.529 78.6937 116.355 82.8787L115.832 95.4093L109.361 128.629C114.969 135.04 118.204 133.583 125.753 128.339C133.303 123.095 134.165 130.087 134.165 130.087L135.674 101.822L137.831 70.9346C137.347 70.147 136.799 69.4352 136.197 68.8126C134.204 66.7178 131.884 65.2617 129.414 64.5539C126.944 63.8461 124.386 63.9051 121.935 64.7265L120.792 65.1002Z" fill="#B8BBFD"/>
<path d="M118.691 103.893C118.865 103.981 119.034 104.087 119.195 104.211L134.098 94.132L134.345 88.6721L140.492 88.0996L140.822 100.545L120.906 109.444C120.744 110.387 120.373 111.241 119.842 111.892C119.312 112.543 118.647 112.96 117.937 113.088C117.227 113.216 116.504 113.049 115.866 112.609C115.228 112.169 114.704 111.477 114.364 110.625C114.024 109.773 113.884 108.801 113.963 107.838C114.042 106.876 114.336 105.969 114.805 105.238C115.275 104.507 115.898 103.986 116.593 103.746C117.287 103.505 118.018 103.555 118.691 103.89L118.691 103.893Z" fill="#A0616A"/>
<path d="M137.724 71.0733C141.39 72.8217 142.036 91.7643 142.036 91.7643C137.723 88.559 132.546 93.8041 132.546 93.8041C132.546 93.8041 131.468 88.85 130.174 82.4394C129.783 80.6362 129.736 78.7287 130.038 76.8945C130.34 75.0603 130.98 73.3591 131.899 71.9491C131.899 71.9491 134.057 69.324 137.724 71.0733Z" fill="#B8BBFD"/>
<path d="M133.431 52.5136C132.403 51.4022 131 53.4216 131 53.4216L130.177 43.4194C130.177 43.4194 125.036 44.2515 121.745 43.1415C118.454 42.0314 117.94 47.1708 117.94 47.1708C117.77 45.0949 117.736 43.0028 117.837 40.9187C118.043 38.418 120.716 35.9169 125.446 34.2498C130.177 32.5826 132.645 39.8073 132.645 39.8073C135.936 42.0296 134.459 53.625 133.431 52.5136Z" fill="#2F2E41"/>
<path d="M232.511 149.738H165.174C164.918 149.738 164.672 149.876 164.491 150.121C164.309 150.366 164.207 150.698 164.207 151.045V212.693C164.207 213.04 164.309 213.372 164.491 213.617C164.672 213.862 164.918 214 165.174 214H232.511C232.651 214 232.789 213.959 232.916 213.88C233.043 213.801 233.156 213.685 233.246 213.542C233.254 213.53 233.261 213.518 233.268 213.506C233.325 213.41 233.372 213.303 233.406 213.188C233.455 213.031 233.48 212.862 233.48 212.692V151.045C233.479 150.698 233.377 150.365 233.195 150.12C233.014 149.875 232.767 149.737 232.511 149.738ZM233.203 212.693C233.203 212.875 233.163 213.054 233.089 213.206C233.022 213.339 232.932 213.449 232.827 213.523C232.729 213.592 232.621 213.627 232.511 213.627H165.174C164.991 213.627 164.815 213.528 164.686 213.353C164.556 213.178 164.483 212.941 164.483 212.693V151.045C164.483 150.797 164.556 150.56 164.686 150.385C164.815 150.209 164.991 150.111 165.174 150.111H232.511C232.694 150.111 232.87 150.209 233 150.384C233.13 150.559 233.203 150.797 233.203 151.045V212.693Z" fill="#3F3D56"/>
<path d="M233.34 154.976H164.345V155.349H233.34V154.976Z" fill="#3F3D56"/>
<path d="M166.695 153.661C167.153 153.661 167.525 153.159 167.525 152.54C167.525 151.921 167.153 151.419 166.695 151.419C166.237 151.419 165.865 151.921 165.865 152.54C165.865 153.159 166.237 153.661 166.695 153.661Z" fill="#3F3D56"/>
<path d="M169.081 153.661C169.539 153.661 169.91 153.159 169.91 152.54C169.91 151.921 169.539 151.419 169.081 151.419C168.622 151.419 168.251 151.921 168.251 152.54C168.251 153.159 168.622 153.661 169.081 153.661Z" fill="#3F3D56"/>
<path d="M171.465 153.661C171.924 153.661 172.295 153.159 172.295 152.54C172.295 151.921 171.924 151.419 171.465 151.419C171.007 151.419 170.636 151.921 170.636 152.54C170.636 153.159 171.007 153.661 171.465 153.661Z" fill="#3F3D56"/>
<path d="M189.125 173.729H171.679C171.457 173.723 171.246 173.599 171.09 173.385C170.935 173.171 170.848 172.883 170.848 172.582C170.848 172.282 170.935 171.994 171.09 171.78C171.246 171.566 171.457 171.442 171.679 171.436H189.125C189.347 171.442 189.558 171.566 189.714 171.78C189.869 171.994 189.956 172.282 189.956 172.582C189.956 172.883 189.869 173.171 189.714 173.385C189.558 173.599 189.347 173.723 189.125 173.729Z" fill="#B8BBFD"/>
<path d="M199.896 174.706H169.944C169.914 174.706 169.886 174.691 169.865 174.663C169.845 174.634 169.833 174.596 169.833 174.557C169.833 174.517 169.845 174.479 169.865 174.451C169.886 174.423 169.914 174.407 169.944 174.407H199.896C199.925 174.407 199.953 174.423 199.974 174.451C199.995 174.479 200.007 174.517 200.007 174.557C200.007 174.596 199.995 174.634 199.974 174.663C199.953 174.691 199.925 174.706 199.896 174.706Z" fill="#3F3D56"/>
<path d="M189.125 183.329H171.679C171.457 183.323 171.246 183.2 171.09 182.985C170.935 182.771 170.848 182.483 170.848 182.183C170.848 181.883 170.935 181.595 171.09 181.38C171.246 181.166 171.457 181.043 171.679 181.037H189.125C189.347 181.043 189.558 181.166 189.714 181.38C189.869 181.595 189.956 181.883 189.956 182.183C189.956 182.483 189.869 182.771 189.714 182.985C189.558 183.2 189.347 183.323 189.125 183.329Z" fill="#B8BBFD"/>
<path d="M199.896 184.306H169.944C169.914 184.306 169.886 184.291 169.865 184.263C169.845 184.234 169.833 184.196 169.833 184.157C169.833 184.117 169.845 184.079 169.865 184.051C169.886 184.023 169.914 184.007 169.944 184.007H199.896C199.925 184.007 199.953 184.023 199.974 184.051C199.995 184.079 200.007 184.117 200.007 184.157C200.007 184.196 199.995 184.234 199.974 184.263C199.953 184.291 199.925 184.306 199.896 184.306Z" fill="#3F3D56"/>
<path d="M189.125 192.928H171.679C171.457 192.922 171.246 192.799 171.09 192.584C170.935 192.37 170.848 192.082 170.848 191.782C170.848 191.482 170.935 191.194 171.09 190.979C171.246 190.765 171.457 190.642 171.679 190.636H189.125C189.347 190.642 189.558 190.765 189.714 190.979C189.869 191.194 189.956 191.482 189.956 191.782C189.956 192.082 189.869 192.37 189.714 192.584C189.558 192.799 189.347 192.922 189.125 192.928Z" fill="#F2F2F2"/>
<path d="M199.896 193.906H169.944C169.914 193.906 169.886 193.89 169.865 193.862C169.845 193.834 169.833 193.796 169.833 193.756C169.833 193.717 169.845 193.678 169.865 193.65C169.886 193.622 169.914 193.606 169.944 193.606H199.896C199.925 193.606 199.953 193.622 199.974 193.65C199.995 193.678 200.007 193.717 200.007 193.756C200.007 193.796 199.995 193.834 199.974 193.862C199.953 193.89 199.925 193.906 199.896 193.906Z" fill="#3F3D56"/>
<path d="M95.9477 87.9924H15.1607C14.8529 87.9928 14.5579 88.1581 14.3402 88.4521C14.1226 88.7461 14.0003 89.1448 14 89.5606V163.523C14.0003 163.939 14.1226 164.338 14.3402 164.632C14.5579 164.926 14.8529 165.091 15.1607 165.092H95.9477C96.1155 165.092 96.2813 165.042 96.4336 164.947C96.586 164.852 96.7212 164.714 96.8301 164.541C96.8393 164.528 96.8477 164.513 96.8553 164.498C96.9251 164.384 96.9818 164.256 97.0233 164.119C97.0817 163.93 97.1115 163.728 97.111 163.523V89.5606C97.1109 89.3544 97.0807 89.1503 97.0221 88.9598C96.9636 88.7694 96.8779 88.5965 96.7698 88.4508C96.6618 88.3052 96.5336 88.1898 96.3925 88.1111C96.2514 88.0325 96.1003 87.9921 95.9477 87.9924ZM96.7783 163.523C96.7785 163.742 96.7308 163.956 96.6412 164.139C96.5617 164.299 96.4537 164.43 96.327 164.52C96.2098 164.602 96.0796 164.644 95.9477 164.644H15.1607C14.9409 164.644 14.7302 164.525 14.5748 164.316C14.4194 164.106 14.3319 163.821 14.3317 163.524V89.5606C14.3319 89.2636 14.4194 88.979 14.5748 88.769C14.7302 88.559 14.9409 88.4409 15.1607 88.4405H95.9477C96.1678 88.4404 96.3789 88.5584 96.5347 88.7685C96.6904 88.9786 96.7781 89.2637 96.7783 89.561V163.523Z" fill="#3F3D56"/>
<path d="M96.9427 94.2769H14.165V94.725H96.9427V94.2769Z" fill="#3F3D56"/>
<path d="M16.9856 92.6993C17.5353 92.6993 17.9809 92.0972 17.9809 91.3545C17.9809 90.6118 17.5353 90.0098 16.9856 90.0098C16.4359 90.0098 15.9902 90.6118 15.9902 91.3545C15.9902 92.0972 16.4359 92.6993 16.9856 92.6993Z" fill="#3F3D56"/>
<path d="M19.8469 92.6993C20.3966 92.6993 20.8422 92.0972 20.8422 91.3545C20.8422 90.6118 20.3966 90.0098 19.8469 90.0098C19.2972 90.0098 18.8516 90.6118 18.8516 91.3545C18.8516 92.0972 19.2972 92.6993 19.8469 92.6993Z" fill="#3F3D56"/>
<path d="M22.7082 92.6993C23.2579 92.6993 23.7035 92.0972 23.7035 91.3545C23.7035 90.6118 23.2579 90.0098 22.7082 90.0098C22.1585 90.0098 21.7129 90.6118 21.7129 91.3545C21.7129 92.0972 22.1585 92.6993 22.7082 92.6993Z" fill="#3F3D56"/>
<path d="M77.6495 133.345H50.0074C49.6742 133.345 49.3546 133.166 49.119 132.848C48.8834 132.529 48.751 132.097 48.751 131.647C48.751 131.197 48.8834 130.765 49.119 130.447C49.3546 130.129 49.6742 129.95 50.0074 129.95H77.6495C77.9827 129.95 78.3023 130.129 78.5379 130.447C78.7735 130.765 78.9059 131.197 78.9059 131.647C78.9059 132.097 78.7735 132.529 78.5379 132.848C78.3023 133.166 77.9827 133.345 77.6495 133.345Z" fill="#F2F2F2"/>
<path d="M59.5887 126.13H50.0084C49.6751 126.13 49.3556 125.951 49.1199 125.633C48.8843 125.314 48.752 124.883 48.752 124.432C48.752 123.982 48.8843 123.55 49.1199 123.232C49.3556 122.914 49.6751 122.735 50.0084 122.735H59.5887C59.9219 122.735 60.2415 122.914 60.4771 123.232C60.7127 123.55 60.8451 123.982 60.8451 124.432C60.8451 124.883 60.7127 125.314 60.4771 125.633C60.2415 125.951 59.9219 126.13 59.5887 126.13Z" fill="#F2F2F2"/>
<path d="M37.4874 135.413C40.4365 135.413 42.8273 132.183 42.8273 128.199C42.8273 124.214 40.4365 120.984 37.4874 120.984C34.5382 120.984 32.1475 124.214 32.1475 128.199C32.1475 132.183 34.5382 135.413 37.4874 135.413Z" fill="#B8BBFD"/>
<path d="M80.4206 117.164H30.634C29.9261 117.166 29.2475 117.546 28.747 118.222C28.2465 118.899 27.9648 119.815 27.9639 120.772V135.626C27.9649 136.582 28.2465 137.498 28.747 138.175C29.2474 138.851 29.9259 139.231 30.6337 139.233H80.4206C81.1284 139.231 81.8069 138.851 82.3074 138.174C82.8078 137.498 83.0894 136.581 83.0904 135.625V120.771C83.0894 119.815 82.8078 118.898 82.3074 118.222C81.8069 117.545 81.1284 117.165 80.4206 117.163V117.164ZM82.7765 135.625C82.7758 136.469 82.5274 137.278 82.0857 137.875C81.644 138.472 81.0452 138.807 80.4206 138.808H30.634C30.0094 138.807 29.4105 138.472 28.9689 137.875C28.5272 137.278 28.2788 136.469 28.2781 135.625V120.771C28.2788 119.927 28.5272 119.118 28.9689 118.521C29.4105 117.924 30.0094 117.589 30.634 117.588H80.4206C81.0452 117.589 81.644 117.924 82.0857 118.521C82.5274 119.118 82.7758 119.927 82.7765 120.771V135.625Z" fill="#3F3D56"/>
</svg>
