<svg aria-hidden="true" style="position: absolute; width: 0; height: 0; overflow: hidden;" version="1.1" xmlns="http://www.w3.org/2000/svg" xmlns:xlink="http://www.w3.org/1999/xlink">
<defs>

<symbol id="icon-logo" viewBox="0 0 32 32">
<path d="M24 8.509c0 0-0.013 0-0.019 0 0.010-0.17 0.019-0.339 0.019-0.509 0-4.419-3.581-8-8-8s-8 3.581-8 8c0 0.173 0.006 0.342 0.019 0.509-0.006 0-0.013 0-0.019 0-4.419 0-8 3.584-8 8s3.581 8 8 8c0.006 0 0.013 0 0.019 0 0.262 4.182 3.734 7.491 7.981 7.491s7.718-3.309 7.981-7.491c0.006 0 0.013 0 0.019 0 4.419 0 8-3.581 8-8s-3.581-8-8-8zM16 19.2c-1.766 0-3.2-1.434-3.2-3.2s1.434-3.2 3.2-3.2c1.766 0 3.2 1.434 3.2 3.2s-1.434 3.2-3.2 3.2z"></path>
</symbol>

<symbol id="icon-mail" viewBox="0 0 32 32">
<path d="M31.914 2.9c0 0 0 0.014 0 0.021l-8.314 27.42c-0.126 0.445-0.385 0.842-0.742 1.136s-0.796 0.471-1.258 0.509c-0.066 0.006-0.131 0.009-0.197 0.009-0.432 0.001-0.856-0.121-1.221-0.353s-0.656-0.563-0.839-0.954l-5.2-10.671c-0.052-0.107-0.069-0.227-0.050-0.345s0.076-0.225 0.16-0.309l8.274-8.274c0.205-0.216 0.318-0.504 0.314-0.802s-0.124-0.583-0.335-0.793c-0.211-0.211-0.496-0.331-0.794-0.335s-0.586 0.109-0.802 0.314l-8.278 8.274c-0.084 0.084-0.192 0.14-0.31 0.16s-0.238 0.002-0.345-0.050l-10.681-5.199c-0.418-0.2-0.765-0.523-0.995-0.925s-0.333-0.864-0.294-1.326c0.039-0.462 0.217-0.901 0.51-1.259s0.689-0.619 1.135-0.747l27.441-8.314c0.391-0.11 0.803-0.114 1.195-0.011s0.75 0.307 1.037 0.594c0.287 0.286 0.493 0.644 0.596 1.036s0.1 0.805-0.009 1.195z"></path>
</symbol>

<symbol id="icon-phone" viewBox="0 0 32 32">
<path d="M31.56 23.854c-0.282 2.139-1.332 4.103-2.956 5.525s-3.709 2.203-5.867 2.199c-12.537 0-22.737-10.2-22.737-22.737-0.004-2.158 0.778-4.244 2.199-5.867s3.385-2.674 5.525-2.956c0.541-0.066 1.089 0.045 1.562 0.316s0.846 0.688 1.062 1.188l3.335 7.445v0.019c0.166 0.383 0.234 0.801 0.199 1.217s-0.172 0.816-0.4 1.166c-0.028 0.043-0.058 0.082-0.090 0.122l-3.287 3.897c1.183 2.403 3.696 4.895 6.131 6.081l3.843-3.27c0.038-0.032 0.077-0.061 0.118-0.088 0.349-0.233 0.752-0.375 1.17-0.414s0.839 0.028 1.226 0.193l0.021 0.010 7.438 3.333c0.501 0.216 0.919 0.588 1.191 1.061s0.383 1.021 0.317 1.563z"></path>
</symbol>

<symbol id="icon-plant" viewBox="0 0 30 32">
<path d="M25.466 18.462h-11.627l3.397-3.448c1.228 0.628 2.581 0.962 3.956 0.978 1.384 0.004 2.742-0.381 3.925-1.111 3.595-2.209 5.522-7.323 5.154-13.68-0.017-0.301-0.143-0.585-0.353-0.798s-0.49-0.341-0.787-0.358c-6.264-0.374-11.302 1.581-13.48 5.231-1.417 2.377-1.454 5.248-0.13 8l-2.181 2.214-1.851-1.878c0.909-2.038 0.844-4.154-0.211-5.92-1.648-2.768-5.425-4.243-10.106-3.965-0.296 0.018-0.576 0.145-0.785 0.358s-0.335 0.497-0.353 0.797c-0.276 4.749 1.179 8.583 3.908 10.257 0.913 0.566 1.962 0.864 3.032 0.861 0.97-0.010 1.927-0.23 2.807-0.645l1.845 1.875-1.213 1.231h-6.774c-0.322 0-0.63 0.13-0.857 0.36s-0.355 0.544-0.355 0.87 0.128 0.639 0.355 0.87c0.227 0.231 0.536 0.36 0.857 0.36h1.454l2.002 9.149c0.117 0.548 0.416 1.039 0.847 1.39s0.968 0.541 1.521 0.538h10.182c0.552 0.003 1.089-0.187 1.52-0.538s0.73-0.841 0.848-1.389l2.003-9.149h1.452c0.322 0 0.63-0.13 0.857-0.36s0.355-0.544 0.355-0.87-0.128-0.64-0.355-0.87c-0.227-0.231-0.536-0.36-0.857-0.36z"></path>
</symbol>

<symbol id="icon-globe" viewBox="0 0 32 32">
<path d="M16 0c-3.165 0-6.258 0.938-8.889 2.696s-4.682 4.257-5.893 7.181c-1.211 2.924-1.528 6.141-0.91 9.244s2.141 5.955 4.379 8.192c2.238 2.238 5.089 3.761 8.192 4.379s6.321 0.3 9.244-0.911c2.924-1.211 5.422-3.262 7.18-5.893s2.697-5.725 2.697-8.889c-0.004-4.242-1.692-8.309-4.691-11.309s-7.067-4.687-11.309-4.691zM29.538 16c0.001 1.737-0.333 3.458-0.985 5.068l-6.877-4.229c-0.292-0.18-0.62-0.297-0.96-0.343l-3.511-0.474c-0.484-0.063-0.975 0.018-1.413 0.233s-0.803 0.555-1.048 0.976h-1.342l-0.585-1.209c-0.162-0.337-0.398-0.632-0.691-0.863s-0.636-0.392-1.001-0.471l-1.231-0.266 1.203-2.114h2.571c0.416-0.001 0.825-0.107 1.189-0.308l1.885-1.040c0.166-0.092 0.32-0.203 0.462-0.329l4.14-3.745c0.415-0.372 0.691-0.874 0.782-1.424s-0.008-1.114-0.281-1.6l-0.055-0.1c2.317 1.098 4.274 2.831 5.646 4.998s2.1 4.677 2.102 7.241zM2.462 16c-0.002-2.012 0.447-3.999 1.314-5.815l1.745 4.657c0.145 0.386 0.385 0.728 0.698 0.997s0.687 0.455 1.090 0.541l3.297 0.709 0.586 1.218c0.203 0.414 0.519 0.764 0.91 1.008s0.844 0.375 1.305 0.376h0.228l-1.112 2.497c-0.196 0.44-0.259 0.927-0.181 1.402s0.294 0.917 0.621 1.27l0.022 0.021 3.017 3.108-0.298 1.538c-3.536-0.082-6.899-1.543-9.373-4.071s-3.861-5.922-3.867-9.459z"></path>
</symbol>

<symbol id="icon-lightbulb" viewBox="0 0 26 32">
<path d="M19.429 30.861c0 0.303-0.12 0.594-0.335 0.808s-0.505 0.335-0.808 0.335h-11.429c-0.303 0-0.594-0.12-0.808-0.335s-0.335-0.505-0.335-0.808 0.12-0.594 0.335-0.808c0.214-0.214 0.505-0.335 0.808-0.335h11.429c0.303 0 0.594 0.12 0.808 0.335s0.335 0.505 0.335 0.808zM25.143 12.575c0.005 1.905-0.425 3.786-1.258 5.5s-2.046 3.214-3.547 4.387c-0.281 0.215-0.509 0.492-0.666 0.808s-0.24 0.665-0.243 1.019v0.857c0 0.606-0.241 1.188-0.669 1.616s-1.010 0.669-1.616 0.669h-9.143c-0.606 0-1.188-0.241-1.616-0.669s-0.669-1.010-0.669-1.616v-0.857c-0-0.349-0.081-0.694-0.235-1.008s-0.378-0.588-0.655-0.801c-1.497-1.166-2.71-2.658-3.546-4.362s-1.273-3.576-1.279-5.474c-0.037-6.809 5.466-12.479 12.269-12.641 1.676-0.040 3.344 0.255 4.904 0.869s2.982 1.533 4.182 2.705c1.2 1.171 2.153 2.571 2.803 4.116s0.985 3.205 0.985 4.882zM17.952 12.909c-0.106-0.106-0.232-0.191-0.371-0.248s-0.287-0.087-0.438-0.087c-0.15 0-0.299 0.030-0.438 0.087s-0.265 0.142-0.371 0.248l-3.763 3.764-3.763-3.764c-0.214-0.214-0.505-0.335-0.809-0.335s-0.594 0.12-0.809 0.335c-0.214 0.214-0.335 0.505-0.335 0.809s0.12 0.594 0.335 0.809l4.237 4.236v5.241c0 0.303 0.12 0.594 0.335 0.808s0.505 0.335 0.808 0.335 0.594-0.12 0.808-0.335c0.214-0.214 0.335-0.505 0.335-0.808v-5.241l4.237-4.236c0.106-0.106 0.191-0.232 0.248-0.371s0.087-0.287 0.087-0.438-0.030-0.299-0.087-0.438c-0.057-0.139-0.142-0.265-0.248-0.371z"></path>
</symbol>

<symbol id="icon-check-circle" viewBox="0 0 32 32">
<path d="M16 0c8.837 0 16 7.162 16 15.998s-7.164 15.998-16 15.998c-8.837 0-16-7.162-16-15.998 0-2.911 0.78-5.648 2.142-8.002 0.369-0.636 1.183-0.854 1.819-0.486s0.853 1.185 0.484 1.821c-1.134 1.958-1.783 4.236-1.783 6.667 0 7.365 5.971 13.335 13.337 13.335s13.336-5.97 13.337-13.335c0-7.365-5.971-13.337-13.337-13.337h-0.002c-2.34-0.004-4.64 0.611-6.665 1.783-0.636 0.368-1.451 0.152-1.819-0.484s-0.152-1.453 0.484-1.821c2.432-1.407 5.193-2.143 8.002-2.139zM20.193 11.389c0.52-0.519 1.364-0.52 1.884 0 0.519 0.52 0.519 1.362 0 1.882l-7.335 7.335c-0.52 0.52-1.364 0.52-1.884 0l-2.932-2.934c-0.52-0.52-0.52-1.364 0-1.884 0.52-0.519 1.362-0.519 1.882 0l1.991 1.991 6.394-6.391z"></path>
</symbol>

<symbol id="icon-minus" viewBox="0 0 288 32">
<path d="M288 12c0 3.183-1.264 6.235-3.515 8.485-2.25 2.25-5.302 3.515-8.485 3.515h-264c-3.183 0-6.235-1.264-8.485-3.515s-3.515-5.303-3.515-8.485c0-3.183 1.264-6.235 3.515-8.485s5.303-3.515 8.485-3.515h264c3.182 0 6.235 1.264 8.485 3.515 2.251 2.25 3.515 5.303 3.515 8.485z"></path>
</symbol>

<symbol id="icon-plus" viewBox="0 0 32 32">
<path d="M32 16c0 0.354-0.14 0.693-0.391 0.943s-0.589 0.391-0.943 0.391h-13.333v13.333c0 0.354-0.14 0.693-0.391 0.943s-0.589 0.391-0.943 0.391-0.693-0.14-0.943-0.391c-0.25-0.25-0.391-0.589-0.391-0.943v-13.333h-13.333c-0.354 0-0.693-0.14-0.943-0.391s-0.391-0.589-0.391-0.943c0-0.354 0.14-0.693 0.391-0.943s0.589-0.391 0.943-0.391h13.333v-13.333c0-0.354 0.14-0.693 0.391-0.943s0.589-0.391 0.943-0.391c0.354 0 0.693 0.14 0.943 0.391s0.391 0.589 0.391 0.943v13.333h13.333c0.354 0 0.693 0.14 0.943 0.391s0.391 0.589 0.391 0.943z"></path>
</symbol>

<symbol id="icon-burger" viewBox="0 0 41 32">
<path d="M41.143 15.429c0 0.455-0.181 0.891-0.502 1.212s-0.758 0.502-1.212 0.502h-37.714c-0.455 0-0.891-0.181-1.212-0.502s-0.502-0.758-0.502-1.212c0-0.455 0.181-0.891 0.502-1.212s0.758-0.502 1.212-0.502h37.714c0.455 0 0.891 0.181 1.212 0.502s0.502 0.758 0.502 1.212zM1.714 3.429h37.714c0.455 0 0.891-0.181 1.212-0.502s0.502-0.758 0.502-1.212-0.181-0.891-0.502-1.212c-0.321-0.322-0.758-0.502-1.212-0.502h-37.714c-0.455 0-0.891 0.181-1.212 0.502s-0.502 0.758-0.502 1.212c0 0.455 0.181 0.891 0.502 1.212s0.758 0.502 1.212 0.502zM39.429 27.429h-37.714c-0.455 0-0.891 0.181-1.212 0.502s-0.502 0.758-0.502 1.212 0.181 0.891 0.502 1.212c0.322 0.322 0.758 0.502 1.212 0.502h37.714c0.455 0 0.891-0.181 1.212-0.502s0.502-0.758 0.502-1.212-0.181-0.891-0.502-1.212c-0.321-0.322-0.758-0.502-1.212-0.502z"></path>
</symbol>

<symbol id="icon-arrow" viewBox="0 0 38 32">
<path d="M37.932 17.133l-14.4 14.4c-0.3 0.3-0.707 0.469-1.132 0.469s-0.832-0.169-1.132-0.469c-0.3-0.3-0.469-0.707-0.469-1.132s0.169-0.832 0.469-1.132l11.67-11.668h-31.338c-0.424 0-0.831-0.169-1.131-0.469s-0.469-0.707-0.469-1.131c0-0.424 0.169-0.831 0.469-1.131s0.707-0.469 1.131-0.469h31.338l-11.67-11.668c-0.3-0.3-0.469-0.707-0.469-1.132s0.169-0.832 0.469-1.132c0.3-0.3 0.707-0.469 1.132-0.469s0.832 0.169 1.132 0.469l14.4 14.4c0.149 0.149 0.267 0.325 0.347 0.519s0.122 0.402 0.122 0.613-0.041 0.418-0.122 0.613c-0.080 0.194-0.198 0.371-0.347 0.519z"></path>
</symbol>

<symbol id="icon-caret-down" viewBox="0 0 60 32">
<path d="M57.888 4.555l-26.667 26.667c-0.248 0.248-0.542 0.445-0.866 0.579s-0.671 0.203-1.021 0.203-0.697-0.069-1.021-0.203c-0.324-0.134-0.618-0.331-0.866-0.579l-26.667-26.667c-0.5-0.5-0.781-1.179-0.781-1.887s0.281-1.386 0.781-1.887c0.5-0.5 1.179-0.781 1.887-0.781s1.386 0.281 1.887 0.781l24.78 24.783 24.78-24.783c0.248-0.248 0.542-0.444 0.865-0.578s0.671-0.203 1.021-0.203c0.351 0 0.697 0.069 1.021 0.203s0.618 0.331 0.865 0.578c0.248 0.248 0.444 0.542 0.578 0.866s0.203 0.671 0.203 1.021c0 0.35-0.069 0.697-0.203 1.021s-0.331 0.618-0.578 0.866z"></path>
</symbol>

<symbol id="icon-illustration" viewBox="0 0 32 32">
<path d="M16.001 16.314c-4.499 0-8.157-3.658-8.157-8.157s3.658-8.157 8.157-8.157c4.499 0 8.157 3.658 8.157 8.157s-3.658 8.157-8.157 8.157zM16.001 0.627c-4.151 0-7.529 3.379-7.529 7.529s3.379 7.529 7.529 7.529c4.151 0 7.529-3.379 7.529-7.529s-3.379-7.529-7.529-7.529z"></path>
<path d="M16.001 32c-4.499 0-8.157-3.658-8.157-8.157s3.658-8.157 8.157-8.157c4.499 0 8.157 3.658 8.157 8.157s-3.658 8.157-8.157 8.157zM16.001 16.314c-4.151 0-7.529 3.379-7.529 7.529s3.379 7.529 7.529 7.529c4.151 0 7.529-3.379 7.529-7.529s-3.379-7.529-7.529-7.529z"></path>
<path d="M8.157 24.656c-4.499 0-8.157-3.658-8.157-8.157s3.658-8.157 8.157-8.157 8.157 3.658 8.157 8.157c0 4.499-3.658 8.157-8.157 8.157zM8.157 8.969c-4.151 0-7.529 3.379-7.529 7.529s3.379 7.529 7.529 7.529 7.529-3.379 7.529-7.529c0-4.151-3.379-7.529-7.529-7.529z"></path>
<path d="M23.843 24.656c-4.499 0-8.157-3.658-8.157-8.157s3.658-8.157 8.157-8.157c4.499 0 8.157 3.658 8.157 8.157s-3.658 8.157-8.157 8.157zM23.843 8.969c-4.151 0-7.529 3.379-7.529 7.529s3.379 7.529 7.529 7.529c4.151 0 7.529-3.379 7.529-7.529s-3.379-7.529-7.529-7.529z"></path>
</symbol>

<symbol id="icon-checkmark" viewBox="0 0 32 32">
<path d="M27.026 4.016c0.553-0.529 1.289-0.822 2.052-0.816s1.495 0.31 2.040 0.847c0.545 0.538 0.861 1.267 0.881 2.034s-0.257 1.513-0.773 2.078l-15.663 19.694c-0.269 0.292-0.594 0.526-0.956 0.688s-0.752 0.25-1.147 0.257c-0.396 0.007-0.789-0.066-1.156-0.214s-0.701-0.371-0.98-0.652l-10.387-10.443c-0.289-0.271-0.521-0.598-0.682-0.961s-0.247-0.755-0.254-1.152 0.066-0.792 0.214-1.161c0.148-0.369 0.368-0.703 0.648-0.984s0.613-0.503 0.979-0.652 0.759-0.222 1.155-0.215c0.395 0.007 0.785 0.094 1.146 0.256s0.686 0.395 0.956 0.686l8.22 8.26 13.633-17.464c0.025-0.030 0.051-0.059 0.078-0.087h-0.004z"></path>
</symbol>

</defs>
</svg>
