<svg width="450" height="338" viewBox="0 0 450 338" fill="none" xmlns="http://www.w3.org/2000/svg">
<path fill-rule="evenodd" clip-rule="evenodd" d="M446.434 243.729C447.901 243.729 449.089 244.922 449.089 246.394C449.089 247.867 447.901 249.06 446.434 249.06C444.968 249.06 443.78 247.867 443.78 246.394C443.78 244.921 444.968 243.729 446.434 243.729Z" fill="#222222"/>
<path fill-rule="evenodd" clip-rule="evenodd" d="M437.339 243.729C438.806 243.729 439.994 244.922 439.994 246.394C439.994 247.867 438.806 249.06 437.339 249.06C435.873 249.06 434.684 247.867 434.684 246.394C434.684 244.921 435.873 243.729 437.339 243.729Z" fill="#222222"/>
<path fill-rule="evenodd" clip-rule="evenodd" d="M428.239 243.729C429.705 243.729 430.895 244.922 430.895 246.394C430.895 247.867 429.705 249.06 428.239 249.06C426.774 249.06 425.584 247.867 425.584 246.394C425.584 244.921 426.774 243.729 428.239 243.729Z" fill="#222222"/>
<path fill-rule="evenodd" clip-rule="evenodd" d="M428.239 243.729C429.705 243.729 430.895 244.922 430.895 246.394C430.895 247.867 429.705 249.06 428.239 249.06C426.774 249.06 425.584 247.867 425.584 246.394C425.584 244.921 426.774 243.729 428.239 243.729Z" fill="#222222"/>
<path fill-rule="evenodd" clip-rule="evenodd" d="M419.14 243.729C420.606 243.729 421.795 244.922 421.795 246.394C421.795 247.867 420.605 249.06 419.14 249.06C417.672 249.06 416.484 247.867 416.484 246.394C416.485 244.921 417.672 243.729 419.14 243.729Z" fill="#222222"/>
<path fill-rule="evenodd" clip-rule="evenodd" d="M410.046 243.729C411.512 243.729 412.7 244.922 412.7 246.394C412.7 247.867 411.512 249.06 410.046 249.06C408.579 249.06 407.391 247.867 407.391 246.394C407.391 244.921 408.579 243.729 410.046 243.729Z" fill="#222222"/>
<path fill-rule="evenodd" clip-rule="evenodd" d="M400.946 243.729C402.413 243.729 403.601 244.922 403.601 246.394C403.601 247.867 402.413 249.06 400.946 249.06C399.48 249.06 398.292 247.867 398.292 246.394C398.292 244.921 399.48 243.729 400.946 243.729Z" fill="#222222"/>
<path fill-rule="evenodd" clip-rule="evenodd" d="M446.434 243.729C447.901 243.729 449.089 244.922 449.089 246.394C449.089 247.867 447.901 249.06 446.434 249.06C444.968 249.06 443.78 247.867 443.78 246.394C443.78 244.921 444.968 243.729 446.434 243.729Z" fill="#222222"/>
<path fill-rule="evenodd" clip-rule="evenodd" d="M437.339 243.729C438.806 243.729 439.994 244.922 439.994 246.394C439.994 247.867 438.806 249.06 437.339 249.06C435.873 249.06 434.684 247.867 434.684 246.394C434.684 244.921 435.873 243.729 437.339 243.729Z" fill="#222222"/>
<path fill-rule="evenodd" clip-rule="evenodd" d="M428.239 243.729C429.705 243.729 430.895 244.922 430.895 246.394C430.895 247.867 429.705 249.06 428.239 249.06C426.774 249.06 425.584 247.867 425.584 246.394C425.584 244.921 426.774 243.729 428.239 243.729Z" fill="#222222"/>
<path fill-rule="evenodd" clip-rule="evenodd" d="M428.239 243.729C429.705 243.729 430.895 244.922 430.895 246.394C430.895 247.867 429.705 249.06 428.239 249.06C426.774 249.06 425.584 247.867 425.584 246.394C425.584 244.921 426.774 243.729 428.239 243.729Z" fill="#222222"/>
<path fill-rule="evenodd" clip-rule="evenodd" d="M419.14 243.729C420.606 243.729 421.795 244.922 421.795 246.394C421.795 247.867 420.605 249.06 419.14 249.06C417.672 249.06 416.484 247.867 416.484 246.394C416.485 244.921 417.672 243.729 419.14 243.729Z" fill="#222222"/>
<path fill-rule="evenodd" clip-rule="evenodd" d="M410.046 243.729C411.512 243.729 412.7 244.922 412.7 246.394C412.7 247.867 411.512 249.06 410.046 249.06C408.579 249.06 407.391 247.867 407.391 246.394C407.391 244.921 408.579 243.729 410.046 243.729Z" fill="#222222"/>
<path fill-rule="evenodd" clip-rule="evenodd" d="M400.946 243.729C402.413 243.729 403.601 244.922 403.601 246.394C403.601 247.867 402.413 249.06 400.946 249.06C399.48 249.06 398.292 247.867 398.292 246.394C398.292 244.921 399.48 243.729 400.946 243.729Z" fill="#222222"/>
<path fill-rule="evenodd" clip-rule="evenodd" d="M446.434 252.871C447.901 252.871 449.089 254.061 449.089 255.534C449.089 257.003 447.901 258.196 446.434 258.196C444.968 258.196 443.78 257.003 443.78 255.534C443.78 254.061 444.968 252.871 446.434 252.871Z" fill="#222222"/>
<path fill-rule="evenodd" clip-rule="evenodd" d="M437.339 252.871C438.806 252.871 439.994 254.061 439.994 255.534C439.994 257.003 438.806 258.196 437.339 258.196C435.873 258.196 434.684 257.003 434.684 255.534C434.684 254.061 435.873 252.871 437.339 252.871Z" fill="#222222"/>
<path fill-rule="evenodd" clip-rule="evenodd" d="M428.239 252.871C429.705 252.871 430.895 254.061 430.895 255.534C430.895 257.003 429.705 258.196 428.239 258.196C426.774 258.196 425.584 257.003 425.584 255.534C425.584 254.061 426.774 252.871 428.239 252.871Z" fill="#222222"/>
<path fill-rule="evenodd" clip-rule="evenodd" d="M428.239 252.871C429.705 252.871 430.895 254.061 430.895 255.534C430.895 257.003 429.705 258.196 428.239 258.196C426.774 258.196 425.584 257.003 425.584 255.534C425.584 254.061 426.774 252.871 428.239 252.871Z" fill="#222222"/>
<path fill-rule="evenodd" clip-rule="evenodd" d="M419.14 252.871C420.606 252.871 421.795 254.061 421.795 255.534C421.795 257.003 420.605 258.196 419.14 258.196C417.672 258.196 416.484 257.003 416.484 255.534C416.485 254.061 417.672 252.871 419.14 252.871Z" fill="#222222"/>
<path fill-rule="evenodd" clip-rule="evenodd" d="M410.046 252.871C411.512 252.871 412.7 254.061 412.7 255.534C412.7 257.003 411.512 258.196 410.046 258.196C408.579 258.196 407.391 257.003 407.391 255.534C407.391 254.061 408.579 252.871 410.046 252.871Z" fill="#222222"/>
<path fill-rule="evenodd" clip-rule="evenodd" d="M400.946 252.871C402.413 252.871 403.601 254.061 403.601 255.534C403.601 257.003 402.413 258.196 400.946 258.196C399.48 258.196 398.292 257.003 398.292 255.534C398.292 254.061 399.48 252.871 400.946 252.871Z" fill="#222222"/>
<path fill-rule="evenodd" clip-rule="evenodd" d="M383.164 18.4631H384.31C386.238 18.4631 387.802 20.0252 387.802 21.9535V138.138C387.802 140.066 386.238 141.628 384.31 141.628H383.164C381.236 141.628 379.674 140.066 379.674 138.138V21.9535C379.674 20.0252 381.236 18.4631 383.164 18.4631Z" fill="white"/>
<path d="M384.31 142.822H383.164C380.581 142.822 378.48 140.721 378.48 138.138V21.9524C378.48 19.3694 380.581 17.2686 383.164 17.2686H384.31C386.896 17.2686 388.997 19.3694 388.997 21.9524V138.138C388.997 140.721 386.896 142.822 384.31 142.822ZM383.164 19.6573C381.898 19.6573 380.869 20.687 380.869 21.9524V138.138C380.869 139.404 381.898 140.434 383.164 140.434H384.31C385.575 140.434 386.607 139.404 386.607 138.138V21.9524C386.607 20.687 385.575 19.6573 384.31 19.6573H383.164Z" fill="#222222"/>
<path fill-rule="evenodd" clip-rule="evenodd" d="M380.714 78.7074L387.598 77.4622L388.269 135.22L386.929 141.055L383.39 141.245L380.808 139.62L379.565 134.361L380.714 78.7074Z" fill="#222222"/>
<path fill-rule="evenodd" clip-rule="evenodd" d="M380.439 83.2907C378.461 83.2907 376.853 81.6786 376.853 79.7007V73.1071C376.853 71.1293 378.461 69.521 380.439 69.521H387.035C389.013 69.521 390.625 71.1298 390.625 73.1071V79.7007C390.625 81.678 389.013 83.2907 387.035 83.2907H380.439Z" fill="#F44817"/>
<path d="M387.036 70.7175C388.355 70.7175 389.427 71.7891 389.427 73.1068V79.7004C389.427 81.0197 388.355 82.093 387.036 82.093H380.439C379.121 82.093 378.048 81.0197 378.048 79.7004V73.1068C378.048 71.7897 379.121 70.7175 380.439 70.7175H387.036ZM387.036 68.3271H380.439C377.798 68.3271 375.658 70.4655 375.658 73.1068V79.7004C375.658 82.3423 377.798 84.4839 380.439 84.4839H387.036C389.677 84.4839 391.818 82.3423 391.818 79.7004V73.1068C391.818 70.465 389.676 68.3271 387.036 68.3271Z" fill="#222222"/>
<path fill-rule="evenodd" clip-rule="evenodd" d="M407.071 18.4631H408.22C410.147 18.4631 411.71 20.0252 411.71 21.9535V138.138C411.71 140.066 410.147 141.628 408.22 141.628H407.071C405.145 141.628 403.581 140.066 403.581 138.138V21.9535C403.581 20.0252 405.145 18.4631 407.071 18.4631Z" fill="white"/>
<path d="M408.22 142.822H407.071C404.488 142.822 402.387 140.721 402.387 138.138V21.9524C402.387 19.3694 404.488 17.2686 407.071 17.2686H408.22C410.803 17.2686 412.903 19.3694 412.903 21.9524V138.138C412.903 140.721 410.803 142.822 408.22 142.822ZM407.071 19.6573C405.805 19.6573 404.776 20.687 404.776 21.9524V138.138C404.776 139.404 405.805 140.434 407.071 140.434H408.221C409.486 140.434 410.515 139.404 410.515 138.138V21.9524C410.515 20.687 409.486 19.6573 408.221 19.6573H407.071Z" fill="#222222"/>
<path fill-rule="evenodd" clip-rule="evenodd" d="M404.622 56.1091L411.508 54.8677L412.177 135.221L410.839 141.056L407.3 141.246L404.719 139.621L403.476 134.362L404.622 56.1091Z" fill="#222222"/>
<path fill-rule="evenodd" clip-rule="evenodd" d="M404.346 58.7129C402.368 58.7129 400.76 57.1047 400.76 55.1268V48.5332C400.76 46.5559 402.369 44.9438 404.346 44.9438H410.942C412.92 44.9438 414.532 46.5559 414.532 48.5332V55.1268C414.532 57.1047 412.92 58.7129 410.942 58.7129H404.346Z" fill="white"/>
<path d="M410.944 46.1397C412.263 46.1397 413.336 47.213 413.336 48.5323V55.1259C413.336 56.4452 412.263 57.5185 410.944 57.5185H404.347C403.028 57.5185 401.956 56.4452 401.956 55.1259V48.5323C401.956 47.213 403.028 46.1397 404.347 46.1397H410.944ZM410.944 43.7488H404.347C401.706 43.7488 399.565 45.8905 399.565 48.5323V55.1259C399.565 57.7677 401.707 59.9094 404.347 59.9094H410.944C413.585 59.9094 415.727 57.7677 415.727 55.1259V48.5323C415.727 45.8905 413.585 43.7488 410.944 43.7488Z" fill="#222222"/>
<path fill-rule="evenodd" clip-rule="evenodd" d="M359.256 18.4631H360.403C362.331 18.4631 363.893 20.0252 363.893 21.9535V138.138C363.893 140.066 362.331 141.628 360.403 141.628H359.256C357.328 141.628 355.765 140.066 355.765 138.138V21.9535C355.765 20.0252 357.328 18.4631 359.256 18.4631Z" fill="white"/>
<path d="M360.403 142.822H359.257C356.671 142.822 354.57 140.721 354.57 138.138V21.9524C354.57 19.3694 356.671 17.2686 359.257 17.2686H360.403C362.986 17.2686 365.087 19.3694 365.087 21.9524V138.138C365.087 140.721 362.986 142.822 360.403 142.822ZM359.257 19.6573C357.992 19.6573 356.959 20.687 356.959 21.9524V138.138C356.959 139.404 357.992 140.434 359.257 140.434H360.403C361.669 140.434 362.698 139.404 362.698 138.138V21.9524C362.698 20.687 361.669 19.6573 360.403 19.6573H359.257Z" fill="#222222"/>
<path fill-rule="evenodd" clip-rule="evenodd" d="M356.805 111.608L363.69 110.366L364.359 135.22L363.022 141.055L359.484 141.245L356.9 139.621L355.657 134.361L356.805 111.608Z" fill="#222222"/>
<path fill-rule="evenodd" clip-rule="evenodd" d="M356.527 116.238C354.55 116.238 352.941 114.63 352.941 112.652V106.059C352.941 104.081 354.55 102.469 356.527 102.469H363.128C365.105 102.469 366.714 104.081 366.714 106.059V112.652C366.714 114.63 365.105 116.238 363.128 116.238H356.527Z" fill="white"/>
<path d="M363.127 103.666C364.445 103.666 365.518 104.74 365.518 106.059V112.652C365.518 113.97 364.445 115.042 363.127 115.042H356.53C355.212 115.042 354.139 113.97 354.139 112.652V106.059C354.139 104.739 355.212 103.666 356.53 103.666H363.127ZM363.127 101.276H356.53C353.888 101.276 351.748 103.417 351.748 106.059V112.653C351.748 115.295 353.888 117.432 356.53 117.432H363.127C365.769 117.432 367.909 115.294 367.909 112.653V106.059C367.909 103.417 365.769 101.276 363.127 101.276Z" fill="#222222"/>
<path fill-rule="evenodd" clip-rule="evenodd" d="M247.801 238.717C247.801 238.717 263.868 213.005 271.421 203.814C278.973 194.623 281.368 191.868 284.043 189.375C286.717 186.881 292.555 182.873 292.555 182.873C292.555 182.873 287.474 178.539 285.86 176.942C284.246 175.345 282.514 172.642 282.514 172.642C282.514 172.642 275.366 176.697 269.509 174.455C263.651 172.214 259.701 169.31 259.945 163.84C260.19 158.374 263.292 153.133 263.292 153.133C263.292 153.133 256.881 150.471 256.313 145.197C255.742 139.921 256.251 137.99 261.763 132.861C267.275 127.73 273.469 111.387 274.576 100.731C275.683 90.0741 274.831 66.8508 278.306 62.4815C281.78 58.109 294.414 49.6082 303.55 53.1083C312.687 56.6122 325.904 61.0262 327.073 62.8641C328.245 64.6994 330.581 66.4823 329.082 68.8857C327.584 71.2897 323.537 74.2418 323.537 74.2418C323.537 74.2418 321.952 80.5007 324.11 83.8049C326.267 87.109 326.884 88.4915 326.884 88.4915C326.884 88.4915 323.48 99.6617 317.129 100.634C310.779 101.606 309.767 101.686 309.767 101.686L307.471 109.624C307.471 109.624 315.795 116.801 322.102 119.091C328.408 121.381 336.02 124.826 336.828 129.034C337.635 133.245 336.445 137.738 336.445 137.738L343.33 144.049C343.33 144.049 354.161 137.51 362.169 117.081C367.805 102.703 370.083 88.3222 374.696 80.4593C379.681 71.9581 382.974 73.5653 382.919 76.0585C382.864 78.5518 379.381 83.9937 379.381 83.9937L377.754 91.3564C377.754 91.3564 389.006 91.8082 389.23 96.7125C389.454 101.619 389.418 108.214 387.223 109.624C385.026 111.031 381.772 111.152 381.772 111.152C381.772 111.152 382.282 119.387 379.381 120.142C376.478 120.894 374.409 121.766 374.409 121.766C374.409 121.766 367.448 146.769 362.934 157.625C358.418 168.484 354.676 174.171 347.155 173.882C339.635 173.592 329.847 166.233 329.847 166.233C329.847 166.233 330.568 176.703 327.936 178.855C325.301 181.007 323.345 184.018 323.345 184.018C323.345 184.018 348.1 217.076 363.125 259.656C378.149 302.24 385.979 324.205 385.979 324.205L246.08 328.154L247.801 238.717Z" fill="white"/>
<path fill-rule="evenodd" clip-rule="evenodd" d="M330.711 166.517C330.711 166.517 331.382 175.139 329.468 177.611C327.554 180.084 323.921 182.488 323.921 182.488L293.99 181.912C293.99 181.912 283.108 177.236 283.28 168.145C283.455 159.051 283.191 121.926 287.393 119.185C291.595 116.443 301.595 112.211 309.961 117.174C318.325 122.14 345.151 144.429 345.151 144.429L349.932 138.597C349.932 138.597 351.897 144.822 357.773 146.915C363.647 149.009 367.527 148.064 367.527 148.064C367.527 148.064 363.271 166.214 357.964 169.959C352.657 173.708 346.819 174.415 341.324 172.16C335.83 169.907 330.711 166.517 330.711 166.517Z" fill="#B8BBFD"/>
<path fill-rule="evenodd" clip-rule="evenodd" d="M325.022 75.5622C325.107 78.2524 324.593 80.873 325.119 83.0218C325.527 84.6948 326.603 86.5703 327.892 87.3257C328.897 87.9119 330.39 87.5951 330.568 89.2361C330.233 91.8708 327.207 90.1363 326.265 89.5223C324.665 88.4806 322.814 86.2568 322.249 83.5007C321.698 80.8007 322.774 76.9936 321.964 74.1275C321.464 72.3614 320.073 71.4716 319.286 70.3994C318.386 71.7959 317.536 73.2377 316.704 74.7033C318.158 74.9243 319.808 74.7965 319.956 76.1381C320.208 78.4283 316.968 77.6042 314.983 77.3794C312.631 80.6967 308.364 84.8597 305.231 87.9941C304.353 88.8703 302.82 90.9777 301.598 91.0533C300.856 91.0979 300.525 90.5461 299.877 90.3839C298.297 89.9839 295.39 90.6392 295.574 88.663C295.725 87.0454 297.915 87.8286 299.399 87.8972C299.463 87.0525 298.751 86.9769 298.156 86.6525C297.639 86.376 296.973 85.8519 296.435 85.89C295.217 85.9695 294.405 88.042 294.426 89.3319C294.451 90.7665 295.679 92.2975 296.626 92.87C298.635 94.0805 301.753 93.2804 300.832 96.3114C302.367 100.098 304.153 103.637 306.283 106.826C307.119 105.274 307.741 103.505 308.482 101.857C307.322 101.07 305.068 101.053 305.135 99.2738C305.236 96.5459 308.898 99.16 310.395 99.467C314.207 100.243 317.815 98.1706 319.477 96.9803C318.441 96.4904 317.482 96.0801 316.418 95.3524C315.556 94.7663 314.178 93.9695 314.218 92.8695C314.243 92.1968 314.616 91.7554 315.366 91.6248C316.445 91.4381 317.375 92.5212 318.33 93.1563C319.446 93.8938 320.401 94.3325 321.58 94.591C322.698 94.2465 324.081 88.6695 326.171 90.7665C327.312 91.9078 325.438 94.3014 324.736 95.3529C322.055 99.3777 317.405 102.575 311.447 102.429C310.256 104.554 309.452 107.064 308.386 109.313C314.739 115.738 326.845 117.717 334.106 123.942C336.591 126.073 338.762 128.591 338.888 132.546C338.953 134.636 338.598 136.36 338.217 138.188C339.967 139.974 342.096 141.385 344.05 142.968C348.242 138.195 352.282 133.125 355.81 127.576C361.014 119.393 363.645 108.284 366.518 97.5528C367.477 93.9727 368.218 90.3241 369.674 87.1309C371.693 82.7029 374.136 78.1371 377.322 74.416C378.302 73.2709 379.687 71.5674 381.339 71.7366C383.549 71.9679 384.03 75.7129 383.729 78.1441C383.393 80.8545 381.069 83.0136 380.192 84.931C379.579 86.272 379.5 87.8482 378.949 89.2345C382.793 90.4003 387.029 90.3453 389.085 93.9216C390.625 96.6004 390.47 101.319 389.754 105.105C389.437 106.785 389.017 108.606 388.224 109.599C387.037 111.088 384.746 111.468 382.773 111.992C382.113 114.737 382.404 117.572 380.958 119.351C379.671 120.931 377.697 121.379 375.507 122.124C371.478 135.211 368.07 149.276 363.365 161.997C361.026 168.315 357.178 173.595 350.073 174.712C341.61 176.043 335.956 172.17 330.951 168.498C330.68 172.167 331.022 175.612 329.899 178.154C328.808 180.626 326.767 181.875 324.736 183.317C331.796 193.297 338.317 203.733 344.242 214.868C350.13 225.938 355.313 237.701 360.495 249.672C370.095 271.846 378.283 295.79 386.215 319.758C386.738 321.338 388.721 325.273 385.738 324.825C384.612 324.656 384.058 322.166 383.539 320.617C375.583 296.919 367.513 272.991 357.914 250.82C347.575 226.939 336.801 204.236 322.155 184.751C313.894 184.458 305.509 184.037 297.104 183.7C295.914 183.651 294.497 183.41 293.566 183.603C292.356 183.858 290.51 185.586 289.169 186.569C281.877 191.901 277.281 198.515 271.767 205.692C270.832 206.906 269.756 208.285 268.611 209.802C267.73 210.972 266.365 213.496 265.073 213.53C264.42 213.548 263.776 213.203 263.64 212.575C263.455 211.731 264.218 210.83 264.786 210.089C268.471 205.295 272.114 200.443 275.782 195.938C280.212 190.5 284.6 185.651 290.603 182.076C287.496 179.541 284.316 177.078 282.38 173.374C279.237 174.809 275.859 176.468 272.053 176.05C264.992 175.277 259.724 170.15 258.667 163.049C258.071 159.021 259.27 155.648 261.536 153.103C258.198 150.627 254.258 147.595 254.748 140.771C255.086 136.059 258.641 133.787 261.248 130.921C263.75 128.176 265.835 124.286 267.465 120.785C271.099 112.971 273.555 105.629 273.774 94.493C273.884 88.9057 273.692 83.4708 273.965 78.3325C274.092 75.9459 274.606 73.4869 274.922 71.1629C275.251 68.7247 275.641 66.3898 276.26 64.3761C278.746 56.2792 286.152 51.7059 296.052 51.1818C299.175 51.013 301.98 51.7647 304.752 52.4232C310.02 53.675 314.992 55.2337 319.859 57.1098C322.114 57.9751 324.951 58.9755 326.553 60.2621C328.836 62.1 330.952 66.8041 329.612 70.3047C328.754 72.5449 326.755 73.8897 325.022 75.5622ZM327.126 68.5827C327.372 66.5444 326.224 63.8166 324.927 62.6579C323.625 61.4926 320.973 60.6926 318.904 59.8855C314.672 58.2336 310.083 56.6717 305.613 55.4852C302.559 54.678 299.324 53.823 295.765 54.0505C286.702 54.6302 280.025 58.9064 278.363 67.4387C277.965 69.484 277.772 71.7181 277.406 74.0356C276.342 80.7952 276.743 88.2923 276.548 96.0278C276.282 106.467 273.959 113.326 270.714 120.6C269.137 124.134 267.536 127.604 265.361 130.445C264.353 131.763 263.019 133.077 261.727 134.366C260.4 135.694 258.841 137.125 258.189 138.477C257.082 140.777 257.508 144.567 258.763 146.702C259.348 147.695 260.703 148.929 261.822 149.761C262.882 150.547 265.029 151.319 265.072 152.63C265.109 153.64 263.744 154.83 263.162 155.689C262.42 156.778 261.467 158.309 261.344 159.513C260.775 165.107 263.852 169.473 267.559 171.656C272.221 174.401 277.758 173.004 281.519 170.508C280.633 157.678 281.073 143.235 282.474 131.02C282.952 126.865 283.147 122.316 284.769 119.45C285.916 117.423 288.244 116.153 290.506 115.34C295.334 113.601 303.144 113.381 307.717 115.146C310.096 116.067 312.022 117.433 314.028 118.685C318.042 121.196 321.506 124.341 325.022 127.386C328.096 130.048 331.304 132.821 334.392 135.321C334.763 135.621 335.166 136.2 335.732 136.087C336.673 132.563 335.55 129.41 333.914 127.579C330.401 123.641 324.732 121.73 319.667 119.354C316.296 117.775 312.877 116.133 309.82 114.191C303.231 110.015 301.186 103.773 297.772 96.3136C294.528 95.5864 291.161 92.7759 291.654 88.3783C292.025 85.0508 295.273 81.488 298.823 83.7881C300.482 84.9196 301.158 86.1507 301.515 87.7954C304.429 84.4537 309.458 80.4877 312.401 76.0428C314.443 72.9596 316.531 69.497 318.424 66.004C318.934 65.0657 319.627 63.0661 320.91 63.1347C323.615 63.2865 320.982 67.4076 320.527 68.0112C322.21 69.0078 323.331 70.5632 324.257 72.3146C325.453 71.2757 326.929 70.2236 327.126 68.5827ZM377.514 83.787C377.923 82.8253 378.785 81.9833 379.332 81.1109C380.418 79.3725 381.373 77.6554 380.67 75.0859C380.664 75.0272 380.656 74.9722 380.574 74.9891C378.74 77.0001 377.015 79.4863 375.507 82.0661C374.072 84.5179 372.522 87.249 371.585 89.9049C369.563 95.6436 368.325 102.065 366.518 108.359C364.899 114.008 362.887 120.836 360.304 125.567C358.397 129.068 355.811 132.878 353.324 136.182C352.598 137.148 350.861 138.848 350.839 139.624C350.806 140.68 352.229 141.886 352.943 142.59C354.005 143.634 354.734 144.135 355.81 144.787C358.169 146.218 360.494 147.511 363.459 147.369C365.715 147.259 365.603 145.679 366.232 143.641C368.094 137.599 369.663 132.271 371.396 126.333C371.918 124.543 372.514 120.539 373.787 119.736C375.237 118.821 377.706 118.987 378.758 117.539C379.649 116.307 379.713 113.435 379.905 111.324C380.061 109.621 379.827 105.644 381.53 105.489C383.441 105.317 383.17 107.345 382.965 109.027C386.21 108.83 386.753 106.468 387.172 103.482C385.781 103.078 384.416 102.475 382.485 102.144C380.632 101.826 376.36 102.095 376.462 100.04C376.548 98.2985 378.54 98.8051 380.095 98.988C382.047 99.2193 383.869 99.3815 385.355 99.8468C386.168 100.105 386.856 100.616 387.458 100.423C387.713 99.6537 387.115 99.4017 386.597 99.1774C383.845 97.9877 381.462 97.3259 378.182 96.7881C376.986 96.5911 375.455 96.4191 375.506 95.0672C375.575 93.2635 377.741 93.853 379.234 94.112C382.097 94.6084 384.915 95.4465 386.98 96.3119C386.037 93.1879 380.907 92.353 376.749 91.9116C375.039 91.732 373.363 91.9873 373.212 90.5738C373.041 88.9835 374.512 88.7669 376.079 89.0461C376.772 87.0841 376.783 85.5079 377.514 83.787ZM346.727 144.405C346.122 145.111 345.394 146.284 344.336 146.318C343.471 146.346 342.4 145.335 341.469 144.598C335.307 139.725 329.025 134.8 323.493 129.776C318.923 125.627 313.366 120.74 307.143 118.016C305.022 117.088 301.858 116.433 299.016 116.774C294.837 117.277 288.664 117.826 287.16 120.981C285.784 123.871 285.542 128.517 285.152 132.548C284.169 142.704 283.718 154.099 284.006 165.155C284.066 167.469 284.083 169.866 284.578 171.463C285.209 173.504 287.101 175.225 288.594 176.629C290.237 178.171 291.902 179.508 293.662 180.74C301.058 181.019 310.645 181.454 318.33 181.792C319.553 181.843 321.167 182.091 321.963 181.885C322.36 181.784 323.053 181.143 323.493 180.833C325.021 179.757 326.669 178.508 327.317 176.915C328.439 174.159 327.833 170.336 328.083 166.586C319.91 160.493 311.713 154.644 303.51 148.325C302.561 147.594 300.463 146.425 300.642 145.073C300.731 144.405 301.334 143.966 301.885 143.928C303.17 143.835 305.32 146.16 306.665 147.177C316.067 154.295 325.061 161.161 334.775 167.638C336.447 168.755 338.099 170.035 339.748 170.793C344.043 172.777 350.659 172.611 354.375 170.221C357.187 168.414 359.247 164.82 360.495 161.423C361.832 157.782 362.997 154.153 364.224 150.143C356.799 150.039 352.037 146.463 348.638 142.014C348.02 142.783 347.467 143.542 346.727 144.405Z" fill="#222222"/>
<path fill-rule="evenodd" clip-rule="evenodd" d="M316.857 80.1285C317.591 80.5977 317.802 81.5735 317.331 82.3083L316.138 84.1533C315.667 84.8875 314.689 85.0981 313.956 84.6257C313.222 84.1566 313.012 83.1807 313.482 82.4465L314.675 80.6015C315.146 79.8667 316.124 79.6561 316.857 80.1285Z" fill="#222222"/>
<path fill-rule="evenodd" clip-rule="evenodd" d="M53.4848 182.467H182.387C188.724 182.467 193.862 187.605 193.862 193.944V236.017C193.862 242.356 188.724 247.491 182.387 247.491H53.4848C47.1464 247.491 42.0098 242.356 42.0098 236.017V193.944C42.0092 187.605 47.1464 182.467 53.4848 182.467Z" fill="white"/>
<path d="M182.386 248.925H53.4857C46.3679 248.925 40.5771 243.135 40.5771 236.017V193.945C40.5771 186.824 46.3679 181.033 53.4857 181.033H182.386C189.504 181.033 195.295 186.824 195.295 193.945V236.017C195.295 243.135 189.504 248.925 182.386 248.925ZM53.4857 183.901C47.9506 183.901 43.4453 188.406 43.4453 193.945V236.017C43.4453 241.552 47.9511 246.058 53.4857 246.058H182.386C187.921 246.058 192.427 241.552 192.427 236.017V193.945C192.427 188.406 187.921 183.901 182.386 183.901H53.4857Z" fill="#222222"/>
<mask id="mask0_112_7917" style="mask-type:luminance" maskUnits="userSpaceOnUse" x="42" y="182" width="152" height="66">
<path d="M53.4848 182.467H182.387C188.724 182.467 193.862 187.606 193.862 193.944V236.018C193.862 242.356 188.724 247.491 182.387 247.491H53.4848C47.1464 247.491 42.0098 242.356 42.0098 236.018V193.944C42.0092 187.606 47.1464 182.467 53.4848 182.467Z" fill="white"/>
</mask>
<g mask="url(#mask0_112_7917)">
<path d="M204.391 174.373H25.3623V195.03H204.391V174.373Z" fill="#222222"/>
</g>
<path fill-rule="evenodd" clip-rule="evenodd" d="M125.541 201.88H180.715C183.357 201.88 185.497 204.018 185.497 206.66V236.014C185.497 238.656 183.358 240.797 180.715 240.797H125.541C122.901 240.797 120.76 238.655 120.76 236.014V206.66C120.76 204.018 122.901 201.88 125.541 201.88Z" fill="#B8BBFD"/>
<path fill-rule="evenodd" clip-rule="evenodd" d="M153.508 185.24C155.172 185.24 156.52 186.591 156.52 188.254C156.52 189.917 155.172 191.264 153.508 191.264C151.844 191.264 150.495 189.916 150.495 188.254C150.495 186.592 151.844 185.24 153.508 185.24Z" fill="white"/>
<path fill-rule="evenodd" clip-rule="evenodd" d="M166.802 185.24C168.466 185.24 169.815 186.591 169.815 188.254C169.815 189.917 168.467 191.264 166.802 191.264C165.139 191.264 163.79 189.916 163.79 188.254C163.79 186.592 165.139 185.24 166.802 185.24Z" fill="white"/>
<path fill-rule="evenodd" clip-rule="evenodd" d="M181.243 185.24C182.907 185.24 184.258 186.591 184.258 188.254C184.258 189.917 182.908 191.264 181.243 191.264C179.579 191.264 178.229 189.916 178.229 188.254C178.229 186.592 179.58 185.24 181.243 185.24Z" fill="white"/>
<path d="M109.759 237.02H58.979C58.1855 237.02 57.5449 236.38 57.5449 235.586C57.5449 234.793 58.1861 234.152 58.979 234.152H109.759C110.552 234.152 111.193 234.793 111.193 235.586C111.193 236.38 110.552 237.02 109.759 237.02Z" fill="#222222"/>
<path d="M75.3551 229.097H58.98C58.1865 229.097 57.5459 228.456 57.5459 227.663C57.5459 226.87 58.187 226.229 58.98 226.229H75.3551C76.1481 226.229 76.7892 226.869 76.7892 227.663C76.7887 228.456 76.1481 229.097 75.3551 229.097Z" fill="#222222"/>
<path d="M109.759 229.097H93.3833C92.5904 229.097 91.9492 228.456 91.9492 227.663C91.9492 226.87 92.5904 226.229 93.3833 226.229H109.759C110.552 226.229 111.193 226.869 111.193 227.663C111.193 228.456 110.552 229.097 109.759 229.097Z" fill="#222222"/>
<path d="M87.237 229.136H80.3521C79.5591 229.136 78.918 228.495 78.918 227.701C78.918 226.908 79.5586 226.267 80.3521 226.267H87.237C88.03 226.267 88.6711 226.908 88.6711 227.701C88.6706 228.494 88.0294 229.136 87.237 229.136Z" fill="#222222"/>
<path d="M109.759 221.412H58.979C58.1855 221.412 57.5449 220.772 57.5449 219.978C57.5449 219.185 58.1861 218.545 58.979 218.545H109.759C110.552 218.545 111.193 219.186 111.193 219.978C111.193 220.772 110.552 221.412 109.759 221.412Z" fill="#222222"/>
<path d="M69.8711 213.499H59.0474C58.2544 213.499 57.6133 212.857 57.6133 212.064C57.6133 211.272 58.2539 210.63 59.0474 210.63H69.8711C70.6646 210.63 71.3051 211.272 71.3051 212.064C71.3051 212.857 70.6646 213.499 69.8711 213.499Z" fill="#222222"/>
<path d="M109.759 213.499H80.3101C79.5171 213.499 78.876 212.857 78.876 212.064C78.876 211.272 79.5171 210.63 80.3101 210.63H109.759C110.552 210.63 111.193 211.272 111.193 212.064C111.193 212.857 110.552 213.499 109.759 213.499Z" fill="#222222"/>
<path fill-rule="evenodd" clip-rule="evenodd" d="M243.753 241.966L246.717 240.532L243.753 235.752C243.753 235.752 234.386 238.918 229.791 233.358C225.195 227.803 225.009 223.223 225.009 223.223L224.341 218.729L221.854 217.488L221.566 214.236L218.698 215.956L216.403 212.801L212.579 215.477L211.718 210.983C211.718 210.983 206.676 212.68 205.405 210.983C204.136 209.287 201.696 206.9 204.641 205.914C207.587 204.931 207.226 203.569 209.04 201.707C210.852 199.848 213.806 192.285 218.41 190.713C223.015 189.14 229.504 188.702 229.504 188.702C229.504 188.702 226.528 185.67 227.495 184.591C228.462 183.512 230.849 181.942 234.284 183.636C237.721 185.326 242.987 185.929 242.987 185.929C242.987 185.929 241.643 182.715 244.039 182.298C246.434 181.877 253.888 188.319 253.888 188.319C253.888 188.319 258.274 189.178 259.433 190.519C260.593 191.861 264.608 201.575 264.597 205.341C264.587 209.107 263.928 213.47 263.928 213.47C263.928 213.47 265.952 217.012 263.545 219.684C261.138 222.357 259.052 223.988 259.052 223.988L257.426 227.812C257.426 227.812 260.795 240.738 269.282 241.104C277.771 241.473 294.906 238.883 309.637 250.477C324.368 262.072 350.717 277.101 357.449 284.519C364.181 291.937 369.938 300.162 368.733 306.132C367.53 312.097 365.485 320.871 357.068 320.571C348.65 320.268 344.636 320.378 344.636 320.378H179.875L157.307 256.406L136.077 254.781L117.91 241.2C117.91 241.2 117.039 238.128 118.482 237.759C119.927 237.39 120.778 237.09 120.778 237.09C120.778 237.09 120.229 233.886 123.073 233.551C125.917 233.214 127.326 233.117 128.62 234.889C129.911 236.662 136.748 242.635 136.748 242.635C136.748 242.635 132.199 230.527 133.687 229.058C135.175 227.585 137.807 228.906 138.852 230.968C139.897 233.034 146.309 245.218 146.309 245.218C146.309 245.218 169.47 240.659 173.564 248.374C177.655 256.085 191.54 287.102 191.54 287.102C191.54 287.102 202.249 257.503 206.745 253.347C211.239 249.188 219.496 243.957 229.982 243.305C240.466 242.653 243.753 241.966 243.753 241.966Z" fill="white"/>
<path fill-rule="evenodd" clip-rule="evenodd" d="M246.962 201.272L253.082 220.112L256.525 218.484L257.577 212.556C257.577 212.556 260.655 210.646 261.879 212.077C263.104 213.511 263.983 214.47 263.983 214.47C263.983 214.47 265.695 210.973 264.652 205.383C263.61 199.793 261.145 190.092 259.107 189.223C257.069 188.357 254.708 188.554 254.708 188.554C254.708 188.554 253.318 187.016 250.117 184.923C246.919 182.829 245.75 181.253 244.667 181.767C243.584 182.278 243.138 185.878 243.138 185.878C243.138 185.878 236.856 183.916 233.383 183.581C229.91 183.25 228.49 183.52 228.124 184.061C227.758 184.602 229.176 188.554 229.176 188.554C229.176 188.554 218.402 188.681 215.788 193.337C213.176 197.993 210.398 203.459 207.756 204.331C205.115 205.208 203.775 206.563 203.835 207.68C203.898 208.794 206.188 211.114 207.47 211.601C208.75 212.087 211.58 211.505 211.58 211.505C211.58 211.505 212.051 214.494 213.207 214.853C214.362 215.212 216.459 213.322 216.459 213.322C216.459 213.322 217.806 215.516 218.849 215.616C219.893 215.716 221.719 214.278 221.719 214.278L221.527 206.436C221.527 206.436 222.963 204.239 223.917 204.429C224.872 204.618 230.561 205.753 237.21 203.759C243.857 201.765 246.962 201.272 246.962 201.272Z" fill="#222222"/>
<path fill-rule="evenodd" clip-rule="evenodd" d="M258.569 226.544C259.376 228.613 260.205 230.189 261.055 231.993C262.652 235.383 263.749 238.873 268.418 239.355C273.608 239.89 278.855 239.09 283.62 239.355C288.401 239.621 292.9 240.273 296.623 241.649C300.434 243.056 303.299 245.091 306.376 247.194C309.407 249.267 312.459 251.143 315.651 253.219C328.007 261.254 340.265 269.162 352.078 277.984C355.059 280.208 357.753 282.426 360.207 285.25C362.557 287.957 364.89 290.734 366.802 293.951C368.806 297.317 370.404 301.024 369.958 305.9C369.196 314.222 364.045 320.985 355.139 321.678C345.211 322.451 337.735 318.447 332.478 313.933C330.579 312.305 328.411 310.44 326.549 308.387C325.963 307.742 325.313 306.66 324.637 306.477C323.385 306.132 321.375 306.442 319.952 306.38C316.636 306.236 314.232 306.105 311.92 304.849C310.873 304.283 309.88 303.456 308.861 303.224C305.685 302.5 303.74 305.056 300.734 304.659C299.484 304.494 297.891 303.328 297.673 302.172C297.235 299.83 299.907 297.079 301.115 296.147C302.176 295.333 303.305 295.006 304.463 294.716C306.706 294.147 309.224 294.182 310.582 292.706C308.894 290.45 308.77 285.353 309.913 282.38C309.556 281.87 309.09 281.491 308.67 281.043C308.259 280.605 307.889 280.084 307.332 279.797C306.158 280.608 305.441 281.942 304.559 283.239C303.771 284.401 302.966 286.019 301.595 286.395C299.593 286.946 297.683 285.574 297.101 284.198C296.408 282.56 297.038 279.956 297.388 278.46C297.817 276.625 298.484 275.28 299.3 274.063C301.086 271.394 303.017 268.966 306.28 268.324C309.739 267.648 312.513 270.455 314.12 271.863C315.76 273.301 316.834 274.632 318.614 276.356C321.973 276.149 324.037 277.512 326.358 278.746C331.193 281.322 335.614 284.388 339.936 287.543C341.439 288.64 342.624 289.757 343.76 291.271C344.879 292.764 345.914 294.034 347.488 295.003C349.535 296.258 352.672 297.31 355.52 298.158C356.43 298.427 357.561 298.879 357.623 299.783C357.815 302.535 353.069 300.482 351.6 299.972C349.495 299.242 347.097 298.283 345.48 297.2C343.23 295.696 341.921 293.009 339.936 291.081C337.199 288.423 333.846 286.998 330.852 284.771C326.895 286.651 323.863 289.189 323.776 295.096C325.156 295.269 327.117 296.093 328.653 295.862C329.61 295.717 329.974 294.941 330.66 294.524C330.382 293.714 329.905 293.4 330.182 292.614C331.183 289.775 337.189 295.231 333.052 295.959C332.017 297.09 330.908 298.463 329.227 298.732C327.924 298.938 326.058 298.535 324.542 298.253C320.542 297.511 315.871 296.201 312.877 294.718C311.611 295.021 311.043 296.28 309.627 296.725C308.589 297.049 307.358 296.99 306.28 297.201C303.43 297.759 301.494 298.984 300.543 301.505C301.542 302.229 302.783 301.388 303.985 301.025C306.106 300.39 308.358 299.974 310.487 300.836C311.529 301.256 313.262 302.567 314.407 302.939C317.751 304.022 323.409 303.649 327.41 303.608C329.139 303.591 330.555 303.318 330.757 304.66C330.946 305.915 330.139 306.405 328.844 306.381C330.077 308.033 331.799 309.444 333.433 310.874C338.221 315.075 343.887 319.024 352.844 319.003C357.545 318.989 360.929 317.655 363.36 314.795C365.579 312.184 367.288 308.584 367.279 304.084C367.271 298.704 363.785 294.269 361.256 290.986C358.278 287.12 355.418 284.123 351.792 281.33C337.229 270.111 321.551 260.693 306.183 250.447C302.583 248.043 298.898 245.257 293.754 243.753C290.3 242.743 285.616 242.128 281.038 242.128C279.522 242.128 277.531 241.832 276.258 242.128C275.696 242.26 274.579 243.336 273.866 243.946C271.642 245.853 269.285 247.781 267.078 249.492C264.219 251.706 260.513 254.182 256.37 255.323C251.902 256.554 245.867 257.072 241.741 255.513C237.839 254.04 233.88 249.967 234.666 244.039C221.994 245.184 212.667 248.149 206.747 255.992C201.111 263.458 196.169 271.962 190.875 279.894C192.219 282.695 194.096 286.585 195.751 289.933C196.304 291.05 198.14 294.296 195.657 294.334C194.139 294.355 192.705 290.161 192.118 288.978C186.219 277.049 180.732 265.283 174.43 253.506C173.131 251.081 172.185 247.867 169.936 246.719C166.875 245.153 162.099 245.804 157.983 246.05C154.847 246.232 151.905 246.401 148.613 246.622C147.47 246.698 146.172 246.871 145.555 246.622C144.635 246.25 144.088 244.108 143.546 242.894C142.918 241.484 142.253 240.17 141.73 239.07C139.884 235.173 138.737 231.534 135.611 229.414C134.496 231.772 135.717 234.132 136.567 236.487C137.628 239.429 138.623 241.794 139.818 244.902C140.22 245.943 142.486 250.123 139.723 250.064C138.216 250.033 137.98 247.671 137.332 246.43C136.757 245.333 135.638 244.357 134.655 243.277C132.911 241.357 130.998 239.236 129.11 237.349C127.527 235.767 126.279 233.98 123.085 234.577C124.756 238.722 126.992 240.884 129.779 244.136C131.37 245.992 133.519 248.471 135.42 250.637C136.004 251.302 136.873 252.437 137.428 252.644C138.101 252.902 139.523 252.879 140.678 252.934C146.589 253.206 151.235 253.475 157.411 253.792C159.006 253.875 162.722 253.63 162.86 255.324C162.988 256.896 161.613 256.944 159.896 256.852C165.593 273.205 171.639 290 178.063 306.188C178.97 308.478 179.841 310.892 181.027 312.882C182.736 315.751 186.378 319.393 190.397 319.765C193.194 320.028 195.622 319.111 197.663 318.044C199.657 317.003 201.531 315.834 203.017 314.413C205.073 312.444 206.716 309.675 208.468 307.147C213.599 299.736 218.533 291.708 223.287 284.104C223.183 282.92 220.046 280.554 221.088 278.748C222.068 277.051 223.637 278.985 224.338 280.182C232.129 293.466 239.612 306.327 247.382 319.576C248.006 320.642 249.836 323.666 247.286 323.687C245.811 323.697 244.801 320.786 244.035 319.479C237.485 308.309 231.379 298.032 224.913 286.875C220.186 294.418 215.462 302.091 210.38 309.44C207.261 313.954 204.446 317.626 199.479 320.341C196.942 321.727 194.175 322.899 190.492 322.634C183.915 322.162 179.218 316.309 177.012 311.161C169.499 293.645 163.308 274.274 156.741 256.662C153.181 256.393 149.321 256.255 145.268 255.993C141.521 255.752 137.305 256.048 134.367 254.844C132.829 254.217 130.948 252.492 129.683 251.499C126.622 249.095 124.063 246.968 120.982 244.326C119.745 243.268 117.557 241.885 116.968 240.409C115.96 237.898 117.697 235.439 120.218 235.246C119.461 231.704 124.41 230.836 127.293 232.091C128.53 232.628 129.958 234.181 131.022 235.246C132.29 236.512 133.407 237.867 134.367 238.781C133.93 236.598 132.412 234.601 132.264 231.994C132.126 229.556 133.074 226.515 135.133 226.449C137.137 226.383 139.061 228.201 140.104 229.605C141.549 231.546 142.436 234.122 143.643 236.678C144.786 239.106 146.171 241.633 146.99 243.85C151.599 243.568 156.598 243.202 161.427 242.988C166.571 242.764 171.146 243.061 173.57 245.954C174.398 246.94 174.973 248.372 175.674 249.682C180.326 258.401 184.987 268.098 189.346 276.837C192.415 272.23 195.488 267.556 198.621 262.876C201.727 258.238 204.432 253.313 208.755 249.778C213.081 246.24 218.382 243.743 224.819 242.605C231.273 241.467 238.091 240.729 245.183 239.74C244.687 238.45 243.959 237.395 243.271 236.298C234.122 238.822 227.79 234.035 225.105 227.69C224.597 226.486 222.321 221.089 225.009 221.092C226.255 221.096 226.445 222.769 226.826 224.151C228.44 230.014 232.691 235.214 240.786 233.904C242 233.71 243.464 233.135 244.419 232.662C245.352 232.2 246.59 231.01 247.766 231.228C248.013 231.276 248.764 231.735 248.818 232.469C248.939 234.156 247.163 234.141 245.949 235.052C246.674 237.204 250.986 241.484 247.67 243.564C246.661 244.194 244.394 245.002 244.323 242.701C242.021 242.95 239.89 243.367 237.537 243.564C236.802 247.764 238.764 250.374 240.978 251.975C243.379 253.716 248.149 253.775 252.069 253.22C260.754 251.989 266.71 246.302 271.478 242.226C261.047 243.219 259.583 235.253 256.466 228.935C255.545 229.017 254.564 228.676 254.459 227.786C254.35 226.869 255.336 226.01 255.988 225.206C256.675 224.355 257.066 223.544 257.709 222.91C258.973 221.665 261.425 220.63 262.3 218.989C263.646 216.468 262.566 212.674 258.378 213.35C257.959 213.726 257.831 214.395 257.806 215.164C258.976 214.989 261.432 213.958 261.534 215.74C261.636 217.503 258.666 217.22 257.327 217.937C256.165 219.106 255.99 221.476 254.173 221.765C252.679 222 251.29 220.865 250.826 219.851C250.245 218.585 250.366 216.682 250.06 215.071C249.27 210.889 247.124 206.236 246.141 202.546C241.03 204.139 235.191 206.215 228.739 206.657C226.626 206.801 224.754 206.191 222.716 205.701C221.722 208.543 223.179 211.73 223.193 214.785C224.816 214.357 226.375 213.723 228.164 213.922C233.24 214.485 238.168 222.572 234.667 227.596C235.17 228.358 235.801 228.596 235.719 229.507C235.479 232.159 231.332 229.666 231.225 228.358C231.111 226.982 232.923 225.762 233.041 224.058C233.284 220.564 230.665 217.554 228.356 216.888C227.183 216.547 225.651 217.006 224.437 217.461C223.606 217.771 222.492 218.582 221.473 218.226C220.633 217.93 220.609 217.119 220.421 215.833C219.41 217.054 216.64 216.744 216.023 215.071C213.969 216.985 210.653 215.798 210.669 212.774C209.346 213.012 207.503 212.84 206.367 212.391C204.304 211.584 201.568 209.129 202.256 206.467C202.841 204.194 206.396 203.566 207.993 202.066C209.715 200.445 210.969 197.779 212.487 195.565C213.947 193.434 215.532 191.147 217.649 189.733C219.973 188.179 223.55 187.72 227.114 187.437C226.871 186.195 225.413 185.098 225.873 183.326C226.595 180.532 232.52 181.957 235.434 182.463C237.86 182.891 240.084 183.508 241.648 184.092C241.439 181.798 242.057 180.212 244.516 180.553C246.69 180.856 250.127 182.743 251.784 183.995C253.096 184.988 253.92 186.423 254.842 187.247C259.455 186.985 261.038 189.75 262.395 193.078C263.067 194.724 263.657 196.354 264.213 198.144C265.528 202.39 267.04 208.021 265.838 212.008C265.642 212.659 265.193 213.46 265.168 214.018C265.135 214.739 265.594 215.459 265.647 216.025C266.202 222.019 260.878 223.071 258.569 226.544ZM243.653 187.533C242.679 187.736 241.261 186.922 240.212 186.578C236.836 185.47 232.66 184.747 228.93 184.567C229.092 185.901 231.503 187.384 231.416 188.871C231.313 190.629 228.859 190.223 227.209 190.306C224.217 190.457 221.315 190.726 219.272 192.026C217.168 193.368 215.529 196.065 214.014 198.338C212.671 200.352 211.521 202.693 209.902 204.169C208.416 205.528 206.486 205.994 205.027 207.422C205.844 208.56 206.168 209.343 207.417 209.812C208.879 210.36 210.524 209.632 212.005 209.812C213.371 209.974 213.2 211.877 213.631 213.06C214.776 212.85 215.404 211.456 216.69 211.629C217.639 211.756 217.884 212.74 218.413 213.539C219.12 213.133 219.565 212.46 220.037 211.819C219.454 209.381 218.766 203.752 221.567 202.928C223.667 202.307 225.655 203.756 227.59 203.884C231.008 204.108 234.832 202.832 237.917 202.066C239.353 201.711 240.964 201.173 242.602 200.632C244.076 200.145 246.307 199.038 247.383 199.293C248.551 199.573 249.095 202.431 249.487 203.597C250.689 207.176 251.644 209.735 252.545 213.349C252.984 215.101 253.08 216.943 253.598 218.701C253.838 217.819 254.632 217.178 254.841 216.408C255.313 214.659 254.894 213.335 255.702 212.008C256.748 210.29 259.45 210.132 261.439 210.766C262.119 210.983 262.646 211.435 263.063 211.342C263.763 209.583 263.311 206.804 262.874 204.551C262.173 200.958 261.313 197.989 260.101 194.895C259.563 193.523 258.799 191.512 257.997 190.781C256.915 189.798 254.792 190.378 253.503 189.922C252.453 189.553 251.646 187.75 250.731 186.864C249.003 185.191 246.69 184.443 244.611 183.612C244.606 183.553 244.597 183.498 244.514 183.519C244.488 185.106 245.281 187.191 243.653 187.533ZM122.799 240.121C122.436 239.604 121.803 238.042 121.174 237.921C120.641 237.817 119.601 238.414 119.549 238.876C119.466 239.607 120.941 240.614 121.365 240.98C123.67 242.963 125.819 244.653 127.962 246.429C126.541 244.474 124.363 242.339 122.799 240.121ZM308.383 271.194C306.721 270.553 304.856 271.942 303.795 272.915C301.875 274.674 300.309 277.225 299.875 280.757C299.758 281.702 299.404 283.781 300.639 283.622C301.181 283.553 302.308 281.598 302.743 280.946C303.453 279.881 303.937 278.815 304.751 278.077C305.463 277.433 306.872 276.512 308.001 276.643C309.693 276.843 309.85 279.009 311.443 279.705C312.354 278.478 313.69 277.681 315.268 277.122C313.288 275.221 311.041 272.218 308.383 271.194ZM313.261 281.808C311.399 284.336 311.294 291.536 314.599 292.323C314.395 285.553 317.111 281.705 321.482 279.511C318.255 278.843 315.012 279.426 313.261 281.808ZM324.447 281.043C322.547 282.561 319.679 283.474 318.518 285.726C317.513 287.682 317.677 290.241 317.372 293.472C318.541 293.865 319.757 294.21 321.005 294.523C321.145 288.481 324.148 285.301 327.985 282.954C326.769 282.354 325.762 281.543 324.447 281.043Z" fill="#222222"/>
<path fill-rule="evenodd" clip-rule="evenodd" d="M241.455 212.008C243.031 211.86 247.809 213.067 247.86 214.974C247.875 215.467 247.462 216.281 246.808 216.409C245.691 216.626 245.232 215.929 244.419 215.546C243.736 215.226 242.919 214.777 241.932 214.784C240.835 214.788 240.039 215.319 239.351 215.643C238.28 216.147 235.685 217.229 235.909 214.877C236.016 213.76 237.452 213.308 238.204 212.967C239.337 212.449 240.025 212.146 241.455 212.008Z" fill="#222222"/>
<path fill-rule="evenodd" clip-rule="evenodd" d="M244.323 224.726C247.161 223.916 245.785 228.082 244.897 229.22C244.219 230.089 242.48 231.369 241.455 231.324C240.79 231.296 240.036 230.865 240.117 229.792C240.214 228.482 242.005 228.351 242.699 227.402C243.252 226.644 243.123 225.068 244.323 224.726Z" fill="#222222"/>
<path fill-rule="evenodd" clip-rule="evenodd" d="M231.248 217.974C232.118 217.974 232.826 218.681 232.826 219.55V221.75C232.826 222.623 232.118 223.33 231.248 223.33C230.375 223.33 229.67 222.623 229.67 221.75V219.55C229.669 218.681 230.375 217.974 231.248 217.974Z" fill="#222222"/>
<path fill-rule="evenodd" clip-rule="evenodd" d="M241.479 216.539C242.349 216.539 243.056 217.246 243.056 218.115V220.316C243.056 221.188 242.349 221.895 241.479 221.895C240.606 221.895 239.901 221.188 239.901 220.316V218.115C239.901 217.246 240.607 216.539 241.479 216.539Z" fill="#222222"/>
<path fill-rule="evenodd" clip-rule="evenodd" d="M12.9086 1.43384H214.39C220.729 1.43384 225.865 6.57265 225.865 12.9078V139.611C225.865 145.949 220.729 151.088 214.39 151.088H12.9086C6.57127 151.088 1.43457 145.949 1.43457 139.611V12.9078C1.43511 6.57265 6.57181 1.43384 12.9086 1.43384Z" fill="white"/>
<path d="M214.389 152.523H12.9087C5.79089 152.523 0 146.732 0 139.611V12.9087C0 5.79089 5.79089 0 12.9087 0H214.389C221.51 0 227.301 5.79034 227.301 12.9087V139.611C227.301 146.732 221.51 152.523 214.389 152.523ZM12.9087 2.86824C7.37358 2.86824 2.86824 7.37413 2.86824 12.9087V139.611C2.86824 145.15 7.37358 149.655 12.9087 149.655H214.389C219.927 149.655 224.432 145.15 224.432 139.611V12.9087C224.432 7.37358 219.927 2.86824 214.389 2.86824H12.9087Z" fill="#222222"/>
<mask id="mask1_112_7917" style="mask-type:luminance" maskUnits="userSpaceOnUse" x="1" y="1" width="225" height="151">
<path d="M12.9086 1.43384H214.39C220.729 1.43384 225.865 6.57265 225.865 12.9078V139.611C225.865 145.949 220.729 151.088 214.39 151.088H12.9086C6.57127 151.088 1.43457 145.949 1.43457 139.611V12.9078C1.43511 6.57265 6.57181 1.43384 12.9086 1.43384Z" fill="white"/>
</mask>
<g mask="url(#mask1_112_7917)">
<path fill-rule="evenodd" clip-rule="evenodd" d="M-4.07422 -0.414062H228.676V18.4259H-4.07422V-0.414062Z" fill="#222222"/>
</g>
<path d="M275.252 69.1116C275.643 68.7211 275.643 68.088 275.252 67.6974L268.888 61.3335C268.498 60.9429 267.864 60.9429 267.474 61.3335C267.083 61.724 267.083 62.3572 267.474 62.7477L273.131 68.4045L267.474 74.0614C267.083 74.4519 267.083 75.0851 267.474 75.4756C267.864 75.8661 268.498 75.8661 268.888 75.4756L275.252 69.1116ZM174.545 68.4045V69.4045H274.545V68.4045V67.4045H174.545V68.4045Z" fill="#222222"/>
<path d="M109.007 32.1422H18.5506C17.7577 32.1422 17.1172 31.5016 17.1172 30.708C17.1172 29.9151 17.7577 29.2739 18.5506 29.2739H109.007C109.8 29.2739 110.441 29.9151 110.441 30.708C110.441 31.5016 109.8 32.1422 109.007 32.1422Z" fill="#222222"/>
<path d="M109.007 40.066H79.8363C79.0433 40.066 78.4023 39.4249 78.4023 38.6319C78.4023 37.8389 79.0433 37.1978 79.8363 37.1978H109.007C109.8 37.1978 110.441 37.8389 110.441 38.6319C110.44 39.4254 109.8 40.066 109.007 40.066Z" fill="#222222"/>
<path d="M47.7213 40.066H18.5508C17.7578 40.066 17.1172 39.4249 17.1172 38.6319C17.1172 37.8389 17.7578 37.1978 18.5508 37.1978H47.7213C48.5143 37.1978 49.1554 37.8389 49.1554 38.6319C49.1554 39.4254 48.5143 40.066 47.7213 40.066Z" fill="#222222"/>
<path d="M70.9317 40.0239H58.6675C57.8745 40.0239 57.2334 39.3828 57.2334 38.5898C57.2334 37.7968 57.8745 37.1558 58.6675 37.1558H70.9317C71.7247 37.1558 72.3659 37.7968 72.3659 38.5898C72.3653 39.3828 71.7247 40.0239 70.9317 40.0239Z" fill="#222222"/>
<path d="M109.007 47.7469H18.5506C17.7577 47.7469 17.1172 47.1063 17.1172 46.3128C17.1172 45.5198 17.7577 44.8787 18.5506 44.8787H109.007C109.8 44.8787 110.441 45.5198 110.441 46.3128C110.441 47.1063 109.8 47.7469 109.007 47.7469Z" fill="#222222"/>
<path d="M108.88 55.6644H89.6011C88.8081 55.6644 88.167 55.0238 88.167 54.2303C88.167 53.4367 88.8081 52.7961 89.6011 52.7961H108.88C109.673 52.7961 110.314 53.4367 110.314 54.2303C110.314 55.0238 109.673 55.6644 108.88 55.6644Z" fill="#222222"/>
<path d="M71.0099 55.6644H18.5508C17.7578 55.6644 17.1172 55.0238 17.1172 54.2303C17.1172 53.4367 17.7578 52.7961 18.5508 52.7961H71.0099C71.8029 52.7961 72.444 53.4367 72.444 54.2303C72.444 55.0238 71.8034 55.6644 71.0099 55.6644Z" fill="#222222"/>
<path d="M107.838 65.8958H18.356C17.5625 65.8958 16.9219 65.2552 16.9219 64.4617C16.9219 63.6687 17.5625 63.0276 18.356 63.0276H107.838C108.631 63.0276 109.272 63.6687 109.272 64.4617C109.272 65.2552 108.631 65.8958 107.838 65.8958Z" fill="#222222"/>
<path d="M107.838 73.4344H78.982C78.189 73.4344 77.5479 72.7938 77.5479 72.0002C77.5479 71.2073 78.189 70.5667 78.982 70.5667H107.838C108.631 70.5667 109.273 71.2078 109.273 72.0002C109.272 72.7938 108.631 73.4344 107.838 73.4344Z" fill="#222222"/>
<path d="M47.2124 73.4344H18.356C17.5625 73.4344 16.9219 72.7938 16.9219 72.0002C16.9219 71.2073 17.5625 70.5667 18.356 70.5667H47.2124C48.0054 70.5667 48.6465 71.2078 48.6465 72.0002C48.646 72.7938 48.0049 73.4344 47.2124 73.4344Z" fill="#222222"/>
<path d="M70.2424 73.4344H52.731C51.938 73.4344 51.2969 72.7938 51.2969 72.0002C51.2969 71.2073 51.9375 70.5667 52.731 70.5667H70.2424C71.036 70.5667 71.6766 71.2078 71.6766 72.0002C71.6766 72.7938 71.0354 73.4344 70.2424 73.4344Z" fill="#222222"/>
<path d="M107.838 80.7432H18.356C17.5625 80.7432 16.9219 80.1026 16.9219 79.3091C16.9219 78.5161 17.5625 77.875 18.356 77.875H107.838C108.631 77.875 109.272 78.5156 109.272 79.3091C109.272 80.1026 108.631 80.7432 107.838 80.7432Z" fill="#222222"/>
<path d="M107.715 88.2723H88.6405C87.8475 88.2723 87.207 87.6312 87.207 86.8382C87.207 86.0452 87.8475 85.4041 88.6405 85.4041H107.715C108.508 85.4041 109.149 86.0446 109.149 86.8382C109.149 87.6312 108.508 88.2723 107.715 88.2723Z" fill="#222222"/>
<path d="M70.2491 88.2689H18.356C17.5625 88.2689 16.9219 87.6283 16.9219 86.8348C16.9219 86.0418 17.5625 85.4006 18.356 85.4006H70.2491C71.042 85.4006 71.6832 86.0418 71.6832 86.8348C71.6832 87.6283 71.042 88.2689 70.2491 88.2689Z" fill="#222222"/>
<path d="M81.5197 88.2689H78.982C78.189 88.2689 77.5479 87.6283 77.5479 86.8348C77.5479 86.0418 78.189 85.4006 78.982 85.4006H81.5197C82.3127 85.4006 82.9539 86.0418 82.9539 86.8348C82.9539 87.6283 82.3127 88.2689 81.5197 88.2689Z" fill="#222222"/>
<path fill-rule="evenodd" clip-rule="evenodd" d="M13.114 6.85181C14.7761 6.85181 16.1265 8.19992 16.1265 9.86262C16.1265 11.5286 14.7761 12.8773 13.114 12.8773C11.4502 12.8773 10.1016 11.5286 10.1016 9.86262C10.1016 8.20046 11.4502 6.85181 13.114 6.85181Z" fill="white"/>
<path fill-rule="evenodd" clip-rule="evenodd" d="M26.4051 6.85181C28.0695 6.85181 29.4175 8.19992 29.4175 9.86262C29.4175 11.5286 28.0695 12.8773 26.4051 12.8773C24.7413 12.8773 23.3926 11.5286 23.3926 9.86262C23.3926 8.20046 24.7408 6.85181 26.4051 6.85181Z" fill="white"/>
<path fill-rule="evenodd" clip-rule="evenodd" d="M40.8431 6.85181C42.5069 6.85181 43.8572 8.19992 43.8572 9.86262C43.8572 11.5286 42.5074 12.8773 40.8431 12.8773C39.1788 12.8773 37.8291 11.5286 37.8291 9.86262C37.8286 8.20046 39.1788 6.85181 40.8431 6.85181Z" fill="white"/>
<path fill-rule="evenodd" clip-rule="evenodd" d="M148.814 28.1514H204.658C208.884 28.1514 212.309 31.5758 212.309 35.8003V122.626C212.309 126.851 208.884 130.275 204.658 130.275H148.814C144.59 130.275 141.163 126.851 141.163 122.626V35.8003C141.163 31.5758 144.589 28.1514 148.814 28.1514Z" fill="#B8BBFD"/>
<path d="M36.7908 145.291L59.6462 132.096V105.704L36.7908 92.5095L13.9326 105.704V132.096L36.7908 145.291Z" fill="#222222"/>
<path fill-rule="evenodd" clip-rule="evenodd" d="M185.579 136.58C183.582 131.124 180.57 127.348 173.912 123.482C167.255 119.616 132.124 100.531 132.124 100.531C132.124 100.531 134.293 90.5921 131.169 86.5706C128.044 82.5463 126.068 80.1701 127.153 72.3209C128.236 64.4716 129.16 58.457 129.16 58.457L133.559 63.2367C133.559 63.2367 135.448 55.3395 129.639 46.5972C123.828 37.8586 114.247 29.4781 105.254 28.7162C96.2597 27.9542 83.984 29.0852 78.0956 41.0523C72.2095 53.0188 71.8765 73.1797 68.3432 77.1968C64.8099 81.2145 46.9343 86.1362 43.5757 91.5434C40.2198 96.9473 39.9417 102.062 39.9417 102.062C39.9417 102.062 23.0905 120.984 17.1842 129.22C11.2769 137.452 5.12961 146.711 17.6622 153.602C30.1942 160.492 66.4307 168.041 66.4307 168.041C66.4307 168.041 66.2097 171.811 69.681 173.78C73.1522 175.746 75.5148 178.274 75.5148 178.274C75.5148 178.274 78.3547 190.571 84.6948 190.227C91.0353 189.882 92.5076 188.254 93.1096 186.592C93.7115 184.929 94.4472 173.494 94.4472 173.494L96.3614 175.69C96.3614 175.69 97.2148 184.201 99.6117 184.298C102.009 184.394 104.062 182.877 103.436 179.422C102.812 175.966 102.586 170.728 97.4135 166.32C92.2404 161.912 63.2441 148.852 63.2441 148.852L98.4927 149.432L104.776 142.224C104.776 142.224 111.829 142.242 115.677 138.493C121.88 132.451 119.119 125.678 119.119 125.678L140.252 133.045C140.252 133.045 134.102 134.603 131.743 136.676C129.383 138.752 126.241 144.245 126.004 146.718C125.768 149.187 125.575 156.45 130.691 158.575C135.805 160.699 138.371 159.223 139.966 156.95C141.559 154.674 141.783 152.836 141.783 152.836L145.416 148.246C145.416 148.246 144.416 159.092 145.799 159.626C147.18 160.165 150.672 157.978 150.867 155.992C151.062 154.005 151.25 151.212 151.25 151.212L153.353 148.44C153.353 148.44 175.086 151.496 178.597 149.875C182.109 148.253 187.575 142.039 185.579 136.58ZM41.2807 139.449L52.3731 129.506L54.5719 144.518L41.2807 139.449Z" fill="white"/>
<path fill-rule="evenodd" clip-rule="evenodd" d="M39.4001 103.29C39.4001 103.29 46.6784 94.1582 56.4206 93.344C66.1633 92.5298 77.8665 93.7544 80.5187 89.9957C83.1703 86.2398 86.4466 75.5561 86.4466 75.5561L83.0047 69.3418C83.0047 69.3418 76.089 65.5173 77.6494 60.7338C79.2097 55.9542 81.7617 56.6231 81.7617 56.6231L84.821 58.7266L86.6387 66.3756L98.2101 50.215L104.711 55.3811L108.345 54.0428L113.604 58.5362L118.481 55.9531L121.734 59.684L122.019 64.1779L119.438 64.271C119.438 64.271 118.374 80.7896 111.021 83.3972C103.671 86.0042 99.9306 83.6834 99.9306 83.6834C99.9306 83.6834 94.6579 93.3331 99.1648 93.6297C103.671 93.9258 110.404 92.7502 116.474 94.968C122.542 97.1892 131.391 101.472 131.391 101.472C131.391 101.472 133.567 93.4882 131.2 88.4669C128.832 83.4424 126.251 82.9008 126.609 76.4171C126.968 69.9301 128.236 59.5877 128.236 59.5877L132.537 64.6541C132.537 64.6541 134.617 53.9459 129.861 47.7316C125.104 41.5107 106.554 23.7081 92.0885 28.8916C78.7063 33.6887 75.5038 41.9864 72.8675 54.998C70.2311 68.0095 70.9637 78.5179 60.9146 82.2488C49.8395 86.3634 46.6648 88.5252 42.842 94.0123C39.0197 99.5001 39.4001 103.29 39.4001 103.29Z" fill="#222222"/>
<path fill-rule="evenodd" clip-rule="evenodd" d="M185.891 134.779C184.448 130.955 181.156 127.375 178.05 125.216C171.27 120.505 163.574 116.612 156.06 112.501C148.471 108.349 140.745 104.4 133.399 100.358C134.073 96.823 134.946 93.423 134.165 90.0329C133.475 87.0356 131.214 84.9289 129.862 82.6697C126.705 77.3937 129.417 68.5576 129.671 61.9226C131.062 62.4641 131.899 65.7613 133.878 65.5545C135.938 65.3406 135.083 59.0021 134.93 57.2366C134.13 48.1012 128.984 43.3379 124.412 38.3068C121.361 34.9482 117.233 32.4447 112.652 30.4647C109.382 29.0507 105.432 27.7608 101.178 27.3091C92.7565 26.4154 87.6454 28.8678 83.2037 32.7576C79.881 35.6683 77.2844 39.2 75.2668 43.2765C73.1578 47.5423 72.384 52.7911 71.4424 57.9049C70.9732 60.4537 70.5199 63.1026 70.1041 65.7471C69.3127 70.7684 68.9312 75.5273 65.8965 78.1762C64.5739 79.3279 62.7877 79.9418 60.9252 80.663C57.4061 82.0182 53.8227 83.7669 50.7895 85.4426C47.4326 87.298 44.6426 89.0777 42.5663 92.0401C41.0957 94.1404 39.8952 97.0576 39.0298 99.6891C38.7245 100.617 38.5922 101.723 38.1693 102.558C37.7573 103.365 36.7641 104.259 35.9695 105.138C33.6466 107.71 31.3138 110.393 29.1809 112.787C22.9072 119.836 17.2519 126.071 11.6842 133.726C9.05597 137.337 7.19904 143.693 10.0596 148.259C11.1563 150.014 12.9963 151.532 15.0308 152.849C16.9966 154.122 19.0883 155.435 21.2452 156.291C25.9955 158.177 31.4341 159.533 35.8742 160.881C46.0109 163.954 55.3176 166.478 65.7995 169.389C66.3546 174.476 70.2189 176.255 74.2143 177.9C75.7339 182.046 76.5229 186.639 79.4739 189.181C83.0725 192.285 90.7662 190.75 93.3372 187.556C94.9031 185.611 94.9857 182.439 95.7275 179.621C96.3796 182.015 97.6293 185.505 100.032 185.739C101.975 185.932 103.408 184.063 103.759 182.49C104.433 179.473 103.397 175.235 102.613 172.831C101.692 170.017 100.104 167.868 98.3106 166.234C96.6071 164.686 94.8002 163.265 92.9584 161.92H92.7016V161.727C90.3928 160.051 88.027 158.502 85.6883 157.057C75.8569 150.971 64.9832 148.005 55.2835 143.956C55.523 141.628 54.9352 139.1 54.6146 136.597C54.294 134.1 54.1459 131.513 53.4677 129.33C54.7315 128.303 55.7183 127.244 57.2923 125.792C58.2371 124.92 60.7445 123.295 60.5425 121.871C60.1425 119.057 57.4115 121.812 56.6218 122.54C50.9436 127.782 45.0188 133.586 39.6045 138.41C38.3854 138.227 35.3632 136.024 34.1544 137.359C32.3262 139.379 36.7962 140.356 38.0735 140.804C50.211 145.039 62.621 149.481 73.929 154.285C80.4536 157.054 86.5008 160.665 91.8084 164.611C94.1868 166.379 97.3593 168.67 98.98 171.494C99.803 172.928 100.38 174.967 100.701 176.85C101.046 178.874 101.579 181.485 100.318 182.778C99.2614 181.798 98.967 180.571 98.5975 178.953C98.3085 177.691 98.1577 175.428 97.6407 174.363C97.1427 173.336 95.7629 173.18 95.3471 172.163C94.6902 170.559 95.0233 167.287 92.9556 167.287C90.4831 167.287 92.0696 170.298 92.3815 171.877C93.175 175.878 92.8675 181.481 91.8084 184.402C91.4639 185.354 91.0138 186.123 90.0881 186.41C90.3809 183.975 90.9294 181.313 90.8516 178.571C90.795 176.536 90.2845 175.184 89.7054 173.502C89.3587 172.495 88.8798 169.702 87.2188 169.774C84.8894 169.874 86.5308 173.101 86.9324 174.267C87.3586 175.502 87.8826 176.771 87.9839 178.189C88.1858 181.009 87.658 183.662 87.3151 186.124C87.2133 186.852 87.2938 188.1 86.1667 187.941C85.7889 183.73 85.3938 177.878 83.8731 174.267C83.4366 173.236 82.8613 171.139 81.7696 171.019C80.9162 170.919 80.6126 171.415 80.1434 171.877C80.0259 173.25 80.8352 174.309 81.2896 175.416C82.7107 178.861 82.9571 183.279 83.1073 187.748C80.4726 187.117 79.7983 184.872 78.9003 182.778C78.4757 181.789 78.0622 180.637 77.6567 179.43C77.3067 178.388 77.0553 176.706 76.5105 175.988C75.9608 175.267 74.2432 174.826 73.0686 174.267C72.0046 173.761 70.5786 173.054 69.913 172.26C68.8697 171.019 68.836 168.167 68.0011 167.287C67.4394 166.697 65.706 166.487 64.4629 166.143C55.6394 163.694 46.9819 161.138 38.5513 158.683C31.4401 156.61 23.4826 154.607 17.6128 151.13C15.7025 149.999 13.5798 148.54 12.4499 146.733C10.8738 144.212 11.4393 139.812 12.7363 137.17C13.6485 135.315 15.3917 133.332 16.8486 131.529C24.1906 122.438 31.9588 113.63 39.6045 105.236C42.7356 101.798 46.2091 98.7181 50.7901 96.7245C54.9732 100.321 59.9188 103.642 66.0885 105.715C72.0736 107.722 79.081 109.26 86.3577 109.729C98.499 110.512 109.462 108.316 116.954 104.088C119.586 102.605 121.553 100.539 123.743 98.7355C139.384 106.854 156.117 115.292 171.358 124.358C174.595 126.283 177.35 127.948 179.773 130.573C182.097 133.091 184.628 136.619 183.406 140.806C182.461 144.037 179.599 147.533 176.329 148.455C173.156 149.345 169.157 149.006 165.525 148.834C161.917 148.665 158.331 148.262 155.008 147.975C155.963 147.104 156.365 144.641 154.531 144.627C153.378 144.62 152.458 146.559 151.758 147.69C151.089 148.769 150.064 150.165 149.654 151.417C148.82 153.959 149.152 157.521 146.593 157.632C145.993 154.18 146.478 149.324 147.262 146.254C147.66 144.703 148.614 142.22 146.499 142.237C145.05 142.25 145.093 144.051 144.586 145.202C143.881 146.803 142.198 148.43 141.239 150.462C139.973 153.145 139.507 156.704 136.936 157.442C136.526 152.586 138.049 148.813 139.806 145.679C140.452 144.527 142.449 141.468 139.9 141.379C138.611 141.333 137.885 143.306 137.319 144.341C135.329 147.986 133.631 152.142 134.069 157.918C133.369 157.725 132.535 157.67 132.06 157.249C130.779 151.303 132.807 146.92 134.738 143.289C135.436 141.978 136.459 139.605 134.163 139.754C132.97 139.83 132.318 141.771 131.868 142.62C130.023 146.106 128.364 149.769 129.001 155.049C128.088 154.155 127.935 152.655 127.758 151.132C127.582 149.628 127.205 147.731 127.471 146.255C127.74 144.762 129.228 142.641 130.244 140.996C131.355 139.193 132.245 137.664 133.972 136.692C135.611 135.772 138.131 135.295 140.475 134.782C145.599 133.657 149.674 133.161 155.102 132.392C156.993 132.123 161.48 132.182 161.413 130.192C161.347 128.25 158.643 129.067 157.302 129.237C153.224 129.75 150.815 130.061 147.072 130.671C145.435 130.936 143.514 131.63 142.099 131.53C141.324 131.477 140.307 130.967 139.422 130.671C133.03 128.522 126.434 126.446 120.394 124.36C120.065 122.426 119.568 120.66 119.057 118.908C119.543 118.205 120.427 117.518 121.255 116.808C121.967 116.194 123.293 115.525 123.167 114.321C123.088 113.556 122.501 113.238 122.021 113.173C120.615 112.976 119.577 114.5 118.674 115.276C117.612 116.19 116.156 116.956 115.997 118.146C115.894 118.914 116.408 119.922 116.667 120.822C116.941 121.781 117.188 122.76 117.336 123.498C118.565 129.64 117.65 135.499 113.225 138.32C111.932 139.145 110.061 139.659 108.348 140.042C106.959 140.349 105.227 140.245 103.853 140.808C102.984 141.162 102.26 142.618 101.56 143.484C99.865 145.58 98.8026 146.998 97.1611 149.029C96.6936 149.605 95.609 150.484 95.3211 151.457H98.7368C98.8178 151.343 98.8974 151.233 98.9779 151.133C100.513 149.177 101.661 147.794 103.089 145.97C103.708 145.177 104.609 143.797 105.287 143.484C106.218 143.053 107.434 143.104 108.348 142.908C109.393 142.687 110.431 142.418 111.312 142.146C117.225 140.314 120.985 135.355 120.682 127.517C125.998 129.244 131.349 130.938 136.552 132.775C132.093 133.638 129.748 136.224 127.66 139.562C126.527 141.376 125.07 143.784 124.698 145.777C124.419 147.263 124.672 149.843 124.887 151.608C125.092 153.27 125.401 154.864 126.131 156.105C128.593 160.289 136.366 162.792 140.474 158.588C141.962 157.068 142.336 155.016 143.532 152.757C143.71 155.877 143.033 159.92 145.445 160.596C147.31 161.12 149.198 159.809 150.227 158.782C152.28 156.726 151.589 152.322 153.477 150.653C158.705 151.339 164.233 151.557 169.635 151.802C175.986 152.092 179.876 150.56 182.733 147.498C185.618 144.405 187.748 139.697 185.891 134.779ZM42.8542 139.56C45.3671 136.752 48.3154 134.376 50.9811 131.721C51.7883 135.214 51.9885 139.318 52.6057 143.001C49.3156 141.894 46.2052 140.608 42.8542 139.56ZM42.7584 98.255C42.6768 98.2375 42.6686 98.293 42.6632 98.3518C42.5238 98.3072 42.6719 98.2658 42.6632 98.1586C44.5082 91.8442 49.1846 89.654 54.6146 86.5921C56.9685 85.2608 59.9069 84.0918 62.7413 82.957C65.7005 81.7738 68.0903 80.6118 69.7214 78.1774C71.3182 75.7941 71.9028 72.6695 72.4944 69.19C73.6683 62.2894 74.4379 55.6511 76.1273 49.3019C76.9431 46.2361 78.1394 43.7358 79.7602 41.2703C82.9294 36.4526 86.6195 32.2247 92.572 30.5626C99.3502 28.6691 106.884 31.0867 112.078 33.4314C114.878 34.6935 117.294 36.0384 119.536 37.7321C121.729 39.391 123.479 41.4085 125.369 43.6607C128.923 47.8988 132.58 52.4373 132.253 60.2033C132.065 60.3067 131.528 59.7004 131.2 59.3412C130.43 58.4933 129.06 56.1029 127.662 56.0893C126.031 56.0752 125.474 57.986 124.22 58.6718C123.382 58.127 122.515 57.3476 121.544 56.5683C120.749 55.9304 119.737 54.7679 118.771 54.6579C116.973 54.444 115.895 56.3337 114.277 56.8545C113.436 56.1579 112.545 55.2201 111.6 54.1784C110.85 53.3539 109.96 51.7124 108.827 51.5948C106.97 51.4087 106.072 53.6815 104.525 54.2748C103.468 53.4089 102.74 52.4161 101.656 51.3091C100.916 50.5536 99.6762 48.6569 98.5006 48.633C97.2004 48.6052 96.0035 50.6919 95.2497 51.5954C94.1824 52.8749 93.2115 53.9096 92.4768 55.0373C90.7509 57.6927 89.1389 60.538 87.6955 62.3999C87.4027 60.6893 86.983 58.5134 86.5487 56.0893C86.202 54.1474 86.3452 50.699 84.3505 50.8296C82.3673 50.9608 83.3725 53.5057 83.49 55.1335C80.0895 53.9645 76.6874 57.4505 76.4152 60.3922C76.2362 62.3238 76.9535 64.024 77.6567 65.2687C78.7811 67.2552 80.919 68.5309 82.247 70.3352C83.3954 71.8972 83.8917 73.7384 84.8283 75.2111C83.766 78.5496 82.6002 81.9915 81.2896 85.3468C80.6229 87.0612 80.126 88.5198 78.6141 89.3645C76.2346 90.6887 72.5493 90.8024 68.9562 90.8922C65.3967 90.982 61.569 91.1818 58.5343 91.658C51.5934 92.7443 46.8311 95.1892 42.7584 98.255ZM130.817 99.0207C124.453 96.0649 117.997 92.1375 108.827 92.1375C105.832 92.1375 101.757 92.9234 99.4573 91.658C99.7333 89.223 100.652 87.4368 101.275 85.3463C106.656 85.4981 111.974 84.4015 115.328 80.8529C117 79.0836 118.747 76.0694 119.44 72.6314C119.766 71.0106 120.471 68.1451 118.483 68.138C116.633 68.1277 116.671 72.7282 116.188 74.066C115.5 75.9802 114.165 78.0076 113.034 79.1325C110.866 81.2878 106.309 82.8672 102.229 82.5744C99.0878 82.3502 96.8287 80.8464 94.963 78.9431C94.2908 78.2536 93.6284 77.3289 92.9546 77.3153C92.3009 77.3011 91.6021 77.7087 91.5215 78.5605C91.3909 79.919 93.4613 81.5713 94.2929 82.2881C95.5806 83.3989 97.1204 83.9813 98.5006 84.5816C98.0745 85.8263 97.7467 86.9992 97.3538 88.313C96.9968 89.4995 96.2914 90.8204 96.588 92.3275C96.8841 93.8345 99.0399 94.9998 100.795 95.1968C104.118 95.5696 108.078 94.8109 111.791 95.1004C115.438 95.3829 118.255 96.5313 120.683 97.3934C114.169 104.629 100.985 107.902 86.4535 106.86C73.3076 105.919 61.0634 102.215 54.1366 95.5794C58.292 94.1208 63.6274 93.9483 69.052 93.7621C74.513 93.5722 80.1118 93.134 82.4379 89.7444C83.7915 87.7747 84.5627 84.9816 85.402 82.5749C85.7819 81.4853 86.1955 80.1231 86.645 78.7505C87.0385 77.5471 87.8022 76.1157 87.695 74.8291C87.6106 73.7809 86.7311 72.7152 86.1656 71.6741C85.6224 70.6737 85.1119 69.546 84.5409 68.7117C83.2598 66.8389 81.2803 65.7351 80.2391 64.1214C78.6319 61.6385 79.3254 58.5999 81.8632 57.6208C83.0116 58.066 84.4256 58.2451 84.35 59.9143C83.8019 60.1179 83.0568 58.9695 82.0543 59.1491C81.6271 59.2285 81.2455 59.5491 81.1944 60.1075C81.0273 61.9357 84.0359 62.2285 84.9241 63.453C85.5413 64.9633 84.9687 67.7571 86.8361 67.8529C87.9192 67.9084 88.6588 66.4083 89.3211 65.3666C90.0695 64.1872 90.6764 63.1836 91.2332 62.3047C93.4146 58.8769 95.8772 54.635 98.5958 52.2659C99.4301 53.0279 100.241 54.1038 101.274 55.1352C102.036 55.901 103.196 57.5833 104.236 57.6214C106.014 57.6872 106.945 55.4384 108.444 54.8489C109.211 55.6386 110.008 56.5802 110.93 57.6214C111.625 58.4045 112.686 59.9976 113.703 60.108C115.462 60.2974 116.731 58.2494 118.291 57.7182C119.658 58.4219 120.793 59.3602 120.395 61.829C116.163 59.1632 112.53 62.2329 110.261 65.1746C108.24 67.7952 106.905 71.6718 108.061 75.1202C107.178 75.6308 105.79 75.4582 105.766 76.9337C105.721 79.7377 110.897 77.4927 111.216 76.2648C111.465 75.3097 110.569 74.1885 110.45 73.1093C110.204 70.8337 111.29 68.5577 112.364 67.0882C113.266 65.85 114.782 63.7775 116.762 63.6463C118.983 63.4977 120.039 65.9017 121.829 65.6535C123.264 65.4538 123.021 63.5287 123.264 61.829C123.56 61.5977 124.055 61.9776 124.507 61.9253C125.64 61.7909 126.309 60.1565 127.088 60.0112C126.647 63.7018 126.15 67.1709 125.845 71.0057C125.545 74.7649 125.101 78.8027 126.419 82.0965C127.764 85.4622 131.234 87.8074 131.582 91.756C131.833 94.5856 131.1 96.7479 130.817 99.0207Z" fill="#222222"/>
<path fill-rule="evenodd" clip-rule="evenodd" d="M99.3606 58.8606C101.291 58.6467 102.583 59.4817 104.237 60.4885C105.242 61.0986 106.837 61.8611 106.82 62.9752C106.812 63.4509 106.423 64.1922 105.766 64.313C104.649 64.5198 103.697 63.4574 102.899 62.9752C102.071 62.468 101.034 61.6919 100.031 61.6336C98.0925 61.5264 97.0775 63.5995 95.3462 63.2615C94.9636 63.1858 94.3017 62.7238 94.293 61.9237C94.2821 60.6578 95.8099 60.2169 96.3966 59.9132C97.4502 59.375 97.9521 59.0195 99.3606 58.8606Z" fill="#222222"/>
<path fill-rule="evenodd" clip-rule="evenodd" d="M97.0682 72.5347C98.6961 72.3137 98.5992 74.2524 99.7443 75.5009C100.339 76.1491 102.16 76.7767 102.326 77.6045C102.777 79.8283 100.293 79.3597 99.1701 78.6527C98.5975 78.2946 97.9874 77.8151 97.5466 77.3149C96.8646 76.5421 94.5004 72.8863 97.0682 72.5347Z" fill="#222222"/>
<path d="M31.6436 159.35C31.3617 159.35 31.0803 159.269 30.8343 159.101C29.5945 158.253 28.7917 156.913 28.5196 155.226C28.0406 152.241 29.2772 148.377 31.753 145.13C35.5824 140.11 41.0555 137.941 44.4832 140.071C45.1564 140.488 45.3638 141.372 44.9431 142.045C44.5223 142.719 43.6384 142.929 42.9684 142.505C41.1299 141.366 37.1063 142.842 34.0312 146.872C32.0502 149.471 30.9986 152.572 31.3513 154.766C31.4966 155.673 31.8694 156.333 32.4518 156.731C33.106 157.178 33.2742 158.071 32.8274 158.725C32.5498 159.133 32.1002 159.35 31.6436 159.35Z" fill="#222222"/>
<path fill-rule="evenodd" clip-rule="evenodd" d="M174.277 149.588C177.281 147.415 177.146 140.645 171.897 135.114C166.986 129.937 160.968 130.289 157.729 130.754L174.277 149.588Z" fill="white"/>
<path d="M174.278 151.021C173.834 151.021 173.398 150.814 173.116 150.429C172.65 149.785 172.795 148.888 173.436 148.426C174.184 147.885 174.663 146.85 174.789 145.51C175.006 143.192 174.087 139.502 170.857 136.1C167.607 132.676 163.376 131.391 157.932 132.177C157.175 132.297 156.424 131.746 156.307 130.96C156.197 130.177 156.741 129.449 157.524 129.335C163.855 128.416 169.053 130.031 172.938 134.126C176.243 137.609 178 141.962 177.644 145.778C177.444 147.954 176.547 149.718 175.119 150.75C174.864 150.934 174.569 151.021 174.278 151.021Z" fill="#222222"/>
<path fill-rule="evenodd" clip-rule="evenodd" d="M101.895 64.493C102.628 64.9654 102.84 65.9412 102.368 66.676L101.178 68.5243C100.707 69.259 99.7293 69.4691 98.9968 68.9967C98.2642 68.5243 98.0536 67.5479 98.5244 66.817L99.7158 64.9681C100.187 64.2339 101.162 64.0238 101.895 64.493Z" fill="#222222"/>
<path fill-rule="evenodd" clip-rule="evenodd" d="M114.129 66.2752C114.843 66.7754 115.015 67.7616 114.514 68.4718L113.25 70.2717C112.75 70.9852 111.765 71.1583 111.051 70.6581C110.339 70.1541 110.167 69.1717 110.667 68.4577L111.931 66.6611C112.433 65.9481 113.417 65.7756 114.129 66.2752Z" fill="#222222"/>
<path fill-rule="evenodd" clip-rule="evenodd" d="M251.027 287.795H367.212C369.14 287.795 370.701 289.358 370.701 291.285V292.434C370.701 294.361 369.14 295.924 367.212 295.924H251.027C249.101 295.924 247.537 294.362 247.537 292.434V291.285C247.537 289.358 249.101 287.795 251.027 287.795Z" fill="white"/>
<path d="M367.213 297.119H251.027C248.444 297.119 246.343 295.018 246.343 292.435V291.286C246.343 288.703 248.444 286.602 251.027 286.602H367.213C369.796 286.602 371.896 288.703 371.896 291.286V292.435C371.896 295.019 369.796 297.119 367.213 297.119ZM251.027 288.992C249.761 288.992 248.731 290.021 248.731 291.287V292.436C248.731 293.702 249.761 294.731 251.027 294.731H367.213C368.478 294.731 369.508 293.702 369.508 292.436V291.287C369.508 290.021 368.478 288.992 367.213 288.992H251.027Z" fill="#222222"/>
<path fill-rule="evenodd" clip-rule="evenodd" d="M368.424 288.275L307.304 287.795V296.083L368.477 296.627L370.034 292.175L368.424 288.275Z" fill="#222222"/>
<path d="M82.5413 289.167L92.9166 307.722H72.1641L82.5413 289.167Z" fill="#222222"/>
<path fill-rule="evenodd" clip-rule="evenodd" d="M39.2978 324.358H412.815C414.2 324.358 415.322 325.482 415.322 326.865V329.444C415.322 330.831 414.2 331.951 412.815 331.951H39.2978C37.9132 331.951 36.791 330.831 36.791 329.444V326.865C36.791 325.482 37.9132 324.358 39.2978 324.358Z" fill="#222222"/>
<path fill-rule="evenodd" clip-rule="evenodd" d="M302.615 297.52C300.77 297.52 299.269 296.022 299.269 294.177V287.577C299.269 285.732 300.77 284.23 302.615 284.23H309.212C311.057 284.23 312.559 285.731 312.559 287.577V294.177C312.559 296.022 311.057 297.52 309.212 297.52H302.615Z" fill="#B8BBFD"/>
<path d="M309.21 285.664C310.265 285.664 311.123 286.523 311.123 287.579V294.176C311.123 295.23 310.264 296.087 309.21 296.087H302.615C301.56 296.087 300.702 295.23 300.702 294.176V287.579C300.702 286.523 301.56 285.664 302.615 285.664H309.21ZM309.21 282.795H302.615C299.975 282.795 297.833 284.937 297.833 287.579V294.176C297.833 296.817 299.975 298.955 302.615 298.955H309.21C311.85 298.955 313.991 296.817 313.991 294.176V287.579C313.992 284.937 311.85 282.795 309.21 282.795Z" fill="#222222"/>
<path fill-rule="evenodd" clip-rule="evenodd" d="M173.354 314.667H278.503C279.031 314.667 279.458 315.098 279.458 315.626V318.426C279.458 321.065 277.319 323.206 274.677 323.206H177.179C174.54 323.206 172.399 321.064 172.399 318.426V315.626C172.398 315.098 172.826 314.667 173.354 314.667Z" fill="white"/>
<path d="M274.677 324.638H177.177C173.753 324.638 170.966 321.851 170.966 318.427V315.627C170.966 314.306 172.037 313.232 173.355 313.232H278.503C279.821 313.232 280.892 314.306 280.892 315.627V318.427C280.892 321.851 278.106 324.638 274.677 324.638ZM173.834 316.1V318.427C173.834 320.272 175.333 321.771 177.178 321.771H274.678C276.523 321.771 278.025 320.272 278.025 318.427V316.1H173.834Z" fill="#222222"/>
<path fill-rule="evenodd" clip-rule="evenodd" d="M227.927 261.155H158.305C155.357 261.155 151.497 265.445 152.322 268.207L164.991 310.729C165.815 313.491 168.872 315.733 171.821 315.733H241.442C244.39 315.733 248.248 311.422 247.425 308.66L234.757 266.155C233.932 263.393 230.875 261.155 227.927 261.155Z" fill="white"/>
<path d="M241.442 317.168H171.821C168.228 317.168 164.622 314.52 163.616 311.138L150.947 268.618C150.481 267.049 150.986 265.113 152.336 263.301C153.566 261.65 155.867 259.721 158.305 259.721H227.925C231.522 259.721 235.124 262.369 236.13 265.747L248.8 308.247C249.265 309.823 248.758 311.769 247.398 313.591C246.168 315.242 243.87 317.168 241.442 317.168ZM158.305 262.589C157.227 262.589 155.682 263.608 154.634 265.016C153.857 266.062 153.498 267.126 153.698 267.797L166.367 310.319C167.008 312.478 169.507 314.3 171.821 314.3H241.442C242.513 314.3 244.051 313.28 245.096 311.875C245.873 310.836 246.245 309.733 246.048 309.066L233.379 266.566C232.738 264.41 230.239 262.588 227.925 262.588L158.305 262.589Z" fill="#222222"/>
<path fill-rule="evenodd" clip-rule="evenodd" d="M193.069 283.62C196.952 283.575 201.147 286.961 202.437 291.179C203.727 295.397 201.623 298.852 197.74 298.894C193.855 298.935 189.66 295.548 188.37 291.331C187.08 287.113 189.184 283.661 193.069 283.62Z" fill="white"/>
<path d="M197.667 300.327C193.145 300.327 188.474 296.579 186.998 291.749C186.196 289.124 186.503 286.564 187.846 284.725C189.028 283.11 190.876 282.207 193.052 282.184C197.661 282.184 202.332 285.932 203.811 290.758C204.613 293.39 204.303 295.95 202.96 297.785C201.779 299.401 199.931 300.303 197.755 300.326C197.725 300.327 197.696 300.327 197.667 300.327ZM193.084 285.052C191.815 285.065 190.805 285.538 190.161 286.422C189.358 287.519 189.207 289.157 189.744 290.911C190.831 294.475 194.45 297.459 197.668 297.459C198.992 297.446 200.001 296.974 200.646 296.093C201.451 294.993 201.604 293.354 201.066 291.598C199.969 288.017 196.334 284.913 193.084 285.052Z" fill="#222222"/>
<path fill-rule="evenodd" clip-rule="evenodd" d="M121.476 286.644L130.991 296.155L121.476 305.67L111.961 296.155L121.476 286.644Z" fill="#222222"/>
<path fill-rule="evenodd" clip-rule="evenodd" d="M248.237 57.2852L257.745 66.8134L255.587 68.9758L246.08 59.4469L248.237 57.2852Z" fill="#222222"/>
<path fill-rule="evenodd" clip-rule="evenodd" d="M255.586 57.3506L257.744 59.5129L248.236 69.045L246.079 66.8826L255.586 57.3506Z" fill="#222222"/>
<path fill-rule="evenodd" clip-rule="evenodd" d="M16.2183 323.206H430.998C434.698 323.206 437.697 326.207 437.697 329.907C437.697 333.604 434.698 336.605 430.998 336.605H16.2183C12.5195 336.605 9.51953 333.604 9.51953 329.907C9.51953 326.206 12.5195 323.206 16.2183 323.206Z" fill="white"/>
<path d="M430.997 338H16.2203C11.7568 338 8.125 334.372 8.125 329.908C8.125 325.441 11.7568 321.809 16.2203 321.809H430.997C435.461 321.809 439.093 325.441 439.093 329.908C439.093 334.372 435.461 338 430.997 338ZM16.2197 324.6C13.2938 324.6 10.9143 326.982 10.9143 329.908C10.9143 332.831 13.2933 335.21 16.2197 335.21H430.997C433.923 335.21 436.302 332.831 436.302 329.908C436.302 326.982 433.923 324.6 430.997 324.6H16.2197Z" fill="#222222"/>
</svg>
