<svg width="200" height="160" viewBox="0 0 200 160" fill="none" xmlns="http://www.w3.org/2000/svg">
<rect width="200" height="160" />
<path d="M60.1172 51.0207V43.3969C60.1172 38.5458 64.2729 34.6133 69.3991 34.6133H127.618C132.744 34.6133 136.899 38.5458 136.899 43.3969V51.0207" fill="#F44817"/>
<path d="M60.1172 51.0207V43.3969C60.1172 38.5458 64.2729 34.6133 69.3991 34.6133H127.618C132.744 34.6133 136.899 38.5458 136.899 43.3969V51.0207" stroke="#222222" stroke-width="1.69497" stroke-miterlimit="10" stroke-linecap="round" stroke-linejoin="round"/>
<path d="M136.899 51.0205V119.687C136.899 124.538 132.744 128.471 127.617 128.471H69.3991C64.2729 128.471 60.1172 124.538 60.1172 119.687V51.0205" fill="white"/>
<path d="M136.899 51.0205V119.687C136.899 124.538 132.744 128.471 127.617 128.471H69.3991C64.2729 128.471 60.1172 124.538 60.1172 119.687V51.0205" stroke="#222222" stroke-width="1.69497" stroke-miterlimit="10" stroke-linecap="round" stroke-linejoin="round"/>
<path d="M60.5938 51.0205H136.899" stroke="#222222" stroke-width="1.69497" stroke-miterlimit="10" stroke-linecap="round" stroke-linejoin="round"/>
<path d="M75.1084 60.3296H119.985" stroke="#222222" stroke-width="1.69497" stroke-miterlimit="10" stroke-linecap="round" stroke-linejoin="round"/>
<path d="M110.471 69.8574H84.623V87.2382H110.471V69.8574Z" fill="white" stroke="#222222" stroke-width="1.69497" stroke-miterlimit="10" stroke-linecap="round" stroke-linejoin="round"/>
<path d="M91.0361 79.6836V87.2379" stroke="#222222" stroke-width="1.69497" stroke-miterlimit="10" stroke-linecap="round" stroke-linejoin="round"/>
<path d="M97.7783 77.3389V87.2376" stroke="#222222" stroke-width="1.69497" stroke-miterlimit="10" stroke-linecap="round" stroke-linejoin="round"/>
<path d="M104.521 75.7754V87.2372" stroke="#222222" stroke-width="1.69497" stroke-miterlimit="10" stroke-linecap="round" stroke-linejoin="round"/>
<path d="M78.1467 132.228H46.641C45.7346 132.228 45 131.494 45 130.589V88.8279C45 87.9226 45.7348 87.1885 46.641 87.1885H78.1467C79.0531 87.1885 79.7877 87.9224 79.7877 88.8279V130.589C79.7877 131.494 79.0531 132.228 78.1467 132.228Z" fill="#B8BBFD" stroke="#222222" stroke-width="1.69497" stroke-miterlimit="10" stroke-linecap="round" stroke-linejoin="round"/>
<path d="M75.0814 91.5371H49.543V99.8053H75.0814V91.5371Z" fill="white" stroke="#222222" stroke-width="1.69497" stroke-miterlimit="10" stroke-linecap="round" stroke-linejoin="round"/>
<path d="M55.2017 105.623H50.5859V111.146H55.2017V105.623Z" fill="white" stroke="#222222" stroke-width="1.69497" stroke-miterlimit="10" stroke-linecap="round" stroke-linejoin="round"/>
<path d="M64.6206 105.623H60.0049V111.146H64.6206V105.623Z" fill="white" stroke="#222222" stroke-width="1.69497" stroke-miterlimit="10" stroke-linecap="round" stroke-linejoin="round"/>
<path d="M74.0386 105.623H69.4229V111.146H74.0386V105.623Z" fill="white" stroke="#222222" stroke-width="1.69497" stroke-miterlimit="10" stroke-linecap="round" stroke-linejoin="round"/>
<path d="M55.2017 115.852H50.5859V128.127H55.2017V115.852Z" fill="white" stroke="#222222" stroke-width="1.69497" stroke-miterlimit="10" stroke-linecap="round" stroke-linejoin="round"/>
<path d="M64.6206 115.852H60.0049V128.127H64.6206V115.852Z" fill="white" stroke="#222222" stroke-width="1.69497" stroke-miterlimit="10" stroke-linecap="round" stroke-linejoin="round"/>
<path d="M74.0386 115.852H69.4229V128.127H74.0386V115.852Z" fill="white" stroke="#222222" stroke-width="1.69497" stroke-miterlimit="10" stroke-linecap="round" stroke-linejoin="round"/>
<path d="M143.812 62.1506L144.56 60.6488C145.721 58.3076 148.923 57.4913 151.678 58.8349C154.432 60.1785 155.737 63.1935 154.576 65.5346L154.45 65.7892L153.831 67.038" fill="white"/>
<path d="M143.812 62.1506L144.56 60.6488C145.721 58.3076 148.923 57.4913 151.678 58.8349C154.432 60.1785 155.737 63.1935 154.576 65.5346L154.45 65.7892L153.831 67.038" stroke="#222222" stroke-width="1.69497" stroke-miterlimit="10" stroke-linecap="round" stroke-linejoin="round"/>
<path d="M124.212 102.06C124.081 102.325 123.981 102.604 123.915 102.884L121.547 119.504C121.473 119.823 121.69 119.93 121.899 119.677L133.735 107.719C133.918 107.497 134.079 107.248 134.21 106.983" fill="white"/>
<path d="M124.212 102.06C124.081 102.325 123.981 102.604 123.915 102.884L121.547 119.504C121.473 119.823 121.69 119.93 121.899 119.677L133.735 107.719C133.918 107.497 134.079 107.248 134.21 106.983" stroke="#222222" stroke-width="1.69497" stroke-miterlimit="10" stroke-linecap="round" stroke-linejoin="round"/>
<path d="M141.999 67.8032L150.289 71.8921" stroke="#222222" stroke-width="1.69497" stroke-miterlimit="10" stroke-linecap="round" stroke-linejoin="round"/>
<path d="M123.271 110.798L127.884 113.048" stroke="#222222" stroke-width="1.69497" stroke-miterlimit="10" stroke-linecap="round" stroke-linejoin="round"/>
<path d="M134.21 106.983L153.83 67.038L143.811 62.1504L124.212 102.06" fill="#B8BBFD"/>
<path d="M134.21 106.983L153.83 67.038L143.811 62.1504L124.212 102.06" stroke="#222222" stroke-width="1.69497" stroke-miterlimit="10" stroke-linecap="round" stroke-linejoin="round"/>
<path d="M124.858 102.758L133.319 106.885" stroke="#222222" stroke-width="1.69497" stroke-miterlimit="10" stroke-linecap="round" stroke-linejoin="round"/>
<path d="M83.7097 41.3195H77.9565C76.6755 41.3195 75.6367 40.281 75.6367 38.9997V30.0918C75.6367 28.8105 76.6752 27.772 77.9565 27.772H83.7097C84.9907 27.772 86.0295 28.8105 86.0295 30.0918V38.9997C86.0295 40.281 84.9907 41.3195 83.7097 41.3195Z" fill="white" stroke="#222222" stroke-width="1.69497" stroke-miterlimit="10" stroke-linecap="round" stroke-linejoin="round"/>
<path d="M119.06 41.3195H113.307C112.026 41.3195 110.987 40.281 110.987 38.9997V30.0918C110.987 28.8105 112.026 27.772 113.307 27.772H119.06C120.341 27.772 121.38 28.8105 121.38 30.0918V38.9997C121.38 40.281 120.342 41.3195 119.06 41.3195Z" fill="white" stroke="#222222" stroke-width="1.69497" stroke-miterlimit="10" stroke-linecap="round" stroke-linejoin="round"/>
<path d="M116.275 100.946H86.9531" stroke="#222222" stroke-width="1.69497" stroke-miterlimit="10" stroke-linecap="round" stroke-linejoin="round"/>
<path d="M116.275 111.146H86.9531" stroke="#222222" stroke-width="1.69497" stroke-miterlimit="10" stroke-linecap="round" stroke-linejoin="round"/>
</svg>
