<svg width="117" height="140" viewBox="0 0 117 140" fill="none" xmlns="http://www.w3.org/2000/svg">
<path d="M22.5551 97.9748C30.5029 101.82 38.634 103.943 47.2546 104.663C54.5612 105.274 62.3716 105.009 69.5395 103.293C76.7075 101.578 83.8582 97.4675 88.6562 91.204C93.4544 84.9406 97.6247 73.6708 95.4578 65.7537C96.2053 73.8337 90.8897 84.2896 85.4824 89.6363C80.0751 94.983 72.9533 97.7479 65.8115 98.6043C58.6698 99.4605 51.4546 98.5281 44.3681 97.2089C36.7499 95.7907 29.1969 93.9242 21.7499 91.6197C18.6512 90.6608 15.4935 89.6223 12.6991 87.7825C11.1533 86.7648 7.9131 82.1346 6.4834 83.4831C9.69707 90.1455 16.5485 95.0688 22.5551 97.9748Z" fill="#EDEFFF"/>
<path d="M30.799 66.2018C20.5845 65.3867 11.4997 64.136 1.74094 62.2798C0.803232 62.1011 -0.0433181 62.948 0.00171938 64.0261C0.252505 69.9809 1.10602 74.0872 2.84524 77.7398C3.76392 79.7215 4.9635 81.6278 6.73091 83.9152C7.12078 84.4243 7.52994 84.9329 7.95773 85.4492L8.0355 85.547C8.12201 85.6587 8.21347 85.774 8.27466 85.8406C8.52353 86.1448 8.78211 86.4604 9.0407 86.7639C9.9769 87.8834 11.2668 89.0991 12.7698 90.277C14.8579 91.9232 17.3533 93.504 19.984 94.8468C22.982 96.3831 26.0228 97.5592 29.0247 98.3415C40.122 101.226 59.7734 102.29 72.4741 100.23C72.686 100.196 72.8814 100.113 73.0515 99.9921C78.4158 99.0607 83.4077 96.5528 87.16 92.7709C97.6361 82.1927 97.8838 65.5149 98.8274 49.8641C98.877 48.9326 98.251 48.132 97.4276 48.076C96.6052 48.0249 95.8964 48.7292 95.8469 49.6595C94.9739 64.1836 94.843 80.4878 85.1719 90.2494C80.3549 95.1046 73.1983 97.5942 66.0064 96.9076C62.7594 96.6112 59.6904 95.6847 56.8848 94.1544C49.0873 89.8997 47.5865 81.8966 47.6915 70.3459C47.6915 69.8314 47.7012 69.3171 47.7109 68.7673V68.6139C47.7109 67.6891 47.0527 66.9357 46.2352 66.9247C42.2586 66.8708 38.1346 66.7012 33.9579 66.4326C36.2551 60.1076 37.0207 53.777 37.659 43.7591C38.9394 24.1408 34.9964 28.29 38.1539 3.50135C41.8095 3.25467 43.7989 3.44264 47.8548 3.52007C57.4475 3.73191 56.1254 3.35749 73.6347 3.94346C97.166 4.73029 96.8672 3.80902 98.4978 3.73005C98.6173 4.47351 98.3967 6.15602 98.3063 6.83831C98.2362 7.37117 98.1788 7.83249 98.1624 8.15134C97.9914 11.3121 97.9049 12.9201 96.3698 40.3186C96.3184 41.2495 96.9443 42.0518 97.7668 42.1095C98.6066 42.1744 99.2989 41.4591 99.3504 40.5287L99.4184 39.2987C99.4774 38.222 101.119 8.40903 101.261 7.33604C101.56 5.05749 101.971 1.93652 100.073 0.725707C99.1706 0.144534 97.9117 0.366603 96.7996 0.565748C96.5304 0.613598 96.2912 0.660824 96.1007 0.672438C90.3136 1.12431 79.0507 0.744116 73.7233 0.566806C56.6432 -0.00585035 54.699 0.363048 45.0901 0.0686667C42.2942 -0.0149554 40.276 -0.0765916 36.7365 0.223674C36.0385 0.282519 35.4708 0.88182 35.3706 1.66539C31.9178 28.6231 35.9338 24.329 34.6804 43.5133C34.0295 53.731 33.2579 59.9263 30.799 66.2018Z" fill="#4F54C8"/>
<path d="M91.0719 16.8089C90.7181 15.9664 89.8257 15.6118 89.0819 16.0111C85.067 18.1764 80.4728 18.7449 76.139 17.6099C75.7268 17.5022 75.3127 17.3795 74.8976 17.2569C69.882 15.7749 68.227 16.2754 64.6407 19.3276C64.2217 19.6839 63.8036 20.0413 63.3721 20.3662C58.5085 24.0293 51.1603 22.9075 47.3291 17.9167C46.7875 17.2129 45.8427 17.137 45.2225 17.7495C44.5993 18.3609 44.5332 19.4281 45.0738 20.1325C47.9825 23.9194 52.3657 25.9263 56.7374 25.9263C59.6528 25.9263 62.5643 25.0328 65.0267 23.1782C66.6625 21.949 68.021 20.4148 69.5695 19.9736C71.3165 19.4764 73.3491 20.3475 75.4664 20.9012C80.4545 22.2082 85.7477 21.5533 90.3672 19.0603C91.1118 18.6585 91.4277 17.6506 91.0719 16.8089Z" fill="#4F54C8"/>
<path d="M56.4582 58.1546L57.549 35.9115C57.5947 34.9801 56.9637 34.1833 56.1403 34.1316L51.8396 33.8617C50.9792 33.7947 50.3124 34.5237 50.2658 35.4546L49.1741 57.6976C49.1527 58.1447 49.2888 58.5833 49.5521 58.9177C49.8166 59.2514 50.1869 59.4527 50.5827 59.4775L54.8843 59.7474C55.7188 59.7981 56.4122 59.075 56.4582 58.1546Z" fill="#4F54C8"/>
<path d="M63.7897 60.3935L68.0914 60.6634C68.9296 60.7125 69.6197 59.9895 69.6652 59.0706L70.3817 44.4738C70.4031 44.0267 70.267 43.588 70.0037 43.2536C69.7393 42.9199 69.3689 42.7186 68.9731 42.6938L64.6714 42.4239C63.8111 42.3683 63.1443 43.0866 63.0976 44.0169L62.3811 58.6138C62.3597 59.0609 62.4958 59.4996 62.7593 59.8339C63.0237 60.1676 63.3941 60.3689 63.7897 60.3935Z" fill="#4F54C8"/>
<path d="M82.5725 59.794L83.6633 37.5514C83.709 36.62 83.0781 35.8233 82.2547 35.7715L77.9539 35.5016C77.1062 35.4406 76.4268 36.1636 76.3801 37.0945L75.2884 59.337C75.2439 60.2669 75.8715 61.0652 76.697 61.1169L80.9987 61.3869C81.8332 61.4375 82.5265 60.7143 82.5725 59.794Z" fill="#4F54C8"/>
<path d="M56.9845 79.8288C58.2959 80.8532 59.7598 81.3794 61.1549 81.3794C62.9171 81.3794 63.961 80.6723 65.1814 79.5995C66.4236 78.5082 66.5736 78.4252 68.4429 79.1183C71.5005 80.2579 74.3322 80.0876 76.8839 78.812C77.6383 78.4354 77.9804 77.438 77.6471 76.5846C77.3146 75.7322 76.4309 75.3453 75.6786 75.7219C73.9268 76.5966 71.8668 76.7501 70.0296 76.1436C69.8127 76.072 69.594 75.9901 69.3754 75.9088C66.6545 74.899 65.4696 75.0672 63.3501 76.931C63.0147 77.2251 62.6978 77.5033 62.3994 77.6794C61.2503 78.3541 59.7056 77.8493 58.6819 77.0487C57.3598 76.0166 56.3585 74.3798 55.3893 72.7962C54.9197 72.0292 53.9875 71.8389 53.3118 72.369C52.6332 72.9001 52.4642 73.9525 52.9337 74.7195C54.003 76.4664 55.2151 78.4466 56.9845 79.8288Z" fill="#4F54C8"/>
<path d="M57.1684 130.121C56.3508 130.001 55.6052 130.667 55.5051 131.593C55.406 132.52 55.9882 133.361 56.8068 133.474C58.7793 133.746 60.7594 133.88 62.7397 133.88C92.1037 133.88 114.727 106.194 113.42 74.0804C113.382 73.1483 112.681 72.4391 111.859 72.4705C111.036 72.5134 110.399 73.3034 110.437 74.2355C111.782 107.328 86.3867 134.147 57.1684 130.121Z" fill="#4F54C8"/>
<path d="M91.0831 135.908C90.3298 136.288 89.9914 137.286 90.3268 138.139C90.6631 138.992 91.5456 139.374 92.2983 138.994C102.506 133.85 111.18 124.389 116.095 113.038C116.459 112.2 116.152 111.188 115.412 110.778C114.67 110.367 113.777 110.714 113.414 111.552C108.8 122.204 100.662 131.081 91.0831 135.908Z" fill="#4F54C8"/>
</svg>
