<svg width="200" height="160" viewBox="0 0 200 160" fill="none" xmlns="http://www.w3.org/2000/svg">
<rect width="200" height="160" />
<path d="M94.4727 119.206L105.226 91.0732L116.773 119.206" stroke="#222222" stroke-width="1.88568" stroke-miterlimit="10" stroke-linecap="round" stroke-linejoin="round"/>
<path d="M126.105 32.9214H85.3848V95.4122H126.105V32.9214Z" fill="white" stroke="#222222" stroke-width="1.88568" stroke-miterlimit="10" stroke-linecap="round" stroke-linejoin="round"/>
<path d="M117.97 84.584L105.974 75.1672L101.715 60.9301L97.6787 44.4507" fill="white"/>
<path d="M117.97 84.584L105.974 75.1672L101.715 60.9301L97.6787 44.4507" stroke="#222222" stroke-width="1.88568" stroke-miterlimit="10" stroke-linecap="round" stroke-linejoin="round"/>
<path d="M62.7693 51.2467C65.5483 48.4677 65.5483 43.962 62.7693 41.183C59.9903 38.404 55.4847 38.404 52.7056 41.183C49.9266 43.962 49.9266 48.4677 52.7056 51.2467C55.4847 54.0257 59.9903 54.0257 62.7693 51.2467Z" fill="white" stroke="#222222" stroke-width="1.88568" stroke-miterlimit="10" stroke-linecap="round" stroke-linejoin="round"/>
<path d="M142.164 51.0636C144.943 48.2846 144.943 43.7789 142.164 40.9999C139.385 38.2209 134.879 38.2209 132.1 40.9999C129.321 43.7789 129.321 48.2846 132.1 51.0636C134.879 53.8426 139.385 53.8426 142.164 51.0636Z" fill="white" stroke="#222222" stroke-width="1.88568" stroke-miterlimit="10" stroke-linecap="round" stroke-linejoin="round"/>
<path d="M158.248 66.0711L151.37 57.0513C151.352 57.0276 151.333 57.0046 151.315 56.9813C149.708 54.9762 147.312 53.8262 144.742 53.8262H141.433C139.8 53.8262 138.213 54.2963 136.862 55.1739L136.793 55.2189C135.329 56.1709 133.847 57.7554 132.278 59.433C130.939 60.865 129.555 62.3458 128.335 63.2696C127.947 63.5636 127.419 63.6029 126.987 63.3708L120.711 59.9892C118.926 59.0276 116.699 59.6951 115.737 61.4801C114.775 63.2655 115.443 65.4924 117.228 66.4543L123.505 69.8359C126.46 71.4287 130.097 71.1482 132.77 69.123C133.054 68.9077 133.337 68.6754 133.618 68.4366V86.1041C133.618 86.1658 133.626 86.2254 133.627 86.2867L129.263 122.498C129.006 124.63 130.526 126.566 132.658 126.823C132.816 126.842 132.973 126.851 133.128 126.851C135.068 126.851 136.745 125.402 136.983 123.428L140.463 94.5546C141.042 94.6769 141.642 94.7438 142.257 94.7438C142.862 94.7438 143.453 94.6805 144.022 94.5621L146.799 123.38C146.993 125.391 148.685 126.895 150.664 126.895C150.789 126.895 150.915 126.889 151.042 126.877C153.179 126.671 154.745 124.771 154.539 122.634L150.897 84.8307V68.5424L151.617 69.4861L151.226 81.7887C151.162 83.8156 152.753 85.5106 154.78 85.575C154.819 85.5762 154.859 85.577 154.898 85.577C156.872 85.577 158.503 84.0089 158.566 82.0217L158.998 68.4143C159.025 67.5702 158.76 66.7427 158.248 66.0711Z" fill="#B8BBFD" stroke="#222222" stroke-width="1.88568" stroke-miterlimit="10" stroke-linecap="round" stroke-linejoin="round"/>
<path d="M83.5977 53.0046C82.4852 51.9159 80.7555 51.6177 79.3059 52.3882L71.0505 56.7796C70.462 57.0923 69.8053 57.2173 69.1956 57.1282C66.2708 56.7041 62.6945 55.1144 62.67 55.1032C62.654 55.096 62.6114 55.0776 62.5956 55.0705C60.9786 54.3666 59.2491 54.0099 57.4545 54.0099H55.2576C52.6882 54.0099 50.2924 55.1599 48.685 57.165C48.6664 57.1883 48.6479 57.2115 48.6303 57.235L41.7522 66.2548C41.2401 66.9264 40.9752 67.7539 41.0018 68.5978L41.4339 82.2051C41.4972 84.1926 43.1278 85.7604 45.1018 85.7604C45.1411 85.7604 45.1808 85.7597 45.2203 85.7585C47.2474 85.694 48.8381 83.999 48.7741 81.9721L48.3835 69.6696L49.1031 68.7259V85.0141L45.4611 122.818C45.2552 124.955 46.8211 126.855 48.9582 127.06C49.0851 127.073 49.2109 127.079 49.3359 127.079C51.3148 127.079 53.0072 125.574 53.2014 123.563L55.9777 94.7455C56.5477 94.864 57.1377 94.9272 57.7428 94.9272C58.3585 94.9272 58.9582 94.8604 59.5374 94.738L63.0169 123.612C63.2547 125.586 64.9326 127.035 66.8718 127.035C67.0271 127.035 67.184 127.026 67.3422 127.007C69.4737 126.75 70.9939 124.813 70.7369 122.682L66.3731 86.4704C66.3745 86.4091 66.3823 86.3495 66.3823 86.2877V64.0612C66.968 64.1949 67.5587 64.3114 68.1418 64.3962C70.2844 64.7067 72.5412 64.3044 74.499 63.2634L82.7548 58.8719C84.4932 57.9471 85.1794 55.8251 84.346 54.0636L83.5977 53.0046Z" fill="#F44817" stroke="#222222" stroke-width="1.88568" stroke-miterlimit="10" stroke-linecap="round" stroke-linejoin="round"/>
<path d="M84.6123 54.4098L97.6786 44.4507" stroke="#222222" stroke-width="1.88568" stroke-miterlimit="10" stroke-linecap="round" stroke-linejoin="round"/>
<path d="M117.97 87.7876C119.672 87.7876 121.051 86.3533 121.051 84.584C121.051 82.8147 119.672 81.3804 117.97 81.3804C116.268 81.3804 114.889 82.8147 114.889 84.584C114.889 86.3533 116.268 87.7876 117.97 87.7876Z" fill="#F44817" stroke="#222222" stroke-width="1.88568" stroke-miterlimit="10" stroke-linecap="round" stroke-linejoin="round"/>
<path d="M105.975 78.3706C107.677 78.3706 109.056 76.9363 109.056 75.167C109.056 73.3977 107.677 71.9634 105.975 71.9634C104.273 71.9634 102.894 73.3977 102.894 75.167C102.894 76.9363 104.273 78.3706 105.975 78.3706Z" fill="#B8BBFD" stroke="#222222" stroke-width="1.88568" stroke-miterlimit="10" stroke-linecap="round" stroke-linejoin="round"/>
<path d="M101.716 57.7261C103.415 57.7261 104.797 59.1634 104.797 60.9297C104.797 62.6962 103.415 64.1335 101.716 64.1335C100.016 64.1335 98.6338 62.6962 98.6338 60.9297C98.6338 59.1634 100.016 57.7261 101.716 57.7261Z" fill="#F44817" stroke="#222222" stroke-width="1.88568" stroke-miterlimit="10" stroke-linecap="round" stroke-linejoin="round"/>
<path d="M97.6789 41.2466C99.3781 41.2466 100.761 42.6839 100.761 44.4504C100.761 46.2169 99.3781 47.654 97.6789 47.654C95.9798 47.654 94.5977 46.2167 94.5977 44.4504C94.5977 42.6839 95.9798 41.2466 97.6789 41.2466Z" fill="#B8BBFD" stroke="#222222" stroke-width="1.88568" stroke-miterlimit="10" stroke-linecap="round" stroke-linejoin="round"/>
</svg>
