<svg width="247" height="247" viewBox="0 0 247 247" fill="none" xmlns="http://www.w3.org/2000/svg">
<path d="M173.824 109.602C174.048 109.624 174.238 109.665 174.455 109.72C174.664 109.919 174.865 110.097 174.863 110.414C174.86 111.06 174.48 111.524 174.021 111.925L173.926 111.924C173.7 111.91 173.288 111.862 173.152 111.674C172.952 111.395 172.919 111.071 172.968 110.741C173.06 110.121 173.343 109.939 173.824 109.602Z" fill="#222222"/>
<path d="M141.568 178.665L141.719 178.654C142.153 178.648 142.384 178.616 142.696 178.918L142.671 179.401C142.572 179.491 142.495 179.613 142.375 179.67C142.29 179.71 141.869 179.69 141.769 179.695C141.179 179.726 140.59 179.795 140.002 179.854C139.603 179.897 139.401 180.005 139.069 179.763L139.063 179.16C139.623 178.67 140.832 178.731 141.568 178.665Z" fill="#222222"/>
<path d="M150.939 178.305C151.346 178.252 151.735 178.282 152.144 178.308L152.337 178.556L152.265 179.015C152.184 179.086 152.118 179.177 152.023 179.227C151.753 179.369 150.832 179.332 150.512 179.348C149.055 179.422 147.603 179.514 146.144 179.569C145.735 179.633 145.554 179.741 145.192 179.521C145.041 179.208 145.025 179.196 145.093 178.858C145.192 178.786 145.274 178.683 145.39 178.643C146.18 178.373 147.499 178.618 148.345 178.58C149.199 178.542 150.077 178.369 150.939 178.305Z" fill="#222222"/>
<path d="M114.688 149.872C114.925 149.945 115.136 150.035 115.359 150.143C115.544 150.423 115.585 150.474 115.6 150.804C115.254 151.457 114.568 152.01 113.964 152.429C113.356 152.851 112.977 152.913 112.253 152.797C111.923 152.303 111.814 151.85 111.942 151.261C112.047 150.774 112.16 150.408 112.585 150.117C112.969 150.088 112.991 150.117 113.323 150.32L113.429 150.913C113.904 150.733 114.322 150.222 114.688 149.872Z" fill="#222222"/>
<path d="M145.716 196.905C146.006 197.153 146.213 197.207 146.586 197.275L146.776 197.308C147.641 197.48 148.422 197.366 149.292 197.382C150.942 197.413 152.938 197.658 154.544 197.299C154.667 197.271 154.79 197.226 154.917 197.223C155.307 197.213 155.623 197.306 155.909 197.574C155.937 197.977 155.911 198.021 155.715 198.378C154.091 198.485 147.001 198.922 145.932 198.291C145.608 198.1 145.428 197.834 145.322 197.491L145.716 196.905Z" fill="#222222"/>
<path d="M123.838 186.931L125.129 185.681C125.395 185.627 125.528 185.574 125.787 185.704C126.2 185.911 126.958 186.627 127.116 187.059C126.955 187.581 126.671 187.854 126.299 188.235C125.734 188.788 125.191 189.377 124.507 189.783C123.645 189.28 122.511 188.836 121.771 188.165C121.437 187.862 121.28 187.741 121.252 187.3L121.229 186.637C121.297 186.05 121.549 185.91 121.97 185.542C122.782 185.824 123.294 186.291 123.838 186.931Z" fill="#222222"/>
<path d="M152.391 173.002L153.349 173.069C153.678 173.166 153.709 173.331 153.846 173.612L153.711 173.966C153.049 174.327 151.352 174.063 150.544 174.094C146.298 174.258 142.033 174.307 137.794 174.593C137.287 174.673 136.586 174.88 136.166 174.577C136.1 174.206 136.005 174.064 136.201 173.732C137.264 173.538 138.369 173.537 139.447 173.487C141.589 173.388 143.728 173.355 145.872 173.316C148.044 173.276 150.218 173.085 152.391 173.002Z" fill="#222222"/>
<path d="M147.288 162.021C148.128 161.944 148.97 162.077 149.76 162.373C150.085 162.732 150.099 162.723 150.121 163.24C149.872 163.525 149.853 163.573 149.49 163.665C147.496 162.763 145.04 163.601 142.917 163.552L132.575 163.829C131.671 163.817 129.594 164.027 128.931 163.481C128.904 163.107 128.905 163.049 129.073 162.716C129.718 162.336 131.54 162.667 132.373 162.647C133.277 162.625 134.178 162.483 135.078 162.471C137.345 162.44 139.628 162.494 141.9 162.429C143.69 162.378 145.501 162.162 147.288 162.021Z" fill="#222222"/>
<path d="M129.758 69.05L136.709 69.0891C137.354 69.0638 138.438 68.9118 138.995 69.299C139.304 69.5134 139.266 69.5978 139.322 69.9512C139.19 70.2559 139.189 70.2262 138.877 70.3509C138.634 70.2923 138.391 70.2281 138.139 70.2187C135.655 70.1251 133.181 70.0195 130.693 70.0506C129.973 70.0595 129.243 70.0576 128.525 70.1186C128.15 70.1507 127.707 70.2665 127.338 70.2197C126.264 70.0834 124.743 70.4206 123.65 70.5294L116.564 71.5396C115.947 71.6228 115.115 71.782 114.606 71.3908C114.563 71.1276 114.553 71.0118 114.669 70.7689C115.236 70.4561 116.202 70.5371 116.867 70.4298C117.989 70.2486 119.098 69.9729 120.224 69.8137C123.367 69.3696 126.588 69.1485 129.758 69.05Z" fill="#222222"/>
<path d="M146.447 167.818C147.002 167.735 147.638 167.777 148.201 167.768C149.374 167.75 150.545 167.711 151.704 167.934C152.166 168.023 152.575 168.044 152.972 168.322C153.073 168.604 153.019 168.747 152.936 169.028C152.833 169.089 152.74 169.173 152.626 169.21C152.447 169.267 152.036 169.221 151.842 169.219C150.954 169.209 150.095 169.012 149.209 169.025C145.835 169.077 142.462 169.375 139.088 169.463L132.64 169.746L132.467 169.766L132.222 169.44C132.192 169.025 132.173 168.931 132.362 168.544C133.425 168.276 134.696 168.46 135.797 168.395C139.345 168.185 142.897 168.028 146.447 167.818Z" fill="#222222"/>
<path d="M79.9141 159.549C80.2378 159.556 80.5533 159.496 80.8085 159.742C81.0264 159.953 81.1691 160.286 81.1614 160.586C81.147 161.155 80.5104 161.648 80.1669 162.061C79.7839 162.52 79.4392 163.023 79.109 163.522C78.2874 164.763 77.427 166.029 76.7034 167.327C76.1425 168.334 75.5648 169.345 75.0636 170.383C74.538 171.471 74.2006 172.865 73.3233 173.71C73.009 173.654 72.6409 173.623 72.3813 173.422C72.0851 173.192 72.0625 172.813 72.0195 172.466C72.8985 170.22 74.2022 168.023 75.4392 165.953C76.7798 163.71 78.0083 161.385 79.9141 159.549Z" fill="#222222"/>
<path d="M140.211 62.2879C140.483 62.2312 140.512 62.2293 140.77 62.3311C140.916 62.6584 140.952 62.6745 140.864 63.0166C140.619 63.2134 140.444 63.3068 140.126 63.3367C139.658 63.3806 139.175 63.327 138.702 63.3543C136.215 63.4966 133.762 63.4966 131.276 63.5663C129.579 63.6141 127.882 63.8652 126.183 63.9462L112.792 64.7644L112.404 64.7615C112.134 64.563 112.157 64.5543 112.087 64.2226L112.208 64.0786C112.508 63.746 113.073 63.6056 113.499 63.5234C114.29 63.3704 115.148 63.3762 115.952 63.2976C119.179 62.9826 122.375 62.9638 125.611 62.8699C126.589 62.8417 127.536 62.6504 128.5 62.6068C131.737 62.4606 135.025 62.421 138.263 62.4136C138.921 62.4121 139.557 62.3504 140.211 62.2879Z" fill="#222222"/>
<path d="M139.603 54.8061L139.783 54.7714C140.268 54.6899 141.218 54.7772 141.62 55.0565C141.705 55.3583 141.701 55.3674 141.585 55.6595C141.18 55.8773 140.681 55.8216 140.23 55.8291C139.405 55.8433 138.585 55.853 137.762 55.9176C134.426 56.1798 131.073 56.3699 127.743 56.6625C124.266 56.9681 120.738 57.4365 117.242 57.329C116.821 57.3159 116.216 57.5497 115.872 57.4556C115.539 57.3644 115.163 57.4913 114.816 57.5118C114.206 57.5477 113.588 57.5473 112.977 57.5574C112.406 57.6271 111.584 57.8505 111.08 57.5892C110.991 57.2414 110.977 57.2484 111.138 56.9305C112.193 56.5026 113.393 56.5728 114.515 56.524C115.991 56.4599 117.485 56.3921 118.96 56.3019C120.952 56.1801 122.966 56.1171 124.953 55.9333C126.721 55.77 128.479 55.5056 130.254 55.3942C132.34 55.263 134.515 55.3228 136.585 55.0319L139.603 54.8061Z" fill="#222222"/>
<path d="M109.864 103.766C110.239 103.839 110.263 103.868 110.534 104.143C110.716 104.757 110.027 106.321 109.857 106.995C107.783 115.206 105.427 123.304 102.795 131.354C102.175 133.249 101.572 135.163 100.97 137.065C100.601 138.229 100.279 139.52 99.7614 140.626C99.5745 141.025 99.4319 141.069 99.0293 141.224C98.7141 140.997 98.4929 140.743 98.2449 140.445C98.1561 140.038 98.2408 139.709 98.3583 139.314C98.8513 137.655 99.6307 136.094 100.211 134.469C101.296 131.427 102.258 128.335 103.317 125.283C104.33 122.361 105.202 119.353 106.1 116.393C106.675 114.498 107.313 112.623 107.854 110.716C108.125 109.76 108.438 108.789 108.677 107.828C108.998 106.541 109.18 104.903 109.864 103.766Z" fill="#222222"/>
<path d="M159.837 47.8262C162.728 47.9473 164.752 48.5356 167.217 50.0318C167.773 50.3695 168.374 50.6997 168.871 51.1226C169.359 51.5372 169.407 51.7922 169.45 52.4032C169.128 52.9261 168.604 53.2052 168.124 53.5684C167.287 54.2028 166.474 54.8473 165.608 55.4446C164.559 56.1499 163.535 56.9975 162.551 57.7916C162.065 58.1835 161.363 58.9518 160.767 59.0816L160.626 58.9158C160.582 58.6602 160.557 58.4197 160.412 58.1978L160.326 58.0902C160.39 57.1692 160.165 56.1443 160.045 55.2287C159.833 53.6094 159.628 52.0312 159.562 50.3968C159.526 49.4963 159.431 48.662 159.837 47.8262Z" fill="#222222"/>
<path d="M160.767 49.0303C162.623 49.237 164.897 49.9454 166.463 50.9788C167.051 51.3669 167.584 51.8807 168.112 52.346L167.521 52.6914C166.598 53.2232 165.86 53.8834 165.073 54.5921L161.391 57.4348L160.767 49.0303Z" fill="white"/>
<path d="M104.645 149.961C104.894 149.944 105.192 149.966 105.435 150.021C106.012 150.15 106.33 150.53 106.642 151.008C107.306 152.024 108.241 153.86 108.002 155.065C107.524 155.369 106.841 155.443 106.282 155.408C103.874 155.259 101.342 155.517 98.9353 155.65C96.4283 155.788 93.9526 155.909 91.4478 156.114L91.4264 156.118C91.2698 156.092 91.1598 156.061 90.9982 156.091C90.6197 156.159 90.2891 156.159 89.9299 155.991C89.3314 155.709 88.3073 152.961 88.1338 152.264C88.0448 151.906 88.0226 151.772 88.2224 151.461C88.72 151.194 89.1976 151.157 89.7449 151.071C91.2787 150.83 92.8302 150.869 94.3759 150.751C97.8016 150.49 101.215 150.176 104.645 149.961Z" fill="#222222"/>
<path d="M103.813 151.555L105.048 151.494C105.647 152.217 106.12 153.064 106.58 153.879L92.1727 154.698L90.7556 154.766L89.7285 152.639C91.109 152.378 92.3618 152.33 93.757 152.246C94.4449 152.204 95.2674 152.22 95.9288 152.024L96.0627 151.974C96.8447 152.276 98.0122 151.91 98.8366 151.854C100.493 151.742 102.148 151.619 103.813 151.555Z" fill="white"/>
<path d="M225.06 164.24C225.397 164.234 225.866 164.161 226.135 164.4C226.277 164.526 226.448 164.708 226.437 164.9C226.408 165.408 226.217 165.943 226.109 166.443C225.857 167.609 225.582 168.77 225.346 169.939C224.271 175.267 223.074 180.571 221.792 185.853C220.774 190.049 219.731 194.343 218.133 198.363C217.427 200.136 216.34 202.157 214.981 203.498C214.227 204.242 213.373 204.881 212.377 205.263C209.753 206.271 206.817 206.466 204.044 206.74C203.027 206.84 202.008 206.992 200.989 207.062C200.39 207.103 199.773 207.062 199.18 207.131C198.84 207.171 198.529 207.291 198.185 207.306C197.033 207.357 195.871 207.29 194.717 207.315C188.007 207.464 181.321 207.359 174.61 207.346L172.481 207.271C174.881 206.538 177.724 206.64 180.218 206.506C183.507 206.33 186.799 206.204 190.095 206.109C194.812 205.973 199.436 205.894 204.14 205.488C206.155 205.314 208.103 205.135 210.076 204.666C210.954 204.457 211.833 204.235 212.62 203.775C214.744 202.533 216.084 199.905 217.034 197.731C218.328 194.771 219.15 191.475 219.968 188.357C221.385 182.957 222.598 177.501 223.629 172.014C224.098 169.514 224.322 166.819 225.019 164.378L225.06 164.24Z" fill="#222222"/>
<path d="M156.241 51.0353C156.932 51.0066 157.769 50.9111 158.367 51.2521C158.72 51.8011 158.656 52.581 158.699 53.2175C158.799 54.7388 158.793 56.2645 158.897 57.7812C158.923 58.1621 158.82 58.5661 158.881 58.933C158.918 59.1552 158.962 59.2579 158.902 59.4885L158.85 59.6393C159.111 60.224 159 60.9754 159.366 61.4484L159.863 61.5164C160.42 61.507 161.281 60.7911 161.755 60.4905C163.59 59.3274 165.38 58.0056 167.089 56.6685C167.752 56.1497 168.402 55.7242 169.029 55.1443C169.492 55.125 169.818 55.0753 170.176 55.4359C171.732 57.0055 172.334 59.8101 172.251 61.9566C172.135 64.9483 170.648 67.9972 168.459 69.988L167.804 70.4458C164.185 72.9206 160.483 73.233 156.245 72.4896C155.632 72.3822 155.059 72.149 154.496 71.887C151.923 70.6904 150.082 68.1738 149.164 65.5386C148.154 62.6383 148.404 59.3187 149.754 56.567C151.094 53.8367 153.374 52.0117 156.241 51.0353Z" fill="#F44817"/>
<path d="M74.7313 37.1974L74.9885 37.1866C80.6499 37.0959 87.1686 38.2305 91.3483 42.3825C92.5312 43.5577 93.9209 45.1736 94.6715 46.6556C95.5329 48.3556 96.0418 50.8715 96.0404 52.7688C96.0377 56.2126 93.5882 59.1211 91.2972 61.4297C91.4885 63.8898 92.3885 66.0805 94.1676 67.8416C94.705 68.3737 95.3744 68.8262 95.8542 69.4073C96.0577 69.6538 96.0869 69.7093 96.0664 70.0115L95.7611 70.1734C94.6307 70.1075 93.4493 69.7325 92.3667 69.408C90.4879 68.8448 88.4456 68.2003 86.7475 67.2101C86.1148 66.8413 85.5221 66.3459 84.9382 65.9035L81.9471 67.1778C79.7396 68.2196 76.9456 68.8233 74.5227 69.0588C73.2541 69.182 71.9827 69.2114 70.7096 69.2503C69.848 69.2768 68.9953 69.3699 68.1352 69.2814C64.7172 68.9295 61.3579 67.2101 58.7562 65.0351C56.0696 62.789 54.0082 59.6865 53.7055 56.1151L53.375 53.5581C53.3453 52.7256 53.5467 51.9504 53.7416 51.1508C54.3162 48.7927 55.2092 46.7511 56.8455 44.9256C61.2686 39.9919 68.2423 37.5414 74.7313 37.1974Z" fill="#F44817"/>
<path d="M84.1056 47.8423C84.5187 48.1882 84.7399 48.9767 84.9442 49.4705L84.1222 49.7918L83.9652 49.848C82.9116 50.251 81.7098 51.8992 80.9281 52.714C78.8139 54.9168 76.6164 57.0428 74.7782 59.501C74.3633 60.0558 74.0533 60.6561 73.7607 61.2816L66.6551 54.5709C66.2608 54.1753 65.5716 53.6463 65.3789 53.1267L65.5297 52.8679C66.5553 53.0358 71.7391 57.992 72.9117 59.0772C73.2901 58.3538 73.938 57.8185 74.5042 57.2428C75.4167 56.3151 76.3086 55.3741 77.2327 54.4565C79.5105 52.1952 81.6126 49.8887 84.1056 47.8423Z" fill="white"/>
<path d="M114.35 144.299C114.559 144.219 114.71 144.175 114.937 144.231C115.904 144.471 116.664 145.965 117.179 146.722C122.152 154.035 124.804 162.467 128.036 170.608C128.847 172.652 129.79 174.635 130.627 176.661C131.727 179.322 132.69 182.044 133.804 184.698C134.532 186.435 135.429 188.144 136.264 189.833C136.862 191.043 137.402 192.33 138.109 193.479C138.263 193.731 137.874 194.577 137.858 194.948C137.846 195.216 137.779 195.235 137.621 195.441C137.341 195.555 137.177 195.631 136.875 195.576C135.703 195.36 134.375 195.519 133.184 195.553C129.619 195.653 126.087 195.946 122.53 196.172C120.111 196.325 117.609 196.252 115.179 196.275C115.612 196.932 115.964 197.643 116.361 198.322C117.009 199.432 117.765 200.652 118.04 201.916L121.44 201.738C123.23 201.534 125.025 201.667 126.817 201.656C128.351 201.647 129.885 201.542 131.42 201.546C135.045 201.554 138.779 201.75 142.39 202.087C144.736 202.307 147.148 202.287 149.452 202.824L149.977 201.89C148.065 201.664 145.986 201.619 144.211 200.793C143.559 200.49 142.654 199.94 142.418 199.226C142.243 198.694 141.906 198.299 141.679 197.796C141.403 197.187 141.361 196.312 141.603 195.683C141.943 194.8 142.753 194.357 143.552 193.965L142.928 193.029C142.854 192.05 143.215 191.435 143.706 190.635C144.059 190.432 144.441 190.284 144.787 190.07C145.43 189.671 145.961 189.197 146.679 188.908C147.857 188.433 149.354 188.362 150.612 188.275C152.915 188.117 155.19 188.121 157.499 188.129L155.728 186.843C155.088 186.319 154.048 184.991 154.052 184.1C154.055 183.518 154.262 183.234 154.677 182.85C155.128 182.689 155.415 182.732 155.883 182.732C156.697 182.733 157.393 182.949 158.166 183.185C159.134 183.48 160.119 183.759 161.01 184.251C161.785 184.68 162.447 185.266 163.173 185.769L163.281 185.672C163.188 185.473 163.089 185.314 163.089 185.092C163.09 184.712 162.864 184.265 162.75 183.896C162.416 182.82 162.057 181.751 161.692 180.686C159.993 175.72 158.3 170.764 156.671 165.774C156.064 163.913 155.249 162.072 154.794 160.165C154.679 159.681 154.676 159.169 154.687 158.674L126.285 159.116C125.645 159.145 124.773 159.194 124.226 158.832C123.965 158.461 123.99 158.134 123.982 157.692C124.083 157.599 124.163 157.477 124.284 157.412C124.657 157.211 135.369 157.397 136.765 157.38C141.661 157.318 146.546 156.963 151.453 157.025C152.295 157.036 153.236 157.082 154.074 157.171C154.868 157.256 155.496 157.487 156.317 157.42L156.486 157.403C156.751 157.754 156.842 157.847 156.908 158.295C156.835 158.513 156.797 158.592 156.609 158.739L156.155 159.079L165.603 187.48C165.854 187.699 166.134 187.977 166.429 188.133C167.164 188.522 167.262 188.164 167.696 187.58C167.799 187.443 167.881 187.243 168.06 187.208C168.598 187.103 169.06 187.483 169.465 187.777C171.524 187.856 173.402 187.395 175.421 187.084C176.927 186.852 178.463 186.68 179.977 186.483C181.623 186.268 183.244 186.208 184.887 186.045C187.915 185.744 190.936 185.381 193.97 185.142C193.781 182.454 194.116 179.689 194.077 176.989C194.061 175.905 194.222 174.772 194.276 173.685C194.417 170.805 194.57 167.929 194.731 165.051C194.785 164.106 194.65 163.042 194.809 162.119C194.862 161.816 194.988 161.744 195.2 161.534C195.59 161.496 195.732 161.439 196.085 161.626C196.51 162.345 195.978 167.584 195.82 168.685L194.671 184.986L197.794 184.499C198.436 183.043 198.825 181.452 199.388 179.957C201.5 174.348 203.655 168.831 206.296 163.447C207.528 160.935 208.754 158.26 210.623 156.141C210.886 155.843 211.361 155.539 211.783 155.594C212.175 155.645 212.256 155.843 212.483 156.124C212.506 156.476 212.559 156.662 212.345 156.968C212.022 157.432 211.399 157.833 211.022 158.332C209.766 159.994 208.658 161.871 207.667 163.707C205.343 168.012 203.521 172.446 201.887 177.049C201.117 179.219 200.363 181.351 199.783 183.587C200.745 183.771 201.748 183.828 202.72 183.951C203.101 183.999 203.595 184.011 203.944 184.18C204.265 184.336 204.396 184.56 204.509 184.888C204.43 185.048 204.41 185.184 204.235 185.263C203.595 185.55 201.869 185.164 201.152 185.046C200.795 184.987 200.449 184.839 200.127 185.015C200.179 185.301 200.396 185.453 200.606 185.634C201.476 186.386 202.534 186.947 203.435 187.684C203.736 187.93 204.138 188.216 204.308 188.572C204.458 188.886 204.369 188.961 204.245 189.263C204.125 189.347 204.021 189.463 203.884 189.514C203.644 189.603 199.101 186.18 197.823 186.111C197.551 186.097 197.507 186.139 197.328 186.336L200.744 193.289C198.818 191.221 197.897 188.372 195.953 186.34C192.042 186.457 188.097 186.995 184.225 187.542C180.886 188.014 177.546 188.529 174.205 189.003C173.386 189.119 172.568 189.238 171.749 189.351C171.367 189.404 170.898 189.515 170.515 189.452L169.632 189.329L169.487 189.471C169.885 191.247 169.851 193.263 169.929 195.08C170.032 197.471 170.238 199.779 170.147 202.182C170.107 203.232 169.95 205.582 169.168 206.307L168.848 206.24C168.565 205.96 168.426 205.802 168.386 205.391C168.286 204.362 168.586 203.124 168.587 202.059C168.592 199.41 168.287 196.7 168.082 194.054C168.021 193.278 168.064 191.767 167.668 191.117C167.306 191.108 166.937 191.101 166.617 190.912C165.686 190.365 164.832 189.521 163.984 188.842C162.417 187.588 160.583 186.253 158.731 185.467C157.991 185.153 157.176 184.935 156.41 184.688C157.707 186.127 159.593 187.75 161.343 188.616C161.556 188.721 161.726 188.817 161.913 188.97C161.977 189.243 161.967 189.409 161.902 189.676C161.706 190.485 161.125 190.244 160.455 190.211C157.758 190.082 155.15 189.855 152.443 189.916C150.098 189.969 147.841 190.178 145.788 191.404C147.502 192.072 149.071 191.991 150.869 192.036C152.324 192.072 153.757 192.144 155.219 192.138C155.498 192.439 155.44 192.569 155.457 192.969C155.041 193.469 153.137 193.212 152.408 193.492L152.264 193.555C151.899 193.352 151.225 193.406 150.806 193.392C149.013 193.333 146.437 193.457 144.965 192.341L144.847 192.249L144.671 192.317L144.604 193.21C144.946 193.654 145.609 193.863 146.123 194.062C148.518 194.988 150.954 195.045 153.489 195.029C154.153 195.025 154.826 194.854 155.478 194.984L155.696 195.321C155.646 195.649 155.644 195.768 155.34 195.966C155.06 196.148 154.804 196.133 154.488 196.098C153.635 196.002 152.745 196.098 151.886 196.104C151.012 196.11 150.145 196.017 149.274 195.961C148.009 195.88 147.211 195.873 146.122 195.15C145.319 195.223 144.453 195.157 143.689 195.449C143.347 195.58 143.124 195.885 142.999 196.22C142.625 197.224 143.322 198.222 143.759 199.095C144.605 199.487 145.957 200.077 146.878 200.042C147.773 200.008 148.691 200.234 149.602 200.227C151.9 200.208 154.19 199.975 156.486 199.967L156.75 200.266C156.771 200.674 156.871 201.085 156.546 201.413C156.362 201.598 155.771 201.705 155.52 201.769C154.396 202.058 151.813 202.365 151.061 203.281C151.1 203.514 151.08 203.614 151.246 203.798C151.515 204.097 151.793 204.145 152.179 204.174C153.048 204.238 157.826 202.858 158.437 202.332C158.121 202.301 157.871 202.31 157.631 202.075C157.625 201.711 157.611 201.671 157.812 201.373C158.788 201.01 159.916 201.085 160.939 201.031C161.357 201.01 161.746 200.879 162.159 200.852C163.679 200.753 165.413 200.627 166.832 200.055L168.003 200.688C168.206 201.037 168.126 201.316 168.109 201.713C167.893 202.114 167.677 202.369 167.328 202.665C167.09 202.868 167.298 202.96 167.247 203.22C167.234 203.287 166.98 203.562 166.932 203.619C166.66 203.934 166.379 204.16 165.953 204.193C165.717 204.11 165.597 204.055 165.414 203.876L164.988 203.476L164.385 203.683C163.827 203.794 163.55 203.532 163.092 203.261L154.185 205.666C153.207 205.976 151.829 206.169 150.9 205.637C150.11 205.186 149.694 204.349 149.474 203.502C147.635 203.326 145.849 203.373 144.009 203.412C143.056 203.433 141.932 203.533 140.994 203.393C140.036 203.249 138.957 203.297 137.979 203.262C135.124 203.159 132.23 203.164 129.372 203.19C128.792 203.195 128.206 203.193 127.627 203.234C127.207 203.263 126.746 203.367 126.335 203.278C125.701 203.142 124.959 203.2 124.309 203.204C122.773 203.212 121.231 203.323 119.701 203.453C119.042 203.509 117.944 203.73 117.327 203.528C117.114 203.459 116.976 203.297 116.872 203.1C116.616 202.61 116.442 202.064 116.19 201.564C115.304 199.804 114.382 198.062 113.513 196.292C109.034 196.257 104.662 195.924 100.216 195.379C99.5362 195.295 98.4105 195.31 97.8111 195.014C97.5385 194.879 97.5301 194.741 97.4664 194.477L97.6302 194.224L136.493 193.526C135.384 191.963 134.597 189.961 133.814 188.207C132.967 186.31 132.125 184.438 131.334 182.514C129.916 179.06 128.382 175.637 127.012 172.168C125.544 168.45 124.251 164.669 122.709 160.979C120.433 155.787 117.816 150.66 114.601 145.986C112.509 145.879 110.449 145.991 108.367 146.024C99.6554 146.159 90.9576 147.024 82.2824 147.765L90.7595 168.906C90.7984 168.239 90.5907 166.616 91.0485 166.132C91.3828 165.779 91.9224 165.691 92.3838 165.679C93.2286 166.115 93.9879 166.54 94.615 167.265C96.1323 169.02 96.66 171.644 96.5057 173.905C98.1565 173.417 99.8995 172.795 101.464 172.072C104.086 170.861 106.529 169.236 109.237 168.2C110.201 167.831 111.171 167.42 112.225 167.604C112.929 167.727 113.515 168.034 113.939 168.614C113.994 168.958 114.022 169.241 113.877 169.572C113.439 170.57 112.702 171.123 111.862 171.756C109.977 173.175 107.989 174.123 105.9 175.18C104.954 175.659 103.999 176.242 103.012 176.626C102.555 176.803 102.007 176.971 101.549 176.715C101.205 176.523 101.131 176.255 101.039 175.903C101.069 175.828 101.077 175.74 101.128 175.677C101.379 175.368 102.431 175.07 102.816 174.867C104.757 173.845 106.735 172.81 108.637 171.72C109.394 171.286 110.218 170.894 110.925 170.384C111.367 170.066 111.736 169.614 112.097 169.209C108.885 169.858 105.812 171.941 102.832 173.297C101.116 174.077 99.3035 174.594 97.5335 175.23C96.702 175.528 95.7577 176.093 94.8563 175.972C94.5417 175.645 94.4833 175.555 94.3635 175.119C94.4918 174.657 94.6655 174.466 95.0111 174.14L94.7919 171.803C94.5453 170.372 93.8468 168.544 92.6229 167.702L92.4441 167.768C92.5392 169.549 92.3498 171.069 92.1475 172.819C92.0449 173.703 92.0105 174.609 91.8734 175.487L91.3018 180.702C92.0334 182.558 92.6938 184.563 93.1796 186.499C93.5077 187.807 93.6068 189.616 94.1929 190.796L94.3738 190.777L94.3707 190.44C94.856 189.698 96.4538 189.36 97.3012 189.067C99.0519 188.462 100.876 187.908 102.56 187.136C104.768 186.123 106.871 184.775 108.907 183.457C109.695 182.946 110.527 182.505 111.194 181.834C109.525 182.21 107.84 182.783 106.237 183.38C105.734 183.567 105.202 183.902 104.686 184.022C104.483 184.069 104.345 184.043 104.143 184.015C103.88 183.817 103.645 183.669 103.577 183.321C103.52 183.023 103.532 182.721 103.731 182.481C104.163 181.959 104.969 181.634 105.52 181.245C106.74 180.382 107.923 179.4 109.116 178.493C110.494 177.447 112.028 176.631 113.033 175.184L113.134 175.036C111.465 175.644 109.814 176.473 108.283 177.374C107.411 177.887 106.562 178.45 105.745 179.046C105.099 179.516 104.279 180.269 103.48 180.426C103.36 180.36 103.211 180.29 103.115 180.188C102.843 179.904 102.818 179.654 102.791 179.28L102.992 179.054C104.652 177.236 107.139 176.044 109.287 174.902C110.443 174.287 111.975 173.368 113.309 173.353C113.837 173.347 114.387 173.412 114.763 173.815C115.143 174.222 115.179 174.901 115.171 175.421C114.839 176.079 114.208 176.563 113.671 177.055C112.369 178.247 110.974 179.299 109.647 180.451C110.504 180.235 111.464 179.922 112.352 179.921C112.97 179.921 113.183 180.072 113.607 180.486C113.732 180.882 113.756 181.114 113.622 181.511C113.158 182.879 111.703 183.777 110.587 184.589C107.536 186.809 104.18 188.77 100.561 189.895C98.4698 190.545 96.3834 190.938 94.396 191.888C94.6821 192.854 94.9018 193.911 95.2986 194.834L96.2825 197.679L96.3532 197.853C96.2758 198.219 96.1535 198.581 95.851 198.827C95.4364 199.163 94.6959 199.31 94.1929 199.48C93.3106 199.779 92.4323 200.098 91.5594 200.423C82.1698 203.922 72.7396 206.912 62.9814 209.226C60.5679 209.798 58.2684 210.84 55.7152 210.385C54.7795 210.218 53.854 210.075 52.9555 209.751C50.2571 208.776 48.0109 206.826 46.1418 204.7L35.4571 205.589C34.8189 205.646 34.1669 205.57 33.5248 205.592C30.3429 205.7 27.2991 205.597 24.1286 205.357C22.6309 205.243 19.836 205.352 18.6893 204.192C18.41 203.909 18.431 203.531 18.417 203.16C18.6208 202.877 18.6978 202.777 19.056 202.738C21.6215 202.454 24.3431 202.988 26.8953 203.213C30.3031 203.512 33.6625 203.746 37.0865 203.701C38.0571 203.689 39.2193 203.797 40.1658 203.617C40.7763 203.501 41.4671 203.528 42.0909 203.5C43.1266 203.451 44.159 203.376 45.1926 203.294C44.8397 202.651 44.3532 202.126 43.961 201.515C43.3925 200.63 42.9491 199.598 42.5135 198.638C40.5983 194.415 39.4646 189.945 37.6813 185.679C36.8617 183.719 35.9335 181.807 35.0605 179.871C33.8429 177.171 32.6629 174.469 31.3375 171.817C30.781 170.705 30.1131 169.658 29.5573 168.546C29.6229 168.204 29.7264 168.056 29.9307 167.786C30.2771 167.583 30.554 167.631 30.9356 167.661C31.4378 168.02 31.693 168.688 31.9699 169.227C32.7133 170.675 33.3236 172.182 33.9739 173.673C35.6655 177.551 37.4148 181.455 38.9764 185.386C40.1342 188.3 41.12 191.278 42.321 194.175C42.9841 195.774 43.7644 197.299 44.5577 198.835C46.5243 202.643 49.7783 206.476 54 207.783C54.7947 208.029 55.5808 208.299 56.4084 208.41L56.6246 208.437C57.8446 208.603 59.0401 208.379 60.2422 208.165C62.1485 207.826 63.9733 207.386 65.8458 206.899C72.4757 205.175 79.0461 203.269 85.5154 201.007C88.456 199.979 91.3621 198.62 94.3656 197.82C93.8227 195.96 93.0863 194.126 92.6118 192.253C91.5719 188.148 91.1233 183.958 89.2848 180.084L65.1533 184.689C64.3491 186.023 63.7432 187.335 63.3761 188.855C63.2574 189.347 63.1358 189.871 63.0931 190.376C63.0413 190.987 63.1672 191.472 62.8358 192.009L62.5342 192.008C62.4337 191.882 62.2995 191.732 62.2308 191.582C61.7462 190.53 62.3167 187.818 62.6797 186.724C62.988 185.794 63.4605 184.991 63.6928 184.02L63.7408 183.814C63.0379 184.008 62.1888 184.195 61.5506 184.555C60.9796 184.876 60.4601 185.35 59.9446 185.753C59.1353 186.387 58.7313 187.733 57.7703 188.029L57.5503 187.892C57.5182 187.623 57.5059 187.404 57.5752 187.139C58.1321 185.009 60.1089 183.823 61.8736 182.812L61.7549 182.175C61.5976 181.321 61.2934 180.528 61.0361 179.702C59.982 176.319 58.5875 173.197 57.0911 169.994C55.7111 167.041 54.3642 164.122 52.8091 161.25C52.0015 159.759 51.226 158.246 50.4151 156.759C49.9411 155.89 49.1186 154.804 48.9268 153.832C48.9941 153.572 49.0315 153.428 49.2165 153.221C49.3692 153.051 49.6405 152.993 49.8707 153.014C49.9194 153.019 50.1688 153.068 50.2296 153.109C50.8842 153.546 51.5051 155.141 51.8906 155.823C55.0803 161.476 58.1314 167.306 60.7915 173.227C61.8058 175.485 62.6355 177.822 63.6472 180.086C64.1506 181.212 64.4844 182.261 65.3082 183.216C66.6064 183.268 67.9776 182.713 69.2532 182.485C75.3546 181.398 81.402 180.147 87.4583 178.844C88.0018 178.727 88.6434 178.739 89.1634 178.567C89.3475 178.505 89.4606 178.44 89.6102 178.323C89.6714 178.274 89.746 178.238 89.7911 178.174C89.8859 178.04 89.9327 177.184 89.9532 176.996C90.1046 175.609 90.1925 174.211 90.3652 172.828C90.4655 172.026 90.6261 171.231 90.7272 170.426C90.233 169.892 89.6444 169.328 89.2934 168.686C88.7891 167.762 88.5119 166.612 88.1009 165.629C86.931 162.831 85.773 160.032 84.5853 157.24C84.1231 156.155 83.7401 155.05 83.1997 153.997L79.8409 154.255C79.5145 154.235 79.3792 154.067 79.1734 153.837C79.1235 153.445 79.1105 153.352 79.253 152.988C79.6146 152.682 80.2726 152.718 80.7384 152.667C81.402 152.595 82.0542 152.485 82.7113 152.37C82.2588 151.243 81.849 150.118 81.3673 149C81.2199 148.658 81.0503 148.08 80.7657 147.836L80.6248 147.742L80.4482 147.607C80.2628 147.466 80.2266 147.378 80.1846 147.139C80.1086 146.704 80.2808 146.483 80.5042 146.145C80.9365 145.91 81.4172 146.01 81.8929 145.952C84.1339 145.682 86.3922 145.471 88.6451 145.356C90.423 145.265 92.2169 145.365 93.9983 145.299C97.3757 145.173 100.76 144.767 104.143 144.632C106.331 144.544 108.527 144.473 110.716 144.409C111.873 144.375 113.033 144.427 114.187 144.315L114.35 144.299Z" fill="#222222"/>
<path d="M160.585 40.1072C163.003 39.9728 165.455 40.1354 167.88 40.1173C170.983 40.0941 174.085 40.0773 177.187 40.0703C179.549 40.065 182.25 39.8392 184.543 40.4466C185.496 40.6986 186.505 41.2088 186.982 42.1153C187.625 43.3394 187.802 45.0221 187.93 46.377C188.318 50.4894 188.134 54.6741 188.301 58.8001C188.409 61.4915 188.599 64.2121 188.806 66.8985C189.021 69.6956 189.469 72.503 189.455 75.3182C189.452 76.1026 189.523 76.9888 189.292 77.7465L189.238 77.9112C189.146 78.1985 189.053 78.6184 188.847 78.849C188.567 79.1638 188.152 79.2926 187.769 79.4381C186.596 79.8838 185.456 80.0968 184.225 80.3009C183.871 80.1549 183.871 80.0481 183.694 79.7203C184.382 78.7108 186.603 79.0184 187.54 78.1131C187.853 77.8116 187.957 77.0696 187.972 76.6444C188.135 72.0548 187.336 67.3657 187.11 62.7726C186.95 59.5174 186.829 56.2637 186.738 53.0062C186.671 50.6618 186.714 48.2818 186.431 45.9508C186.312 44.9724 186.053 43.1858 185.345 42.4908C184.792 41.9469 183.794 41.7879 183.045 41.6968C179.591 41.2768 175.925 41.5511 172.443 41.5281C166.607 41.4898 160.79 41.5279 154.959 41.6912C153.692 41.7267 152.38 41.6881 151.124 41.759L104.547 44.1967C104.016 45.0826 103.617 46.1044 103.52 47.1416C103.315 49.3328 103.821 51.5333 104.026 53.7067C104.136 54.8657 104.118 56.0394 104.223 57.2011C104.408 59.2668 104.666 61.2703 104.681 63.3527C105.131 63.5186 105.557 63.6711 105.872 64.0507C106.913 65.3067 106.693 68.2739 106.658 69.8456C106.648 70.2458 106.541 70.8162 106.736 71.1628L107.305 71.187C107.905 71.2586 108.256 71.5001 108.605 71.9839C109.637 73.4146 108.565 75.4299 108.65 77.0151C108.702 77.9971 109.073 79.0449 109.247 80.0218C109.533 81.6353 109.798 83.5309 109.712 85.1678C109.674 85.8799 109.449 86.6042 109.353 87.3134L109.302 87.6863C108.948 89.815 107.117 91.0024 105.515 92.1834L104.313 96.5317C105.784 97.9841 107.607 99.1657 108.95 100.739C109.314 101.165 109.52 101.519 109.47 102.093C109.255 102.445 109.231 102.534 108.846 102.718C107.991 102.601 106.931 101.266 106.313 100.683C105.214 99.6438 104.057 98.6655 102.961 97.622C101.994 96.7023 101.178 95.6098 100.046 94.8746L95.5571 91.4622C94.3966 95.7302 92.8645 99.9367 91.547 104.162C89.1624 111.808 86.9336 119.55 84.8237 127.277C84.6481 127.92 84.0991 128.962 84.2009 129.591C84.5728 129.589 84.8389 129.619 85.1964 129.721C85.5331 130.114 85.4964 130.1 85.466 130.583C84.836 131.407 82.2415 131.927 81.2463 132.268C76.5658 133.872 71.8347 135.397 67.1914 137.105C64.9718 137.922 62.8419 139.023 60.6044 139.761C59.7095 140.057 58.819 140 57.9234 140.213C57.364 140.345 56.8828 140.731 56.3497 140.833L55.7486 140.928C55.669 141.292 55.5378 141.679 55.6024 142.048C55.8936 142.109 56.2045 142.144 56.4428 142.334C56.5683 142.434 56.5417 142.426 56.5625 142.58C56.8399 144.622 56.6093 146.85 56.6609 148.924C56.6717 149.361 56.5905 149.536 56.2957 149.852C56.1637 149.878 56.0342 149.941 55.9003 149.93C55.7139 149.915 55.3475 149.722 55.162 149.649C54.208 149.273 53.3669 148.767 52.4672 148.284C46.4692 145.068 40.6232 141.627 34.9333 137.89C33.7097 137.086 32.6437 136.065 31.3902 135.302L31.238 135.21C30.7546 135.693 30.3626 136.277 29.9304 136.806C28.7566 138.242 27.6878 139.695 26.6197 141.212C24.416 144.342 22.1957 147.482 20.389 150.868C18.1653 155.035 16.5994 159.568 15.1234 164.04C14.6072 165.597 14.1771 167.687 14.1166 169.319C14.0322 171.591 14.2707 173.945 14.5037 176.205C15.1531 182.503 15.9872 188.795 16.7612 195.079C17.0654 197.548 17.4957 200.028 17.6783 202.51C17.713 202.982 17.8626 203.756 17.604 204.154C17.2842 204.172 17.2733 204.194 17.021 204.004C15.2479 197.849 14.8523 191.393 13.9858 185.069C13.5193 181.664 13.068 178.264 12.6835 174.847C12.4952 173.173 12.2455 171.47 12.2552 169.781C12.2747 166.345 13.4043 162.758 14.5701 159.554C16.081 155.401 17.8587 151.314 20.1239 147.509C21.2055 145.693 22.4526 143.942 23.675 142.218C25.6539 139.426 27.6425 136.874 30.0671 134.455C29.9002 133.949 29.9108 133.493 29.9118 132.968C30.1081 132.677 30.1325 132.641 30.4528 132.504C30.9384 132.582 31.3352 132.865 31.7525 133.112L34.7042 118.926L33.8298 118.631C32.6158 118.164 31.6442 116.847 31.1726 115.679C30.9842 115.211 30.9917 114.662 30.9869 114.165C30.9685 112.36 31.3921 111.036 32.0571 109.389C32.1577 109.14 32.2313 108.968 32.4298 108.778C33.6337 107.626 34.9008 107.229 36.5236 107.219L37.2704 103.962C38.6991 97.9744 42.7963 92.7999 47.8374 89.4133C51.1441 87.1918 55.4744 86.2554 59.3979 87.0753C63.8171 87.9984 68.4313 91.3896 70.9068 95.1243C74.2686 100.196 75.7308 106.717 75.7525 112.719C75.7602 114.897 75.6849 116.924 75.2462 119.064C75.9607 119.281 76.7308 119.511 77.3681 119.912C77.6761 120.105 77.9543 120.412 78.0068 120.786C78.0556 121.134 78.0785 121.524 77.8505 121.81C77.084 122.772 75.526 122.869 74.4056 122.992C73.8327 124.312 73.3775 125.674 72.8208 126.998C72.0067 128.933 70.8566 131.082 69.5073 132.693C68.5487 133.837 67.4669 134.773 66.3207 135.718L82.5303 130.155C83.3103 125.269 85.172 120.586 86.5269 115.842C88.3232 109.551 90.0725 103.288 92.101 97.065C92.6616 95.3457 93.2584 93.6136 93.7919 91.8882C93.9263 91.4535 93.9919 90.9921 94.1508 90.5661C94.2825 90.2125 94.4603 90.013 94.7353 89.7609L95.3383 89.7715C95.3769 89.765 95.5663 89.7069 95.5795 89.6765C95.6647 89.4823 95.6319 88.8754 95.6394 88.6451C95.6787 87.4065 95.7426 86.0075 95.5981 84.7787C95.4413 83.446 94.9748 81.91 95.032 80.5906C95.0684 79.7545 95.3422 78.8116 95.6396 78.0318C96.8138 74.9525 98.5725 72.1653 99.8753 69.1449C100.232 68.3173 100.576 67.4873 100.842 66.6254C101.116 65.739 101.31 64.744 101.858 63.9767C102.304 63.3524 102.952 63.2668 103.652 63.1452C103.464 60.9927 103.188 58.8411 102.984 56.6878C102.906 55.8689 102.92 55.0444 102.833 54.2272C102.573 51.7869 101.997 49.4789 102.337 46.9921C102.568 45.2951 103.041 43.8139 104.454 42.7521L160.585 40.1072Z" fill="#222222"/>
<path d="M103.326 64.6099L104.203 64.7864C104.677 65.2216 104.647 65.6196 104.71 66.2125C104.791 66.9665 104.536 67.7806 104.374 68.5172C103.981 70.3024 103.497 72.0978 102.899 73.8265C102.613 74.6551 102.076 75.7533 102.01 76.6205C101.956 77.3265 102.207 78.1715 102.563 78.7752C102.791 79.1643 103.139 79.53 103.297 79.9547C103.674 80.9714 103.808 82.6558 103.657 83.727L103.625 83.9415C103.533 84.5959 103.353 85.1381 103.118 85.7506C103.238 86.1117 103.333 86.3227 103.6 86.597L104.082 86.5728C104.518 86.3097 105.001 85.9348 105.158 85.4281C105.611 83.9704 105.539 81.1762 105.087 79.7499C104.8 78.8478 104.277 77.938 103.868 77.081C104.01 75.3597 104.735 73.8885 105.109 72.2239C106.188 75.6392 107.495 78.8691 107.913 82.4643C107.988 84.3006 108.094 86.9318 107.01 88.53C106.707 88.9768 106.199 89.3887 105.771 89.7151C105.195 90.1539 104.425 90.4853 104.019 91.1083C103.312 92.1967 103.1 93.9269 102.774 95.1759C101.635 94.108 100.338 93.1912 99.0915 92.2526C98.4865 91.7975 97.8273 91.3691 97.3075 90.816L97.3784 90.501C97.431 90.2824 97.4997 90.0945 97.4773 89.8671C97.4604 89.6939 97.4259 89.7018 97.4496 89.4893C97.6242 87.9227 97.7892 85.8796 97.5405 84.31C97.3938 83.3833 97.1263 82.472 96.9978 81.5397C96.9302 81.0508 96.7959 80.4203 96.9404 79.9494L97.0516 79.592C97.4155 77.4215 98.562 75.6906 99.5416 73.7607C100.235 72.3949 100.876 70.9836 101.489 69.58C102.2 67.9545 102.622 66.2351 103.326 64.6099Z" fill="white"/>
<path d="M55.3027 88.4474C56.1462 88.3208 57.3776 88.4453 58.2192 88.5917L58.4336 88.6298C61.6104 89.1595 64.6077 91.0981 66.8707 93.3276C70.0542 96.4641 71.5801 100.21 72.7642 104.445C73.0252 105.379 73.4517 106.625 73.4514 107.589C73.4512 107.745 73.4478 107.868 73.4852 108.021C73.8395 109.469 73.8371 110.97 73.8719 112.454C73.9112 114.126 73.9534 115.821 73.7597 117.485C73.2901 121.519 71.7603 125.384 69.9324 128.97C68.0958 132.572 64.0756 135.723 60.4261 137.344C59.2214 137.879 57.9922 138.221 56.7548 138.637C56.5848 138.694 56.433 138.765 56.25 138.771C55.3966 138.796 54.5653 138.852 53.7283 138.621C52.9702 138.411 52.2842 137.902 51.8467 137.25C51.3507 136.51 51.2282 135.73 50.2928 135.451C49.9105 135.543 49.8762 135.546 49.6164 135.837C49.5793 136.232 49.5612 136.61 49.6174 137.004C49.8914 138.928 51.4422 140.353 53.3195 140.703C53.7105 140.776 54.1859 140.679 54.5099 140.927C54.5157 141.271 54.5791 141.497 54.3934 141.796C52.8103 141.516 51.2709 140.856 49.7751 140.278L33.3161 133.8L36.4007 118.959C37.1227 118.919 38.1661 118.841 38.7863 118.454C38.966 118.341 38.9496 118.033 38.9829 117.832C38.9337 117.753 38.9165 117.641 38.8353 117.597C38.78 117.567 38.3357 117.596 38.2624 117.595C37.6147 117.592 36.9596 117.602 36.3158 117.522C35.5246 117.424 34.7014 117.106 34.0055 116.723C33.3988 116.389 33.0021 115.725 32.8388 115.065C32.5676 113.97 32.7225 111.328 33.387 110.354C33.7134 109.876 34.7383 108.887 35.3377 108.799C35.9827 108.704 36.3819 108.857 36.9589 109.088C37.3388 109.239 37.7455 109.34 38.1039 109.543C38.9115 109.999 39.1932 110.691 39.6286 111.444C39.8491 111.826 40.0461 112.212 40.4031 112.482C40.7729 112.38 40.8265 112.319 41.0985 112.042C41.1299 111.743 41.1275 111.482 41.0814 111.183C40.8629 109.767 39.7591 108.523 38.6228 107.711C39.2405 103.729 40.6029 99.1989 43.1778 96.0205C46.3924 92.0528 50.0665 89.0138 55.3027 88.4474Z" fill="white"/>
<path d="M63.1177 110.552C63.4655 110.537 63.8194 110.526 64.1605 110.61C64.5761 110.714 64.7941 111.028 64.9936 111.379C65.0334 112.021 64.9292 112.391 64.6484 112.967C64.4065 113.011 64.2919 113.021 64.0483 112.949C63.7029 112.846 63.5003 112.558 63.3394 112.252C63.007 111.62 62.884 111.244 63.1177 110.552Z" fill="#222222"/>
<path d="M34.1096 111.951C35.2348 111.907 36.8538 112.188 37.7178 112.947C37.7499 113.326 37.8023 113.371 37.5791 113.67C37.2311 113.744 37.0338 113.721 36.6908 113.627L36.2949 113.519L36.1215 113.47C36.0901 113.868 36.4568 114.411 36.6317 114.779C36.738 115.005 36.7971 115.241 36.8673 115.48L36.6244 115.862L36.3024 115.91C35.8373 115.586 35.4705 114.954 35.2599 114.434C35.0269 113.858 34.7635 113.219 34.3235 112.77C34.1462 112.589 34.0259 112.452 33.9033 112.223L34.1096 111.951Z" fill="#222222"/>
<path d="M60.4516 122.33C60.8178 122.334 61.2088 122.326 61.5703 122.393C62.9221 122.644 63.9188 123.628 64.6629 124.714C65.2613 125.589 65.8873 126.826 65.649 127.9C65.4459 128.814 65.0515 129.129 64.2702 129.6C63.5405 129.837 62.9279 129.825 62.2093 129.555C61.1072 129.141 60.2644 128.238 59.782 127.178C59.3307 126.187 58.877 124.406 59.3167 123.357C59.5432 122.816 59.9231 122.538 60.4516 122.33Z" fill="#222222"/>
<path d="M165.913 79.897L172.681 79.9686C173.447 80.7412 173.922 81.8139 174.551 82.7064C176.432 85.3775 178.529 87.9809 180.265 90.7418C180.203 88.9762 180.245 87.2146 180.276 85.4492C180.29 84.6158 180.22 83.6584 180.378 82.8424C180.476 82.3354 180.715 81.4113 181.15 81.1317C181.588 81.1595 181.564 81.1503 181.866 81.4692C181.772 81.9195 181.739 82.4439 181.994 82.8361C183.063 82.6945 184.114 82.7252 185.183 82.6916C185.704 82.6752 186.34 82.5807 186.842 82.6892L186.999 82.7264C187.637 82.4094 189.399 82.6176 190.162 82.5913C192.358 82.5156 194.551 82.393 196.742 82.2362C197.627 82.1728 198.613 82.1894 199.482 82.0312C200.61 81.8257 201.81 81.8532 202.962 81.7565C205.239 81.5657 207.507 81.4412 209.788 81.3172C212.342 81.1783 214.817 81.055 217.351 81.5073C219.1 81.8197 220.839 82.6919 222.349 83.5916C224.256 84.7277 226.294 86.1265 227.566 87.9819C228.892 89.9169 230.115 92.3053 230.716 94.5843C230.977 95.5738 231.067 96.6426 231.192 97.6573C231.707 101.833 231.373 106.342 230.61 110.475C230.241 112.479 229.645 114.43 229.279 116.427C228.851 118.759 228.382 123.608 229.894 125.644C230.584 126.573 231.572 127.293 232.741 126.826C233.27 126.615 233.545 126.371 234.126 126.473C234.446 126.733 234.512 126.774 234.658 127.179C234.57 127.759 234.424 128.017 233.938 128.36C232.376 129.461 230.801 129.982 229.032 130.611C227.606 131.117 226.234 131.63 224.73 131.858C224.163 131.945 223.553 132.088 222.986 131.974L220.118 131.409C220.48 132.892 220.276 134.774 220.16 136.292C220.128 136.702 219.909 137.361 220.019 137.74L220.069 137.852L219.907 138.137C219.946 138.452 219.888 139.031 219.989 139.3C220.098 139.592 220.638 140.056 220.865 140.313C221.995 141.586 223.18 142.815 224.279 144.116C227.143 147.505 229.673 151.203 231.141 155.426C233.15 161.209 233.251 167.468 233.386 173.523C233.525 179.749 233.465 186.064 233.117 192.278C232.974 194.823 232.692 197.367 232.482 199.909C232.94 199.966 233.458 199.98 233.876 200.183C234.152 200.568 234.116 200.892 234.112 201.351C233.85 201.782 233.326 201.85 232.857 202.008C232.241 201.871 231.532 201.57 230.908 201.557C230.109 201.541 229.277 201.706 228.474 201.743C226.331 201.844 224.046 201.87 221.914 201.626C221.416 201.57 220.869 201.652 220.461 201.351L220.527 201.035C221.207 200.494 222.786 200.783 223.603 200.827C224.579 200.879 225.569 200.813 226.547 200.812C227.82 200.81 229.116 200.864 230.381 200.702C230.571 200.678 230.693 200.703 230.834 200.553C231.315 200.04 231.147 199.042 231.219 198.386C231.547 195.354 231.7 192.274 231.769 189.223C231.929 182.256 231.753 175.315 231.279 168.363C230.978 163.936 230.796 159.042 229.124 154.88C228.44 153.181 227.421 151.528 226.428 149.996C224.326 146.748 222.003 143.921 219.342 141.123C215.564 142.751 212.012 145.061 208.505 147.186C206.323 148.507 204.077 149.684 201.954 151.109C201.838 151.098 201.622 151.094 201.508 151.043C201.265 150.933 201.07 150.793 201.023 150.516C200.909 149.853 201.181 148.9 201.247 148.224C201.361 147.04 201.404 145.84 201.422 144.651C201.432 144.002 201.3 142.968 201.625 142.408C201.976 142.162 202.193 142.082 202.618 142.027C203.09 142.2 203.172 142.383 203.478 142.771C203.786 142.815 203.797 142.837 204.06 142.676C204.605 139.933 204.477 137.01 204.611 134.224C200.871 134.214 197.349 134.016 194.103 131.921C193.074 131.257 191.822 130.485 190.941 129.645C190.05 128.795 189.35 127.756 188.643 126.757C187.579 125.251 186.519 123.609 185.845 121.882C185.371 120.669 185.112 119.301 184.837 118.03C183.833 119.341 182.885 119.955 181.283 120.332L179.778 119.787C179.527 120.882 179.209 121.975 179.003 123.078C178.863 123.83 178.845 124.634 178.682 125.374C178.571 125.876 178.401 126.336 178.312 126.851C178.18 127.612 178.023 128.404 177.929 129.169C177.811 130.122 177.829 130.787 177.466 131.712C179.435 132.137 181.361 132.931 183.183 133.77C186.184 135.151 188.816 136.749 191.409 138.804C193.54 140.492 195.268 142.421 196.793 144.668C197.13 145.164 197.659 145.797 197.693 146.415C197.72 146.917 197.634 146.989 197.307 147.32C196.136 147.472 195.72 146.094 195.135 145.295C190.843 139.426 184.09 135.679 177.266 133.508C176.856 134.759 176.196 136.255 175.124 137.057C174.649 137.413 174 137.759 173.401 137.828C171.941 137.996 170.331 137.788 168.856 137.797C166.532 137.811 164.207 137.884 161.884 137.934C160.374 137.967 158.76 138.086 157.27 137.822C153.745 137.196 152.894 134.431 151.098 131.841C148.719 132.541 146.379 133.547 144.119 134.564C138.044 137.296 132.472 140.76 127.234 144.875C126.022 145.827 124.901 146.907 123.704 147.883C123.418 148.15 123.348 148.146 122.958 148.215C122.818 148.142 122.762 148.123 122.635 148.003C122.363 147.746 122.235 147.482 122.234 147.123C122.804 146.094 124.455 145.057 125.377 144.295C132.691 138.241 141.109 133.507 150.142 130.541L149.917 119.342C149.147 119.647 148.566 119.876 147.72 119.7C146.632 119.472 145.308 118.638 144.707 117.688C143.956 116.499 143.802 115.346 144.107 113.999C144.411 112.659 145.116 111.245 146.325 110.513C147.098 110.045 148.739 109.874 149.611 110.092C149.967 110.573 150.333 110.657 150.745 111.018C151.006 111.246 150.99 111.603 151 111.922C150.802 112.273 150.674 112.363 150.335 112.55C149.754 112.455 149.248 112.014 148.769 111.686L147.575 111.874L146.883 112.381C146.221 112.949 145.715 114.055 145.688 114.907C145.662 115.723 145.88 116.552 146.488 117.139C147.256 117.881 148.101 118.109 149.129 118.084C149.421 117.812 149.734 117.484 150.138 117.399C150.482 117.327 150.667 117.419 150.938 117.631C151.183 117.824 151.391 118.166 151.448 118.473C151.643 119.529 151.452 120.818 151.481 121.906C151.552 124.564 151.674 127.255 151.834 129.909L175.832 129.854C176.102 128.93 176.384 128.007 176.581 127.063C177.044 124.839 177.491 122.595 177.89 120.359C178.027 119.588 178.132 118.813 178.274 118.044C178.301 117.899 178.328 117.522 178.402 117.41C178.468 117.309 178.579 117.246 178.668 117.164C179.079 117.212 179.492 117.208 179.831 117.47C179.895 117.738 179.952 117.885 180.125 118.101C180.698 118.391 181.185 118.609 181.814 118.397C182.936 118.017 183.669 117.168 184.175 116.128L184.173 114.965C184.161 114.548 184.08 114.328 183.769 114.033C182.798 113.759 182.181 115.056 181.39 115.401C181.109 115.523 180.997 115.484 180.728 115.395C180.511 115.093 180.456 114.962 180.431 114.575C180.804 114.032 181.345 113.649 181.94 113.38L182.054 113.33L182.07 113.188C181.638 113.244 181.485 113.08 181.089 113.023C180.618 112.955 180.061 113.015 179.582 113.028C179.306 112.807 179.254 112.702 179.226 112.344C179.13 111.101 179.448 109.868 179.54 108.64C179.714 106.332 179.708 103.72 179.332 101.435C178.788 101.666 178.232 102.028 177.652 101.808C177.405 101.492 177.39 101.407 177.329 101.007C177.44 100.715 177.623 100.359 177.537 100.046C177.191 98.7828 176.978 97.6248 176.927 96.3107C175.565 96.5702 174.441 96.589 173.069 96.4016C172.751 96.3582 172.317 96.3502 172.044 96.165C171.461 95.7701 171.364 94.3954 171.246 93.7492C170.546 93.9485 169.828 94.1617 169.15 94.427C168.375 94.73 167.633 95.3258 166.776 94.97C165.692 94.5194 165.244 92.953 164.904 91.9648C164.087 92.5844 163.089 93.5377 162.034 93.7058C161.586 93.777 160.687 93.8382 160.311 93.5633C159.744 92.8478 159.799 91.5771 159.771 90.7076C159.036 91.6524 158.072 92.4592 157.242 93.3266C156.927 94.738 156.684 95.9691 156.597 97.4154C156.543 98.3187 156.532 99.7074 157.148 100.404C157.589 100.508 157.781 100.299 158.136 100.042C158.564 99.7327 158.992 99.4102 159.382 99.0547C159.931 98.5537 160.396 97.8607 161.19 97.8221C161.31 97.9067 161.453 97.9663 161.551 98.0758C161.863 98.4222 161.727 101.07 161.752 101.621C161.784 102.327 161.882 103.139 162.189 103.781C162.694 104.126 163.164 104.132 163.768 104.127C165.012 104.116 166.165 103.705 167.269 103.163C168.18 102.716 169.205 101.978 170.235 102.013L170.558 102.368C170.845 102.374 171.123 102.337 171.355 102.533C171.388 102.874 171.406 102.915 171.242 103.211C170.578 103.322 170.077 103.655 169.48 103.936C167.92 104.671 166.103 105.657 164.359 105.794C163.341 105.874 162.129 105.642 161.353 104.947C160.207 103.922 160.245 101.874 160.138 100.444C159.77 100.773 159.402 101.11 158.981 101.37C158.398 101.731 157.725 102.202 157.02 102.01C155.445 101.583 154.983 99.1466 155.06 97.7509C155.084 97.3076 155.347 96.6717 155.112 96.273C154.433 96.9769 153.974 97.9113 153.508 98.7642C152.672 100.298 151.854 101.922 151.436 103.629C150.985 105.474 150.86 107.354 150.492 109.208C150.138 109.528 149.99 109.738 149.491 109.745L149.422 109.45C149.358 109.21 149.274 108.986 149.25 108.736C149.191 108.143 149.316 107.459 149.376 106.866C149.464 105.995 149.504 105.057 149.722 104.21C150.476 101.282 151.964 98.5679 153.523 96.0021C154.248 94.8082 155.022 93.481 155.912 92.4042C156.4 91.814 157.207 91.4942 157.775 90.9688C158.663 90.1484 159.35 89.2258 160.158 88.3437C160.569 88.2764 160.794 88.2865 161.19 88.419C161.472 88.9108 161.404 89.8858 161.326 90.463C161.287 90.7536 161.336 90.9034 161.339 91.1779C161.342 91.4903 161.299 91.6297 161.364 91.9619C161.427 92.0118 161.473 92.0974 161.551 92.1119C161.569 92.115 161.932 91.932 161.978 91.9093C162.651 91.5832 163.288 91.1979 163.909 90.7816C164.485 90.3945 165.052 89.845 165.773 89.8489C165.893 89.9017 166.029 89.9277 166.134 90.0071C166.423 90.2249 166.556 91.5981 166.654 91.9761C166.778 92.4575 166.983 92.9096 167.183 93.3631C168.513 92.858 169.966 92.6922 171.258 92.1121L171.381 92.055L171.625 92.2031C171.821 92.2622 171.844 92.2424 172.019 92.1794L172.165 92.1199C172.49 92.2557 172.533 92.2803 172.739 92.5649C172.643 93.3573 172.917 94.1496 173.165 94.8906C173.967 94.916 174.832 94.9664 175.629 94.8738C176.451 94.778 177.241 94.5209 178.074 94.553C178.339 94.7464 178.482 94.8074 178.57 95.1437C178.709 95.6787 178.571 96.3478 178.616 96.9067C178.691 97.8115 178.932 98.7464 179.107 99.6406C180.265 99.4869 181.292 98.716 182.428 98.7628L183.019 98.7809C183.292 99.0908 183.331 99.0935 183.35 99.4997C182.76 100.253 181.987 100.528 181.133 100.897C181.144 103.46 181.421 105.998 181.318 108.573C181.276 109.611 181.321 110.395 180.908 111.373C182.406 111.498 183.348 111.589 184.61 112.508C184.957 110.173 185.107 107.852 185.545 105.518C186.128 102.408 187.023 99.3728 187.736 96.2976C185.595 93.4178 183.416 90.119 182.246 86.7052L181.712 85.3365C181.731 87.0086 181.818 88.6648 181.885 90.3337C181.926 91.3687 182.301 92.8481 181.693 93.7497C181.392 93.8831 181.002 93.9866 180.667 93.9593C180.63 93.9564 180.462 93.9277 180.415 93.8916C180.195 93.7232 179.941 93.2895 179.769 93.0615C179.099 92.1785 178.544 91.2071 177.926 90.2874C176.581 88.2846 175.117 86.3489 173.733 84.3748C173.134 83.5204 172.673 82.7023 171.966 81.9142C171.758 81.8923 171.581 81.8614 171.379 81.9326C171.061 82.0454 170.88 82.0838 170.533 82.0739C170.34 82.0684 170.156 82.0529 169.964 82.0787C169.775 82.1041 169.663 82.1419 169.472 82.0905C169.23 82.0259 169.036 81.9965 168.784 82.0454C167.914 82.215 166.82 82.0056 165.924 81.983C164.28 81.9412 162.606 81.9429 160.958 81.9328C160.087 81.9272 159.224 82.0384 158.355 82.0848C156.217 82.1989 154.083 82.3129 151.945 82.4434C150.329 82.5419 148.593 82.4319 147 82.661C145.533 82.8723 143.98 82.8204 142.494 82.8619C139.67 82.9406 136.826 83.0875 134.004 83.2428C133.583 83.266 133.167 83.162 132.759 83.1893L131.331 83.2836C125.929 83.5176 120.559 83.4638 115.16 83.3502C113.77 83.3207 112.066 83.5163 110.721 83.2677C110.474 83.2218 110.33 83.121 110.144 82.9512C110.111 82.5546 110.211 82.3947 110.415 82.0766C110.996 81.8723 111.908 82.03 112.53 82.0568C113.733 82.1084 114.94 82.1455 116.143 82.1359C121.289 82.0946 126.437 81.9135 131.581 81.797C133.446 81.7548 135.31 81.694 137.175 81.6581C138.166 81.639 139.257 81.7162 140.234 81.5792L165.913 79.897Z" fill="#222222"/>
<path d="M188.736 97.3242C189.495 97.7714 190.136 98.4408 190.831 98.9806C191.623 99.5957 192.603 100.063 193.516 100.468C197.342 102.167 201.681 102.523 205.462 104.393C205.917 104.618 206.589 104.883 206.894 105.292C207.056 105.51 207.18 105.643 207.382 105.83C208.465 106.121 209.041 105.041 209.782 104.473C210.273 104.096 210.999 103.735 211.609 103.626C212.503 103.466 213.502 103.693 214.225 104.247C214.965 104.813 215.526 105.654 215.614 106.588C215.711 107.61 215.293 108.729 214.621 109.485C213.726 110.489 212.705 111.359 211.301 111.436C210.949 111.29 210.777 111.194 210.539 110.895L210.446 110.776C210.186 110.46 210.069 110.214 209.613 110.229C209.251 110.241 209.172 110.402 208.963 110.656C208.738 111.397 209.546 111.921 209.673 112.578C209.815 113.313 209.83 114.102 209.95 114.849C210.329 117.221 210.814 119.492 211.582 121.772C211.857 122.589 212.259 123.273 212.625 124.043C212.832 124.48 212.98 124.951 213.219 125.373C214.403 127.461 216.573 129.71 218.738 130.783L218.483 136.775L212.9 139.488L206.139 142.322C206.092 141.778 206.006 141.2 206.051 140.657L206.133 134.134C206.515 134.016 207.153 133.899 207.459 133.636C207.703 133.427 207.68 133.203 207.723 132.907C207.574 132.548 207.547 132.485 207.239 132.253C207.027 132.237 206.85 132.236 206.638 132.27C203.547 132.764 200.092 132.61 197.167 131.44C195.914 130.938 194.739 130.201 193.604 129.478C194.661 128.113 195.837 126.839 196.919 125.49C197.367 124.931 198.093 124.108 198.212 123.393C198.276 123.011 198.207 122.413 197.964 122.104C197.853 121.962 197.728 121.953 197.56 121.936C196.964 121.874 196.206 122.33 195.677 122.574C193.744 123.465 191.846 124.44 190.203 125.81C188.485 123.886 187.41 121.324 186.763 118.857C186.644 118.401 186.42 117.816 186.415 117.348C186.402 116.294 186.277 115.242 186.288 114.185C186.323 110.596 186.9 107.087 187.569 103.573C187.657 103.11 187.675 102.002 187.929 101.677C187.986 101.604 188.013 100.855 188.025 100.645C188.049 100.239 188.168 99.9402 188.224 99.5491C188.253 99.3463 188.27 99.2059 188.355 99.0149C188.577 98.51 188.634 97.8677 188.736 97.3242Z" fill="white"/>
<path d="M192.876 107.08C193.19 107.24 193.554 107.515 193.701 107.848C193.918 108.338 193.833 109.052 193.577 109.513C193.279 110.052 192.915 110.221 192.339 110.377C192.057 110.17 191.734 109.865 191.576 109.55C191.403 109.206 191.363 108.803 191.491 108.44C191.751 107.701 192.191 107.4 192.876 107.08Z" fill="#222222"/>
<path d="M211.085 104.804C211.4 104.803 211.685 104.854 211.984 104.952C212.425 105.095 212.879 105.401 213.049 105.854C213.3 106.523 212.426 106.88 212.216 107.478C212.101 107.803 211.977 108.137 211.781 108.424C211.577 108.724 211.352 108.889 210.999 108.972C210.621 108.645 210.582 108.68 210.54 108.153C210.654 107.817 210.78 107.454 210.999 107.17C211.271 106.816 211.622 106.566 211.777 106.133L211.602 106.016C210.95 106.138 210.564 106.647 209.974 106.931C209.658 106.76 209.675 106.777 209.565 106.434C209.919 105.587 210.283 105.229 211.085 104.804Z" fill="#222222"/>
</svg>
