<svg width="227" height="272" viewBox="0 0 227 272" fill="none" xmlns="http://www.w3.org/2000/svg">
<path d="M92.2587 26.666C92.4001 23.5941 93.3408 21.3654 95.6177 19.2653C100.139 15.0952 107.644 14.441 113.48 14.7272C123.76 15.1573 133.434 19.7089 140.319 27.3547C148.073 35.8919 151.249 48.0967 150.677 59.4543C150.569 61.6457 150.32 63.8279 149.931 65.9873C149.422 68.9201 148.551 71.7803 148.958 74.7783C149.978 82.2811 157.223 88.8736 154.906 96.7718C154.347 98.6767 153.329 100.28 151.851 101.603C149.556 103.657 146.702 104.608 143.635 104.411C142.972 104.368 142.346 104.241 141.696 104.11C141.104 106.695 140.047 108.967 137.737 110.441C135.111 112.116 131.688 112.173 128.735 111.511C128.379 111.43 128.026 111.339 127.675 111.239C129.364 113.104 131.003 115.412 132.984 116.954C133.595 117.43 134.381 117.583 135.046 117.967C136.764 118.961 138.439 120.042 140.163 121.036L155.614 130.135C157.587 131.285 161.79 133.4 163.31 134.786C164.529 135.896 166.598 140.875 167.425 142.643C175.738 160.418 181.595 182.022 185.47 201.248C187.187 209.77 188.946 218.517 188.507 227.252C188.233 232.68 187.035 238.889 182.827 242.711C179.362 245.859 174.084 247.145 169.49 246.868C164.544 246.57 161.236 243.93 157.714 240.721C156.519 245.026 155.682 251.627 153.875 255.422C154.247 256.807 154.385 258.262 154.677 259.668C155.53 263.768 156.304 267.93 157.272 272H64.8516C65.8465 266.266 67.1998 260.594 68.2698 254.873C66.3434 251.65 65.0168 245.311 64.5876 241.548C60.4701 245.057 56.2594 247.541 50.6441 247.119C46.3173 246.794 41.4028 244.812 38.5401 241.459C34.1724 236.342 34.1262 225.26 34.6907 218.733C35.51 209.267 37.4896 199.744 39.7257 190.521C43.3083 175.303 48.1571 160.411 54.2213 146C55.7864 142.34 57.6364 136.832 60.6657 134.268C63.2348 132.095 66.3385 130.444 69.2296 128.731C73.7028 126.054 78.2236 123.458 82.7898 120.943C84.5495 119.968 87.741 118.65 89.1496 117.476C91.0156 115.919 92.8481 113.082 94.4572 111.16C91.4412 111.825 88.3896 112.306 85.6271 110.538C83.0817 108.908 82.0994 106.178 81.4598 103.374C78.0492 104.047 74.8087 103.888 71.8248 101.912C69.9926 100.698 68.8477 98.9024 68.4337 96.7566C67.4568 91.6954 70.0721 88.5959 72.2007 84.3353C73.4407 81.8533 74.4508 79.044 74.851 76.2905C75.4505 72.1667 73.6251 68.5956 72.6928 64.6695C71.9599 61.5829 71.7208 58.4084 71.7097 55.2431C71.6779 46.1207 73.8877 37.6219 79.1107 30.0542C81.1225 27.1394 83.6411 24.5127 87.2753 23.8661C88.2149 23.6989 89.9202 23.4958 90.72 24.0556C90.9163 24.1932 90.9354 24.3424 91.0257 24.5533C90.9842 24.9343 90.9907 24.9507 90.7284 25.2265C89.6732 25.5925 88.5234 25.3424 87.4408 25.6692C82.7206 27.0945 79.7409 32.2803 77.7218 36.4284C72.7585 46.6241 72.7909 57.7333 75.737 68.4718C75.1251 57.7143 75.0261 46.9639 79.7144 36.9825C80.8182 34.6326 82.0432 32.35 83.7903 30.4081C85.4741 28.5361 87.6292 26.7851 90.2482 26.6323C90.9149 26.5933 91.592 26.6367 92.2586 26.6661L92.2587 26.666Z" fill="#222222"/>
<path d="M70.1445 255.946C88.3821 260.97 134.025 261.32 152.017 255.939C153.09 261.303 154.214 266.658 155.389 272H66.75C67.4237 268.421 68.1307 264.847 68.8707 261.28C69.2426 259.52 69.534 257.636 70.1445 255.946Z" fill="white"/>
<path d="M88.6668 120.006C88.7909 120.213 89.8998 140.163 90.0287 142.094C90.0901 143.011 90.0357 144.605 90.7599 145.238C91.2509 145.329 91.6462 145.389 92.0929 145.113C93.5687 144.202 94.8898 142.696 96.2325 141.578C100.018 138.425 104.088 135.272 108.521 133.082C108.465 137.268 108.377 141.454 108.258 145.639C105.475 145.654 99.4654 145.17 97.0881 145.917C96.437 146.122 95.9046 146.502 95.4311 146.987C94.8642 147.568 94.4254 148.273 94.2949 149.083C93.9153 151.441 94.2743 154.163 94.3059 156.561L94.6284 174.9C88.1739 178.53 84.3886 183.628 79.6384 189.038C79.0973 189.083 78.5358 189.161 78.053 189.423C75.8094 190.645 70.8977 195.444 68.7612 197.386C67.9226 194.45 67.4818 191.613 67.4116 188.56C67.3594 186.291 67.938 175.036 67.6242 174.125C67.4535 173.63 67.2613 173.42 66.7959 173.196C66.4778 173.254 66.2838 173.227 66.0912 173.516C65.4246 174.517 65.3337 189.665 65.5977 191.981C65.8709 194.378 66.5943 196.687 67.1437 199.028C65.2737 200.84 62.8462 202.305 60.7655 203.88C56.0329 207.462 51.2459 211.042 46.5998 214.732C45.5048 215.602 43.9374 216.439 43.1289 217.569C42.8494 217.96 42.7487 218.272 42.8204 218.753C42.9871 218.913 43.0206 219.008 43.2662 219.035C43.8091 219.096 44.3303 218.863 44.7868 218.59C46.5084 217.563 48.1717 216.053 49.7797 214.832C54.1606 211.507 58.4708 208.081 62.8219 204.716C64.9612 203.131 67.0723 201.509 69.154 199.849C69.2646 200.078 69.3766 200.306 69.4905 200.533C73.1357 207.795 76.3088 212.666 84.3282 215.326C80.051 220.274 76.0469 225.47 71.8548 230.493C68.1253 234.963 64.2367 240.423 59.0967 243.321C55.5065 245.345 51.4363 245.753 47.4853 244.643C43.8931 243.634 40.7753 241.808 38.9152 238.481C31.992 226.097 41.3145 190.548 45.1622 177.157C47.231 169.958 57.3364 139.988 61.4582 136.077C63.7159 133.936 66.8549 132.388 69.5286 130.805C75.8427 127.066 82.2458 123.556 88.6668 120.006Z" fill="white"/>
<path d="M62.1464 140.947C62.4284 141.005 62.663 141.085 62.9343 141.179C63.3305 141.566 63.4129 142.031 63.5412 142.551C64.2617 145.478 64.6642 148.516 65.2394 151.477C66.0047 155.263 66.7439 159.054 67.4574 162.85C67.6678 163.966 68.1914 165.598 68.1099 166.721C68.0784 167.158 67.7371 167.408 67.4334 167.683C67.0826 167.622 66.866 167.556 66.5634 167.367C66.2766 166.871 66.1762 166.265 66.0563 165.709C64.9692 160.657 64.1407 155.532 63.1466 150.459C62.7572 148.47 61.4822 143.491 61.5245 141.799C61.5335 141.428 61.8919 141.178 62.1463 140.947L62.1464 140.947Z" fill="#222222"/>
<path d="M133.625 119.273C134.721 119.873 135.789 120.604 136.874 121.237L148.712 128.263C150.785 129.495 160.638 134.941 161.761 136.234C163.509 138.248 164.886 141.843 166.034 144.281C169.537 151.718 172.314 159.602 174.804 167.429C178.643 179.367 181.731 191.534 184.05 203.857C185.632 212.228 187.26 220.724 186.488 229.281C186.078 233.816 184.738 238.795 181.087 241.815C178.039 244.337 173.075 245.363 169.204 244.996C167.155 244.802 165.03 244.138 163.311 242.997C158.473 239.788 152.624 232.194 148.864 227.65L138.986 215.706C139.681 215.368 140.372 215.022 141.059 214.667C145.514 212.312 150.015 208.167 152.394 203.694C153.185 202.206 153.703 200.662 154.203 199.06C158.945 202.786 163.534 206.695 168.302 210.393C171.578 213.098 174.926 215.802 178.278 218.41C178.667 218.713 179.23 219.095 179.756 218.944C180.129 218.838 180.206 218.714 180.356 218.396C180.282 217.793 179.949 217.389 179.533 216.97C178.79 216.223 177.861 215.608 177.03 214.957L172.4 211.308L154.652 197.216C157.109 187.76 156.534 177.567 155.754 167.931C155.609 166.139 155.563 164.325 155.363 162.539C155.301 161.98 155.157 161.136 154.646 160.797C154.468 160.679 154.335 160.758 154.139 160.792C153.591 161.261 153.418 161.915 153.413 162.62C153.395 165.031 153.954 168.298 154.144 170.804C154.766 179.019 155.003 187.675 153.089 195.746C150.894 193.937 147.62 190.361 145.329 189.125C144.527 188.692 143.972 188.686 143.108 188.933C138.591 182.616 134.632 178.483 128.286 173.91C128.564 167.955 129.533 161.959 130.075 156.018C130.253 154.064 130.512 152.047 130.499 150.086C130.49 148.854 130.144 147.89 129.233 147.031C128.597 146.431 127.841 146.048 126.992 145.852C124.17 145.2 117.633 145.568 114.511 145.583C114.288 143.819 114.333 141.997 114.274 140.22C114.19 137.654 114.016 135.059 114.133 132.493C117.441 133.849 120.644 136.171 123.445 138.387C125.007 139.623 130.864 145.526 132.242 145.849C132.606 145.935 132.793 145.863 133.107 145.689C133.329 145.37 133.449 145.111 133.491 144.719C133.703 142.733 133.502 139.442 133.512 137.345L133.625 119.273L133.625 119.273Z" fill="white"/>
<path d="M158.929 140.703C159.182 140.705 159.506 140.71 159.738 140.82C160.11 140.997 160.153 141.174 160.281 141.53C159.987 143.02 155.45 156.434 154.873 157.228C154.646 157.234 154.425 157.201 154.199 157.176C153.873 156.943 153.721 156.86 153.614 156.447C153.45 155.822 158.06 141.939 158.929 140.703Z" fill="#222222"/>
<path d="M109.351 16.7021C116.027 16.0817 123.84 18.0433 129.665 21.2841C138.234 26.0512 144.275 34.3808 146.953 43.719C149.012 50.8975 148.96 58.8966 147.945 66.2494C147.797 67.3174 147.77 68.988 147.263 69.9011C146.958 69.927 146.71 69.9067 146.408 69.8557C146.089 68.4564 146.391 65.9034 146.399 64.3301C146.413 61.5058 146.362 58.7001 146.106 55.886C145.151 45.3654 141.055 34.4711 132.722 27.5724C125.666 21.7323 116.108 18.9452 107.009 19.8273C103.94 20.1251 99.9869 20.8801 97.9607 23.4599C96.7912 24.9492 96.7743 27.1793 96.9706 28.9881C97.3883 32.8383 98.946 36.4238 100.845 39.7583C102.91 43.386 105.751 46.9597 109.213 49.3511C112.031 51.298 115.515 52.4159 118.698 53.6181C124.572 55.8358 130.773 58.2884 135.716 62.2196C136.43 62.7732 137.061 63.4054 137.704 64.0377C137.808 67.9556 137.065 71.8448 136.406 75.6928C134.826 84.9156 133.447 94.6034 125.209 100.381C120.422 103.739 113.265 106.772 107.303 105.7C102.437 104.826 94.5354 99.7697 91.7413 95.6192C88.2032 90.3637 87.069 80.0137 86.3197 73.6589C86.0806 71.6307 85.725 69.5255 85.7346 67.4841C85.7405 66.173 85.9429 64.9059 86.2038 63.6248C92.5267 56.616 94.8817 52.0619 97.2951 42.9736C100.118 46.9531 102.871 50.3194 107.353 52.5289C108.984 53.3332 113.766 55.2604 115.459 54.6843C115.694 54.4356 115.843 54.2286 115.814 53.8614C115.807 53.7723 115.788 53.6846 115.769 53.5974C115.683 53.2145 115.332 53.1 114.993 52.9914C114.01 52.6764 112.98 52.5063 111.989 52.2153C109.165 51.387 106.628 50.1078 104.383 48.1975C99.664 44.1817 97.5839 39.0373 95.7436 33.2956C95.1361 31.4005 94.4501 29.4835 94.3118 27.4835C94.1624 25.3182 94.5947 23.3052 96.0668 21.6374C99.3324 17.9372 104.694 17.0246 109.351 16.702L109.351 16.7021Z" fill="white"/>
<path d="M123.062 70.1038C123.481 70.0601 123.943 69.9851 124.358 70.0838C125.073 70.2541 125.677 70.8224 126.025 71.453C126.59 72.4781 126.668 73.8541 126.341 74.9662C126.031 76.0173 125.498 76.6223 124.545 77.1268C124.082 77.1987 123.653 77.2613 123.194 77.1369C122.565 76.9669 122.052 76.4962 121.732 75.9398C121.133 74.8994 121.1 73.4982 121.4 72.3609C121.68 71.299 122.106 70.636 123.062 70.1038Z" fill="#222222"/>
<path d="M97.8127 70.1246C98.1827 70.0978 98.5787 70.0618 98.9445 70.1413C99.5844 70.2798 100.173 70.7978 100.508 71.3444C101.075 72.268 101.162 73.5174 100.888 74.5491C100.566 75.7626 99.9632 76.462 98.9118 77.1047C98.4784 77.1817 98.0274 77.2314 97.6046 77.0808C96.9202 76.8365 96.401 76.2634 96.0986 75.6159C95.5617 74.467 95.5656 72.9874 96.0594 71.8261C96.4376 70.9369 96.9246 70.4735 97.8127 70.1246Z" fill="#222222"/>
<path d="M111.718 72.9707C112.023 73.0934 112.362 73.2925 112.506 73.6019C112.971 74.6005 111.673 77.6574 111.392 78.7356C111.983 79.384 112.57 80.036 113.153 80.6918C113.633 81.2352 114.462 82.0506 114.31 82.8512C114.091 84.0008 111.299 85.1114 110.324 85.6272C109.973 85.652 109.579 85.7076 109.307 85.4281C109.029 85.143 109.002 84.9701 108.971 84.6006C109.429 83.6073 111.266 82.9815 112.218 82.4615C111.27 81.394 110.338 80.3133 109.421 79.2193C109.619 78.061 109.866 76.9115 110.16 75.7738C110.45 74.6818 110.689 73.5675 111.718 72.9707Z" fill="#222222"/>
<path d="M97.1821 59.8353C97.8169 59.7749 98.5071 59.7603 99.141 59.8483C100.079 59.9785 101.422 60.3379 102.015 61.1182C102.038 61.3063 102.095 61.4442 102.004 61.6208C101.933 61.7598 101.549 62.2153 101.391 62.2494C101.017 62.3301 100.416 62.2045 100.028 62.1628C98.2989 61.9759 96.9511 61.9964 95.3012 62.6048C94.4473 63.0188 93.6892 63.9573 92.8434 64.2504C92.6039 64.3336 92.3372 64.3409 92.1053 64.2396C91.7737 64.095 91.4854 63.875 91.3664 63.5185C91.2665 63.2204 91.4144 62.9173 91.5799 62.6742C92.6742 61.0658 95.3708 60.1024 97.182 59.8353L97.1821 59.8353Z" fill="#222222"/>
<path d="M111.767 96.0005C109.997 96.128 107.267 95.5 106.487 94.0245C105.953 93.6361 105.557 93.2732 105.457 92.5977C105.599 92.1955 105.688 92.1298 106.012 91.8433C106.967 91.6403 108.267 91.8433 109.267 91.8433H109.51C111.888 92.0009 112.916 91.8433 115.344 91.7807L115.424 91.8289C115.465 91.792 115.509 91.7572 115.549 91.7178C115.562 91.7048 115.569 91.6876 115.579 91.6724C115.647 91.709 115.716 91.7426 115.782 91.7823C116.114 91.9828 116.293 92.1966 116.401 92.5711C116.37 92.7826 116.338 92.9719 116.218 93.1555C115.353 94.4804 113.238 95.7205 111.767 96.0005Z" fill="#222222"/>
<path d="M123.077 59.4955C125.445 59.739 127.774 60.5109 129.461 62.2767C130.036 62.8787 130.518 63.5977 130.481 64.4557C130.287 64.7882 130.263 64.8412 129.925 65.0153C129.489 64.9964 129.213 64.9846 128.831 64.7417C127.288 62.9941 125.719 61.8292 123.337 61.6829C122.647 61.6405 121.898 61.5737 121.285 61.2227C120.953 61.0324 120.863 60.9034 120.78 60.5401C120.843 60.4042 120.847 60.3765 120.962 60.2474C121.532 59.6076 122.283 59.5455 123.077 59.4955Z" fill="#222222"/>
<path d="M108.448 195.565C108.499 195.637 108.572 195.697 108.601 195.78C108.714 196.103 108.558 199.824 108.557 200.413C108.523 219.583 107.579 238.745 107.311 257.912C96.958 257.856 86.6242 257.012 76.3992 255.387C74.5606 255.089 71.2416 254.962 69.8962 253.653C67.8711 250.645 66.7479 243.591 66.3525 239.901C67.848 237.814 69.8144 235.975 71.4758 234.003C75.3722 229.377 79.108 224.637 82.9503 219.972C85.1477 217.303 87.2918 214.601 89.4542 211.905C90.6149 210.458 91.8727 209.046 92.9505 207.538C93.3626 206.962 93.807 206.33 93.9578 205.628C94.2678 204.189 93.5698 202.798 92.8067 201.628C98.3521 200.496 103.454 198.155 108.448 195.565Z" fill="white"/>
<path d="M114.422 196.461C115.906 196.835 117.379 197.425 118.825 197.932C122.179 199.107 125.566 200.331 128.774 201.868C128.675 202.831 128.426 203.778 128.404 204.75C128.389 205.414 128.506 205.956 128.874 206.511C129.994 208.198 131.623 209.762 132.95 211.298C134.954 213.62 136.874 216.016 138.839 218.372C144.489 225.147 149.877 232.295 155.836 238.795C155.668 240.513 153.317 252.8 152.713 253.551C152.618 253.669 152.485 253.75 152.371 253.849C150.649 254.506 148.73 254.902 146.93 255.292C136.839 257.476 126.233 257.746 115.937 257.907C115.474 251.643 115.585 245.252 115.427 238.968L114.422 196.461L114.422 196.461Z" fill="white"/>
<path d="M98.3347 150.687C101.448 150.622 104.585 150.747 107.702 150.739C113.96 150.679 120.219 150.678 126.477 150.737C126.256 154.555 125.734 158.407 125.309 162.209C124.94 165.506 124.667 168.814 124.273 172.108C120.823 170.417 112.314 166.699 108.704 167.477C107.974 167.635 107.28 168.005 106.874 168.652C106.502 169.246 106.296 170.143 106.493 170.828C107.128 173.039 118.304 177.715 120.855 179.013C116.65 178.476 112.861 176.907 109.07 175.092C107.399 174.293 105.726 173.381 103.942 172.866C102.801 172.536 101.308 172.289 100.237 172.939C99.6982 173.267 99.3649 173.789 99.2306 174.4C98.8801 175.995 99.7402 177.421 100.598 178.677C98.6717 179.6 96.54 180.164 94.798 181.428C94.8398 181.87 94.8471 182.144 95.1587 182.492C96.4867 183.114 99.421 181.258 100.799 180.809L100.984 180.749C100.492 181.448 99.9385 182.155 99.5499 182.918C98.9878 184.021 98.9723 185.235 99.3535 186.401C100.522 189.972 104.398 192.305 107.56 193.876C101.936 196.981 96.9108 198.76 90.6258 200.13C89.9199 201.142 89.3604 202.305 88.7081 203.361C88.5815 203.316 88.456 203.268 88.3325 203.215C84.0331 201.37 80.4239 197.22 78.6484 192.955C85.7327 185.471 88.744 179.295 98.9729 175.112C98.6869 166.99 98.3036 158.812 98.3347 150.686V150.687Z" fill="white"/>
<path d="M102.306 151.226C103.604 151.024 104.909 151.538 105.72 152.572C106.53 153.605 106.719 154.996 106.213 156.208C105.707 157.42 104.586 158.264 103.281 158.414C101.319 158.641 99.5359 157.255 99.2706 155.298C99.0052 153.341 100.354 151.531 102.306 151.226Z" fill="#222222"/>
<path d="M102.333 153.152C102.913 152.97 103.545 153.116 103.988 153.533C104.43 153.949 104.614 154.572 104.468 155.162C104.321 155.752 103.869 156.217 103.283 156.379C102.398 156.624 101.48 156.114 101.22 155.233C100.961 154.352 101.456 153.426 102.333 153.152L102.333 153.152Z" fill="white"/>
<path d="M109.173 169.056C109.687 169.046 110.183 169.087 110.687 169.185C114.005 169.83 117.451 171.163 120.565 172.482C132.578 177.568 136.788 182.796 143.81 193.342C141.721 197.136 138.782 200.448 135.421 203.163C130.63 200.349 125.276 198.308 120.051 196.455C114.36 194.435 108.393 193.16 103.626 189.22C102.047 187.916 100.871 186.421 100.734 184.281C100.702 183.778 100.752 183.509 101.096 183.14C101.222 183.127 101.353 183.063 101.474 183.1C101.658 183.157 102.905 184.9 103.203 185.212C106.936 189.119 112.154 190.623 117.275 191.707C118.002 191.826 118.8 192.012 119.531 192.032C119.954 192.044 120.052 191.915 120.324 191.616C120.442 191.22 120.438 191.065 120.304 190.674C120.071 190.399 119.856 190.297 119.515 190.211C118.69 190 117.811 189.951 116.973 189.79C114.957 189.401 112.888 188.876 110.982 188.117C106.877 186.482 103.597 183.632 101.847 179.539C104.445 180.806 106.904 182.354 109.51 183.595C112.749 185.136 117.549 186.428 121.167 186.695C121.761 186.738 122.31 186.623 122.757 186.218C122.834 185.918 122.88 185.823 122.696 185.541C122.126 184.665 119.151 184.465 118.116 184.253C116.507 183.923 114.798 183.642 113.231 183.151C109.939 182.12 102.959 178.932 101.14 175.963C100.886 175.549 100.82 175.27 100.92 174.798C101.488 174.312 102.249 174.399 102.936 174.547C104.607 174.906 106.204 175.838 107.755 176.542C110.249 177.674 112.806 178.817 115.41 179.669C117.828 180.46 120.397 180.969 122.946 181.027C123.599 181.042 124.027 180.921 124.505 180.467C124.603 180.219 124.705 180.079 124.664 179.805C124.326 177.555 111.801 172.996 109.35 171.273C108.82 170.901 108.488 170.649 108.369 169.989C108.538 169.514 108.794 169.378 109.173 169.056Z" fill="white"/>
<path d="M121.527 104.762L121.792 104.818C122.449 106.124 121.487 113.609 122.062 115.839C122.594 116.476 123.453 116.712 124.205 117.014C123.524 118.337 122.468 119.6 121.538 120.767C118.616 124.426 115.213 127.736 112.377 131.443C112.154 136.114 112.466 140.842 112.503 145.517L110.124 145.516C110.109 141.73 110.285 137.928 110.384 134.142L110.393 131.676C106.617 126.613 101.414 122.641 98.2412 117.075L100.195 115.988C100.402 112.365 100.043 108.713 100.366 105.093C101.566 105.712 102.78 106.347 104.052 106.805C109.771 108.861 116.212 107.244 121.527 104.762L121.527 104.762Z" fill="white"/>
<path d="M98.1092 109.839C98.5889 110.612 98.4045 112.716 98.4118 113.691C97.7691 114.575 96.5528 115.669 96.3608 116.78C95.9406 119.212 106.069 128.892 107.677 131.335C107.702 131.372 107.725 131.41 107.749 131.448C104.173 133.068 101.007 135.393 97.8884 137.746C95.8193 139.282 93.9485 140.998 92.0495 142.737C91.6567 140.239 91.6279 137.588 91.4383 135.058C91.0393 129.727 90.5825 124.262 90.596 118.916C93.1777 115.943 95.4457 112.748 98.1092 109.839Z" fill="white"/>
<path d="M123.901 110.025C125.238 110.777 130.305 116.919 131.656 118.497L131.558 143.197C129.822 141.398 127.906 139.762 126.028 138.115C122.825 135.46 119.162 132.562 115.304 130.971C118.062 127.878 124.697 120.627 126.176 117.117C125.64 115.776 124.822 114.623 123.89 113.533C123.803 112.37 123.872 111.19 123.901 110.025Z" fill="white"/>
<path d="M110.432 195.176C111.175 195.369 111.906 195.645 112.635 195.888L113.656 241.768L113.957 252.452C114.006 254.111 114.328 256.225 113.991 257.813C113.641 258.046 113.364 257.987 112.95 257.998L109.127 257.936C109.079 253.401 109.326 248.855 109.481 244.323L109.947 227.602C110.142 221.363 110.296 215.123 110.411 208.881C110.455 204.315 110.304 199.738 110.432 195.176L110.432 195.176Z" fill="white"/>
<path d="M146.271 192.376C147.364 192.826 151.44 196.735 152.663 197.82C152.433 198.89 152.15 199.931 151.73 200.944C149.241 206.955 143.749 211.671 137.828 214.082C135.591 211.699 133.544 209.093 131.339 206.667C132.211 206.563 133.191 206.528 133.993 206.152C138.029 204.259 143.025 198.854 145.227 194.921C145.673 194.123 145.965 193.235 146.271 192.376Z" fill="white"/>
<path d="M76.5477 193.171C77.2459 193.874 77.6951 195.442 78.2309 196.342C78.7264 197.174 79.3364 197.961 79.9421 198.715C82.851 202.334 86.6967 205.885 91.5078 206.392C89.5628 208.748 87.6948 211.169 85.7506 213.527C85.1627 213.436 84.5882 213.324 84.0148 213.162C76.7374 211.11 73.9458 204.622 70.5908 198.585C72.2177 196.556 74.5606 194.845 76.5477 193.171Z" fill="white"/>
<path d="M98.1216 147.373C102.626 147.212 107.167 147.413 111.676 147.396C114.403 147.386 124.963 147.032 126.82 147.494C127.771 147.73 128.253 148.62 128.726 149.395C128.822 151.494 126.859 172.242 126.459 173L126.199 172.933C126.049 172.723 125.995 172.601 125.971 172.338C125.892 171.5 126.222 170.319 126.306 169.45C126.547 166.922 128.606 150.621 128.156 149.541C128.021 149.219 127.705 149.096 127.41 148.958C127.37 148.939 127.329 148.921 127.288 148.902C124.981 148.808 122.65 148.883 120.341 148.884L108.286 148.866C106.065 148.863 99.4406 148.585 97.5722 148.98C96.9549 149.11 96.7011 149.574 96.5654 150.149C96.2028 151.688 96.5435 153.906 96.5908 155.51L96.9089 167.834C96.9541 169.624 97.1486 171.496 97.0654 173.279C97.0505 173.597 97.0085 173.816 96.8125 174.077L96.6173 174.103C96.5939 174.069 96.5668 174.037 96.5474 174.001C96.3533 173.634 96.3514 173.105 96.3359 172.694C96.1664 168.233 96.2276 163.745 96.1306 159.279C96.0688 156.44 95.7891 153.541 95.8573 150.706C95.8711 150.141 95.9682 149.6 96.1808 149.074C96.566 148.12 97.2194 147.778 98.1215 147.373L98.1216 147.373Z" fill="white"/>
<path d="M138.911 68.3486C140.935 69.1208 142.871 70.0253 143.804 72.1365C144.704 74.1733 144.397 76.6845 143.575 78.7004C142.438 81.4908 140.251 83.3851 137.513 84.5262C137.111 84.6024 136.973 84.663 136.582 84.52C136.549 83.3048 137.661 77.9079 137.988 76.4964C139.039 75.4881 140.407 75.17 141.752 74.7176C141.943 74.4246 141.986 74.2548 142.013 73.9071C141.875 73.6933 141.877 73.618 141.628 73.519C140.63 73.1219 139.354 73.6532 138.422 74.0182C138.624 72.1329 138.827 70.2433 138.911 68.3486Z" fill="white"/>
<path d="M83.5093 69.3722C83.6642 69.408 83.7848 69.4816 83.925 69.5546C84.4199 70.5005 84.3347 72.2285 84.4106 73.2881C83.4215 73.3504 81.3453 73.4217 80.7057 74.3104C80.4259 74.699 80.4899 75.1314 80.6126 75.5581C81.3416 76.3088 83.0524 74.7204 84.3962 75.172C84.9346 75.7191 85.8503 83.3764 86.0032 84.6822C85.2147 84.5205 84.403 84.32 83.674 83.97C81.3157 82.8383 79.654 80.5995 78.8556 78.1485C78.2766 76.3714 78.1937 74.4728 79.0886 72.7775C80.0359 70.983 81.6327 69.9737 83.5093 69.3721V69.3722Z" fill="white"/>
<path d="M130.623 203.122C131.351 203.464 132.174 203.767 132.796 204.282L132.649 204.476C132.002 204.552 131.254 204.751 130.659 204.456C130.41 204.025 130.55 203.588 130.623 203.122V203.122Z" fill="white"/>
<path d="M91.1324 202.834C91.1871 202.866 91.2463 202.89 91.2962 202.929C91.7681 203.295 91.8922 204.057 91.9435 204.612C91.5024 204.497 91.2822 204.488 90.9528 204.164C90.8346 203.71 91.014 203.273 91.1324 202.834Z" fill="white"/>
<path d="M17.4088 42.9201C19.3084 42.7633 21.1231 42.849 22.9564 43.4119C25.3123 44.135 27.5201 45.5995 29.0086 47.5777C34.5187 54.9023 28.7903 62.3451 29.3382 69.6136C29.4956 71.7029 30.4504 73.479 31.4014 75.2991C29.2607 76.7066 27.2562 78.4119 25.016 79.6502C19.3412 72.9204 23.6288 65.2698 23.7844 57.8251C23.5819 55.6158 22.9108 53.6663 21.1874 52.1627C19.9398 51.0739 18.34 50.6215 16.6996 50.7647C14.3784 50.9675 12.2784 52.4512 10.8004 54.1804C8.14949 57.2819 7.33676 61.1087 7.66275 65.0904C5.24682 65.7292 2.77252 66.2365 0.3402 66.8216C0.302989 66.6105 0.269975 66.3983 0.24093 66.1857C-0.523889 60.7593 0.494453 55.7728 3.83791 51.3815C7.09423 47.1048 11.9895 43.6412 17.4088 42.9201Z" fill="#B8BBFD"/>
<path d="M180.043 0.0600536C184.301 -0.349794 189.002 1.38564 192.438 3.81672C195.894 6.26223 198.623 9.81282 199.31 14.0655C199.715 16.4346 199.375 18.8709 198.339 21.0396C194.858 28.2463 187.247 27.812 181.492 31.7646C179.565 33.0886 178.293 34.9902 176.956 36.865C174.754 35.4313 172.533 34.5373 170.071 33.663L170.919 31.8681C173.21 27.4507 177.021 25.5096 181.494 23.8297C183.32 23.1438 185.165 22.4609 186.786 21.3539C188.73 20.0262 190.364 18.1628 190.776 15.7744C191.076 14.0336 190.732 12.1901 189.665 10.7642C188.23 8.84756 185.729 7.64775 183.382 7.35943C179.699 6.90708 176.782 8.41637 173.96 10.621C172.396 8.67398 170.179 7.15301 168.787 5.08157C171.783 2.12695 175.913 0.483589 180.043 0.0599957V0.0600536Z" fill="#B8BBFD"/>
<path d="M205.534 50.8134C209.66 50.4513 213.71 51.1797 217.302 53.321C221.348 55.733 225.094 59.5466 226.212 64.2344C226.785 66.5937 226.591 69.0742 225.657 71.3153C225.009 72.892 223.988 74.2364 222.741 75.3895C217.834 79.9272 211.928 79.1024 207.06 82.3071C205.249 83.4997 204.051 85.2792 202.927 87.0894C201.008 85.7699 198.972 84.7076 196.883 83.6895L196.75 83.5359C196.759 83.4831 196.763 83.4296 196.776 83.3776C197.048 82.3201 198.081 81.0288 198.729 80.1577C201.773 76.0609 204.972 75.1052 209.641 73.6755C211.039 73.2477 212.437 72.8044 213.718 72.0861C215.684 70.9837 217.422 69.0731 217.982 66.8571C218.427 65.0962 218.051 63.2849 217.085 61.7646C215.768 59.6924 213.618 58.3774 211.25 57.8455C207.314 56.9614 204.207 58.1524 200.909 60.2169C199.457 58.5128 198.003 56.83 196.416 55.2502C198.784 52.8675 202.233 51.2911 205.534 50.8134Z" fill="#F44817"/>
<path d="M206.477 123.024C207.263 123.063 208.043 123.106 208.819 123.25C212.879 124.044 216.47 126.393 218.825 129.795C220.329 132.007 221.109 134.796 220.596 137.454C220.292 139.037 219.526 140.495 218.394 141.642C214.55 145.585 209.283 144.81 204.756 146.912C203.294 147.591 202.958 148.857 201.743 149.664C200.748 149.785 198.392 147.72 197.607 147.156C197.4 147.011 197.206 146.856 197.009 146.698C196.813 146.157 196.885 145.77 197.135 145.263C197.552 144.418 198.298 143.69 199.004 143.079C202.171 140.338 205.385 140.35 209.088 139.045C210.638 138.498 212.303 137.606 213.005 136.037C213.45 135.045 213.387 133.938 212.977 132.945C212.306 131.322 210.786 130.08 209.164 129.479C206.554 128.512 204.133 129.297 201.736 130.393C200.985 129.53 198.23 126.957 198.023 126.06C197.976 125.856 198.13 125.691 198.255 125.546C199.429 124.183 204.633 123.129 206.477 123.023V123.024Z" fill="#222222"/>
<path d="M205.256 124.137C208.811 123.829 212.361 125.091 215.146 127.277C217.551 129.164 219.344 131.919 219.677 134.998C219.845 136.553 219.529 138.045 218.76 139.407C215.384 145.384 207.2 143.293 202.498 147.158C202.015 147.556 201.622 148.086 201.233 148.573C200.367 147.981 199.557 147.272 198.719 146.636L198.238 146.237C198.157 145.872 198.168 145.657 198.33 145.31C198.664 144.597 199.415 144.021 200.038 143.568C203.215 141.256 206.315 141.173 209.829 139.9C211.55 139.276 213.25 138.206 214.003 136.465C214.554 135.188 214.469 133.773 213.933 132.508C213.175 130.718 211.533 129.341 209.762 128.604C207.07 127.485 204.664 127.996 202.06 129.055C201.058 128.166 200.184 127.072 199.286 126.076C201.218 125.196 203.141 124.421 205.256 124.137Z" fill="white"/>
<path d="M50.6279 2.18164C51.2901 2.18843 51.9485 2.20022 52.6053 2.29339C54.8828 2.61645 56.8887 3.69409 58.2517 5.58632C61.9442 10.713 57.8501 16.2878 56.9248 21.4909C57.2004 22.5315 58.065 23.6781 57.9761 24.7689C57.9414 25.1945 57.764 25.4099 57.4237 25.6516C56.9008 26.0227 53.2413 27.541 52.7006 27.3874C52.2387 27.2562 52.001 26.8242 51.7946 26.4283C49.9057 22.8059 51.395 18.6685 52.4895 15.0605C52.9091 13.5893 53.3468 11.6468 52.6392 10.2083C52.3338 9.58702 51.818 9.15583 51.1584 8.95091C49.9895 8.5877 48.5061 8.83548 47.4371 9.39607C44.3889 10.9942 44.4075 13.7642 43.4123 16.4517C43.273 16.8288 43.172 16.9686 42.819 17.1508C41.6419 17.1846 38.4099 16.7904 37.4919 16.1942C37.2663 15.8952 37.1704 15.6812 37.1523 15.3118C37.0339 12.9077 39.1018 8.62526 40.7189 6.78423C43.3714 3.76357 46.6813 2.44782 50.628 2.18164H50.6279Z" fill="#222222"/>
<path d="M50.3267 3.30176C51.1578 3.32252 51.9804 3.35548 52.8004 3.50225C54.6487 3.83308 56.2634 4.73329 57.3277 6.30901C60.8556 11.5332 56.4479 15.862 55.8091 20.6755C55.6213 22.0912 56.7279 23.3534 56.4732 24.7635C55.8393 25.3439 54.0277 26.0233 53.1769 26.0176C52.9445 25.9028 52.8272 25.8825 52.6738 25.6629C52.3585 25.2105 52.2877 24.5752 52.2119 24.041C51.654 20.1217 53.53 16.8552 54.0971 13.0873C54.2787 11.8428 54.2618 10.4665 53.5903 9.35992C53.0618 8.48915 52.2276 7.94576 51.2485 7.70489C49.6625 7.31477 47.9285 7.69102 46.5653 8.55857C43.9127 10.2467 42.9612 13.1629 42.2855 16.063C41.0052 15.7043 39.6852 15.5205 38.375 15.3073C38.7828 12.5058 39.6386 9.8833 41.4906 7.69499C43.774 4.99659 46.8385 3.59134 50.3267 3.30182V3.30176Z" fill="white"/>
<path d="M14.8554 113.968C16.5573 113.804 18.2809 113.904 19.9033 114.47C24.923 116.221 26.2044 121.287 25.1209 126.038C24.6026 128.31 23.6071 130.436 23.4825 132.797C23.3677 134.967 23.8375 136.682 24.789 138.615C23.2027 139.434 21.5175 140.446 19.817 140.987C17.0175 135.625 18.18 132.025 19.7916 126.589C19.8827 126.219 19.951 125.847 20.0046 125.468C20.2107 124.014 20.0367 122.442 19.0948 121.259C18.2336 120.176 16.8737 119.61 15.5215 119.482C13.8405 119.324 12.2883 119.933 11.0227 121.022C8.57229 123.131 7.9065 126.643 7.70233 129.71C5.77878 129.565 3.83291 129.567 1.9043 129.532C2.38822 126.039 3.14878 122.924 5.18178 119.985C7.48211 116.659 10.9136 114.691 14.8554 113.968H14.8554Z" fill="#F44817"/>
<path d="M194.839 89.4624C197.505 89.0321 200.012 90.8522 200.429 93.5205C200.846 96.1888 199.013 98.6869 196.342 99.09C193.691 99.4902 191.215 97.6734 190.801 95.0245C190.387 92.3755 192.191 89.8899 194.839 89.4624Z" fill="#F44817"/>
<path d="M33.1482 80.8459C35.7825 80.3201 38.3439 82.0321 38.8654 84.6676C39.3871 87.3028 37.6713 89.8614 35.0349 90.3789C32.4048 90.8953 29.8531 89.184 29.3327 86.5544C28.8121 83.9247 30.5195 81.3704 33.1482 80.8459Z" fill="#B8BBFD"/>
<path d="M169.19 39.7341C171.846 39.3382 174.316 41.1841 174.689 43.8441C175.062 46.5042 173.194 48.9578 170.531 49.3072C167.901 49.6524 165.484 47.8128 165.116 45.1857C164.747 42.5583 166.566 40.1253 169.19 39.7341Z" fill="#B8BBFD"/>
<path d="M194.107 150.82C195.508 150.42 197.016 150.807 198.052 151.833C199.087 152.858 199.489 154.362 199.103 155.767C198.717 157.172 197.603 158.26 196.189 158.612C194.053 159.144 191.885 157.866 191.317 155.739C190.749 153.613 191.991 151.424 194.107 150.82Z" fill="#222222"/>
<path d="M194.472 151.798C196.069 151.366 197.715 152.31 198.148 153.907C198.582 155.504 197.641 157.151 196.044 157.587C194.445 158.024 192.794 157.08 192.36 155.48C191.925 153.88 192.871 152.23 194.472 151.798L194.472 151.798Z" fill="white"/>
<path d="M58.7776 27.9907C60.838 27.9591 62.5322 29.6075 62.5564 31.668C62.5807 33.7285 60.926 35.4167 58.8656 35.4336C56.8153 35.4503 55.1378 33.806 55.1135 31.756C55.0893 29.7059 56.7278 28.0223 58.7776 27.9907Z" fill="#222222"/>
<path d="M58.7216 29.2065C59.1401 29.2025 59.4907 29.2237 59.8785 29.396C60.4905 29.6682 61.0213 30.1163 61.2616 30.7557C61.5241 31.4539 61.4384 32.1966 61.1093 32.8551C60.6676 33.7384 59.9535 34.0478 59.053 34.3213C58.6624 34.2824 58.2884 34.2026 57.9368 34.0218C57.2937 33.6916 56.6942 33.1117 56.4705 32.4114C56.2686 31.7783 56.3236 31.1381 56.6533 30.5586C57.1003 29.7726 57.9035 29.4638 58.7216 29.2065L58.7216 29.2065Z" fill="white"/>
<path d="M25.0659 142.559C26.2214 142.197 27.4823 142.485 28.3662 143.313C29.25 144.14 29.6203 145.38 29.3349 146.556C29.0495 147.733 28.1527 148.665 26.9879 148.996C25.2202 149.498 23.3769 148.487 22.8512 146.726C22.3255 144.965 23.3123 143.108 25.0659 142.559Z" fill="#F44817"/>
</svg>
