<svg width="531" height="367" viewBox="0 0 531 367" fill="none" xmlns="http://www.w3.org/2000/svg">
<path d="M426.139 185.889L419.079 192.947L426.137 200.008L433.198 192.949L426.139 185.889Z" fill="white"/>
<path d="M426.143 202.155L416.924 192.935L426.143 183.714L435.362 192.935L426.143 202.155ZM421.246 192.935L426.143 197.835L431.041 192.935L426.143 188.036L421.246 192.935Z" fill="#222222"/>
<path d="M237.459 236.988L224.175 233.429L233.899 223.704L237.459 236.988Z" fill="white"/>
<path d="M239.62 239.148L221.222 234.218L234.689 220.751L239.62 239.148ZM227.127 232.638L235.299 234.827L233.109 226.657L227.127 232.638Z" fill="#222222"/>
<path fill-rule="evenodd" clip-rule="evenodd" d="M281.599 83.4263C292.963 83.4263 302.176 92.6387 302.176 104.005C302.176 115.369 292.963 124.583 281.599 124.583C270.233 124.583 261.021 115.369 261.021 104.005C261.021 92.6387 270.233 83.4263 281.599 83.4263Z" fill="#222222"/>
<path fill-rule="evenodd" clip-rule="evenodd" d="M298.003 165.148C302.052 165.148 305.338 168.431 305.338 172.482C305.338 176.533 302.052 179.817 298.003 179.817C293.952 179.817 290.667 176.533 290.667 172.482C290.667 168.431 293.952 165.148 298.003 165.148Z" fill="#222222"/>
<path fill-rule="evenodd" clip-rule="evenodd" d="M49.3848 53.8843H62.119V66.6179H49.3848V53.8843Z" fill="#222222"/>
<path fill-rule="evenodd" clip-rule="evenodd" d="M49.3848 291.654H62.119V304.387H49.3848V291.654Z" fill="#222222"/>
<path fill-rule="evenodd" clip-rule="evenodd" d="M468.88 53.9521H481.614V66.6858H468.88V53.9521Z" fill="#222222"/>
<path fill-rule="evenodd" clip-rule="evenodd" d="M468.88 291.72H481.614V304.454H468.88V291.72Z" fill="#222222"/>
<path d="M476.015 299.684H54.9806C54.1363 299.684 53.4521 299 53.4521 298.156V60.1843C53.4521 59.3399 54.1363 58.6558 54.9806 58.6558H476.015C476.859 58.6558 477.543 59.3399 477.543 60.1843V298.157C477.543 299 476.859 299.684 476.015 299.684ZM56.5098 296.628H474.487V61.7122H56.5098V296.628Z" fill="#222222"/>
<path d="M87.1218 1.52881H273.242C273.805 1.52881 274.26 1.98411 274.26 2.54703V193.557C274.26 194.12 273.805 194.575 273.242 194.575H87.1218C86.5588 194.575 86.1035 194.12 86.1035 193.557V2.54703C86.1035 1.9847 86.5588 1.52881 87.1218 1.52881Z" fill="white"/>
<path d="M273.241 196.104H87.1225C85.7188 196.104 84.5752 194.962 84.5752 193.558V2.54732C84.5752 1.14357 85.7188 0 87.1225 0H273.241C274.647 0 275.788 1.14357 275.788 2.54732V193.558C275.788 194.962 274.647 196.104 273.241 196.104ZM87.6316 193.047H272.731V3.05702H87.6316V193.047Z" fill="#222222"/>
<mask id="mask0_112_8535" style="mask-type:luminance" maskUnits="userSpaceOnUse" x="86" y="1" width="189" height="194">
<path d="M87.1218 1.52881H273.242C273.805 1.52881 274.26 1.98411 274.26 2.54703V193.557C274.26 194.12 273.805 194.575 273.242 194.575H87.1218C86.5588 194.575 86.1035 194.12 86.1035 193.557V2.54703C86.1035 1.9847 86.5588 1.52881 87.1218 1.52881Z" fill="white"/>
</mask>
<g mask="url(#mask0_112_8535)">
<path fill-rule="evenodd" clip-rule="evenodd" d="M80.9912 -9.22705H284.327V25.8169H80.9912V-9.22705Z" fill="#222222"/>
</g>
<path d="M106.871 40.728H163.715C166.53 40.728 168.81 43.0087 168.81 45.8203V103.38C168.81 106.192 166.53 108.472 163.715 108.472H106.871C104.057 108.472 101.778 106.192 101.778 103.38V45.8203C101.779 43.0087 104.058 40.728 106.871 40.728Z" fill="white"/>
<path d="M163.715 110.072H106.873C103.18 110.072 100.178 107.071 100.178 103.381V45.8205C100.178 42.1296 103.18 39.127 106.873 39.127H163.715C167.408 39.127 170.411 42.1296 170.411 45.8205V103.381C170.411 107.072 167.407 110.072 163.715 110.072ZM106.872 42.3288C104.946 42.3288 103.378 43.8946 103.378 45.8211V103.381C103.378 105.306 104.946 106.871 106.872 106.871H163.715C165.641 106.871 167.209 105.305 167.209 103.381V45.8211C167.209 43.8946 165.641 42.3288 163.715 42.3288H106.872Z" fill="#222222"/>
<path d="M258.778 55.1562H177.282C176.438 55.1562 175.754 54.472 175.754 53.6276C175.754 52.7833 176.438 52.0991 177.282 52.0991H258.778C259.622 52.0991 260.306 52.7833 260.306 53.6276C260.307 54.472 259.622 55.1562 258.778 55.1562Z" fill="#222222"/>
<path d="M258.778 66.5672H177.282C176.438 66.5672 175.754 65.883 175.754 65.0392C175.754 64.1949 176.438 63.5107 177.282 63.5107H258.778C259.622 63.5107 260.306 64.1949 260.306 65.0392C260.307 65.883 259.622 66.5672 258.778 66.5672Z" fill="#222222"/>
<path d="M258.778 77.7732H177.282C176.438 77.7732 175.754 77.0891 175.754 76.2447C175.754 75.4009 176.438 74.7168 177.282 74.7168H258.778C259.622 74.7168 260.306 75.4009 260.306 76.2447C260.307 77.0891 259.622 77.7732 258.778 77.7732Z" fill="#222222"/>
<path d="M258.778 89.1824H177.282C176.438 89.1824 175.754 88.4983 175.754 87.6539C175.754 86.8101 176.438 86.126 177.282 86.126H258.778C259.622 86.126 260.306 86.8101 260.306 87.6539C260.307 88.4983 259.622 89.1824 258.778 89.1824Z" fill="#222222"/>
<path d="M188.684 124.2H107.189C106.344 124.2 105.66 123.516 105.66 122.672C105.66 121.828 106.344 121.144 107.189 121.144H188.684C189.528 121.144 190.213 121.828 190.213 122.672C190.213 123.516 189.528 124.2 188.684 124.2Z" fill="#222222"/>
<path d="M188.684 135.61H107.189C106.344 135.61 105.66 134.926 105.66 134.081C105.66 133.237 106.344 132.553 107.189 132.553H188.684C189.528 132.553 190.213 133.237 190.213 134.081C190.213 134.925 189.528 135.61 188.684 135.61Z" fill="#222222"/>
<path d="M188.684 146.816H107.189C106.344 146.816 105.66 146.132 105.66 145.287C105.66 144.443 106.344 143.759 107.189 143.759H188.684C189.528 143.759 190.213 144.443 190.213 145.287C190.213 146.132 189.528 146.816 188.684 146.816Z" fill="#222222"/>
<path d="M188.684 158.225H107.189C106.344 158.225 105.66 157.541 105.66 156.696C105.66 155.852 106.344 155.168 107.189 155.168H188.684C189.528 155.168 190.213 155.852 190.213 156.696C190.213 157.541 189.528 158.225 188.684 158.225Z" fill="#222222"/>
<path fill-rule="evenodd" clip-rule="evenodd" d="M138.268 8.80566C140.631 8.80566 142.546 10.7209 142.546 13.0849C142.546 15.4483 140.631 17.363 138.268 17.363C135.903 17.363 133.988 15.4477 133.988 13.0849C133.989 10.7209 135.903 8.80566 138.268 8.80566Z" fill="white"/>
<path fill-rule="evenodd" clip-rule="evenodd" d="M122.172 8.80566C124.535 8.80566 126.452 10.7209 126.452 13.0849C126.452 15.4483 124.535 17.363 122.172 17.363C119.809 17.363 117.894 15.4477 117.894 13.0849C117.894 10.7209 119.809 8.80566 122.172 8.80566Z" fill="white"/>
<path fill-rule="evenodd" clip-rule="evenodd" d="M105.873 8.80566C108.235 8.80566 110.151 10.7209 110.151 13.0849C110.151 15.4483 108.236 17.363 105.873 17.363C103.51 17.363 101.595 15.4477 101.595 13.0849C101.595 10.7209 103.51 8.80566 105.873 8.80566Z" fill="white"/>
<path fill-rule="evenodd" clip-rule="evenodd" d="M327.431 351.687C328.267 352.158 438.878 351.278 438.878 351.278C438.878 351.278 456.58 349.787 463.631 340.786C470.684 331.783 465.137 315.966 459.353 296.166C453.57 276.366 443.947 235.692 431.747 227.708C419.544 219.725 409.106 217.967 400.777 217.216C392.446 216.466 380.584 215.725 379.178 210.492C377.775 205.26 375.002 186.858 375.002 186.858L377.754 184.005C377.754 184.005 381.983 186.934 386.413 183.801C390.842 180.669 391.967 177.97 391.811 175.551C391.657 173.131 389.673 171.068 389.673 171.068C389.673 171.068 403.33 154.756 399.859 143.155C396.392 131.554 378.472 119.915 369.298 116.567C360.125 113.217 348.114 112.988 346.48 116.669C344.842 120.348 344.951 126.651 344.951 126.651C344.951 126.651 338.334 128.269 337.513 131.847C336.694 135.426 340.978 142.441 340.978 142.441L335.985 149.573L337.412 153.85C337.412 153.85 330.646 169.985 336.087 178.605C344.119 191.328 356.157 189.915 356.157 189.915C356.157 189.915 357.69 197.542 357.584 204.075C357.476 210.607 360.34 214.655 353.202 214.974C346.065 215.292 323.455 210.491 307.869 225.771C292.284 241.054 240.226 294.231 240.226 294.231L263.759 323.467L319.382 275.077C319.383 275.078 326.592 351.214 327.431 351.687Z" fill="white"/>
<path fill-rule="evenodd" clip-rule="evenodd" d="M340.858 141.156L347.682 136.163C347.682 136.163 364.812 134.703 372.437 138.1C380.063 141.496 385.378 142.083 384.052 146.35C382.725 150.621 382.075 151.375 380.689 154.705C379.303 158.033 373.34 175.682 375.087 175.792C376.833 175.901 382.422 172.328 382.422 172.328L385.07 170.495L390.163 169.577C390.163 169.577 405.35 152.776 399.739 139.628C394.131 126.48 372.626 115.676 362.659 113.853C352.693 112.032 348.839 113.369 346.869 116.503C344.899 119.636 344.833 125.059 344.833 125.059C344.833 125.059 338.893 128.289 337.905 131.375C336.914 134.463 340.858 141.156 340.858 141.156Z" fill="#222222"/>
<path fill-rule="evenodd" clip-rule="evenodd" d="M421.543 315.762L412.373 289.888C412.373 289.888 416.231 280.908 431.73 276.644C447.227 272.38 452.512 273.793 452.512 273.793C452.512 273.793 445.429 249.219 440.796 240.378C436.162 231.535 428.109 221.435 418.078 219.292C408.048 217.147 392.407 216.03 392.407 216.03C392.407 216.03 382.788 224 370.403 226.218C358.019 228.436 347.374 224.74 346.055 221.94C344.738 219.137 344.732 214.4 344.732 214.4C344.732 214.4 323.358 210.482 309.585 222.448C295.815 234.414 278.412 253.927 278.412 253.927C278.412 253.927 287.191 256.769 295.119 263.199C306.094 272.094 308.668 282.757 308.668 282.757L320.486 272.978L327.414 349.483L427.654 351.215L423.988 347.955L379.063 340.009C379.063 340.009 368.202 341.834 365.309 337.463C362.418 333.091 361.745 329.007 361.745 329.007C361.745 329.007 355.475 328.18 351.863 325.544C348.252 322.905 347.992 320.55 347.992 320.55C347.992 320.55 335.002 320.028 331.996 318.921C328.991 317.814 328.103 315.129 329.655 312.706C331.207 310.285 333.525 309.55 333.525 309.55C333.525 309.55 337.048 298.823 343.204 294.371C349.358 289.917 358.598 287.99 361.947 291.721C365.297 295.451 365.778 300.839 369.079 304.455C372.381 308.07 380.081 315.151 380.081 315.151L421.543 315.762Z" fill="#4F54C8"/>
<path fill-rule="evenodd" clip-rule="evenodd" d="M391.465 169.905C392.657 171.383 393.424 172.887 393.096 175.815C392.539 180.771 387.866 186.075 381.178 184.879C380.367 184.734 379.404 184.247 378.631 184.269C377.656 184.294 377.115 185.092 376.288 185.49C376.697 189.758 377.436 193.858 378.224 197.917C378.995 201.879 379.437 206.076 381.076 209.324C383.171 213.473 391.289 213.769 397.474 214.417C403.6 215.061 409.907 215.744 415.2 217.068C426.444 219.876 434.143 225.093 439.44 233.567C441.983 237.634 443.806 242.625 445.45 247.929C451.96 268.922 460.205 287.712 465.62 309.248C467.039 314.893 468.398 320.622 468.674 326.564C468.987 333.276 467.041 338.72 464.092 342.353C460.969 346.195 456.281 347.842 450.238 348.871C431.897 351.992 410.968 348.822 394.929 345.512C389.375 344.364 384.12 342.715 378.632 341.539C377.577 341.312 375.881 341.607 374.865 341.539C366.727 340.989 362.809 336.508 360.501 329.517C354.083 329.01 350.639 325.527 347.769 321.472C344.467 321.116 341.369 321.119 337.992 320.86C336.945 320.78 335.739 320.345 335.037 320.454C334.435 320.546 333.332 321.853 332.899 322.287C331.367 323.817 330.66 324.527 329.027 326.157C328.384 326.799 327.308 327.684 327.192 328.195C327.021 328.976 327.472 330.692 327.601 331.962C328.279 338.58 328.959 343.903 329.944 350.298C330.218 352.08 331.781 356.981 329.028 356.715C327.167 356.535 327.23 352.953 326.888 350.808C325.762 343.731 325.052 336.751 324.138 329.619C323.401 329.199 323.159 330.312 322.61 330.64C322.03 330.986 321.141 331.119 320.37 330.741C319.86 329.104 320.966 328.22 321.693 327.481C321.142 325.232 322.821 324.331 323.628 323.101C321.861 307.927 320.36 292.484 318.636 277.264C316.581 278.783 314.355 280.782 312.221 282.663C298.48 294.778 284.697 306.978 270.764 319.331C269.721 320.256 268.41 321.794 267.299 321.674C266.578 321.596 265.929 321.203 265.874 320.349C265.812 319.404 267.129 318.356 268.114 317.498C280.701 306.562 292.719 295.612 305.396 284.598C306.238 283.865 307.786 282.867 307.942 282.153C308.298 280.514 306.801 278.201 306.109 277.061C303.495 272.753 300.305 269.402 296.635 266.06C293.078 262.822 289.324 259.949 284.515 257.708C283.178 257.084 280.943 255.865 279.218 256.18C277.974 256.406 275.779 259.535 274.938 260.457C266.672 269.537 258.597 277.798 250.29 287.145C249.559 287.968 247.344 291.327 245.91 291.321C244.995 291.318 244.439 290.673 244.381 289.996C244.292 288.925 246.025 287.336 246.826 286.432C253.394 279.025 260.229 271.697 266.789 264.633C274.641 256.183 282.167 247.932 290.014 240.086C297.717 232.382 305.32 222.966 315.172 217.473C319.97 214.799 326.355 212.698 333.916 212.38C337.496 212.23 341.526 212.3 345.526 212.481C348.986 212.638 355.247 213.251 356.324 211.463C357.013 210.316 356.727 207.93 356.529 206.066C356.327 204.172 356.103 202.331 355.918 200.768C355.446 196.804 354.665 193.666 354.899 190.379C348.462 189.995 343.899 188.039 340.231 184.573C335.632 180.224 332.309 173.33 334.018 163.793C334.364 161.868 334.769 158.87 336.362 158.801C337.145 158.768 337.493 159.228 337.684 159.515C338.343 160.503 337.104 164.097 336.869 165.933C335.863 173.806 338.662 179.222 342.983 182.841C347.255 186.421 353.782 188.346 361.112 186.304C362.033 186.048 363.096 185.759 364.065 185.388C365.308 184.911 367.884 183.512 367.936 185.999C367.97 187.571 364.685 188.464 363.455 188.851C361.404 189.496 359.398 189.881 357.446 190.176C358.068 192.734 358.423 196.299 358.871 199.953C359.309 203.521 360.027 207.336 359.789 210.342C359.316 216.23 352.761 215.999 346.138 215.64C346.549 221.356 352.138 223.586 357.446 224.808C361.337 225.703 366.105 225.365 370.076 224.704C378.275 223.344 384.812 220.276 389.939 216.658C386.031 215.953 383.002 215.345 380.668 213.602C378.278 211.817 377.432 208.675 376.595 205.353C374.948 198.812 373.826 191.415 373.132 184.167C373.652 183.246 374.483 182.873 375.473 182.332C376.321 181.871 377.367 181.053 378.326 181.009C379.663 180.949 381.203 181.992 382.909 182.028C385.956 182.09 388.346 180.036 389.428 177.546C389.887 176.49 390.694 173.441 389.428 172.35C387.957 171.086 384.369 171.967 383.419 173.267C384.918 173.927 388.234 173.73 388.103 175.711C387.992 177.387 385.729 176.643 384.641 176.323C383.45 175.972 381.484 175.248 380.668 175.306C379.141 175.409 374.898 179.849 373.437 176.425C372.469 174.164 374.676 170.527 375.27 168.684C376.925 163.535 377.423 157.563 379.751 153.203C380.257 152.255 380.918 151.219 381.584 150.045C382.162 149.027 383.001 147.493 382.807 146.275C382.447 144.034 378.82 142.256 376.798 141.386C370.189 138.548 362.952 137.475 353.777 137.108C352.007 137.037 349.791 136.815 348.379 137.108C346.917 137.413 344.869 140.006 343.896 140.98C342.373 142.504 341.304 143.904 340.23 145.565C346.669 143.946 351.23 148.955 351.23 154.73C351.23 160.429 347.531 164.513 343.591 166.24C344.231 167.616 344.717 170.14 342.675 170.112C341.379 170.092 339.997 166.526 340.332 165.121C340.777 163.25 343.066 163.688 344.102 162.473C341.997 161.664 341.87 160.046 342.574 157.482C343.021 155.846 343.668 154.253 345.527 154.222C346.528 154.204 347.45 154.767 348.075 155.75C348.361 152.125 346.6 148.76 343.593 148.314C342.098 148.092 340.527 148.641 339.416 149.129C338.234 149.649 335.47 151.785 334.935 149.434C334.613 148.021 336.307 146.075 336.87 145.156C337.806 143.632 338.551 142.568 339.315 141.49C337.427 138.591 334.556 133.311 337.177 129.469C338.578 127.411 340.783 126.37 343.186 125.191C342.276 116.125 347.183 112.451 355.002 111.949C364.014 111.372 371.654 114.777 377.818 118.061C384.039 121.374 390.211 125.265 394.727 130.081C399.272 134.927 403.478 141.498 401.551 151.165C399.992 158.986 395.919 164.427 391.465 169.905ZM398.292 151.674C399.261 147.781 399.246 143.503 397.883 139.96C396.678 136.827 394.582 134.316 392.28 132.014C387.795 127.529 382.395 123.927 376.494 120.81C370.703 117.753 363.351 114.443 355.204 115.004C350.228 115.348 346.644 117.009 346.239 121.625C346.109 123.141 346.673 125.877 346.239 126.819C345.734 127.921 343.248 128.451 342.063 129.162C341.055 129.77 339.667 130.744 339.314 132.219C338.691 134.812 340.358 136.919 341.352 138.941C343.371 137.779 344.905 134.766 347.258 134.153C348.673 133.784 350.798 134.052 352.759 134.052C358.38 134.052 363.85 134.703 368.142 135.58C374.173 136.813 380.436 138.742 383.928 142.303C384.554 142.94 385.138 143.886 385.457 144.646C386.971 148.243 384.196 151.413 382.808 153.915C379.654 159.594 379.39 167.854 376.698 173.878C380.548 172.535 382.245 168.156 388.411 168.785C392.698 163.708 396.552 158.641 398.292 151.674ZM317.006 219.817C312.16 222.411 307.909 226.165 304.071 230.003C296.895 237.178 289.681 244.64 282.885 252.004C282.447 252.479 281.556 252.889 281.765 253.431C288.669 255.444 293.969 259.753 298.775 264.023C303.571 268.287 308.242 273.265 310.693 279.812C312.883 278.246 314.372 276.701 316.397 274.922C316.983 274.406 318.091 273.773 318.23 273.089C318.361 272.442 318.021 271.132 317.925 270.238C317.69 268.055 317.53 266.384 317.313 264.432C317.202 263.433 317.239 262.282 317.007 261.477C316.829 260.856 316.151 260.088 315.684 259.34C315.242 258.63 314.779 257.88 314.361 257.2C313.657 256.06 311.826 253.946 311.914 252.719C311.966 252.011 312.668 251.257 313.544 251.292C314.984 251.355 316.258 254.448 317.007 255.672C318.054 257.382 319.546 258.986 319.961 260.664C320.518 262.913 320.503 265.536 320.776 267.997C322.691 285.243 324.464 302.976 326.277 320.046C327.243 319.548 328.208 318.18 329.026 317.195C327.016 313.312 329.574 309.022 333.203 308.536C334.047 302.382 337.654 297.863 341.453 294.582C345.061 291.463 349.442 288.903 355.204 288.573C358.002 286.458 360.105 281.878 363.861 280.22C364.733 279.835 365.98 279.442 367.222 279.608C370.299 280.02 370.572 283.673 369.157 286.026C368.659 286.859 367.589 287.899 366.714 288.776C366.351 289.139 364.049 291.021 364.064 291.424C364.064 291.386 364.951 292.334 365.186 292.646C366.294 294.129 366.99 295.734 367.63 297.229C370.196 303.215 372.901 307.139 377.407 311.081C378.322 311.88 379.297 313.047 380.057 313.221C380.64 313.354 381.655 313.209 382.399 313.221C395.246 313.416 407.718 313.76 420.292 313.934C416.634 304.489 412.038 293.164 408.069 283.273C407.441 281.712 405.223 277.502 408.17 277.571C409.657 277.604 410.314 280.332 410.716 281.338C411.434 283.125 411.869 284.426 412.448 286.025C413.608 285.202 414.504 284.092 415.606 283.171C419.053 280.295 423.118 278.245 427.523 276.347C433.86 273.617 441.681 270.756 450.135 271.457C447.816 264.891 445.383 257.844 443.21 250.883C441.015 243.857 438.787 237.305 434.551 232.038C430.521 227.031 425.248 223.39 418.05 221.038C411.794 218.993 404.845 218.368 397.372 217.574C396.303 217.461 394.892 217.035 394.315 217.168C393.86 217.272 393.323 218.122 392.789 218.491C386.817 222.632 379.559 226.226 370.481 227.76C365.801 228.552 360.534 228.69 356.119 227.557C349.438 225.843 343.679 223.017 342.878 215.437C332.488 214.824 323.623 216.276 317.006 219.817ZM374.761 338.482C376.031 338.56 377.447 338.292 379.038 338.482C380.463 338.652 381.925 339.328 383.42 339.706C388.07 340.876 392.605 341.824 397.272 342.76C409.58 345.23 423.344 347.587 438.118 346.936C445.344 346.617 452.269 346.168 457.471 343.676C462.67 341.187 465.055 335.994 465.519 329.213C465.976 322.48 464.012 315.594 462.564 309.758C459.934 299.16 456.603 289.517 453.09 279.709C452.601 278.341 452.226 276.483 451.563 275.533C450.774 274.405 448.214 274.331 446.469 274.413C439.353 274.749 433.842 276.76 427.829 279.505C425.22 280.697 422.652 281.98 420.088 283.682C417.963 285.092 414.498 287.432 414.282 289.792C414.207 290.602 414.77 291.776 415.2 292.849C418.08 300.052 420.928 307.058 423.652 314.035C425.475 314.561 430.465 312.94 430.478 315.665C430.486 317.419 428.182 317.301 425.894 317.192C412.143 316.541 397.139 316.804 384.029 316.276C384.477 317.581 388.726 318.52 388.512 320.757C388.432 321.588 387.773 322.067 387.086 322.082C385.819 322.11 384.029 320.199 383.011 319.432C376.382 314.443 370.121 309.804 366.511 302.219C365.245 299.559 363.975 295.25 361.825 293.356C358.6 290.517 352.063 291.74 348.583 293.356C343.964 295.502 340.605 299.08 338.092 303.441C336.964 305.397 335.141 308.545 337.277 310.876C338.813 309.784 339.432 307.863 340.332 306.294C343.126 301.418 347.015 297.259 354.899 298.144C355.985 297.47 360.309 295.326 360.093 298.347C359.988 299.825 357.189 300.348 355.815 301.098C351.221 303.608 347.32 307.677 348.481 314.544C350.119 310.878 353.161 307.61 356.935 305.58C358.134 304.932 362.401 302.606 362.333 305.58C362.3 307.094 359.579 307.696 358.565 308.228C354.035 310.602 351.729 314.212 349.806 318.822C350.168 319.416 350.635 320.194 351.129 320.858C351.571 321.449 352.212 322.498 352.657 322.386C354.715 318.427 358.266 314.866 362.333 312.404C363.351 311.788 368.297 308.609 368.14 311.996C368.09 313.098 366.71 313.503 365.694 314.034C362.833 315.531 359.979 317.646 358.056 319.841C356.743 321.336 356.207 323.071 354.389 324.118C357.075 326.832 362.276 326.77 366.102 325.442C367.386 324.998 371.873 322.225 371.806 325.34C371.775 326.729 369.469 327.427 368.344 327.887C366.718 328.551 365.34 328.993 363.556 329.212C365.822 334.605 368.344 338.084 374.761 338.482ZM331.472 314.648C332.271 313.579 333.41 312.852 334.018 311.592C332.462 311.836 331.094 312.811 331.472 314.648ZM342.982 312.203C341.665 313.557 340.127 315.16 338.804 316.481C338.374 316.911 337.623 317.321 337.785 317.703C340.418 317.894 343.94 318.265 346.239 318.111C345.592 316.62 345.212 314.86 345.221 312.711C344.434 312.584 343.867 312.233 342.982 312.203Z" fill="#222222"/>
<path fill-rule="evenodd" clip-rule="evenodd" d="M362.028 148.923C367.676 148.353 370.158 151.139 372.417 154.526C373.317 155.872 374.5 157.524 374.252 158.6C374.104 159.24 373.326 159.666 372.622 159.619C371.761 159.562 371.147 158.497 370.788 157.887C369.122 155.058 367.465 151.439 362.435 151.878C360.796 152.021 357.816 153.528 357.853 150.962C357.877 149.13 360.713 149.056 362.028 148.923Z" fill="#222222"/>
<path fill-rule="evenodd" clip-rule="evenodd" d="M362.742 157.48C364.006 157.347 365.7 158.084 365.798 160.026C365.835 160.802 365.183 163.415 364.78 164.202C363.508 166.675 359.609 165.635 359.482 163.081C359.437 162.164 359.823 161.49 359.992 160.841C360.458 159.051 360.655 157.695 362.742 157.48Z" fill="#222222"/>
<path fill-rule="evenodd" clip-rule="evenodd" d="M358.667 174.896C357.123 175.375 355.036 177.562 352.455 177.851C350.502 178.07 347.627 177.968 347.565 176.221C347.475 173.734 350.367 175.119 352.455 174.693C355.249 174.123 356.269 172.047 358.362 171.535C362.753 170.464 362.149 176.524 360.398 178.666C359.499 179.764 358.006 180.614 356.732 181.111C355.249 181.688 351.002 183.022 350.824 180.703C350.722 179.373 351.757 179.121 353.168 178.87C355.793 178.4 358.339 177.534 358.667 174.896Z" fill="#222222"/>
<mask id="mask1_112_8535" style="mask-type:luminance" maskUnits="userSpaceOnUse" x="86" y="1" width="222" height="194">
<path d="M87.1218 1.53174H273.242C273.805 1.53174 274.26 1.98704 307.954 2.54996V193.56C274.261 194.122 273.805 194.578 273.242 193.05H87.1218C86.5588 194.578 86.1035 194.122 86.1035 193.56V2.54996C86.1035 1.98704 86.5588 1.53174 87.1218 1.53174Z" fill="white"/>
</mask>
<g mask="url(#mask1_112_8535)">
<path fill-rule="evenodd" clip-rule="evenodd" d="M258.416 195.881H99.3926C99.3926 195.881 105.369 163.735 114.673 141.177C128.959 106.547 145.644 104.402 145.644 104.402C145.644 104.402 163.029 62.9454 167.444 50.919C171.857 38.8908 177.386 20.7917 188.124 21.0696C198.861 21.3493 221.385 28.4253 229.279 41.8514C237.174 55.2792 237.846 56.288 235.087 75.9789C232.325 95.6704 228.463 123.247 228.463 123.247C228.463 123.247 230.635 123.917 233.558 127.22C236.48 130.525 239.874 135.473 239.874 135.473C239.874 135.473 244.525 125.338 249.042 121.007C253.558 116.674 257.596 110.649 258.924 107.661C260.251 104.674 260.042 99.4553 261.877 99.4086C263.714 99.3636 266.874 100.031 266.563 104.197C266.253 108.366 263.405 116.931 263.405 116.931C263.405 116.931 279.804 108.084 284.798 107.763C289.794 107.443 294.008 109.731 290.401 112.855C286.792 115.982 275.629 120.7 275.629 120.7C275.629 120.7 289.763 117.044 293.354 123.554C296.948 130.062 295.488 136.704 290.912 140.769C286.331 144.834 274.815 144.539 274.815 144.539C274.815 144.539 268.76 147.901 265.546 149.022C262.329 150.144 259.332 150.855 259.332 150.855L258.416 195.881Z" fill="white"/>
<path fill-rule="evenodd" clip-rule="evenodd" d="M241.337 135.358C241.337 135.358 237.309 128.391 232.985 125.272C228.658 122.153 225.751 120.382 225.751 120.382C225.751 120.382 200.469 130.98 176.649 124.05C152.828 117.118 140.993 108.361 140.993 108.361C140.993 108.361 123.543 112.68 110.839 150.638C98.1359 188.594 99.4296 197.192 99.4296 197.192L113.184 196.887C113.184 196.887 146.851 164.214 154.034 158.787C161.216 153.36 167.515 150.888 173.593 151.453C179.671 152.018 185.434 153.8 187.753 152.573C190.073 151.347 189.678 149.606 191.217 151.148C192.759 152.69 193.56 154.087 190.81 156.241C188.06 158.394 184.19 158.583 184.19 158.583L178.178 159.398C178.178 159.398 191.981 165.486 197.738 169.993C203.496 174.501 205.391 178.861 202.933 179.365C200.474 179.87 196.312 177.939 196.312 177.939C196.312 177.939 187.877 184.734 180.419 186.497C172.962 188.26 164.73 188.025 164.73 188.025L148.837 205.037L223.612 201.573L241.337 135.358Z" fill="#B8BBFD"/>
<path fill-rule="evenodd" clip-rule="evenodd" d="M182.337 75.0448L193.134 140.956C193.134 140.956 186.576 144.204 179.89 141.16C173.207 138.115 169.195 136.473 169.195 136.473L163.592 102.653C163.592 102.653 159.716 102.285 155.036 103.059C150.354 103.833 145.255 104.996 145.255 104.996C145.255 104.996 161.964 64.6439 168.278 50.5952C174.59 36.5476 178.532 22.5533 185.495 21.6646C192.456 20.7753 219.538 23.5934 228.993 42.6493C238.45 61.7075 236.179 60.908 235.717 67.404C235.254 73.9018 230.263 103.931 229.298 115.794C228.334 127.656 227.77 145.948 227.77 145.948L207.805 144.93L199.145 110.394C199.145 110.394 190.394 109.587 191.095 105.504C191.799 101.424 195.883 90.8355 195.883 90.8355C195.883 90.8355 208.005 94.7777 214.629 89.4087C221.252 84.0409 221.244 73.1024 221.249 72.1918C221.258 71.283 223.186 68.0155 223.186 68.0155L225.019 65.571L224.613 56.6069L184.474 63.6363C184.474 63.6363 179.819 60.2712 177.038 61.2929C174.255 62.3135 173.89 66.6909 174.898 69.7474C175.91 72.8056 182.337 75.0448 182.337 75.0448Z" fill="white"/>
<path fill-rule="evenodd" clip-rule="evenodd" d="M230.114 121.336C234.081 124.703 237.8 128.318 240.301 133.151C242.232 125.594 246.934 120.824 251.607 115.733C253.792 113.353 255.988 110.75 257.413 107.177C257.995 105.719 258.636 103.709 259.246 101.882C259.846 100.08 260.626 97.7756 262.608 97.908C265.938 98.1304 268.181 102.143 268.208 106.057C268.232 109.003 267.065 111.834 266.173 113.9C269.775 112.114 273.235 110.334 277.683 108.604C280.998 107.314 287.365 104.6 291.23 106.771C292.537 107.504 293.198 109.113 292.656 111.049C291.415 115.483 286.524 116.861 282.471 118.485C287.853 118.575 291.851 119.247 294.388 121.846C298.869 126.437 296.987 135.704 293.573 139.874C290.866 143.181 286.465 144.942 281.248 145.68C279.46 145.935 277.494 145.641 275.543 145.988C274.462 146.177 273.122 147.204 272.08 147.717C268.619 149.431 264.751 150.908 260.571 151.791C259.916 166.415 259.308 180.595 258.634 195.694C258.536 197.894 258.788 200.542 257.004 200.581C254.915 200.63 255.493 197.076 255.579 195.286C256.225 181.756 256.734 169.402 257.311 155.866C257.387 154.046 257.246 150.499 257.92 149.653C258.599 148.804 260.678 148.723 262.404 148.227C265.706 147.277 268.05 146.196 270.857 144.866C272.026 144.312 273.628 143.13 274.727 142.931C276.588 142.594 278.475 142.905 280.127 142.727C284.997 142.2 288.954 140.822 291.432 137.429C286.789 137.775 281.815 137.98 276.765 138.244C275.219 138.326 273.174 138.662 273.097 137.023C273.019 135.282 275.255 135.481 277.174 135.393C282.385 135.151 287.889 134.658 293.062 134.476C293.658 133.001 293.984 131.257 293.98 129.178C288.708 129.452 283.191 129.952 277.682 130.3C275.796 130.42 273.339 130.773 273.198 129.178C273.034 127.292 275.563 127.441 277.174 127.345C282.614 127.027 288.044 126.636 293.369 126.327C292.225 120.503 282.108 121.277 275.95 122.559C274.045 122.954 269.463 125.056 269.533 122.151C269.57 120.644 272.308 119.774 273.506 119.198C275.145 118.408 276.712 117.73 278.19 117.058C281.45 115.575 285.296 114.531 287.665 112.882C288.657 112.19 289.632 111.047 289.802 109.622C287.455 108.598 284.791 109.404 282.673 110.031C276.236 111.93 270.496 115.249 265.051 118.076C266.183 120.957 266.664 125.511 265.458 128.976C264.94 130.465 264.32 131.671 263.32 133.152C262.814 133.902 261.433 136.289 260.06 136.208C259.386 136.168 258.696 135.482 258.634 134.884C258.503 133.626 260.295 132.302 261.079 131.116C262.779 128.542 263.674 125.221 262.81 121.235C262.648 120.48 262.343 119.625 262.097 118.892C261.833 118.104 261.354 117.262 261.384 116.549C261.419 115.781 262.079 115.157 262.505 114.411C264.231 111.386 267.073 103.829 262.81 101.169C261.094 105.91 259.965 110.088 257.412 113.596C254.888 117.065 251.753 119.836 249.06 123.068C246.357 126.312 244.423 130.168 243.049 134.884C239.066 148.589 235.429 162.605 231.54 176.646C229.377 184.455 227.137 192.814 224.817 201.092C224.444 202.427 223.977 203.608 222.984 203.639C220.418 203.721 221.755 200.629 222.271 198.749C227.539 179.543 232.508 161.075 237.956 141.708C238.335 140.369 239.105 138.706 239.077 137.737C239.048 136.697 237.866 134.956 237.346 134.068C235.341 130.65 232.843 127.671 229.91 125.309C229.695 130.202 229.502 136.4 229.502 142.319C229.502 144.064 229.955 146.499 229.096 147.412C228.033 148.54 225.845 147.607 224.206 147.82C225.879 151.94 228.28 156.237 228.28 162.081C228.28 173.654 220.434 180.102 211.372 182.858C210.154 186.794 208.991 190.736 207.705 194.981C207.287 196.358 207.105 198.388 205.565 198.342C202.987 198.262 204.579 194.826 205.055 193.249C205.882 190.519 206.769 187.472 207.602 184.691C208 183.368 208.459 181.197 209.028 180.619C209.771 179.862 212.843 179.125 213.816 178.682C218.578 176.511 221.998 173.544 223.9 168.598C226.716 161.275 223.822 152.884 220.539 147.82C218.443 147.723 216.353 147.717 214.019 147.717C212.264 147.717 209.139 148.059 207.807 147.31C206.827 146.761 206.604 144.584 206.279 143.134C203.928 132.694 200.7 121.522 197.721 112.169C194.328 111.094 190.165 110.17 189.574 106.568C189.169 104.105 190.365 100.484 191 98.4183C191.799 95.8154 192.798 93.4213 193.648 91.4907C191.999 90.2395 190.028 88.9871 188.352 87.6212C187.779 87.1564 187.129 86.7532 187.23 85.6865C187.301 84.9497 187.832 84.4536 188.352 84.3614C189.638 84.1373 190.588 85.4872 191.508 86.1944C194.055 88.151 197.341 90.6617 201.49 90.9827C208.027 91.4871 212.868 88.7003 216.056 85.6865C218.737 83.1521 220.167 80.1188 220.641 75.3972C220.84 73.4117 220.883 71.8914 222.27 71.8323C225.366 71.7016 223.185 79.2117 222.677 80.6947C221.628 83.7671 220.045 85.975 218.196 87.8234C213.974 92.0471 204.371 96.2388 196.397 92.8152C195.25 95.5452 193.97 98.7483 193.138 102.288C192.886 103.366 192.432 104.94 192.629 105.956C192.944 107.585 195.865 108.569 197.618 109.01C198.408 109.21 199.288 109.192 199.758 109.52C200.515 110.046 200.956 112.25 201.388 113.595C204.537 123.419 207.278 134.115 209.741 144.56C215.236 144.701 220.917 144.657 226.344 144.865C226.546 132.307 226.731 120.7 228.177 109.418C229.588 98.4118 231.898 87.8861 233.473 77.4343C234.351 71.6224 234.869 65.8554 234.39 60.118C233.909 54.3546 232.346 50.0748 229.909 45.9594C225.412 38.3671 218.488 32.6137 210.251 28.4415C203.536 25.0392 189.555 19.3248 181.423 25.6896C178.097 28.2949 175.899 32.6391 174.089 36.997C172.217 41.5057 170.795 46.2426 169.202 50.7477C165.999 59.7958 162.006 68.3909 158.201 77.0263C154.392 85.6723 150.755 94.388 147.302 103.307C151.761 102.367 156.382 101.589 161.765 101.576C162.129 99.7369 159.826 93.6868 162.885 93.9345C164.546 94.0717 164.444 96.4789 164.616 98.5194C165.716 111.484 168.366 124.959 171.237 135.393C176.252 138.571 182.64 140.884 191.202 140.181C186.787 119.845 183.193 98.6838 180.811 76.3132C176.371 75.0472 172.777 71.2847 172.867 65.4161C172.923 61.7146 176.078 58.7232 179.488 59.3038C181.909 59.7183 183.201 61.5762 184.888 63.074C197.97 60.6059 212.128 57.7854 225.326 54.7213C226.803 54.3771 229.994 53.2708 230.01 55.5361C230.023 57.4335 227.35 57.2189 226.138 57.6736C226.243 58.3654 226.928 59.4386 227.158 60.322C227.758 62.6394 227.908 67.0936 225.935 67.3514C225.126 67.4573 224.336 66.6909 223.388 66.128C222.05 65.3345 220.123 64.3884 217.991 64.9064C215.491 65.5125 214.295 67.4076 212.898 69.6948C214.358 68.3732 217.354 68.7782 217.687 71.3244C217.929 73.1988 216.67 76.7963 214.937 77.1286C213.62 77.3828 212.912 76.8589 212.185 76.3138C212.443 77.3692 212.676 77.9747 213 78.7606C213.223 79.2981 213.952 80.2169 213.815 81.2038C213.623 82.5857 208.181 85.2075 208.11 82.2238C208.077 80.8266 209.262 80.7462 210.25 80.1856C205.405 70.5788 214.143 57.4028 224.407 63.1757C224.411 61.0671 223.658 59.7142 222.88 58.3873C217.512 59.6403 212.008 60.7578 206.582 61.9517C206.355 62.2077 206.846 62.5128 206.888 62.9723C207.095 65.2801 204.645 64.5291 203.527 64.0916C202.489 63.6854 201.221 63.1964 200.572 63.1757C199.425 63.1366 197.73 63.7208 196.396 63.9905C193.502 64.5729 191.193 65.0317 188.044 65.6201C186.847 65.843 184.791 66.4976 183.664 66.2315C182.737 66.0127 182.055 64.6309 181.422 63.9905C180.729 63.2851 179.834 62.2006 178.368 62.3608C177.062 62.5039 176.46 63.5157 176.228 64.0922C175.008 67.1155 177.34 71.5692 179.998 72.7494C181.151 73.2638 182.453 72.8901 183.359 73.9728C183.828 74.5357 184.001 76.6307 184.174 78.1492C186.617 99.4366 189.769 118.552 193.849 138.041C194.141 139.433 194.956 141.294 194.36 142.319C193.611 143.604 189.265 143.349 187.229 143.338C181.438 143.306 178.21 142.157 173.986 140.283C172.33 139.546 169.541 138.601 168.691 137.429C168.124 136.648 167.901 134.881 167.571 133.56C165.253 124.281 163.314 114.961 162.171 104.631C148.821 105.137 139.3 107.685 132.53 114.207C126.152 120.351 121.671 129.798 117.762 138.551C110.256 155.346 104.733 174.381 101.362 195.489C101.075 197.285 100.504 200.118 98.5106 198.647C97.2925 197.75 98.555 193.456 98.9168 191.312C101.838 174.007 106.585 157.998 112.362 143.439C115.682 135.07 119.513 127.017 123.974 120.013C128.534 112.853 134.559 107.044 143.429 104.529C149.3 89.1154 156.292 74.2732 162.782 58.7953C165.882 51.4023 168.332 42.7746 171.644 35.0605C175.006 27.2358 179.131 20.4312 189.264 19.7825C195.678 19.3716 201.099 21.2206 205.766 23.0418C210.802 25.0078 214.732 27.1436 218.601 29.8665C226.121 35.1604 232.82 42.2389 235.916 51.87C239.371 62.6145 236.911 76.228 235 86.9075C232.969 98.2871 230.807 109.303 230.114 121.336Z" fill="#222222"/>
<path fill-rule="evenodd" clip-rule="evenodd" d="M178.472 64.2943C179.558 64.0389 183.037 66.368 183.258 67.4524C183.456 68.4121 182.791 69.1388 182.139 69.1838C181.164 69.2524 180.298 68.0656 179.593 67.5542C179.098 67.1964 177.476 66.8156 177.454 65.5177C177.44 64.7691 177.989 64.4079 178.472 64.2943Z" fill="#222222"/>
<path fill-rule="evenodd" clip-rule="evenodd" d="M198.028 65.0073C199.294 64.8766 200.986 65.6134 201.085 67.5534C201.122 68.3292 200.469 70.9439 200.066 71.7298C198.794 74.2032 194.895 73.1643 194.768 70.6099C194.723 69.6916 195.108 69.0187 195.279 68.3682C195.743 66.5807 195.943 65.2243 198.028 65.0073Z" fill="#222222"/>
<path fill-rule="evenodd" clip-rule="evenodd" d="M198.844 81.2035C198.802 82.622 199.35 83.4706 200.473 84.5645C201.27 85.3403 202.793 86.0457 202.817 87.1106C202.834 87.871 202.379 88.4919 201.799 88.6391C200.248 89.0335 198.896 87.3175 197.927 86.2958C196.761 85.0688 195.936 83.5445 195.787 82.2235C195.489 79.5378 197.212 76.8433 200.067 78.0472C202.056 78.8856 201.666 81.0036 203.327 82.3252C204.637 83.3671 206.657 82.6747 206.689 84.5645C206.724 86.9173 203.25 85.9522 201.901 85.0742C200.611 84.2339 199.891 82.7119 198.844 81.2035Z" fill="#222222"/>
<path fill-rule="evenodd" clip-rule="evenodd" d="M148.626 160.246C153.305 157.033 158.124 151.293 166.656 150.672C171.403 150.326 175.295 151.69 180 151.69C181.982 151.69 183.776 151.192 185.499 150.672C187.419 150.091 190.652 148.793 192.323 150.163C193.094 150.791 193.391 151.928 193.445 152.81C193.795 158.456 188.132 161.975 181.833 160.35C187.281 163.547 195.278 165.736 200.575 169.822C202.263 171.124 204.109 172.896 204.954 174.814C206.484 178.286 203.826 181.71 199.861 181.128C198.718 180.96 198.053 180.02 196.603 180.212C195.65 180.336 194.582 181.562 193.242 182.351C192.308 182.899 191.186 183.301 190.389 183.776C189.517 184.296 188.766 185.076 188.045 185.51C183.443 188.274 176.41 190.625 169.101 189.787C168.18 189.68 166.973 189.121 166.044 189.277C165.366 189.393 164.166 190.902 163.599 191.519C159.083 196.44 154.567 200.755 149.748 205.574C148.948 206.374 148.081 207.558 147.097 207.511C146.407 207.477 145.735 207.004 145.672 206.186C145.553 204.659 148.698 202.243 149.543 201.397C153.817 197.123 158.4 192.443 162.376 188.36C161.079 187.406 156.571 187.42 156.469 185.202C156.336 182.341 159.672 184.215 161.359 184.796C164.943 186.027 169.35 187.1 174.192 186.832C176.954 186.68 179.412 185.808 181.527 185.1C179.713 184.783 177.948 184.684 175.924 184.286C174.476 184 171.669 183.705 171.443 182.351C170.96 179.472 175.021 180.897 176.739 181.231C180.964 182.052 187.258 182.746 190.286 180.313C185.427 180.098 181.136 179.529 176.84 178.378C175.738 178.083 173.805 177.696 173.784 176.34C173.745 173.844 177.185 175.232 178.877 175.628C182.944 176.58 187.836 177.461 192.629 177.259C188.877 175.257 183.687 173.6 178.979 171.858C177.837 171.436 175.055 170.879 174.804 169.72C174.152 166.728 177.777 168.143 179.286 168.702C184.812 170.746 191.345 172.675 195.991 175.628C197.681 176.703 200.245 179.111 202.305 177.36C201.84 174.207 199.022 172.36 196.704 170.941C190.505 167.152 183.105 164.705 176.229 161.367C175.094 160.817 172.885 159.888 172.867 158.72C172.858 157.99 173.456 157.309 173.987 157.192C175.234 156.916 176.243 158.175 177.044 158.21C177.704 158.239 178.998 157.41 180.202 157.293C182.723 157.047 185.357 157.987 187.229 157.395C189.312 156.736 190.399 154.956 190.285 152.709C186.305 153.362 183.52 154.932 179.285 154.747C175.21 154.567 171.45 153.433 167.061 153.729C160.506 154.168 154.995 158.77 151.17 162.284C146.689 166.403 142.676 170.496 138.949 174.507C132.205 181.764 124.606 188.522 116.947 195.286C115.935 196.179 114.518 197.832 113.381 197.731C112.379 197.641 112.075 196.873 112.058 196.304C112.015 194.893 115.007 192.949 115.826 192.23C124.854 184.301 133.144 176.49 141.393 167.478C142.077 166.732 142.963 166.179 143.328 165.544C143.707 164.884 143.92 163.916 144.244 163.099C145.812 159.151 147.328 155.374 148.931 151.283C149.402 150.076 150.093 146.869 151.477 146.698C154.182 146.37 152.874 149.622 152.292 151.08C151.089 154.088 149.705 157.535 148.626 160.246Z" fill="#222222"/>
<path fill-rule="evenodd" clip-rule="evenodd" d="M167.218 119.542C167.316 120.767 167.629 121.779 167.727 123.005C156.818 119.077 146.722 114.336 137.883 108.338C138.999 107.994 140.056 107.048 140.939 106.81C149.126 111.627 157.758 115.998 167.218 119.542Z" fill="#222222"/>
<path fill-rule="evenodd" clip-rule="evenodd" d="M189.22 124.635C193.826 125.059 198.952 125.493 203.99 125.145C203.974 126.381 204.213 127.367 204.602 128.201C199.714 128.725 194.064 128.291 189.527 127.793C189.558 126.606 189.421 125.588 189.22 124.635Z" fill="#222222"/>
</g>
<path fill-rule="evenodd" clip-rule="evenodd" d="M66.0373 349.188H486.359C490.523 349.188 493.899 352.563 493.899 356.725C493.899 360.89 490.523 364.263 486.359 364.263H66.0373C61.8745 364.263 58.5 360.89 58.5 356.725C58.5 352.563 61.8745 349.188 66.0373 349.188Z" fill="#222222"/>
<path fill-rule="evenodd" clip-rule="evenodd" d="M149.643 289.191C152.148 289.989 156.8 287.45 161.382 283.584C165.965 279.72 164.765 275.569 165.086 271.95C165.406 268.331 170.925 250.998 168.26 246.036C165.592 241.073 153.016 227.008 144.46 229.748C135.905 232.485 134.398 245.706 136.737 249.738C139.078 253.767 146.205 258.731 144.882 263.064C143.559 267.398 136.762 269.579 137.267 275.863C137.771 282.148 147.135 288.394 149.643 289.191Z" fill="white"/>
<path fill-rule="evenodd" clip-rule="evenodd" d="M135.441 247.126C135.441 246.106 135.441 245.088 135.441 244.07C135.787 240.681 136.467 238.17 137.48 235.514C138.902 231.766 140.638 228.277 144.2 227.162C147.984 225.976 152.125 228.456 154.49 230.013C157.11 231.743 158.86 233.355 161.111 235.31C164.992 238.684 170.174 243.191 170.174 250.08C170.174 254.523 168.443 258.694 167.221 262.608C166.585 264.649 165.828 266.603 165.795 268.923C165.762 271.248 166.614 273.449 166.508 276.054C166.346 280.004 164.182 281.862 161.822 283.896C160.87 284.719 158.033 287.683 156.221 287.054C155.615 286.845 155.345 286.28 155.304 285.833C155.193 284.664 156.19 284.134 157.034 283.591C159.312 282.129 162.369 280.064 163.146 277.481C163.916 274.92 162.654 271.856 162.639 269.23C162.623 266.912 163.373 264.657 163.962 262.71C164.562 260.726 165.191 258.688 165.795 256.498C166.413 254.262 167.122 251.946 167.016 249.673C166.754 243.908 162.376 240.496 158.765 237.348C157.01 235.816 155.178 234.277 153.062 232.866C151.359 231.731 148.331 229.546 145.626 230.013C142.954 230.474 141.106 234.498 140.229 236.838C139.095 239.861 137.979 244.647 138.802 247.84C140.145 253.05 145.178 255.006 146.441 259.96C147.445 263.896 144.944 266.312 143.181 268.313C142.053 269.591 140.054 271.166 139.515 272.896C138.624 275.747 139.679 278.767 141.043 280.637C142.8 283.05 146.918 284.751 149.599 286.138C148.811 284.811 148.465 283.787 148.172 282.674C146.001 274.433 152.259 268.143 153.978 261.894C155 258.186 154.932 253.364 153.367 250.181C152.534 248.485 151.502 247.299 149.903 245.7C149.134 244.93 146.104 242.661 146.339 241.219C146.409 240.779 147.049 240.07 147.664 239.996C148.743 239.864 149.435 240.81 150.31 241.625C152.753 243.895 154.902 246.137 156.22 248.858C158.539 253.648 157.963 261.092 155.913 265.459C154.873 267.679 153.655 269.85 152.653 272.181C151.654 274.509 150.653 277.386 150.921 280.433C151.498 286.983 157.892 290.04 157.849 297.341C157.801 305.133 150.906 308.986 148.273 314.759C146.133 319.453 145.41 325.557 145.115 331.77C144.99 334.423 145.201 336.929 143.485 336.966C141.957 336.997 141.791 335.868 141.957 332.584C142.012 331.537 142.176 328.701 142.365 326.881C142.762 323.098 143.467 319.369 144.301 316.49C145.236 313.262 146.762 310.741 148.58 308.445C150.473 306.047 152.617 303.819 153.774 301.314C155.795 296.936 153.651 292.084 151.43 289.295C149.819 290.493 148.243 289.108 146.541 288.175C141.547 285.434 136.062 282.522 136.05 275.137C136.042 270.822 138.084 269.178 140.328 266.886C141.588 265.598 143.546 263.488 143.484 261.489C143.443 260.174 142.432 258.858 141.651 257.82C139.186 254.54 136.121 251.671 135.441 247.126Z" fill="#222222"/>
<path fill-rule="evenodd" clip-rule="evenodd" d="M119.941 283.403C117.506 283.356 102.779 283.743 100.481 277.796C98.1808 271.851 107.866 261.265 104.499 256.749C101.131 252.233 96.9125 250.015 96.8835 243.526C96.8539 237.038 97.7941 230.391 101.749 229.141C105.705 227.892 115.064 230.226 116.874 234.959C118.687 239.694 116.735 247 120.366 251.459C123.997 255.921 129.404 257.91 129.355 264.365C129.307 270.818 125.933 278.258 124.597 279.7C123.258 281.144 122.379 283.448 119.941 283.403Z" fill="white"/>
<path fill-rule="evenodd" clip-rule="evenodd" d="M116.919 280.826C114.488 278.854 111.926 276.31 111.622 271.862C111.434 269.12 112.019 266.132 112.539 263.408C113.01 260.942 113.96 257.52 113.455 255.259C112.65 251.649 108.811 250.789 107.345 247.416C106.856 246.295 106.575 244.133 106.528 242.324C106.485 240.496 106.532 238.331 108.364 238.452C110.664 238.605 109.354 243.744 110.095 245.888C110.844 248.057 114.054 249.802 115.393 251.897C118.7 257.076 114.316 265.39 114.782 271.761C115.378 279.963 126.437 279.308 126.902 288.262C127.133 292.72 125.278 296.183 124.051 299.67C122.838 303.117 121.567 306.722 120.994 310.772C120.121 316.943 120.18 323.863 120.18 331.244C120.18 333.646 120.639 336.601 118.753 336.644C116.809 336.689 117.022 333.79 117.022 331.244C117.022 323.961 117.019 316.92 117.837 310.772C118.649 304.66 120.905 299.576 122.624 294.168C123.162 292.48 123.93 290.483 123.744 288.262C123.562 286.093 122.561 285.065 121.096 283.677C117.924 284.184 113.969 284.086 110.403 283.677C105.212 283.081 99.668 281.758 99.1968 276.752C98.6338 270.762 103.736 265.72 103.577 259.843C103.4 253.339 95.5342 251.074 94.8176 244.156C94.1607 237.834 96.7524 230.535 100.624 228.063C101.875 227.263 103.62 226.772 106.022 227.044C110.87 227.588 116.399 231.697 118.449 235.192C120.472 238.639 119.658 246.245 121.505 249.861C124.165 255.073 130.739 257.901 131.283 264.426C131.588 268.086 130.118 271.146 128.838 273.898C128.296 275.063 127.632 276.355 126.802 277.77C126.146 278.886 125.246 280.83 123.745 280.621C121.544 280.315 122.966 277.985 123.542 277.056C125.041 274.645 126.337 272.233 127.312 269.417C127.793 268.024 128.315 266.281 128.125 264.528C127.808 261.575 124.886 258.742 123.133 256.991C119.779 253.637 117.245 249.9 116.92 243.545C116.803 241.236 116.805 239.148 116.004 237.332C115.111 235.31 113.094 233.737 110.911 232.341C108.937 231.079 105.713 229.584 103.272 230.303C101.116 230.94 99.9164 233.542 99.0957 235.906C98.3258 238.128 97.4927 241.671 98.0775 244.462C98.6268 247.085 100.862 248.982 102.762 251.184C105.012 253.789 107.079 256.889 106.634 261.37C106.237 265.343 104.081 268.974 102.965 272.779C102.557 274.174 102.092 275.756 102.457 277.057C103.004 279.011 106.229 279.804 108.467 280.215C111.363 280.744 113.917 280.761 116.919 280.826Z" fill="#222222"/>
<path fill-rule="evenodd" clip-rule="evenodd" d="M134.914 175.807C141.703 174.224 149.51 179.111 149.413 184.134C149.311 189.158 145.924 200.081 149.161 206.478C152.397 212.879 161.281 221.562 158.512 231.124C155.168 242.67 147.341 242.148 148.248 248.787C149.154 255.425 154.355 260.116 153.008 264.335C151.664 268.554 146.683 279.66 139.36 279.564C132.036 279.469 123.925 272.838 118.831 267.452C113.737 262.065 109.102 249.703 116.869 242.445C124.633 235.187 130.439 225.579 124.226 217.874C118.018 210.168 110.238 195.163 118.985 186.666C127.732 178.17 128.65 177.267 134.914 175.807Z" fill="white"/>
<path fill-rule="evenodd" clip-rule="evenodd" d="M140.417 280.122C141.336 284.076 143.062 288.102 143.371 292.753C143.991 302 138.941 307.075 136.446 313.939C134.782 318.51 134.086 326.259 133.797 332.375C133.7 334.386 134.286 337.814 132.066 337.774C130.085 337.737 130.538 334.9 130.64 332.68C130.927 326.354 131.445 319.934 132.879 314.856C134.869 307.816 139.659 303.15 140.214 295.4C140.576 290.376 138.834 285.885 137.566 281.752C135.395 274.666 133.108 268.078 131.046 260.769C130.065 257.287 128.733 252.938 129.112 249.156C129.491 245.386 131.473 242.057 133.289 239.377C135.247 236.491 137.897 233.942 139.197 231.128C140.334 228.666 141.581 224.527 140.623 221.044C140.06 218.998 138.801 217.298 137.668 215.644C135.396 212.334 133.113 209.445 131.659 205.052C130.989 203.025 130.258 200.528 130.438 198.022C130.571 196.152 131.337 194.626 132.169 193.031C132.681 192.05 134.546 188.113 136.244 190.282C137.227 191.538 135.534 193.309 135.122 194.05C134.415 195.326 133.71 196.829 133.594 198.022C133.432 199.709 133.917 201.587 134.307 202.912C134.722 204.317 135.193 205.787 135.734 206.987C137.833 211.642 141.997 214.964 143.576 219.718C144.192 221.575 144.235 223.789 143.985 225.626C143.058 232.444 139.689 235.782 136.447 240.498C134.546 243.261 132.271 246.634 132.17 250.173C132.101 252.499 132.829 255.008 133.391 257.304C135.05 264.07 137.444 270.369 139.4 276.861C141.466 275.981 143.405 274.295 145.411 272.684C147.362 271.118 149.31 269.428 150.607 267.49C151.372 266.341 151.99 265.234 151.828 263.212C151.364 257.446 144.047 252.801 146.735 245.996C148.593 241.29 153.678 239.923 155.801 236.014C157.767 232.392 158.439 225.657 156.615 221.143C155.275 217.827 152.882 215.634 150.911 212.69C149.048 209.909 147.204 206.122 146.938 202.502C146.705 199.326 147.288 196.502 147.754 194.048C148.152 191.95 149.348 188.521 148.67 185.697C148.179 183.644 146.771 181.693 145.615 180.399C144.236 178.855 142.668 177.769 140.523 177.14C135.959 175.803 131.118 178.421 127.992 180.399C124.748 182.455 122.023 185.052 119.641 188.65C117.275 192.221 114.246 199.002 116.483 204.132C117.986 207.575 120.591 210.27 122.797 213.403C125.32 216.98 128.097 220.827 127.687 226.541C127.201 233.34 122.415 238.341 119.03 242.838C117.854 244.402 116.316 246.247 115.668 248.035C114.173 252.168 114.179 257.894 115.871 261.379C117.431 264.582 121.236 267.441 123.817 269.526C125.208 270.651 126.67 271.716 128.4 272.989C129.669 273.924 133.796 276.139 131.66 277.777C130.14 278.944 127.431 276.23 126.364 275.434C124.623 274.14 123.051 272.889 121.781 271.869C119.034 269.669 115.418 266.886 113.53 263.824C110.91 259.573 110.794 251.486 113.02 246.406C115.937 239.742 122.559 235.753 124.326 227.868C125.663 221.913 121.751 217.34 119.233 214.014C116.269 210.096 112.831 206.189 112.51 201.384C111.998 193.686 116.554 186.869 120.253 182.845C124.65 178.059 130.036 174.536 137.466 173.677C140.988 173.271 144.631 175.106 146.837 177.141C148.965 179.104 151.533 182.507 151.929 185.698C152.039 186.574 151.988 187.555 151.929 188.448C151.597 193.523 149.723 196.658 150.096 202.198C150.591 209.588 156.772 213.599 159.467 219.82C161.74 225.066 160.889 233.486 158.55 237.645C157.485 239.536 155.394 241.252 153.558 242.738C151.893 244.088 149.467 246.08 149.281 248.443C149.077 251.038 150.973 253.586 152.03 255.472C153.48 258.056 155.511 261.011 154.983 265.147C154.862 266.107 154.36 267.128 153.967 267.897C151.21 273.294 145.108 276.901 140.417 280.122Z" fill="#222222"/>
<path d="M115.404 308.311H159.938C163.733 308.311 166.811 310.678 166.811 313.599L160.146 342.475C160.146 345.395 157.778 347.763 154.858 347.763H120.588C117.666 347.763 115.3 345.394 115.3 342.475L108.528 313.599C108.529 310.677 111.607 308.311 115.404 308.311Z" fill="white"/>
<path d="M154.859 349.292H120.589C116.831 349.292 113.772 346.233 113.772 342.475L107.041 313.949C107.001 309.842 110.769 306.783 115.403 306.783H159.938C164.57 306.783 168.339 309.842 168.339 313.6L161.636 342.819C161.675 346.232 158.616 349.292 154.859 349.292ZM115.403 309.84C112.504 309.84 110.057 311.561 110.057 313.599L116.788 342.125C116.828 344.548 118.515 346.235 120.588 346.235H154.858C156.932 346.235 158.617 344.548 158.617 342.475L165.32 313.256C165.281 311.561 162.835 309.84 159.937 309.84H115.403Z" fill="#222222"/>
<path d="M106.356 300.187H169.393C170.503 300.187 171.402 301.132 171.402 302.301L173.149 314.465C173.149 315.633 172.201 316.581 171.033 316.581H104.717C103.548 316.581 102.601 315.633 102.601 314.465L104.345 302.301C104.345 301.132 105.246 300.187 106.356 300.187Z" fill="white"/>
<path d="M171.031 318.109H104.715C102.705 318.109 101.07 316.475 101.07 314.465L102.831 302.083C102.815 300.293 104.402 298.659 106.355 298.659H169.393C171.343 298.659 172.929 300.293 172.929 302.301L174.661 314.248C174.678 316.475 173.041 318.109 171.031 318.109ZM106.355 301.715C106.09 301.715 105.872 301.978 105.872 302.301L104.113 314.682C104.128 314.788 104.392 315.052 104.716 315.052H171.032C171.357 315.052 171.621 314.788 171.621 314.464L169.89 302.518C169.873 301.983 169.654 301.715 169.393 301.715H106.355Z" fill="#222222"/>
<path d="M174.453 335.24H303.765C306.579 335.24 308.86 337.519 308.86 340.333V343.587C308.86 346.399 306.579 348.679 303.765 348.679H174.453C171.639 348.679 169.359 346.399 169.359 343.587V340.333C169.359 337.519 171.639 335.24 174.453 335.24Z" fill="white"/>
<path d="M303.767 350.208H174.454C170.802 350.208 167.831 347.236 167.831 343.586V340.332C167.831 336.682 170.802 333.711 174.454 333.711H303.767C307.419 333.711 310.391 336.682 310.391 340.332V343.586C310.391 347.236 307.419 350.208 303.767 350.208ZM174.454 336.768C172.487 336.768 170.888 338.367 170.888 340.332V343.586C170.888 345.552 172.487 347.151 174.454 347.151H303.767C305.735 347.151 307.333 345.552 307.333 343.586V340.332C307.333 338.367 305.735 336.768 303.767 336.768H174.454Z" fill="#222222"/>
<path d="M144.409 270.002H246.668C249.482 270.002 252.509 271.933 253.428 274.315L275.51 331.597C276.428 333.979 272.521 339.232 269.705 339.232H167.459C164.645 339.232 161.618 337.303 160.7 334.923L138.623 277.674C137.704 275.294 141.593 270.002 144.409 270.002Z" fill="white"/>
<path d="M269.704 340.761H167.459C164.013 340.761 160.418 338.439 159.272 335.473L137.196 278.225C136.364 276.063 137.899 273.458 138.6 272.437C139.915 270.522 142.131 268.473 144.409 268.473H246.668C250.114 268.473 253.709 270.798 254.851 273.765L276.937 331.046C277.762 333.198 276.242 335.775 275.55 336.784C274.226 338.707 271.998 340.761 269.704 340.761ZM144.409 271.53C143.682 271.53 142.252 272.516 141.119 274.167C140.143 275.591 139.905 276.755 140.049 277.125L162.125 334.373C162.822 336.178 165.265 337.705 167.459 337.705H269.704C270.444 337.705 271.887 336.714 273.029 335.054C273.992 333.653 274.226 332.51 274.085 332.146L252.004 274.866C251.305 273.057 248.863 271.531 246.669 271.531H144.409V271.53Z" fill="#222222"/>
<path fill-rule="evenodd" clip-rule="evenodd" d="M201.495 298.275C206.054 298.275 210.852 301.809 212.214 306.169C213.576 310.527 210.985 314.062 206.426 314.062C201.869 314.062 197.068 310.527 195.707 306.169C194.344 301.809 196.935 298.275 201.495 298.275Z" fill="#222222"/>
<path d="M8.58416 349.133H522.416C526.062 349.133 529.018 352.088 529.018 355.734V357.716C529.018 361.363 526.062 364.317 522.416 364.317H8.58416C4.93702 364.317 1.98047 361.363 1.98047 357.716V355.734C1.98047 352.088 4.93702 349.133 8.58416 349.133Z" fill="white"/>
<path d="M522.414 366.299H8.58273C3.85115 366.299 0 362.448 0 357.716V355.734C0 351.002 3.85115 347.153 8.58273 347.153H522.414C527.148 347.153 531 351.002 531 355.734V357.716C531 362.448 527.148 366.299 522.414 366.299ZM8.58273 351.113C6.03364 351.113 3.96053 353.186 3.96053 355.734V357.716C3.96053 360.265 6.03364 362.338 8.58273 362.338H522.414C524.965 362.338 527.036 360.265 527.036 357.716V355.734C527.036 353.186 524.965 351.113 522.414 351.113H8.58273Z" fill="#222222"/>
</svg>
