<svg width="247" height="240" viewBox="0 0 247 240" fill="none" xmlns="http://www.w3.org/2000/svg">
<path fill-rule="evenodd" clip-rule="evenodd" d="M30.5989 149.725C31.5315 149.725 32.2869 150.457 32.2869 151.359C32.2869 152.261 31.5315 152.992 30.5989 152.992C29.6672 152.992 28.9121 152.26 28.9121 151.359C28.9118 150.457 29.6672 149.725 30.5989 149.725Z" fill="#222222"/>
<path fill-rule="evenodd" clip-rule="evenodd" d="M24.8199 149.725C25.7516 149.725 26.507 150.457 26.507 151.359C26.507 152.261 25.7516 152.992 24.8199 152.992C23.8876 152.992 23.1318 152.26 23.1318 151.359C23.1318 150.457 23.8876 149.725 24.8199 149.725Z" fill="#222222"/>
<path fill-rule="evenodd" clip-rule="evenodd" d="M19.0348 149.725C19.9664 149.725 20.7222 150.457 20.7222 151.359C20.7222 152.261 19.9664 152.992 19.0348 152.992C18.1024 152.992 17.3467 152.26 17.3467 151.359C17.3467 150.457 18.1024 149.725 19.0348 149.725Z" fill="#222222"/>
<path fill-rule="evenodd" clip-rule="evenodd" d="M19.0348 149.725C19.9664 149.725 20.7222 150.457 20.7222 151.359C20.7222 152.261 19.9664 152.992 19.0348 152.992C18.1024 152.992 17.3467 152.26 17.3467 151.359C17.3467 150.457 18.1024 149.725 19.0348 149.725Z" fill="#222222"/>
<path fill-rule="evenodd" clip-rule="evenodd" d="M13.2512 149.725C14.1839 149.725 14.9393 150.457 14.9393 151.359C14.9393 152.261 14.1839 152.992 13.2512 152.992C12.3185 152.992 11.5645 152.26 11.5645 151.359C11.5641 150.457 12.3185 149.725 13.2512 149.725Z" fill="#222222"/>
<path fill-rule="evenodd" clip-rule="evenodd" d="M7.47258 149.725C8.40393 149.725 9.15933 150.457 9.15933 151.359C9.15933 152.261 8.40393 152.992 7.47258 152.992C6.53991 152.992 5.78418 152.26 5.78418 151.359C5.78451 150.457 6.54024 149.725 7.47258 149.725Z" fill="#222222"/>
<path fill-rule="evenodd" clip-rule="evenodd" d="M1.68808 149.725C2.61976 149.725 3.37551 150.457 3.37551 151.359C3.37551 152.261 2.61976 152.992 1.68808 152.992C0.755733 152.992 0 152.26 0 151.359C0 150.457 0.755733 149.725 1.68808 149.725Z" fill="#222222"/>
<path fill-rule="evenodd" clip-rule="evenodd" d="M30.5989 149.725C31.5315 149.725 32.2869 150.457 32.2869 151.359C32.2869 152.261 31.5315 152.992 30.5989 152.992C29.6672 152.992 28.9121 152.26 28.9121 151.359C28.9118 150.457 29.6672 149.725 30.5989 149.725Z" fill="#222222"/>
<path fill-rule="evenodd" clip-rule="evenodd" d="M24.8199 149.725C25.7516 149.725 26.507 150.457 26.507 151.359C26.507 152.261 25.7516 152.992 24.8199 152.992C23.8876 152.992 23.1318 152.26 23.1318 151.359C23.1318 150.457 23.8876 149.725 24.8199 149.725Z" fill="#222222"/>
<path fill-rule="evenodd" clip-rule="evenodd" d="M19.0348 149.725C19.9664 149.725 20.7222 150.457 20.7222 151.359C20.7222 152.261 19.9664 152.992 19.0348 152.992C18.1024 152.992 17.3467 152.26 17.3467 151.359C17.3467 150.457 18.1024 149.725 19.0348 149.725Z" fill="#222222"/>
<path fill-rule="evenodd" clip-rule="evenodd" d="M19.0348 149.725C19.9664 149.725 20.7222 150.457 20.7222 151.359C20.7222 152.261 19.9664 152.992 19.0348 152.992C18.1024 152.992 17.3467 152.26 17.3467 151.359C17.3467 150.457 18.1024 149.725 19.0348 149.725Z" fill="#222222"/>
<path fill-rule="evenodd" clip-rule="evenodd" d="M13.2512 149.725C14.1839 149.725 14.9393 150.457 14.9393 151.359C14.9393 152.261 14.1839 152.992 13.2512 152.992C12.3185 152.992 11.5645 152.26 11.5645 151.359C11.5641 150.457 12.3185 149.725 13.2512 149.725Z" fill="#222222"/>
<path fill-rule="evenodd" clip-rule="evenodd" d="M7.47258 149.725C8.40393 149.725 9.15933 150.457 9.15933 151.359C9.15933 152.261 8.40393 152.992 7.47258 152.992C6.53991 152.992 5.78418 152.26 5.78418 151.359C5.78451 150.457 6.54024 149.725 7.47258 149.725Z" fill="#222222"/>
<path fill-rule="evenodd" clip-rule="evenodd" d="M1.68808 149.725C2.61976 149.725 3.37551 150.457 3.37551 151.359C3.37551 152.261 2.61976 152.992 1.68808 152.992C0.755733 152.992 0 152.26 0 151.359C0 150.457 0.755733 149.725 1.68808 149.725Z" fill="#222222"/>
<path fill-rule="evenodd" clip-rule="evenodd" d="M30.5998 155.33C31.5325 155.33 32.2879 156.062 32.2879 156.964C32.2879 157.866 31.5325 158.596 30.5998 158.596C29.6681 158.596 28.9131 157.866 28.9131 156.964C28.9128 156.062 29.6681 155.33 30.5998 155.33Z" fill="#222222"/>
<path fill-rule="evenodd" clip-rule="evenodd" d="M24.8199 155.33C25.7516 155.33 26.507 156.062 26.507 156.964C26.507 157.866 25.7516 158.596 24.8199 158.596C23.8876 158.596 23.1318 157.866 23.1318 156.964C23.1318 156.062 23.8876 155.33 24.8199 155.33Z" fill="#222222"/>
<path fill-rule="evenodd" clip-rule="evenodd" d="M19.0348 155.33C19.9664 155.33 20.7222 156.062 20.7222 156.964C20.7222 157.866 19.9664 158.596 19.0348 158.596C18.1024 158.596 17.3467 157.866 17.3467 156.964C17.3467 156.062 18.1024 155.33 19.0348 155.33Z" fill="#222222"/>
<path fill-rule="evenodd" clip-rule="evenodd" d="M19.0348 155.33C19.9664 155.33 20.7222 156.062 20.7222 156.964C20.7222 157.866 19.9664 158.596 19.0348 158.596C18.1024 158.596 17.3467 157.866 17.3467 156.964C17.3467 156.062 18.1024 155.33 19.0348 155.33Z" fill="#222222"/>
<path fill-rule="evenodd" clip-rule="evenodd" d="M13.2512 155.33C14.1839 155.33 14.9393 156.062 14.9393 156.964C14.9393 157.866 14.1839 158.596 13.2512 158.596C12.3185 158.596 11.5645 157.866 11.5645 156.964C11.5641 156.062 12.3185 155.33 13.2512 155.33Z" fill="#222222"/>
<path fill-rule="evenodd" clip-rule="evenodd" d="M7.47258 155.33C8.40393 155.33 9.15933 156.062 9.15933 156.964C9.15933 157.866 8.40393 158.596 7.47258 158.596C6.53991 158.596 5.78418 157.866 5.78418 156.964C5.78451 156.062 6.54024 155.33 7.47258 155.33Z" fill="#222222"/>
<path fill-rule="evenodd" clip-rule="evenodd" d="M1.68808 155.33C2.61976 155.33 3.37551 156.062 3.37551 156.964C3.37551 157.866 2.61976 158.596 1.68808 158.596C0.755733 158.596 0 157.866 0 156.964C0 156.062 0.755733 155.33 1.68808 155.33Z" fill="#222222"/>
<path d="M233.482 123.111L223.521 132.715L226.062 135.169L236.023 125.565L233.482 123.111Z" fill="#222222"/>
<path d="M226.039 123.16L223.497 125.613L233.453 135.219L235.996 132.766L226.039 123.16Z" fill="#222222"/>
<path d="M209.303 150.849H74.8209C74.2996 150.849 73.877 150.454 73.877 149.968V27.9417C73.877 27.455 74.2996 27.0604 74.8209 27.0604H209.303C209.824 27.0604 210.247 27.455 210.247 27.9417V149.968C210.247 150.454 209.824 150.849 209.303 150.849ZM75.7651 149.086H208.359V28.8232H75.7651V149.086Z" fill="#222222"/>
<mask id="mask0_2367_3682" style="mask-type:luminance" maskUnits="userSpaceOnUse" x="82" y="33" width="120" height="121">
<path d="M201.986 33.7882H163.796V143.763H182.725C181.152 146.205 179.207 148.506 176.749 150.216C175.548 151.051 174.238 151.685 172.805 152.092C171.304 152.517 169.729 152.689 168.168 152.742C164.949 152.847 161.725 152.395 158.576 151.818C155.435 151.243 152.28 150.66 149.188 149.883C145.938 149.067 142.711 147.976 139.869 146.266C138.71 145.567 137.62 144.763 136.678 143.822H158.777V33.8469H82.2812V143.822H136.091C136.406 144.162 136.745 144.489 137.106 144.804C139.516 146.901 142.595 148.283 145.671 149.3C148.813 150.337 152.081 151 155.341 151.615C158.399 152.192 161.44 152.81 164.556 153.052C167.643 153.295 170.874 153.227 173.809 152.209C176.604 151.242 178.909 149.255 180.759 147.12C181.675 146.064 182.497 144.934 183.241 143.762H201.987V33.7882H201.986Z" fill="white"/>
</mask>
<g mask="url(#mask0_2367_3682)">
<path fill-rule="evenodd" clip-rule="evenodd" d="M177.295 8.8147C202.835 8.8147 223.54 28.1431 223.54 51.9877C223.54 75.8323 202.836 95.1607 177.295 95.1607C151.756 95.1607 131.052 75.8323 131.052 51.9877C131.052 28.1431 151.756 8.8147 177.295 8.8147Z" fill="#222222"/>
</g>
<path d="M201.988 144.645H163.796C163.275 144.645 162.853 144.25 162.853 143.764V33.7876C162.853 33.301 163.275 32.9064 163.796 32.9064H201.988C202.508 32.9064 202.931 33.301 202.931 33.7876V143.763C202.931 144.25 202.509 144.645 201.988 144.645ZM164.741 142.882H201.043V34.6692H164.741V142.882Z" fill="#222222"/>
<path d="M158.778 144.704H82.2818C81.7606 144.704 81.3379 144.309 81.3379 143.822V33.8466C81.3379 33.36 81.7606 32.9651 82.2818 32.9651H158.778C159.3 32.9651 159.723 33.36 159.723 33.8466V143.822C159.723 144.309 159.3 144.704 158.778 144.704ZM83.2261 142.941H157.834V34.7279H83.2261V142.941Z" fill="#222222"/>
<path d="M75.3458 18.0338C88.2224 18.0338 98.6614 27.7794 98.6614 39.8025C98.6614 51.8238 88.2224 61.569 75.3458 61.569C62.47 61.569 52.0312 51.8238 52.0312 39.8025C52.0312 27.7794 62.47 18.0338 75.3458 18.0338Z" fill="white"/>
<path d="M75.3464 62.5707C61.8994 62.5707 50.959 52.357 50.959 39.8025C50.959 27.2474 61.8994 17.0325 75.3464 17.0325C88.7948 17.0325 99.7349 27.2474 99.7349 39.8025C99.7349 52.357 88.7948 62.5707 75.3464 62.5707ZM75.3464 19.0361C63.0824 19.0361 53.1051 28.3522 53.1051 39.8025C53.1051 51.2522 63.0824 60.5674 75.3464 60.5674C87.6105 60.5674 97.5891 51.2525 97.5891 39.8025C97.5891 28.3522 87.6105 19.0361 75.3464 19.0361Z" fill="#222222"/>
<mask id="mask1_2367_3682" style="mask-type:luminance" maskUnits="userSpaceOnUse" x="8" y="3" width="194" height="135">
<path d="M201.043 3.62805H8.91406V137.952H201.043V3.62805Z" fill="white"/>
</mask>
<g mask="url(#mask1_2367_3682)">
<path d="M133.724 37.4921C134.082 36.555 134.472 35.633 134.897 34.7277C120.674 31.6331 107.053 29.0669 94.5352 27.0679C95.3283 27.8895 95.4781 29.0724 95.1242 30.1491C107.387 32.1318 120.473 34.6174 133.724 37.4921Z" fill="#222222"/>
</g>
<mask id="mask2_2367_3682" style="mask-type:luminance" maskUnits="userSpaceOnUse" x="8" y="3" width="194" height="135">
<path d="M201.043 3.62805H8.91406V137.952H201.043V3.62805Z" fill="white"/>
</mask>
<g mask="url(#mask2_2367_3682)">
<path d="M213.917 56.6819C212.993 57.5526 211.825 58.2353 210.588 58.4857C210.496 58.5033 210.403 58.5206 210.31 58.5386C211.836 59.0789 213.328 59.6186 214.784 60.1547C224.365 63.696 231.918 67.0064 237.234 69.9963C243.254 73.3826 244.417 75.2668 244.634 75.7738C244.084 76.2237 241.165 77.9612 228.995 77.9612C218.75 77.9612 204.673 76.7267 188.282 74.3886C171.31 71.9684 152.162 68.3993 132.909 64.07C104.451 57.67 77.8247 50.0982 57.9336 42.7493C48.3535 39.2098 40.7995 35.8976 35.4849 32.908C29.4639 29.5211 28.301 27.6369 28.084 27.1305C28.6344 26.6806 31.5534 24.9428 43.7229 24.9428C47.9897 24.9428 52.9534 25.1689 58.4386 25.5876C58.6024 25.276 58.8087 24.9688 59.1084 24.6779C59.9243 23.8862 60.853 23.3239 61.8452 22.9117C54.9924 22.3158 48.8837 22.0039 43.7219 22.0039C32.5877 22.0039 25.7755 23.4224 24.9698 26.4018C22.6573 34.9481 70.6527 53.0911 132.172 66.9258C172.251 75.9396 208.18 80.8995 228.996 80.8995C240.131 80.8995 246.943 79.481 247.749 76.501C248.985 71.9308 235.833 64.6153 213.917 56.6819Z" fill="#F44817"/>
</g>
<mask id="mask3_2367_3682" style="mask-type:luminance" maskUnits="userSpaceOnUse" x="8" y="3" width="194" height="135">
<path d="M201.043 3.62805H8.91406V137.952H201.043V3.62805Z" fill="white"/>
</mask>
<g mask="url(#mask3_2367_3682)">
<path d="M98.1777 36.3367C98.5796 37.2374 98.6288 38.2606 98.2994 39.1153C108.967 39.5973 120.384 40.4032 132.126 41.534C132.2 41.2054 132.274 40.9297 132.377 40.6635C132.621 40.0275 132.872 39.4306 133.164 38.8652C120.767 37.6558 108.985 36.8187 98.1777 36.3367Z" fill="#222222"/>
</g>
<mask id="mask4_2367_3682" style="mask-type:luminance" maskUnits="userSpaceOnUse" x="8" y="3" width="194" height="135">
<path d="M201.043 3.62805H8.91406V137.952H201.043V3.62805Z" fill="white"/>
</mask>
<g mask="url(#mask4_2367_3682)">
<path d="M216.351 52.1033C215.591 53.0071 214.582 53.7605 213.459 54.1165C213.375 54.1421 213.29 54.1696 213.206 54.1949C214.689 54.5432 216.14 54.8955 217.557 55.2512C226.883 57.5856 234.297 59.9097 239.589 62.1601C245.584 64.7094 246.884 66.3468 247.144 66.797C246.683 67.2703 244.166 69.182 232.836 70.4029C223.299 71.4299 210.05 71.6923 194.523 71.1581C178.444 70.6085 160.207 69.2057 141.784 67.1061C114.555 64.001 88.8951 59.6241 69.5311 54.776C60.2044 52.4417 52.7916 50.1175 47.4988 47.8656C41.5042 45.3161 40.2048 43.6805 39.9452 43.2284C40.2521 42.9135 41.4761 41.9569 45.6213 40.9941C45.1966 40.8808 44.7848 40.7382 44.3995 40.5875C43.404 40.2 42.4515 39.7519 41.493 39.2977C38.7327 40.2821 37.16 41.4715 36.9619 42.8647C35.7918 51.0528 82.5621 63.1306 141.426 69.8397C179.776 74.2125 213.796 75.2259 233.175 73.1383C243.541 72.0212 249.719 70.0178 250.127 67.1632C250.753 62.7838 237.666 57.2923 216.351 52.1033Z" fill="#222222"/>
</g>
<path fill-rule="evenodd" clip-rule="evenodd" d="M203.504 184.923C203.805 181.433 199.759 180.219 198.971 177.811C198.183 175.402 202.426 172.645 203.819 170.405C205.212 168.165 204.316 160.816 199.222 159.296C194.131 157.774 186.644 165.59 185.056 168.347C183.47 171.106 186.755 180.738 186.946 182.749C187.136 184.758 186.421 187.067 189.149 189.214C191.876 191.362 194.645 192.772 196.137 192.33C197.63 191.887 203.204 188.415 203.504 184.923Z" fill="white"/>
<path fill-rule="evenodd" clip-rule="evenodd" d="M204.248 169.449C204.248 168.979 204.248 168.51 204.248 168.038C203.992 165.798 203.555 164.113 202.8 162.456C202.117 160.959 201.142 159.351 199.526 158.635C197.145 157.58 194.537 159.1 192.979 160.045C191.535 160.922 190.433 161.709 189.076 162.808C186.652 164.774 183.917 167.063 183.599 170.507C183.412 172.542 184.097 174.42 184.607 175.973C185.116 177.523 185.946 179.305 186.117 181.027C186.281 182.663 185.678 184.026 185.74 185.611C185.832 187.959 187.426 189.225 188.888 190.313C189.35 190.657 192.123 192.804 192.413 191.136C192.532 190.45 191.78 190.074 191.406 189.843C189.992 188.969 188.343 187.935 187.818 186.435C187.348 185.094 187.981 183.339 188.006 181.85C188.03 180.436 187.66 179.391 187.251 178.147C186.897 177.069 186.556 175.983 186.181 174.738C185.839 173.607 185.379 172.177 185.426 170.976C185.546 167.795 188.383 165.709 190.335 164.101C191.438 163.193 192.365 162.473 193.798 161.573C194.808 160.941 196.634 159.8 198.267 160.104C199.835 160.395 200.84 162.5 201.415 163.983C202.084 165.709 202.699 167.914 202.296 169.802C201.973 171.312 200.714 172.441 199.778 173.504C198.92 174.478 197.724 175.783 197.575 177.208C197.352 179.342 198.839 180.583 199.903 181.616C200.6 182.291 201.593 183.077 201.856 183.848C202.423 185.509 201.605 187.35 200.848 188.256C199.625 189.717 197.53 190.236 195.812 191.312C196.362 190.105 196.783 189.395 196.883 188.197C197.236 183.91 194.223 180.911 193.231 177.971C192.535 175.909 192.609 172.993 193.546 171.213C194.026 170.301 194.639 169.642 195.623 168.685C196.192 168.131 197.881 167.145 197.701 166.274C197.634 165.95 197.44 165.711 197.008 165.629C196.065 165.449 194.675 167.071 194.112 167.627C193.303 168.427 192.404 169.47 191.909 170.389C190.809 172.434 190.646 175.913 191.406 178.323C192.242 180.978 194.446 183.24 194.931 186.376C195.523 190.203 192.812 191.895 191.594 194.544C190.75 196.384 190.734 198.749 191.72 200.598C193.373 203.693 196.129 205.19 197.197 208.532C198.032 211.142 198.298 213.993 198.457 217.172C198.527 218.579 198.667 219.497 199.527 219.463C200.502 219.428 200.426 218.309 200.345 216.996C200.146 213.752 199.743 210.485 198.96 208.063C198.359 206.202 197.536 204.946 196.442 203.655C195.366 202.383 194.139 201.252 193.357 199.716C192.125 197.298 193.348 194.588 194.679 193.017C195.142 193.056 195.256 193.344 195.875 193.252C196.246 193.197 197.088 192.706 197.638 192.43C200.583 190.951 203.87 189.21 203.87 185.083C203.87 182.71 202.674 181.818 201.352 180.558C200.599 179.838 199.472 178.721 199.464 177.619C199.457 176.706 200.067 176.101 200.596 175.444C202.051 173.639 203.928 171.918 204.248 169.449Z" fill="#222222"/>
<path fill-rule="evenodd" clip-rule="evenodd" d="M210.665 187.382C209.869 186.58 207.861 182.446 207.831 178.86C207.803 175.274 211.022 174.168 213.184 171.689C215.344 169.21 214.182 165.15 215.261 162.519C216.339 159.889 221.91 158.592 224.264 159.286C226.619 159.981 227.178 163.675 227.161 167.281C227.143 170.886 224.631 172.117 222.627 174.628C220.622 177.138 226.388 183.021 225.021 186.324C223.652 189.628 214.885 189.415 213.436 189.44C211.985 189.466 211.461 188.185 210.665 187.382Z" fill="white"/>
<path fill-rule="evenodd" clip-rule="evenodd" d="M215.253 188.153C216.686 187.009 218.208 185.684 218.401 183.217C218.52 181.689 218.203 180.089 217.897 178.516C217.624 177.117 217.005 175.27 217.268 173.931C217.456 172.967 218.367 172.294 219.03 171.697C219.658 171.132 220.543 170.365 220.919 169.582C221.368 168.645 222.154 164.43 220.352 164.528C219.022 164.599 219.715 167.61 219.282 168.7C218.957 169.515 217.938 170.196 217.204 170.934C216.478 171.664 215.566 172.613 215.379 173.872C215.156 175.369 215.697 177.04 216.009 178.574C216.412 180.56 216.942 182.961 216.134 184.628C214.676 187.637 209.729 187.801 209.336 191.975C209.092 194.565 210.229 196.51 210.973 198.498C211.706 200.462 212.543 202.548 212.861 204.786C213.308 207.938 213.336 212.825 213.301 215.954C213.289 217.112 212.963 219.104 214.183 219.128C215.285 219.147 215.19 217.766 215.19 216.306C215.19 212.409 215.242 208.564 214.813 205.197C214.531 202.988 213.885 200.895 213.175 199.026C212.437 197.08 211.421 195.317 211.224 193.21C211.058 191.431 211.728 190.521 212.798 189.682C213.36 189.893 214.08 189.911 214.749 189.917C217.813 189.946 221.916 189.643 223.941 188.506C224.938 187.947 225.771 187.043 225.829 185.628C225.949 182.701 223.502 180.167 223.248 177.047C222.95 173.372 226.765 171.839 227.97 169.23C229.376 166.182 227.734 161.58 226.081 159.766C225.202 158.804 224.103 158.213 222.493 158.238C220.726 158.268 218.931 158.993 217.583 159.827C216.269 160.637 214.933 161.729 214.246 162.881C212.922 165.108 213.761 168.53 212.61 170.817C211.471 173.077 208.766 174.558 207.447 176.812C205.584 179.997 207.828 183.992 209.399 186.45C209.769 187.029 210.286 188.129 211.162 188.037C212.576 187.888 211.655 186.481 211.099 185.628C210.782 185.141 210.267 184.306 209.966 183.746C209.262 182.439 208.295 180.488 208.644 178.809C208.893 177.608 209.919 176.493 210.847 175.577C212.695 173.752 214.554 172.138 215.065 168.995C215.363 167.158 215.097 165.08 215.946 163.705C216.604 162.636 217.678 161.87 218.967 161.118C220.058 160.484 221.884 159.641 223.374 160.062C225.357 160.619 226.585 164.255 226.585 166.702C226.585 169.876 223.653 171.142 222.241 173.462C221.684 174.376 221.246 175.531 221.359 177.047C221.477 178.604 222.177 180.181 222.745 181.572C223.191 182.668 224.353 184.638 223.814 186.098C223.428 187.146 221.601 187.571 220.226 187.802C218.575 188.077 216.845 188.071 215.253 188.153Z" fill="#222222"/>
<path fill-rule="evenodd" clip-rule="evenodd" d="M215.488 140.502C220.694 145.225 214.147 152.912 210.451 157.195C206.757 161.478 212.128 167.504 216.748 171.538C221.368 175.571 216.693 181.358 213.663 184.352C210.632 187.345 205.805 190.294 201.448 190.347C197.091 190.401 194.128 184.227 193.326 181.883C192.526 179.539 195.62 176.933 196.16 173.243C196.699 169.552 191.563 168.776 190.053 163.427C188.544 158.076 194.298 153.288 196.223 149.731C198.149 146.174 195.527 141.237 195.467 138.445C195.408 135.653 200.268 132.793 204.093 132.685C207.917 132.576 210.283 135.78 215.488 140.502Z" fill="white"/>
<path fill-rule="evenodd" clip-rule="evenodd" d="M201.28 191.192C200.593 193.819 199.3 196.424 199.516 199.421C199.736 202.459 200.941 204.68 202.161 206.942C203.325 209.106 204.257 211.373 204.679 214.582C204.869 216.028 205.028 217.758 205.119 219.166C205.192 220.289 204.787 223.275 206.253 223.222C207.377 223.181 207.142 221.659 207.071 220.225C206.895 216.693 206.524 212.901 205.623 210.117C204.991 208.162 203.982 206.47 203.105 204.768C202.179 202.97 201.288 201.252 201.342 198.773C201.388 196.637 202.202 194.333 202.79 192.426C204.047 188.348 205.424 184.852 206.693 180.73C207.289 178.795 208.169 176.517 208.015 174.324C207.791 171.139 205.492 168.445 203.798 166.332C202.467 164.672 200.901 162.645 200.901 159.806C200.901 159.092 201.065 158.421 201.343 157.809C202.235 155.834 203.851 154.23 205.056 152.401C205.656 151.491 206.109 150.431 206.504 149.286C206.938 148.03 207.383 146.506 207.134 145.056C206.98 144.164 206.589 143.348 206.064 142.47C205.772 141.981 205.02 140.542 203.986 141.059C203.098 141.501 203.903 142.589 204.238 143.115C205.241 144.696 205.606 146.124 204.868 148.406C204.602 149.222 204.229 150.206 203.861 150.873C202.434 153.468 199.985 155.275 199.265 158.044C198.621 160.525 199.595 163.511 200.523 165.097C202.182 167.932 205.8 170.552 206.127 174.265C206.254 175.717 205.781 177.091 205.435 178.38C204.431 182.097 203.023 185.852 201.908 189.37C200.453 188.73 198.922 187.631 197.502 186.49C196.286 185.511 194.508 183.991 194.417 182.317C194.328 180.659 195.357 179.431 196.054 178.263C196.896 176.852 198.113 175.326 197.817 173.148C197.377 169.914 193.511 169.094 192.088 166.743C190.894 164.766 190.595 160.902 191.521 158.513C192.111 156.997 193.327 155.846 194.292 154.635C196.254 152.17 197.904 149.331 197.188 144.76C197.039 143.813 196.804 142.937 196.621 142.058C196.445 141.211 196.137 140.051 196.306 139.002C196.504 137.778 197.246 136.856 197.879 136.122C198.774 135.083 200.054 133.976 201.72 133.771C204.019 133.489 206.106 134.393 207.574 135.122C210.746 136.698 213.114 139.012 214.688 142.058C215.49 143.61 216.252 145.983 215.883 147.875C215.651 149.073 214.884 150.045 214.184 150.99C213.479 151.947 212.758 152.906 212.107 153.753C210.733 155.543 209.031 157.709 208.834 160.102C208.573 163.261 210.06 165.368 211.477 167.329C212.914 169.315 214.807 171.052 215.822 172.971C216.917 175.044 216.902 179.103 215.757 181.023C214.851 182.545 212.44 184.335 210.784 185.548C210.081 186.065 209.224 186.661 208.203 187.37C207.491 187.865 205.799 188.549 206.19 189.546C206.722 190.905 208.832 189.117 209.4 188.722C210.48 187.973 211.422 187.262 212.296 186.607C214.13 185.23 216.376 183.666 217.458 181.788C218.748 179.546 218.841 175.351 217.71 172.737C216.839 170.724 215.071 169.008 213.681 167.212C212.341 165.482 210.644 163.24 210.659 160.748C210.674 158.183 212.44 156.245 213.932 154.342C215.487 152.356 217.563 150.307 217.835 147.699C218.072 145.431 217.315 143.276 216.513 141.646C214.251 137.05 209.507 132.738 203.482 132.066C201.145 131.806 198.998 132.636 197.565 133.829C196.108 135.044 194.45 137.069 194.354 139.296C194.22 142.379 195.769 144.639 195.487 148.053C195.137 152.299 191.144 154.404 189.758 157.926C188.447 161.262 189.121 165.803 190.892 168.094C191.605 169.018 192.634 169.773 193.661 170.561C194.565 171.256 195.862 172.338 195.991 173.617C196.119 174.887 194.991 176.394 194.354 177.438C193.446 178.928 192.083 180.992 192.717 183.316C193.245 185.253 194.906 186.66 196.368 187.841C197.952 189.119 199.465 190.15 201.28 191.192Z" fill="#222222"/>
<path d="M220.351 209.91L216.322 225.957C216.322 227.579 214.913 228.896 213.174 228.896H192.775C191.037 228.896 189.627 227.579 189.627 225.957L185.661 209.91C185.661 208.286 187.493 206.971 189.752 206.971H216.26C218.52 206.971 220.351 208.286 220.351 209.91Z" fill="white"/>
<path d="M213.175 229.777H192.776C190.557 229.777 188.745 228.122 188.684 226.064L184.741 210.108C184.725 210.043 184.717 209.977 184.717 209.91C184.717 207.804 186.975 206.09 189.752 206.09H216.259C219.037 206.09 221.295 207.803 221.295 209.91C221.295 209.978 221.287 210.045 221.269 210.111L217.265 226.066C217.203 228.123 215.392 229.777 213.175 229.777ZM186.609 209.821L190.547 225.759C190.563 225.824 190.571 225.89 190.571 225.957C190.571 227.091 191.56 228.014 192.776 228.014H213.175C214.391 228.014 215.378 227.092 215.378 225.957C215.378 225.889 215.386 225.822 215.404 225.756L219.402 209.819C219.327 208.745 217.919 207.852 216.259 207.852H189.752C188.092 207.853 186.682 208.745 186.609 209.821Z" fill="#222222"/>
<path d="M222.588 203.59L223.626 210.35C223.626 211 223.062 211.526 222.366 211.526H182.892C182.196 211.526 181.633 210.999 181.633 210.35L182.672 203.59C182.672 202.942 183.207 202.416 183.869 202.416H221.39C222.051 202.416 222.588 202.942 222.588 203.59Z" fill="white"/>
<path d="M222.367 212.407H182.892C181.676 212.407 180.688 211.484 180.688 210.35L181.737 203.466C181.727 202.456 182.687 201.535 183.867 201.535H221.39C222.546 201.535 223.492 202.418 223.53 203.519L224.56 210.225C224.57 211.484 223.582 212.407 222.367 212.407ZM183.867 203.298C183.731 203.298 183.615 203.432 183.615 203.591L182.567 210.475C182.577 210.512 182.718 210.644 182.892 210.644H222.367C222.54 210.644 222.681 210.512 222.681 210.351L221.652 203.716C221.646 203.675 221.643 203.633 221.643 203.591C221.643 203.432 221.526 203.298 221.389 203.298L183.867 203.298Z" fill="#222222"/>
<path d="M88.6602 201.524C92.2282 201.053 90.4435 157.876 95.0626 150.177C104.027 135.237 95.1023 115.495 90.8407 108.595C87.3515 102.942 82.1424 90.7939 71.3203 92.2263C61.1175 93.576 60.541 108.863 65.0394 116.82C76.2579 136.659 63.5262 136.865 64.3091 155.393C64.6573 163.64 85.0925 201.996 88.6602 201.524Z" fill="white"/>
<path d="M88.5925 202.41C88.1364 202.41 87.6542 202.208 87.126 201.796C81.7955 197.644 63.7132 163.661 63.3659 155.428C63.0484 147.906 64.8992 143.347 66.5318 139.323C68.9038 133.475 70.7784 128.857 64.2047 117.231C61.2218 111.955 60.1221 102.866 63.4473 96.7881C65.1489 93.6772 67.8249 91.7977 71.1875 91.3525C81.2535 90.0127 86.6547 99.4535 90.2221 105.698C90.7354 106.595 91.2113 107.429 91.6591 108.154C97.2542 117.213 104.441 136.35 95.8872 150.607C93.583 154.448 92.9202 168.124 92.3338 180.19C91.4861 197.669 90.9807 202.107 88.7932 202.397C88.7261 202.405 88.6593 202.41 88.5925 202.41ZM73.0611 92.9905C72.5399 92.9905 72.0048 93.0254 71.4531 93.0989C68.6865 93.4651 66.5595 94.9756 65.1294 97.5897C62.4475 102.494 62.7818 110.936 65.8749 116.408C72.8468 128.737 70.739 133.932 68.2982 139.948C66.7295 143.814 64.9515 148.195 65.2544 155.358C65.5918 163.385 84.4137 198.2 88.45 200.553C89.5427 198.738 90.0421 188.445 90.4476 180.109C91.071 167.249 91.7163 153.95 94.2388 149.746C102.38 136.178 95.4192 117.771 90.0226 109.034C89.5662 108.294 89.0793 107.444 88.5561 106.528C85.2583 100.758 80.8189 92.9905 73.0611 92.9905Z" fill="#222222"/>
<path d="M88.7805 203.083C92.3802 203.083 97.9776 154.841 103.845 146.964C115.231 131.68 109.794 108.43 106.767 100.133C104.289 93.3397 101.222 79.0724 90.3035 79.0724C80.0113 79.0724 76.8386 95.9751 79.919 105.478C87.602 129.175 75.0112 127.53 72.6263 148.236C71.5636 157.453 85.1814 203.083 88.7805 203.083Z" fill="white"/>
<path d="M88.7809 203.965C88.299 203.965 87.8436 203.736 87.3892 203.264C82.6037 198.289 70.7171 156.561 71.6868 148.141C72.6509 139.776 75.2432 134.998 77.5299 130.783C80.8896 124.592 83.5441 119.701 79.015 105.733C76.8781 99.1394 77.5349 88.2955 82.3233 82.2726C84.4456 79.6026 87.2053 78.1912 90.3033 78.1912C100.503 78.1912 104.208 89.4482 106.659 96.8983C107.014 97.9744 107.342 98.9733 107.661 99.8474C111.621 110.703 115.437 132.947 104.621 147.467C101.671 151.427 98.6815 166.552 96.0435 179.895C92.2417 199.126 90.9906 203.965 88.7809 203.965ZM90.3033 79.9543C87.7917 79.9543 85.6171 81.0881 83.8397 83.323C79.5421 88.7303 78.8092 99.0122 80.8224 105.223C85.5708 119.868 82.6253 125.295 79.2154 131.58C77.0004 135.66 74.4918 140.285 73.5654 148.33C72.5464 157.169 85.0879 198.444 88.722 202.044C90.1363 200.065 92.3727 188.752 94.1865 179.575C96.9894 165.396 99.8877 150.733 103.071 146.461C113.457 132.518 109.719 110.958 105.873 100.417C105.549 99.5272 105.215 98.5108 104.854 97.4162C102.565 90.4628 99.1065 79.9543 90.3033 79.9543Z" fill="#222222"/>
<path d="M96.7397 206.828C100.112 207.648 118.349 169.57 125.002 163.898C137.911 152.892 130.303 127.41 128.683 119.342C127.357 112.735 126.575 99.3458 116.346 96.8629C106.702 94.5209 101.252 108.835 102.745 117.99C106.47 140.817 94.9147 136.491 89.6441 154.366C87.2975 162.323 93.3675 206.01 96.7397 206.828Z" fill="white"/>
<path d="M96.8397 207.723C96.7246 207.723 96.6125 207.708 96.5027 207.681C95.8782 207.53 95.4906 207.003 95.2535 206.62C91.9028 201.208 86.4 162.045 88.734 154.132C90.8742 146.874 94.0175 143.197 96.7907 139.953C100.818 135.244 103.999 131.523 101.812 118.123C100.798 111.905 102.939 102.471 108.167 98.0701C110.642 95.9859 113.551 95.2723 116.584 96.0097C126.085 98.3159 127.903 109.155 129.107 116.328C129.28 117.366 129.441 118.329 129.612 119.179C129.782 120.026 130.017 121.064 130.289 122.259C132.657 132.68 137.584 154.365 125.64 164.549C122.534 167.197 116.411 177.866 111.01 187.28C102.013 202.957 98.965 207.722 96.8397 207.723ZM114.281 97.4896C112.551 97.4896 110.926 98.1223 109.431 99.3803C104.671 103.387 102.739 112.092 103.679 117.857C105.991 132.02 102.411 136.206 98.2665 141.054C95.607 144.165 92.592 147.692 90.555 154.6C88.2399 162.449 94.0496 202.357 96.9548 205.873C98.8962 204.655 104.671 194.591 109.344 186.447C115.085 176.443 121.021 166.097 124.366 163.246C135.513 153.743 130.737 132.725 128.442 122.624C128.167 121.414 127.928 120.362 127.756 119.504C127.582 118.639 127.418 117.658 127.241 116.601C126.113 109.884 124.411 99.7323 116.108 97.716C115.488 97.565 114.878 97.4896 114.281 97.4896Z" fill="#222222"/>
<path d="M116.515 106.254C116.515 106.254 119.723 113.838 116.431 128.093C113.887 139.101 100.44 141.9 97.1039 159.053C92.6999 181.691 90.7793 210.22 90.7793 210.22L116.515 106.254Z" fill="white"/>
<path d="M90.7808 211.102C90.1997 211.07 89.8045 210.652 89.8379 210.166C89.8564 209.88 91.8117 181.325 96.1755 158.896C98.096 149.02 103.285 143.779 107.862 139.155C111.395 135.587 114.446 132.504 115.508 127.908C118.702 114.073 115.668 106.652 115.637 106.579C115.445 106.125 115.684 105.614 116.168 105.435C116.65 105.254 117.202 105.477 117.394 105.931C117.529 106.251 120.668 113.928 117.354 128.278C116.183 133.347 112.815 136.75 109.249 140.352C104.846 144.8 99.8562 149.84 98.0336 159.212C93.6897 181.537 91.7413 209.991 91.7214 210.276C91.6907 210.743 91.2756 211.102 90.7808 211.102Z" fill="#222222"/>
<path d="M87.8787 209.998C88.3798 213.067 80.5552 153.329 83.26 144.833C88.6007 128.054 72.5521 122.233 73.0601 115.62C73.8565 105.264 64.7318 93.7284 54.991 96.1643C45.8078 98.4613 44.2245 114.482 46.3075 120.173C49.7663 129.627 61.2928 130.308 62.0423 151.769C62.6489 169.122 87.752 209.221 87.8787 209.998Z" fill="white"/>
<path d="M87.9259 210.992C87.4963 210.992 87.0977 210.649 86.974 210.253C86.847 209.987 86.1508 208.791 85.3494 207.413C79.4799 197.331 61.6168 166.649 61.0976 151.798C60.6207 138.144 55.7062 133.131 51.3699 128.709C48.9595 126.25 46.6828 123.928 45.4131 120.458C43.7941 116.034 44.3322 107.006 47.6928 101.123C49.4815 97.9911 51.8548 96.0362 54.7474 95.3128C58.5307 94.3633 62.5465 95.3276 66.0437 98.0241C71.3044 102.081 74.5026 109.177 74.0022 115.684C73.8458 117.712 75.7214 119.896 77.8927 122.426C82.0441 127.262 87.7294 133.885 84.1644 145.085C83.1543 148.259 83.0843 161.576 88.4918 206.99C88.6472 208.294 88.7504 209.16 88.7838 209.739C88.7977 209.785 88.8046 209.823 88.8113 209.864C88.8232 210.887 88.6049 210.915 88.0235 210.985C87.9907 210.99 87.9583 210.992 87.9259 210.992ZM57.6708 96.7128C56.8916 96.7128 56.0783 96.8054 55.2346 97.0166C52.8685 97.6079 50.8914 99.2691 49.3591 101.952C46.0643 107.718 45.8814 116.285 47.2004 119.889C48.3424 123.01 50.391 125.098 52.763 127.518C57.3206 132.166 62.486 137.434 62.9854 151.741C63.4743 165.717 80.0891 194.673 86.422 205.563C82.2028 169.869 80.8339 149.355 82.3543 144.582C85.6372 134.267 80.525 128.313 76.4183 123.529C73.9989 120.71 71.909 118.276 72.1174 115.557C72.5688 109.687 69.577 103.036 64.8405 99.384C63.1498 98.08 60.6636 96.7128 57.6708 96.7128Z" fill="#222222"/>
<path d="M88.6703 207.032C89.0761 204.388 78.6414 195.336 78.5335 184.461C78.4194 172.943 78.1344 167.625 72.19 158.629C66.343 149.782 59.668 147.529 52.8456 150.075C46.5094 152.438 47.3716 160.783 52.5311 163.417C58.7701 166.602 63.1332 167.255 65.4877 182.504C67.0034 192.315 88.3048 209.413 88.6703 207.032Z" fill="white"/>
<path d="M88.3547 208.139C84.8873 208.139 66.0099 192.063 64.5533 182.63C62.4889 169.265 59.036 167.587 53.8077 165.045C53.2481 164.773 52.6716 164.493 52.0776 164.19C49.0878 162.663 47.227 159.338 47.4473 155.915C47.6477 152.805 49.488 150.378 52.4954 149.256C57.8407 147.261 65.739 147.188 72.9934 158.166C79.0564 167.342 79.3623 172.856 79.4774 184.453C79.5452 191.218 83.8825 197.426 86.7533 201.534C88.5876 204.158 89.7991 205.892 89.6053 207.157C89.5153 207.744 89.0129 208.139 88.3547 208.139ZM57.97 149.981C56.4192 149.981 54.8277 150.285 53.1962 150.894C50.8959 151.751 49.4886 153.62 49.3329 156.02C49.1589 158.734 50.6594 161.456 52.9845 162.642C53.566 162.94 54.1312 163.214 54.6802 163.481C60.219 166.173 64.2209 168.118 66.422 182.379C67.6936 190.605 83.0941 203.58 87.4399 205.987C86.9719 205.073 86.0317 203.728 85.1711 202.497C82.1812 198.217 77.661 191.749 77.5893 184.469C77.4742 172.922 77.197 167.886 71.3863 159.092C67.3801 153.03 62.8828 149.981 57.97 149.981Z" fill="#222222"/>
<path d="M107.933 205.22H81.4249C79.1646 205.22 77.334 206.537 77.334 208.159L81.3002 224.206C81.3002 225.83 82.7094 227.145 84.4478 227.145H104.847C106.586 227.145 107.995 225.83 107.995 224.206L112.024 208.159C112.024 206.537 110.193 205.22 107.933 205.22Z" fill="white"/>
<path d="M104.847 228.027H84.448C82.2301 228.027 80.4187 226.371 80.3578 224.313L76.4141 208.357C76.3986 208.292 76.3906 208.226 76.3906 208.159C76.3906 206.053 78.6489 204.339 81.4251 204.339H107.934C110.711 204.339 112.969 206.053 112.969 208.159C112.969 208.227 112.961 208.294 112.944 208.36L108.939 224.315C108.877 226.372 107.065 228.027 104.847 228.027ZM78.2818 208.07L82.2215 224.008C82.237 224.073 82.245 224.14 82.245 224.207C82.245 225.34 83.2336 226.263 84.448 226.263H104.847C106.063 226.263 107.051 225.34 107.051 224.207C107.051 224.139 107.059 224.072 107.076 224.006L111.077 208.069C111.002 206.995 109.593 206.102 107.934 206.102H81.4244C79.7648 206.102 78.3555 206.994 78.2818 208.07Z" fill="#222222"/>
<path d="M112.846 200.665H75.325C74.6638 200.665 74.1284 201.192 74.1284 201.841L73.0889 208.601C73.0889 209.25 73.6528 209.777 74.3483 209.777H113.823C114.519 209.777 115.082 209.25 115.082 208.601L114.043 201.841C114.043 201.191 113.507 200.665 112.846 200.665Z" fill="white"/>
<path d="M113.824 210.658H74.3485C73.1341 210.658 72.1455 209.735 72.1455 208.601L73.1939 201.716C73.185 200.706 74.1451 199.784 75.3262 199.784H112.847C114.027 199.784 114.987 200.706 114.987 201.841L116.018 208.476C116.027 209.735 115.038 210.658 113.824 210.658ZM75.3262 201.547C75.1893 201.547 75.0735 201.682 75.0735 201.841L74.0251 208.726C74.034 208.763 74.1756 208.895 74.3485 208.895H113.824C113.997 208.895 114.138 208.763 114.138 208.601L113.108 201.967C113.099 201.682 112.984 201.547 112.847 201.547L75.3262 201.547Z" fill="#222222"/>
<path fill-rule="evenodd" clip-rule="evenodd" d="M204.996 197.048C200.56 189.754 194.482 189.288 194.482 189.288C194.482 189.288 172.918 191.023 172.383 190.758C171.849 190.491 153.792 156.745 151.544 153.667C149.296 150.59 146.847 147.585 143.989 146.321C141.13 145.057 137.87 144.443 135.615 144.382C133.359 144.319 128.691 144.509 129.445 142.324C130.199 140.138 131.838 135.505 131.838 135.505C131.838 135.505 134.731 136.016 136.811 135.74C138.891 135.466 141.282 134.505 141.282 134.505C141.282 134.505 140.736 136.169 140.274 138.092C139.813 140.015 138.8 142.936 139.897 143.03C140.993 143.122 145.059 138.502 145.059 138.502C145.059 138.502 146.685 140.972 147.201 140.678C147.715 140.385 148.123 137.642 149.53 130.214C151.303 120.851 150.04 116.709 149.365 116.405C149.205 116.519 149.088 116.577 149.088 116.577C149.151 116.413 149.25 116.352 149.365 116.405C149.997 115.957 151.307 114.668 148.837 112.875C145.74 110.628 141.063 108.804 138.133 108.055C135.203 107.307 129.067 106.292 129.067 106.292C129.067 106.292 128.793 100.072 124.03 97.3582C119.268 94.6426 115.959 94.2649 113.201 99.0037C110.444 103.741 108.695 118.718 102.436 122.103C96.1748 125.487 88.9992 127.039 87.8287 130.214C86.6579 133.39 88.7097 139.091 88.7097 139.091C88.7097 139.091 81.6535 140.967 81.9102 146.144C82.4344 156.698 96.958 159.664 96.958 159.664C96.958 159.664 90.7087 171.726 88.4581 179.59C86.2074 187.453 86.4346 191.375 90.5361 193.227C94.6362 195.077 99.6651 196.694 99.6651 196.694C99.6651 196.694 94.6101 203.898 93.3067 208.157C92.0032 212.414 89.5816 217.196 93.5583 222.675C97.5348 228.155 106.891 231.479 114.461 230.493C122.03 229.507 129.147 225.271 128.816 225.789C128.484 226.31 130.621 229.256 132.845 233.255C135.068 237.252 135.805 238.96 138.071 238.722C140.337 238.483 143.506 237.141 144.556 235.783C145.605 234.426 146.569 232.021 146.569 232.021L147.829 231.258C147.829 231.258 154.507 234.363 156.706 233.901C158.906 233.441 162.625 231.434 162.625 231.434L166.528 233.962C166.528 233.962 187.539 232.592 189.572 232.138C191.604 231.684 198.584 229.773 198.386 224.026C198.189 218.282 191.719 216.66 189.949 216.855C188.18 217.051 180.254 218.383 180.254 218.383C180.254 218.383 200.504 212.506 201.849 211.213C203.193 209.92 209.434 204.34 204.996 197.048ZM108.921 184.821L103.38 183L109.991 166.305L117.546 175.123L108.921 184.821ZM143.989 183.293L139.33 175.24L140.967 169.598L143.8 169.245C143.8 169.245 148.502 177.862 149.151 178.003C149.801 178.144 143.989 183.293 143.989 183.293Z" fill="white"/>
<path fill-rule="evenodd" clip-rule="evenodd" d="M140.342 134.44L139.898 143.029L143.175 141.079L145.466 139.116L146.72 140.398L148.33 138.06L149.523 128.535L150.119 117.845L149.315 115.894L150.119 114.251C150.119 114.251 146.72 111.885 146.6 111.719C146.55 111.648 141.303 109.105 141.303 109.105L132.701 106.872L129.069 106.291L126.558 98.9091L120.531 95.364L115.88 96.7374L111.886 102.016L108.603 112.112L104.979 120.498L98.1741 124.513L89.1182 128.925L87.9018 132.961C87.9018 132.961 87.9868 136.409 87.9868 136.612C87.9868 136.816 89.1182 139.114 89.1182 139.114L84.14 141.079L82.2822 145.064V149.967L85.3786 154.598L94.3597 160.096L96.6041 159.251L98.8296 153.149L104.349 145.403L109.858 142.765H115.443L120.215 142.63L122.677 139.114L122.17 137.289L125.14 139.789L127.023 140.67L128.543 125.456L141.759 119.437L145.636 117.747L146.649 121.093L146.504 122.48C146.504 122.48 146.636 131.388 140.342 134.44Z" fill="white"/>
<path fill-rule="evenodd" clip-rule="evenodd" d="M202.742 192.223C200.703 190.278 197.749 189.13 194.307 188.46C193.281 188.263 191.367 187.862 191.349 188.99C191.33 190.135 193.777 190.123 194.936 190.401C196.536 190.785 197.689 191.182 198.713 191.636C201.011 192.649 202.66 194.565 203.75 196.513C204.951 198.662 205.398 201.688 204.694 204.447C204.086 206.824 202.559 209.278 200.917 210.501C199.157 211.812 196.284 212.622 193.866 213.44C186.827 215.817 179.317 217.82 172.085 219.787C166.104 217.202 160.079 214.657 154.144 212.029C163.33 208.138 172.764 204.128 181.968 200.215C182.777 199.873 185.557 199.161 185.493 198.101C185.401 196.557 183.342 197.756 182.661 198.042C172.399 202.334 161.826 206.842 151.878 211.088C141.825 206.858 132.08 202.34 121.597 198.511C122.119 198.292 122.513 197.955 123.108 197.807C125.19 199.133 127.38 200.92 130.663 200.157C133.342 199.534 136.238 198.356 137.273 196.396C138.331 194.389 136.197 192.428 135.069 191.223C134.225 190.321 133.392 189.572 132.551 188.815C132.294 188.583 131.789 188.29 131.921 188.05C133.258 188.182 134.635 189.84 136.328 189.93C137.472 189.992 138.721 189.1 138.721 188.05C138.721 187.29 137.985 186.682 137.524 186.228C137.006 185.717 136.49 185.225 135.888 184.759C134.746 183.878 133.378 182.745 131.544 182.82C130.366 182.867 129.146 183.649 128.208 184.23C125.19 186.101 122.656 188.333 120.087 190.343C116.646 188.637 113.006 187.118 109.574 185.404C111.929 182.286 114.424 179.683 117.128 176.825C117.497 176.434 117.966 175.743 118.323 175.649C118.889 175.5 119.891 175.649 120.715 175.649H137.65C140.923 179.412 143.366 184.332 145.582 189.343C145.888 190.035 146.221 191.055 146.967 191.106C148.263 191.195 147.912 189.916 147.533 189.049C145.451 184.283 143.342 180.161 140.42 176.236C140.282 176.052 139.728 175.524 139.728 175.355C139.728 175.391 139.998 174.983 140.042 174.886C140.652 173.514 140.891 171.967 141.364 170.712C141.806 170.517 142.264 170.337 142.687 170.124C145.959 174.631 149.32 179.366 152.633 183.878C153.082 184.488 153.562 185.567 154.458 185.465C156.155 185.269 154.444 183.24 154.018 182.643C150.785 178.116 147.352 173.571 144.323 169.243C144.952 168.642 145.636 168.3 146.211 167.656C147.57 166.134 147.88 163.724 147.597 161.427C147.316 159.151 145.834 157.557 144.763 156.312C144.974 155.618 146.271 155.103 145.96 154.021C145.869 153.706 145.474 153.475 145.015 153.491C144.19 153.522 142.64 155.888 142.686 156.547C142.739 157.31 143.736 157.905 144.134 158.37C144.585 158.895 145.226 159.76 145.456 160.309C146.26 162.225 145.909 165.171 144.763 166.48C144.192 167.134 143.374 167.725 142.56 168.184C141.927 168.543 140.356 169.004 139.916 169.478C139.472 169.955 139.301 171.015 139.098 171.651C138.864 172.385 138.76 173.17 138.342 173.886C131.574 173.899 124.293 173.845 118.009 173.944C115.666 171.195 113.447 168.329 111.211 165.481C111.444 164.864 111.732 164.222 112.029 163.424C112.33 162.614 113.267 160.405 111.462 160.72C110.722 160.849 110.41 162.475 110.139 163.189C107.745 169.529 105.18 176.319 102.901 182.348C102.363 182.183 101.804 181.839 101.137 181.526C100.305 181.135 98.5335 180.317 98.5567 181.761C98.5702 182.602 100.26 183.113 100.886 183.406C106.559 186.069 111.902 188.48 117.505 191.047C118.277 191.401 119.589 192.283 120.401 192.222C121.18 192.164 122.364 190.835 123.107 190.225C125.053 188.622 126.421 187.558 128.522 186.169C129.414 185.58 130.707 184.576 131.732 184.582C132.828 184.589 133.922 185.516 134.628 186.052C135 186.334 135.388 186.703 135.761 187.052C136.112 187.379 136.749 187.696 136.579 188.167C135.792 187.981 135.154 187.645 134.376 187.228C133.77 186.901 132.97 186.181 132.236 186.169C131.75 186.161 130.697 186.492 130.095 186.756C129.621 186.966 129.152 187.365 129.151 187.815C129.149 188.423 130.204 189.2 130.788 189.695C132.176 190.875 133.324 191.824 134.439 193.164C135.175 194.048 136.416 195.488 135.068 196.22C133.7 194.389 132.101 192.237 130.158 190.636C129.731 190.284 128.764 189.173 127.829 189.401C127.547 189.472 127.296 189.83 127.262 190.049C127.136 190.885 128.357 191.536 128.773 191.871C130.765 193.467 132.157 195.295 133.495 197.277C132.994 197.496 132.547 197.764 131.983 197.924C130.263 196.341 128.195 194.551 126.255 192.869C125.811 192.483 124.949 191.287 123.989 191.458C123.63 191.522 123.315 191.943 123.297 192.223C123.249 192.945 124.396 193.688 124.744 193.985C125.429 194.571 125.989 195.05 126.507 195.514C127.706 196.59 129.036 197.499 129.844 198.57C126.865 198.959 125.574 196.866 123.548 195.985C122.802 195.764 120.499 194.103 120.275 195.69C120.172 196.418 120.81 196.49 120.968 196.866C120.242 196.948 119.662 197.83 118.764 197.924C118.102 197.993 117.371 197.694 116.688 197.689C114.384 197.672 112.749 198.499 111.148 199.1C106.442 197.537 101.612 196.095 96.983 194.573C94.7717 193.847 92.2542 193.18 90.3101 191.929C88.5413 190.791 87.0934 188.584 87.6665 185.641C88.031 183.763 88.9825 181.791 89.6804 179.823C91.7855 173.884 93.8172 168.308 96.1016 162.543C97.5539 158.88 98.9559 155.09 100.698 151.376C101.837 148.946 103.902 146.389 106.363 145.029C107.139 144.601 108.65 143.891 109.447 144.029C109.836 144.098 110.535 144.747 111.021 145.088C112.605 146.197 114.445 147.35 115.617 148.555C117.383 150.37 119.106 152.018 121.849 153.08C124.288 154.025 127.753 154.927 130.977 154.902C134.106 154.878 137.82 153.974 139.476 152.493C140.733 151.368 141.482 149.012 140.86 146.674C146.251 148.108 148.842 151.877 151.374 155.96C153.978 160.161 156.02 163.81 158.613 168.36C159.569 170.039 161.108 172.677 162.138 174.59C162.522 175.302 162.806 176.396 163.776 176.294C164.726 176.196 164.607 175.408 164.216 174.649C162.574 171.466 160.647 168.194 158.991 165.246C156.92 161.558 154.811 158.222 152.759 154.784C150.561 151.104 148.42 148.122 144.512 146.205C142.751 145.34 140.539 144.45 138.091 144.088C137.02 143.929 135.665 143.835 134.125 143.736C132.816 143.652 131.136 143.603 130.726 142.794C130.243 141.848 130.886 140.169 131.166 139.328C131.544 138.195 131.946 137.271 132.425 136.389C134.604 137.171 137.801 136.794 139.853 136.154C139.73 137.457 139.456 138.562 139.161 139.856C138.78 141.526 138.058 144.78 140.798 143.911C142.498 143.372 144.013 141.485 145.141 140.503C145.534 140.953 145.723 141.468 146.526 141.444C147.357 141.417 148.026 140.462 148.477 139.797C148.98 139.061 149.504 138.239 149.737 137.447C150.089 136.248 150.145 134.804 150.304 133.392C150.456 132.026 150.556 130.572 150.681 129.101C151.034 124.978 151.848 119.434 149.988 116.524C150.482 116.092 151.131 115.843 151.248 115.172C151.498 113.724 149.811 112.437 148.981 111.822C146.205 109.768 142.553 108.537 138.847 107.59C138.041 107.385 137.198 107.35 136.328 107.18C135.34 106.986 134.264 106.491 133.118 106.238C131.908 105.972 130.649 105.837 129.466 105.71C129.046 102.936 128.712 100.288 127.201 98.4219C126.362 97.3887 125.108 96.5124 123.8 95.8353C122.441 95.1328 120.746 94.5634 118.764 94.72C116.089 94.9293 114.357 96.9271 113.099 98.7739C111.747 100.76 110.495 102.802 109.763 105.064C108.987 107.455 108.411 110.052 107.685 112.468C106.942 114.945 106.224 117.441 104.789 119.169C102.817 121.542 99.071 123.446 95.9128 124.929C94.7572 125.471 93.7114 126.154 92.6395 126.574C89.8302 127.674 87.9556 127.975 87.0993 130.804C86.2956 133.463 86.6522 136.83 87.8547 138.799C85.8134 139.609 83.8908 140.36 82.6929 141.855C79.6293 145.674 81.7437 151.691 84.0142 154.373C86.7524 157.605 90.5486 159.634 94.7787 160.955C92.1328 167.698 89.309 174.949 86.9101 182.054C86.2596 183.981 85.525 185.879 85.7767 187.99C86.5351 194.341 93.4855 194.999 98.9344 197.099C95.9753 200.936 93.4164 205.231 91.632 210.265C90.7162 212.848 89.9754 216.054 90.5611 218.786C91.719 224.186 95.7051 227.557 100.948 229.13C106.059 230.666 113.8 231.519 119.897 230.364C122.894 229.797 125.625 228.926 128.207 228.074C129.36 230.279 130.527 232.485 131.857 234.832C133.089 237.001 134.577 239.498 137.334 239.944C139.439 240.284 141.058 238.999 142.433 238.122C143.623 237.367 144.782 236.575 145.581 235.714C146.789 234.411 147.511 232.869 148.792 231.54C150.164 232.116 150.512 230.705 151.058 230.599C151.548 230.505 152.005 230.971 152.632 230.954C152.94 230.779 153.054 230.543 153.387 230.365C153.865 230.111 154.492 230.007 154.835 229.602C143.56 227.209 130.956 224.636 119.33 222.137C118.159 221.885 116.186 221.179 116.308 222.665C116.384 223.575 117.927 223.595 118.826 223.783C121.919 224.425 125.065 225.129 127.954 225.78C127.621 226.36 127.157 226.567 126.507 226.78C124.56 227.416 122.656 227.98 120.589 228.425C117.689 229.049 114.556 229.253 111.21 229.071C101.872 228.566 93.6079 225.984 92.3243 218.081C91.8913 215.42 92.7939 212.456 93.7087 210.03C95.4997 205.282 97.9283 201.173 100.948 197.688C103.502 198.594 106.294 199.279 108.818 200.214C106.848 201.024 104.404 202.29 102.334 203.329C101.621 203.687 100.477 203.889 100.634 204.857C100.698 205.254 100.911 205.342 101.2 205.446C102.099 205.763 104.318 204.241 105.481 203.683C107 202.954 108.426 202.271 109.762 201.684C111.162 201.069 112.588 200.326 114.168 199.804C115.914 199.227 117.873 199.491 119.771 199.921C123.095 200.676 126.033 202.052 129.025 203.271C142.963 208.951 157.03 215.302 170.951 221.255C171.695 221.574 172.748 222.12 173.28 222.138C173.983 222.159 174.957 221.744 175.735 221.549C178.19 220.936 180.803 220.258 183.226 219.786C184.885 223.057 186.537 226.647 186.123 231.658C181.481 231.902 176.117 232.01 171.203 232.01C169.485 232.01 167.703 232.169 166.104 232.01C164.937 231.895 163.715 231.502 162.548 231.222C162.298 231.486 161.985 231.633 161.612 231.78C161.732 231.733 161.851 231.685 161.971 231.639C161.409 231.881 160.931 232.259 160.397 232.545C162.522 233.01 164.695 233.773 166.985 233.773C172.492 233.773 178 233.715 183.416 233.538C187.601 233.403 191.461 232.922 194.369 231.306C195.662 230.586 196.825 229.522 197.768 228.25C198.715 226.972 199.525 225.34 199.279 223.431C199 221.259 196.923 219.696 195.25 218.669C193.406 217.538 191.023 216.544 188.137 217.084C192.465 215.737 196.636 214.556 200.223 212.91C203.713 211.308 206.105 207.878 206.77 203.564C207.546 198.548 205.366 194.725 202.742 192.223ZM104.6 183.172C106.555 177.963 108.51 172.755 110.455 167.539C112.461 169.957 114.371 172.464 116.372 174.886C113.572 178.167 110.381 181.085 107.875 184.641C106.733 184.197 105.741 183.616 104.6 183.172ZM148.793 129.219C148.682 130.547 148.547 131.901 148.415 133.216C148.165 135.7 147.98 137.737 146.715 139.152C146.361 138.534 146.449 137.722 145.645 137.624C144.525 137.487 143.888 139.252 143.253 139.915C142.317 140.895 141.376 141.433 140.672 141.914C140.989 139.623 141.738 137.737 141.805 135.213C143.756 133.939 145.418 131.979 146.149 129.16C146.364 128.332 147.243 125.757 145.708 125.751C145.063 125.749 144.789 126.368 144.638 127.221C144.221 129.578 143.66 130.907 142.372 132.333C140.87 133.996 138.464 135.276 135.006 135.096C134.039 135.047 132.989 134.687 132.237 134.391C131.413 134.067 129.026 132.627 129.026 134.333C129.026 135.174 129.874 135.215 130.663 135.685C129.785 137.907 127.031 142.963 130.159 144.736C132.107 145.839 135.46 145.307 138.091 145.851C139.694 146.906 139.445 150.243 137.965 151.376C136.469 152.521 133.095 153.239 130.411 153.139C127.629 153.035 124.787 152.319 122.731 151.552C120.437 150.697 118.866 149.232 117.379 147.792C115.762 146.223 113.896 144.953 112.343 143.736C115.021 143.382 118.667 144.068 120.841 143.149C122.247 142.554 122.539 141.153 123.108 139.739C123.47 139.67 123.68 140.099 123.989 140.327C124.3 140.556 124.663 140.809 124.997 141.032C125.667 141.484 127.594 142.969 128.145 141.679C128.353 141.186 128.104 140.063 128.081 139.445C127.909 134.806 129.24 129.821 129.654 125.986C134.587 123.656 139.737 121.529 144.7 119.228C145.088 119.825 145.448 120.449 145.645 121.226C143.444 121.014 141.453 121.76 140.23 122.988C139.145 124.082 138.18 126.939 138.217 128.866C138.233 129.768 138.607 130.388 139.035 131.1C138.854 131.595 138.055 131.708 138.091 132.511C138.115 133.047 138.539 133.329 138.972 133.333C139.597 133.339 141.139 131.973 141.175 131.394C141.226 130.58 140.213 129.928 140.105 129.042C139.945 127.727 140.897 124.947 141.553 124.223C142.137 123.577 143.616 122.892 144.7 122.871C145.653 122.853 147.645 124.004 147.911 122.636C148.037 121.989 147.356 120.31 147.093 119.697C146.903 119.255 146.544 118.692 146.337 118.463C146.931 118.038 147.684 117.763 148.351 117.407C148.406 117.395 148.411 117.428 148.415 117.465C149.931 120.537 149.151 124.937 148.793 129.219ZM118.89 132.392C119.248 134.628 120.36 136.59 121.597 138.093C121.205 139.149 121.078 141.174 119.96 141.621C119.059 141.981 117.876 141.681 116.561 141.855C115.628 139.904 115.311 137.61 115.491 135.213C115.668 132.857 116.609 130.676 117.254 128.925C117.404 129.466 118.632 130.666 118.827 131.276C118.937 131.617 118.834 132.036 118.89 132.392ZM132.363 107.884C131.784 108.303 130.239 108.28 130.159 109.236C130.015 110.944 132.281 109.751 133.181 109.471C134.191 109.16 135.286 108.833 136.643 108.943C138.954 109.129 141.824 110.291 143.82 111.058C146.123 111.944 148.141 113.093 149.297 114.703C147.826 115.836 145.957 116.611 144.134 117.466C139.682 119.555 135.284 121.537 130.538 123.578C129.746 123.917 128.241 124.419 127.956 124.93C127.593 125.578 127.591 127.002 127.453 127.927C126.887 131.713 126.186 135.35 126.193 139.504C125.899 139.543 125.68 139.279 125.501 139.152C122.872 137.274 120.433 134.476 120.653 129.807C120.758 127.597 121.115 125.037 121.597 122.93C121.798 122.058 122.646 120.178 121.094 120.226C119.987 120.263 119.707 122.766 119.52 123.636C119.196 125.149 119.081 126.465 118.953 127.986C116.227 124.75 116.797 118.383 118.45 114.644C119.194 112.96 120.705 111.238 122.29 110.06C124.78 108.207 128.138 106.728 132.363 107.884ZM86.9111 154.784C84.63 152.656 82.7471 149.891 83.0709 145.968C83.3478 142.617 85.7952 141.423 88.7368 140.327C89.3311 140.104 90.031 139.85 90.1219 139.445C90.2489 138.878 89.6956 138.294 89.4294 137.8C88.3469 135.79 88.0022 131.013 89.9962 129.513C90.669 129.007 91.6949 128.774 92.7658 128.396C93.6922 128.07 94.6322 127.512 95.3469 127.162C100.66 124.566 105.75 122.501 108.063 117.113C109.533 113.687 110.264 109.653 111.525 105.71C112.113 103.875 113.004 102.4 114.044 100.715C115.085 99.0246 116.488 96.7199 118.765 96.4831C121.633 96.1836 124.661 98.0405 125.816 99.6567C126.96 101.257 127.278 103.593 127.579 105.71C120.557 107.596 116.187 111.885 115.303 119.345C115.072 121.298 115.048 123.452 115.555 125.164C115.701 125.661 116.11 126.23 116.122 126.692C116.131 127.107 115.727 127.86 115.492 128.455C114.832 130.126 114.122 131.777 113.792 133.802C113.323 136.682 113.606 139.529 114.548 141.914C111.235 142.129 108.469 142.037 106.302 143.029C100.038 145.899 98.0728 152.925 95.4104 159.251C92.4543 158.343 89.2574 156.976 86.9111 154.784ZM146.337 231.013C146.484 231.032 146.597 231.083 146.715 231.13C146.628 231.322 146.551 231.525 146.337 231.6V231.013ZM129.97 226.488C130.114 226.519 130.225 226.339 130.412 226.37C134.745 227.074 139.989 228.299 144.198 229.19C144.367 230.85 144.842 232.723 144.198 234.186C143.763 235.173 142.488 235.99 141.553 236.595C140.589 237.219 139.309 238.192 138.091 238.241C137.223 238.276 136.4 237.765 135.888 237.36C135.164 236.787 134.631 235.795 134.062 234.891C132.954 233.13 131.972 231.272 130.977 229.426C130.493 228.526 129.736 227.544 129.97 226.488ZM190.845 218.728C192.248 218.871 193.586 219.616 194.621 220.317C195.84 221.138 197.403 222.375 197.455 224.077C197.509 225.892 196.016 227.808 194.811 228.837C193.032 230.357 190.534 230.921 188.012 231.424C188.344 226.196 186.741 222.776 185.116 219.375C187.075 219.233 188.654 218.509 190.845 218.728Z" fill="#222222"/>
<path fill-rule="evenodd" clip-rule="evenodd" d="M132.11 131.805C132.8 131.623 133.225 132.153 133.999 132.511C134.806 132.883 136.193 132.842 136.203 133.802C136.216 135.248 133.96 134.485 133.055 134.039C132.541 133.785 131.541 133.415 131.481 132.687C131.436 132.14 131.789 131.889 132.11 131.805Z" fill="#222222"/>
<path d="M109.542 167.943C108.973 167.918 108.572 167.504 108.598 167.019C108.613 166.713 107.724 165.337 104.72 163.608C101.565 161.789 97.5384 160.566 96.4368 161.093C95.9727 161.316 95.4032 161.142 95.1661 160.709C94.9289 160.276 95.1128 159.744 95.5772 159.522C98.1066 158.322 103.885 161.054 105.712 162.107C107.18 162.953 110.588 165.134 110.484 167.105C110.459 167.577 110.042 167.943 109.542 167.943Z" fill="#222222"/>
<path d="M146.182 161.209C145.926 161.209 145.672 161.114 145.485 160.925C145.134 160.565 145.159 160.008 145.542 159.679C147.006 158.424 150.649 155.562 153.044 155.989C153.556 156.083 153.888 156.547 153.788 157.024C153.686 157.502 153.192 157.816 152.679 157.719C151.882 157.575 149.526 158.659 146.821 160.977C146.64 161.133 146.41 161.209 146.182 161.209Z" fill="#F44817"/>
<path fill-rule="evenodd" clip-rule="evenodd" d="M155.213 213.768C155.213 213.768 160.071 217.339 158.622 222.664C157.174 227.992 152.317 230.109 152.317 230.109L129.714 225.936C129.714 225.936 121.774 229.581 117.438 230.226C113.1 230.872 99.6895 229.618 95.5903 225.699C91.4912 221.782 89.8316 215.686 91.6242 211.592C93.4161 207.501 99.6832 196.899 99.6832 196.899L111.016 200.366C111.016 200.366 113.184 198.883 116.62 198.896C120.054 198.91 122.474 197.075 122.474 197.075C122.474 197.075 125.253 200.229 128.645 199.72C132.036 199.21 137.337 197.603 136.451 195.312C135.567 193.019 130.407 188.374 130.407 188.374L132.17 187.081C132.17 187.081 135.323 189.402 136.514 188.963C137.707 188.523 137.669 187.296 135.066 185.612C132.464 183.93 131.748 182.869 129.967 183.849C128.186 184.83 120.272 191.196 120.272 191.196L108.182 185.436L117.438 175.327L138.529 175.033L154.08 197.604C154.08 197.604 191.019 184.963 198.592 190.316C206.167 195.667 207.805 204.446 202.874 209.889C197.943 215.332 172.402 220.705 172.402 220.705L155.213 213.768Z" fill="#F44817"/>
<path fill-rule="evenodd" clip-rule="evenodd" d="M184.573 219.127C184.573 219.127 186.137 222.191 186.84 225.239C187.543 228.29 187.47 232.351 187.47 232.351L167.071 233.645L163.201 232.666C163.201 232.666 168.088 230.812 169.484 226.785C171.176 221.906 168.992 219.694 168.992 219.694L173.556 221.772L184.573 219.127Z" fill="#F44817"/>
<path fill-rule="evenodd" clip-rule="evenodd" d="M133.425 123.791C134.207 123.791 134.842 124.382 134.842 125.113V126.876C134.842 127.606 134.207 128.199 133.425 128.199C132.642 128.199 132.009 127.606 132.009 126.876V125.113C132.009 124.382 132.643 123.791 133.425 123.791Z" fill="#222222"/>
<path fill-rule="evenodd" clip-rule="evenodd" d="M141.758 124.513C142.54 124.513 143.174 125.104 143.174 125.835V127.598C143.174 128.328 142.54 128.921 141.758 128.921C140.975 128.921 140.342 128.328 140.342 127.598V125.835C140.342 125.104 140.976 124.513 141.758 124.513Z" fill="#222222"/>
<path fill-rule="evenodd" clip-rule="evenodd" d="M64.0488 208.883H54.2295C51.9693 208.883 50.1377 208.435 50.1377 210.059L52.2157 229.221C52.2157 229.87 52.7796 230.397 53.4742 230.397H64.8045C65.499 230.397 66.063 229.87 66.063 229.221L68.1396 210.059C68.1396 208.435 66.3077 208.883 64.0488 208.883Z" fill="#222222"/>
<path d="M63.831 216.269H54.0118C51.7525 216.269 49.9209 216.114 49.9209 216.676L50.6502 223.289C50.6502 223.514 51.3249 223.694 52.1593 223.694H65.7476C66.5817 223.694 67.2578 223.514 67.2578 223.289L67.9232 216.676C67.9229 216.114 66.0912 216.269 63.831 216.269Z" fill="white"/>
<path d="M65.7473 224.575H52.1593C50.6005 224.575 49.7066 224.107 49.7066 223.288L48.9816 216.766C48.9766 216.372 49.1056 216.086 49.3395 215.871C49.9189 215.338 50.9435 215.356 52.8026 215.377L63.8313 215.388L65.0411 215.377C66.9002 215.356 67.9258 215.338 68.5043 215.871C68.7384 216.086 68.8671 216.372 68.8671 216.676L68.1983 223.371C68.2023 224.107 67.307 224.575 65.7473 224.575ZM66.3277 223.146C66.3188 223.191 66.3141 223.238 66.3141 223.288L66.3277 223.146ZM51.5785 223.095L51.5901 223.199C51.5911 223.163 51.5871 223.128 51.5785 223.095ZM51.5418 222.767C51.6953 222.792 51.9046 222.812 52.1593 222.812H65.7473C66.0029 222.812 66.2126 222.792 66.3657 222.767L66.9263 217.155C66.459 217.121 65.7069 217.131 65.0686 217.141L54.0121 217.151L52.7751 217.141C52.1368 217.131 51.3864 217.12 50.918 217.155L51.5418 222.767Z" fill="#222222"/>
<path d="M55.0383 207.736H63.2399C65.1271 207.736 66.658 208.004 66.658 207.038L66.0733 205.355C66.0733 204.969 65.5084 204.656 64.8119 204.656H53.4657C52.7698 204.656 52.2049 204.969 52.2049 205.355L51.6201 207.038C51.6201 208.004 53.1511 207.736 55.0383 207.736Z" fill="white"/>
<path fill-rule="evenodd" clip-rule="evenodd" d="M55.0383 207.736H63.2399C65.1271 207.736 66.658 208.004 66.658 207.038L66.0733 205.355C66.0733 204.969 65.5084 204.656 64.8119 204.656H53.4657C52.7698 204.656 52.2049 204.969 52.2049 205.355L51.6201 207.038C51.6201 208.004 53.1511 207.736 55.0383 207.736Z" fill="white"/>
<path d="M53.2122 208.652C52.3387 208.652 51.6346 208.567 51.1448 208.122C50.9305 207.928 50.6758 207.582 50.6758 207.037C50.6758 206.945 50.6913 206.853 50.7221 206.765L51.2728 205.181C51.3859 204.368 52.2908 203.775 53.4649 203.775H64.8114C65.9865 203.775 66.8924 204.368 67.0056 205.181L67.5552 206.766C67.5857 206.853 67.6015 206.945 67.6015 207.037C67.6015 207.582 67.3469 207.928 67.1326 208.122C66.4962 208.699 65.501 208.672 64.2363 208.636C63.9218 208.628 63.5874 208.618 63.2401 208.618H55.0389C54.6919 208.618 54.3572 208.628 54.0427 208.636C53.751 208.644 53.4738 208.652 53.2122 208.652ZM52.6711 206.87C53.0105 206.902 53.5585 206.885 53.9861 206.873C54.3185 206.864 54.6714 206.855 55.0385 206.855H63.2398C63.6066 206.855 63.9598 206.864 64.2922 206.873C64.7218 206.887 65.2699 206.902 65.6062 206.87L65.1753 205.627C65.0936 205.568 64.9745 205.538 64.8114 205.538H53.4649C53.3025 205.538 53.1844 205.567 53.1136 205.594C53.103 205.628 52.6711 206.87 52.6711 206.87Z" fill="#222222"/>
<path d="M53.2682 212.138H65.0093C67.7115 212.138 69.9016 212.584 69.9016 210.962L69.0655 208.137C69.0655 207.489 68.2575 206.963 67.26 206.963H51.0172C50.0197 206.963 49.2121 207.489 49.2121 208.137L48.375 210.962C48.375 212.584 50.5661 212.138 53.2682 212.138Z" fill="white"/>
<path d="M50.6563 213.076C49.5431 213.076 48.6481 212.962 48.0346 212.408C47.6334 212.046 47.4307 211.56 47.4307 210.963C47.4307 210.883 47.4416 210.804 47.4651 210.728L48.2744 207.997C48.368 206.913 49.5394 206.082 51.0172 206.082H67.2606C68.74 206.082 69.9121 206.913 70.0044 207.998L70.813 210.728C70.8355 210.805 70.8465 210.884 70.8465 210.963C70.8465 211.56 70.6437 212.046 70.2425 212.408C69.4233 213.146 68.1073 213.106 66.4364 213.05C65.9859 213.035 65.5061 213.019 65.0093 213.019H53.2685C52.7717 213.019 52.2922 213.035 51.8414 213.05C51.4233 213.064 51.0281 213.076 50.6563 213.076ZM53.2685 211.257H65.0093C65.5285 211.257 66.0303 211.272 66.5012 211.288C67.3354 211.313 68.7331 211.359 68.9315 211.139L68.1552 208.372C68.1328 208.295 68.1219 208.216 68.1219 208.137C68.0924 208.066 67.7815 207.844 67.2603 207.844H51.0168C50.4966 207.844 50.185 208.066 50.1553 208.149C50.1553 208.229 50.1453 208.296 50.1219 208.372L49.343 210.998C49.632 211.358 50.9659 211.313 51.7762 211.288C52.2478 211.272 52.7492 211.257 53.2685 211.257Z" fill="#222222"/>
<path d="M120.252 198.771H180.983C182.721 198.771 184.13 200.086 184.13 201.71V203.71C184.13 205.332 182.721 206.648 180.983 206.648L139.433 206.521L120.252 198.771Z" fill="white"/>
<path d="M120.252 198.771H180.983C182.721 198.771 184.13 200.086 184.13 201.71V203.71C184.13 205.332 182.721 206.648 180.983 206.648L139.433 206.521L120.252 198.771Z" fill="white"/>
<path d="M180.981 207.53L139.427 207.403C139.299 207.403 139.173 207.378 139.055 207.331L119.876 199.58C119.465 199.414 119.235 199.002 119.327 198.592C119.417 198.182 119.803 197.889 120.251 197.889H180.981C183.239 197.889 185.075 199.603 185.075 201.71V203.71C185.075 205.816 183.239 207.53 180.981 207.53ZM139.628 205.64L180.985 205.767C182.197 205.767 183.186 204.844 183.186 203.71V201.71C183.186 200.575 182.197 199.652 180.981 199.652H124.81L139.628 205.64Z" fill="#222222"/>
<path d="M180.981 207.53L139.427 207.403C139.299 207.403 139.173 207.378 139.055 207.331L119.876 199.58C119.465 199.414 119.235 199.002 119.327 198.592C119.417 198.182 119.803 197.889 120.251 197.889H180.981C183.239 197.889 185.075 199.603 185.075 201.71V203.71C185.075 205.816 183.239 207.53 180.981 207.53ZM139.628 205.64L180.985 205.767C182.197 205.767 183.186 204.844 183.186 203.71V201.71C183.186 200.575 182.197 199.652 180.981 199.652H124.81L139.628 205.64Z" fill="#222222"/>
<path d="M198.316 168.045L153.621 168.11C152.008 168.112 150.234 169.229 149.66 170.607L137.99 198.577C137.416 199.955 139.419 202.626 141.032 202.623L185.718 202.561C187.332 202.559 189.105 201.44 189.679 200.062L201.347 172.082C201.921 170.705 199.93 168.044 198.316 168.045Z" fill="white"/>
<path d="M141.03 203.505C139.946 203.505 138.768 202.781 137.877 201.569C137.021 200.4 136.734 199.162 137.111 198.258L148.781 170.286C149.495 168.573 151.622 167.23 153.62 167.228L198.316 167.164C199.404 167.164 200.578 167.884 201.463 169.092C202.319 170.258 202.604 171.496 202.226 172.402L190.558 200.383C189.844 202.097 187.72 203.441 185.721 203.443L141.033 203.505C141.032 203.505 141.032 203.505 141.03 203.505ZM198.32 168.927L153.624 168.991C152.389 168.993 150.976 169.879 150.54 170.926L138.87 198.897C138.753 199.176 138.913 199.859 139.436 200.572C139.993 201.332 140.673 201.742 141.029 201.742L185.717 201.68C186.95 201.678 188.361 200.791 188.799 199.743L200.467 171.762C200.584 171.481 200.426 170.799 199.905 170.088C199.353 169.334 198.676 168.927 198.32 168.927Z" fill="#222222"/>
<path fill-rule="evenodd" clip-rule="evenodd" d="M173.088 182.172C170.815 182.164 168.369 183.839 167.625 185.909C166.881 187.979 168.121 189.662 170.393 189.667C172.666 189.673 175.111 188.001 175.855 185.931C176.599 183.861 175.359 182.178 173.088 182.172Z" fill="#222222"/>
<path d="M156.27 234.452C154.134 234.452 148.681 233.15 146.614 231.98C146.002 231.634 145.796 231.169 145.733 230.841C145.53 229.809 146.399 228.771 147.409 227.569C148.225 226.596 149.15 225.493 149.313 224.573C149.464 223.732 149.551 222.803 149.641 221.86C149.952 218.607 150.306 214.921 153.321 213.782C154.543 213.325 156.738 213.618 158.087 214.657C161.221 214.922 163.856 216.148 165.536 218.13C167.112 219.987 167.737 222.378 167.295 224.862C166.386 229.97 161.235 234.452 156.27 234.452ZM154.641 215.331C154.395 215.331 154.181 215.36 154.027 215.418C152.084 216.152 151.799 219.133 151.523 222.017C151.427 223.007 151.334 223.98 151.177 224.862C150.933 226.226 149.851 227.517 148.895 228.656C148.374 229.278 147.587 230.216 147.591 230.537C149.371 231.479 154.434 232.689 156.269 232.689C160.31 232.689 164.674 228.821 165.43 224.573C165.784 222.587 165.296 220.687 164.055 219.225C162.65 217.569 160.368 216.564 157.628 216.393C157.398 216.379 157.182 216.287 157.021 216.134C156.451 215.597 155.393 215.331 154.641 215.331Z" fill="#222222"/>
<path d="M148.842 232.121C146.723 232.121 144.817 231.289 143.474 229.775C141.727 227.811 141.082 224.922 141.7 221.851C142.805 216.366 147.677 211.905 152.561 211.905C154.68 211.905 156.586 212.737 157.931 214.252C159.676 216.217 160.321 219.105 159.702 222.176C158.596 227.66 153.726 232.121 148.842 232.121ZM152.561 213.668C148.541 213.668 144.501 217.485 143.556 222.176C143.041 224.73 143.541 227.09 144.928 228.65C145.921 229.767 147.274 230.359 148.842 230.359C152.86 230.359 156.901 226.541 157.845 221.851C158.36 219.296 157.862 216.936 156.476 215.377C155.482 214.259 154.129 213.668 152.561 213.668Z" fill="#222222"/>
<path d="M163.579 232.736C163.057 232.736 162.635 232.341 162.635 231.854C162.635 231.368 163.057 230.973 163.579 230.973C166.179 230.973 168.854 228.26 169.42 225.049C169.739 223.255 169.354 221.552 168.392 220.493C167.751 219.787 166.899 219.414 165.933 219.414C165.412 219.414 164.989 219.019 164.989 218.532C164.989 218.045 165.412 217.651 165.933 217.651C167.45 217.651 168.834 218.255 169.832 219.353C171.167 220.823 171.698 223.004 171.285 225.337C170.554 229.485 167.168 232.736 163.579 232.736Z" fill="#222222"/>
<path d="M134.985 192.712C134.985 192.712 136.408 195.355 136.359 195.486C136.312 195.615 136.277 196.594 135.963 196.789C135.648 196.985 135.055 197.572 134.426 197.801C133.797 198.028 133.694 198.503 132.384 198.771C131.074 199.039 128.874 199.886 128.629 199.886C128.385 199.886 126.743 199.235 126.395 198.908C126.045 198.581 124.578 197.67 123.951 197.343C123.322 197.018 121.925 196.495 121.47 196.138C121.017 195.777 120.186 194.246 120.252 194.116C120.319 193.985 124.229 190.008 124.229 190.008L129.816 187.791L134.985 192.712Z" fill="white"/>
<path fill-rule="evenodd" clip-rule="evenodd" d="M136.329 189.93C137.472 189.992 138.722 189.1 138.722 188.05C138.722 187.29 137.986 186.682 137.525 186.228C137.006 185.717 136.49 185.225 135.888 184.759C134.747 183.878 133.378 182.745 131.545 182.82C130.367 182.867 129.146 183.649 128.208 184.23C125.19 186.101 122.657 188.333 120.088 190.342C118.673 189.642 117.225 188.973 115.772 188.308V190.254C116.348 190.517 116.925 190.781 117.506 191.047C118.278 191.401 119.591 192.283 120.402 192.223C121.181 192.164 122.365 190.835 123.108 190.225C125.054 188.623 126.422 187.558 128.523 186.169C129.415 185.581 130.708 184.577 131.733 184.583C132.829 184.589 133.923 185.516 134.629 186.052C135.001 186.334 135.389 186.704 135.762 187.052C136.113 187.379 136.75 187.696 136.58 188.167C135.793 187.981 135.155 187.645 134.377 187.228C133.771 186.901 132.971 186.181 132.237 186.17C131.751 186.162 130.698 186.493 130.096 186.757C129.622 186.966 129.153 187.365 129.152 187.815C129.15 188.424 130.205 189.2 130.789 189.695C132.177 190.875 133.325 191.824 134.44 193.164C135.176 194.049 136.417 195.489 135.069 196.22C133.701 194.389 132.102 192.237 130.159 190.636C129.732 190.284 128.765 189.173 127.83 189.402C127.548 189.472 127.297 189.83 127.263 190.049C127.137 190.885 128.358 191.537 128.774 191.871C130.766 193.467 132.158 195.295 133.496 197.277C132.995 197.496 132.548 197.764 131.985 197.924C130.264 196.342 128.196 194.551 126.256 192.869C125.812 192.483 124.95 191.288 123.99 191.458C123.631 191.523 123.316 191.943 123.298 192.223C123.25 192.945 124.397 193.689 124.745 193.986C125.43 194.571 125.99 195.05 126.509 195.514C127.707 196.59 129.037 197.5 129.845 198.57C126.866 198.959 125.575 196.866 123.549 195.986C122.803 195.765 120.5 194.103 120.276 195.69C120.173 196.418 120.811 196.49 120.969 196.866C120.243 196.948 119.663 197.831 118.765 197.924C118.103 197.993 117.372 197.694 116.689 197.689C116.37 197.686 116.066 197.701 115.773 197.727V199.496C117.072 199.4 118.438 199.619 119.773 199.922C122.505 200.542 124.975 201.581 127.429 202.61H132.056C128.628 201.19 125.155 199.81 121.598 198.511C122.12 198.292 122.514 197.956 123.109 197.807C125.191 199.134 127.381 200.92 130.664 200.157C133.343 199.535 136.24 198.357 137.274 196.396C138.332 194.389 136.199 192.429 135.07 191.223C134.226 190.321 133.394 189.572 132.552 188.815C132.296 188.584 131.791 188.29 131.923 188.05C133.259 188.182 134.636 189.84 136.329 189.93Z" fill="#222222"/>
<path fill-rule="evenodd" clip-rule="evenodd" d="M114.975 57.7963C114.975 57.7963 115.936 66.3964 116.674 67.8197C117.531 69.4737 123.002 70.2035 123.002 70.2035C123.002 70.2035 117.675 71.0893 116.867 72.6482C116.072 74.1828 114.975 82.6107 114.975 82.6107C114.975 82.6107 113.922 73.9563 113.083 72.3368C112.322 70.8707 106.948 70.2035 106.948 70.2035C106.948 70.2035 112.387 69.3524 113.211 67.7587C113.987 66.2605 114.975 57.7963 114.975 57.7963Z" fill="#222222"/>
<path fill-rule="evenodd" clip-rule="evenodd" d="M121.682 0C121.682 0 122.124 3.9449 122.463 4.59845C122.856 5.35858 125.37 5.69206 125.37 5.69206C125.37 5.69206 122.922 6.09861 122.551 6.81439C122.186 7.51804 121.682 11.3841 121.682 11.3841C121.682 11.3841 121.199 7.41496 120.813 6.67079C120.463 5.99745 117.994 5.69206 117.994 5.69206C117.994 5.69206 120.492 5.30178 120.872 4.57005C121.229 3.88236 121.682 0 121.682 0Z" fill="#222222"/>
<path fill-rule="evenodd" clip-rule="evenodd" d="M24.6102 39.5875C24.6102 39.5875 25.0524 43.5347 25.3908 44.1879C25.7847 44.9461 28.2976 45.2796 28.2976 45.2796C28.2976 45.2796 25.8498 45.6861 25.4791 46.4019C25.1143 47.1056 24.6102 50.9739 24.6102 50.9739C24.6102 50.9739 24.126 47.0028 23.7404 46.2606C23.3915 45.5872 20.9219 45.2796 20.9219 45.2796C20.9219 45.2796 23.4212 44.8896 23.8003 44.1595C24.1565 43.4721 24.6102 39.5875 24.6102 39.5875Z" fill="#222222"/>
<path fill-rule="evenodd" clip-rule="evenodd" d="M8.11518 68.9924C8.11518 68.9924 9.07727 77.5923 9.81481 79.0158C10.6711 80.6698 16.1418 81.398 16.1418 81.398C16.1418 81.398 10.8143 82.2855 10.0067 83.8428C9.21124 85.3793 8.11518 93.8056 8.11518 93.8056C8.11518 93.8056 7.0621 85.1531 6.22302 83.5332C5.46332 82.0672 0.0878906 81.3984 0.0878906 81.3984C0.0878906 81.3984 5.52619 80.5473 6.35104 78.9555C7.12827 77.4547 8.11518 68.9924 8.11518 68.9924Z" fill="#222222"/>
<path fill-rule="evenodd" clip-rule="evenodd" d="M221.096 100.508C221.096 100.508 215.561 87.4013 229.224 83.8913C237.318 81.8104 238.565 89.9309 234.102 90.5076C229.639 91.0839 225.95 83.1918 228.108 78.5471C230.264 73.9024 235.111 74.5294 241.57 72.8611C247.21 71.4053 246.142 64.4799 246.142 64.4799L221.096 100.508Z" fill="white"/>
<path d="M221.094 101.244C220.793 101.244 220.508 101.071 220.388 100.785C220.28 100.529 217.77 94.4511 220.451 89.2528C221.708 86.8169 223.885 85.0015 226.94 83.8393C226.554 81.9469 226.621 79.9467 227.41 78.2461C229.172 74.4515 232.518 73.8564 236.757 73.103C238.217 72.8438 239.729 72.5755 241.372 72.1514C246.297 70.8787 245.396 64.6499 245.386 64.5874C245.323 64.1859 245.61 63.8122 246.027 63.7522C246.456 63.6811 246.832 63.9705 246.893 64.371C247.298 66.9909 246.745 72.2851 241.765 73.5708C240.063 74.0108 238.452 74.2968 237.032 74.5492C232.939 75.2771 230.236 75.7574 228.802 78.8477C228.185 80.1733 228.112 81.7874 228.397 83.3533C228.603 83.2933 228.814 83.2355 229.026 83.1806C233.13 82.1282 235.252 83.5668 236.154 84.5177C237.323 85.7495 237.722 87.4954 237.169 88.9662C236.696 90.2264 235.614 91.0538 234.199 91.2361C232.39 91.4779 230.549 90.5624 229.081 88.6656C228.367 87.744 227.75 86.5645 227.323 85.2759C224.725 86.3035 222.878 87.8531 221.819 89.8999C219.441 94.4965 221.776 100.174 221.8 100.231C221.957 100.608 221.77 101.037 221.381 101.189C221.287 101.225 221.19 101.244 221.094 101.244ZM228.759 84.7842C229.129 85.9174 229.67 86.9666 230.303 87.7867C230.953 88.6247 232.306 90.0129 233.999 89.7787C234.841 89.6695 235.459 89.2036 235.736 88.4642C236.092 87.5171 235.809 86.3303 235.032 85.5102C234.361 84.8072 232.74 83.749 229.42 84.602C229.196 84.6588 228.976 84.7197 228.759 84.7842Z" fill="#222222"/>
</svg>
