<svg width="157" height="28" viewBox="0 0 157 28" fill="none" xmlns="http://www.w3.org/2000/svg">
<path d="M27.0693 0.65625C27.9802 -0.211698 29.4164 -0.215888 30.332 0.626953L30.418 0.710938L30.7148 1.02051C33.7137 4.23447 34.8315 7.97988 34.5449 11.6377C34.2541 15.3473 32.5356 18.846 30.1387 21.6104C27.7432 24.3728 24.5448 26.5479 21.0879 27.4922C17.5875 28.4481 13.7588 28.1439 10.4355 25.8066C7.6169 23.824 6.54366 20.6195 6.4707 17.5068C4.88899 16.7339 3.22472 15.7728 1.47852 14.6045L1.0166 14.292L0.918945 14.2217C-0.0724508 13.4671 -0.299697 12.0702 0.422852 11.0449C1.14566 10.0198 2.55331 9.74189 3.61719 10.3936L3.71973 10.46L4.13965 10.7441C5.1857 11.444 6.18371 12.0515 7.13281 12.5752C7.74509 10.4345 8.76016 8.37885 10.0967 6.68457C12.0991 4.14638 15.1014 2.1161 18.7793 2.41895C22.092 2.69199 24.5393 4.39506 25.8027 6.79785C27.0261 9.12462 27.0448 11.924 25.9756 14.3311C24.8855 16.7847 22.6723 18.8285 19.4893 19.6709C17.1984 20.2771 14.5145 20.2355 11.4863 19.4238V19.4248C10.2809 19.1016 9.01751 18.655 7.69727 18.0752C7.40108 17.9451 7.14329 18.1444 7.69727 18.4893C9.25633 19.5917 11.4523 20.516 12.0879 20.8262C12.3882 21.3102 12.7606 21.7075 13.1875 22.0078C15.1521 23.3896 17.4505 23.6428 19.8223 22.9951C22.2377 22.3354 24.6593 20.7446 26.5371 18.5791C28.4134 16.4152 29.6229 13.8221 29.8223 11.2783C30.0104 8.87812 29.3149 6.41257 27.2207 4.17188L27.0137 3.95605L26.9316 3.86719C26.1075 2.93768 26.159 1.52414 27.0693 0.65625ZM74.249 9.79688C77.9923 9.79688 80.2651 12.4449 79.7646 16.0557C79.2804 19.5433 76.458 22.1321 72.8936 22.3047C73.7328 22.7835 74.9522 23.1715 75.8486 23.4561C76.1478 23.5511 76.4112 23.6343 76.6123 23.7061C77.4261 23.9102 77.9458 24.6709 77.8203 25.5781C77.6728 26.6419 76.6937 27.5048 75.6328 27.5049H69.873C67.7523 27.5049 66.2723 25.7799 66.5674 23.6523H72.71C71.3068 23.1079 69.8234 22.0186 68.8691 21.1963C67.4152 20.0916 66.6934 18.2517 66.998 16.0557C67.4989 12.4449 70.5061 9.79692 74.249 9.79688ZM107.222 9.79688C110.989 9.79692 113.271 12.3728 112.739 16.2002C112.165 20.3402 108.821 22.3143 106.133 22.3145C104.718 22.3145 103.594 21.7603 102.997 20.7012L102.111 27.0801H98.5127L100.025 16.1758C100.58 12.1798 103.598 9.79688 107.222 9.79688ZM60.9189 9.79688C64.6622 9.79694 66.9346 12.4449 66.4336 16.0557C65.9327 19.6663 62.9258 22.3142 59.1826 22.3145C55.4393 22.3145 53.167 19.6664 53.668 16.0557C54.1689 12.4449 57.1757 9.79688 60.9189 9.79688ZM87.5801 9.79688C91.3234 9.79688 93.5959 12.4449 93.0947 16.0557C92.5935 19.6664 89.587 22.3145 85.8438 22.3145C82.1006 22.3143 79.8287 19.6664 80.3291 16.0557C80.8303 12.445 83.837 9.79706 87.5801 9.79688ZM119.246 9.79688C122.197 9.79701 123.784 11.5062 123.559 13.6484H120.056C120.036 13.0948 119.599 12.7822 118.879 12.7822C117.992 12.7824 117.569 13.2393 117.502 13.7207C117.407 14.4101 118.177 14.5286 119.187 14.6846L119.333 14.707C121.003 14.9478 123.554 15.4058 123.164 18.2217C122.823 20.677 120.58 22.3145 117.533 22.3145C114.486 22.3144 112.746 20.6774 113.015 18.3906H116.565C116.503 19.0164 116.916 19.3291 117.899 19.3291C119.003 19.329 119.416 18.9439 119.486 18.4385C119.589 17.697 118.852 17.5852 117.874 17.4365L117.871 17.4355C117.803 17.4251 117.733 17.4142 117.662 17.4033C116.064 17.1626 113.434 16.7531 113.831 13.8887C114.165 11.4817 116.295 9.79688 119.246 9.79688ZM128.094 16.2725C127.833 18.1498 128.635 18.9443 129.979 18.9443C131.322 18.9443 132.345 18.1498 132.605 16.2725L133.46 10.1094H137.06L136.204 16.2725C135.649 20.2681 133.014 22.3145 129.511 22.3145C126.008 22.3143 123.937 20.292 124.494 16.2725L125.35 10.1094H128.948L128.094 16.2725ZM45.4209 18.3906H52.8359L52.335 22.001H41.0332L43.2168 6.25781H47.1045L45.4209 18.3906ZM97.2988 22.001H93.6992L95.3486 10.1094H98.9482L97.2988 22.001ZM151.683 9.79688C154.563 9.79688 156.537 11.4821 156.006 15.3096L155.077 22.001H151.478L152.406 15.3096C152.626 13.7208 151.935 13.167 150.855 13.167C149.8 13.1671 148.955 13.7209 148.734 15.3096L147.807 22.001H144.207L145.136 15.3096C145.357 13.7209 144.665 13.1671 143.609 13.167C142.529 13.167 141.685 13.7208 141.464 15.3096L140.536 22.001H136.937L137.864 15.3096C138.396 11.4821 140.838 9.79688 143.717 9.79688C145.397 9.79696 146.722 10.4467 147.437 11.6982C148.497 10.4467 149.98 9.79699 151.683 9.79688ZM60.4512 13.167C58.8195 13.167 57.5525 14.3466 57.3154 16.0557C57.0784 17.7646 58.0179 18.9442 59.6494 18.9443C61.2811 18.9443 62.549 17.7647 62.7861 16.0557C63.0232 14.3465 62.0829 13.167 60.4512 13.167ZM73.7822 13.167C72.1509 13.167 70.8826 14.3465 70.6455 16.0557C70.4085 17.7647 71.3486 18.9442 72.9805 18.9443C74.6117 18.9443 75.88 17.7648 76.1172 16.0557C76.3543 14.3467 75.414 13.1672 73.7822 13.167ZM87.1123 13.167C85.4811 13.1671 84.2137 14.3466 83.9766 16.0557C83.7394 17.7648 84.6795 18.9443 86.3115 18.9443C87.9427 18.9442 89.2101 17.7646 89.4473 16.0557C89.6844 14.3465 88.7443 13.167 87.1123 13.167ZM106.777 13.167C105.146 13.1671 103.879 14.3466 103.642 16.0557C103.404 17.7647 104.345 18.9443 105.977 18.9443C107.608 18.9443 108.875 17.7647 109.112 16.0557C109.349 14.3465 108.409 13.167 106.777 13.167ZM18.3848 7.07031C16.8652 6.94516 15.2609 7.74157 13.8359 9.54785C12.7507 10.9235 11.9304 12.7115 11.5117 14.5508C14.4937 15.5664 16.7165 15.5735 18.2607 15.165C20.0483 14.6919 21.1198 13.6203 21.6357 12.459C22.1724 11.2506 22.1171 9.9341 21.5967 8.94434C21.1163 8.03087 20.1497 7.2158 18.3848 7.07031ZM97.9395 4.4043C99.2588 4.4043 100.106 5.39186 99.9229 6.71582C99.7392 8.03962 98.6177 9.02637 97.2979 9.02637C95.9789 9.02618 95.1321 8.03949 95.3154 6.71582C95.4989 5.392 96.6196 4.40451 97.9395 4.4043Z" fill="#656565"/>
</svg>
