<svg width="146" height="28" viewBox="0 0 146 28" fill="none" xmlns="http://www.w3.org/2000/svg">
<path d="M21.1592 10.2666V17.7334L10.5801 28L2.05078 19.7236L7.93457 14.0928V20.7666L14.4268 14.4668V3.7334L21.1592 10.2666ZM93.2725 9.07129C94.3247 9.07132 95.2742 9.32845 96.1191 9.84277C96.9788 10.3571 97.6541 11.0918 98.1436 12.0469C98.6471 12.9873 98.8994 14.0822 98.8994 15.3311C98.8994 16.5799 98.647 17.6894 98.1436 18.6592C97.6541 19.6143 96.9788 20.3568 96.1191 20.8857C95.2742 21.4148 94.3247 21.6797 93.2725 21.6797C92.3675 21.6797 91.567 21.4953 90.8701 21.1279C90.1881 20.7606 89.6324 20.2976 89.2021 19.7393V27.2998H86.0889V9.26953H89.2021V11.0332C89.6027 10.4749 90.151 10.0119 90.8477 9.64453C91.5593 9.26247 92.3675 9.07129 93.2725 9.07129ZM59.4277 9.07129C60.6139 9.07129 61.6896 9.33617 62.6533 9.86523C63.6169 10.3795 64.3733 11.1143 64.9219 12.0693C65.4851 13.0243 65.7666 14.1262 65.7666 15.375C65.7666 16.624 65.4777 17.7265 64.8994 18.6816C64.336 19.6368 63.5645 20.3792 62.5859 20.9082C62.5802 20.9113 62.5741 20.9139 62.5684 20.917H65.7773V21.249C65.7771 24.4916 63.1244 27.1201 59.8525 27.1201H59.5283C56.917 27.1201 54.6998 25.4457 53.9111 23.1211H57.582C58.075 23.6241 58.7649 23.9365 59.5283 23.9365H59.8525C61.3505 23.9365 62.5652 22.7335 62.5654 21.249V20.918C61.6069 21.4251 60.5313 21.6797 59.3389 21.6797C58.1529 21.6796 57.0855 21.4224 56.1367 20.9082C55.1879 20.3792 54.4392 19.6367 53.8906 18.6816C53.3568 17.7265 53.0898 16.624 53.0898 15.375C53.0899 14.1262 53.3637 13.0243 53.9121 12.0693C54.4755 11.1143 55.2395 10.3795 56.2031 9.86523C57.1667 9.33624 58.2417 9.07136 59.4277 9.07129ZM46.0234 9.07129C47.2096 9.07129 48.2853 9.33617 49.249 9.86523C50.2125 10.3795 50.969 11.1144 51.5176 12.0693C52.0808 13.0243 52.3623 14.1262 52.3623 15.375C52.3623 16.624 52.0734 17.7265 51.4951 18.6816C50.9317 19.6368 50.1602 20.3792 49.1816 20.9082C48.218 21.4225 47.1354 21.6797 45.9346 21.6797C44.7486 21.6797 43.6812 21.4224 42.7324 20.9082C41.7835 20.3792 41.0339 19.6368 40.4854 18.6816C39.9516 17.7265 39.6855 16.624 39.6855 15.375C39.6856 14.1262 39.9594 13.0243 40.5078 12.0693C41.0712 11.1142 41.8351 10.3795 42.7988 9.86523C43.7625 9.33621 44.8373 9.07132 46.0234 9.07129ZM72.832 9.07129C74.0184 9.07129 75.0935 9.33617 76.0576 9.86523C77.021 10.3795 77.7775 11.1142 78.3262 12.0693C78.8895 13.0243 79.1709 14.1262 79.1709 15.375C79.1709 16.624 78.8814 17.7265 78.3037 18.6816C77.7402 19.6367 76.9692 20.3792 75.9902 20.9082C75.0269 21.4224 73.9441 21.6797 72.7432 21.6797C71.5577 21.6797 70.4898 21.4224 69.541 20.9082C68.5921 20.3792 67.8435 19.6367 67.2949 18.6816C66.7611 17.7265 66.4941 16.624 66.4941 15.375C66.4942 14.1262 66.768 13.0243 67.3164 12.0693C67.8798 11.1143 68.6438 10.3795 69.6074 9.86523C70.5715 9.3362 71.6465 9.07131 72.832 9.07129ZM104.876 9.07129C106.344 9.0713 107.515 9.43912 108.39 10.1738C109.264 10.8937 109.746 11.8704 109.836 13.1045H106.855C106.811 12.6198 106.603 12.238 106.232 11.959C105.877 11.6651 105.394 11.5176 104.787 11.5176C104.224 11.5176 103.786 11.6206 103.475 11.8262C103.178 12.0319 103.029 12.3192 103.029 12.6865C103.029 13.0978 103.238 13.4134 103.652 13.6338C104.068 13.8395 104.713 14.053 105.588 14.2734C106.477 14.4938 107.211 14.721 107.789 14.9561C108.367 15.1912 108.865 15.559 109.279 16.0586C109.709 16.5435 109.931 17.19 109.946 17.998C109.946 18.7034 109.746 19.3352 109.346 19.8936C108.96 20.452 108.397 20.8935 107.655 21.2168C106.929 21.5253 106.076 21.6797 105.098 21.6797C104.09 21.6796 103.185 21.503 102.385 21.1504C101.584 20.7831 100.946 20.2909 100.472 19.6738C100.012 19.0568 99.7603 18.3733 99.7158 17.624H102.852C102.911 18.094 103.141 18.4836 103.541 18.792C103.956 19.1006 104.468 19.2548 105.075 19.2549C105.668 19.2549 106.129 19.1373 106.455 18.9023C106.796 18.6672 106.967 18.3654 106.967 17.998C106.967 17.6014 106.758 17.3072 106.344 17.1162C105.943 16.9105 105.298 16.6902 104.408 16.4551C103.489 16.2347 102.733 16.0076 102.14 15.7725C101.561 15.5374 101.058 15.1771 100.628 14.6924C100.213 14.2075 100.005 13.5532 100.005 12.7305C100.005 12.0546 100.197 11.4372 100.583 10.8789C100.983 10.3205 101.547 9.8799 102.273 9.55664C103.015 9.23338 103.882 9.07129 104.876 9.07129ZM114.727 15.9922C114.727 16.962 114.971 17.7122 115.461 18.2412C115.95 18.7552 116.617 19.0126 117.462 19.0127C118.321 19.0127 118.997 18.7552 119.485 18.2412C119.975 17.7122 120.22 16.962 120.22 15.9922V9.26953H123.355V21.4814H120.22V19.9385C119.819 20.4673 119.293 20.8858 118.641 21.1943C118.003 21.4882 117.306 21.6357 116.55 21.6357C115.587 21.6357 114.734 21.4366 113.993 21.04C113.252 20.6286 112.665 20.0337 112.235 19.2549C111.82 18.4614 111.613 17.5209 111.613 16.4336V9.26953H114.727V15.9922ZM34.1475 19.0342H39.2627V21.4814H31.0342V6.0957H34.1475V19.0342ZM83.791 21.4805H80.6768V9.26953H83.791V21.4805ZM140.951 9.09375C142.463 9.09375 143.68 9.55583 144.599 10.4814C145.533 11.3926 146 12.6716 146 14.3174V21.4805H142.886V14.7363C142.886 13.7812 142.642 13.0533 142.152 12.5537C141.663 12.0396 140.996 11.7823 140.151 11.7822C139.307 11.7822 138.631 12.0395 138.127 12.5537C137.638 13.0533 137.394 13.7812 137.394 14.7363V21.4805H134.279V14.7363C134.279 13.7812 134.034 13.0533 133.545 12.5537C133.056 12.0394 132.389 11.7822 131.544 11.7822C130.683 11.7822 130.001 12.0394 129.497 12.5537C129.008 13.0533 128.764 13.7812 128.764 14.7363V21.4805H125.649V9.26953H128.764V10.7461C129.164 10.2319 129.676 9.82807 130.299 9.53418C130.936 9.24045 131.633 9.09378 132.389 9.09375C133.352 9.09375 134.212 9.29863 134.969 9.70996C135.725 10.1067 136.31 10.6803 136.726 11.4297C137.125 10.7244 137.704 10.1586 138.46 9.73242C139.231 9.3063 140.062 9.09379 140.951 9.09375ZM45.9795 11.7607C45.0899 11.7607 44.3403 12.0761 43.7324 12.708C43.1394 13.3251 42.8428 14.2143 42.8428 15.375C42.8428 16.5359 43.1327 17.4326 43.7109 18.0645C44.3039 18.6815 45.045 18.9902 45.9346 18.9902C46.4979 18.9902 47.0245 18.8582 47.5137 18.5938C48.0178 18.3146 48.4183 17.903 48.7148 17.3594C49.0114 16.8156 49.1592 16.1538 49.1592 15.375C49.1591 14.2143 48.8483 13.3251 48.2256 12.708C47.6178 12.0762 46.869 11.7608 45.9795 11.7607ZM59.3838 11.7607C58.4943 11.7607 57.7456 12.0763 57.1377 12.708C56.5446 13.3251 56.2481 14.2143 56.248 15.375C56.248 16.5359 56.5369 17.4326 57.1152 18.0645C57.7082 18.6815 58.4494 18.9901 59.3389 18.9902C59.9021 18.9902 60.4288 18.8581 60.918 18.5938C61.422 18.3146 61.8226 17.9029 62.1191 17.3594C62.4157 16.8156 62.5645 16.1538 62.5645 15.375C62.5644 14.2143 62.2526 13.3251 61.6299 12.708C61.022 12.0763 60.2733 11.7608 59.3838 11.7607ZM72.7881 11.7607C71.8987 11.7607 71.149 12.0761 70.541 12.708C69.9484 13.3251 69.6524 14.2143 69.6523 15.375C69.6523 16.5359 69.9412 17.4326 70.5195 18.0645C71.1127 18.6816 71.8539 18.9902 72.7432 18.9902C73.3066 18.9902 73.8329 18.8582 74.3223 18.5938C74.8265 18.3146 75.2265 17.9029 75.5234 17.3594C75.8197 16.8156 75.9688 16.1538 75.9688 15.375C75.9687 14.2143 75.6569 13.3251 75.0342 12.708C74.4263 12.0763 73.678 11.7608 72.7881 11.7607ZM92.4492 11.7822C91.8857 11.7822 91.3513 11.9298 90.8477 12.2236C90.3584 12.5029 89.9574 12.9145 89.6465 13.458C89.3498 14.0015 89.2022 14.6406 89.2021 15.375C89.2021 16.1096 89.3496 16.7493 89.6465 17.293C89.9574 17.8365 90.3584 18.255 90.8477 18.5488C91.3513 18.8281 91.8857 18.9678 92.4492 18.9678C93.0274 18.9678 93.5611 18.8211 94.0498 18.5273C94.5541 18.2334 94.9547 17.8142 95.251 17.2705C95.5627 16.7268 95.7188 16.0804 95.7188 15.3311C95.7187 14.5964 95.5627 13.9645 95.251 13.4355C94.9548 12.8919 94.554 12.4804 94.0498 12.2012C93.5611 11.9221 93.0274 11.7822 92.4492 11.7822ZM14.4268 3.7334L0.00292969 17.7363L0 17.7334V10.2666L10.5801 0L14.4268 3.7334ZM82.2559 4.2002C82.8045 4.2002 83.2569 4.37595 83.6123 4.72852C83.9833 5.0665 84.1689 5.4935 84.1689 6.00781C84.1688 6.52184 83.9831 6.95507 83.6123 7.30762C83.2568 7.64557 82.8046 7.81445 82.2559 7.81445C81.7071 7.81445 81.2472 7.64558 80.877 7.30762C80.5209 6.95505 80.3429 6.52188 80.3428 6.00781C80.3428 5.4935 80.5208 5.0665 80.877 4.72852C81.2472 4.37599 81.7072 4.2002 82.2559 4.2002Z" fill="#656565"/>
</svg>
