<svg width="131" height="28" viewBox="0 0 131 28" fill="none" xmlns="http://www.w3.org/2000/svg">
<path d="M3.53906 14.7285C9.26369 13.6253 13.6335 19.7572 10.7197 24.8027L8.87207 28L3.63477 24.9785L5.48145 21.7822C5.80579 21.2215 5.32038 20.5396 4.68359 20.6621L1.14551 21.3438L0 15.4102L3.53906 14.7285ZM13.7637 24.8027C10.85 19.7573 15.2199 13.6256 20.9443 14.7285L24.4834 15.4102L23.3379 21.3438L19.7998 20.6621C19.163 20.5396 18.6783 21.2215 19.002 21.7822L20.8496 24.9785L15.6113 28L13.7656 24.8027H13.7637ZM86.124 10.7979C86.9758 10.7979 87.7288 10.9349 88.3838 11.21C89.0272 11.4551 89.6056 11.8445 90.0742 12.3486C90.5519 12.8426 90.9203 13.4317 91.1553 14.0771C91.4039 14.7316 91.5283 15.4582 91.5283 16.2568C91.5283 17.2515 91.319 18.1361 90.8994 18.9082C90.5118 19.648 89.9272 20.2667 89.21 20.6953C88.4892 21.1272 87.6505 21.3427 86.6943 21.3428C86.2881 21.3428 85.9012 21.2908 85.5342 21.1865C85.1865 21.0844 84.8553 20.9321 84.5518 20.7344C84.2655 20.5404 84.0184 20.2938 83.8242 20.0078H83.7646V25.3691H80.7188V16.2559C80.7188 15.143 80.9422 14.1804 81.3877 13.3691C81.8196 12.5707 82.4755 11.9152 83.2744 11.4834C84.087 11.0257 85.0369 10.7969 86.124 10.7969V10.7979ZM57.4238 10.7979C58.5243 10.7979 59.4742 11.0269 60.2734 11.4854C61.076 11.9207 61.7326 12.5825 62.1602 13.3887C62.6057 14.2007 62.8281 15.1571 62.8281 16.2568V22.1484C62.828 23.0513 62.5597 23.7655 62.0225 24.2891C61.4985 24.8258 60.771 25.0938 59.8408 25.0938L54.0635 25.0947V22.4824H59.0938C59.2906 22.4824 59.4549 22.417 59.5859 22.2861C59.6497 22.2298 59.7005 22.16 59.7344 22.082C59.7682 22.004 59.7837 21.919 59.7812 21.834V19.6152H59.7227C59.4739 19.9043 59.19 20.1616 58.8779 20.3809C58.5894 20.5907 58.2617 20.7476 57.8955 20.8525C57.5056 20.962 57.1013 21.0143 56.6963 21.0088C55.8054 21.0088 55.0062 20.7993 54.2988 20.3809C53.6047 19.949 53.0538 19.3531 52.6475 18.5938C52.2552 17.8349 52.0586 16.9698 52.0586 16.001C52.0586 15.0456 52.2617 14.1749 52.668 13.3896C53.0868 12.6044 53.696 11.9759 54.4951 11.5049C55.2937 11.0331 56.2707 10.7979 57.4238 10.7979ZM45.8662 10.7979C46.9016 10.7979 47.8251 11.0331 48.6377 11.5049C49.4449 11.9457 50.1174 12.597 50.583 13.3896C51.0678 14.175 51.3105 15.0721 51.3105 16.0801C51.3105 17.0753 51.0677 17.9719 50.583 18.7705C50.1174 19.5632 49.4449 20.2145 48.6377 20.6553C47.8125 21.1138 46.8883 21.3428 45.8662 21.3428C44.8315 21.3428 43.9014 21.1138 43.0762 20.6553C42.2657 20.2116 41.5873 19.5615 41.1104 18.7705C40.6389 17.9719 40.4024 17.0753 40.4023 16.0801C40.4023 15.0721 40.6389 14.175 41.1104 13.3896C41.5873 12.5987 42.2657 11.9485 43.0762 11.5049C43.9014 11.0331 44.8315 10.7979 45.8662 10.7979ZM69.4268 10.7979C70.4621 10.7979 71.3857 11.0331 72.1982 11.5049C73.0054 11.9456 73.678 12.597 74.1436 13.3896C74.6283 14.175 74.8701 15.0721 74.8701 16.0801C74.8701 17.0753 74.6282 17.9719 74.1436 18.7705C73.678 19.5632 73.0054 20.2146 72.1982 20.6553C71.3731 21.1137 70.4488 21.3427 69.4268 21.3428C68.3921 21.3428 67.4617 21.1138 66.6357 20.6553C65.8256 20.2115 65.1476 19.5613 64.6709 18.7705C64.1995 17.9719 63.9629 17.0753 63.9629 16.0801C63.9629 15.0721 64.1994 14.175 64.6709 13.3896C65.1476 12.5989 65.8256 11.9487 66.6357 11.5049C67.4617 11.0331 68.3921 10.7979 69.4268 10.7979ZM105.62 16.7471C105.62 17.1006 105.705 17.4285 105.875 17.7295C106.045 18.0171 106.275 18.2531 106.562 18.4365C106.864 18.6066 107.205 18.6924 107.585 18.6924C107.952 18.6923 108.279 18.6066 108.567 18.4365C108.869 18.2531 109.105 18.0172 109.275 17.7295C109.446 17.4286 109.531 17.1005 109.531 16.7471V11.0332H112.577V16.8262C112.577 17.6639 112.38 18.4304 111.987 19.124C111.594 19.8044 111.024 20.3486 110.277 20.7539C109.543 21.1465 108.652 21.3428 107.604 21.3428C106.57 21.3428 105.671 21.1473 104.912 20.7539C104.165 20.3479 103.589 19.8044 103.183 19.124C102.776 18.4304 102.573 17.664 102.573 16.8262V11.0332H105.62V16.7471ZM35.1475 17.1797C35.1475 17.4946 35.2594 17.769 35.4814 18.0049C35.7042 18.24 35.9788 18.3584 36.3066 18.3584H39.9424V21.1074H36.1104C35.2586 21.1074 34.5118 20.9182 33.8701 20.5381C33.2462 20.1765 32.7306 19.6545 32.377 19.0264C32.0232 18.3978 31.8457 17.7031 31.8457 16.9443V7.36035H35.1475V17.1797ZM79.1562 21.1074H76.0898V11.0332H79.1562V21.1074ZM100.405 13.4678H96.0234C95.8494 13.4643 95.6804 13.5283 95.5518 13.6455C95.4944 13.7016 95.4484 13.7685 95.418 13.8428C95.3875 13.917 95.3725 13.9969 95.374 14.0771C95.374 14.2605 95.4342 14.417 95.5518 14.5479C95.6804 14.6651 95.8494 14.7291 96.0234 14.7256H97.7529C98.4863 14.7256 99.1157 14.8367 99.6396 15.0586C100.177 15.2686 100.589 15.6085 100.878 16.0801C101.179 16.5512 101.33 17.16 101.33 17.9062C101.33 18.4954 101.179 19.0321 100.878 19.5156C100.592 19.9977 100.185 20.3973 99.6982 20.6748C99.2135 20.9632 98.6635 21.1074 98.0479 21.1074H92.7607V18.6924H97.6152C97.7461 18.6924 97.8638 18.6656 97.9688 18.6133C98.0731 18.5482 98.1595 18.4627 98.2246 18.3584C98.2887 18.2553 98.3223 18.1361 98.3223 18.0146C98.3223 17.8933 98.2887 17.774 98.2246 17.6709C98.1634 17.57 98.0742 17.4878 97.9688 17.4346C97.8627 17.369 97.7399 17.3352 97.6152 17.3369H95.8467C95.191 17.3369 94.5942 17.2318 94.0576 17.0225C93.548 16.8114 93.1108 16.4562 92.7998 16.001C92.4987 15.5299 92.3477 14.9208 92.3477 14.1748C92.3477 13.5989 92.4855 13.0755 92.7607 12.6045C93.0471 12.1349 93.4454 11.7433 93.9199 11.4648C94.4153 11.1776 94.979 11.0287 95.5518 11.0332H100.405V13.4678ZM126 10.7979C126.995 10.7979 127.854 10.9861 128.575 11.3662C129.295 11.7463 129.852 12.27 130.245 12.9385C130.639 13.5929 130.835 14.3321 130.835 15.1572V21.1074H127.769V15.2549C127.769 14.9282 127.684 14.6337 127.514 14.3721C127.357 14.0984 127.134 13.8683 126.865 13.7041C126.581 13.5314 126.253 13.4425 125.921 13.4482C125.567 13.4483 125.247 13.5341 124.959 13.7041C124.69 13.8681 124.466 14.0981 124.31 14.3721C124.151 14.6389 124.07 14.9445 124.074 15.2549V21.1074H121.028V15.2549C121.028 14.9282 120.943 14.6337 120.772 14.3721C120.613 14.0943 120.382 13.8637 120.104 13.7041C119.82 13.5316 119.492 13.4425 119.16 13.4482C118.807 13.4483 118.486 13.5341 118.198 13.7041C117.929 13.8681 117.705 14.0981 117.549 14.3721C117.39 14.639 117.309 14.9445 117.313 15.2549V21.1074H114.268V15.1572C114.268 14.3327 114.457 13.5929 114.837 12.9385C115.23 12.2707 115.787 11.7463 116.508 11.3662C117.229 10.987 118.087 10.7979 119.082 10.7979C119.547 10.7933 120.01 10.8521 120.458 10.9736C120.878 11.0786 121.257 11.2298 121.598 11.4258C121.951 11.6091 122.253 11.8311 122.502 12.0928H122.541C122.808 11.8274 123.112 11.603 123.444 11.4258C123.809 11.2251 124.2 11.0726 124.604 10.9736C125.06 10.853 125.529 10.7943 126 10.7979ZM45.8662 13.4482C45.3814 13.4482 44.9552 13.5659 44.5889 13.8018C44.2349 14.0374 43.9505 14.3633 43.7637 14.7451C43.5636 15.1545 43.4621 15.605 43.4688 16.0605C43.4688 16.5575 43.5675 17.0028 43.7637 17.3955C43.9506 17.7773 44.2349 18.1032 44.5889 18.3389C44.9552 18.5741 45.3814 18.6924 45.8662 18.6924C46.3508 18.6924 46.7696 18.5739 47.124 18.3389C47.4777 18.1031 47.7625 17.7772 47.9492 17.3955C48.1453 17.0029 48.2441 16.5581 48.2441 16.0605C48.2441 15.5761 48.1454 15.1375 47.9492 14.7441C47.7624 14.3627 47.4776 14.0373 47.124 13.8018C46.7703 13.566 46.3508 13.4482 45.8662 13.4482ZM69.4268 13.4482C68.942 13.4482 68.5158 13.5659 68.1494 13.8018C67.7954 14.0374 67.5101 14.3633 67.3232 14.7451C67.1232 15.1544 67.0226 15.6051 67.0293 16.0605C67.0293 16.5574 67.1272 17.0029 67.3232 17.3955C67.5102 17.7773 67.7954 18.1032 68.1494 18.3389C68.5158 18.5741 68.942 18.6924 69.4268 18.6924C69.9114 18.6924 70.3309 18.5739 70.6846 18.3389C71.0384 18.1032 71.3232 17.7773 71.5098 17.3955C71.7065 17.0029 71.8046 16.558 71.8047 16.0605C71.8047 15.5761 71.7066 15.1375 71.5098 14.7441C71.3231 14.3626 71.0383 14.0372 70.6846 13.8018C70.3309 13.566 69.9114 13.4483 69.4268 13.4482ZM86.124 13.4287C85.6526 13.4287 85.2395 13.5463 84.8857 13.7822C84.5446 14.0048 84.2831 14.3196 84.0996 14.7256C83.9168 15.1175 83.8242 15.5636 83.8242 16.0605C83.8243 16.5581 83.9168 17.0029 84.0996 17.3955C84.2831 17.7882 84.5446 18.103 84.8857 18.3389C85.2395 18.5615 85.6526 18.6729 86.124 18.6729C86.5953 18.6728 87.0014 18.5606 87.3418 18.3389C87.6844 18.1013 87.9567 17.775 88.1289 17.3955C88.3249 17.003 88.4228 16.558 88.4229 16.0605C88.4229 15.5637 88.325 15.1182 88.1289 14.7256C87.9454 14.3196 87.683 14.0041 87.3418 13.7822C87.0014 13.5465 86.5953 13.4287 86.124 13.4287ZM57.4424 13.4678C56.9844 13.4678 56.5783 13.5793 56.2246 13.8018C55.8841 14.0244 55.622 14.3257 55.4385 14.7051C55.2557 15.0851 55.1641 15.5098 55.1641 15.9814C55.1641 16.4399 55.2549 16.8592 55.4385 17.2393C55.6219 17.6051 55.8837 17.8996 56.2246 18.1221C56.5777 18.3447 56.9845 18.4561 57.4434 18.4561C57.9148 18.456 58.321 18.3509 58.6621 18.1416C58.9986 17.9233 59.2699 17.6184 59.4473 17.2588C59.6335 16.8802 59.7279 16.4628 59.7227 16.041C59.7227 15.57 59.6317 15.1378 59.4482 14.7451C59.2647 14.3524 59.0023 14.0439 58.6611 13.8213C58.3207 13.5856 57.9144 13.4678 57.4424 13.4678ZM10.8789 3.19727H10.8799C13.7953 8.24282 9.42461 14.3747 3.69922 13.2715L0.161133 12.5898L1.30469 6.65527L4.84375 7.33789C5.48054 7.46039 5.96623 6.77847 5.64258 6.21777L3.79492 3.02148L9.03223 0L10.8789 3.19727ZM21.0039 3.02148L19.1572 6.21777C18.8329 6.77847 19.319 7.46039 19.9551 7.33789L23.4941 6.65527L24.6396 12.5898L21.1006 13.2715C15.3759 14.3747 11.0052 8.24284 13.9199 3.19727L15.7666 0L21.0039 3.02148ZM77.623 6.2998C78.1077 6.29985 78.5271 6.48384 78.8809 6.85059C79.2345 7.20399 79.4111 7.62222 79.4111 8.10645C79.4111 8.59085 79.2346 9.01006 78.8809 9.36426C78.5272 9.71756 78.1076 9.89351 77.623 9.89355C77.1383 9.89355 76.719 9.71771 76.3652 9.36426C76.0115 9.01076 75.834 8.59085 75.834 8.10645C75.8341 7.62229 76.0117 7.20396 76.3652 6.85059C76.719 6.48379 77.1383 6.2998 77.623 6.2998Z" fill="#656565"/>
</svg>
