<svg width="200" height="160" viewBox="0 0 200 160" fill="none" xmlns="http://www.w3.org/2000/svg">
<rect width="200" height="160" />
<path d="M95.1367 122.515V80.2031H103.993V122.515" fill="white"/>
<path d="M95.1367 122.515V80.2031H103.993V122.515" stroke="#222222" stroke-width="1.93327" stroke-miterlimit="10" stroke-linecap="round" stroke-linejoin="round"/>
<path d="M118.046 73.3154H81.2964C79.3944 73.3154 77.8525 74.8573 77.8525 76.7593C77.8525 78.6613 79.3944 80.2032 81.2964 80.2032H118.046C119.948 80.2032 121.49 78.6613 121.49 76.7593C121.49 74.8573 119.948 73.3154 118.046 73.3154Z" fill="white" stroke="#222222" stroke-width="1.93327" stroke-miterlimit="10" stroke-linecap="round" stroke-linejoin="round"/>
<path d="M46.3435 70.6195C45.381 65.2289 49.9285 61.168 54.986 61.168C58.9531 61.168 62.3558 63.998 63.0787 67.8988L65.4508 80.6976L74.9359 86.684H78.8876C81.9148 86.684 84.4908 88.8894 84.9566 91.8806L88.4301 114.17C88.9046 117.216 86.5497 119.966 83.4679 119.966C81.0005 119.966 78.8985 118.173 78.5086 115.737L75.6732 98.0097C75.5361 97.1537 74.7976 96.5239 73.9307 96.5239H67.585L48.6125 96.0119L46.3435 70.6195Z" fill="#B8BBFD" stroke="#222222" stroke-width="1.93327" stroke-miterlimit="10" stroke-linecap="round" stroke-linejoin="round"/>
<path d="M40.4293 70.2397L44.2599 99.926C44.4444 101.356 45.6624 102.427 47.105 102.427H67.1333C68.7269 102.427 70.0189 101.136 70.0189 99.5418V99.4092C70.0189 97.8156 68.7272 96.5236 67.1333 96.5236H56.9351C53.1326 96.5236 49.8988 93.7491 49.3206 89.9909L46.1566 69.4242C45.9423 68.0318 44.7443 67.0039 43.3355 67.0039H43.2745C41.5444 67.0039 40.2078 68.524 40.4293 70.2397Z" fill="white" stroke="#222222" stroke-width="1.93327" stroke-miterlimit="10" stroke-linecap="round" stroke-linejoin="round"/>
<path d="M55.7773 103.412V122.236" stroke="#222222" stroke-width="1.93327" stroke-miterlimit="10" stroke-linecap="round" stroke-linejoin="round"/>
<path d="M58.0875 68.2446L60.6973 80.7797H71.5211C73.6948 80.7797 75.4572 82.5419 75.4572 84.7156C75.4572 86.8892 73.695 88.6514 71.5211 88.6514H58.3371C56.2752 88.6514 54.4986 87.1992 54.0889 85.1782L51.542 72.3513" fill="#B8BBFD"/>
<path d="M58.0875 68.2446L60.6973 80.7797H71.5211C73.6948 80.7797 75.4572 82.5419 75.4572 84.7156C75.4572 86.8892 73.695 88.6514 71.5211 88.6514H58.3371C56.2752 88.6514 54.4986 87.1992 54.0889 85.1782L51.542 72.3513" stroke="#222222" stroke-width="1.93327" stroke-miterlimit="10" stroke-linecap="round" stroke-linejoin="round"/>
<path d="M52.8256 55.1965C57.7165 55.1965 61.6814 51.2316 61.6814 46.3407C61.6814 41.4498 57.7165 37.4849 52.8256 37.4849C47.9346 37.4849 43.9697 41.4498 43.9697 46.3407C43.9697 51.2316 47.9346 55.1965 52.8256 55.1965Z" fill="white" stroke="#222222" stroke-width="1.93327" stroke-miterlimit="10" stroke-linecap="round" stroke-linejoin="round"/>
<path d="M141.299 63.2812L131.247 71.2115L122.952 64.2585C121.286 62.8621 118.803 63.0806 117.407 64.7464C116.01 66.4122 116.229 68.8948 117.895 70.2912L127.999 78.7604C129.579 80.0847 131.874 80.113 133.486 78.8277L143.677 70.6334" fill="#F44817"/>
<path d="M141.299 63.2812L131.247 71.2115L122.952 64.2585C121.286 62.8621 118.803 63.0806 117.407 64.7464C116.01 66.4122 116.229 68.8948 117.895 70.2912L127.999 78.7604C129.579 80.0847 131.874 80.113 133.486 78.8277L143.677 70.6334" stroke="#222222" stroke-width="1.93327" stroke-miterlimit="10" stroke-linecap="round" stroke-linejoin="round"/>
<path d="M153.656 70.6195C154.619 65.2289 150.071 61.168 145.014 61.168C141.046 61.168 137.644 63.998 136.921 67.8988L134.549 80.6976L125.064 86.684H121.112C118.085 86.684 115.509 88.8894 115.043 91.8806L111.57 114.17C111.095 117.216 113.45 119.966 116.532 119.966C119 119.966 121.102 118.173 121.491 115.737L124.327 98.0097C124.464 97.1537 125.202 96.5239 126.069 96.5239H132.415L150.952 96.0119L153.656 70.6195Z" fill="#F44817" stroke="#222222" stroke-width="1.93327" stroke-miterlimit="10" stroke-linecap="round" stroke-linejoin="round"/>
<path d="M115.947 71.5478L127.755 58.7559" stroke="#222222" stroke-width="1.93327" stroke-miterlimit="10" stroke-linecap="round" stroke-linejoin="round"/>
<path d="M159.57 70.2397L155.74 99.926C155.555 101.356 154.337 102.427 152.894 102.427H132.866C131.273 102.427 129.98 101.136 129.98 99.5418V99.4092C129.98 97.8156 131.272 96.5236 132.866 96.5236H143.064C146.867 96.5236 150.101 93.7491 150.679 89.9909L153.843 69.4242C154.057 68.0318 155.255 67.0039 156.664 67.0039H156.725C158.455 67.0039 159.792 68.524 159.57 70.2397Z" fill="white" stroke="#222222" stroke-width="1.93327" stroke-miterlimit="10" stroke-linecap="round" stroke-linejoin="round"/>
<path d="M144.223 103.412V122.236" stroke="#222222" stroke-width="1.93327" stroke-miterlimit="10" stroke-linecap="round" stroke-linejoin="round"/>
<path d="M141.912 68.2446L139.303 80.7797H128.479C126.305 80.7797 124.543 82.5419 124.543 84.7156C124.543 86.8892 126.305 88.6514 128.479 88.6514H141.663C143.724 88.6514 145.501 87.1992 145.911 85.1782L148.458 72.3513" fill="#F44817"/>
<path d="M141.912 68.2446L139.303 80.7797H128.479C126.305 80.7797 124.543 82.5419 124.543 84.7156C124.543 86.8892 126.305 88.6514 128.479 88.6514H141.663C143.724 88.6514 145.501 87.1992 145.911 85.1782L148.458 72.3513" stroke="#222222" stroke-width="1.93327" stroke-miterlimit="10" stroke-linecap="round" stroke-linejoin="round"/>
<path d="M147.175 55.1965C152.066 55.1965 156.031 51.2316 156.031 46.3407C156.031 41.4498 152.066 37.4849 147.175 37.4849C142.284 37.4849 138.319 41.4498 138.319 46.3407C138.319 51.2316 142.284 55.1965 147.175 55.1965Z" fill="white" stroke="#222222" stroke-width="1.93327" stroke-miterlimit="10" stroke-linecap="round" stroke-linejoin="round"/>
</svg>
