<svg width="247" height="247" viewBox="0 0 247 247" fill="none" xmlns="http://www.w3.org/2000/svg">
<path d="M211.155 68.5725C211.556 68.5928 211.709 68.5419 212.023 68.8055C212.174 69.642 212.309 70.1785 211.947 70.9916L211.743 71.0078C211.435 70.9952 211.299 70.8816 211.147 70.6146C210.806 70.0147 210.963 69.1862 211.155 68.5725Z" fill="#222222"/>
<path d="M200.892 68.1995L201.592 68.2634C201.791 68.4344 201.934 68.5613 202.044 68.8073C202.27 69.3126 201.997 70.3807 201.797 70.8562C201.225 70.7821 201.148 70.806 200.748 70.4036C200.546 69.4902 200.497 69.0572 200.892 68.1995Z" fill="#222222"/>
<path d="M131.222 52.3757C132.119 52.4532 133.654 52.6452 134.372 53.2475C134.637 53.4699 134.649 53.6874 134.656 54.0068C134.412 54.3469 134.201 54.5001 133.839 54.7063C132.817 54.311 130.889 54.4535 130.193 53.6293C130.115 53.2446 130.13 53.1228 130.292 52.765C130.574 52.4966 130.856 52.4565 131.222 52.3757Z" fill="#222222"/>
<path d="M73.5042 48.6377L76.8317 49.1368C77.0992 49.6206 77.6605 50.2335 77.5433 50.7748C77.2251 51.0283 77.2261 51.0098 76.816 50.9941C76.2195 50.811 75.6025 50.646 74.9819 50.5705C74.41 50.501 73.7413 50.5136 73.1894 50.3609C72.8949 50.2796 72.6742 50.16 72.5411 49.8741C72.4566 49.693 72.5722 49.4383 72.6629 49.2673C72.8568 48.9023 73.1328 48.7711 73.5042 48.6377Z" fill="#222222"/>
<path d="M204.734 69.4924L205.084 69.6553C205.225 69.8506 205.323 70.0038 205.378 70.2424C205.546 70.9665 205.467 72.5117 205.017 73.1473C204.781 73.4816 204.436 73.6994 204.201 74.0518C204.275 74.5398 204.575 74.8442 204.966 75.1216C205.836 75.7386 207.241 76.0189 208.304 75.781L208.466 75.7398L208.738 75.9212L208.728 76.3069L207.799 76.5498C206.554 76.743 205.501 76.5715 204.499 75.8001C204.033 75.4407 203.371 74.8746 203.361 74.2327C203.351 73.5737 204.076 72.8375 204.468 72.3445L204.734 69.4924Z" fill="#222222"/>
<path d="M100.257 91.0745C102.396 91.2337 115.595 91.0291 116.341 91.6956C116.335 91.9433 116.353 92.1124 116.22 92.3307C116.103 92.5234 115.898 92.4795 115.691 92.5101C112.176 92.4074 108.637 92.5516 105.122 92.6513C103.589 92.6947 101.999 92.8503 100.464 92.7651C100.188 92.7497 100.004 92.6889 99.7815 92.5118C99.5907 92.3604 99.5741 92.2045 99.5876 91.9616C99.611 91.5359 99.9653 91.3159 100.257 91.0745Z" fill="#222222"/>
<path d="M99.0866 78.5356C101.938 78.4541 113.903 78.4968 115.782 79.4729C115.921 79.7708 115.88 79.7675 115.767 80.082C115.416 80.3333 115.328 80.2815 114.909 80.2646C113.531 80.1252 112.088 80.1872 110.699 80.1604C108.211 80.1124 105.729 80.0492 103.239 80.0851C102.257 80.0994 101.103 80.4383 100.16 80.2868C99.9844 80.2588 99.8423 80.2342 99.6626 80.2308C99.2557 80.2226 99.0278 80.2318 98.6727 80.0217C98.4462 79.6867 98.3579 79.5899 98.3193 79.1775C98.5678 78.7778 98.6804 78.7452 99.0866 78.5356Z" fill="#222222"/>
<path d="M88.3164 94.7011C88.9566 94.6596 89.5391 94.6518 90.1634 94.8207C90.8112 94.9958 91.2855 95.3051 91.6113 95.9064C92.0183 96.6568 92.0282 97.4304 91.7845 98.2331C91.4201 99.4343 90.4673 100.294 89.3934 100.885C88.8456 101.077 88.3232 101.15 87.7582 100.988L87.1371 100.823C86.6738 100.649 86.2695 100.119 86.1093 99.6681C85.8351 98.8967 85.7984 97.0632 86.1544 96.3222C86.5541 95.4908 87.4958 95.0192 88.3164 94.7011Z" fill="#222222"/>
<path d="M89.3466 95.9272C89.866 95.9895 90.1771 95.9702 90.5315 96.3913C90.5672 96.6938 90.6342 97.0508 90.5785 97.3518C90.408 98.2747 89.1648 99.1739 88.4078 99.6178C88.1811 99.6298 87.9425 99.6547 87.7325 99.5534C87.4741 99.4291 87.3173 99.2699 87.2445 98.9899C87.0896 98.3943 87.038 97.4184 87.4172 96.9039C87.9389 96.1955 88.4954 96.022 89.3466 95.9272Z" fill="white"/>
<path d="M89.1107 85.1717C89.5516 85.149 89.9897 85.1249 90.4248 85.2163C90.9581 85.3285 91.482 85.7067 91.7423 86.1913C92.0479 86.7601 91.9367 87.6137 91.7334 88.1958C91.1834 89.7706 90.0642 91.2478 88.5347 91.9555C88.1483 91.9939 87.7329 92.0588 87.365 91.9027C86.3052 91.4524 85.9578 90.6098 85.541 89.6225C85.7451 88.2563 85.9072 87.2261 86.6057 86.0068C87.4543 85.733 88.2409 85.3806 89.1107 85.1717Z" fill="#222222"/>
<path d="M89.3268 86.2445C89.7233 86.2235 90.2354 86.2189 90.5427 86.4944C90.5671 86.669 90.5953 86.8401 90.5741 87.0169C90.406 88.4115 89.1579 89.6719 88.1244 90.4905L87.6803 90.4529C87.3069 90.2358 87.1848 90.1034 86.9661 89.7305C86.9084 88.7804 87.1687 87.9832 87.4847 87.1059C88.0853 86.7421 88.6635 86.4727 89.3268 86.2445Z" fill="white"/>
<path d="M89.0101 76.2719C89.5073 76.1993 90.1182 76.3223 90.5843 76.5061C91.0336 76.6834 91.6314 77.0773 91.7763 77.574C91.9138 78.045 91.8127 78.7766 91.6162 79.2209C90.9405 80.7473 89.918 82.2175 88.3118 82.8032C87.4934 82.884 86.988 82.788 86.2116 82.5497C85.9028 82.2293 85.6597 81.8487 85.4052 81.4847C85.3046 80.5155 85.307 79.3497 85.5688 78.4059L85.6264 78.2127C85.714 77.909 85.7871 77.6943 86.0005 77.4519C86.8199 76.5211 87.8412 76.3624 89.0101 76.2719Z" fill="#222222"/>
<path d="M88.9655 77.312L89.9116 77.3299C90.1955 77.5043 90.3368 77.5515 90.4946 77.8509C90.2341 79.3022 89.3295 80.4203 88.1551 81.2423C87.8408 81.3453 87.5848 81.3709 87.2582 81.3911L86.8762 81.0127C86.5797 80.0732 86.8496 78.9137 87.0035 77.956C87.697 77.8352 88.3164 77.5749 88.9655 77.312Z" fill="white"/>
<path d="M113.51 95.3327C115.567 95.3255 125.823 95.4014 126.937 96.2684C126.991 96.668 126.996 96.6572 126.776 96.9944C125.857 97.4433 122.481 96.9027 121.321 96.8598C119.173 96.78 117.02 96.759 114.87 96.7168C114.037 96.7134 113.219 96.8198 112.391 96.8268C111.104 96.8379 109.815 96.7544 108.528 96.7829C107.054 96.8154 102.209 97.2134 101.218 96.4572C101.186 96.1292 101.226 96.1367 101.429 95.8696C102.676 95.4444 103.977 95.538 105.272 95.4796C108.015 95.3561 110.764 95.3715 113.51 95.3327Z" fill="#222222"/>
<path d="M91.0938 54.5615C93.8308 54.3782 96.6455 54.7021 99.3873 54.8278C103.253 55.0049 107.161 55.0608 111.013 55.4108C111.587 55.4629 114.265 55.6496 114.635 55.8609C114.719 55.9084 114.759 56.0081 114.82 56.0816L114.756 56.5544C114.406 56.8364 113.917 56.8079 113.485 56.8373C112.95 56.9251 112.38 57.0484 111.837 57.0351C110.064 56.9922 108.275 56.7399 106.504 56.6284C102.892 56.4012 99.2663 56.2842 95.6495 56.1303C94.5911 56.0852 93.5281 56.0864 92.4687 56.0804C91.8239 56.0768 91.1456 56.1728 90.5634 55.8551C90.4022 55.569 90.2727 55.4185 90.403 55.0758C90.5407 54.713 90.7657 54.6833 91.0938 54.5615Z" fill="#222222"/>
<path d="M99.7545 84.4414C100.801 84.5637 101.883 84.5147 102.937 84.5311C104.822 84.5608 106.706 84.6064 108.591 84.631C114.061 84.7017 119.537 84.8068 124.996 85.1805C125.828 85.2374 127.24 85.1286 127.962 85.5042C128.159 85.8513 128.175 85.8443 128.102 86.2329C127.854 86.5614 127.535 86.6133 127.16 86.7225C125.475 86.4553 123.66 86.4813 121.951 86.3952C116.417 86.1166 110.858 86.1538 105.318 86.1135C104.528 86.1079 103.716 86.0679 102.928 86.1222C102.011 86.1854 101.021 86.3366 100.102 86.2179C99.788 86.1774 99.609 86.0257 99.4156 85.7833C99.2578 85.5857 99.2023 85.3845 99.2397 85.1344C99.3027 84.712 99.4421 84.685 99.7545 84.4414Z" fill="#222222"/>
<path d="M90.5475 49.8511L90.7038 49.8429C93.1952 49.724 95.7477 49.8012 98.2378 49.9481C101.656 50.1497 105.086 50.533 108.485 50.9375C111.247 51.2663 114.015 51.5138 116.766 51.9407C117.899 52.1163 120.03 52.1749 120.87 52.9386C120.977 53.3127 120.905 53.4075 120.787 53.7684C120.402 54.005 120.292 53.9809 119.854 53.9831C117.749 53.8663 115.554 53.2664 113.447 52.989C109.564 52.4777 105.634 52.064 101.731 51.7376C98.1451 51.438 94.5212 51.1824 90.9293 51.4337C90.5738 51.4586 89.9654 51.4918 89.7126 51.1971C89.4439 50.8835 89.4953 50.739 89.5233 50.3528C89.8586 50.0475 90.1116 49.9628 90.5475 49.8511Z" fill="#222222"/>
<path d="M91.8711 58.7632L116.775 59.6062C118.138 59.652 123.904 59.6422 124.735 60.531C124.828 60.8477 124.883 60.9823 124.753 61.3082C124.615 61.6541 124.363 61.7233 124.041 61.8268C120.75 61.1468 117.355 61.1912 114.01 61.1092C111.108 61.038 108.192 60.9063 105.29 60.7968C102.491 60.6914 99.6948 60.5378 96.8955 60.4464C95.3952 60.3974 93.8674 60.2915 92.3719 60.4133C91.8822 60.4531 91.3125 60.3812 90.9251 60.066C90.7611 59.6352 90.7763 59.5659 90.8551 59.1339C91.1634 58.8922 91.4984 58.8447 91.8711 58.7632Z" fill="#222222"/>
<path d="M228.311 140.195L228.728 140.159C229.136 140.15 229.211 140.218 229.478 140.515C229.502 140.938 229.496 141.006 229.302 141.381C229.038 141.548 228.838 141.563 228.534 141.586C226.4 141.747 224.185 141.654 222.039 141.733C217.566 141.898 213.096 142.151 208.622 142.318C206.717 142.389 204.819 142.592 202.918 142.667C191.367 143.121 179.813 143.565 168.271 144.18C163.296 144.445 158.327 144.654 153.349 144.86C150.264 144.988 147.153 145.212 144.063 145.081L143.03 145.005C142.796 144.815 142.672 144.711 142.566 144.425C145.039 143.745 147.873 143.962 150.438 143.852C154.08 143.695 157.727 143.471 161.37 143.277C167.97 142.926 174.574 142.728 181.171 142.426C190.873 141.982 200.574 141.487 210.275 141.063C216.298 140.799 222.295 140.6 228.311 140.195Z" fill="#222222"/>
<path d="M53.0318 49.9848L53.3591 49.9701C57.1714 49.9168 60.8644 51.2318 63.6272 53.9083C65.6657 55.8831 67.4533 58.2971 68.1842 61.0795C68.6068 62.6884 68.7066 64.3523 68.7293 66.0089C68.7821 69.8806 67.5594 74.1462 64.8128 76.9565C61.7081 80.133 58.0859 80.6885 53.8574 80.7479C49.5108 80.5976 45.6512 79.2861 42.3223 76.4403C39.633 74.1413 37.8695 70.2728 37.6452 66.7552C37.3712 62.4559 38.6708 58.5017 41.5263 55.2625C44.3472 52.0626 48.8231 50.2291 53.0318 49.9848Z" fill="#222222"/>
<path d="M53.2728 51.1871C53.6047 51.1111 54.0188 51.1417 54.3602 51.1396C57.7436 51.1169 60.7479 52.5892 63.1221 54.9357C66.1689 57.947 67.3744 61.153 67.3375 65.4323C67.3026 69.4441 66.4079 73.3515 63.434 76.2257C60.5629 79.0006 56.9826 79.4334 53.1613 79.3593C49.6464 79.039 46.6356 78.1007 43.8455 75.868C41.0226 73.6088 39.3908 70.4736 38.9994 66.9058C38.6055 63.3161 39.4943 59.6582 41.8153 56.8437C44.691 53.3565 48.8374 51.5875 53.2728 51.1871Z" fill="white"/>
<path d="M52.2422 52.8911C52.4711 52.9246 52.7962 52.9565 53.0059 53.0556C53.319 53.204 53.4873 53.5204 53.5539 53.8504C53.6868 54.5089 53.6287 55.2861 53.6653 55.961C53.7734 57.9413 53.894 59.8944 53.9541 61.8794C53.9726 62.4875 54.1391 63.3341 54.0296 63.921C53.9881 64.1438 53.9024 64.2642 53.778 64.4492C53.3522 64.5754 53.3257 64.648 52.9161 64.4326C52.3652 63.5949 52.453 62.4966 52.4197 61.5315C52.322 58.6934 52.7958 55.6684 52.2422 52.8911Z" fill="#222222"/>
<path d="M53.7621 64.8681C54.9339 64.7472 55.9699 65.1602 57.0889 65.4192C58.6603 65.7832 60.2345 66.2104 61.7794 66.6776C62.6297 66.9348 63.6059 67.1552 64.309 67.7199C64.4656 68.0284 64.4038 68.2417 64.3438 68.5642C64.263 68.6322 64.2017 68.7354 64.1013 68.7682C63.7731 68.8756 63.054 68.6363 62.719 68.5504C61.5628 68.2547 60.4057 67.9404 59.2564 67.6186C58.7407 67.4741 58.1285 67.2196 57.5915 67.2375L57.9507 67.6128C59.4284 68.6334 60.797 69.563 61.8668 71.0366C61.827 71.3962 61.8342 71.442 61.6017 71.7129C61.4041 71.6775 61.202 71.634 61.0175 71.5525C60.2779 71.2257 59.5181 70.5269 58.855 70.0587C57.8163 69.3257 53.6605 66.6173 53.2686 65.6696C53.3033 65.201 53.4302 65.1809 53.7621 64.8681Z" fill="#222222"/>
<path d="M217.328 45.9758L217.499 45.9664C219.166 45.8868 221.027 46.3888 222.26 47.5579C223.169 48.42 223.902 50.1065 223.877 51.3751C223.853 52.5734 223.141 53.8923 222.267 54.678C221.57 55.3039 220.934 55.6421 219.984 55.5895C219.748 55.4252 219.571 55.3423 219.478 55.0564C219.769 54.5178 220.531 54.286 221.009 53.9194C221.743 53.3569 222.106 52.5647 222.222 51.6681C222.36 50.6075 222.016 49.3793 221.321 48.5587C220.553 47.6515 219.157 47.1276 217.985 47.0912C216.377 47.0412 214.373 48.0507 213.29 49.1841C212.888 49.6053 212.819 50.0474 212.835 50.6095C212.877 52.0932 213.955 53.0467 214.979 53.9698L214.937 54.2122C214.833 54.5699 214.54 54.7503 214.178 54.7296C213.371 54.6828 212.659 54.1886 211.887 53.9729C209.511 53.3091 206.695 53.4934 204.366 54.2817C202.152 55.0306 200.25 56.4371 199.008 58.4334C198.116 59.8679 197.632 61.4871 197.005 63.0415C196.674 63.8594 196.239 64.653 195.85 65.4451C197.031 64.963 198.272 64.6873 199.45 64.2147C201.63 63.3396 203.75 62.2173 205.854 61.1685C206.57 60.8117 207.241 60.3956 207.903 59.9487C208.339 59.6546 208.939 59.0972 209.488 59.129C209.55 59.1327 209.611 59.1454 209.672 59.1536L209.739 59.3982C209.236 60.3505 208.105 61.0218 207.228 61.6046C204.411 63.4771 201.478 65.0385 198.262 66.1051L198.064 67.933C198.043 71.3157 198.959 75.2414 201.378 77.7194C203.682 80.0787 206.718 80.6803 209.921 80.4928C210.747 80.4446 211.483 80.1677 212.326 80.1807C212.581 80.3387 212.642 80.359 212.771 80.6248C212.688 80.9714 212.464 81.2712 212.205 81.5115C210.964 82.6635 209.113 82.4966 207.551 82.4705C207.571 83.2781 207.662 84.0874 207.571 84.8945C207.37 86.6782 206.035 87.5507 204.77 88.5915L204.83 91.5254C205.001 92.9408 205.856 95.0012 207.01 95.8599C207.979 96.5814 209.112 96.8988 210.304 96.6742C211.217 96.502 212.08 95.8389 212.745 95.2149C214.932 93.1622 215.978 90.6893 217.579 88.2253C216.951 87.1927 216.53 85.9112 216.373 84.7155L216.345 84.4842C216.094 82.5511 216.323 80.6602 216.444 78.7315C216.515 77.5846 216.494 76.4202 216.483 75.2716C216.477 74.5981 216.575 73.7124 216.289 73.0932L216.228 72.9663C215.992 72.4492 215.929 71.9947 216.16 71.4578C216.269 71.2057 216.308 71.2521 216.547 71.158C216.922 71.2868 217.178 71.5878 217.458 71.8565C217.668 71.9007 217.826 71.9195 218.041 71.8876C219.275 71.7036 219.782 70.9882 220.467 70.0426C220.074 69.5532 219.645 69.0143 219.121 68.659C218.621 68.3201 217.946 68.1416 217.384 67.9286C216.611 67.6363 215.882 67.2839 215.175 66.8572C214.108 66.2129 212.91 65.4989 212.108 64.5276C211.125 63.337 210.604 61.2522 210.23 59.76C210.352 59.4207 210.323 59.3946 210.637 59.2296C210.909 59.3427 211.036 59.5171 211.163 59.7745C211.414 60.2811 211.524 60.8706 211.71 61.4041C212.15 62.6623 212.776 63.8551 213.771 64.7652C214.901 65.799 217.026 67.0096 218.597 66.9522L219.02 66.4826C220 66.3437 220.691 67.2306 221.435 67.767C221.789 65.1595 222.157 62.2894 221.069 59.7827C220.747 59.0403 220.245 58.3822 219.797 57.7136C219.264 56.9181 218.697 55.9354 217.938 55.3314C217.31 54.8328 216.249 54.7523 215.868 53.971L216.185 53.6615L216.554 53.663C218.328 53.8586 219.842 55.8534 220.922 57.1255C222.945 59.5075 223.568 62.5873 223.316 65.654C223.124 67.987 222.746 70.8582 220.812 72.4236C219.78 73.2597 218.788 73.6133 217.471 73.4538C217.586 75.0516 217.699 76.661 217.69 78.2631C217.686 79.1093 217.564 79.9407 217.547 80.7727C217.499 83.0306 217.731 84.9094 218.744 86.9361C219.579 86.911 220.171 87.1276 220.963 87.3099C222.078 87.5666 223.159 87.8589 224.249 88.2092C224.971 88.4415 225.768 88.6219 226.444 88.9707C226.946 89.2297 227.448 89.5976 227.876 89.9652C228.805 90.7638 229.382 91.7868 229.908 92.8783C231.285 95.7328 231.813 98.9503 232.011 102.093C232.376 107.862 232.246 113.909 230.709 119.52C229.168 125.141 226.368 130.306 222.528 134.675L217.06 135.231C211.728 135.7 206.356 135.749 201.011 135.968C200.193 136.002 199.389 136.121 198.577 136.161C195.328 136.32 192.047 136.338 188.792 136.418C187.608 136.447 186.427 136.456 185.244 136.44C184.574 136.431 183.905 136.491 183.26 136.292C182.927 135.967 183.01 135.712 182.983 135.259L182.777 135.123C180.478 135.041 178.203 134.963 175.902 134.998C175.064 135.011 174.125 134.944 173.301 135.07C172.723 135.158 172.086 135.439 171.529 135.627L170.884 136.405C170.596 136.722 170.55 136.746 170.114 136.772L169.858 136.561C169.488 136.206 169.351 135.589 169.371 135.091C169.423 133.782 170.372 132.376 171.32 131.546C171.762 131.159 172.273 130.78 172.888 130.815L173.142 131.13C173.067 131.986 171.704 132.561 171.176 133.193C170.838 133.599 170.611 134.176 170.389 134.655C171.193 134.15 171.62 133.757 172.586 133.541C173.446 133.348 174.654 133.471 175.558 133.471C178.113 133.469 180.703 133.411 183.249 133.628L183.728 128.249C181.633 128.112 174.98 127.882 173.454 126.87L173.551 126.663C174.56 126.595 175.58 126.668 176.591 126.687C178.009 126.713 179.432 126.698 180.848 126.766C181.055 126.776 181.276 126.897 181.451 126.902C182.069 126.918 182.755 126.924 183.38 126.902C183.745 126.575 183.997 126.429 184.479 126.335C185.331 126.17 186.314 126.278 187.183 126.26C188.403 126.233 189.618 126.142 190.835 126.069C192.576 125.964 194.358 125.697 196.101 125.519C198.051 125.319 200.033 125.216 201.97 124.918C203.616 124.664 205.218 124.246 206.838 123.87C209.875 123.164 213.12 122.288 215.51 120.17C216.656 119.156 217.578 117.694 218.21 116.317C219.714 113.038 220.285 109.484 221.49 106.11C221.836 105.141 222.187 104.168 222.587 103.22C222.912 102.45 223.439 101.546 223.488 100.706C223.291 100.413 223.276 100.419 222.939 100.308C222.507 100.603 222.288 101.488 222.09 101.967C221.312 103.854 220.577 105.811 219.964 107.758C219.163 110.298 218.561 112.878 217.549 115.35C217.033 116.612 216.447 117.894 215.492 118.888C213.281 121.189 210.061 121.97 207.085 122.73C202.89 123.801 198.689 124.491 194.351 124.599C195.027 121.098 195.052 117.456 195.215 113.906C195.302 112.002 195.526 109.973 195.34 108.08C195.134 107.768 195.123 107.736 194.778 107.601L194.513 107.821C194.01 109.182 194.335 111.051 194.248 112.489C194.142 114.233 194.042 115.981 193.932 117.726C193.786 120.036 193.508 122.353 193.442 124.664C191.386 125.232 189.344 125.006 187.24 125.236L189.436 106.709C189.763 105.142 190.302 103.614 190.728 102.073C192.151 96.9227 193.593 91.2935 199.019 88.9596C200.614 88.2736 202.203 87.678 203.913 87.3712C204.251 87.3104 204.547 87.2525 204.833 87.0473L204.969 86.9428L205.338 86.6565C206.649 85.5597 206.612 83.9947 206.762 82.423C203.442 81.3733 200.597 80.3298 198.881 77.057C197.783 74.9624 197.327 72.7562 197.06 70.4363C196.906 69.0966 196.797 67.7128 197.202 66.4076C196.54 66.5484 195.27 66.9964 194.687 66.6288C194.563 66.5504 194.531 66.4167 194.532 66.2727C194.534 65.4751 195.399 64.5466 195.711 63.8153C196.427 62.1398 196.808 60.352 197.637 58.7149C198.321 57.3643 199.44 56.0823 200.652 55.1852C204.006 52.7039 207.906 52.0304 211.975 52.6414L211.367 51.3008C211.473 50.5243 211.56 49.8007 211.992 49.121C213.043 47.4634 215.473 46.376 217.328 45.9758Z" fill="#222222"/>
<path d="M33.1935 35.142C34.777 34.9492 36.4763 35.0392 38.0746 35.0549C42.3657 35.0969 46.6583 35.3793 50.948 35.5272C69.8382 36.1782 88.787 37.1119 107.608 38.8964C112.49 39.3593 117.36 39.9814 122.23 40.5514C126.023 40.9952 129.814 41.4877 133.607 41.9234C136.051 42.2041 138.607 42.2611 141.002 42.8711C141.847 43.0865 142.392 43.401 143.069 43.9261C144.068 47.1157 143.547 50.8718 143.671 54.1774C143.826 58.2833 144.141 62.3867 144.268 66.4921C144.316 68.0448 144.262 69.6035 144.279 71.1572C144.311 74.3286 144.39 77.4921 144.387 80.6662C145.853 82.1043 147.222 83.5255 148.28 85.3037C150.2 88.5285 150.891 92.8628 151.683 96.4903C152.046 96.7518 152.495 97.0398 152.696 97.454C152.808 97.6836 152.783 98.043 152.79 98.2992C152.824 99.5048 153.233 100.563 153.681 101.673C154.359 103.351 155.176 104.877 156.021 106.472C156.681 107.715 157.304 109.002 158.17 110.117C158.453 110.48 158.766 111.002 159.199 111.186L159.577 110.969C159.801 110.378 159.439 109.456 159.277 108.846C158.995 107.786 159.125 106.629 159.316 105.555C159.814 102.742 161.344 99.9872 162.804 97.5801C163.747 96.0253 164.755 94.4203 166.128 93.2046C167.088 92.355 168.349 91.9389 169.348 91.1704C169.706 90.895 169.887 90.4784 170.114 90.1026C171.034 88.5786 171.551 87.101 171.821 85.3392C169.3 85.3131 166.831 84.5415 164.957 82.7809C163.964 81.8481 162.869 80.5815 162.383 79.298C161.279 76.3835 161.651 73.0478 161.466 69.9986C161.335 67.855 161.067 65.74 161.003 63.5892C160.048 63.3697 158.526 63.1499 157.914 62.3091C157.462 61.6872 157.423 60.7742 157.591 60.0499C158.075 57.9646 160.545 56.0024 162.316 54.9447C165.212 53.2147 169.693 51.4266 173.089 52.2728L173.31 52.3306C174.512 52.6281 175.671 53.096 176.747 53.7133C178.067 54.4697 179.104 55.2893 180.56 55.78C184.363 57.062 184.469 62.2135 184.136 65.5169C184.089 65.9817 183.75 67.1125 183.936 67.4951C184.456 67.3791 184.939 67.3306 185.43 67.5865C186.074 67.9216 186.623 68.6162 186.786 69.3271C186.991 70.2198 186.76 71.5079 186.234 72.2426C185.555 73.1906 184.622 73.3705 183.552 73.557C183.626 75.1075 183.456 76.658 183.449 78.2094C183.444 79.2266 183.577 80.2158 183.644 81.2277C183.699 82.0469 183.648 82.8706 183.703 83.6919C183.833 85.6416 184.167 87.959 184.769 89.823C186.488 89.2253 188.303 89.0644 190.091 89.5449C191.78 89.9989 192.665 90.3554 193.803 91.7616C193.456 92.5193 192.916 93.1139 192.473 93.8093C191.937 94.6485 191.503 95.6931 191.143 96.6211C190.616 97.9817 190.334 99.4703 189.964 100.881C189.427 102.926 188.764 104.984 188.36 107.058C187.888 109.488 187.755 111.926 187.475 114.376C187.066 117.952 186.559 121.572 186.426 125.167C185.993 125.189 185.249 125.141 184.875 125.351L183.813 125.981C181.736 125.69 179.62 125.785 177.531 125.781C175.132 125.776 172.572 125.562 170.19 125.891L170.054 125.911C168.586 126.114 166.905 126.763 165.652 127.564C164.43 128.346 162.744 130.373 162.471 131.824C162.368 132.371 162.407 132.99 162.7 133.45C163.185 133.523 163.618 133.197 164.056 132.986C164.23 132.135 164.511 131.455 164.979 130.72C165.772 129.475 167.266 127.626 168.781 127.304C169.099 127.236 169.154 127.195 169.422 127.373C169.481 127.666 169.549 127.951 169.348 128.219C169.231 128.375 168.82 128.587 168.651 128.712C167.829 129.314 167.13 130.015 166.616 130.898C166.182 131.645 165.59 133.001 165.626 133.872C165.651 134.461 165.86 135.09 166.012 135.659C166.074 133.542 166.303 132.19 167.869 130.675C168.803 129.771 170.197 128.565 171.561 128.582C171.828 128.864 171.917 128.89 171.952 129.289C171.366 129.941 170.311 130.37 169.571 130.856C168.575 131.512 167.749 132.279 167.519 133.498L167.484 133.691L167.421 134.03C167.287 134.863 167.368 135.358 167.872 136.035C168.009 136.219 167.963 136.231 167.943 136.449C167.701 136.796 167.698 136.821 167.299 136.95C166.8 136.862 166.613 136.671 166.259 136.314C166.067 136.121 165.71 136.5 165.316 136.45C164.763 136.118 164.371 135.415 164.154 134.819L163.963 134.604C163.605 134.803 163.355 134.876 162.939 134.84C162.256 134.781 161.639 134.276 161.388 133.648C161.262 133.331 161.236 133.047 160.993 132.789C160.636 132.411 160.541 132.302 160.47 131.761C160.652 131.372 160.682 131.378 161.069 131.179C161.738 129.562 162.953 128.486 163.881 127.058C164.505 126.096 164.176 123.586 164.16 122.437C164.114 119.084 164.044 115.705 164.167 112.354C164.204 111.374 164.263 110.361 164.388 109.389C164.467 108.765 164.674 108.149 164.566 107.521C164.317 107.295 164.326 107.288 163.992 107.279C163.458 107.789 163.505 108.987 163.423 109.691C163.203 111.553 163.213 113.314 163.158 115.178C163.098 117.2 163.036 119.185 163.091 121.212C163.121 122.338 163.165 123.461 163.186 124.589C163.196 125.122 163.251 125.731 163.125 126.252C162.898 127.186 162.069 128.579 161.215 129.047C160.522 129.428 159.171 128.982 158.466 128.717C156.776 128.083 155.443 126.918 154.307 125.526C153.004 123.928 152.006 122.004 151.028 120.194C149.09 116.608 147.378 112.928 145.691 109.219L144.449 105.753C144.213 106.8 143.018 111.404 142.326 111.963C141.618 112.537 139.258 111.957 138.277 111.869C131.382 111.248 124.419 111.181 117.5 111.063C112.615 110.981 107.761 110.979 102.876 111.058C101.648 111.078 100.409 111.027 99.1825 111.086C92.4144 111.411 85.6467 111.757 78.8759 112.04C77.043 112.117 75.2221 112.148 73.3884 112.192C72.7646 112.207 71.9944 112.357 71.3899 112.243C70.8979 112.149 70.6692 112.027 70.3797 111.62C70.3139 111.264 70.29 111.025 70.3732 110.662C70.598 110.463 70.825 110.252 71.1321 110.194C71.8292 110.064 72.7299 110.19 73.4487 110.187C75.0824 110.182 76.7217 110.12 78.3554 110.084C85.1194 109.934 91.8837 109.714 98.6497 109.629C100.917 109.601 103.187 109.566 105.454 109.548C106.558 109.539 107.829 109.65 108.907 109.484C109.14 109.448 109.028 109.447 109.249 109.464L141.533 110.501L143.793 103.783C143.401 102.503 142.688 101.681 142.129 100.514C141.872 99.9787 141.926 99.3829 142.098 98.8361C142.39 98.5317 142.428 98.4784 142.857 98.3723C143.2 98.6858 143.236 99.0672 143.362 99.5038C146.153 99.7887 148.563 98.6938 150.737 97.022C150.3 95.7595 150.081 94.4299 149.745 93.1375C149.209 91.0749 148.584 88.7357 147.608 86.8359C146.349 84.3861 144.354 82.2893 142.041 80.8087C142.274 81.514 142.546 82.1974 142.928 82.8373C143.637 84.0262 144.479 85.1491 145.214 86.3272C145.656 87.0368 146.182 87.806 146.105 88.6814C146.048 89.3394 145.727 89.9299 145.198 90.3342C144.679 90.7295 144.245 90.7126 143.623 90.6108L143.46 90.5819C143.523 90.8728 143.51 90.7539 143.523 91.046C143.578 92.3266 143.127 92.9026 142.28 93.8218C142.473 94.2944 142.678 94.7903 142.96 95.218C143.369 95.84 144.09 96.4923 144.121 97.2682C143.943 97.569 143.973 97.5946 143.641 97.6831C142.246 97.075 141.698 95.4833 140.886 94.2997C140.383 94.2078 139.842 94.1376 139.36 93.9644C138.296 93.5823 137.28 92.2291 136.8 91.238C136.189 89.9748 135.613 88.2701 136.194 86.908C136.387 86.456 136.736 86.0396 136.874 85.5695C137.011 85.1057 136.794 84.6517 137.001 84.1826C137.173 83.7935 137.718 83.6205 138.085 83.4577C135.848 79.8306 133.29 76.4042 131.126 72.7243C130.563 71.7672 129.624 70.4654 129.548 69.3481C129.777 69.0413 129.756 69.0495 130.133 68.9826C133.631 70.5942 136.196 74.2201 138.547 77.1513C139.295 78.0845 140.153 79.0035 140.839 79.977L140.927 80.1034C141.007 80.0231 141.056 79.9669 141.155 79.9011C141.854 79.4375 142.417 79.6857 143.153 79.8813C143.173 72.5497 142.912 65.2185 142.542 57.8951C142.406 55.2052 142.277 52.5374 141.994 49.8578C141.839 48.3866 141.705 46.8723 141.306 45.4462C138.767 44.3157 136.121 44.0463 133.388 43.7356C131.658 43.5392 129.931 43.2727 128.204 43.0542C122.09 42.2806 115.985 41.4993 109.853 40.8509C105.181 40.3572 100.505 40.0171 95.8215 39.6707C88.7935 39.1511 81.7581 38.5855 74.715 38.2589C71.3504 38.1028 67.9855 37.9108 64.6203 37.7617C62.923 37.6865 61.2258 37.5886 59.5277 37.5321C57.7388 37.4728 55.6905 37.5816 54.001 36.9481C53.1831 36.6416 52.2653 36.6879 51.3991 36.6599C49.9595 36.6133 48.5198 36.5803 47.0805 36.5374C43.3077 36.4245 39.5154 36.1818 35.7414 36.2928C34.4728 36.3302 31.4941 36.3724 30.6176 37.3642C30.1692 37.8717 29.8857 42.8906 29.8069 43.8873C29.4706 48.1413 29.2214 52.4064 29.0381 56.6708C28.9971 57.6262 28.8719 58.5881 28.8485 59.5397C28.7159 64.9016 28.871 70.201 29.021 75.5593C29.0842 77.8257 29.0647 80.0928 29.1691 82.3585C29.3153 85.5191 29.6281 88.6836 29.9074 91.8352C30.008 92.9694 30.2398 94.1448 30.2673 95.2783C30.2753 95.6126 30.1122 95.9211 29.8498 96.1261C29.5835 96.334 29.3686 96.3391 29.0659 96.2513C28.8973 96.0839 28.7993 95.9763 28.7294 95.7428C28.5574 95.1687 28.6136 94.3776 28.581 93.7707C28.4942 92.1662 28.4172 90.5619 28.3381 88.9571C27.8839 79.7276 27.243 70.4782 27.642 61.2342C27.8842 55.6191 28.3063 50.0032 28.6271 44.3919C28.7494 42.2529 29.2883 39.8798 29.0413 37.7494L29.0068 37.5348C28.9749 37.1744 29.2038 36.752 29.4303 36.4833C30.3518 35.3909 31.875 35.2886 33.1935 35.142Z" fill="#222222"/>
<path d="M138.017 89.8083C138.18 89.9461 138.296 90.0633 138.418 90.242C138.747 90.724 139.084 91.1734 139.505 91.5813C139.802 91.8688 140.143 92.0774 140.565 92.0675C140.881 91.8516 141.091 91.7802 141.234 91.4189L140.977 90.9365L141.048 90.8113L141.589 91.4792L141.867 91.4459L142.516 91.464C142.306 91.7986 141.862 92.0634 141.53 92.2764C141.149 92.521 140.575 92.5495 140.147 92.4168C139.217 92.1283 138.338 90.6548 138.017 89.8083Z" fill="white"/>
<path d="M186.836 95.5315L186.973 95.6142C187.045 95.9264 187.051 95.9362 186.92 96.2271C186.667 96.3615 186.301 96.52 186.113 96.7366C185.738 97.17 185.945 97.7207 185.504 98.2133C185.327 98.0155 185.129 97.8271 185.043 97.5709C184.962 97.3285 185.115 96.8401 185.224 96.6201C185.577 95.9046 186.122 95.7471 186.836 95.5315Z" fill="white"/>
<path d="M138.817 84.7659C139.919 85.5973 140.767 87.3562 141.533 88.5165C141.964 89.1699 142.475 89.7691 142.925 90.4102C142.782 90.376 142.656 90.3448 142.526 90.2732C140.885 89.3677 139.359 86.5002 138.817 84.7659Z" fill="white"/>
<path d="M132.158 71.9587L132.289 72.0082C132.725 72.2272 133.148 72.7557 133.492 73.1141C134.762 74.4401 135.845 75.8931 137.006 77.3081C138.046 78.5766 139.169 79.7718 140.161 81.0838C141.118 82.3491 141.975 83.7301 142.888 85.0338C143.483 85.8853 144.272 86.8195 144.665 87.7757C144.913 88.3768 144.851 88.6703 144.606 89.2661C144.413 89.4034 144.298 89.4526 144.063 89.4883C143.308 89.2126 142.907 88.5485 142.561 87.8611C142.046 86.8345 141.366 85.9963 140.705 85.0661C139.853 83.8668 139.018 82.647 138.179 81.4386C136.048 78.3718 134.043 75.1832 132.158 71.9587Z" fill="white"/>
<path d="M175.959 60.894C176.23 61.0986 176.296 61.58 176.406 61.904C176.626 62.5497 176.897 63.181 177.181 63.8004C178.199 66.0193 179.377 67.7044 181.011 69.5067C181.593 69.4221 182.35 69.4054 182.827 69.0467C182.901 68.7662 182.931 68.5604 183.139 68.3467L184.483 68.5699L184.772 68.6051C185.054 68.6562 185.241 68.8564 185.391 69.086C185.656 69.492 185.76 70.0825 185.641 70.5543C185.401 71.5109 183.5 72.353 182.681 72.7927C182.935 74.8387 182.207 77.0089 182.314 79.0727C182.401 80.7532 182.57 82.4368 182.676 84.1178C182.792 85.9489 182.682 88.2076 183.314 89.9346C183.462 90.3406 183.729 90.5893 184.044 90.872C183.667 91.5643 183.31 92.2973 182.835 92.9283L182.403 93.5036C181.158 95.1506 179.67 96.6273 177.948 97.7627C177.344 98.1611 176.466 98.6783 175.743 98.7598C174.871 98.8582 174.249 99.1366 173.35 98.8206C171.598 98.2043 170.37 96.1745 169.606 94.5893C169.39 94.0721 169.269 93.5574 169.142 93.0142C169.597 92.4507 170.184 92.0443 170.701 91.5425C171.537 90.7304 172.196 89.5967 172.543 88.4842L172.604 88.2833C172.917 87.3245 172.837 86.3097 172.829 85.3106C174.512 84.9003 176.54 84.4326 177.635 82.9767C177.688 82.5818 177.678 82.4342 177.512 82.0721C177.31 81.9018 177.147 81.7699 176.868 81.7824C176.426 81.8022 175.871 82.0938 175.424 82.1942C173.696 82.5832 171.467 82.8066 169.696 82.5524L169.511 82.5237C168.193 82.3288 166.845 81.9614 165.811 81.0764C165.033 80.4111 164.296 79.412 163.95 78.4436C163.432 76.9949 163.351 75.4933 163.195 73.978C163.016 72.2488 162.829 70.5162 162.631 68.7896C162.432 67.0481 162.077 65.3412 161.92 63.5893C166.59 63.5944 171.769 63.0541 175.959 60.894Z" fill="white"/>
<path d="M174.454 68.5503C174.653 68.5819 174.96 68.579 175.11 68.7187C175.434 69.0214 175.486 69.6746 175.52 70.0926C175.571 70.7188 175.339 70.9192 174.949 71.3575L174.721 71.2485C174.296 70.9629 174.146 70.4703 174.079 69.9889C173.998 69.4095 174.09 69.0033 174.454 68.5503Z" fill="#222222"/>
<path d="M165.194 69.4133C165.65 69.4235 166.112 69.4073 166.439 69.7807C166.763 70.1507 166.967 70.7019 166.922 71.1918L166.905 71.3382C166.85 71.8677 166.683 72.1812 166.401 72.6311C165.933 72.7068 165.909 72.7223 165.463 72.49C165.264 72.2418 165.128 71.9984 165.044 71.6906C164.81 70.8382 164.732 70.2079 165.194 69.4133Z" fill="#222222"/>
<path d="M170.135 72.2808C170.375 72.356 170.549 72.4742 170.757 72.6141C170.997 73.2642 170.728 74.6282 170.416 75.2578C170.227 75.6375 169.806 76.1411 169.799 76.5639C169.796 76.7748 170.079 76.906 170.235 77.0261C171.223 77.1909 171.933 77.1486 172.888 76.9004C173.108 77.214 173.035 77.4 173.02 77.7755C172.383 78.1907 171.03 78.0773 170.272 77.9507C169.591 77.8371 169.359 77.483 168.987 76.9463C168.959 76.4496 168.891 75.9988 169.185 75.5663C169.505 75.0969 169.798 74.621 169.906 74.0517C170.025 73.4171 169.891 72.9356 170.135 72.2808Z" fill="#222222"/>
<path d="M45.7137 94.7154C47.3995 94.6162 49.3398 94.5243 50.8807 95.3389C52.573 96.2331 53.2694 97.6502 53.8254 99.3818C55.1412 98.21 57.0745 96.8513 58.9154 96.8834C59.5703 96.8947 60.1603 97.0469 60.6092 97.5501C60.9828 97.9688 61.0289 98.3745 61.0024 98.9175C60.9826 99.3201 60.9983 99.7707 60.9008 100.163C60.6012 101.37 59.6323 102.9 59.0201 103.993C61.1599 103.521 62.8351 102.719 65.0846 103.168C65.3432 103.388 65.6163 103.61 65.8348 103.87C66.234 104.347 66.3681 104.889 66.2813 105.502C65.8953 108.223 62.9328 109.966 60.9088 111.402C61.3668 112.274 61.479 113.148 61.6893 114.096C61.9684 115.353 62.22 116.563 62.3532 117.848C62.5408 119.658 62.4356 121.501 62.4868 123.319C62.5739 126.421 62.8423 129.758 62.4501 132.839C62.1633 135.093 62.0922 138.413 60.464 140.168C59.2155 141.514 57.5135 141.503 55.8241 141.576C55.8106 143.012 55.6591 144.937 56.0209 146.31C56.162 146.374 56.2524 146.393 56.4083 146.391C56.6642 146.388 56.9404 146.357 57.1838 146.457C57.803 146.709 57.9105 147.073 58.1469 147.649L58.2277 147.847C59.8557 147.812 61.4771 147.683 63.1086 147.697C64.7255 147.712 66.3384 147.863 67.9534 147.924C71.249 148.048 74.3855 148.183 77.533 149.298C78.3686 149.594 79.3127 149.912 80.0554 150.408C80.8263 150.922 81.6901 151.72 82.1889 152.502C83.0739 153.889 83.5722 155.448 84.1099 156.988C85.1416 159.941 85.9812 162.886 86.8363 165.893C87.4707 168.124 88.2143 170.336 88.6493 172.617C92.1041 171.234 95.1935 169.03 98.6098 167.543C99.525 164.873 100.066 162.421 102.248 160.402C102.927 159.774 103.818 159.146 104.806 159.304C105.072 159.347 105.217 159.441 105.379 159.651C106.091 160.574 105.99 161.575 105.861 162.648L107.869 161.475L113.47 135.922C113.501 135.748 113.522 135.544 113.59 135.38C113.718 135.07 114.059 134.911 114.336 134.758C117.366 135.052 120.302 135.83 123.29 136.345C124.751 136.596 126.244 136.68 127.711 136.907C130.199 137.292 132.666 137.815 135.159 138.197C136.748 138.441 138.338 138.653 139.928 138.912C140.647 139.03 141.694 139.112 142.335 139.479C143.432 140.106 141.812 143.162 142.145 144.215L142.187 144.304C141.973 144.823 141.935 145.484 141.842 146.039C141.66 147.128 141.482 148.218 141.315 149.31C144.204 150.254 147.153 151.009 150.033 151.965C152.533 152.796 154.954 153.839 157.421 154.741C159.106 155.358 160.917 155.725 162.516 156.565C162.88 156.757 163.325 157.162 163.364 157.606C163.416 158.186 162.708 159.24 162.452 159.764C161.065 162.599 159.605 165.498 157.946 168.184C157.297 169.234 156.404 170.145 155.641 171.112C154.598 172.433 153.578 173.837 152.634 175.233C150.853 177.866 149.054 180.509 147.384 183.215C146.873 184.042 146.478 184.958 145.937 185.759C145.331 186.66 144.607 187.491 144.042 188.42C143.745 188.907 143.608 189.428 143.219 189.859C142.803 189.951 142.811 189.913 142.435 189.701C141.039 189.954 138.837 188.849 137.49 188.353C133.004 186.699 128.541 184.994 124.352 182.664C123.85 183.137 123.545 183.708 123.151 184.267C122.599 185.049 121.928 185.851 121.288 186.561C119.199 188.876 116.693 190.842 114.347 192.88C114.212 193.418 113.944 194.017 113.952 194.572L113.959 194.778C113.632 195.207 113.45 195.634 113.245 196.126C109.756 198.285 106.432 200.711 102.94 202.883C99.2775 205.159 95.394 207.174 91.5385 209.099C90.057 209.838 88.6485 210.927 86.9263 210.962C84.2418 211.018 82.5447 209.296 80.7349 207.577L80.9467 208.286C81.1507 208.97 81.3056 209.796 80.9365 210.457C80.6145 211.033 79.9082 211.239 79.3108 211.404L79.1168 211.455C76.7151 212.11 73.7125 211.674 71.2174 211.671C65.3307 211.663 59.4285 211.734 53.5485 211.411C49.0607 211.165 44.5713 210.588 40.0986 210.151C34.4653 209.601 28.7925 209.113 23.2939 207.698C22.3244 207.448 21.0221 207.327 20.1444 206.925C19.7934 206.764 19.6634 206.636 19.5083 206.296C19.7075 205.243 20.382 205.424 20.923 204.728C20.5474 203.386 16.9011 204.228 15.8593 203.289C15.7469 202.877 15.715 202.828 15.8593 202.405C15.9799 202.341 16.0908 202.254 16.2211 202.213C16.8079 202.029 18.3363 202.42 18.9854 202.468C20.5397 202.584 22.1377 202.548 23.6986 202.568C32.4097 202.676 41.1712 202.239 49.884 202.091L76.4126 201.403C75.4159 199.085 74.323 196.82 73.4407 194.452C70.7902 187.336 68.9906 179.487 68.149 171.942C68.044 171.002 67.9538 170.06 67.8576 169.119C67.7949 168.505 67.6624 167.96 67.7182 167.34C68.0636 167.039 68.1253 167.065 68.5639 167.027C68.7788 167.171 68.9035 167.255 69.006 167.511C69.1761 167.935 69.1553 168.544 69.1893 168.999C69.2518 169.834 69.3304 170.664 69.4296 171.496C70.3867 179.544 72.4454 187.188 75.2514 194.778C76.835 199.061 79.0522 203.237 82.3867 206.413C83.1824 207.171 84.2004 208.066 85.2185 208.502C86.8139 209.186 88.5901 208.233 90.0878 207.65C95.5585 205.518 100.575 202.39 105.409 199.094C106.803 198.143 108.168 197.148 109.549 196.179C110.651 195.405 111.632 194.671 112.896 194.183C112.861 193.593 112.978 192.954 112.827 192.384L112.788 192.245C112.387 190.774 109.351 183.15 108.303 182.499L107.761 182.702L107.514 183.028C107.124 183.49 106.093 183.711 105.529 183.915C103.926 184.494 102.311 185.03 100.705 185.599C98.9847 186.209 97.3148 186.953 95.5855 187.543C94.7854 187.816 94.0729 188.132 93.218 188.188L93.0603 188.196L94.6479 193.123C94.8817 193.862 95.2912 195.286 94.8674 195.989C94.7266 196.222 94.7309 196.169 94.494 196.225C94.0956 196.1 93.7535 195.813 93.5473 195.447C93.122 194.693 92.8907 193.657 92.6198 192.832C91.7093 190.06 90.8887 187.275 90.1742 184.446C88.5545 178.031 86.846 171.613 85.0378 165.248C84.4589 163.209 83.8619 161.18 83.214 159.162C82.8684 158.085 82.5678 156.969 82.0883 155.942C81.6546 155.013 81.0598 154.228 80.3649 153.477C78.3879 151.344 75.5045 149.8 72.6213 149.367C70.9118 149.109 69.1203 149.16 67.3933 149.088C65.7955 149.021 64.1921 148.896 62.5939 148.874C60.9633 148.851 59.3585 148.911 57.7214 148.84C53.9701 150.976 49.72 151.617 45.4621 151.874C43.2198 152.009 41.1372 152.075 38.8949 151.833C38.1568 151.754 37.3692 151.6 36.6637 151.368C36.1902 151.213 35.6484 150.909 35.1561 150.863C34.0951 150.761 32.8562 150.993 31.7794 151.05C29.0258 151.197 26.2651 151.214 23.5307 151.623C21.1816 151.973 19.0281 152.503 17.5637 154.539C16.2898 156.31 16.1316 159.204 16.0033 161.31C15.8482 163.857 15.7056 166.361 15.7965 168.921C15.9249 172.538 16.4218 176.118 16.8239 179.709C17.2141 183.198 17.5603 186.681 18.2106 190.135C18.687 192.665 19.4224 195.131 19.9939 197.638C20.1359 198.262 20.4399 198.979 20.4847 199.602C20.5096 199.949 20.3523 200.098 20.1408 200.346C19.7633 200.406 19.7107 200.364 19.3568 200.204C19.1578 199.953 19.0264 199.781 18.9513 199.46C18.1476 196.029 17.1871 192.59 16.5549 189.125C16.1622 186.973 15.9881 184.789 15.7126 182.622C15.085 177.686 14.5917 172.839 14.4327 167.864C14.3237 164.457 14.3519 160.879 14.9446 157.515C15.9516 151.797 19.1002 150.92 24.2891 150.372C26.8838 150.098 29.4604 149.902 32.0665 149.771C32.6449 149.741 34.1064 149.829 34.5534 149.519C34.6161 148.888 35.18 148.367 35.6226 147.953C36.0788 145.122 35.8274 142.191 35.8079 139.336L33.9038 138.182C29.2084 135.232 25.8866 129.444 24.7187 124.128C24.2032 121.783 24.1707 119.504 24.3533 117.121C24.5318 114.793 24.8152 112.547 25.5564 110.318C26.3396 107.963 27.6858 105.667 29.0224 103.584C30.5625 101.185 32.4485 98.98 35.3788 98.4049C36.6989 98.1459 38.0943 98.2848 39.2189 99.0506L39.9922 97.8846C41.362 96.0435 43.4888 95.0489 45.7137 94.7154Z" fill="#222222"/>
<path d="M43.4593 116.902C44.0898 117.202 43.6578 117.629 43.7304 118.133C43.749 118.263 43.9528 118.546 44.0223 118.676C43.8947 118.858 43.839 118.949 43.8115 119.176C43.7801 119.433 43.735 119.652 43.6735 119.905C43.3529 119.823 43.1735 119.824 42.9434 119.58C43.0459 118.643 43.1641 117.797 43.4593 116.902Z" fill="white"/>
<path d="M44.7777 129.605L44.9036 129.738C45.0402 129.921 44.6337 132.275 44.5252 132.613C44.419 132.943 44.2801 132.936 43.9928 133.091C43.8638 132.893 43.8083 132.711 43.7432 132.485L44.0813 132.027L44.049 131.894C43.94 131.24 44.4186 130.134 44.7777 129.605Z" fill="white"/>
<path d="M30.3853 123.313L30.7428 123.56C31.0245 124.409 31.6473 125.699 31.356 126.544L30.9845 126.455L30.8024 126.113C30.4379 125.293 30.0401 124.177 30.3853 123.313Z" fill="white"/>
<path d="M39.801 110.415L39.9892 110.471C40.2405 110.579 40.2912 110.663 40.3915 110.897C39.8008 111.793 39.691 112.565 39.5297 113.6C39.3159 113.536 39.1922 113.447 39.0185 113.309C38.849 112.239 39.2542 111.317 39.801 110.415Z" fill="white"/>
<path d="M35.9986 103.241C36.351 103.239 36.6761 103.156 36.9653 103.369C36.7811 103.858 35.7853 104.058 35.3847 104.481C35.1469 104.733 34.9823 105.109 34.8297 105.417C34.7086 105.655 34.7674 105.618 34.4929 105.749L34.2662 105.53C34.2582 105.367 34.2457 105.208 34.2852 105.047C34.4838 104.246 35.3393 103.655 35.9986 103.241Z" fill="white"/>
<path d="M33.3939 112.098L33.6518 112.344L33.5736 114.48C33.4972 115.219 33.7972 115.922 33.4549 116.566C33.1749 116.346 33.0615 116.158 32.9843 115.805C32.7595 114.779 32.8698 112.987 33.3939 112.098Z" fill="white"/>
<path d="M37.5701 123.175L37.9305 123.313L38.0055 123.56C37.7701 124.302 37.4189 125.042 37.3091 125.816C37.2189 126.454 37.4357 126.8 37.0927 127.407L36.8115 127.235L36.7085 126.826C36.4268 125.474 36.8202 124.296 37.5701 123.175Z" fill="white"/>
<path d="M46.6387 100.113L46.6983 100.129C46.9549 100.264 46.9419 100.318 47.0085 100.585C46.6826 101.048 45.7604 101.02 45.2438 101.291C44.5247 101.667 44.5428 102.677 44.3137 103.386C44.12 103.263 44.0001 103.153 43.8404 102.992C43.7164 102.543 43.9926 101.893 44.2022 101.483C44.6803 100.547 45.7286 100.441 46.6387 100.113Z" fill="white"/>
<path d="M49.6946 107.159C49.9622 107.178 50.2284 107.209 50.4738 107.325C51.1791 107.657 51.8904 108.2 52.0993 108.982C52.3115 109.778 52.0679 111.085 51.6634 111.762L51.4989 111.579C51.2796 111.291 51.4606 110.86 51.4924 110.535C51.7445 107.957 50.68 108.932 49.459 107.52L49.6946 107.159Z" fill="white"/>
<path d="M28.6432 109.331L28.9126 109.527C28.9401 110.18 28.4413 110.901 28.3626 111.586C28.263 112.454 28.5853 113.289 28.5293 114.101C28.4997 114.528 28.2399 114.636 27.9388 114.894C27.7053 114.828 27.6752 114.812 27.4863 114.636C27.5018 114.354 27.4984 114.195 27.6409 113.942L27.7398 113.791C27.6431 113.653 27.6156 113.568 27.6091 113.398C27.5606 112.091 27.7078 110.345 28.6432 109.331Z" fill="white"/>
<path d="M114.145 160.142L114.28 160.162C114.55 160.249 114.577 160.349 114.692 160.586C114.656 160.796 114.626 161 114.5 161.179C114.04 161.829 113.127 162.421 112.523 162.957C111.908 163.502 111.356 164.121 110.728 164.648C110.116 165.161 109.408 165.48 108.926 166.134C108.875 166.53 108.833 166.566 109.041 166.898C109.409 167.094 109.576 167.147 109.992 167.138C110.452 166.448 111.172 165.957 111.749 165.362C112.329 164.762 112.783 163.969 113.49 163.518C113.817 163.548 114.12 163.505 114.373 163.722C113.081 164.886 111.916 166.21 110.771 167.518C109.948 168.458 109.084 169.372 108.445 170.452L108.343 170.626C108.841 170.959 109.574 171.177 109.736 171.802C108.27 173.473 106.875 174.943 105.097 176.295C104.496 176.759 103.834 177.117 103.174 177.49C102.062 175.544 101.266 173.629 100.591 171.501C100.379 170.833 100.053 170.093 99.9562 169.4C99.8735 168.813 100.021 168.11 100.088 167.521C100.27 165.922 101.087 164.009 102.099 162.742C102.617 162.093 103.522 160.76 104.384 160.666C105.346 161.736 103.53 163.187 103.626 164.257L103.962 164.502C104.44 164.533 104.827 164.507 105.279 164.331C105.785 164.133 106.248 163.766 106.712 163.481C107.472 163.015 108.257 162.579 109.061 162.196C110.656 161.434 112.428 161.057 113.978 160.232L114.145 160.142Z" fill="white"/>
<path d="M114.938 136.41L115.497 136.392C118.268 136.375 121.066 137.291 123.781 137.705C125.038 137.897 126.309 137.988 127.568 138.179C130.092 138.564 132.619 139.052 135.139 139.474C136.613 139.72 138.099 139.856 139.558 140.205C140.119 140.34 140.754 140.505 141.169 140.922C141.272 141.666 141.044 142.497 140.961 143.242C140.745 145.167 140.519 147.096 140.237 149.012C138.993 148.722 137.746 148.351 136.526 147.971C135.61 147.686 134.401 147.091 133.434 147.43C133.175 147.521 132.951 147.69 132.807 147.923C132.317 148.71 131.977 149.628 131.514 150.44C130.17 152.798 128.605 155.227 127.534 157.718C127.04 156.791 126.479 155.96 125.525 155.443C124.749 155.023 123.968 154.839 123.217 154.325L123.047 154.206C122.68 154.715 122.372 155.036 121.751 155.204C121.239 155.115 121.126 155.122 120.726 154.762C120.473 154.782 120.568 154.748 120.341 154.87L120.184 154.96C119.913 154.813 119.826 154.63 119.668 154.375L120.123 153.769C120.585 154.056 120.952 154.428 121.506 154.494C122.193 154.11 123.013 153.934 123.653 153.472C124.707 152.71 125.599 151.504 125.797 150.206C126.011 148.792 125.735 147.434 124.814 146.308C124.472 145.889 123.473 145.089 122.919 145.056L122.777 145.05L121.872 144.99C120.891 145.007 119.81 145.775 119.154 146.462C117.876 147.798 117.834 150.118 118.68 151.695C118.948 152.194 119.753 152.949 119.765 153.471L119.37 153.712C119.016 153.636 118.635 153.642 118.273 153.64C116.646 153.631 114.583 153.86 113.415 155.084C112.615 155.921 112.354 157.001 111.995 158.064C111.766 158.744 111.504 159.392 111.503 160.119L108.908 161.039C109.45 157.639 110.574 154.356 111.501 151.048C112.146 148.747 112.615 146.393 113.126 144.061C113.476 142.461 113.806 140.838 114.109 139.228C114.252 138.471 114.26 137.452 114.601 136.767C114.679 136.609 114.804 136.516 114.938 136.41Z" fill="white"/>
<path d="M59.6865 111.806L59.7683 111.889C60.0715 112.419 60.0575 113.408 60.1434 114.012C60.9642 119.771 61.5665 125.817 61.3627 131.636C61.3108 133.115 61.0735 134.684 60.6996 136.117C60.3356 137.511 59.7989 139.158 58.4329 139.878C57.6772 140.276 56.5961 140.449 55.7685 140.181C55.5249 140.102 55.5934 140.096 55.3744 140.097C54.8512 140.1 54.5574 139.953 54.1425 139.646L53.9705 139.516C53.5113 139.546 53.4968 139.54 53.1528 139.842C53.0961 140.103 53.0404 140.227 53.1591 140.482C53.4242 141.051 54.2286 141.293 54.7709 141.512C54.7487 143.341 54.7118 145.135 54.9607 146.953C51.5678 148.441 47.96 149.048 44.291 149.272C42.851 149.359 41.3248 149.445 39.8932 149.247C39.2161 149.153 37.8294 149.105 37.354 148.62C37.2524 148.516 37.0354 148.258 36.9866 148.124C36.8458 147.736 37.0445 146.706 37.0648 146.237C37.1118 145.154 37.0752 144.062 37.0556 142.978L37.0759 139.929C38.0267 140.389 38.8739 140.75 39.9193 140.959C40.1938 140.512 40.4984 139.826 40.8851 139.487C41.7976 138.689 43.1105 141.275 44.0809 141.353C44.195 141.362 44.4668 141.348 44.5633 141.311C44.9956 141.145 45.7534 139.508 46.0793 139.067C46.3533 138.697 46.7067 138.375 47.0384 138.057C47.4738 138.228 47.9641 138.474 48.4241 138.552C48.6834 138.596 48.8098 138.564 49.0218 138.404C49.7163 137.88 50.1676 136.805 50.507 136.035C51.118 134.651 51.6402 133.336 52.001 131.862C52.4432 130.055 52.6183 128.205 52.8747 126.367C53.3745 126.565 53.9879 126.885 54.514 126.969C55.0193 127.049 55.3626 126.866 55.7796 126.608C55.9294 126.304 55.9931 126.196 55.8566 125.852C55.7362 125.549 55.6388 125.508 55.3575 125.419L54.9636 125.517C54.6293 125.587 54.4361 125.584 54.1609 125.397C53.1777 124.729 52.2975 123.274 52.0951 122.107L51.8836 120.768C51.8223 120.049 51.9345 118.956 52.4427 118.415C52.7548 118.083 53.1403 117.842 53.6087 117.86C55.6706 117.939 54.795 119.776 55.7364 120.812C56.1436 120.847 56.1178 120.866 56.4299 120.606C56.7442 119.961 56.7768 119.176 56.8627 118.466C57.0848 116.631 57.1545 114.756 57.2896 112.912L59.6865 111.806Z" fill="white"/>
<path d="M123.361 165.139L123.469 165.027C124.42 164.004 125.026 162.645 125.754 161.459C126.974 159.471 128.261 157.533 129.434 155.512C130.544 153.602 131.503 151.478 132.852 149.723C133.166 149.314 133.654 148.686 134.206 148.632C135.181 148.538 136.529 149.206 137.479 149.51C139.472 150.147 141.473 150.769 143.47 151.395C146.73 152.418 150.003 153.294 153.239 154.423C154.567 154.886 155.841 155.45 157.149 155.961C158.6 156.528 160.081 156.973 161.515 157.6C161.753 157.967 161.733 158.053 161.738 158.475C160.555 160.536 159.605 162.688 158.318 164.696C155.547 169.019 152.308 173.031 149.488 177.328C147.487 180.376 145.673 183.535 143.657 186.577C143.315 187.092 143.033 187.654 142.665 188.15L126.018 181.687L128.771 180.065C129.104 179.845 129.306 179.67 129.532 179.34C129.603 178.929 129.631 178.709 129.463 178.322C128.877 177.766 128.137 177.609 127.417 177.289C127.627 176.816 127.797 176.425 127.844 175.903C127.733 175.614 127.615 175.539 127.359 175.373C126.487 175.173 123.908 176.165 123.103 176.645C122.861 176.79 122.662 176.907 122.542 177.169C122.751 177.396 122.904 177.434 123.198 177.51C124.12 177.35 125.042 176.882 125.972 176.915C126.177 177.145 126.311 177.293 126.41 177.591C126.195 177.865 125.802 177.911 125.481 178.003C124.5 178.283 122.035 178.653 121.514 179.521C121.698 179.772 121.841 179.904 122.173 179.92C123.56 179.985 125.02 179.142 126.435 179.028C126.853 178.994 127.183 178.931 127.562 179.134C127.411 179.457 127.089 179.591 126.783 179.743C125.907 180.178 124.605 180.502 123.885 181.163C123.481 181.535 123.183 182.131 122.897 182.597C122.341 183.501 121.8 184.428 121.107 185.237C119.062 187.623 116.472 189.54 114.095 191.569C112.972 188.029 111.492 184.455 109.478 181.33C109.811 181.186 110.024 181.538 110.446 181.33C110.62 181.245 110.916 180.734 111.021 180.556C111.61 179.551 112.075 178.418 112.734 177.467C113.339 176.595 114.166 176.097 114.877 175.355L115.024 175.359C115.354 175.319 115.635 175.07 115.904 174.889C116.773 174.309 118.172 173.215 119.242 173.954C119.379 174.048 119.492 174.171 119.607 174.288C119.44 174.666 118.847 174.887 118.505 175.124C117.731 175.659 116.937 176.22 116.212 176.818C115.777 177.177 115.419 177.584 115.058 178.015L116.806 177.179L116.927 177.342C117.845 176.779 118.758 176.213 119.661 175.625C120.704 174.944 121.688 174.227 122.957 174.041L123.474 174.335L123.495 174.576L117.845 178.436C118.014 178.646 118.083 178.714 118.374 178.745C118.923 178.804 119.264 178.055 119.701 177.936C120.154 177.814 120.489 178.217 120.907 177.754L121.052 177.564C121.685 176.746 123.463 175.898 124.413 175.395C124.706 175.239 125.162 175.074 125.411 174.861C125.595 174.704 125.59 174.309 125.603 174.094L125.369 173.774L124.043 173.792C123.691 173.387 123.476 172.988 122.897 172.953C121.988 172.899 121.049 173.416 120.253 173.801C119.902 173.26 119.626 172.857 118.958 172.739C118.668 172.688 118.362 172.697 118.068 172.701L122.252 167.69C120.288 168.871 119.311 170.602 117.83 172.25C117.313 172.826 116.667 173.258 116.13 173.818C116.229 173.494 116.291 173.292 116.25 172.948L115.962 172.791C115.553 172.797 115.477 172.8 115.129 173.008L115.105 173.702C114.841 174.72 112.981 175.51 112.169 176.223C112.473 175.495 112.505 175.079 112.361 174.305C112.129 173.996 112.102 173.961 111.741 173.829C111.059 174.293 110.93 175.365 110.655 176.109C110.395 176.814 110.067 177.493 109.827 178.207C109.551 179.032 109.351 179.94 108.903 180.688L92.4091 186.951L89.0625 174.413C91.3091 173.033 93.7017 171.953 95.9778 170.637C96.8191 170.151 97.5772 169.55 98.3909 169.024L98.4533 169.168C99.1861 170.903 99.5993 172.769 100.309 174.521C101.024 176.288 102.113 177.995 103.059 179.648C103.345 180.148 103.808 181.289 104.324 181.523C104.672 181.365 104.714 181.174 104.902 180.848C104.899 180.62 104.932 180.507 104.814 180.307C104.396 179.6 104.063 178.853 103.773 178.084C105.357 177.517 106.573 176.594 107.789 175.436C108.185 175.059 110.866 172.035 111.017 172C111.147 171.971 111.421 172.152 111.56 172.133C111.591 172.129 111.84 172.001 111.862 172.002C112.412 172.007 113.64 172.85 114.073 172.647L109.296 170.481L115.7 163.978C118.221 164.049 120.852 164.771 123.361 165.139Z" fill="white"/>
<path d="M131.797 159.195L132.169 159.189C132.693 159.243 134.843 159.905 135.131 160.242C134.389 160.437 133.768 160.369 133.035 160.158C132.351 159.961 132.122 159.792 131.797 159.195Z" fill="#222222"/>
<path d="M136.292 162.381C140.314 162.357 144.303 164.151 147.862 165.831C148.891 166.316 150.097 166.777 150.96 167.536C151.095 167.655 151.047 167.799 151.055 167.97C150.889 167.987 150.736 168.012 150.576 167.948C150.022 167.725 149.482 167.298 148.932 167.029C146.782 165.975 144.621 164.879 142.388 164.008C140.528 163.282 138.427 162.968 136.466 162.637L136.292 162.381Z" fill="#222222"/>
<path d="M130.251 170.086C130.955 170.031 131.664 170.218 132.33 170.428C134.271 171.04 136.387 171.847 138.208 172.761C139.228 173.274 140.181 173.915 141.194 174.443C141.986 174.855 143.645 175.452 144.033 176.2C143.753 176.209 143.543 176.199 143.28 176.091C142.734 175.867 142.213 175.493 141.673 175.238C138.932 173.938 136.305 172.554 133.463 171.46C132.482 171.083 131.527 170.667 130.501 170.418L130.314 170.374L130.251 170.086Z" fill="#222222"/>
<path d="M133.253 157.034C134.45 156.997 135.886 157.687 137.015 158.062C139.216 158.792 141.521 159.47 143.654 160.365C144.776 160.836 145.774 161.593 146.916 162.04C148.442 162.638 150.054 162.971 151.577 163.62C152.073 163.832 152.561 163.982 152.763 164.493C151.895 164.369 151.039 164.032 150.201 163.778C148.716 163.328 147.159 162.876 145.762 162.191C144.744 161.693 143.928 161.016 142.844 160.583C141.994 160.244 141.104 160.007 140.239 159.71C137.947 158.925 135.671 158.161 133.363 157.425L133.253 157.034Z" fill="#222222"/>
<path d="M140.219 155.553C139.189 155.253 138.118 155.024 137.06 154.844C136.481 154.745 135.487 154.744 135.007 154.425C136.327 153.707 139.193 154.757 140.572 155.111C141.556 155.242 142.528 155.547 143.408 156.008C144.456 156.302 145.456 156.896 146.453 157.337C148.122 158.074 149.892 158.599 151.534 159.401C152.258 159.754 152.876 160.258 153.591 160.623C153.687 160.905 153.615 161.113 153.557 161.396C153.345 161.375 153.444 161.415 153.286 161.278C151.63 159.84 148.986 159.105 146.995 158.221C145.532 157.571 144.134 156.813 142.621 156.283C141.842 156.148 140.997 155.766 140.219 155.553Z" fill="#222222"/>
</svg>
