<svg width="247" height="240" viewBox="0 0 247 240" fill="none" xmlns="http://www.w3.org/2000/svg">
<path fill-rule="evenodd" clip-rule="evenodd" d="M227.612 67.1274L222.884 72.0192L218.154 67.1274L222.884 62.2355L227.612 67.1274Z" fill="#222222"/>
<path d="M226.906 57.0049C226.722 57.0049 226.537 56.9379 226.388 56.7994C226.066 56.5032 226.039 55.9958 226.323 55.6628C226.691 55.2351 235.202 45.1095 225.937 36.3279C225.057 35.4961 224.13 34.8801 223.184 34.4328C222.002 37.9029 219.678 40.9498 217.319 43.0415C213.666 46.2825 209.803 47.5599 207.476 46.2849C204.648 44.7357 204.135 42.7326 204.2 41.326C204.342 38.3224 207.366 35.0574 211.724 33.2014C214.709 31.9332 218.567 31.3021 222.148 32.3545C222.572 30.4012 222.551 28.3463 221.864 26.302C217.33 12.7863 195.977 12.6351 195.25 12.6351C194.799 12.6351 194.45 12.2785 194.448 11.8356C194.444 11.3907 194.791 11.0255 195.221 11.0234C196.186 11.0017 218.385 11.0083 223.339 25.7749C224.151 28.1975 224.151 30.6153 223.625 32.8925C224.811 33.4178 225.95 34.1524 226.989 35.1399C237.396 45.0037 227.587 56.62 227.487 56.7369C227.334 56.9142 227.121 57.0049 226.906 57.0049ZM218.408 33.4113C215.68 33.4113 213.337 34.2606 212.318 34.6925C208.565 36.2895 205.869 39.0488 205.758 41.404C205.693 42.7718 206.518 43.9344 208.208 44.859C209.906 45.7949 213.235 44.5391 216.307 41.8166C218.492 39.8785 220.652 37.0587 221.727 33.8782C220.601 33.5408 219.475 33.4113 218.408 33.4113Z" fill="#222222"/>
<path d="M1.81983 198.196L6.7919 203.34L0 205.223L1.81983 198.196Z" fill="#222222"/>
<path fill-rule="evenodd" clip-rule="evenodd" d="M237.018 83.0884C237.018 87.2446 233.762 90.6148 229.743 90.6148C225.725 90.6148 222.469 87.2446 222.469 83.0884C222.469 78.93 225.725 75.5623 229.743 75.5623C233.762 75.5623 237.018 78.9304 237.018 83.0884Z" fill="#222222"/>
<path fill-rule="evenodd" clip-rule="evenodd" d="M191.489 3.49385C191.489 5.42442 189.976 6.98771 188.11 6.98771C186.246 6.98771 184.733 5.42408 184.733 3.49385C184.733 1.56432 186.246 0 188.11 0C189.976 0 191.489 1.56466 191.489 3.49385Z" fill="white"/>
<path fill-rule="evenodd" clip-rule="evenodd" d="M196.022 188.828H6.9668V6.84436H196.022V188.828Z" fill="white"/>
<path d="M196.021 189.633H6.96623C6.53618 189.633 6.1875 189.273 6.1875 188.827V6.84374C6.1875 6.39846 6.53618 6.03772 6.96623 6.03772H196.021C196.451 6.03772 196.8 6.39846 196.8 6.84374V188.827C196.8 189.273 196.451 189.633 196.021 189.633ZM7.74529 188.022H195.242V7.64978H7.74529V188.022Z" fill="#222222"/>
<path fill-rule="evenodd" clip-rule="evenodd" d="M67.2725 111.739H14.999V31.3152H67.2725V111.739Z" fill="#B8BBFD"/>
<path d="M186.263 37.6325H76.8832C76.4528 37.6325 76.1045 37.2717 76.1045 36.8264C76.1045 36.3811 76.4532 36.0204 76.8832 36.0204H186.263C186.693 36.0204 187.042 36.3811 187.042 36.8264C187.042 37.2713 186.693 37.6325 186.263 37.6325Z" fill="#222222"/>
<path d="M186.263 45.2125H76.8832C76.4528 45.2125 76.1045 44.8518 76.1045 44.4065C76.1045 43.9612 76.4532 43.6005 76.8832 43.6005H186.263C186.693 43.6005 187.042 43.9612 187.042 44.4065C187.042 44.8518 186.693 45.2125 186.263 45.2125Z" fill="#222222"/>
<path d="M186.263 52.8465H76.8832C76.4528 52.8465 76.1045 52.4857 76.1045 52.0404C76.1045 51.5951 76.4532 51.2344 76.8832 51.2344H186.263C186.693 51.2344 187.042 51.5951 187.042 52.0404C187.042 52.4857 186.693 52.8465 186.263 52.8465Z" fill="#222222"/>
<path d="M186.263 60.4266H76.8832C76.4528 60.4266 76.1045 60.0658 76.1045 59.6209C76.1045 59.1756 76.4532 58.8148 76.8832 58.8148H186.263C186.693 58.8148 187.042 59.1756 187.042 59.6209C187.042 60.0655 186.693 60.4266 186.263 60.4266Z" fill="#222222"/>
<path d="M186.263 68.3285H76.8832C76.4528 68.3285 76.1045 67.9677 76.1045 67.5228C76.1045 67.0775 76.4532 66.7168 76.8832 66.7168H186.263C186.693 66.7168 187.042 67.0775 187.042 67.5228C187.042 67.9677 186.693 68.3285 186.263 68.3285Z" fill="#222222"/>
<path d="M186.263 75.9085H76.8832C76.4528 75.9085 76.1045 75.5477 76.1045 75.1024C76.1045 74.6575 76.4532 74.2968 76.8832 74.2968H186.263C186.693 74.2968 187.042 74.6575 187.042 75.1024C187.042 75.5477 186.693 75.9085 186.263 75.9085Z" fill="#222222"/>
<path d="M186.263 83.5425H76.8832C76.4528 83.5425 76.1045 83.1817 76.1045 82.7365C76.1045 82.2915 76.4532 81.9308 76.8832 81.9308H186.263C186.693 81.9308 187.042 82.2915 187.042 82.7365C187.042 83.1817 186.693 83.5425 186.263 83.5425Z" fill="#222222"/>
<path d="M186.263 91.1228H76.8832C76.4528 91.1228 76.1045 90.7621 76.1045 90.3168C76.1045 89.8719 76.4532 89.5111 76.8832 89.5111H186.263C186.693 89.5111 187.042 89.8719 187.042 90.3168C187.042 90.7617 186.693 91.1228 186.263 91.1228Z" fill="#222222"/>
<path fill-rule="evenodd" clip-rule="evenodd" d="M198.143 9.6401H192.738V4.04871H198.143V9.6401Z" fill="#222222"/>
<path fill-rule="evenodd" clip-rule="evenodd" d="M9.05483 9.6401H3.65039V4.04871H9.05483V9.6401Z" fill="#222222"/>
<path fill-rule="evenodd" clip-rule="evenodd" d="M198.143 191.624H192.738V186.032H198.143V191.624Z" fill="#AAAAAA"/>
<path fill-rule="evenodd" clip-rule="evenodd" d="M9.05483 191.624H3.65039V186.032H9.05483V191.624Z" fill="#222222"/>
<path fill-rule="evenodd" clip-rule="evenodd" d="M195.442 23.5385H6.87305V6.9801H195.441L195.442 23.5385Z" fill="#222222"/>
<path fill-rule="evenodd" clip-rule="evenodd" d="M21.7014 14.9714C21.7014 16.8425 20.2363 18.3588 18.4287 18.3588C16.6198 18.3588 15.1543 16.8425 15.1543 14.9714C15.1543 13.101 16.6198 11.5854 18.4287 11.5854C20.2359 11.5854 21.7014 13.1013 21.7014 14.9714Z" fill="white"/>
<path fill-rule="evenodd" clip-rule="evenodd" d="M46.4361 14.9714C46.4361 16.8425 44.97 18.3588 43.1624 18.3588C41.3549 18.3588 39.8887 16.8425 39.8887 14.9714C39.8887 13.101 41.3549 11.5854 43.1624 11.5854C44.97 11.5854 46.4361 13.1013 46.4361 14.9714Z" fill="white"/>
<path fill-rule="evenodd" clip-rule="evenodd" d="M33.7574 14.9714C33.7574 16.8425 32.2909 18.3588 30.4833 18.3588C28.6754 18.3588 27.209 16.8425 27.209 14.9714C27.209 13.101 28.6754 11.5854 30.4833 11.5854C32.2912 11.5854 33.7574 13.1013 33.7574 14.9714Z" fill="white"/>
<path fill-rule="evenodd" clip-rule="evenodd" d="M127.889 176.151C127.889 176.151 148.657 119.058 150.337 110.133C152.017 101.21 154.822 94.8006 160.678 90.565C166.532 86.3293 200.22 87.5016 200.22 87.5016C200.22 87.5016 210.542 84.6719 221.94 99.3269C228.984 108.384 231.765 129.149 228.324 159.683C224.735 191.535 223.06 218.6 210.041 230.932C204.292 236.375 177.994 237.152 164.678 237.168C151.362 237.184 82.826 236.704 82.3193 236.523C81.8122 236.341 79.6642 238.435 75.2006 225.018C70.7367 211.6 76.4791 199.536 79.5127 193.89C82.5473 188.247 92.1916 182.333 92.1916 182.333L127.889 176.151Z" fill="#B8BBFD"/>
<path fill-rule="evenodd" clip-rule="evenodd" d="M122.26 125.671C125.474 130.257 119.532 139.321 113.451 143.881C107.371 148.444 99.836 148.425 96.6234 143.84C93.4098 139.257 95.7335 131.842 101.814 127.279C107.895 122.716 119.047 121.086 122.26 125.671Z" fill="white"/>
<path d="M104.001 148.082C100.691 148.082 97.7504 146.823 95.992 144.314C92.5314 139.376 94.9393 131.442 101.357 126.626C107.804 121.79 119.408 120.227 122.892 125.197C126.618 130.515 119.945 140.005 113.909 144.534C110.754 146.902 107.203 148.082 104.001 148.082ZM115.188 123.765C110.906 123.765 105.662 125.389 102.272 127.931C96.5496 132.226 94.2983 139.149 97.2532 143.367C100.208 147.583 107.27 147.52 112.995 143.229C119.239 138.542 124.373 130.059 121.63 126.144C120.469 124.489 118.043 123.765 115.188 123.765Z" fill="#222222"/>
<path fill-rule="evenodd" clip-rule="evenodd" d="M53.2491 118.127C51.0198 123.302 59.9147 131.76 66.769 134.931C73.6242 138.101 80.9866 136.477 83.2156 131.301C85.4435 126.128 81.6943 119.363 74.839 116.192C67.9847 113.021 55.4767 112.953 53.2491 118.127Z" fill="white"/>
<path d="M73.8268 137.36C71.4043 137.36 68.8688 136.786 66.4525 135.669C59.2784 132.347 50.07 123.529 52.5367 117.799C53.178 116.31 54.525 115.152 56.5404 114.354C61.3606 112.446 69.7126 112.939 75.1575 115.454C82.3944 118.803 86.3289 126.059 83.9292 131.63C82.745 134.374 80.2471 136.293 76.891 137.034C75.9027 137.252 74.8752 137.36 73.8268 137.36ZM53.961 118.456C51.9811 123.054 60.5586 131.174 67.0875 134.195C70.2516 135.66 73.6203 136.109 76.5653 135.457C79.4202 134.828 81.5296 133.235 82.505 130.973C84.5556 126.215 80.974 119.914 74.5225 116.928C69.4914 114.599 61.5114 114.112 57.0983 115.86C55.4833 116.5 54.4266 117.373 53.961 118.456Z" fill="#222222"/>
<path fill-rule="evenodd" clip-rule="evenodd" d="M82.7367 43.406C87.9535 41.687 95.7562 49.2245 98.0413 56.6259C100.326 64.0248 97.9489 71.4173 92.7331 73.1365C87.5167 74.8579 81.4349 70.2522 79.1498 62.8529C76.8647 55.4539 77.52 45.1276 82.7367 43.406Z" fill="white"/>
<path d="M90.5002 74.2999C85.5544 74.2999 80.4712 69.786 78.4076 63.1006C77.2111 59.2285 76.8202 54.6627 77.3572 50.8836C77.9879 46.4518 79.8153 43.5218 82.4992 42.636C88.2822 40.7367 96.4214 48.7359 98.7835 56.3809C99.9362 60.1211 99.9926 63.9867 98.9379 67.2668C97.8563 70.6356 95.7362 72.9929 92.969 73.9069C92.1607 74.1724 91.3314 74.2999 90.5002 74.2999ZM82.9712 44.1743C80.1581 45.1033 79.2119 48.9236 78.9007 51.117C78.3953 54.6651 78.7649 58.9605 79.8907 62.6079C82.0439 69.5743 87.6978 73.9649 92.4971 72.3683C94.7756 71.6183 96.5382 69.6238 97.4594 66.7566C98.4099 63.7988 98.3535 60.2894 97.2987 56.8732C95.0176 49.4853 87.38 42.6962 82.9712 44.1743Z" fill="#222222"/>
<path d="M95.1723 187.674C94.8276 187.674 94.5122 187.437 94.4205 187.078C94.3727 186.892 89.6085 168.543 88.2825 161.996C86.8645 154.977 86.9064 147.709 88.4184 138.426C89.8238 129.787 88.8196 123.87 86.8167 112.084L86.2319 108.633C84.4462 97.9952 85.0457 96.3876 87.274 90.4127C88.0092 88.4378 88.9261 85.9809 89.9974 82.5197C94.0931 69.274 87.7146 55.9136 87.6499 55.78C87.4556 55.3825 87.6104 54.8984 87.9943 54.6974C88.3768 54.5008 88.8487 54.6565 89.0407 55.054C89.3186 55.6223 95.7761 69.1229 91.4799 83.0124C90.396 86.5172 89.4708 88.9979 88.7272 90.9923C86.5696 96.783 86.0559 98.1594 87.7688 108.356L88.3513 111.803C90.3209 123.396 91.4048 129.781 89.9553 138.694C88.4765 147.769 88.4306 154.855 89.8071 161.665C91.1249 168.167 95.8763 186.476 95.9245 186.659C96.0374 187.089 95.7911 187.532 95.3753 187.647C95.3059 187.666 95.2391 187.674 95.1723 187.674Z" fill="#222222"/>
<path fill-rule="evenodd" clip-rule="evenodd" d="M113.873 83.0524C118.159 86.5796 115.702 97.4624 111.037 103.549C106.371 109.635 99.1136 111.709 94.8277 108.184C90.5418 104.657 90.8503 96.8649 95.5171 90.7809C100.183 84.6944 109.587 79.5276 113.873 83.0524Z" fill="white"/>
<path d="M99.8328 110.709C97.7423 110.709 95.8627 110.065 94.3441 108.814C89.7284 105.015 89.9811 96.7003 94.908 90.2788C98.5314 85.5512 104.526 81.7178 109.158 81.1688C111.282 80.918 113.04 81.3375 114.358 82.4222C118.938 86.1906 116.695 97.4637 111.647 104.049C108.832 107.723 104.891 110.184 101.104 110.633C100.672 110.683 100.248 110.709 99.8328 110.709ZM110.313 82.7098C109.999 82.7098 109.674 82.7314 109.336 82.7702C105.144 83.2694 99.4652 86.9276 96.1277 91.2817C91.7356 97.0078 91.3702 104.307 95.3131 107.552C96.8045 108.777 98.7509 109.283 100.927 109.03C104.313 108.628 107.863 106.392 110.428 103.047C114.943 97.1545 117.244 86.8561 113.389 83.6842C112.6 83.0362 111.568 82.7098 110.313 82.7098Z" fill="#222222"/>
<path fill-rule="evenodd" clip-rule="evenodd" d="M57.9986 78.1988C61.7708 74.0927 72.1528 77.056 77.601 82.4001C83.0493 87.7462 84.4085 95.409 80.6356 99.5127C76.8631 103.619 69.3879 102.615 63.9397 97.2712C58.4918 91.9251 54.2264 82.3049 57.9986 78.1988Z" fill="white"/>
<path d="M74.4462 102.831C70.8122 102.831 66.7335 101.124 63.402 97.8568C59.037 93.572 55.9064 87.3402 55.7895 82.7032C55.7374 80.5923 56.2907 78.8892 57.4331 77.6447C61.5622 73.1545 72.4473 76.236 78.1387 81.8151C81.426 85.0433 83.4477 89.324 83.5457 93.2672C83.6148 95.9746 82.8022 98.3254 81.2002 100.067C79.4919 101.928 77.086 102.831 74.4462 102.831ZM63.3874 77.0507C61.3763 77.0507 59.6531 77.5712 58.5651 78.7555C57.7153 79.678 57.3059 80.9939 57.3477 82.662C57.452 86.8365 60.4513 92.7354 64.4756 96.6855C69.605 101.711 76.5974 102.729 80.0727 98.9565C81.3821 97.5303 82.044 95.5768 81.9879 93.3081C81.9002 89.784 80.0601 85.9246 77.0651 82.986C73.5396 79.5269 67.7776 77.0507 63.3874 77.0507Z" fill="#222222"/>
<path d="M89.1836 137.356C88.9122 137.356 88.647 137.207 88.5025 136.943C88.4859 136.913 86.7504 133.84 79.9144 129.313C72.9973 124.735 65.347 123.678 65.2717 123.667C64.8436 123.611 64.5427 123.207 64.5972 122.766C64.6516 122.325 65.0193 121.997 65.4679 122.068C65.7937 122.111 73.5317 123.175 80.7539 127.956C87.9928 132.749 89.793 136.022 89.8661 136.161C90.0729 136.55 89.9371 137.041 89.5592 137.256C89.4403 137.324 89.3107 137.356 89.1836 137.356Z" fill="#222222"/>
<path d="M86.3052 104.752C86.0943 104.752 85.8831 104.663 85.7307 104.491C85.6891 104.445 81.5872 99.8344 75.9689 95.37C70.2737 90.8454 66.1821 87.2323 66.1425 87.1976C65.8144 86.9083 65.7749 86.3981 66.0548 86.061C66.3344 85.7195 66.8296 85.6827 67.1534 85.9703C67.1952 86.0071 71.2594 89.5941 76.9175 94.0905C82.6483 98.6453 86.8378 103.354 86.8797 103.401C87.1699 103.73 87.1491 104.24 86.8316 104.54C86.6812 104.683 86.4931 104.752 86.3052 104.752Z" fill="#222222"/>
<path d="M88.6758 117.643C88.5715 117.643 88.4649 117.621 88.3626 117.576C87.9677 117.397 87.7884 116.919 87.9614 116.513C88.1304 116.113 92.1636 106.71 96.9942 102.187C101.643 97.8313 104.534 94.0389 104.561 94.0022C104.83 93.65 105.321 93.5937 105.655 93.8641C105.994 94.1382 106.054 94.646 105.789 94.9961C105.668 95.1538 102.796 98.9287 98.0386 103.384C93.4545 107.676 89.4296 117.069 89.3901 117.161C89.2605 117.464 88.9747 117.643 88.6758 117.643Z" fill="#222222"/>
<path fill-rule="evenodd" clip-rule="evenodd" d="M177.719 101.623L172.263 101.568C172.263 101.568 168.086 99.6289 162.858 101.192C157.525 102.786 151.218 112.426 151.218 112.426L141.761 129.362L140.827 129.255L137.864 124.47L131.11 107.911C131.11 107.911 132.485 106.228 133.187 104.47C133.89 102.713 133.967 101.836 133.967 101.836L124.978 102.32L126.173 99.7402C126.173 99.7402 129.126 99.1589 130.226 98.7181C131.325 98.2797 130.962 92.6199 129.447 88.8275C127.932 85.0323 123.107 88.934 123.107 88.934C123.107 88.934 123.052 88.6526 123.003 87.9668C122.955 87.2811 125.555 85.9339 126.068 85.3323C126.582 84.7303 126.089 84.4465 125.757 83.5587C125.425 82.6709 122.951 84.0971 122.951 84.0971C122.951 84.0971 121.081 85.3392 120.457 87.4831C119.833 89.627 120.717 91.7847 120.717 91.7847C120.717 91.7847 120.383 93.4085 120.405 95.4387C120.427 97.4713 120.618 104.623 121.547 107.912C122.478 111.202 128.563 134.953 128.563 134.953C128.563 134.953 127.46 136.05 127.056 136.995C126.652 137.942 127.337 140.424 127.627 141.726C127.918 143.029 129.238 142.747 129.238 142.747L130.537 145.759L126.433 149.897C126.433 149.897 114.202 144.124 108.038 140.706C101.873 137.288 91.6477 132.839 82.4728 132.158C73.2972 131.476 65.4288 138.233 65.4288 138.233L28.0162 166.242C28.0162 166.242 18.0592 165.431 17.8836 165.434C17.7079 165.438 13.9958 161.65 10.6089 159.629C7.2229 157.608 1.51562 162.263 1.51562 162.263C1.51562 162.263 2.78882 166.706 6.91999 171.779C11.0502 176.853 26.8728 186.832 26.8728 186.832L57.635 168.713L32.7448 218.766L27.4975 222.903C27.4975 222.903 22.2007 222.488 17.053 223.335C11.9057 224.18 9.15493 230.107 9.15493 230.107C9.15493 230.107 17.5644 235.615 26.5095 236.882C32.3585 237.708 47.5027 237.956 47.5027 237.956L49.5288 221.023L79.0431 179.09L129.446 188.444C129.446 188.444 132.081 190.279 139.838 191.617C147.594 192.952 156.275 186.675 160.987 178.552C164.288 172.861 166.546 160.167 166.546 160.167C166.546 160.167 168.464 161.455 173.353 161.457C178.241 161.457 188.008 146.28 192.215 138.395C196.423 130.507 202.398 123.774 201.724 115.545C201.051 107.317 191.487 104.848 191.487 104.848C191.487 104.848 189.877 104.203 187.85 103.61C185.823 103.02 185.72 100.224 185.72 100.224C185.72 100.224 190.995 101.998 195.437 102.159C199.879 102.323 201.422 99.1957 202.763 96.3546C204.105 93.5132 202.406 93.5043 201.256 91.0855C200.106 88.6667 199.78 85.9438 199.126 78.3971C198.473 70.8528 197.827 68.8292 197.827 68.8292C197.827 68.8292 199.348 68.6749 201.724 67.9681C204.1 67.2617 206.181 59.2608 204.79 55.2819C203.399 51.3005 196.563 47.9849 192.007 48.8841C187.452 49.7812 185.876 56.6263 185.876 56.6263C185.876 56.6263 180.8 56.0968 174.548 58.2909C168.296 60.4871 163.473 65.1405 160.31 69.5806C157.148 74.0203 160.189 79.8367 161.921 83.3976C163.655 86.9588 162.459 89.2185 162.285 91.9458C162.111 94.6714 161.721 94.9961 165.403 96.6765C169.085 98.357 178.289 99.4719 178.289 99.4719L177.719 101.623Z" fill="white"/>
<path fill-rule="evenodd" clip-rule="evenodd" d="M187.334 84.3829C187.334 84.3829 181.618 82.1778 177.306 79.3842C172.995 76.5909 169.668 71.5355 169.668 71.5355L166.81 77.1269C166.81 77.1269 167.218 79.0485 167.329 80.7286C167.441 82.407 168.421 85.2982 168.421 85.2982L167.538 86.2114C167.538 86.2114 167.422 87.1061 167.849 88.4165C168.275 89.7245 169.985 92.6748 173.253 95.0823C176.521 97.4921 179.177 94.4917 179.177 94.4917L178.138 99.6519C178.138 99.6519 164.638 97.6148 163.121 95.6726C161.603 93.733 163.096 87.3085 162.808 84.6533C162.522 81.9964 159.415 78.7554 159.483 73.1482C159.551 67.5427 167.82 61.7359 173.72 58.2565C179.621 54.7774 186.504 56.6441 186.504 56.6441C186.504 56.6441 187.139 52.1951 190.765 49.4403C194.389 46.6858 197.184 49.2791 200.689 51.3207C204.194 53.3646 206.049 57.2845 204.898 62.8804C203.746 68.4762 198.195 68.4171 198.195 68.4171C198.195 68.4171 199.11 75.2942 199.598 80.5675C200.087 85.8386 200.778 89.7383 201.988 92.6085C203.199 95.4791 202.879 97.9546 199.909 100.78C196.94 103.605 185.829 100.512 185.829 100.512L186.971 90.7284L187.334 84.3829Z" fill="white"/>
<path fill-rule="evenodd" clip-rule="evenodd" d="M149.109 140.486L165.476 144.841C165.476 144.841 166.348 149.838 165.789 153.228C165.228 156.617 164.178 159.088 164.178 159.088C164.178 159.088 169.461 161.74 172.752 161.452C176.041 161.163 179.74 157.839 183.039 153.28C186.339 148.722 197.627 128.226 199.978 123.336C202.331 118.447 201.068 112.657 198.524 109.144C195.978 105.631 191.828 104.461 189.638 104.466C187.449 104.473 185.604 106.51 183.61 108.284C181.617 110.057 176.739 112.169 173.062 111.563C169.386 110.957 169.762 108.852 169.529 106.133C169.297 103.415 172.959 101.725 172.959 101.725C172.959 101.725 166.579 98.3889 159.605 102.963C154.398 106.376 150.995 112.853 149.109 116.133C147.221 119.414 141.158 129.95 141.158 129.95L149.109 140.486Z" fill="white"/>
<path fill-rule="evenodd" clip-rule="evenodd" d="M133.52 144.088C134.688 143.545 136.897 143.713 136.897 143.713L138.456 147.528L131.441 146.186C131.441 146.186 132.351 144.631 133.52 144.088Z" fill="#AAAAAA"/>
<path fill-rule="evenodd" clip-rule="evenodd" d="M31.6485 220.582L27.4922 223.539L21.5674 223.268C21.5674 223.268 24.7557 224.659 27.336 227.193C29.9153 229.728 32.5837 233.375 32.5837 233.375L43.4958 233.967C43.4958 233.967 44.4528 232.809 45.5746 230.849C46.6961 228.887 48.744 227.3 48.744 227.3L49.1077 222.946C49.1077 222.946 47.966 220.396 40.6906 218.483C34.9316 216.971 31.9092 219.076 31.9092 219.076L31.6485 220.582Z" fill="#222222"/>
<path fill-rule="evenodd" clip-rule="evenodd" d="M13.7214 174.186C16.2392 176.337 24.6845 181.874 24.6845 181.874C24.6845 181.874 26.2447 181.545 29.5689 180.906C32.8947 180.268 35.5966 181.712 35.5966 181.712L38.5591 179.993C38.5591 179.993 35.8766 180.454 30.9729 174.079C26.7123 168.543 28.8423 165.531 28.8423 165.531L27.5943 166.605L17.9821 165.692L16.5268 164.348C16.5268 164.348 14.5459 164.872 12.5261 165.477C10.5067 166.081 9.4082 168.111 9.4082 168.111C9.4082 168.111 11.2025 172.036 13.7214 174.186Z" fill="#222222"/>
<path fill-rule="evenodd" clip-rule="evenodd" d="M166.307 161.007C166.307 161.007 163.392 183.863 150.46 189.446C140.381 193.799 129.415 188.8 129.415 188.8C129.415 188.8 122.342 188.337 111.54 186.381C100.738 184.426 78.8559 179.071 78.8559 179.071L49.8617 220.573C49.8617 220.573 48.097 218.383 43.574 215.842C39.0519 213.301 34.2732 215.787 34.2732 215.787L57.4997 168.372L40.6124 178.103C40.6124 178.103 37.3802 176.125 33.8571 172.351C30.335 168.576 32.4546 163.212 32.4546 163.212C32.4546 163.212 59.7466 141.739 70.0227 136.009C80.2995 130.279 86.1415 131.242 94.4447 135.041C102.971 138.945 139.236 155.363 139.236 155.363L142.249 156.383L144.639 151.116L166.307 161.007Z" fill="white"/>
<path fill-rule="evenodd" clip-rule="evenodd" d="M152.605 121.442C151.993 125.042 155.098 128.376 155.098 128.376L148.553 139.559L149.851 141.116L170.012 145.525L177.391 132.193C177.391 132.193 177.224 126.67 175.572 124.29C173.919 121.91 172.156 119.841 167.414 119.882C162.671 119.923 160.035 124.238 160.035 124.238C160.035 124.238 159.752 120.876 157.697 118.163C155.641 115.449 154.423 116.872 154.423 116.872C154.423 116.872 153.216 117.841 152.605 121.442Z" fill="#222222"/>
<path fill-rule="evenodd" clip-rule="evenodd" d="M220.79 151.407C218.133 165.111 214.716 177.924 210.451 190.056C209.04 194.072 207.644 198.112 206.087 201.989C202.977 209.737 199.816 217.394 195.904 224.297C193.791 228.022 191.84 230.92 188.526 233.112C185.362 235.205 181.096 236.186 176.161 236.768C171.562 237.308 166.607 237.897 161.353 237.897C156.244 237.897 150.951 238.058 145.663 238.058C135.184 238.058 124.515 237.948 114.074 237.948C105.083 237.951 95.6616 237.681 86.5375 237.681C85.251 237.681 83.8815 237.744 82.6411 237.626C81.5808 237.526 80.4988 235.45 79.9399 234.671C77.7843 231.667 76.015 228.449 74.848 224.51C73.328 219.382 72.9429 211.743 74.1204 206.235C75.308 200.68 77.5665 196.002 80.2501 191.991C82.9938 187.891 86.8178 185.121 90.8493 182.53C87.0164 181.712 83.2618 180.813 79.4192 180.004C69.5984 193.762 59.9476 207.699 50.168 221.501C49.6533 226.273 49.0498 231.382 48.4022 236.284C48.2817 237.196 48.2684 238.044 47.7786 238.325C47.318 238.591 45.8449 238.389 44.9731 238.38C40.1934 238.327 35.2686 238.182 30.6336 238.003C28.7656 237.93 27.1138 237.66 25.3863 237.358C22.0233 236.772 18.9382 236.052 15.8265 235.046C13.6115 234.331 11.6691 233.459 9.85128 232.091C9.27843 231.66 8.33561 231.058 8.39572 230.479C8.46911 229.782 9.28707 228.923 9.74701 228.328C11.2441 226.389 12.9311 224.433 15.0989 223.33C16.7042 222.512 18.634 222.346 20.8135 222.201C23.0318 222.051 25.4069 222.06 27.4123 222.201C27.7172 222.221 28.299 221.658 28.6594 221.34C29.0545 220.99 29.4045 220.631 29.6988 220.372C30.4702 219.693 31.2945 219.2 31.8278 218.544C32.4043 217.838 32.8291 216.516 33.3352 215.535C40.9433 200.782 48.3475 184.971 55.8832 170.597C47.2423 175.696 37.9678 181.242 29.0223 186.67C28.4329 187.026 27.678 187.689 27.1005 187.689C26.5233 187.692 25.6187 186.909 25.0216 186.509C20.5424 183.506 15.9032 180.372 11.773 177.154C9.24418 175.185 7.1029 173.439 5.22727 170.704C3.97929 168.885 2.78514 166.78 1.58996 164.577C1.27182 163.988 0.511941 162.869 0.603264 162.212C0.699902 161.508 1.92266 161.054 2.57787 160.707C4.56408 159.651 7.61898 157.898 10.4221 158.933C13.7277 160.153 15.8564 162.807 18.3201 164.793C21.108 164.929 24.395 165.556 27.2563 165.651C27.6033 165.665 28.2838 165.083 28.8148 164.683C39.3665 156.742 49.7838 148.95 60.4036 141.033C64.0947 138.28 67.7749 135.441 71.938 133.4C76.3643 131.228 82.3011 130.349 87.9393 131.519C90.422 132.035 92.5698 133.172 94.8496 134.153C106.012 138.948 116.704 144.108 127.582 149.204C128.989 148.171 130.315 147.051 132.049 146.354C131.986 146.647 131.824 146.89 131.893 147.269C131.965 147.653 132.231 147.787 132.309 148.021C131.701 148.2 131.169 148.586 130.647 148.936C130.148 149.268 129.569 149.566 129.297 150.011C133.302 151.886 137.597 153.86 141.765 155.87C142.394 156.172 143.582 156.689 142.908 157.535C142.507 158.039 141.564 157.564 141.038 157.321C125.056 149.886 109.505 142.177 93.0836 135.121C91.8489 134.59 90.6623 134.061 89.3947 133.616C88.079 133.152 86.673 132.882 85.1341 132.703C78.1317 131.881 73.2012 134.288 68.9243 136.895C66.7707 138.208 64.7555 139.75 62.7932 141.194C52.6825 148.639 43.0603 155.913 32.9715 163.503C33.098 165.456 33.0735 167.032 33.5952 168.502C35.0746 172.669 37.7845 175.34 41.4404 177.316C46.7714 174.25 51.8848 170.959 57.2344 167.909C60.457 161.512 63.5544 154.562 71.8855 153.504C74.1258 153.22 77.0365 153.243 79.5235 153.558C79.8187 153.595 80.3936 153.772 80.5101 153.719C80.8326 153.572 80.543 152.741 81.2377 152.645C81.8195 152.564 82.9676 153.672 83.471 154.042C83.7214 154.226 83.989 154.31 84.1989 154.471C84.4237 154.646 84.5556 154.937 84.7705 155.116C85.3852 155.634 86.1413 156.118 86.7965 156.622C95.7911 163.533 104.639 170.492 113.813 177.155C117.482 179.821 121.108 182.544 125.036 184.897C126.971 186.056 129.242 187.046 131.426 188.013C133.641 188.994 135.987 189.9 138.492 190.38C147.4 192.083 153.855 186.827 157.82 181.885C159.276 180.071 160.519 178.157 161.456 175.974C163.341 171.582 164.579 166.596 165.612 160.923C159.026 158.371 152.308 155.514 145.765 152.752C145.102 152.473 144.456 152.125 143.792 151.891C143.083 151.644 142.381 151.476 141.713 151.194C140.235 150.565 139.488 149.779 138.752 148.505C138.088 147.358 137.493 146.084 136.829 144.796C135.689 144.776 134.888 144.615 133.972 144.796C132.479 145.094 131.759 146.534 130.283 146.302C129.16 146.125 129.005 144.733 128.725 143.561C127.915 143.227 127.311 143.057 127.011 142.432C126.296 140.951 126.198 137.645 126.906 136.089C127.155 135.542 127.835 135.094 127.842 134.69C127.851 134.079 127.256 132.463 127.062 131.736C125.225 124.831 123.44 118.157 121.554 111.201C121.297 110.247 120.965 109.313 120.724 108.298C120.479 107.27 120.446 106.134 120.307 104.966C119.866 101.242 119.548 96.852 119.788 92.7095C119.821 92.146 119.709 91.642 119.684 91.0971C119.577 88.7556 119.636 85.828 120.672 84.6471C121.193 84.0524 122.083 83.5979 123.061 83.2505C124.351 82.7898 126.373 82.1242 126.855 83.6253C127.121 84.4564 127.07 85.7394 126.751 86.4753C126.657 86.6887 126.463 86.8567 126.491 87.0659C127.497 86.7705 128.945 86.9546 129.609 87.5497C130.512 88.3605 130.963 90.3519 131.271 92.3869C131.59 94.4924 131.829 96.6545 131.635 98.4621C131.552 99.2368 131.071 99.7024 130.544 99.9137C129.197 100.45 128.212 100.214 126.491 100.559C126.49 100.611 126.428 100.599 126.387 100.611C125.903 101.263 125.471 104.247 124.257 103.945C123.309 103.709 123.917 102.448 124.205 101.794C124.594 100.911 124.833 100.098 125.192 99.5365C125.618 98.871 126.936 98.9527 127.894 98.7847C128.645 98.6531 129.286 98.5645 130.076 98.4078C130.134 97.6859 130.164 96.8115 130.076 96.0959C130.084 96.0347 130.064 96.0003 130.024 95.9893C126.494 96.0189 124.197 97.195 122.646 99.4822C122.195 100.15 121.541 101.215 121.503 102.01C121.472 102.671 121.677 103.495 121.763 104.268C121.845 104.997 121.931 105.764 122.022 106.471C122.216 107.956 122.63 109.296 122.958 110.502C125.063 118.257 127.168 126.342 129.244 133.885C129.961 133.533 130.798 133.058 131.686 132.649C132.502 132.272 133.477 131.7 134.284 131.627C135.03 131.561 135.68 132.016 136.415 132.218C136.374 131.616 136.044 130.846 135.843 130.23C133.551 130.689 129.868 131.336 129.037 128.992C128.727 128.116 128.84 126.896 129.661 126.306C130.54 125.672 131.917 125.375 133.09 125.071C134.351 124.741 135.639 124.532 137.143 124.532C135.226 120.079 133.222 115.275 131.219 110.611C130.895 109.852 130.281 109.082 130.389 108.244C130.452 107.745 130.932 107.072 131.219 106.471C131.775 105.31 132.208 104.165 132.674 102.71C132.944 101.865 132.993 101.099 133.817 101.204C135.141 101.372 133.794 104.184 133.557 104.858C133.373 105.388 133.12 106.098 132.83 106.741C132.654 107.132 131.877 108.304 131.999 108.621C132.64 110.288 133.483 111.992 134.234 113.729C135.684 117.086 137.236 120.653 138.649 123.994C138.85 124.469 138.93 124.962 139.221 125.284C139.52 125.621 139.811 125.798 140.105 126.2C140.641 126.933 141.017 127.705 141.351 128.564C144.035 123.815 146.687 119.034 149.456 114.374C149.815 111.721 150.491 109.123 151.067 106.579C151.645 104.027 152.204 101.44 153.041 99.1077C154.689 94.5133 158.223 91.6565 161.718 89.0013C162.379 86.4396 161.941 83.9709 160.99 82.0675C160.114 80.3122 158.801 78.7723 158.445 76.5307C158.043 74.003 158.749 71.5685 159.639 69.8104C160.593 67.93 161.671 66.6353 163.069 65.1889C165.593 62.577 168.735 60.2764 172.264 58.362C175.75 56.4723 180.224 55.3278 185.41 56.1593C185.631 54.0336 186.46 52.5459 187.539 51.3217C189.612 48.9665 193.165 47.0703 197.307 48.4717C198.952 49.0283 200.352 49.9477 201.62 50.9974C204.181 53.1231 206.262 55.771 206.139 60.352C206.083 62.4344 205.48 64.1355 204.529 65.673C203.332 67.6101 201.862 69.2545 198.917 69.4362C199.889 74.7211 200.103 80.787 200.684 86.476C201.153 86.7055 201.705 86.7374 202.192 86.7983C205.827 87.2597 209.341 88.0341 212.01 89.5916C219.572 94.011 223.197 102.825 224.272 113.942C224.488 116.172 224.632 118.616 224.687 121.039C224.687 121.539 224.687 122.041 224.687 122.542C224.298 132.925 222.562 142.27 220.79 151.407ZM186.915 56.4263C192.887 58.0772 196.655 62.0104 198.605 67.8224C201.25 67.7726 202.484 66.2347 203.489 64.3818C204.172 63.1216 204.625 61.5748 204.632 59.9737C204.646 56.8104 203.278 54.6616 201.463 52.9857C199.62 51.2846 197.525 49.7564 194.916 49.5451C192.93 49.386 191.556 50.0536 190.241 50.9963C188.424 52.3016 187.262 53.7278 186.915 56.4263ZM177.771 98.5136C177.996 97.5485 178.152 96.5082 178.394 95.5588C177.482 95.7815 176.653 96.3085 175.434 96.3106C173.795 96.3154 172.246 95.3637 171.017 94.4302C169.01 92.9016 167.79 91.4644 167.016 88.7845C166.789 87.9987 166.353 86.688 166.497 85.9362C166.605 85.3779 167.363 85.0893 167.9 84.6461C168.88 83.8376 169.997 82.709 169.926 80.8829C169.883 79.7927 168.804 78.9774 167.9 78.519C167.166 78.1438 165.611 78.16 165.51 77.2812C165.451 76.7792 165.959 76.0776 166.186 75.6161C166.942 74.0718 167.896 72.5188 168.784 71.3149C168.083 70.5065 167.187 69.4094 166.393 68.4124C166.113 68.0605 165.744 67.6857 165.77 67.284C165.796 66.8683 166.142 66.6006 166.497 66.5845C167.058 66.5618 167.428 67.2638 167.796 67.7135C170.363 70.8497 172.792 73.732 175.59 76.7455C177.121 78.394 178.436 79.9205 180.889 81.0447C182.495 81.7803 184.31 82.4345 186.136 82.9275C186.788 83.1024 187.555 83.1477 187.592 83.8401C187.674 85.4662 184.282 84.0469 183.487 83.7858C181.125 83.0138 178.89 82.0483 177.356 80.7221C176.937 80.361 176.503 80.0181 176.109 79.6477C175.717 79.2773 175.424 78.7939 174.966 78.5194C174.293 78.115 172.516 78.3102 172.42 77.3904C172.359 76.7977 172.663 76.6043 173.148 76.4751C172.405 75.5282 171.504 74.5809 170.654 73.5729C170.512 73.4049 169.984 72.6099 169.874 72.6054C169.729 72.5985 169.253 73.3661 169.147 73.5203C168.465 74.4882 167.912 75.601 167.433 76.6909C168.904 77.1908 170.247 77.9195 170.966 79.1097C171.852 80.5768 171.351 82.8571 170.498 84.217C169.89 85.1845 168.925 85.7002 168.108 86.5268C168.46 89.1181 169.275 90.5309 170.601 91.9025C171.647 92.9861 173.546 94.7707 175.538 94.6985C177.007 94.6439 178.394 93.7059 179.694 93.1926C180.321 92.9452 180.955 92.6793 181.668 92.3319C182.153 92.0979 184.2 90.8102 184.266 92.2797C184.307 93.1655 182.817 93.5809 182.396 93.7853C181.531 94.2007 180.842 94.4669 180.058 94.805C179.927 95.843 179.619 97.2509 179.33 98.5682C178.864 100.696 178.667 102.243 177.2 103.299C176.664 103.685 175.061 104.655 174.913 103.406C174.841 102.786 175.313 102.606 175.538 102.386C174.98 102.484 174.361 102.25 173.823 102.386C173.556 102.452 173.114 102.856 172.731 103.138C171.821 103.808 170.373 104.916 169.978 105.933C169.341 107.575 170.114 109.681 171.121 110.341C172.411 111.186 174.536 111.175 176.264 110.986C178.044 110.789 179.434 109.985 180.629 109.372C183.58 107.864 184.922 105.515 187.695 104.373C186.601 103.887 184.982 102.847 184.785 101.31C184.65 100.253 184.967 98.9156 185.098 97.8165C185.39 95.3455 185.611 93.6695 185.98 91.0964C186.14 89.9791 186.121 88.3574 187.019 88.355C188.29 88.353 187.603 90.3151 187.435 91.5256C187.067 94.1715 186.68 97.1104 186.448 99.6972C188.937 100.226 191.46 100.86 194.293 101.096C195.238 101.174 196.299 101.255 197.151 101.042C198.358 100.738 199.468 99.8244 200.215 99.0001C201.027 98.103 202.127 96.638 201.827 94.8597C201.546 93.1906 200.362 91.5328 199.8 89.9132C199.172 88.1077 199.045 86.0183 198.865 83.8401C198.512 79.5659 198.266 75.1489 197.618 71.0472C197.286 68.9418 196.878 67.293 196.007 65.6713C195.18 64.1314 194.308 62.8416 193.098 61.6401C190.686 59.2419 187.252 57.7432 183.279 57.5C176.537 57.0911 171.896 60.073 168.107 62.9299C166.241 64.3358 164.233 65.9393 162.704 67.9286C161.251 69.8203 159.722 72.2618 159.899 75.5619C160.056 78.5074 162.221 80.3174 163.12 83.088C163.632 84.664 163.636 86.2994 163.432 87.8709C163.176 89.8355 162.248 93.2922 163.536 94.8047C164.155 95.5337 165.431 95.9313 166.549 96.3103C169.952 97.4643 173.821 98.0072 177.771 98.5136ZM121.192 89.8063C121.374 89.8853 121.637 89.5177 121.867 89.3226C122.124 89.1068 122.416 88.9319 122.595 88.7319C122.327 85.9995 126.068 87.4167 125.452 84.3238C124.218 84.4873 122.437 84.9869 121.815 85.7205C121.055 86.62 121.373 88.1259 121.192 89.8063ZM186.603 101.364C186.309 101.421 186.832 101.866 186.968 102.009C187.737 102.815 189.026 103.117 190.136 103.567C191.026 103.928 191.885 104.069 192.787 104.321C197.803 105.718 201.472 109.647 202.087 115.663C202.312 117.87 202.154 120.31 201.619 122.058C201.099 123.759 200.182 125.34 199.436 126.788C194.784 135.823 189.531 144.348 184.058 152.806C183.126 154.244 182.287 155.67 181.305 156.944C180.33 158.209 179.028 159.254 177.667 160.168C176.309 161.084 174.703 161.815 172.783 162.104C170.735 162.413 168.821 161.881 167.068 161.352C165.561 169.826 163.699 176.945 159.327 182.478C157.261 185.09 154.922 187.52 151.898 189.357C148.955 191.147 145.154 192.509 140.623 192.259C137.428 192.085 134.667 191.099 132.155 190.056C131.71 189.872 131.328 189.643 130.908 189.518C130.453 189.384 129.954 189.366 129.401 189.305C125.331 188.846 121.087 188.317 116.827 187.744C109.687 186.786 102.976 185.196 96.0976 183.714C95.1024 183.498 94.0496 183.057 93.2407 183.069C92.9225 183.073 92.893 183.248 92.5131 183.498C90.7955 184.629 88.8694 185.717 87.3173 186.884C85.424 188.31 83.6679 189.968 82.3299 191.776C79.5082 195.593 77.2164 200.149 75.9389 205.214C74.6248 210.426 74.6777 217.839 76.0432 223.169C77.1773 227.591 79.3807 231.383 81.8624 234.724C82.1403 235.1 82.6899 235.93 83.0047 236.015C83.5713 236.169 84.5337 236.069 85.3427 236.069C97.139 236.069 109.099 236.391 120.829 236.391C133.665 236.391 146.472 236.337 158.859 236.337C162.061 236.339 165.147 236.232 168.16 236.069C169.594 235.991 171.021 235.699 172.42 235.53C176.748 235.017 181.17 234.683 184.63 233.327C186.898 232.44 188.892 231.183 190.448 229.51C193.464 226.271 195.727 221.645 197.774 217.362C199.932 212.849 201.826 208.464 203.697 203.762C207.413 194.43 210.9 184.815 213.724 174.629C216.537 164.487 218.919 153.781 220.842 142.484C221.773 137.017 222.803 131.09 223.077 125.015C223.363 118.645 222.872 112.311 221.621 106.901C220.42 101.7 218.273 97.3623 215.024 93.999C213.455 92.3773 211.587 90.9624 209.256 90.0746C208.111 89.6407 206.85 89.3002 205.516 89.0003C204.167 88.6983 202.635 88.2984 201.255 88.2485C200.797 88.2303 201.004 88.6096 201.099 88.9456C201.638 90.8398 203.017 92.5409 203.334 94.537C203.771 97.2967 202.06 99.486 200.736 100.664C199.949 101.366 199.045 101.984 197.982 102.386C196.838 102.817 195.602 102.788 194.086 102.654C191.907 102.461 189.154 101.972 186.603 101.364ZM121.348 92.9246C121.537 92.9882 121.852 92.7226 122.127 92.5477C123.952 91.3874 126.422 90.5969 129.298 90.4516C129.024 89.484 128.896 88.5986 127.791 88.5169C125.585 88.3554 122.395 90.3925 121.608 91.9028C121.44 92.2251 121.411 92.6635 121.348 92.9246ZM161.406 91.2576C158.67 93.3129 156.199 95.6726 154.756 98.9998C154.021 100.69 153.605 102.667 153.144 104.589C152.69 106.483 152.245 108.438 151.793 110.394C153.836 106.953 155.926 104.089 159.224 102.115C160.872 101.13 162.692 100.34 164.99 100.126C166.192 100.015 167.405 100.105 168.627 100.235C169.742 100.353 170.839 100.657 171.952 100.771C173.226 100.905 175.039 100.787 176.473 100.771C177.009 100.766 177.364 100.789 177.408 100.181C175.072 99.7763 172.19 99.3358 169.458 98.7294C165.539 97.8595 161.322 97.117 161.301 92.4952C161.3 92.1 161.362 91.6231 161.406 91.2576ZM121.244 98.5682C122.977 95.9361 125.762 94.3917 129.973 94.3216C129.855 93.5654 129.862 92.6817 129.61 92.064C125.922 92.5316 122.299 93.0655 121.192 96.2041C121.153 97.051 121.261 97.744 121.244 98.5682ZM142.182 130.336C144.184 133.12 146.297 135.791 148.52 138.346C150.255 135.035 152.083 131.819 153.819 128.508C153.117 126.611 151.915 125.015 151.898 122.541C151.878 119.687 153.436 117.198 154.858 115.447C156.446 113.496 158.409 112.106 160.782 111.416C161.122 110.7 160.814 108.4 161.925 108.352C162.92 108.309 162.675 109.513 162.548 110.232C162.394 111.107 162.349 112.197 162.08 112.544C161.845 112.851 161.172 112.953 160.782 113.083C158.561 113.812 156.877 115.263 155.586 117.166C154.625 118.585 153.432 120.259 153.456 122.542C153.475 124.29 154.206 125.769 154.858 127.111C155.097 127.6 155.469 127.992 155.483 128.456C155.495 128.946 155.101 129.423 154.807 129.959C153.045 133.168 151.214 136.598 149.559 139.743C149.99 140.538 150.956 140.526 151.741 140.711C157.576 142.089 163.699 143.534 169.562 144.851C173.809 137.159 178.035 129.287 182.239 121.361C182.53 120.812 182.92 120.128 183.383 120.124C183.76 120.121 184.041 120.439 184.109 120.716C184.229 121.198 183.753 121.884 183.486 122.381C179.449 129.894 175.141 137.799 171.225 145.281C172.095 145.63 173.693 145.367 173.719 146.464C173.728 146.868 173.586 147.338 172.627 147.216C171.04 147.014 169.376 146.478 167.951 146.141C162.851 144.935 157.67 143.779 152.416 142.539C151.394 142.299 150.13 142.171 149.351 141.785C148.812 141.52 148.225 140.6 147.74 140.014C146.243 138.199 144.697 136.23 143.272 134.422C142.322 133.214 141.266 131.981 140.518 130.446C139.892 129.156 139.153 126.698 137.869 126.306C135.973 125.726 133.578 126.573 131.947 127.112C131.379 127.298 130.527 127.446 130.44 127.918C130.32 128.565 131.124 129.079 131.687 129.156C132.412 129.252 133.404 129.008 134.233 128.886C135.05 128.765 135.958 128.38 136.571 128.563C137.256 128.77 137.331 129.797 137.557 130.553C137.775 131.278 138.068 131.836 138.233 132.81C138.943 133.215 140.584 133.037 140.571 134.155C140.552 135.645 137.982 134.396 137.246 134.155C136.835 134.018 136.357 133.821 135.894 133.671C135.427 133.519 134.827 133.239 134.492 133.239C134.101 133.239 133.389 133.621 132.777 133.885C132.149 134.157 131.563 134.441 131.167 134.638C129.58 135.431 128.142 136.119 127.998 138.186C128.227 138.284 128.395 138.027 128.569 137.916C130.926 136.428 133.158 134.825 137.143 135.068C138.244 135.134 140.208 135.102 140.26 136.09C140.329 137.416 138.159 136.757 137.143 136.68C132.833 136.351 130.686 138.615 128.102 140.176C128.26 140.668 128.145 141.522 128.518 141.786C129.052 142.165 129.618 141.597 129.868 141.411C131.82 139.955 133.505 138.994 136.83 138.831C138.032 138.772 139.77 138.745 139.792 139.692C139.815 140.773 138.359 140.443 137.35 140.443C133.886 140.443 132.015 141.565 130.232 143.185C130.316 143.725 130.456 144.206 130.596 144.691C132.017 143.914 133.083 143.13 135.48 143.13C136.238 143.13 137.155 143.06 137.713 143.346C138.342 143.668 138.954 145.531 139.272 146.194C139.745 147.184 140.385 148.465 140.986 148.989C141.948 149.827 143.074 149.916 144.26 150.334C145.354 150.718 146.421 151.308 147.533 151.786C154.088 154.601 160.563 157.44 167.639 159.793C168.847 160.195 170.167 160.649 171.433 160.654C174.995 160.667 177.956 158.423 179.797 156.3C180.69 155.271 181.445 153.999 182.239 152.807C184.545 149.341 186.919 145.546 189.045 141.949C192.082 136.807 194.975 132.036 197.618 126.896C198.334 125.507 198.999 124.275 199.593 122.919C200.213 121.5 200.485 120.051 200.58 117.973C200.845 112.148 198.164 108.587 194.345 106.631C193.124 106.007 191.354 105.382 189.669 105.503C188.068 105.619 186.788 106.586 185.772 107.438C184.756 108.289 183.8 109.339 182.603 110.127C181.937 110.565 181.05 110.913 180.161 111.362C179.323 111.789 178.558 112.139 177.564 112.385C174.147 113.227 170.19 112.435 168.94 110.234C168.209 108.948 167.95 106.348 168.784 104.858C169.406 103.745 170.315 103.241 171.277 102.226C169.869 102.056 168.677 101.765 167.277 101.688C162.966 101.449 159.935 103.214 157.561 105.29C155.144 107.4 153.634 110.513 152.002 113.191C148.555 118.844 145.261 124.744 142.182 130.336ZM35.6737 214.407C41.7772 212.79 46.6857 216.205 50.1693 218.813C59.1091 206.21 67.9204 193.374 76.9784 180.702C77.4845 179.995 78.2254 178.503 78.9012 178.338C79.5288 178.185 80.9415 178.678 81.8109 178.876C96.26 182.153 110.301 185.566 126.128 187.315C122.103 185.208 118.534 182.507 114.905 179.896C104.667 172.533 94.4588 164.664 84.4078 156.837C83.9399 156.472 83.4494 155.87 83.0047 155.761C81.0982 155.302 78.2656 154.946 76.2505 154.848C72.2226 154.65 68.7057 155.657 66.3273 157.321C63.8842 159.029 62.3685 161.581 60.8721 164.361C57.9365 169.819 55.0882 175.508 52.3521 180.917C46.6801 192.127 41.2315 203.24 35.6737 214.407ZM2.37032 162.642C3.77936 165.418 5.17449 167.957 6.83857 170.275C8.50798 172.601 10.6702 174.381 12.9695 176.135C17.4783 179.571 22.3471 182.782 27.1016 185.971C29.4229 184.646 31.6442 183.218 33.9591 181.885C31.9231 181.406 29.3603 181.542 27.5163 182.046C26.779 182.248 25.8964 182.686 25.2312 182.639C24.5142 182.587 23.4738 181.662 22.7894 181.24C20.4581 179.805 18.0873 178.308 15.9832 176.618C13.9771 175.006 12.1649 172.851 10.4759 170.652C10.0335 170.075 8.97457 168.942 8.96893 168.34C8.96262 167.652 10.0545 166.691 10.5277 166.244C11.7262 165.108 12.9523 164.238 15.0487 164.093C15.162 163.886 14.7412 163.732 14.5287 163.555C13.1436 162.413 11.3061 160.755 9.33288 160.278C9.1572 160.234 8.65577 160.2 8.34626 160.223C6.04722 160.394 4.08023 161.734 2.37032 162.642ZM31.5173 164.632C30.9992 164.943 30.356 165.477 29.6998 165.974C29.1442 166.394 28.4398 167.121 27.8809 167.264C27.3154 167.412 26.1491 167.189 25.3348 167.103C23.6326 166.926 22.0003 166.742 20.2429 166.567C19.3676 166.478 18.4244 166.53 17.7493 166.297C17.3707 166.167 17.0841 165.683 16.7627 165.599C16.2117 165.454 15.3503 165.629 14.8396 165.706C12.8424 166.008 11.8368 167.118 10.7363 168.34C12.6764 170.966 14.5832 173.48 17.2302 175.542C19.3377 177.184 21.8523 178.783 24.3482 180.327C24.7235 180.558 25.1219 180.945 25.3876 180.972C25.6423 180.997 26.1903 180.763 26.5818 180.65C27.6475 180.338 28.9556 179.952 30.272 179.95C32.4033 179.945 34.1627 180.272 36.1941 180.543C37.4221 179.77 38.6694 179.019 39.9347 178.285C37.7143 176.852 35.6378 175.34 34.168 173.123C32.7586 170.999 31.4538 168.403 31.5176 164.793C31.5173 164.738 31.5173 164.684 31.5173 164.632ZM34.6355 216.394C34.0899 217.278 33.7738 218.617 33.0771 219.512C32.4691 220.291 31.4034 220.993 30.6349 221.663C30.3012 221.954 29.8449 222.335 29.3883 222.738C28.9549 223.119 28.5059 223.646 28.1403 223.76C27.3094 224.019 26.2019 223.599 25.3352 223.705C29.1083 225.679 30.981 229.619 33.5965 232.79C36.8878 232.951 40.1018 233.191 43.416 233.328C44.6749 230.993 45.8957 228.62 47.9871 227.146C48.4155 224.857 48.1961 221.711 49.1827 220.103C45.9501 217.373 40.2747 214.023 34.6355 216.394ZM10.2156 230.318C13.4853 233.212 18.4902 234.352 23.6202 235.369C25.3192 235.707 27.06 236.193 28.7646 236.336C31.7354 236.586 34.7499 236.47 37.7526 236.607C40.7248 236.741 43.7066 236.704 46.7405 236.821C47.0919 234.479 47.3738 232.065 47.676 229.673C47.5757 229.564 47.2994 229.883 47.1566 230.048C46.33 231.002 45.7701 232.279 45.1305 233.596C44.9014 234.068 44.6029 234.731 44.2472 234.886C43.673 235.138 42.2517 234.886 41.4417 234.833C39.1951 234.683 37.9528 234.658 35.7268 234.511C34.8093 234.45 33.6064 234.549 32.9217 234.295C32.306 234.068 31.7441 232.928 31.2589 232.253C30.7023 231.479 30.2109 230.825 29.7005 230.157C28.6653 228.801 27.4602 227.068 26.3232 226.178C24.9251 225.086 22.9308 224.466 21.179 223.814C20.6597 223.619 19.0846 223.925 18.3736 224.027C14.257 224.622 12.3472 227.645 10.2156 230.318Z" fill="#222222"/>
<path fill-rule="evenodd" clip-rule="evenodd" d="M175.537 88.5708C174.949 88.4846 174.557 89.0521 174.186 89.4294C173.963 89.6565 173.507 90.2334 173.042 90.3969C172.63 90.5422 171.445 90.388 171.172 90.7192C171.004 90.926 170.959 91.5256 171.172 91.7956C171.573 92.3069 173.288 92.0681 173.77 91.8502C174.199 91.6551 174.689 91.1438 175.121 90.7192C175.46 90.3876 176.212 89.9427 176.212 89.3229C176.212 88.8594 175.825 88.612 175.537 88.5708Z" fill="#222222"/>
<path fill-rule="evenodd" clip-rule="evenodd" d="M168.044 82.305L168.501 83.9583C168.694 84.6579 168.932 84.9716 169.599 84.7417C170.262 84.517 170.96 83.4904 170.769 82.7953L170.493 81.5804C170.3 80.8809 169.595 80.4765 168.919 80.6765C168.243 80.8764 167.851 81.6055 168.044 82.305Z" fill="#222222"/>
<path fill-rule="evenodd" clip-rule="evenodd" d="M175.579 81.283L176.035 82.9366C176.228 83.6361 176.933 84.0426 177.609 83.8426C178.285 83.643 178.676 82.9115 178.483 82.2141L178.026 80.5587C177.833 79.8592 177.129 79.4551 176.452 79.6548C175.776 79.8547 175.385 80.5838 175.579 81.283Z" fill="#222222"/>
<path d="M163.376 159.96C163.272 159.96 163.178 159.949 163.094 159.932C162.672 159.841 162.401 159.415 162.487 158.979C162.57 158.557 162.963 158.283 163.37 158.343C163.792 158.179 164.964 156.263 165.517 152.284C166.055 148.401 165.506 145.847 165.061 145.567C164.639 145.476 164.383 145.055 164.47 144.621C164.56 144.182 164.99 143.901 165.408 144C167.582 144.467 167.467 149.571 167.058 152.514C166.693 155.144 165.757 158.581 164.322 159.627C163.97 159.884 163.639 159.96 163.376 159.96Z" fill="#222222"/>
<path fill-rule="evenodd" clip-rule="evenodd" d="M196.407 83.8926C196.407 88.2577 192.988 91.7956 188.769 91.7956C184.55 91.7956 181.131 88.2577 181.131 83.8926C181.131 79.5274 184.55 75.9893 188.769 75.9893C192.988 75.9893 196.407 79.5274 196.407 83.8926Z" fill="#222222"/>
<path fill-rule="evenodd" clip-rule="evenodd" d="M176.408 56.9599C179.437 55.7289 180.408 56.2604 180.408 56.2604C180.408 56.2604 193.558 56.1219 193.243 66.6371C193.025 73.9179 191.184 77.486 191.164 77.4406L188.618 77.0661C188.626 77.0703 191.083 70.9906 189.37 65.5195C186.199 55.3884 171.159 59.9147 171.159 59.9147C171.159 59.9147 173.378 58.1885 176.408 56.9599Z" fill="#222222"/>
<path fill-rule="evenodd" clip-rule="evenodd" d="M75.5423 138.178L74.9628 140.862C74.7047 142.059 75.6389 143.242 77.0483 143.508L140.802 155.526C142.213 155.792 143.565 155.041 143.823 153.846L144.402 151.16C144.66 149.965 143.726 148.782 142.316 148.516L78.5616 136.497C77.1519 136.232 75.8 136.983 75.5423 138.178Z" fill="white"/>
<path d="M141.36 156.384C141.131 156.384 140.897 156.364 140.661 156.319L76.9066 144.301C75.9356 144.117 75.0937 143.568 74.5966 142.795C74.1871 142.153 74.0453 141.405 74.2017 140.686L74.7802 138.004C75.1269 136.394 76.8896 135.355 78.7005 135.705L142.455 147.723C143.426 147.907 144.267 148.453 144.765 149.227C145.174 149.869 145.316 150.616 145.161 151.334L144.581 154.022C144.28 155.422 142.908 156.384 141.36 156.384ZM76.3009 138.356L75.7223 141.038C75.643 141.405 75.7745 141.712 75.8977 141.905C76.1587 142.313 76.6286 142.609 77.1861 142.715L140.94 154.733C141.934 154.912 142.897 154.431 143.06 153.672L143.641 150.984C143.718 150.619 143.589 150.312 143.465 150.12C143.202 149.709 142.732 149.415 142.175 149.309L78.4205 137.291C77.4346 137.112 76.4656 137.594 76.3009 138.356Z" fill="#222222"/>
<path fill-rule="evenodd" clip-rule="evenodd" d="M64.4768 102.057L70.9964 134.611C71.3168 136.212 72.8719 137.743 74.4679 138.026L118.706 145.909C120.302 146.193 122.767 143.631 122.445 142.03L115.923 109.488C115.601 107.887 114.046 106.356 112.449 106.072L68.2028 98.187C66.6058 97.9029 64.1563 100.456 64.4768 102.057Z" fill="white"/>
<path d="M118.957 146.736C118.828 146.736 118.701 146.725 118.573 146.704L74.3361 138.821C72.421 138.482 70.6185 136.703 70.2343 134.772L63.7137 102.222C63.5155 101.226 63.9976 99.9873 65.0085 98.9091C65.8271 98.034 67.1325 97.1871 68.3334 97.3922L112.579 105.277C114.494 105.616 116.298 107.394 116.685 109.324L123.207 141.865C123.408 142.857 122.923 144.093 121.914 145.176C121.177 145.962 120.052 146.736 118.957 146.736ZM65.2383 101.893L71.7585 134.445C72.0155 135.729 73.3166 137.004 74.5991 137.231L118.836 145.114C119.318 145.196 120.139 144.755 120.793 144.055C121.507 143.29 121.754 142.555 121.682 142.195L115.16 109.653C114.901 108.37 113.6 107.095 112.315 106.868L68.07 98.983C67.5981 98.9136 66.7772 99.3396 66.1276 100.031C65.5159 100.686 65.1503 101.451 65.238 101.896L65.2383 101.893Z" fill="#222222"/>
<path fill-rule="evenodd" clip-rule="evenodd" d="M86.497 122.996C86.8616 125.383 88.982 127.636 91.2332 128.026C93.4841 128.417 95.014 126.798 94.6497 124.411C94.2854 122.024 92.1647 119.771 89.9138 119.381C87.6629 118.99 86.1327 120.609 86.497 122.996Z" fill="#222222"/>
<path fill-rule="evenodd" clip-rule="evenodd" d="M70.0221 136.009C80.2988 130.279 86.1408 131.242 94.444 135.041C102.971 138.946 139.235 155.363 139.235 155.363L142.248 156.383L143.231 156.305C143.944 156.719 144.229 155.997 144.957 156.385C145.596 156.728 146.24 157.06 146.896 157.364C148.739 158.227 150.596 159.079 152.5 159.789C153.129 160.023 153.769 160.232 154.421 160.389C154.745 160.468 155.072 160.537 155.403 160.589C155.671 160.632 155.941 160.675 156.211 160.716V170.286H56.5622L57.4993 168.372L54.1792 170.286H51.8711V148.418C58.7456 143.347 65.8119 138.355 70.0221 136.009Z" fill="white"/>
<path fill-rule="evenodd" clip-rule="evenodd" d="M101.891 170.287C96.0263 165.858 90.1906 161.341 84.4066 156.837C83.9387 156.472 83.4482 155.87 83.0035 155.761C81.097 155.302 78.2644 154.945 76.2493 154.847C72.2214 154.65 68.7045 155.656 66.3261 157.321C63.883 159.028 62.3673 161.581 60.8709 164.361C59.8209 166.314 58.7814 168.297 57.7543 170.286H53.1729C54.5165 169.482 55.8677 168.687 57.2339 167.909C60.4565 161.511 63.5539 154.561 71.8849 153.503C74.1252 153.219 77.0359 153.242 79.5229 153.558C79.8182 153.594 80.393 153.771 80.5096 153.719C80.832 153.571 80.5424 152.74 81.2371 152.645C81.819 152.563 82.967 153.671 83.4705 154.041C83.7208 154.226 83.9885 154.309 84.1984 154.471C84.4232 154.645 84.5551 154.936 84.7699 155.116C85.3846 155.634 86.1407 156.117 86.7959 156.621C92.7406 161.189 98.6199 165.776 104.572 170.287H101.891Z" fill="#222222"/>
<path fill-rule="evenodd" clip-rule="evenodd" d="M60.4031 141.033C64.0943 138.28 67.7744 135.441 71.9375 133.4C76.3639 131.228 82.3006 130.35 87.9388 131.519C90.4215 132.035 92.5694 133.173 94.8492 134.154C106.011 138.948 137.597 153.86 141.764 155.87C142.393 156.172 143.582 156.689 142.908 157.535C142.506 158.039 141.564 157.564 141.038 157.321C125.056 149.885 109.505 142.177 93.0831 135.121C91.8484 134.59 90.6619 134.061 89.3943 133.616C88.0786 133.152 86.6725 132.882 85.1336 132.703C78.1313 131.881 73.2008 134.288 68.9238 136.895C66.7702 138.208 64.7551 139.75 62.7928 141.194C59.1027 143.913 55.4776 146.606 51.8711 149.302V147.401C54.7045 145.284 57.5462 143.163 60.4031 141.033Z" fill="#222222"/>
<path fill-rule="evenodd" clip-rule="evenodd" d="M139.637 80.8764L137.623 101.457C137.623 102.154 137.078 102.719 136.404 102.719H125.424C124.75 102.719 124.203 102.154 124.203 101.457L122.19 80.8764C122.19 79.132 123.965 79.6137 126.155 79.6137H135.672C137.861 79.6141 139.637 79.1324 139.637 80.8764Z" fill="#222222"/>
<path fill-rule="evenodd" clip-rule="evenodd" d="M139.637 87.5944L138.991 94.6986C138.991 94.9391 138.336 95.1346 137.528 95.1346H124.359C123.551 95.1346 122.895 94.9391 122.895 94.6986L122.189 87.5944C122.189 86.9925 123.964 87.1584 126.154 87.1584H135.671C137.861 87.1584 139.637 86.9925 139.637 87.5944Z" fill="white"/>
<path d="M139.637 87.5945L138.991 94.6987C138.991 94.9392 138.336 95.1347 137.528 95.1347H124.359C123.551 95.1347 122.895 94.9392 122.895 94.6987L122.189 87.5945C122.189 86.9926 123.964 87.1585 126.154 87.1585H135.671C137.861 87.1585 139.637 86.9926 139.637 87.5945Z" fill="white"/>
<path d="M137.527 95.16H124.357C123.626 95.16 122.87 94.9872 122.87 94.6979L122.164 87.5975C122.164 87.5154 122.193 87.4439 122.25 87.3859C122.544 87.0835 123.568 87.0983 124.969 87.1203C125.349 87.1268 125.742 87.133 126.153 87.133H135.67C136.082 87.133 136.475 87.1265 136.855 87.1203C138.273 87.1052 139.281 87.0835 139.576 87.3859C139.632 87.4439 139.662 87.5154 139.662 87.5955C139.662 87.5975 139.016 94.7 139.016 94.7C139.016 94.9872 138.26 95.16 137.527 95.16ZM124.04 87.1653C123.154 87.1653 122.498 87.2082 122.288 87.4247C122.239 87.4721 122.214 87.5285 122.214 87.5955L122.921 94.6958C122.921 94.8968 123.499 95.1085 124.357 95.1085H137.528C138.388 95.1085 138.967 94.8969 138.967 94.6979L139.612 87.5955C139.61 87.5285 139.587 87.4721 139.539 87.4247C139.259 87.1375 138.199 87.1567 136.855 87.1742C136.477 87.1808 136.085 87.1849 135.671 87.1849H126.154C125.74 87.1849 125.348 87.1804 124.97 87.1742C124.639 87.1694 124.328 87.1653 124.04 87.1653Z" fill="#222222"/>
<path d="M137.527 95.9403H124.357C122.933 95.9403 122.116 95.4889 122.116 94.6979L121.414 87.6776C121.41 87.3079 121.521 87.0358 121.721 86.8306C122.241 86.3012 123.212 86.3077 124.979 86.3424L135.671 86.3534L136.844 86.3424C138.609 86.3098 139.584 86.3012 140.105 86.8306C140.305 87.0361 140.416 87.3082 140.416 87.5955C140.414 87.6711 139.768 94.7735 139.768 94.7735C139.77 95.4885 138.954 95.9403 137.527 95.9403ZM138.223 94.5725C138.216 94.6114 138.212 94.6546 138.212 94.6979L138.223 94.5725ZM123.635 94.2568C123.795 94.2935 124.042 94.3282 124.357 94.3282H137.527C137.845 94.3282 138.091 94.2935 138.252 94.2568L138.818 87.9841C138.374 87.9301 137.553 87.9428 136.866 87.9538L126.153 87.9645L124.959 87.9538C124.272 87.9452 123.453 87.9342 123.008 87.9841L123.635 94.2568Z" fill="#222222"/>
<path fill-rule="evenodd" clip-rule="evenodd" d="M123.627 77.6653L124.193 75.8574C124.193 75.4444 124.741 75.108 125.415 75.108H136.411C137.086 75.108 137.632 75.4441 137.632 75.8574L138.199 77.6653C138.199 78.7032 136.717 78.417 134.887 78.417H126.939C125.11 78.417 123.627 78.7032 123.627 77.6653Z" fill="#AAAAAA"/>
<path fill-rule="evenodd" clip-rule="evenodd" d="M123.625 77.6652L124.191 75.8573C124.191 75.4443 124.739 75.1079 125.413 75.1079H136.409C137.084 75.1079 137.63 75.4439 137.63 75.8573L138.197 77.6652C138.197 78.7031 136.715 78.4169 134.885 78.4169H126.937C125.108 78.4169 123.625 78.7031 123.625 77.6652Z" fill="white"/>
<path d="M125.165 78.4789C124.528 78.4789 124.037 78.4225 123.784 78.1696C123.659 78.0442 123.601 77.8803 123.601 77.6663C123.601 77.6577 124.166 75.8491 124.166 75.8491C124.166 75.4299 124.726 75.0819 125.413 75.0819H136.41C137.097 75.0819 137.657 75.4299 137.657 75.8577L138.223 77.6577C138.223 77.8803 138.162 78.0446 138.039 78.1696C137.69 78.5197 136.888 78.496 135.879 78.4634C135.562 78.4527 135.232 78.4417 134.887 78.4417H126.938C126.594 78.4417 126.264 78.4527 125.946 78.4634C125.668 78.4723 125.405 78.4789 125.165 78.4789ZM126.938 78.3902H134.887C135.233 78.3902 135.561 78.3991 135.881 78.4098C136.883 78.4445 137.671 78.4638 138.003 78.1312C138.116 78.0188 138.172 77.8652 138.172 77.6666L137.606 75.8666C137.606 75.4605 137.069 75.1341 136.409 75.1341H125.413C124.753 75.1341 124.216 75.4602 124.216 75.8577L123.65 77.6707C123.652 77.8673 123.707 78.0185 123.819 78.1312C124.151 78.4638 124.943 78.4421 125.943 78.4098C126.263 78.3988 126.591 78.3902 126.938 78.3902Z" fill="#222222"/>
<path d="M136.653 79.2589C136.402 79.2589 136.137 79.2503 135.857 79.2417C135.552 79.2331 135.226 79.2221 134.888 79.2221H126.939C126.601 79.2221 126.275 79.2331 125.97 79.2417C124.777 79.276 123.838 79.3087 123.261 78.7297C123.071 78.5394 122.848 78.2024 122.848 77.6667C122.848 77.5825 122.86 77.498 122.885 77.4183L123.422 75.7028C123.516 74.8947 124.341 74.3027 125.414 74.3027H136.41C137.484 74.3027 138.309 74.8947 138.403 75.7028L138.94 77.4183C138.965 77.4984 138.977 77.5825 138.977 77.6667C138.977 78.2027 138.754 78.5398 138.564 78.7297C138.123 79.1726 137.469 79.2589 136.653 79.2589ZM125.414 75.9141C125.136 75.9141 124.955 76.0048 124.913 76.046L124.436 77.6798C124.622 77.6712 125.368 77.6472 125.924 77.63C126.243 77.6214 126.586 77.6104 126.938 77.6104H134.887C135.24 77.6104 135.583 77.621 135.902 77.63C136.404 77.6472 137.047 77.6688 137.358 77.6018L136.89 76.1065C136.867 76.0354 136.855 75.9619 136.852 75.8883C136.844 75.99 136.665 75.9165 136.41 75.9141H125.414Z" fill="#222222"/>
<path fill-rule="evenodd" clip-rule="evenodd" d="M120.483 81.8394L121.294 78.8053C121.294 78.1082 122.077 77.545 123.043 77.545H138.785C139.751 77.545 140.535 78.1082 140.535 78.8053L141.346 81.8394C141.346 83.5814 139.223 83.1021 136.604 83.1021H125.225C122.606 83.1021 120.483 83.5814 120.483 81.8394Z" fill="white"/>
<path d="M139.126 83.9693C138.769 83.9693 138.389 83.9565 137.988 83.9411C137.549 83.926 137.086 83.9088 136.603 83.9088H125.225C124.743 83.9088 124.279 83.926 123.841 83.9411C122.251 84.0019 120.998 84.0428 120.246 83.2907C119.885 82.9299 119.703 82.4414 119.703 81.8384C119.703 81.7649 119.711 81.6938 119.73 81.6223L120.52 78.6792C120.597 77.5815 121.677 76.739 123.043 76.739H138.784C140.15 76.739 141.232 77.5815 141.309 78.6792L142.097 81.6244C142.116 81.6934 142.124 81.7645 142.124 81.838C142.124 82.441 141.942 82.9293 141.581 83.2904C141.018 83.8528 140.177 83.9693 139.126 83.9693ZM121.265 81.9339C121.271 82.0119 121.29 82.0916 121.33 82.1308C121.605 82.4074 122.81 82.3685 123.788 82.3294C124.241 82.3143 124.724 82.2971 125.224 82.2971H136.603C137.104 82.2971 137.586 82.3143 138.039 82.3294C139.017 82.3682 140.22 82.4074 140.495 82.1308C140.535 82.092 140.554 82.0119 140.56 81.9339L139.781 79.019C139.762 78.9499 139.754 78.8785 139.754 78.8049C139.754 78.6733 139.414 78.3514 138.783 78.3514H123.041C122.413 78.3514 122.072 78.6733 122.072 78.8049C122.072 78.8785 122.064 78.9499 122.045 79.0211L121.265 81.9339Z" fill="#222222"/>
<path fill-rule="evenodd" clip-rule="evenodd" d="M133.187 104.471C132.485 106.229 131.11 107.912 131.11 107.912L136.255 120.525H124.853C123.391 114.868 121.962 109.372 121.548 107.912C120.618 104.623 120.427 97.4716 120.405 95.4386C120.383 93.4084 120.717 91.7846 120.717 91.7846C120.717 91.7846 119.834 89.627 120.457 87.483C121.081 85.3391 122.952 84.0971 122.952 84.0971C122.952 84.0971 125.426 82.6709 125.757 83.5587C126.09 84.4465 126.583 84.7306 126.069 85.3322C125.555 85.9342 122.955 87.281 123.004 87.9668C123.052 88.6526 123.108 88.934 123.108 88.934C123.108 88.934 127.933 85.0323 129.447 88.8274C130.962 92.6199 131.325 98.2796 130.226 98.718C129.127 99.1588 126.173 99.7402 126.173 99.7402L124.978 102.32L133.967 101.836C133.966 101.836 133.89 102.713 133.187 104.471Z" fill="white"/>
<path fill-rule="evenodd" clip-rule="evenodd" d="M125.185 100.996H137.669L137.623 101.457C137.623 102.154 137.078 102.719 136.404 102.719H125.424C125.342 102.719 125.262 102.71 125.185 102.695L125.185 100.996Z" fill="#222222"/>
<path fill-rule="evenodd" clip-rule="evenodd" d="M132.829 106.74C132.654 107.13 131.877 108.302 131.998 108.62C132.64 110.287 133.482 111.99 134.233 113.728C135.19 115.944 136.191 118.252 137.169 120.525H135.433C134.049 117.266 132.633 113.902 131.219 110.609C130.895 109.851 130.281 109.081 130.388 108.243C130.452 107.744 130.932 107.071 131.219 106.469C131.775 105.309 132.208 104.164 132.674 102.708C132.944 101.864 132.993 101.098 133.817 101.203C135.141 101.371 133.793 104.182 133.557 104.857C133.373 105.386 133.119 106.097 132.829 106.74Z" fill="#222222"/>
<path fill-rule="evenodd" clip-rule="evenodd" d="M131.635 98.4614C131.829 96.6539 131.59 94.4917 131.271 92.3863C130.963 90.3513 130.512 88.3599 129.609 87.549C128.945 86.954 127.497 86.7698 126.491 87.0652C126.463 86.856 126.657 86.688 126.751 86.4746C127.07 85.7387 127.121 84.4558 126.855 83.6247C126.373 82.1236 124.351 82.7891 123.061 83.2498C122.084 83.5972 121.193 84.0517 120.672 84.6465C119.636 85.8277 119.578 88.755 119.684 91.0965C119.709 91.6414 119.822 92.1454 119.788 92.7089C119.548 96.8514 119.866 101.242 120.307 104.966C120.446 106.133 120.479 107.269 120.724 108.297C120.965 109.313 121.297 110.246 121.554 111.2C122.409 114.35 123.241 117.443 124.068 120.525H125.646C124.752 117.168 123.855 113.805 122.957 110.5C122.63 109.294 122.215 107.955 122.022 106.469C121.931 105.763 121.844 104.995 121.763 104.266C121.676 103.494 121.472 102.67 121.503 102.009C121.54 101.214 122.194 100.148 122.646 99.4808C124.196 97.1939 126.494 96.0176 130.023 95.988C130.064 95.9994 130.084 96.0333 130.076 96.0945C130.164 96.8098 130.134 97.6842 130.076 98.4064C129.286 98.5635 128.645 98.6518 127.894 98.7834C126.936 98.9514 125.618 98.8696 125.192 99.5351C124.833 100.096 124.594 100.909 124.205 101.793C123.917 102.447 123.308 103.707 124.257 103.944C125.471 104.246 125.903 101.261 126.387 100.609C126.428 100.598 126.489 100.609 126.49 100.557C128.212 100.212 129.197 100.448 130.543 99.9124C131.071 99.7014 131.551 99.2359 131.635 98.4614ZM122.594 88.7323C122.415 88.9323 122.124 89.1068 121.867 89.3229C121.636 89.5181 121.374 89.8857 121.192 89.8067C121.373 88.1259 121.055 86.62 121.815 85.7208C122.437 84.9873 124.218 84.4877 125.452 84.3242C126.068 87.4171 122.326 85.9998 122.594 88.7323ZM129.297 90.4512C126.421 90.5965 123.952 91.3871 122.127 92.5474C121.851 92.7223 121.536 92.9878 121.347 92.9243C121.41 92.6632 121.44 92.2248 121.608 91.9021C122.395 90.3918 125.584 88.3547 127.79 88.5162C128.896 88.5983 129.024 89.484 129.297 90.4512ZM129.972 94.3213C125.762 94.3914 122.976 95.9358 121.243 98.5679C121.261 97.7437 121.152 97.051 121.192 96.2038C122.298 93.0652 125.921 92.5316 129.609 92.0637C129.861 92.6818 129.855 93.5651 129.972 94.3213Z" fill="#222222"/>
<path fill-rule="evenodd" clip-rule="evenodd" d="M221.953 165.692C221.953 165.692 229.431 160.072 231.513 149.404C234.28 135.233 227.136 99.0795 223.311 99.3224C218.839 99.6086 208.771 133.607 210.625 149.834C211.915 161.127 218.938 165.801 218.938 165.801L221.953 165.692Z" fill="white"/>
<path d="M218.937 166.606C218.793 166.606 218.649 166.565 218.517 166.479C218.218 166.28 211.17 161.466 209.85 149.927C208.194 135.42 216.101 106.195 221.153 99.9353C221.888 99.0255 222.577 98.561 223.264 98.5177C223.812 98.4744 224.342 98.7686 224.845 99.3671C228.901 104.188 234.883 136.219 232.278 149.564C230.161 160.414 222.726 166.107 222.41 166.345C222.063 166.606 221.577 166.527 221.322 166.168C221.069 165.807 221.147 165.303 221.493 165.04C221.566 164.986 228.757 159.457 230.749 149.245C233.632 134.491 226.268 100.947 223.327 100.126C223.325 100.13 222.993 100.173 222.35 100.968C217.444 107.049 209.779 135.55 211.4 149.737C212.628 160.487 219.294 165.079 219.363 165.124C219.723 165.366 219.827 165.863 219.593 166.237C219.444 166.477 219.194 166.606 218.937 166.606Z" fill="#222222"/>
<path d="M217.194 218.381C216.689 218.334 216.375 217.938 216.419 217.495C216.461 217.063 220.579 173.893 220.782 146.565C220.876 133.711 221.369 115.526 221.588 114.784C221.713 114.359 222.15 114.121 222.561 114.248C222.973 114.378 223.205 114.83 223.079 115.256C222.95 116.152 222.443 132.633 222.34 146.578C222.138 173.979 218.011 217.221 217.969 217.655C217.929 218.07 217.591 218.381 217.194 218.381Z" fill="#222222"/>
<path fill-rule="evenodd" clip-rule="evenodd" d="M211.805 188.894C211.805 188.894 219.291 183.334 218.945 172.458C218.32 152.715 199.783 136.97 197.532 139.082C193.842 142.545 195.964 163.63 198.577 175.737C199.991 182.294 202.576 186.125 204.877 187.542C207.254 189.007 210.4 189.414 210.4 189.414L211.805 188.894Z" fill="white"/>
<path d="M210.4 190.22C210.168 190.196 206.964 189.768 204.477 188.236C201.543 186.427 199.116 181.935 197.817 175.913C195.427 164.841 192.735 142.496 197.006 138.486C197.572 137.952 198.483 137.954 199.709 138.492C204.999 140.811 219.164 154.757 219.723 172.432C220.08 183.607 212.578 189.31 212.259 189.548C211.908 189.802 211.43 189.727 211.179 189.372C211.181 189.42 211.179 189.465 211.173 189.513C211.124 189.921 210.788 190.22 210.4 190.22ZM198.115 139.696C195.078 142.475 196.323 161.593 199.337 175.563C201.097 183.724 204.326 186.265 205.274 186.849C207.478 188.208 210.466 188.61 210.496 188.614C210.717 188.642 210.903 188.763 211.026 188.934C211.014 188.67 211.127 188.404 211.348 188.238C211.419 188.184 218.493 182.776 218.165 172.484C217.71 158.106 207.472 145.647 201.123 141.17C199.389 139.947 198.443 139.696 198.115 139.696Z" fill="#222222"/>
<path d="M214.833 229.608C214.376 229.593 214.04 229.22 214.054 228.775C214.059 228.625 214.497 213.526 210.736 186.533C209.015 174.18 205.909 163.374 201.241 153.495C201.051 153.095 201.212 152.611 201.598 152.417C201.987 152.22 202.455 152.386 202.64 152.786C207.381 162.819 210.533 173.783 212.277 186.304C216.061 213.455 215.616 228.68 215.612 228.831C215.598 229.265 215.251 229.608 214.833 229.608Z" fill="#222222"/>
<path fill-rule="evenodd" clip-rule="evenodd" d="M227.705 191.204C227.705 191.204 232.941 192.863 240.838 178.953C247.916 166.487 246.553 134.133 244.918 133.489C243.284 132.846 231.295 143.456 224.419 164.169C216.817 187.065 225.533 190.215 225.533 190.215L227.705 191.204Z" fill="white"/>
<path d="M228.331 192.084C227.88 192.084 227.59 192.009 227.477 191.974C227.065 191.842 226.833 191.392 226.959 190.967C227.082 190.546 227.512 190.304 227.917 190.427C228.02 190.455 232.84 191.449 240.164 178.545C246.76 166.93 245.776 137.535 244.506 134.266C242.387 134.834 231.574 145.096 225.156 164.43C217.957 186.116 225.718 189.427 225.798 189.457C226.196 189.612 226.405 190.075 226.261 190.49C226.115 190.9 225.676 191.118 225.275 190.976C224.889 190.838 215.916 187.292 223.682 163.908C230.093 144.588 240.599 134.454 243.7 132.948C244.322 132.647 244.801 132.579 245.193 132.734C245.638 132.909 245.843 133.369 245.97 133.75C247.493 138.237 248.23 167.525 241.509 179.361C235.052 190.736 230.244 192.084 228.331 192.084Z" fill="#222222"/>
<path d="M220.876 228.237C220.823 228.237 220.771 228.232 220.717 228.219C220.295 228.129 220.025 227.703 220.113 227.266C220.163 227.016 225.182 202.037 228.223 189.45C231.268 176.844 237.736 157.456 237.801 157.261C237.943 156.842 238.386 156.611 238.793 156.762C239.2 156.909 239.416 157.367 239.276 157.788C239.211 157.983 232.763 177.304 229.735 189.839C226.703 202.398 221.688 227.344 221.638 227.595C221.562 227.975 221.239 228.237 220.876 228.237Z" fill="#222222"/>
<path fill-rule="evenodd" clip-rule="evenodd" d="M234.317 214.809L230.85 237.043C230.85 238.23 230.105 239.193 229.186 239.193H204.927C204.007 239.193 203.261 238.23 203.261 237.043L199.865 214.809C199.865 213.621 200.796 212.658 201.944 212.658H232.238C233.386 212.658 234.317 213.621 234.317 214.809Z" fill="white"/>
<path d="M229.185 240H204.927C203.578 240 202.481 238.673 202.481 237.042L199.094 214.935C199.085 213.178 200.368 211.851 201.942 211.851H232.236C233.813 211.851 235.096 213.178 235.096 214.81C235.096 214.853 235.094 214.896 235.085 214.937L231.618 237.169C231.629 238.673 230.532 240 229.185 240ZM201.942 213.463C201.226 213.463 200.643 214.068 200.643 214.809L204.031 236.916C204.039 237.772 204.446 238.388 204.927 238.388H229.185C229.665 238.388 230.071 237.772 230.071 237.042L233.536 214.754C233.506 214.036 232.936 213.463 232.236 213.463H201.942V213.463Z" fill="#222222"/>
<path fill-rule="evenodd" clip-rule="evenodd" d="M236.362 209.74L238.511 215.692C238.511 216.88 237.579 217.843 236.43 217.843H197.543C196.394 217.843 195.463 216.88 195.463 215.692L197.612 209.74C197.612 208.55 198.45 207.587 199.484 207.587H234.49C235.524 207.587 236.362 208.55 236.362 209.74Z" fill="white"/>
<path d="M236.429 218.649H197.541C195.964 218.649 194.682 217.323 194.682 215.693C194.682 215.596 194.698 215.501 194.729 215.41L196.835 209.585C196.906 208.025 198.067 206.78 199.483 206.78H234.489C235.903 206.78 237.064 208.025 237.135 209.585L239.24 215.41C239.272 215.501 239.288 215.596 239.288 215.693C239.288 217.323 238.006 218.649 236.429 218.649ZM196.246 215.823C196.309 216.503 196.866 217.037 197.541 217.037H236.429C237.104 217.037 237.661 216.503 237.724 215.823L235.629 210.023C235.598 209.932 235.581 209.837 235.581 209.74C235.581 208.997 235.09 208.392 234.489 208.392H199.483C198.88 208.392 198.389 208.997 198.389 209.74C198.389 209.837 198.372 209.932 198.341 210.023L196.246 215.823Z" fill="#222222"/>
</svg>
