<svg width="200" height="160" viewBox="0 0 200 160" fill="none" xmlns="http://www.w3.org/2000/svg">
<rect width="200" height="160" />
<path d="M92.0617 137.898L91.5147 129.563C91.5147 129.563 74.9628 134.103 67.538 132.024C61.7965 130.417 61.0427 124.795 62.0882 122.19C62.5819 120.96 62.2379 119.555 61.2073 118.72L59.2647 117.148C58.9935 116.928 58.833 116.589 58.8664 116.242C58.9899 114.964 60.669 113.611 61.515 112.78C61.515 112.78 58.6472 111.511 57.9447 109.679C57.7526 109.178 57.8535 108.61 58.1935 108.194L59.8399 106.182C60.0452 105.931 60.593 102.441 60.5374 102.759C60.6348 102.201 60.2557 101.67 59.695 101.591C57.6834 101.311 55.0004 100.654 53.2287 100.337C51.2261 99.9067 49.0748 96.8137 50.418 94.0939L60.1667 81.8497C60.6403 81.2182 60.9039 80.4542 60.9203 79.665L60.9208 79.6443C60.9442 78.5181 60.649 77.4158 60.1167 76.4231C56.8491 70.329 58.0174 66.2346 58.5488 63.513C70.4457 2.58795 160.471 9.35556 148.991 80.7322C147.446 90.336 139.295 95.4364 139.415 108.573C139.566 125.095 142.33 137.168 142.33 137.168" fill="white"/>
<path d="M92.0617 137.898L91.5147 129.563C91.5147 129.563 74.9628 134.103 67.538 132.024C61.7965 130.417 61.0427 124.795 62.0882 122.19C62.5819 120.96 62.2379 119.555 61.2073 118.72L59.2647 117.148C58.9935 116.928 58.833 116.589 58.8664 116.242C58.9899 114.964 60.669 113.611 61.515 112.78C61.515 112.78 58.6472 111.511 57.9447 109.679C57.7526 109.178 57.8535 108.61 58.1935 108.194L59.8399 106.182C60.0452 105.931 60.593 102.441 60.5374 102.759C60.6348 102.201 60.2557 101.67 59.695 101.591C57.6834 101.311 55.0004 100.654 53.2287 100.337C51.2261 99.9067 49.0748 96.8137 50.418 94.0939L60.1667 81.8497C60.6403 81.2182 60.9039 80.4542 60.9203 79.665L60.9208 79.6443C60.9442 78.5181 60.649 77.4158 60.1167 76.4231C56.8491 70.329 58.0174 66.2346 58.5488 63.513C70.4457 2.58795 160.471 9.35556 148.991 80.7322C147.446 90.336 139.295 95.4364 139.415 108.573C139.566 125.095 142.33 137.168 142.33 137.168" stroke="#222222" stroke-width="1.93935" stroke-miterlimit="10" stroke-linecap="round" stroke-linejoin="round"/>
<path d="M117.27 104.367C117.27 105.135 117.898 105.763 118.666 105.763H127.115C127.883 105.763 128.511 105.135 128.511 104.367V71.3042C128.511 70.5367 127.883 69.9087 127.115 69.9087H118.666C117.898 69.9087 117.27 70.5367 117.27 71.3042V104.367Z" fill="#F44817" stroke="#222222" stroke-width="1.93935" stroke-miterlimit="10" stroke-linecap="round" stroke-linejoin="round"/>
<path d="M78.5137 104.367C78.5137 105.135 79.1419 105.763 79.9097 105.763H88.3489C89.1167 105.763 89.7449 105.135 89.7449 104.367V77.9428C89.7449 77.1753 89.1167 76.5474 88.3489 76.5474H79.9097C79.1419 76.5474 78.5139 77.1753 78.5139 77.9428L78.5137 104.367Z" fill="#F44817" stroke="#222222" stroke-width="1.93935" stroke-miterlimit="10" stroke-linecap="round" stroke-linejoin="round"/>
<path d="M97.0342 104.367C97.0342 105.135 97.6624 105.763 98.4302 105.763H107.807C108.575 105.763 109.203 105.135 109.203 104.367V63.7719C109.203 63.0044 108.575 62.3765 107.807 62.3765H98.4302C97.6624 62.3765 97.0342 63.0044 97.0342 63.7719V104.367Z" fill="#B8BBFD" stroke="#222222" stroke-width="1.93935" stroke-miterlimit="10" stroke-linecap="round" stroke-linejoin="round"/>
<path d="M81.3018 61.7914L102.925 47.376L124.219 55.167" stroke="#222222" stroke-width="1.93935" stroke-miterlimit="10" stroke-linecap="round" stroke-linejoin="round"/>
<path d="M86.4116 61.7946C86.417 58.9713 84.1319 56.6782 81.3077 56.6728C78.4836 56.6675 76.1899 58.9519 76.1845 61.7752C76.1792 64.5985 78.4642 66.8916 81.2883 66.8969C84.1124 66.9023 86.4062 64.6179 86.4116 61.7946Z" fill="white" stroke="#222222" stroke-width="1.93935" stroke-miterlimit="10" stroke-linecap="round" stroke-linejoin="round"/>
<path d="M108.027 47.3703C108.032 44.547 105.747 42.2539 102.923 42.2485C100.099 42.2431 97.8051 44.5275 97.7998 47.3508C97.7944 50.1741 100.079 52.4672 102.904 52.4726C105.728 52.478 108.021 50.1936 108.027 47.3703Z" fill="white" stroke="#222222" stroke-width="1.93935" stroke-miterlimit="10" stroke-linecap="round" stroke-linejoin="round"/>
<path d="M129.321 55.1613C129.326 52.338 127.041 50.0449 124.217 50.0395C121.393 50.0342 119.099 52.3185 119.094 55.1419C119.088 57.9652 121.373 60.2583 124.197 60.2636C127.022 60.269 129.315 57.9846 129.321 55.1613Z" fill="white" stroke="#222222" stroke-width="1.93935" stroke-miterlimit="10" stroke-linecap="round" stroke-linejoin="round"/>
</svg>
