<svg width="666" height="666" viewBox="0 0 666 666" fill="none" xmlns="http://www.w3.org/2000/svg">
<path d="M338.57 386.84H100.059C79.7405 386.84 63.208 370.15 63.208 349.634V210.059C63.208 189.548 79.7405 172.858 100.059 172.858H338.57C358.891 172.858 375.423 189.548 375.423 210.059V349.634C375.423 370.15 358.891 386.84 338.57 386.84ZM100.059 176.781C81.8823 176.781 67.0947 191.711 67.0947 210.058V349.633C67.0947 367.986 81.8823 382.916 100.059 382.916H338.57C356.749 382.916 371.536 367.986 371.536 349.633V210.058C371.536 191.71 356.749 176.781 338.57 176.781H100.059Z" fill="#222222"/>
<path fill-rule="evenodd" clip-rule="evenodd" d="M86.3586 535.889C88.9881 535.889 91.121 538.048 91.121 540.713C91.121 543.377 88.9881 545.54 86.3586 545.54C83.7267 545.54 81.5947 543.376 81.5947 540.713C81.5947 538.048 83.7267 535.889 86.3586 535.889Z" fill="#B8BBFD"/>
<path fill-rule="evenodd" clip-rule="evenodd" d="M70.0447 535.889C72.6741 535.889 74.8061 538.048 74.8061 540.713C74.8061 543.377 72.6741 545.54 70.0447 545.54C67.4152 545.54 65.2832 543.376 65.2832 540.713C65.2832 538.048 67.4152 535.889 70.0447 535.889Z" fill="#B8BBFD"/>
<path fill-rule="evenodd" clip-rule="evenodd" d="M53.7214 535.889C56.3509 535.889 58.4829 538.048 58.4829 540.713C58.4829 543.377 56.3501 545.54 53.7214 545.54C51.092 545.54 48.96 543.376 48.96 540.713C48.96 538.048 51.092 535.889 53.7214 535.889Z" fill="#B8BBFD"/>
<path fill-rule="evenodd" clip-rule="evenodd" d="M53.7214 535.889C56.3509 535.889 58.4829 538.048 58.4829 540.713C58.4829 543.377 56.3501 545.54 53.7214 545.54C51.092 545.54 48.96 543.376 48.96 540.713C48.96 538.048 51.092 535.889 53.7214 535.889Z" fill="#B8BBFD"/>
<path fill-rule="evenodd" clip-rule="evenodd" d="M37.3992 535.889C40.0286 535.889 42.1614 538.048 42.1614 540.713C42.1614 543.377 40.0286 545.54 37.3992 545.54C34.7697 545.54 32.6377 543.376 32.6377 540.713C32.6377 538.048 34.7697 535.889 37.3992 535.889Z" fill="#B8BBFD"/>
<path fill-rule="evenodd" clip-rule="evenodd" d="M21.0837 535.889C23.7157 535.889 25.8485 538.048 25.8485 540.713C25.8485 543.377 23.7157 545.54 21.0837 545.54C18.4543 545.54 16.3223 543.376 16.3223 540.713C16.3223 538.048 18.4551 535.889 21.0837 535.889Z" fill="#B8BBFD"/>
<path fill-rule="evenodd" clip-rule="evenodd" d="M4.76147 535.889C7.3934 535.889 9.52623 538.048 9.52623 540.713C9.52623 543.377 7.39421 545.54 4.76147 545.54C2.13281 545.54 0 543.376 0 540.713C0 538.048 2.13281 535.889 4.76147 535.889Z" fill="#B8BBFD"/>
<path fill-rule="evenodd" clip-rule="evenodd" d="M86.3586 535.889C88.9881 535.889 91.121 538.048 91.121 540.713C91.121 543.377 88.9881 545.54 86.3586 545.54C83.7267 545.54 81.5947 543.376 81.5947 540.713C81.5947 538.048 83.7267 535.889 86.3586 535.889Z" fill="#B8BBFD"/>
<path fill-rule="evenodd" clip-rule="evenodd" d="M70.0447 535.889C72.6741 535.889 74.8061 538.048 74.8061 540.713C74.8061 543.377 72.6741 545.54 70.0447 545.54C67.4152 545.54 65.2832 543.376 65.2832 540.713C65.2832 538.048 67.4152 535.889 70.0447 535.889Z" fill="#B8BBFD"/>
<path fill-rule="evenodd" clip-rule="evenodd" d="M53.7214 535.889C56.3509 535.889 58.4829 538.048 58.4829 540.713C58.4829 543.377 56.3501 545.54 53.7214 545.54C51.092 545.54 48.96 543.376 48.96 540.713C48.96 538.048 51.092 535.889 53.7214 535.889Z" fill="#B8BBFD"/>
<path fill-rule="evenodd" clip-rule="evenodd" d="M53.7214 535.889C56.3509 535.889 58.4829 538.048 58.4829 540.713C58.4829 543.377 56.3501 545.54 53.7214 545.54C51.092 545.54 48.96 543.376 48.96 540.713C48.96 538.048 51.092 535.889 53.7214 535.889Z" fill="#B8BBFD"/>
<path fill-rule="evenodd" clip-rule="evenodd" d="M37.3992 535.889C40.0286 535.889 42.1614 538.048 42.1614 540.713C42.1614 543.377 40.0286 545.54 37.3992 545.54C34.7697 545.54 32.6377 543.376 32.6377 540.713C32.6377 538.048 34.7697 535.889 37.3992 535.889Z" fill="#B8BBFD"/>
<path fill-rule="evenodd" clip-rule="evenodd" d="M21.0837 535.889C23.7157 535.889 25.8485 538.048 25.8485 540.713C25.8485 543.377 23.7157 545.54 21.0837 545.54C18.4543 545.54 16.3223 543.376 16.3223 540.713C16.3223 538.048 18.4551 535.889 21.0837 535.889Z" fill="#B8BBFD"/>
<path fill-rule="evenodd" clip-rule="evenodd" d="M4.76147 535.889C7.3934 535.889 9.52623 538.048 9.52623 540.713C9.52623 543.377 7.39421 545.54 4.76147 545.54C2.13281 545.54 0 543.376 0 540.713C0 538.048 2.13281 535.889 4.76147 535.889Z" fill="#B8BBFD"/>
<path fill-rule="evenodd" clip-rule="evenodd" d="M86.3576 552.439C88.9871 552.439 91.12 554.596 91.12 557.262C91.12 559.926 88.9871 562.084 86.3576 562.084C83.7257 562.084 81.5938 559.926 81.5938 557.262C81.5938 554.596 83.7257 552.439 86.3576 552.439Z" fill="#B8BBFD"/>
<path fill-rule="evenodd" clip-rule="evenodd" d="M70.0447 552.439C72.6741 552.439 74.8061 554.596 74.8061 557.262C74.8061 559.926 72.6741 562.084 70.0447 562.084C67.4152 562.084 65.2832 559.926 65.2832 557.262C65.2832 554.596 67.4152 552.439 70.0447 552.439Z" fill="#B8BBFD"/>
<path fill-rule="evenodd" clip-rule="evenodd" d="M53.7214 552.439C56.3509 552.439 58.4829 554.596 58.4829 557.262C58.4829 559.926 56.3501 562.084 53.7214 562.084C51.092 562.084 48.96 559.926 48.96 557.262C48.96 554.596 51.092 552.439 53.7214 552.439Z" fill="#B8BBFD"/>
<path fill-rule="evenodd" clip-rule="evenodd" d="M53.7214 552.439C56.3509 552.439 58.4829 554.596 58.4829 557.262C58.4829 559.926 56.3501 562.084 53.7214 562.084C51.092 562.084 48.96 559.926 48.96 557.262C48.96 554.596 51.092 552.439 53.7214 552.439Z" fill="#B8BBFD"/>
<path fill-rule="evenodd" clip-rule="evenodd" d="M37.4001 552.439C40.0296 552.439 42.1624 554.596 42.1624 557.262C42.1624 559.926 40.0296 562.084 37.4001 562.084C34.7707 562.084 32.6387 559.926 32.6387 557.262C32.6387 554.596 34.7707 552.439 37.4001 552.439Z" fill="#B8BBFD"/>
<path fill-rule="evenodd" clip-rule="evenodd" d="M21.0837 552.439C23.7157 552.439 25.8485 554.596 25.8485 557.262C25.8485 559.926 23.7157 562.084 21.0837 562.084C18.4543 562.084 16.3223 559.926 16.3223 557.262C16.3223 554.596 18.4551 552.439 21.0837 552.439Z" fill="#B8BBFD"/>
<path fill-rule="evenodd" clip-rule="evenodd" d="M4.76147 552.439C7.3934 552.439 9.52623 554.596 9.52623 557.262C9.52623 559.926 7.39421 562.084 4.76147 562.084C2.13281 562.084 0 559.926 0 557.262C0 554.596 2.13281 552.439 4.76147 552.439Z" fill="#B8BBFD"/>
<path fill-rule="evenodd" clip-rule="evenodd" d="M272.403 24.1059C275.032 24.1059 277.165 26.2649 277.165 28.9295C277.165 31.594 275.032 33.7571 272.403 33.7571C269.771 33.7571 267.639 31.5932 267.639 28.9295C267.639 26.2649 269.771 24.1059 272.403 24.1059Z" fill="#F44817"/>
<path fill-rule="evenodd" clip-rule="evenodd" d="M256.089 24.1059C258.718 24.1059 260.85 26.2649 260.85 28.9295C260.85 31.594 258.718 33.7571 256.089 33.7571C253.459 33.7571 251.327 31.5932 251.327 28.9295C251.327 26.2649 253.459 24.1059 256.089 24.1059Z" fill="#F44817"/>
<path fill-rule="evenodd" clip-rule="evenodd" d="M239.765 24.1059C242.395 24.1059 244.527 26.2649 244.527 28.9295C244.527 31.594 242.394 33.7571 239.765 33.7571C237.136 33.7571 235.004 31.5932 235.004 28.9295C235.004 26.2649 237.136 24.1059 239.765 24.1059Z" fill="#F44817"/>
<path fill-rule="evenodd" clip-rule="evenodd" d="M239.765 24.1059C242.395 24.1059 244.527 26.2649 244.527 28.9295C244.527 31.594 242.394 33.7571 239.765 33.7571C237.136 33.7571 235.004 31.5932 235.004 28.9295C235.004 26.2649 237.136 24.1059 239.765 24.1059Z" fill="#F44817"/>
<path fill-rule="evenodd" clip-rule="evenodd" d="M223.443 24.1059C226.073 24.1059 228.205 26.2649 228.205 28.9295C228.205 31.594 226.073 33.7571 223.443 33.7571C220.814 33.7571 218.682 31.5932 218.682 28.9295C218.682 26.2649 220.814 24.1059 223.443 24.1059Z" fill="#F44817"/>
<path fill-rule="evenodd" clip-rule="evenodd" d="M207.128 24.1059C209.76 24.1059 211.892 26.2649 211.892 28.9295C211.892 31.594 209.76 33.7571 207.128 33.7571C204.498 33.7571 202.366 31.5932 202.366 28.9295C202.366 26.2649 204.499 24.1059 207.128 24.1059Z" fill="#F44817"/>
<path fill-rule="evenodd" clip-rule="evenodd" d="M190.805 24.1059C193.437 24.1059 195.57 26.2649 195.57 28.9294C195.57 31.594 193.438 33.7571 190.805 33.7571C188.177 33.7571 186.044 31.5931 186.044 28.9294C186.044 26.2649 188.177 24.1059 190.805 24.1059Z" fill="#F44817"/>
<path fill-rule="evenodd" clip-rule="evenodd" d="M272.403 24.1059C275.032 24.1059 277.165 26.2649 277.165 28.9295C277.165 31.594 275.032 33.7571 272.403 33.7571C269.771 33.7571 267.639 31.5932 267.639 28.9295C267.639 26.2649 269.771 24.1059 272.403 24.1059Z" fill="#F44817"/>
<path fill-rule="evenodd" clip-rule="evenodd" d="M256.089 24.1059C258.718 24.1059 260.85 26.2649 260.85 28.9295C260.85 31.594 258.718 33.7571 256.089 33.7571C253.459 33.7571 251.327 31.5932 251.327 28.9295C251.327 26.2649 253.459 24.1059 256.089 24.1059Z" fill="#F44817"/>
<path fill-rule="evenodd" clip-rule="evenodd" d="M239.765 24.1059C242.395 24.1059 244.527 26.2649 244.527 28.9295C244.527 31.594 242.394 33.7571 239.765 33.7571C237.136 33.7571 235.004 31.5932 235.004 28.9295C235.004 26.2649 237.136 24.1059 239.765 24.1059Z" fill="#F44817"/>
<path fill-rule="evenodd" clip-rule="evenodd" d="M239.765 24.1059C242.395 24.1059 244.527 26.2649 244.527 28.9295C244.527 31.594 242.394 33.7571 239.765 33.7571C237.136 33.7571 235.004 31.5932 235.004 28.9295C235.004 26.2649 237.136 24.1059 239.765 24.1059Z" fill="#F44817"/>
<path fill-rule="evenodd" clip-rule="evenodd" d="M223.443 24.1059C226.073 24.1059 228.205 26.2649 228.205 28.9295C228.205 31.594 226.073 33.7571 223.443 33.7571C220.814 33.7571 218.682 31.5932 218.682 28.9295C218.682 26.2649 220.814 24.1059 223.443 24.1059Z" fill="#F44817"/>
<path fill-rule="evenodd" clip-rule="evenodd" d="M207.128 24.1059C209.76 24.1059 211.892 26.2649 211.892 28.9295C211.892 31.594 209.76 33.7571 207.128 33.7571C204.498 33.7571 202.366 31.5932 202.366 28.9295C202.366 26.2649 204.499 24.1059 207.128 24.1059Z" fill="#F44817"/>
<path fill-rule="evenodd" clip-rule="evenodd" d="M190.805 24.1059C193.437 24.1059 195.57 26.2649 195.57 28.9294C195.57 31.594 193.438 33.7571 190.805 33.7571C188.177 33.7571 186.044 31.5931 186.044 28.9294C186.044 26.2649 188.177 24.1059 190.805 24.1059Z" fill="#F44817"/>
<path fill-rule="evenodd" clip-rule="evenodd" d="M272.402 40.6556C275.031 40.6556 277.164 42.813 277.164 45.4784C277.164 48.1429 275.031 50.3011 272.402 50.3011C269.77 50.3011 267.638 48.1429 267.638 45.4784C267.638 42.813 269.77 40.6556 272.402 40.6556Z" fill="#F44817"/>
<path fill-rule="evenodd" clip-rule="evenodd" d="M256.089 40.6556C258.718 40.6556 260.85 42.813 260.85 45.4784C260.85 48.1429 258.718 50.3011 256.089 50.3011C253.459 50.3011 251.327 48.1429 251.327 45.4784C251.327 42.813 253.459 40.6556 256.089 40.6556Z" fill="#F44817"/>
<path fill-rule="evenodd" clip-rule="evenodd" d="M239.765 40.6556C242.395 40.6556 244.527 42.813 244.527 45.4784C244.527 48.1429 242.394 50.3011 239.765 50.3011C237.136 50.3011 235.004 48.1429 235.004 45.4784C235.004 42.813 237.136 40.6556 239.765 40.6556Z" fill="#F44817"/>
<path fill-rule="evenodd" clip-rule="evenodd" d="M239.765 40.6556C242.395 40.6556 244.527 42.813 244.527 45.4784C244.527 48.1429 242.394 50.3011 239.765 50.3011C237.136 50.3011 235.004 48.1429 235.004 45.4784C235.004 42.813 237.136 40.6556 239.765 40.6556Z" fill="#F44817"/>
<path fill-rule="evenodd" clip-rule="evenodd" d="M223.443 40.6556C226.073 40.6556 228.205 42.813 228.205 45.4784C228.205 48.1429 226.073 50.3011 223.443 50.3011C220.814 50.3011 218.682 48.1429 218.682 45.4784C218.682 42.813 220.814 40.6556 223.443 40.6556Z" fill="#F44817"/>
<path fill-rule="evenodd" clip-rule="evenodd" d="M207.128 40.6556C209.76 40.6556 211.892 42.813 211.892 45.4784C211.892 48.1429 209.76 50.3011 207.128 50.3011C204.498 50.3011 202.366 48.1429 202.366 45.4784C202.366 42.813 204.499 40.6556 207.128 40.6556Z" fill="#F44817"/>
<path fill-rule="evenodd" clip-rule="evenodd" d="M190.805 40.6556C193.437 40.6556 195.57 42.813 195.57 45.4784C195.57 48.1429 193.438 50.3011 190.805 50.3011C188.177 50.3011 186.044 48.1429 186.044 45.4784C186.044 42.813 188.177 40.6556 190.805 40.6556Z" fill="#F44817"/>
<path fill-rule="evenodd" clip-rule="evenodd" d="M146.732 143.017H385.242C404.523 143.017 420.152 158.798 420.152 178.263V317.833C420.152 337.298 404.522 353.079 385.242 353.079H146.732C127.453 353.079 111.82 337.298 111.82 317.833V178.263C111.82 158.798 127.453 143.017 146.732 143.017Z" fill="white"/>
<path d="M385.242 355.039H146.731C126.41 355.039 109.878 338.348 109.878 317.833V178.262C109.878 157.746 126.41 141.055 146.731 141.055H385.242C405.564 141.055 422.095 157.746 422.095 178.262V317.833C422.095 338.348 405.563 355.039 385.242 355.039ZM146.731 144.979C128.552 144.979 113.765 159.909 113.765 178.262V317.833C113.765 336.186 128.553 351.115 146.731 351.115H385.242C403.421 351.115 418.209 336.186 418.209 317.833V178.262C418.209 159.909 403.42 144.979 385.242 144.979H146.731Z" fill="#222222"/>
<path fill-rule="evenodd" clip-rule="evenodd" d="M298.949 93.5158H560.641C569.893 93.5158 577.396 101.087 577.396 110.43V614.01C577.396 623.354 569.893 630.926 560.641 630.926H298.949C289.693 630.926 282.191 623.354 282.191 614.01V110.43C282.191 101.087 289.693 93.5158 298.949 93.5158Z" fill="white"/>
<path d="M560.639 633.042H298.948C288.552 633.042 280.097 624.508 280.097 614.011V110.432C280.097 99.9352 288.552 91.4013 298.948 91.4013H560.639C571.035 91.4013 579.489 99.9352 579.489 110.432V614.011C579.488 624.507 571.035 633.042 560.639 633.042ZM298.947 95.6294C290.861 95.6294 284.283 102.271 284.283 110.432V614.011C284.283 622.172 290.86 628.813 298.947 628.813H560.638C568.722 628.813 575.3 622.172 575.3 614.011V110.432C575.3 102.271 568.722 95.6294 560.638 95.6294H298.947Z" fill="#222222"/>
<path fill-rule="evenodd" clip-rule="evenodd" d="M313.682 109.307H545.907C555.162 109.307 562.665 116.879 562.665 126.222V578.639C562.665 587.982 555.162 595.559 545.907 595.559H313.682C304.427 595.559 296.925 587.982 296.925 578.639V126.222C296.924 116.879 304.427 109.307 313.682 109.307Z" fill="white"/>
<path d="M545.909 597.674H313.682C303.285 597.674 294.83 589.136 294.83 578.64V126.224C294.83 115.729 303.285 107.195 313.682 107.195H545.909C556.305 107.195 564.758 115.729 564.758 126.224V578.64C564.758 589.136 556.305 597.674 545.909 597.674ZM313.682 111.422C305.595 111.422 299.018 118.062 299.018 126.224V578.639C299.018 586.805 305.595 593.445 313.682 593.445H545.909C553.992 593.445 560.57 586.805 560.57 578.639V126.224C560.57 118.062 553.992 111.422 545.909 111.422H313.682Z" fill="#222222"/>
<path fill-rule="evenodd" clip-rule="evenodd" d="M326.575 122.648H529.057C538.312 122.648 545.814 130.219 545.814 139.563V222.179C545.814 231.522 538.312 239.094 529.057 239.094H326.575C317.32 239.094 309.817 231.522 309.817 222.179V139.563C309.817 130.219 317.32 122.648 326.575 122.648Z" fill="#B8BBFD"/>
<path d="M525.597 325.002H493.062C482.753 325.002 474.363 316.532 474.363 306.125V273.279C474.363 262.867 482.753 254.396 493.062 254.396H525.597C535.911 254.396 544.3 262.867 544.3 273.279V306.125C544.301 316.533 535.911 325.002 525.597 325.002ZM493.062 258.32C484.896 258.32 478.25 265.03 478.25 273.279V306.125C478.25 314.369 484.895 321.079 493.062 321.079H525.597C533.768 321.079 540.414 314.37 540.414 306.125V273.279C540.414 265.03 533.768 258.32 525.597 258.32H493.062Z" fill="#222222"/>
<path d="M443.073 325.002H410.534C400.225 325.002 391.835 316.532 391.835 306.125V273.279C391.835 262.867 400.225 254.396 410.534 254.396H443.073C453.382 254.396 461.772 262.867 461.772 273.279V306.125C461.772 316.533 453.382 325.002 443.073 325.002ZM410.534 258.32C402.368 258.32 395.721 265.03 395.721 273.279V306.125C395.721 314.369 402.367 321.079 410.534 321.079H443.073C451.24 321.079 457.886 314.37 457.886 306.125V273.279C457.886 265.03 451.24 258.32 443.073 258.32H410.534Z" fill="#222222"/>
<path d="M356.492 325.002H323.955C313.643 325.002 305.256 316.532 305.256 306.124V273.279C305.256 262.867 313.643 254.396 323.955 254.396H356.492C366.801 254.396 375.191 262.867 375.191 273.279V306.124C375.191 316.533 366.801 325.002 356.492 325.002ZM323.955 258.32C315.788 258.32 309.142 265.03 309.142 273.279V306.124C309.142 314.369 315.788 321.079 323.955 321.079H356.492C364.658 321.079 371.304 314.37 371.304 306.124V273.279C371.304 265.03 364.659 258.32 356.492 258.32H323.955Z" fill="#222222"/>
<path d="M525.442 499.253H492.907C482.593 499.253 474.203 490.783 474.203 480.376V447.529C474.203 437.117 482.593 428.647 492.907 428.647H525.442C535.75 428.647 544.14 437.117 544.14 447.529V480.376C544.14 490.783 535.75 499.253 525.442 499.253ZM492.907 432.571C484.736 432.571 478.09 439.279 478.09 447.529V480.376C478.09 488.62 484.736 495.33 492.907 495.33H525.442C533.608 495.33 540.255 488.621 540.255 480.376V447.529C540.255 439.28 533.609 432.571 525.442 432.571H492.907Z" fill="#222222"/>
<path d="M442.913 499.253H410.379C400.065 499.253 391.676 490.783 391.676 480.376V447.529C391.676 437.117 400.066 428.647 410.379 428.647H442.913C453.222 428.647 461.612 437.117 461.612 447.529V480.376C461.612 490.783 453.222 499.253 442.913 499.253ZM410.379 432.57C402.208 432.57 395.562 439.279 395.562 447.529V480.376C395.562 488.62 402.208 495.33 410.379 495.33H442.913C451.08 495.33 457.725 488.621 457.725 480.376V447.529C457.725 439.28 451.08 432.57 442.913 432.57H410.379Z" fill="#222222"/>
<path d="M356.332 499.253H323.797C313.486 499.253 305.099 490.783 305.099 480.376V447.529C305.099 437.117 313.486 428.647 323.797 428.647H356.332C366.646 428.647 375.035 437.117 375.035 447.529V480.376C375.035 490.783 366.645 499.253 356.332 499.253ZM323.797 432.57C315.63 432.57 308.985 439.279 308.985 447.529V480.376C308.985 488.62 315.63 495.33 323.797 495.33H356.331C364.502 495.33 371.148 488.621 371.148 480.376V447.529C371.148 439.28 364.502 432.57 356.331 432.57H323.797Z" fill="#222222"/>
<path d="M525.442 581.023H492.907C482.593 581.023 474.203 572.558 474.203 562.15V529.299C474.203 518.887 482.593 510.416 492.907 510.416H525.442C535.75 510.416 544.14 518.887 544.14 529.299V562.15C544.14 572.558 535.75 581.023 525.442 581.023ZM492.907 514.34C484.736 514.34 478.09 521.05 478.09 529.3V562.151C478.09 570.396 484.736 577.1 492.907 577.1H525.442C533.608 577.1 540.255 570.396 540.255 562.151V529.3C540.255 521.051 533.609 514.34 525.442 514.34H492.907Z" fill="#222222"/>
<path d="M442.913 581.023H410.379C400.065 581.023 391.676 572.558 391.676 562.15V529.299C391.676 518.887 400.066 510.416 410.379 510.416H442.913C453.222 510.416 461.612 518.887 461.612 529.299V562.15C461.612 572.558 453.222 581.023 442.913 581.023ZM410.379 514.34C402.208 514.34 395.562 521.05 395.562 529.3V562.151C395.562 570.396 402.208 577.1 410.379 577.1H442.913C451.08 577.1 457.725 570.396 457.725 562.151V529.3C457.725 521.051 451.08 514.34 442.913 514.34H410.379Z" fill="#222222"/>
<path d="M356.332 581.023H323.797C313.486 581.023 305.099 572.558 305.099 562.15V529.299C305.099 518.887 313.486 510.416 323.797 510.416H356.332C366.646 510.416 375.035 518.887 375.035 529.299V562.15C375.035 572.558 366.645 581.023 356.332 581.023ZM323.797 514.34C315.63 514.34 308.985 521.05 308.985 529.3V562.151C308.985 570.396 315.63 577.1 323.797 577.1H356.331C364.502 577.1 371.148 570.396 371.148 562.151V529.3C371.148 521.051 364.502 514.34 356.331 514.34H323.797Z" fill="#222222"/>
<path d="M534.851 407.92H314.495C307.264 407.92 301.384 401.981 301.384 394.677C301.384 387.379 307.264 381.439 314.495 381.439H534.851C542.084 381.439 547.967 387.379 547.967 394.677C547.967 401.981 542.084 407.92 534.851 407.92ZM314.494 385.364C309.408 385.364 305.269 389.543 305.269 394.678C305.269 399.818 309.408 403.996 314.494 403.996H534.85C539.942 403.996 544.081 399.817 544.081 394.678C544.081 389.543 539.942 385.364 534.85 385.364H314.494Z" fill="#222222"/>
<path fill-rule="evenodd" clip-rule="evenodd" d="M420.625 383.403H534.854C541.023 383.403 546.026 388.45 546.026 394.68C546.026 400.909 541.023 405.956 534.854 405.956H420.625C414.455 405.956 409.455 400.909 409.455 394.68C409.456 388.45 414.456 383.403 420.625 383.403Z" fill="#B8BBFD"/>
<path fill-rule="evenodd" clip-rule="evenodd" d="M409.92 383.189C416.515 383.189 421.858 388.587 421.858 395.244C421.858 401.901 416.515 407.299 409.92 407.299C403.326 407.299 397.982 401.901 397.982 395.244C397.982 388.586 403.326 383.189 409.92 383.189Z" fill="white"/>
<path d="M409.92 409.411C402.181 409.411 395.89 403.054 395.89 395.241C395.89 387.428 402.181 381.072 409.92 381.072C417.659 381.072 423.951 387.427 423.951 395.241C423.951 403.054 417.66 409.411 409.92 409.411ZM409.92 385.301C404.494 385.301 400.078 389.759 400.078 395.242C400.078 400.725 404.494 405.184 409.92 405.184C415.347 405.184 419.763 400.725 419.763 395.242C419.763 389.759 415.347 385.301 409.92 385.301Z" fill="#222222"/>
<path d="M534.851 374.068H314.495C307.264 374.068 301.384 368.128 301.384 360.826C301.384 353.523 307.264 347.584 314.495 347.584H534.851C542.084 347.584 547.967 353.523 547.967 360.826C547.967 368.128 542.084 374.068 534.851 374.068ZM314.494 351.508C309.408 351.508 305.269 355.686 305.269 360.826C305.269 365.966 309.408 370.145 314.494 370.145H534.85C539.942 370.145 544.081 365.966 544.081 360.826C544.081 355.685 539.942 351.508 534.85 351.508H314.494Z" fill="#222222"/>
<path fill-rule="evenodd" clip-rule="evenodd" d="M469.78 349.547H534.853C541.022 349.547 546.025 354.6 546.025 360.828C546.025 367.057 541.022 372.105 534.853 372.105H469.78C463.608 372.105 458.607 367.058 458.607 360.828C458.608 354.599 463.609 349.547 469.78 349.547Z" fill="#F44817"/>
<path fill-rule="evenodd" clip-rule="evenodd" d="M464.195 348.773C470.79 348.773 476.137 354.17 476.137 360.828C476.137 367.486 470.79 372.878 464.195 372.878C457.602 372.878 452.257 367.486 452.257 360.828C452.257 354.17 457.602 348.773 464.195 348.773Z" fill="white"/>
<path d="M464.195 374.99C456.456 374.99 450.165 368.64 450.165 360.826C450.165 353.013 456.456 346.656 464.195 346.656C471.935 346.656 478.231 353.013 478.231 360.826C478.23 368.64 471.934 374.99 464.195 374.99ZM464.195 350.884C458.769 350.884 454.353 355.342 454.353 360.826C454.353 366.305 458.769 370.762 464.195 370.762C469.627 370.762 474.043 366.305 474.043 360.826C474.043 355.342 469.627 350.884 464.195 350.884Z" fill="#222222"/>
<path fill-rule="evenodd" clip-rule="evenodd" d="M400.076 335.976C405.099 332.124 412.936 320.79 414.74 317.509C416.543 314.222 419.879 308.426 418.51 304.533C417.139 300.645 405.444 312.554 404.266 313.699C403.088 314.843 398.541 310.882 398.541 310.882C398.541 310.882 405.373 285.428 406.778 281.415C408.183 277.403 406.265 273.927 404.125 273.661C401.985 273.395 388.486 299.6 388.486 299.6C388.486 299.6 390.631 276.023 390.859 273.519C391.09 271.016 381.354 272.239 374.801 276.623C368.248 281.002 365.422 295.796 365.585 305.802C365.745 315.809 364.886 333.012 364.886 333.012L337.375 396.313C337.375 396.313 319.163 363.983 307.212 346.122C295.26 328.261 269.93 327.796 269.93 327.796L275.095 312.851C275.095 312.851 279.583 312.538 286.265 310.735C292.95 308.938 301.069 293.255 301.069 293.255C301.069 293.255 305.939 288.934 306.514 286.206C307.091 283.478 303.023 282.966 303.023 282.966C303.023 282.966 304.431 281.633 303.165 272.389C301.897 263.145 297.159 252.511 297.159 252.511C297.159 252.511 298.492 241.093 297.438 238.836C296.388 236.578 291.463 232.2 284.033 225.443C276.603 218.692 250.091 227.063 239.488 230.664C228.886 234.259 228.875 254.487 228.875 254.487C228.875 254.487 221.132 263.203 219.799 274.647C218.463 286.091 226.895 297.023 235.158 303.268C243.422 309.512 248.844 309.329 248.844 309.329L252.195 311.299L241.582 332.306C241.582 332.306 214.051 350.721 200.806 361.208C187.563 371.697 187.54 397.019 187.54 397.019C187.54 397.019 182.594 624.199 182.012 651.022C181.976 652.705 181.956 653.598 181.956 653.598L321.319 650.217L280.962 519.245L281.102 495.139C281.102 495.139 285.375 497.349 287.386 497.819C289.399 498.29 297.867 496.69 304.981 493.587C312.096 490.483 364.748 460.457 364.748 460.457C364.748 460.457 364.811 460.808 372.709 458.482C380.605 456.161 384.717 443.965 384.717 443.965L389.327 444.248C389.327 444.248 389.544 446.735 392.538 448.052C395.53 449.375 398.881 447.906 404.547 438.464C410.212 429.026 404.408 419.291 404.408 419.291C404.408 419.291 409.48 410.773 410.551 408.719C411.622 406.666 409.824 406.697 406.64 405.474C403.457 404.256 396.306 409.707 396.306 409.707C396.306 409.707 395.646 410.13 393.794 408.578C391.941 407.026 386.951 404.91 386.951 404.91C386.951 404.91 390.836 397.406 392.259 395.044C393.68 392.682 403.134 387.467 403.429 385.879C403.724 384.29 397.883 382.32 391.978 383.485C386.074 384.651 373.406 405.475 373.406 405.475L391.002 343.165C391 343.166 395.055 339.827 400.076 335.976ZM298.696 453.691L288.781 436.635L294.366 406.181L327.74 443.684L298.696 453.691Z" fill="white"/>
<path fill-rule="evenodd" clip-rule="evenodd" d="M250.27 287.859C250.27 287.859 256.955 296.345 258.37 293.215C259.786 290.084 262.526 287.362 260.324 282.92C258.124 278.484 248.481 262.128 254.739 257.686C260.997 253.244 268.74 252.387 275.407 250.778C282.073 249.169 285.909 251.499 287.415 246.973C288.924 242.443 287.141 238.66 289.372 241.33C291.603 244.005 296.075 250.213 296.075 250.213C296.075 250.213 301.965 244.015 297.47 238.513C292.977 233.011 291.593 230.909 288.954 228.506C286.314 226.097 283.221 218.4 274.289 220.469C265.359 222.539 236.266 226.918 233.096 235.832C229.926 244.753 230.164 253.6 230.164 253.6C230.164 253.6 216.3 267.159 221.225 278.551C226.15 289.943 235.532 303.885 241.194 306.325C246.857 308.765 253.205 310.27 253.205 310.27L252.228 304.773L249.714 301.951C249.714 301.951 241.637 301.13 239.52 295.748C237.403 290.371 238.717 287.779 241.334 287.576C243.953 287.367 250.27 287.859 250.27 287.859Z" fill="#222222"/>
<path fill-rule="evenodd" clip-rule="evenodd" d="M242.182 513.576L279.464 505.397L280.582 517.385L325.58 652.345L183.529 644.266L242.182 513.576Z" fill="#222222"/>
<path fill-rule="evenodd" clip-rule="evenodd" d="M289.566 436.457L299.341 452.525L307.858 451.543C307.858 451.543 298.355 458.315 303.389 471.986C308.425 485.651 314.701 489.042 314.701 489.042C314.701 489.042 301.587 498.056 294.872 497.079C288.156 496.102 282.724 491.581 282.724 491.581L283.143 502.858L191.816 522.736C191.816 522.736 181.824 412.739 188.045 385.984C194.266 359.235 201.42 361.941 206.62 356.946C211.816 351.945 221.559 344.822 221.559 344.822C221.559 344.822 235.278 353.873 248.092 355.817C260.907 357.755 276.609 351.197 278.954 343.411C281.298 335.62 282.725 330.299 282.725 330.299C282.725 330.299 298.731 328.267 308.419 344.257C318.106 360.242 339.141 396.842 339.141 396.842L346.819 382.32C346.819 382.32 354.019 389.15 362.738 393.879C371.46 398.608 376.702 398.253 376.702 398.253L375.448 404.879L352.407 437.585L330.482 443.788L294.873 402.621L289.566 436.457Z" fill="white"/>
<path fill-rule="evenodd" clip-rule="evenodd" d="M301.986 259.04C303.691 257.676 306.605 257.508 306.595 260.022C306.585 262.155 304.455 262.087 303.383 263.409C304.756 268.456 305.464 274.179 305.477 280.606C306.768 281.787 309.222 281.511 309.387 283.565C309.703 287.535 304.962 285.038 302.964 284.129C298.306 282.017 294.453 278.824 293.888 272.993C293.369 267.61 295.526 264.057 298.494 261.575C296.046 254.933 293.29 248.6 289.141 243.672C288.054 246.943 287.301 249.776 284.393 251.286C280.047 253.543 273.497 253.591 267.359 255.372C265.068 256.041 261.909 256.825 259.401 258.053C257.095 259.181 254.204 261.178 253.956 263.126C253.725 264.919 255.01 267.454 255.63 269.189C256.368 271.242 257.084 273.061 257.727 274.686C259.238 278.532 261.402 282.373 262.054 285.681C262.762 289.276 260.175 295.023 256.888 295.546C255.605 295.75 254.79 294.831 253.677 294.705C252.701 294.59 250.043 295.311 248.512 295.546C247.178 295.756 244.456 296.309 244.321 294.276C244.124 291.261 248.677 292.578 250.744 291.601C249.002 291.105 245.899 289.986 243.485 290.613C242.175 290.953 240.915 293.012 241.109 294.84C241.298 296.596 243.95 299.188 245.579 299.779C247.072 300.316 248.865 299.502 250.465 300.056C251.58 300.447 252.33 302.355 253.117 303.724C253.883 305.057 255.162 306.446 255.211 307.81C255.278 309.582 253.342 312.806 252.561 314.578C250.508 319.213 248.914 322.85 246.834 327.547C245.959 329.528 245.188 332.251 243.902 333.891C242.931 335.129 240.719 335.997 239.296 336.849C234.63 339.64 229.818 342.603 225.333 345.309C232.719 349.474 241.529 353.884 252.419 354.187C257.878 354.339 262.82 352.829 266.801 350.524C273.061 346.898 277.766 341.63 277.693 331.493C275.714 330.954 273.333 330.818 271.27 330.364C269.484 332.188 270.051 337.471 266.661 337.273C265.864 337.226 264.956 336.468 264.707 335.58C264.234 333.892 265.782 331.582 266.524 329.658C268.608 324.26 271.53 317.3 273.364 312.743C271.47 312.179 268.683 311.802 266.106 311.056C264.532 310.596 260.63 309.943 260.521 307.811C260.309 303.74 266.002 306.614 267.78 307.106C273.891 308.804 280.663 310.048 287.187 307.247C292.71 304.88 295.976 300.778 298.357 295.265C298.965 293.865 300.239 288.738 302.966 291.179C304.667 292.7 301.496 298.562 300.733 300.057C298.958 303.543 297.387 305.026 295.425 306.824C291.532 310.404 285.886 313.477 277.834 313.027C276.041 317.187 274.527 321.628 272.806 325.856C282.79 327.679 292.029 328.573 298.915 332.623C305.706 336.616 310.683 342.787 314.695 349.679C322.612 363.291 330.341 378.368 337.733 392.393C346.188 377.035 353.414 357.998 360.492 340.513C361.506 338.01 363.199 335.288 363.564 333.045C363.978 330.496 363.535 327.031 363.564 324.444C363.649 316.417 363.106 306.849 364.261 298.509C364.972 293.383 366.563 288.57 368.171 284.27C369.78 279.964 371.479 275.502 375.29 273.276C377.751 271.844 383.245 270.209 386.881 269.895C389.426 269.671 392.324 270.172 392.884 271.725C393.313 272.915 392.795 274.735 392.607 276.381C392.068 281.036 391.568 285.881 390.93 290.333C393.849 286.079 396.783 280.749 400.145 275.958C401.14 274.537 402.428 272.289 404.053 272.007C406.843 271.532 409.499 274.552 409.638 277.223C409.779 279.83 408.226 282.647 407.264 285.119C404.913 291.185 402.86 297.415 401.26 304.714C400.953 306.12 400.331 308.148 400.564 309.083C400.839 310.19 402.257 310.342 403.077 310.917C406.786 308.722 410.422 303.784 414.387 301.469C416.338 300.33 420.409 299.358 421.506 301.751C422.438 303.778 421.072 307.212 420.391 309.224C418.165 315.772 413.898 321.185 410.337 326.139C405.037 333.517 398.829 339.182 391.908 343.618C387.61 360.517 383.099 377.203 378.642 393.94C381.305 391.416 382.959 387.236 386.184 384.215C390.056 380.589 398.158 377.594 403.634 381.112C404.775 381.849 405.919 383.457 405.73 385.203C405.492 387.398 402.19 388.987 400.425 390.277C398.452 391.72 396.18 393.088 394.7 394.787C392.319 397.514 391.956 400.844 389.672 403.67C392.772 404.015 394.84 405.405 396.934 406.77C399.342 405.363 401.225 402.281 405.45 402.542C408.378 402.72 413.126 404.742 412.713 408.322C412.456 410.506 410.083 411.186 408.941 412.832C407.402 415.047 407.228 417.101 406.01 419.034C407.214 423.261 408.671 427.144 408.663 432.004C408.65 439.022 403.852 443.683 399.447 447.085C397.892 448.286 395.829 449.818 394.281 449.906C391.018 450.084 389.109 447.492 388.417 444.686C384.664 451.803 381.491 459.187 372.358 460.76C371.036 460.984 369.413 460.686 367.612 461.042C366.282 461.303 364.131 462.798 362.447 463.717C350.751 470.113 339.092 476.546 327.4 482.89C320.863 486.438 313.989 490.294 307.014 493.461C300.617 496.366 292.695 502.313 284.116 496.706C283.775 502.438 283.912 507.585 283.697 513.339C283.63 515.167 283.316 517.054 283.557 518.836C283.878 521.203 285.225 523.9 286.073 526.445C292.003 544.279 297.885 561.822 303.806 579.588C302.299 579.771 300.966 580.847 299.756 580.859C293.886 562.757 287.954 545.273 281.883 527.009C281.034 524.453 279.696 521.783 279.37 519.395C278.84 515.503 279.991 511.364 279.649 507.701C271.699 509.206 262.933 511.233 254.517 513.198C252.601 513.642 247.048 515.707 246.976 512.493C246.916 509.723 251.577 509.536 254.098 508.966C262.496 507.069 271.91 504.994 279.789 503.186C279.701 500.093 280.033 497.418 279.929 494.308C270.708 487.646 262.682 480.094 255.214 471.049C254.099 469.695 252.615 468.149 252.7 466.822C252.773 465.688 253.612 465.056 254.518 464.988C256.203 464.857 257.558 467.187 258.845 468.792C265.283 476.818 271.308 482.425 279.649 488.67C283.106 491.257 286.991 494.753 291.937 494.873C295.229 494.952 298.102 493.399 300.591 492.052C303.218 490.636 305.224 489.496 308.133 488.247C307.597 487.066 306.502 486.277 305.62 485.284C302.869 482.196 300.894 478.972 299.756 474.007C298.294 467.643 298.343 459.736 301.849 455.263C300.552 455.775 298.904 456.199 297.102 456.81C295.122 457.484 290.953 459.366 290.819 456.104C290.711 453.456 294.272 453.732 296.125 452.724C286.076 435.025 275.558 417.091 264.708 399.298C259.431 390.645 253.888 381.651 246.419 375.056C240.967 370.239 234.393 366.178 226.45 363.216C224.405 362.448 219.781 361.726 219.89 359.265C220.037 355.864 224.359 358.022 227.01 358.983C242.328 364.565 253.242 373.709 261.497 386.334C271.142 401.075 279.323 415.974 288.166 430.454C290.257 414.954 292.835 397.872 295.006 381.684C295.371 378.976 295.322 375.591 298.217 376.604C300.06 377.253 299.341 380.653 299.056 382.666C298.117 389.349 297.049 396.91 296.125 402.967C307.623 415.838 319.16 428.671 330.752 441.447C335.589 439.928 340.232 438.265 345.274 436.656C346.817 436.164 348.829 435.893 350.02 435.104C350.856 434.55 351.875 432.669 352.812 431.3C357.386 424.621 361.628 418.346 366.218 411.703C368.982 407.706 372.013 404.915 372.919 399.58C361.603 397.286 352.693 392.562 346.251 385.346C344.171 389.165 342.261 393.158 340.108 396.905C340.6 398.039 341.638 399.685 342.482 401.273C343.39 402.977 345.618 407.58 341.783 407.194C340.16 407.032 339.135 404.111 338.151 402.261C331.428 389.614 324.326 376.227 317.489 363.922C313.327 356.428 309.39 349.19 304.363 343.338C299.013 337.114 291.811 333.499 281.884 332.203C281.759 340.516 278.998 345.266 274.764 349.542C270.724 353.617 265.419 356.684 258.846 357.855C243.569 360.582 231.185 353.064 221.286 347.99C212.855 353.251 205.5 357.865 199.506 365.892C195.352 371.457 192.842 378.736 190.709 387.035C189.984 389.861 189.814 393.881 187.497 393.942C185.335 394.005 185.251 391.884 185.962 389.009C187.455 382.974 189.13 376.933 191.267 371.812C197.142 357.74 209.569 350.241 221.844 342.35C226.293 339.492 230.768 336.618 235.667 333.614C237.008 332.788 239.355 331.884 240.276 330.792C241.226 329.668 241.917 327.307 242.649 325.718C244.934 320.759 247.481 315.204 249.629 310.638C242.347 309.352 237.108 307.017 233.154 302.46C229.357 298.086 225.755 293.373 222.682 288.366C221.166 285.889 219.345 282.911 218.632 280.047C217.789 276.65 218.319 272.439 219.332 269.194C220.742 264.664 222.771 260.379 225.335 256.647C226.079 255.566 227.491 254.338 227.849 253.126C228.348 251.422 228.09 249.332 228.268 247.628C228.791 242.654 229.851 237.475 232.176 234.235C236.143 228.707 243.659 227.108 250.747 225.075C258.369 222.88 265.639 220.534 273.926 219.996C280.745 219.557 284.821 222.179 288.447 226.199C290.072 228.002 291.477 230.201 293.193 231.837C296.281 234.785 300.123 236.467 300.592 241.85C300.938 245.79 299.821 248.988 299.197 252.279C300.146 254.504 301.246 256.589 301.986 259.04ZM292.49 236.764C291.129 235.634 289.804 234.313 288.721 233.101C284.42 228.294 282.5 223.605 273.641 224.222C265.916 224.761 259.583 226.872 252.56 228.873C246.457 230.608 238.9 231.705 235.383 236.905C233.202 240.139 232.663 245.067 232.313 249.593C232.194 251.119 232.306 253.026 231.894 254.526C231.517 255.895 229.886 257.582 228.962 258.899C227.914 260.393 226.959 262.05 226.169 263.55C224.48 266.748 222.699 270.531 222.399 274.544C222 279.858 224.219 282.665 226.169 285.821C227.503 287.979 228.768 289.819 230.217 291.882C232.776 295.519 235.916 300.567 239.573 302.877C242.371 304.643 245.557 305.323 249.625 306.258C249.658 305.709 248.939 304.701 248.51 304.147C247.055 304.225 245.238 304.131 243.9 303.583C240.557 302.213 237.047 298.389 236.921 294.84C236.745 289.923 240.717 285.21 246.693 286.527C246.856 284.964 247.26 284.055 248.65 283.988C250.399 283.908 251.372 285.973 252.561 287.374C253.886 288.937 255.077 290.389 256.329 291.036C259.516 288.23 257.131 284.416 255.91 281.312C254.184 276.917 252.853 274.048 251.303 269.611C250.203 266.461 249.171 262.928 250.604 260.163C253.195 255.179 259.142 253.474 264.986 251.85C267.918 251.035 271.059 250.13 274.062 249.593C276.551 249.149 281.35 248.778 283.138 247.2C285.091 245.47 284.556 239.461 288.025 238.881C292.662 238.107 294.191 244.916 296.263 246.071C297.301 240.667 295.145 238.968 292.49 236.764ZM300.032 277.22C300.402 277.648 300.791 278.4 301.286 278.207C301.036 273.954 300.885 269.595 299.613 266.367C296.908 269.125 298.01 274.899 300.032 277.22ZM382.969 275.108C382.426 282.56 381.8 290.732 381.292 298.367C381.113 301.084 381.376 304.361 378.919 304.287C376.513 304.214 376.944 301.031 377.105 298.649C377.607 291.208 378.246 283.662 378.639 276.518C376.603 276.993 375.569 278.494 374.592 280.041C374.251 286.75 372.962 294.63 373.334 302.594C373.446 304.998 374.022 308.436 371.381 308.373C367.488 308.279 369.942 298.032 369.147 295.263C367.543 303.613 367.611 313.86 367.611 323.454C367.611 326.819 367.928 330.263 367.75 333.325C367.623 335.53 366.104 337.851 365.237 339.951C359.554 353.7 353.948 367.908 348.203 380.967C354.057 388.544 362.586 393.42 374.034 395.348C378.165 379.796 382.295 363.734 386.461 348.125C387.056 345.893 387.419 343.04 388.276 341.357C388.9 340.135 391.467 338.87 392.883 337.836C397.768 334.267 401.904 330.28 405.31 325.712C410.266 319.065 415.044 313.485 417.319 304.852C413.554 307.047 410.676 310.077 407.405 313.025C406.431 313.902 405.039 315.355 403.776 315.424C401.147 315.56 397.299 312.669 396.654 310.772C395.666 307.857 397.239 303.77 398.049 300.62C398.784 297.766 399.517 294.908 400.285 292.305C401.533 288.068 403.119 284.321 404.473 280.606C404.92 279.378 405.811 277.93 405.032 276.66C404.119 277.318 403.35 278.438 402.659 279.477C398.974 285.031 395.586 290.675 392.325 296.533C391.336 298.315 389.897 302.84 387.578 302.735C384.977 302.62 385.81 298.691 386.043 296.674C386.357 293.951 386.602 291.422 386.882 289.06C387.461 284.127 388.491 278.657 388.417 274.12C386.574 273.885 384.646 274.717 382.969 275.108ZM403.911 426.921C401.074 424.753 400.106 421.8 396.512 420.018C394.4 418.967 391.724 418.68 388.275 418.184C385.984 417.854 381.795 417.849 381.852 415.367C381.908 412.916 384.672 413.392 386.738 413.674C392.274 414.426 398.413 415.477 400.98 417.901C398.55 413.475 394.546 408.244 388.695 407.753C386.184 407.544 382.905 408.562 381.433 407.612C378.976 406.022 382.161 402.626 384.645 403.666C387.624 400.238 388.642 395.4 391.626 391.966C393.837 389.421 397.488 387.315 400.003 385.34C400.254 385.141 401.158 385.069 400.839 384.494C399.522 384.045 398.326 383.715 396.931 383.788C390.471 384.118 387.227 389.558 384.224 393.655C374.858 406.441 366.03 419.239 357.138 432.282C355.82 434.21 353.985 437.706 352.529 438.625C351.202 439.462 348.991 439.848 347.084 440.454C334.056 444.603 321.178 449.092 308.41 453.142C306.484 456.184 303.344 459.37 302.964 463.995C302.117 474.247 306.882 482.263 312.456 485.984C327.883 477.811 344.517 468.891 359.931 460.332C361.6 459.402 365.14 457.092 366.911 456.805C368.031 456.626 369.177 456.878 370.123 456.805C378.738 456.172 381.383 449.165 384.504 442.852C381.947 443.166 380.912 442.408 380.734 441.301C380.213 438.05 384.794 438.51 386.598 438.342C389.318 438.087 393.096 437.323 393.58 439.466C394.059 441.593 391.176 444.775 393.58 445.528C394.853 445.93 397.085 443.521 398.048 442.711C399.463 441.519 400.865 440.501 401.678 438.761C400.112 436.477 399.46 434.256 397.21 432.845C395.404 431.705 392.93 431.335 390.508 430.729C388.435 430.212 384.558 429.966 384.364 427.907C383.981 423.863 390.686 426.298 393.021 426.92C395.242 427.515 397.985 428.315 399.724 429.46C401.31 430.505 402.472 432.412 403.495 433.828C403.629 434.021 403.914 434.539 404.191 434.393C404.809 432.058 404.263 429.142 403.911 426.921ZM400.283 409.447C401.443 410.999 402.659 412.499 403.774 414.098C404.722 411.484 406.212 409.415 408.101 407.753C405.351 405.57 401.991 407.732 400.283 409.447ZM295.422 409.023C294.752 413.016 294.211 417.233 293.608 421.424C292.893 426.389 292.503 432.09 291.234 435.946C294.456 440.915 297.125 446.443 300.45 451.309C309.047 448.571 317.495 445.686 326.141 442.995C323.995 439.938 321.302 437.216 318.74 434.394C310.973 425.85 303.338 417.108 295.561 408.741C295.422 408.741 295.422 408.882 295.422 409.023Z" fill="#222222"/>
<path fill-rule="evenodd" clip-rule="evenodd" d="M279.506 267.072C281.517 266.905 286.292 266.068 286.486 268.906C286.701 272.02 282.141 270.991 279.786 271.163C276.008 271.435 274.457 273.404 272.944 275.955C272.369 276.922 271.728 280.162 269.592 280.182C265.708 280.22 268.519 275.234 269.733 273.274C272.133 269.412 274.123 267.521 279.506 267.072Z" fill="#222222"/>
<path fill-rule="evenodd" clip-rule="evenodd" d="M282.717 293.716C284.879 293.021 285.764 295.217 288.163 296.251C290.976 297.468 295.349 296.272 295.282 299.214C295.202 302.73 288.476 300.818 286.486 299.919C284.439 298.989 281.685 297.546 281.46 295.969C281.25 294.469 281.962 293.957 282.717 293.716Z" fill="#222222"/>
<path fill-rule="evenodd" clip-rule="evenodd" d="M331.027 663.038C329.582 662.802 328.064 662.645 326.421 662.615C322.904 651.923 319.324 641.3 315.668 630.754C316.9 630.163 318.712 630.163 319.578 629.202C323.502 640.374 327.258 651.713 331.027 663.038Z" fill="#222222"/>
<path fill-rule="evenodd" clip-rule="evenodd" d="M281.797 276.289C283.515 275.84 285.267 276.875 285.716 278.61L286.806 282.843C287.254 284.572 286.223 286.344 284.508 286.793C282.789 287.248 281.037 286.208 280.589 284.473L279.499 280.245C279.051 278.51 280.081 276.739 281.797 276.289Z" fill="#222222"/>
<path fill-rule="evenodd" clip-rule="evenodd" d="M488.422 538.993L487.913 539.009C487.452 538.894 486.961 538.831 486.441 538.831H376.686C372.829 538.831 368.846 542.228 367.785 546.414L349.048 620.464C348.523 622.539 348.815 624.415 349.71 625.783C351.274 629.16 356.395 632.3 359.415 632.3H469.175C473.03 632.3 477.016 628.903 478.078 624.712L496.815 550.666C497.877 546.475 492.279 538.993 488.422 538.993Z" fill="#222222"/>
<path d="M469.176 634.415H359.416C355.37 634.415 349.618 630.584 347.81 626.68C346.698 625.017 346.367 622.53 347.018 619.941L365.756 545.886C367.058 540.741 371.863 536.714 376.687 536.714H486.441C487.009 536.714 487.573 536.772 488.123 536.885C491.883 536.738 494.769 540.196 495.871 541.633C498.412 544.933 499.524 548.504 498.849 551.192L480.111 625.237C478.804 630.383 473.999 634.415 469.176 634.415ZM376.687 540.943C373.787 540.943 370.639 543.69 369.817 546.936L351.079 620.991C350.72 622.409 350.856 623.694 351.458 624.621C352.823 627.514 357.176 630.187 359.416 630.187H469.176C472.076 630.187 475.224 627.441 476.049 624.189L494.787 550.144C495.128 548.805 494.214 546.373 492.567 544.23C491.003 542.199 489.317 541.13 488.448 541.111L487.972 541.126C487.797 541.131 487.588 541.111 487.398 541.062C487.097 540.983 486.772 540.944 486.441 540.944H376.687V540.943Z" fill="#222222"/>
<path fill-rule="evenodd" clip-rule="evenodd" d="M476.695 546.184H381.529C377.673 546.184 373.687 549.58 372.626 553.771L358.418 609.914C357.359 614.105 359.623 617.502 363.48 617.502H458.646C462.501 617.502 466.487 614.105 467.548 609.914L481.754 553.771C482.816 549.58 480.552 546.184 476.695 546.184Z" fill="white"/>
<path d="M458.647 619.617H363.482C361.092 619.617 359.022 618.636 357.652 616.855C356.147 614.898 355.684 612.177 356.389 609.39L370.599 553.248C371.901 548.103 376.701 544.071 381.531 544.071H476.696C479.086 544.071 481.156 545.052 482.526 546.832C484.032 548.789 484.494 551.506 483.789 554.297L469.583 610.44C468.276 615.585 463.471 619.617 458.647 619.617ZM381.53 548.3C378.624 548.3 375.482 551.046 374.66 554.297L360.45 610.44C360.067 611.951 360.25 613.344 360.96 614.261C361.528 614.997 362.397 615.389 363.481 615.389H458.646C461.547 615.389 464.694 612.642 465.52 609.39L479.725 553.248C480.109 551.737 479.925 550.344 479.215 549.427C478.647 548.691 477.777 548.299 476.694 548.299L381.53 548.3Z" fill="#222222"/>
<path fill-rule="evenodd" clip-rule="evenodd" d="M300.134 625.429H469.94C471.483 625.429 472.732 626.693 472.732 628.251V636.392C472.732 640.285 469.606 643.441 465.75 643.441H304.324C300.468 643.441 297.342 640.285 297.342 636.392V628.251C297.341 626.693 298.592 625.429 300.134 625.429Z" fill="#222222"/>
<path d="M465.749 645.553H304.325C299.32 645.553 295.25 641.443 295.25 636.391V628.249C295.25 625.527 297.441 623.315 300.135 623.315H469.942C472.639 623.315 474.83 625.527 474.83 628.249V636.391C474.829 641.443 470.758 645.553 465.749 645.553ZM300.135 627.543C299.751 627.543 299.438 627.862 299.438 628.249V636.391C299.438 639.114 301.631 641.325 304.325 641.325H465.75C468.447 641.325 470.642 639.114 470.642 636.391V628.249C470.642 627.862 470.326 627.543 469.943 627.543H300.135Z" fill="#222222"/>
<path fill-rule="evenodd" clip-rule="evenodd" d="M448.974 554.759L472.492 554.481C474.852 554.451 476.137 556.865 475.361 559.869L466.735 593.26C465.962 596.265 463.417 598.721 461.055 598.747L437.538 599.029C435.178 599.055 433.891 596.641 434.668 593.641L443.294 560.245C444.071 557.245 446.612 554.79 448.974 554.759Z" fill="#B8BBFD"/>
<path d="M371.924 598.738C370.967 598.738 370.185 597.959 370.18 596.992C370.17 596.016 370.948 595.222 371.909 595.217L426.223 594.819C427.039 594.917 427.977 595.589 427.982 596.565C427.992 597.541 427.214 598.336 426.252 598.34L371.939 598.738C371.934 598.738 371.929 598.738 371.924 598.738Z" fill="#222222"/>
<path d="M375.432 585.344C374.474 585.344 373.692 584.564 373.688 583.598C373.678 582.621 374.455 581.827 375.417 581.822L392.93 581.689C393.902 581.689 394.684 582.47 394.689 583.436C394.699 584.412 393.921 585.207 392.96 585.212L375.446 585.344C375.441 585.344 375.436 585.344 375.432 585.344Z" fill="#222222"/>
<path d="M412.228 585.069C411.271 585.069 410.489 584.29 410.484 583.318C410.475 582.348 411.252 581.553 412.219 581.548L429.737 581.425C430.704 581.425 431.486 582.204 431.491 583.175C431.501 584.147 430.723 584.941 429.756 584.946L412.238 585.069C412.238 585.069 412.233 585.069 412.228 585.069Z" fill="#222222"/>
<path d="M398.275 585.245C397.318 585.245 396.536 584.465 396.531 583.5C396.522 582.524 397.299 581.729 398.261 581.724L405.621 581.67C406.593 581.67 407.375 582.451 407.38 583.416C407.39 584.393 406.612 585.187 405.651 585.192L398.291 585.245C398.285 585.245 398.28 585.245 398.275 585.245Z" fill="#222222"/>
<path d="M378.828 572.351C377.872 572.351 377.089 571.571 377.084 570.606C377.074 569.629 377.852 568.835 378.813 568.83L433.132 568.433C434.103 568.433 434.886 569.213 434.891 570.179C434.901 571.155 434.123 571.95 433.161 571.955L378.843 572.352C378.838 572.352 378.833 572.351 378.828 572.351Z" fill="#222222"/>
<path d="M382.408 558.972C381.451 558.972 380.669 558.192 380.664 557.225C380.654 556.25 381.432 555.455 382.394 555.45L393.971 555.366C394.942 555.366 395.725 556.147 395.73 557.112C395.739 558.089 394.962 558.883 394 558.888L382.424 558.971C382.417 558.972 382.412 558.972 382.408 558.972Z" fill="#222222"/>
<path d="M405.149 558.805C404.192 558.805 403.409 558.025 403.405 557.059C403.396 556.084 404.173 555.289 405.135 555.284L436.63 555.053C437.62 555.103 438.383 555.828 438.388 556.799C438.398 557.775 437.62 558.569 436.659 558.575L405.164 558.805C405.164 558.805 405.153 558.805 405.149 558.805Z" fill="#222222"/>
<path d="M369.836 609.474C368.874 609.474 368.097 608.694 368.092 607.724C368.087 606.748 368.865 605.958 369.827 605.953L451.379 605.531C452.511 605.58 453.128 606.306 453.133 607.282C453.137 608.257 452.36 609.047 451.398 609.052L369.846 609.474C369.841 609.474 369.841 609.474 369.836 609.474Z" fill="#222222"/>
<path fill-rule="evenodd" clip-rule="evenodd" d="M399.176 557.805C400.162 555.49 394.932 554.779 390.1 554.142C385.269 553.504 378.126 555.291 369.013 562.037C359.903 568.778 336.616 591.357 336.616 591.357L317.903 596.254L321.676 595.167C321.676 595.167 328.582 591.624 332.566 586.142C336.552 580.66 338.573 566.688 338.573 566.688C338.573 566.688 348.987 556.524 351.141 554.423C353.294 552.322 348.348 548.362 348.348 548.362C348.348 548.362 358.966 546.695 360.776 546.386C362.584 546.083 361.865 543.282 361.614 539.901C361.363 536.521 353.654 536.239 353.654 536.239C353.654 536.239 345.931 531.013 334.523 531.164C323.114 531.311 322.431 542.467 317.486 552.166C312.54 561.864 305.897 579.799 305.897 579.799L278.889 585.913C272.484 569.065 263.068 544.725 256.601 529.895C243.534 499.916 228.395 505.784 228.395 505.784C228.395 505.784 225.157 502.847 222.251 498.735C219.342 494.628 230.07 472.654 230.07 472.654C230.07 472.654 234.018 473.438 242.5 472.089C250.978 470.741 256.046 453.48 256.046 453.48C256.046 453.48 260.098 446.217 259.534 442.91C259.112 440.422 258.297 442.084 253.67 439.664C249.043 437.25 249.899 426.412 249.899 426.412C249.899 426.412 255.748 419.78 256.322 414.571C256.896 409.356 235.786 400.059 223.367 396.386C210.947 392.713 196.557 399.767 196.557 399.767C196.557 399.767 185.673 392.77 179.241 387.22C172.81 381.675 163.162 386.336 152.15 392.294C141.138 398.256 146.599 419.78 150.473 425C154.35 430.221 173.234 429.374 173.234 429.374C173.234 429.374 172.931 434.787 172.957 443.755C172.983 452.711 176.728 463.068 176.728 463.068C176.728 463.068 169.109 475.954 164.438 481.958C159.769 487.958 147.023 489.248 139.999 495.916C132.978 502.579 139.583 522.138 139.583 522.138C139.583 522.138 126.638 526.559 123.941 535.813C121.247 545.068 120.266 553.574 130.225 561.612C140.186 569.648 153.824 568.096 153.824 568.096C153.824 568.096 152.647 575.156 146.426 586.562C140.204 597.97 143.634 607.711 143.634 607.711L115.285 650.712L226.163 650.994L214.851 617.723L224.625 605.171C224.625 605.171 228.192 606.069 232.726 606.159C237.702 606.258 239.845 604.471 239.845 604.471C239.845 604.471 260.844 639.498 269.172 643.24C277.5 646.982 290.701 644.149 301.429 638.725C312.154 633.306 345.694 612.927 345.694 612.927C345.694 612.927 347.309 614.186 355.472 613.35C363.631 612.518 379.069 595.589 379.069 595.589C379.069 595.589 387.904 604.347 391.918 604.471C395.929 604.592 393.872 598.123 393.872 598.123C393.872 598.123 398.294 593.754 399.037 591.219C399.782 588.679 397.073 579.561 392.195 572.888C387.319 566.22 375.996 569.789 375.996 569.789L382.56 563.445C382.558 563.448 398.192 560.126 399.176 557.805Z" fill="white"/>
<path fill-rule="evenodd" clip-rule="evenodd" d="M205.652 447.604C205.652 447.604 216.116 441.95 221.572 436.609C227.027 431.269 237.351 414.615 237.351 414.615C237.351 414.615 241.489 416.621 244.054 420.253C246.618 423.885 250.337 428.572 250.337 428.572C250.337 428.572 259.641 417.169 255.785 411.933C251.926 406.703 239.906 394.275 221.572 392.902C203.236 391.527 193.782 397.416 193.782 397.416C193.782 397.416 185.08 384.211 169.066 387.404C153.051 390.602 147.236 390.006 146.861 402.772C146.488 415.538 146.797 424.803 153.424 426.031C160.057 427.259 173.536 428.288 173.536 428.288C173.536 428.288 174.946 444.78 175.769 449.578C176.592 454.374 176.884 461.701 176.884 461.701C176.884 461.701 167.497 480.376 158.313 483.836C149.128 487.29 139.855 491.068 138.623 497.653C137.391 504.231 139.741 520.065 139.741 520.065C139.741 520.065 131.78 522.38 127.73 528.807C123.683 535.235 120.672 556.074 132.199 561.796C143.727 567.519 154.798 566.839 154.798 566.839L202.72 481.721L207.606 464.523C207.606 464.523 202.262 464.951 197.551 459.726C192.844 454.505 194.831 450.692 198.589 449.557C202.347 448.424 205.652 447.604 205.652 447.604Z" fill="#222222"/>
<path fill-rule="evenodd" clip-rule="evenodd" d="M205.073 481.334L226.856 484.156C226.856 484.156 219.737 494.769 223.087 498.114C226.436 501.453 228.113 503.188 228.113 503.188C228.113 503.188 246.436 503.862 254.785 525.182C263.134 546.503 281.316 585.799 281.316 585.799L301.285 580.866C301.285 580.866 306.172 581.863 308.268 586.363C310.364 590.867 311.06 594.682 311.06 594.682H326.42C326.42 594.682 332.743 598.533 333.403 605.682C334.063 612.825 332.008 621.186 332.008 621.186C332.008 621.186 302.681 637.102 296.399 640.499C290.116 643.896 281.492 646.874 269.867 641.769C258.239 636.664 241.239 603.425 241.239 603.425C241.239 603.425 236.018 605.698 232.861 605.823C229.701 605.943 226.854 604.835 226.854 604.835L216.103 616.818L228.671 652.346L114.022 651.782L145.024 605.541C145.024 605.541 136.439 597.316 150.05 576.921C163.662 556.519 205.073 481.334 205.073 481.334Z" fill="white"/>
<path fill-rule="evenodd" clip-rule="evenodd" d="M398.192 556.551C395.972 555.354 392.903 555.129 390.092 555.004C379.932 554.549 375.176 559.378 369.429 564.022C360.095 571.574 351.934 579.119 342.9 587.423C341.137 589.042 339.585 591.321 337.734 592.215C336.101 593.004 333.811 593.369 331.73 593.908C317.607 597.565 303.242 601.302 289.145 605.044C289.166 606.517 288.762 607.996 287.328 608.147C285.244 608.361 284.654 605.409 283.837 603.351C273.658 577.667 264.15 552.318 252.841 527.512C251.058 523.603 249.298 519.621 247.256 516.658C245.305 513.826 241.909 511.615 238.601 509.755C235.302 507.9 231.259 506.024 227.149 505.664C224.326 505.418 221.484 506.082 218.912 506.792C216.572 507.44 213.433 509.165 211.932 508.767C211.22 508.579 210.439 507.983 210.395 506.933C210.297 504.602 214.029 503.955 215.701 503.411C218.203 502.596 219.926 502.094 222.682 501.718C222.116 500.463 220.472 499.351 220.169 497.631C219.439 493.493 222.643 489.203 223.241 485.932C217.178 484.954 210.78 484.317 204.67 483.392C193.381 502.46 182.464 522.16 171.44 541.75C163.016 556.721 155.179 571.463 148.402 587.422C146.59 591.685 145.387 595.448 145.609 601.944C145.666 603.579 146.223 605.487 145.889 607.299C145.586 608.94 143.466 611.391 142.398 613.078C135.307 624.271 128.063 635.141 120.754 646.626C119.657 648.35 118.401 651.559 116.567 651.559C115.343 651.559 114.784 650.744 114.613 649.866C114.29 648.22 116.414 645.847 117.545 644.087C124.629 633.045 131.205 622.949 138.348 611.808C139.409 610.157 141.472 607.534 141.699 606.311C142.067 604.347 141.43 602.131 141.419 600.39C141.347 586.668 148.544 579.127 152.312 568.812C145.307 568.613 139.419 568.081 134.579 565.855C130.104 563.796 126.665 559.657 124.525 555.283C122.183 550.492 120.785 543.74 121.873 537.945C123.632 528.549 128.342 521.427 138.627 520.465C136.326 512.25 133.545 499.511 138.766 493.255C143.865 487.157 154.696 486.363 161.246 481.555C164.528 479.151 166.694 475.812 169.067 472.253C170.728 469.761 172.349 467.168 173.953 464.217C174.39 463.412 175.263 462.101 175.351 461.401C175.462 460.486 174.882 458.987 174.652 457.737C173.065 449.168 171.945 440.31 171.72 430.529C162.965 429.813 155.672 429.206 150.636 425.595C145.708 422.058 143.607 414.402 143.935 406.146C144.254 398.099 147.903 392.951 153.428 389.508C158.899 386.106 165.861 383.901 174.514 384.575C179.225 384.94 183.079 387.292 186.522 389.367C190.028 391.488 193.245 393.84 196.294 396.275C201.486 394.034 207.707 391.922 214.725 391.906C228.85 391.87 240.776 396.75 249.073 403.183C252.986 406.219 258.721 410.458 258.009 417.141C257.758 419.477 256.559 421.651 255.494 423.485C254.435 425.308 253.379 427.274 251.725 428.417C252.766 430.336 252.794 431.673 253.819 433.774C254.466 435.097 255.672 437.839 256.751 438.143C258.757 438.702 261.829 436.763 261.917 439.836C262.018 443.322 255.333 442.548 253.539 441.1C251.148 439.171 249.689 434.359 248.234 430.67C246.084 425.214 243.058 420.726 238.182 418.406C237.287 419.241 236.795 420.485 236.085 421.51C238.226 421.515 242.44 420.888 242.649 423.485C242.928 426.96 237.322 425.293 235.527 425.878C233.754 426.458 231.619 428.544 230.361 429.965C228.751 431.783 227.584 433.899 226.034 435.744C221.678 440.933 214.763 444.972 208.72 448.291C209.237 448.844 209.996 449.586 209.698 450.83C208.833 454.425 202.671 450.255 199.363 450.971C197.691 451.332 196.879 453.568 197.13 455.621C197.394 457.77 199.278 459.922 200.902 460.695C201.82 461.134 204.944 461.688 206.625 461.824C209.084 462.022 211.214 461.62 211.371 463.799C211.478 465.267 210.259 465.335 209.698 466.474C209.299 467.273 209.144 468.664 208.859 469.714C208.01 472.855 207.239 476.068 206.346 479.303C212.283 480.353 218.678 480.949 224.775 481.837C226.193 478.995 227.265 475.802 228.686 472.959C227.125 471.652 220.448 471.182 220.448 468.167C220.448 464.394 225.125 467.09 227.291 467.884C232.203 469.687 239.778 471.307 245.021 468.448C249.436 466.039 252.096 461.405 253.398 455.338C253.913 452.944 254.677 449.291 257.308 451.251C259.069 452.558 256.752 459.643 256.191 461.117C254.749 464.91 253.031 466.808 251.444 468.589C247.383 473.141 241.407 475.147 233.012 473.805C230.563 478.596 228.116 484.491 226.033 490.438C225.445 492.115 224.157 494.795 224.355 496.499C224.612 498.668 228.859 501.312 230.779 502.137C232.725 502.968 234.712 503.344 236.503 504.112C241.597 506.286 246.837 509.229 250.186 513.555C253.649 518.033 256.11 524.805 258.563 530.328C266.239 547.589 273.359 565.711 280.485 583.614C287.732 580.75 297.318 578.906 305.338 576.423C310.167 565.324 315.332 551.523 320.977 540.195C322.683 536.767 324.913 531.803 327.537 529.623C332.299 525.673 343.806 527.308 349.46 529.905C350.674 530.464 351.474 530.94 352.531 531.88C355.842 532.576 359.625 533.155 361.745 535.685C364.623 539.118 363.398 546.502 359.092 547.667C357.079 548.21 354.998 547.641 352.808 548.513C353.111 549.627 354.338 550.703 354.206 552.459C353.996 555.233 349.654 558.175 347.503 559.931C344.556 562.34 341.962 564.294 339.684 566.134C338.41 575.325 337.022 584.402 331.726 589.534C332.872 589.006 334.275 589.158 335.636 588.546C336.602 588.112 338.071 586.508 339.125 585.442C346.832 577.666 354.42 570.857 363.142 563.734C367.591 560.103 372.386 555.446 378.222 552.74C380.96 551.47 385.01 550.587 389.252 550.765C394.081 550.973 402.23 551.167 402.515 556.267C402.665 558.963 400.139 561.398 398.187 562.328C394.412 564.116 388.499 563.525 384.641 564.722C382.981 565.239 382.072 566.661 380.734 567.543C386.365 567.151 391.74 567.234 394.836 570.218C397.038 572.345 398.263 575.69 399.302 578.82C400.408 582.133 401.618 586.245 401.256 589.814C400.868 593.661 398.73 596.796 396.649 599.257C396.488 602.538 394.949 605.778 392.461 605.883C390.321 605.972 387.715 603.202 386.178 601.796C385.484 601.159 384.718 600.359 383.525 599.257C383.051 598.823 381.54 596.602 381.012 596.576C380.694 596.566 378.946 598.661 378.219 599.398C373.204 604.461 368.99 607.989 362.441 611.662C358.941 613.626 356.162 615.179 350.712 614.902C349.615 614.85 348.399 614.38 347.5 614.479C346.608 614.584 344.718 615.932 343.593 616.595C329.944 624.653 316.559 632.736 302.263 639.995C296.887 642.723 290.992 645.367 284.529 645.775C274.971 646.375 265.637 643.894 260.795 639.148C258.626 637.027 256.812 633.938 255.07 631.253C249.586 622.813 245.077 614.834 239.57 606.023C236.884 607.08 234.316 607.293 230.774 606.87C229.508 606.719 228.035 606.112 227.003 606.306C226.188 606.458 224.958 608.036 224.211 608.841C221.537 611.735 219.177 614.468 216.672 617.301C220.624 628.823 224.78 639.848 228.82 651.413C229.447 653.205 229.659 655.489 227.562 655.64C225.746 655.776 225.156 653.707 224.491 651.836C220.821 641.49 217.449 631.994 213.74 621.669C213.197 620.158 212.045 617.818 212.206 616.454C212.353 615.189 214.346 613.527 215.278 612.508C217.664 609.896 219.543 608.004 221.978 605.317C223.093 604.089 224.349 602.161 225.47 601.937C227.253 601.577 229.538 602.423 231.474 602.636C233.555 602.872 235.335 603.133 237.338 602.354C230.34 590.345 223.317 578.359 216.255 566.413C213.387 565.974 208.957 567.244 208.716 564.437C208.482 561.725 210.992 562.101 213.322 562.18C214.957 562.238 217.108 561.923 218.208 562.326C219.487 562.791 220.439 565.247 221.283 566.694C231.565 584.367 241.233 600.676 251.86 618.004C253.625 620.883 255.511 624.039 257.584 627.165C259.622 630.238 261.361 633.796 263.589 636.048C268.186 640.689 278.53 642.883 287.464 641.123C295.64 639.507 301.98 635.588 308.408 632.098C319.462 626.099 330.595 619.41 341.777 612.93C343.255 612.073 345.16 610.459 346.527 610.25C348.66 609.931 351.771 610.956 354.345 610.673C356.809 610.402 359.974 608.347 362.443 606.869C368.649 603.149 372.842 599.386 377.663 594.04C378.722 592.869 379.431 591.553 380.735 591.501C383.039 591.412 385.034 594.991 386.46 596.292C388.507 598.173 389.99 599.532 392.045 601.23C393.339 597.509 390.321 594.808 388.553 592.487C387.032 590.491 384.156 586.666 381.572 586.144C378.937 585.616 375.772 586.713 373.473 587.555C371.136 588.411 368.227 590.554 366.631 589.388C366.118 589.012 365.803 588.019 365.795 587.837C365.686 585.605 370.298 584.2 372.358 583.467C375.889 582.208 380.353 581.079 383.807 582.48C388.991 584.581 391.851 590.172 394.976 594.463C395.65 593.005 396.787 592.054 396.791 590.513C396.794 589.489 395.829 587.978 395.394 587.132C394.069 584.54 392.042 580.427 389.253 579.236C386.22 577.945 381.211 578.881 377.663 579.377C374.674 579.8 368.139 581.98 368.029 578.677C367.928 575.641 375.498 575.396 378.5 575.009C384.939 574.183 391.624 574.001 394.418 578.113C394.532 578.139 394.558 578.255 394.698 578.255C393.168 574.874 392.237 572.109 387.996 571.628C384.677 571.252 379.823 571.534 375.987 572.193C373.718 572.58 367.015 575.203 366.914 571.77C366.834 569.069 370.149 569.565 372.359 568.666C373.917 568.034 376.21 565.891 377.664 564.721C379.313 563.393 380.891 561.46 382.83 560.776C387.82 559.023 395.729 560.79 398.192 556.551ZM170.602 388.806C158.163 389.6 147.949 394.575 147.982 408.12C147.992 412.263 149.152 418.539 152.172 421.512C156.245 425.52 164.763 425.552 171.859 426.305C173.168 411.558 182.185 404.592 192.105 398.536C186.952 394.293 179.421 388.246 170.602 388.806ZM253.958 416.015C253.953 412.012 249.851 409.18 247.535 407.273C244.393 404.686 241.588 402.926 238.322 401.352C231.705 398.176 222.611 395.688 213.187 396.137C205.302 396.514 198.679 399.518 192.942 402.904C184.746 407.743 177.083 414.333 176.187 425.881C175.367 436.473 176.837 446.966 178.56 456.33C178.912 458.231 179.767 460.427 179.539 462.109C179.41 463.071 178.664 464.236 178.144 465.208C174.521 471.98 170.097 479.38 164.878 483.958C161.883 486.586 157.295 488.546 152.869 490.161C148.545 491.739 143.369 493.515 141.283 496.928C139.207 500.314 139.873 506.856 140.585 510.739C140.884 512.39 141.397 514.554 141.98 516.801C142.515 518.87 143.757 521.478 143.237 522.863C142.73 524.217 139.492 524.494 137.512 524.979C135.021 525.586 133.121 526.296 131.788 527.096C129.803 528.277 128.079 531.867 127.179 534.14C122.949 544.852 128.141 557.361 135.277 561.49C140.174 564.317 147.321 564.312 154.407 564.871C161.693 550.109 169.767 535.995 177.865 521.88C183.923 511.314 189.814 500.456 195.875 490.02C197.912 486.515 200.237 483.054 202.019 479.45C202.057 479.37 201.99 479.246 202.019 479.167C203.64 474.929 204.177 470.054 205.651 465.915C198.021 466.051 190.927 459.534 193.363 451.963C193.828 450.516 195.006 449.382 195.456 448.153C193.565 443.591 192.736 437.352 193.363 430.815C193.603 428.323 193.562 425.548 195.875 425.599C198.006 425.652 197.789 427.878 197.552 429.827C196.758 436.381 197.524 442.431 199.506 446.883C200.541 446.873 201.584 446.852 202.438 447.024C210.104 442.609 218.444 438.915 224.498 430.956C228.404 425.83 232.392 419.606 235.947 413.759C237.094 411.878 238.287 408.555 240.416 408.685C244.019 408.91 240.999 413.854 240.277 414.888C244.885 416.623 247.391 420.485 249.769 424.471C251.319 421.805 253.964 419.589 253.958 416.015ZM334.523 531.886C330.005 532.242 328.949 534.818 327.121 538.089C320.897 549.23 316.064 561.327 311.065 573.607C310.185 575.771 309.608 578.628 308.412 579.669C307.103 580.818 304.109 581.054 301.989 581.644C299.528 582.334 297.45 582.925 295.429 583.478C290.659 584.775 286.808 586.149 281.884 586.859C283.563 591.745 285.604 596.261 287.329 601.099C297.633 598.539 307.738 595.795 317.769 593.204C319.257 592.817 320.978 592.64 322.236 592.075C323.079 591.699 323.981 590.701 324.889 589.964C327.482 587.858 330.536 585.177 331.871 582.35C333.82 578.223 334.312 573.582 335.083 568.816C335.321 567.347 335.352 565.283 335.919 564.024C336.403 562.959 338.253 561.945 339.41 561.067C343.215 558.166 347.058 555.188 349.882 551.901C349.167 551.112 348.274 549.513 346.812 549.367C345.654 549.246 343.442 550.202 341.783 550.773C338.494 551.907 335.668 553.15 332.567 554.441C330.334 555.372 326.056 557.451 326.146 553.877C326.185 552.273 327.626 552.069 328.799 551.338C329.592 548.574 330.243 546.216 331.173 543.164C331.758 541.241 332.552 536.471 334.525 535.833C335.547 535.503 337.13 535.827 338.432 535.974C342.418 536.418 346.919 537.489 350.161 535.974C347.147 532.874 340.333 531.426 334.523 531.886ZM354.909 536.678C353.266 542.907 343.182 541.099 336.756 540.342C335.866 543.299 334.448 546.471 333.964 549.366C337.44 548.353 341.265 545.808 345.832 545.274C348.457 544.971 350.046 544.731 352.393 544.292C355.881 543.634 358.259 543.812 359.375 541.33C359.318 538.335 357.339 537.28 354.909 536.678Z" fill="#222222"/>
<path fill-rule="evenodd" clip-rule="evenodd" d="M240.415 453.367C240.858 455.552 242.046 456.805 243.487 458.16C244.243 458.875 245.464 459.425 245.441 460.84C245.423 461.979 244.667 462.674 243.906 462.815C241.629 463.223 239.209 459.873 238.04 458.16C236.549 455.976 235.762 452.772 235.806 449.987C235.845 447.797 236.803 445.362 239.437 446.183C241.384 446.784 242.685 449.966 244.044 450.974C246.438 452.746 250.86 453.577 251.166 455.624C251.833 460.102 245.899 456.863 244.602 456.189C242.832 455.27 241.572 454.24 240.415 453.367Z" fill="#222222"/>
<path fill-rule="evenodd" clip-rule="evenodd" d="M201.457 454.214C203.285 453.67 209.224 453.696 209.139 456.048C209.076 457.716 207.554 457.679 205.507 457.6C203.126 457.505 200.243 458.081 200.062 456.048C199.941 454.694 200.604 454.47 201.457 454.214Z" fill="#222222"/>
<path d="M327.194 625.91C326.257 625.91 325.402 625.267 325.163 624.306C324.884 623.173 325.569 622.025 326.692 621.746C329.786 620.966 332.4 614.791 331.202 607.179C330.462 602.476 328.433 598.507 325.909 596.82C324.918 596.153 323.949 595.937 323.033 596.163C321.908 596.442 320.774 595.756 320.495 594.623C320.216 593.49 320.9 592.343 322.023 592.062C324.092 591.523 326.234 591.964 328.222 593.294C331.746 595.648 334.406 600.587 335.341 606.512C336.815 615.909 333.461 624.398 327.701 625.845C327.532 625.891 327.362 625.91 327.194 625.91Z" fill="#222222"/>
<path d="M310.283 599.318C309.181 599.318 308.257 598.45 308.194 597.321C308.109 595.815 307.872 594.276 307.483 592.75C306.3 588.14 303.905 584.379 301.233 582.941C300.178 582.377 299.195 582.249 298.311 582.569C297.221 582.946 296.025 582.382 295.639 581.279C295.253 580.175 295.826 578.969 296.917 578.576C298.923 577.86 301.101 578.076 303.201 579.209C306.934 581.214 310.051 585.884 311.54 591.696C311.997 593.491 312.279 595.301 312.378 597.086C312.444 598.253 311.56 599.249 310.404 599.313C310.363 599.318 310.325 599.318 310.283 599.318Z" fill="#222222"/>
<path fill-rule="evenodd" clip-rule="evenodd" d="M237.004 430.693C238.719 430.244 240.474 431.284 240.919 433.013L242.008 437.246C242.456 438.976 241.427 440.747 239.71 441.197C237.991 441.651 236.24 440.612 235.791 438.877L234.702 434.649C234.256 432.914 235.286 431.143 237.004 430.693Z" fill="#222222"/>
<path fill-rule="evenodd" clip-rule="evenodd" d="M31.3178 643.583H653.851C659.406 643.583 663.906 648.129 663.906 653.736C663.906 659.337 659.405 663.885 653.851 663.885H31.3178C25.7656 663.885 21.2656 659.338 21.2656 653.736C21.2664 648.129 25.7665 643.583 31.3178 643.583Z" fill="white"/>
<path d="M653.85 666H31.3179C24.6213 666 19.1729 660.497 19.1729 653.734C19.1729 646.97 24.6213 641.467 31.3179 641.467H653.85C660.549 641.467 666 646.97 666 653.734C666 660.497 660.549 666 653.85 666ZM31.3179 645.695C26.9305 645.695 23.3601 649.299 23.3601 653.734C23.3601 658.167 26.9305 661.773 31.3179 661.773H653.85C658.242 661.773 661.813 658.168 661.813 653.734C661.813 649.3 658.243 645.695 653.85 645.695H31.3179Z" fill="#222222"/>
<path fill-rule="evenodd" clip-rule="evenodd" d="M87.7211 422.391L106.968 441.866L102.599 446.287L83.3525 426.812L87.7211 422.391Z" fill="#F44817"/>
<path fill-rule="evenodd" clip-rule="evenodd" d="M102.599 422.527L106.968 426.947L87.7211 446.423L83.3525 442.002L102.599 422.527Z" fill="#F44817"/>
<path d="M128.893 197.969H99.1289V237.699H128.893V197.969Z" fill="white"/>
<path d="M82.1453 269.312C80.1849 269.312 78.4408 268.124 77.7049 266.29C77.4181 265.588 70.7265 248.712 77.9451 234.072C81.0589 227.75 86.2354 222.884 93.3429 219.589C92.8716 215.734 92.9206 210.608 95.0828 205.739C100.065 194.522 109.443 192.775 120.301 190.755C123.656 190.136 127.447 189.435 131.472 188.347C141.003 185.772 139.335 172.613 139.26 172.054C139.072 170.793 139.389 169.514 140.153 168.473C140.919 167.434 142.038 166.756 143.306 166.564L143.996 166.521C146.399 166.521 148.4 168.257 148.75 170.65C149.882 178.321 148.245 193.839 133.955 197.7C129.621 198.866 125.597 199.617 122.043 200.279C112.19 202.109 106.761 203.114 103.84 209.701C102.861 211.904 102.64 214.341 102.712 216.431C104.695 216.008 106.601 215.793 108.396 215.793C115.195 215.793 119.271 218.712 121.494 221.159C125.108 225.142 126.322 230.83 124.589 235.647C123.037 239.964 119.509 242.803 114.906 243.426C114.309 243.51 113.701 243.549 113.107 243.549C108.137 243.549 103.318 240.739 99.5387 235.628C98.1444 233.745 96.9027 231.523 95.8923 229.115C91.5825 231.42 88.4425 234.525 86.5449 238.37C81.3326 248.916 86.545 262.526 86.5989 262.663C87.5848 265.13 86.3996 267.955 83.9515 268.956C83.3789 269.189 82.7694 269.312 82.1453 269.312ZM104.944 225.857C105.602 227.334 106.378 228.687 107.227 229.839C108.121 231.046 110.486 233.856 113.127 233.856L113.628 233.826C114.653 233.685 115.253 233.228 115.571 232.345C116.079 230.923 115.605 229.015 114.418 227.701C113.502 226.69 111.709 225.484 108.374 225.484C107.314 225.484 106.166 225.606 104.944 225.857Z" fill="#B8BBFD"/>
<path d="M143.996 168.481C145.428 168.481 146.618 169.516 146.828 170.938C147.87 178.008 146.413 192.305 133.45 195.806C129.211 196.95 125.218 197.692 121.69 198.351C111.532 200.237 105.4 201.382 102.064 208.896C100.566 212.272 100.592 216.023 100.97 218.882C101.141 218.835 101.315 218.787 101.487 218.74C103.919 218.087 106.243 217.753 108.394 217.753C114.489 217.753 118.102 220.33 120.058 222.482C123.19 225.936 124.248 230.838 122.76 234.977C121.461 238.593 118.503 240.96 114.644 241.482C114.134 241.55 113.614 241.587 113.104 241.587C108.759 241.587 104.494 239.052 101.093 234.454C99.4194 232.191 97.9931 229.432 96.9394 226.422C91.2508 228.978 87.169 232.698 84.8017 237.495C79.1523 248.923 84.7322 263.242 84.7886 263.383C85.3784 264.857 84.6743 266.539 83.2203 267.134C82.8764 267.275 82.5137 267.349 82.1436 267.349C80.9764 267.349 79.9389 266.644 79.5019 265.556C79.2274 264.876 72.869 248.766 79.6824 234.945C82.7857 228.648 88.0985 223.887 95.4797 220.783C94.8278 216.922 94.626 211.56 96.8544 206.538C101.417 196.26 109.909 194.682 120.656 192.681C124.243 192.017 127.952 191.328 131.974 190.24C143.255 187.194 141.203 171.941 141.182 171.784C140.949 170.211 142.028 168.743 143.591 168.507C143.728 168.492 143.864 168.481 143.996 168.481ZM113.126 235.818C113.38 235.818 113.639 235.802 113.888 235.771C115.619 235.536 116.832 234.585 117.397 233.012C118.155 230.901 117.534 228.236 115.851 226.376C114.669 225.075 112.412 223.523 108.375 223.523C106.726 223.523 104.905 223.789 102.956 224.312C102.741 224.37 102.526 224.427 102.314 224.489C103.17 226.951 104.321 229.188 105.67 231.012C106.998 232.808 109.734 235.818 113.126 235.818ZM143.996 164.557C143.721 164.557 143.434 164.576 143.153 164.608C141.239 164.895 139.667 165.845 138.594 167.305C137.518 168.768 137.073 170.565 137.34 172.365C137.396 172.795 138.829 184.327 130.972 186.449C127.056 187.508 123.447 188.175 119.958 188.821C109.021 190.858 98.7047 192.778 93.3093 204.934C91.2271 209.627 90.951 214.496 91.2704 218.415C84.3965 221.882 79.3361 226.844 76.2043 233.197C68.6099 248.602 75.603 266.294 75.9044 267.04C76.9377 269.609 79.3892 271.273 82.1452 271.273C83.0177 271.273 83.873 271.104 84.6874 270.77C88.1215 269.364 89.7862 265.389 88.3935 261.913C88.3518 261.807 83.4653 248.991 88.2807 239.249C89.7241 236.323 91.9835 233.863 95.0198 231.899C95.8955 233.679 96.8937 235.335 97.9801 236.804C102.132 242.42 107.504 245.512 113.104 245.512C113.783 245.512 114.475 245.464 115.154 245.374C120.427 244.66 124.634 241.274 126.415 236.316C128.39 230.82 127.021 224.351 122.926 219.834C120.436 217.093 115.896 213.829 108.394 213.829C107.207 213.829 105.979 213.916 104.717 214.088C104.834 212.881 105.103 211.646 105.612 210.502C107.994 205.136 111.784 204.181 122.393 202.211C126.059 201.528 130.105 200.772 134.454 199.598C150.072 195.381 151.891 178.629 150.672 170.36C150.177 166.997 147.369 164.557 143.996 164.557ZM107.973 227.453C108.108 227.449 108.242 227.447 108.375 227.447C110.999 227.447 112.332 228.307 112.988 229.029C113.75 229.87 113.971 231.037 113.742 231.675C113.694 231.795 113.607 231.85 113.37 231.882C111.921 231.894 110.258 230.657 108.786 228.665C108.505 228.284 108.234 227.88 107.973 227.453Z" fill="white"/>
<path d="M188.204 214.321C188.097 214.292 175.216 210.809 175.216 210.809L184.721 201.211C184.749 201.319 188.204 214.321 188.204 214.321ZM175.458 210.74L188.024 214.145L184.657 201.456L175.458 210.74Z" fill="#B8BBFD"/>
<path d="M188.114 216.13C187.951 216.13 187.789 216.111 187.625 216.067L174.849 212.609C174.201 212.432 173.693 211.922 173.52 211.265C173.345 210.613 173.53 209.911 174.006 209.431L183.358 199.989C183.834 199.503 184.521 199.322 185.177 199.499C185.826 199.675 186.333 200.186 186.506 200.842L189.931 213.741C190.106 214.394 189.922 215.095 189.445 215.575C189.088 215.939 188.607 216.13 188.114 216.13ZM178.973 209.794L185.452 211.545L183.714 205.003L178.973 209.794Z" fill="#222222"/>
<path fill-rule="evenodd" clip-rule="evenodd" d="M95.9989 112.834C103.83 112.834 110.179 119.246 110.179 127.152C110.179 135.058 103.83 141.465 95.9989 141.465C88.1701 141.465 81.8223 135.058 81.8223 127.152C81.8223 119.246 88.1701 112.834 95.9989 112.834Z" fill="#222222"/>
<path d="M438.745 29.1277C438.745 45.1889 451.688 58.2558 467.597 58.2558C483.505 58.2558 496.448 45.1887 496.448 29.1277C496.448 13.0666 483.505 0 467.597 0C451.688 0 438.745 13.0666 438.745 29.1277ZM460.395 47.1342C460.149 47.4445 459.781 47.5935 459.403 47.5935C458.132 47.5935 457.424 45.9765 458.339 45.0563C458.809 44.5813 459.549 44.5061 460.136 44.8722C461.005 45.413 461.068 46.5901 460.395 47.1342ZM455.674 27.9923C456.118 27.5061 456.872 27.4732 457.355 27.9242L465.14 35.1745L484.257 17.6501C484.744 17.205 485.497 17.2413 485.937 17.7316C486.38 18.2231 486.343 18.9826 485.857 19.4284C464.986 38.3989 466.011 38.0038 465.134 38.0038C464.253 38.0038 464.483 37.674 455.741 29.6897C455.259 29.2398 455.228 28.4801 455.674 27.9923ZM454.456 44.6152C454.998 44.9894 455.138 45.7366 454.768 46.2843C454.395 46.8358 453.654 46.9711 453.115 46.5998C443.802 40.1865 440.351 27.8157 445.093 17.4006C445.367 16.7977 446.073 16.5344 446.671 16.8112C447.268 17.0885 447.529 17.8018 447.255 18.4046C443.02 27.7037 446.051 38.8274 454.456 44.6152Z" fill="#222222"/>
</svg>
