<svg width="86" height="20" viewBox="0 0 86 20" fill="none" xmlns="http://www.w3.org/2000/svg">
<path d="M55.2158 0C60.343 0 64.4999 4.25361 64.5 9.5V10.1309C64.4998 11.689 64.1251 13.2235 63.4092 14.5986L60.5908 20L57.9785 18.5723C57.1059 18.8502 56.1779 19 55.2158 19H41.5342C36.4069 19 32.25 14.7465 32.25 9.5C32.2501 4.25361 36.407 0 41.5342 0H55.2158ZM4.88672 11.5C4.88672 12.1628 5.14363 12.7988 5.60156 13.2676C6.05964 13.7363 6.68129 13.9999 7.3291 14H12.7041V19H7.3291C3.28144 18.9998 0 15.6418 0 11.5V0H4.88672V11.5ZM21.9883 0C27.1155 0 31.2723 4.25361 31.2725 9.5C31.2725 14.7465 27.1155 19 21.9883 19C16.8612 18.9998 12.7041 14.7464 12.7041 9.5C12.7042 4.25373 16.8613 0.000196658 21.9883 0ZM74.7617 0C79.8887 0.000195467 84.0458 4.25373 84.0459 9.5C84.0459 14.7464 79.8888 18.9998 74.7617 19C69.6345 19 65.4775 14.7465 65.4775 9.5C65.4777 4.25361 69.6345 0 74.7617 0ZM21.9883 5C21.4109 5.00005 20.8391 5.11667 20.3057 5.34277C19.7721 5.56892 19.2873 5.9005 18.8789 6.31836C18.4706 6.73621 18.1468 7.23239 17.9258 7.77832C17.7048 8.32418 17.5909 8.90917 17.5908 9.5C17.5908 10.0909 17.7048 10.6767 17.9258 11.2227C18.1468 11.7685 18.4706 12.2648 18.8789 12.6826C19.2872 13.1004 19.7723 13.4311 20.3057 13.6572C20.8391 13.8833 21.4109 14 21.9883 14C23.1546 14 24.2739 13.5265 25.0986 12.6826C25.9234 11.8387 26.3867 10.6935 26.3867 9.5C26.3867 8.30672 25.9232 7.16219 25.0986 6.31836C24.2739 5.47445 23.1546 5 21.9883 5ZM41.5342 5C40.9568 5 40.385 5.11672 39.8516 5.34277C39.3181 5.56889 38.8331 5.90056 38.4248 6.31836C38.0164 6.73622 37.6917 7.23236 37.4707 7.77832C37.2498 8.32413 37.1367 8.90923 37.1367 9.5C37.1367 10.0909 37.2497 10.6767 37.4707 11.2227C37.6917 11.7686 38.0165 12.2648 38.4248 12.6826C38.8331 13.1003 39.3182 13.4312 39.8516 13.6572C40.3851 13.8833 40.9567 14 41.5342 14H55.2158C56.3763 14 57.4897 13.5307 58.3135 12.6943C59.1372 11.858 59.6043 10.7225 59.6133 9.53516V9.5C59.6132 8.30661 59.1499 7.16222 58.3252 6.31836C57.5005 5.47453 56.3821 5 55.2158 5H41.5342ZM74.7617 5C73.5954 5 72.4761 5.47445 71.6514 6.31836C70.8268 7.16219 70.3633 8.30672 70.3633 9.5C70.3633 10.6935 70.8266 11.8387 71.6514 12.6826C72.4761 13.5265 73.5954 14 74.7617 14C75.9279 13.9999 77.0465 13.5263 77.8711 12.6826C78.6958 11.8387 79.1592 10.6935 79.1592 9.5C79.1591 8.30665 78.6957 7.16221 77.8711 6.31836C77.0464 5.47453 75.9279 5.0001 74.7617 5ZM84.7783 0C85.1023 0 85.4135 0.13179 85.6426 0.366211C85.8716 0.600566 85.9999 0.918604 86 1.25C86 1.58137 85.8715 1.8994 85.6426 2.13379C85.4135 2.36821 85.1023 2.5 84.7783 2.5C84.4544 2.49996 84.1441 2.36817 83.915 2.13379C83.6859 1.89937 83.5566 1.58152 83.5566 1.25C83.5567 0.918567 83.686 0.600574 83.915 0.366211C84.1441 0.131987 84.4545 4.20579e-05 84.7783 0Z" fill="#656565"/>
</svg>
