<svg width="118" height="28" viewBox="0 0 118 28" fill="none" xmlns="http://www.w3.org/2000/svg">
<path d="M99.6816 5.39453C101.202 0.236961 108.565 0.430077 109.812 5.66016L115.059 27.6553H107.87L104.533 13.668L102.053 22.082C100.573 27.1009 93.472 27.1009 91.9932 22.082L89.5127 13.668L86.1758 27.6553H78.9863L84.2334 5.66016C85.4814 0.430131 92.8443 0.237009 94.3643 5.39453L97.0234 14.4131L99.6816 5.39453ZM6.99316 27.6543H0V1.40527H6.99316V27.6543ZM25.3486 1.40527C30.1758 1.40533 34.0886 5.32206 34.0889 10.1543C34.0889 14.9868 30.176 18.9042 25.3486 18.9043H17.4814V27.6543H10.4893V1.40527H25.3486ZM50.6963 8.4043H48.9482C46.0521 8.40449 43.7044 10.7552 43.7041 13.6543V14.5293C43.7041 21.778 37.8339 27.6543 30.5928 27.6543H29.7188V20.6543H30.5928C33.972 20.6543 36.7119 17.912 36.7119 14.5293V13.6543C36.7122 6.88914 42.1902 1.40546 48.9482 1.40527H50.6963V8.4043ZM60.3115 14.9668C60.3115 18.1079 62.8553 20.6543 65.9932 20.6543C69.131 20.6543 71.6748 18.1079 71.6748 14.9668V1.40527H78.667V14.9668C78.667 21.9739 72.993 27.6543 65.9932 27.6543C58.9935 27.6543 53.3193 21.9739 53.3193 14.9668V1.40527H60.3115V14.9668ZM17.4814 11.9043H25.3486C26.3141 11.9042 27.0967 11.1208 27.0967 10.1543C27.0964 9.18807 26.3139 8.40435 25.3486 8.4043H17.4814V11.9043ZM115.257 0C116.705 0.000257754 117.879 1.17552 117.879 2.625C117.879 4.07459 116.705 5.24974 115.257 5.25C113.809 5.25 112.635 4.07475 112.635 2.625C112.635 1.17536 113.809 0 115.257 0Z" fill="#656565"/>
</svg>
