<svg width="178" height="28" viewBox="0 0 178 28" fill="none" xmlns="http://www.w3.org/2000/svg">
<path d="M87.7881 8.75024C88.936 8.75027 89.9392 9.04283 90.7979 9.62915C91.0737 9.81553 91.3298 10.0219 91.5664 10.2483H91.6406V8.94751H95.1963V21.5217C95.1963 22.5376 95.0224 23.4304 94.6758 24.1985C94.3285 24.9664 93.837 25.6109 93.2012 26.1311C92.5739 26.6513 91.8302 27.0392 90.9717 27.2952C90.1125 27.5594 89.1673 27.6916 88.1348 27.6917C87.0281 27.6917 86.0116 27.555 85.0869 27.2825C84.1704 27.0182 83.4475 26.7458 82.9189 26.4651L84.208 23.3928C84.67 23.6736 85.207 23.9133 85.8184 24.1116C86.4375 24.3179 87.0654 24.4211 87.7012 24.4211C88.2458 24.4211 88.8119 24.3304 89.3984 24.1487C89.9844 23.967 90.4848 23.678 90.8975 23.2815C91.3108 22.8934 91.5166 22.3812 91.5166 21.7454V20.4563H91.457C91.215 20.6954 90.9541 20.9149 90.6748 21.1135C89.7908 21.7329 88.7833 22.0422 87.6514 22.0422C86.9494 22.0422 86.2516 21.9101 85.5576 21.6458C84.8638 21.3732 84.233 20.9641 83.6631 20.4192C83.1011 19.8658 82.6502 19.1767 82.3115 18.3508C81.9729 17.525 81.8037 16.5545 81.8037 15.4397C81.8037 13.9532 82.093 12.7183 82.6709 11.7356C83.2576 10.7445 84.0091 10.0007 84.9258 9.50513C85.8424 9.00133 86.7968 8.75024 87.7881 8.75024ZM125.769 8.73755C126.768 8.73755 127.722 8.99749 128.631 9.51782C129.547 10.038 130.29 10.8103 130.86 11.8342C131.43 12.8584 131.706 14.1345 131.69 15.6624C131.698 16.8185 131.537 17.8259 131.207 18.6848C130.876 19.5355 130.43 20.2424 129.869 20.804C129.308 21.3654 128.68 21.7869 127.986 22.0676C127.293 22.3484 126.591 22.4885 125.88 22.4885C124.757 22.4885 123.749 22.1747 122.857 21.5471C122.633 21.387 122.42 21.2134 122.22 21.0266H122.139V27.4934H118.225V8.96021H121.94V10.2854H121.989C122.223 10.0548 122.475 9.84406 122.746 9.65356C123.621 9.0425 124.629 8.73759 125.769 8.73755ZM38.4277 0.0754395C45.7528 0.0754548 49.4214 9.28849 44.2422 14.677L32.959 26.4143C32.4411 26.9532 31.5557 26.5719 31.5557 25.8098V15.4719L32.8594 14.1155C33.8953 13.0378 33.1614 11.1956 31.6963 11.1956H15.1113L24.8369 1.07739C25.4536 0.435951 26.291 0.075531 27.1631 0.0754395H38.4277ZM13.707 0.252197C14.225 -0.286654 15.1113 0.0956174 15.1113 0.857666V11.1956L13.8076 12.552C12.7717 13.6297 13.5048 15.4717 14.9697 15.4719H31.5557L21.8301 25.5901C21.2134 26.2317 20.3751 26.592 19.5029 26.592H8.23828C0.913157 26.5918 -2.75487 17.378 2.4248 11.9895L13.707 0.252197ZM73.8604 8.76196C75.1648 8.76203 76.3421 9.05108 77.3906 9.62915C78.4393 10.2073 79.2695 11.0128 79.8809 12.0452C80.5 13.0774 80.8095 14.2666 80.8096 15.6125C80.8096 16.9587 80.5002 18.1485 79.8809 19.1809C79.2695 20.2132 78.4352 21.0223 77.3779 21.6086C76.3294 22.195 75.1568 22.4885 73.8604 22.4885C72.5804 22.4885 71.4109 22.195 70.3535 21.6086C69.305 21.0223 68.4661 20.2131 67.8389 19.1809C67.2195 18.1485 66.9102 16.9587 66.9102 15.6125C66.9102 14.2666 67.2197 13.0774 67.8389 12.0452C68.4661 11.0129 69.305 10.2073 70.3535 9.62915C71.4109 9.05102 72.5804 8.76196 73.8604 8.76196ZM103.624 8.76196C104.929 8.76196 106.105 9.05114 107.154 9.62915C108.203 10.2073 109.033 11.0128 109.645 12.0452C110.264 13.0775 110.573 14.2665 110.573 15.6125C110.573 16.9587 110.264 18.1485 109.645 19.1809C109.033 20.2131 108.199 21.0223 107.142 21.6086C106.093 22.1949 104.921 22.4885 103.624 22.4885C102.343 22.4885 101.175 22.195 100.118 21.6086C99.0689 21.0223 98.2305 20.2132 97.6025 19.1809C96.9832 18.1485 96.6738 16.9587 96.6738 15.6125C96.6739 14.2666 96.9834 13.0774 97.6025 12.0452C98.2305 11.0128 99.0688 10.2073 100.118 9.62915C101.175 9.05105 102.343 8.76197 103.624 8.76196ZM137.467 8.76196C138.598 8.76197 139.614 9.02204 140.515 9.54224C141.423 10.0626 142.068 10.7526 142.447 11.6116L139.437 12.9124C139.279 12.6481 139.049 12.3915 138.743 12.1438C138.446 11.896 138.065 11.7727 137.604 11.7727C137.215 11.7727 136.893 11.8714 136.637 12.0696C136.381 12.2677 136.253 12.5156 136.253 12.8127C136.253 13.1101 136.381 13.3498 136.637 13.5315C136.893 13.7132 137.219 13.8701 137.615 14.0022C138.012 14.1343 138.425 14.2621 138.854 14.386C139.185 14.4768 139.569 14.6091 140.007 14.7825C140.444 14.9476 140.87 15.175 141.283 15.4641C141.704 15.7531 142.051 16.1252 142.323 16.5793C142.604 17.0335 142.744 17.5907 142.744 18.2512C142.744 19.0853 142.513 19.8248 142.051 20.469C141.596 21.1049 140.989 21.6002 140.229 21.9553C139.478 22.3105 138.648 22.4885 137.739 22.4885C136.947 22.4885 136.187 22.3519 135.46 22.0793C134.741 21.8068 134.105 21.4225 133.552 20.927C132.999 20.4233 132.581 19.8371 132.301 19.1682L135.373 17.8176C135.58 18.2057 135.889 18.5733 136.302 18.9202C136.715 19.2669 137.203 19.4406 137.764 19.4407C138.061 19.4407 138.322 19.3914 138.545 19.2922C138.768 19.1849 138.941 19.0482 139.064 18.8831C139.197 18.7179 139.264 18.5407 139.264 18.3508C139.264 18.1113 139.169 17.9042 138.979 17.7307C138.789 17.5573 138.544 17.4093 138.247 17.2854C137.95 17.1615 137.636 17.054 137.306 16.9631C136.984 16.8723 136.687 16.7894 136.414 16.7151C135.786 16.5251 135.191 16.2651 134.63 15.9348C134.077 15.5962 133.627 15.1669 133.279 14.6467C132.933 14.1264 132.76 13.4945 132.76 12.7512C132.76 11.9666 132.962 11.2766 133.366 10.6819C133.78 10.0791 134.337 9.60833 135.039 9.26978C135.749 8.93126 136.559 8.76196 137.467 8.76196ZM148.037 16.8147C148.037 17.5826 148.236 18.1689 148.632 18.5735C149.036 18.9699 149.528 19.1682 150.106 19.1682C150.536 19.1682 150.912 19.073 151.234 18.8831C151.564 18.6932 151.82 18.425 152.002 18.0784C152.192 17.7233 152.286 17.3018 152.286 16.8147V8.96021H156.201V17.6194C156.201 18.0984 156.272 18.4457 156.412 18.6604C156.553 18.8751 156.837 19.0612 157.267 19.218L155.879 22.4885C154.896 22.2325 154.178 21.8975 153.724 21.4846C153.495 21.2766 153.322 21.0367 153.204 20.7659H153.104C152.758 21.1136 152.374 21.4239 151.952 21.6956C151.118 22.2239 150.16 22.4885 149.078 22.4885C148.162 22.4885 147.327 22.2945 146.576 21.9065C145.824 21.5101 145.225 20.9317 144.779 20.1721C144.342 19.4042 144.123 18.4582 144.123 17.3352V8.96021H148.037V16.8147ZM60.3906 4.02954V18.6731H66.9688V22.2903H56.3271V4.02954H60.3906ZM116.016 22.2903H112.101V8.96021H116.016V22.2903ZM173.499 8.76196C174.382 8.76196 175.11 8.9188 175.68 9.23267C176.25 9.53817 176.696 9.94285 177.018 10.4465C177.34 10.9421 177.566 11.4876 177.698 12.0823C177.831 12.6684 177.897 13.238 177.897 13.7913V22.2903H173.957V14.2747C173.957 13.548 173.804 12.9909 173.499 12.6028C173.202 12.2064 172.764 12.0081 172.186 12.0081C171.806 12.0081 171.467 12.0945 171.17 12.2678C170.881 12.433 170.65 12.6851 170.477 13.0237C170.311 13.3623 170.229 13.7793 170.229 14.2747V22.2903H166.313V14.2747C166.313 13.5482 166.161 12.9909 165.855 12.6028C165.55 12.2065 165.108 12.0081 164.53 12.0081C163.969 12.0081 163.502 12.2019 163.13 12.5901C162.759 12.97 162.572 13.5402 162.572 14.3V22.2903H158.658V8.96021H162.387V10.6575H162.455C162.747 10.252 163.075 9.90911 163.44 9.62915C164.184 9.05117 165.063 8.76196 166.079 8.76196C166.921 8.76204 167.635 8.96834 168.222 9.3811C168.674 9.6889 169.043 10.1023 169.328 10.6204H169.398C169.82 10.0825 170.333 9.66099 170.935 9.35669C171.719 8.96033 172.574 8.762 173.499 8.76196ZM124.89 12.0325C124.336 12.0242 123.84 12.1609 123.402 12.4417C122.965 12.7224 122.618 13.1316 122.362 13.6682C122.106 14.1968 121.979 14.8367 121.979 15.5881C121.979 16.3149 122.106 16.9512 122.362 17.4963C122.626 18.0412 122.982 18.4618 123.428 18.759C123.874 19.0564 124.386 19.2098 124.964 19.218C125.542 19.2097 126.049 19.0563 126.487 18.759C126.925 18.4618 127.268 18.0412 127.516 17.4963C127.764 16.9512 127.884 16.3149 127.875 15.5881C127.884 14.8449 127.76 14.2085 127.504 13.6799C127.256 13.1432 126.905 12.7342 126.45 12.4534C125.996 12.1645 125.476 12.0242 124.89 12.0325ZM73.8848 12.1067C73.2654 12.1067 72.7079 12.2556 72.2119 12.553C71.7246 12.842 71.3402 13.251 71.0596 13.7795C70.7791 14.3079 70.6387 14.919 70.6387 15.6125C70.6387 16.3144 70.7791 16.9298 71.0596 17.4583C71.3489 17.9869 71.7373 18.4002 72.2246 18.6975C72.7119 18.9948 73.257 19.1438 73.8604 19.1438C74.4714 19.1437 75.0197 18.9946 75.5068 18.6975C75.9942 18.4002 76.3788 17.9869 76.6602 17.4583C76.9407 16.9298 77.0811 16.3144 77.0811 15.6125C77.081 14.9354 76.9445 14.3325 76.6719 13.804C76.3993 13.2756 76.024 12.863 75.5449 12.5657C75.0663 12.2601 74.512 12.1067 73.8848 12.1067ZM103.648 12.1067C103.029 12.1067 102.472 12.2558 101.977 12.553C101.489 12.842 101.105 13.2509 100.824 13.7795C100.544 14.308 100.402 14.919 100.402 15.6125C100.402 16.3144 100.544 16.9298 100.824 17.4583C101.113 17.9867 101.501 18.4002 101.988 18.6975C102.476 18.9948 103.021 19.1438 103.624 19.1438C104.235 19.1438 104.784 18.9948 105.271 18.6975C105.759 18.4002 106.143 17.9868 106.424 17.4583C106.704 16.9298 106.845 16.3143 106.845 15.6125C106.845 14.9355 106.709 14.3325 106.437 13.804C106.164 13.2755 105.787 12.863 105.309 12.5657C104.829 12.2601 104.276 12.1067 103.648 12.1067ZM88.6797 11.9084C88.0931 11.9085 87.569 12.0496 87.1064 12.3303C86.6439 12.6028 86.2805 12.9951 86.0166 13.5071C85.7607 14.019 85.6318 14.622 85.6318 15.3157C85.6319 16.0094 85.7606 16.6246 86.0166 17.1614C86.2726 17.6899 86.6234 18.1068 87.0693 18.4124C87.5153 18.7097 88.0315 18.8586 88.6182 18.8586C89.2127 18.8586 89.7375 18.7097 90.1914 18.4124C90.6453 18.1151 91.0049 17.7025 91.2695 17.1741C91.5335 16.6373 91.665 16.0176 91.665 15.3157C91.665 14.6054 91.5372 13.9982 91.2812 13.4944C91.0253 12.9824 90.6745 12.5902 90.2285 12.3176C89.7825 12.0451 89.2657 11.9084 88.6797 11.9084ZM114.07 2.66724C114.739 2.66724 115.302 2.8981 115.756 3.3606C116.218 3.81479 116.449 4.38074 116.449 5.05786C116.449 5.71839 116.218 6.27999 115.756 6.74243C115.302 7.2049 114.739 7.43677 114.07 7.43677C113.401 7.43666 112.836 7.20479 112.373 6.74243C111.911 6.27998 111.68 5.71839 111.68 5.05786C111.68 4.38073 111.91 3.81479 112.373 3.3606C112.836 2.8982 113.401 2.66734 114.07 2.66724Z" fill="#656565"/>
</svg>
